<svg xmlns="http://www.w3.org/2000/svg" xmlns:xlink="http://www.w3.org/1999/xlink" width="113" height="113" viewBox="0 0 113 113">
  <defs>
    <filter id="Path_982547" x="0" y="0" width="113" height="113" filterUnits="userSpaceOnUse">
      <feOffset dy="3" input="SourceAlpha"/>
      <feGaussianBlur stdDeviation="3" result="blur"/>
      <feFlood flood-opacity="0.161"/>
      <feComposite operator="in" in2="blur"/>
      <feComposite in="SourceGraphic"/>
    </filter>
  </defs>
  <g id="Group_1208240" data-name="Group 1208240" transform="translate(-1164.151 -7103.855)">
    <g id="Group_1208135" data-name="Group 1208135">
      <g id="Group_1207918" data-name="Group 1207918" transform="translate(1173.151 7109.855)">
        <g id="Group_1207254" data-name="Group 1207254">
          <g id="Group_1204125" data-name="Group 1204125">
            <g id="Group_1203962" data-name="Group 1203962" transform="translate(0 0)">
              <g id="Group_1203498" data-name="Group 1203498">
                <g id="Group_1202589" data-name="Group 1202589">
                  <g id="Group_1172010" data-name="Group 1172010">
                    <g id="Group_1171046" data-name="Group 1171046">
                      <g id="Group_1148525" data-name="Group 1148525">
                        <g transform="matrix(1, 0, 0, 1, -9, -6)" filter="url(#Path_982547)">
                          <g id="Path_982547-2" data-name="Path 982547" transform="translate(9 6)" fill="#edf3fc">
                            <path d="M 47.5 93.5 C 41.28937149047852 93.5 35.26533508300781 92.28397369384766 29.59518623352051 89.88570404052734 C 24.11771965026855 87.56893157958984 19.19813346862793 84.25196075439453 14.97309303283691 80.02691650390625 C 10.74804019927979 75.80186462402344 7.431066513061523 70.88229370117188 5.114293098449707 65.40481567382812 C 2.716026782989502 59.73468017578125 1.5 53.71062850952148 1.5 47.5 C 1.5 41.28937149047852 2.716026782989502 35.26533508300781 5.114293098449707 29.59518623352051 C 7.431066513061523 24.11771965026855 10.74804019927979 19.19813346862793 14.97309303283691 14.97309303283691 C 19.19813346862793 10.74804019927979 24.11771965026855 7.431066513061523 29.59518623352051 5.114293098449707 C 35.26533508300781 2.716026782989502 41.28937149047852 1.5 47.5 1.5 C 53.71062850952148 1.5 59.73468017578125 2.716026782989502 65.40481567382812 5.114293098449707 C 70.88229370117188 7.431066513061523 75.80186462402344 10.74804019927979 80.02691650390625 14.97309303283691 C 84.25196075439453 19.19813346862793 87.56893157958984 24.11771965026855 89.88570404052734 29.59518623352051 C 92.28397369384766 35.26533508300781 93.5 41.28937149047852 93.5 47.5 C 93.5 53.71062850952148 92.28397369384766 59.73468017578125 89.88570404052734 65.40481567382812 C 87.56893157958984 70.88229370117188 84.25196075439453 75.80186462402344 80.02691650390625 80.02691650390625 C 75.80186462402344 84.25196075439453 70.88229370117188 87.56893157958984 65.40481567382812 89.88570404052734 C 59.73468017578125 92.28397369384766 53.71062850952148 93.5 47.5 93.5 Z" stroke="none"/>
                            <path d="M 47.5 3 C 41.49121475219727 3 35.66376876831055 4.176155090332031 30.17950439453125 6.495796203613281 C 24.88084411621094 8.736953735351562 20.12152099609375 11.94598388671875 16.03375244140625 16.03375244140625 C 11.94598388671875 20.12152099609375 8.736953735351562 24.88084411621094 6.495796203613281 30.17950439453125 C 4.176155090332031 35.66376876831055 3 41.49121475219727 3 47.5 C 3 53.50878524780273 4.176155090332031 59.33623123168945 6.495796203613281 64.82049560546875 C 8.736953735351562 70.11915588378906 11.94598388671875 74.87847900390625 16.03375244140625 78.96624755859375 C 20.12152099609375 83.05401611328125 24.88084411621094 86.26304626464844 30.17950439453125 88.50419616699219 C 35.66376876831055 90.82384490966797 41.49121475219727 92 47.5 92 C 53.50878524780273 92 59.33623123168945 90.82384490966797 64.82049560546875 88.50419616699219 C 70.11915588378906 86.26304626464844 74.87847900390625 83.05401611328125 78.96624755859375 78.96624755859375 C 83.05401611328125 74.87847900390625 86.26304626464844 70.11915588378906 88.50419616699219 64.82049560546875 C 90.82384490966797 59.33623123168945 92 53.50878524780273 92 47.5 C 92 41.49121475219727 90.82384490966797 35.66376876831055 88.50419616699219 30.17950439453125 C 86.26304626464844 24.88084411621094 83.05401611328125 20.12152099609375 78.96624755859375 16.03375244140625 C 74.87847900390625 11.94598388671875 70.11915588378906 8.736953735351562 64.82049560546875 6.495796203613281 C 59.33623123168945 4.176155090332031 53.50878524780273 3 47.5 3 M 47.5 0 C 73.7335205078125 0 95 21.2664794921875 95 47.5 C 95 73.7335205078125 73.7335205078125 95 47.5 95 C 21.2664794921875 95 0 73.7335205078125 0 47.5 C 0 21.2664794921875 21.2664794921875 0 47.5 0 Z" stroke="none" fill="#5692e8"/>
                          </g>
                        </g>
                      </g>
                    </g>
                  </g>
                </g>
              </g>
            </g>
          </g>
        </g>
      </g>
      <g id="satisfaction_9097292" transform="translate(1154.442 7113.009)">
        <path id="Path_1052383" data-name="Path 1052383" d="M90.381,10a17.287,17.287,0,0,0-12.3,29.44l-.1,7.992,7.8-3.473A17.29,17.29,0,1,0,90.381,10Z" transform="translate(-30.191)" fill="#fff"/>
        <line id="Line_850" data-name="Line 850" transform="translate(77.479 27.288)" fill="none" stroke="#000" stroke-linecap="round" stroke-linejoin="round" stroke-miterlimit="10" stroke-width="1"/>
        <path id="Path_1052384" data-name="Path 1052384" d="M106.777,21.791A17.29,17.29,0,1,0,78.086,39.44l-.1,7.992,7.8-3.473a17.308,17.308,0,0,0,20.963-11.1" transform="translate(-30.191)" fill="none" stroke="#000" stroke-linecap="round" stroke-linejoin="round" stroke-miterlimit="10" stroke-width="1"/>
        <g id="Group_1208133" data-name="Group 1208133" transform="translate(38.494 53.179)">
          <g id="Group_1208132" data-name="Group 1208132" transform="translate(0)">
            <g id="Group_1208131" data-name="Group 1208131">
              <path id="Path_1052385" data-name="Path 1052385" d="M78.543,353.31v10.3l-22.337-1.974a21.115,21.115,0,0,1-3.779-.667L41.1,357.879a3.542,3.542,0,0,1,1.783-6.856l10.515,2.6a3.391,3.391,0,0,1,2.542-4.751H67.035a8.608,8.608,0,0,1,4.311,1.155l3.611,2.085.033.019A9.562,9.562,0,0,0,78.543,353.31Z" transform="translate(-38.494 -348.868)" fill="#ffdad5"/>
              <path id="Path_1052386" data-name="Path 1052386" d="M78.543,353.31v10.3l-22.337-1.974a21.115,21.115,0,0,1-3.779-.667L41.1,357.879a3.542,3.542,0,0,1,1.783-6.856l10.515,2.6a3.391,3.391,0,0,1,2.542-4.751H67.035a8.608,8.608,0,0,1,4.311,1.155l3.611,2.085.033.019A9.562,9.562,0,0,0,78.543,353.31Z" transform="translate(-38.494 -348.868)" fill="#ffc6ae"/>
              <path id="Path_1052387" data-name="Path 1052387" d="M78.543,353.31v10.3l-22.337-1.974a21.115,21.115,0,0,1-3.779-.667L41.1,357.879a3.542,3.542,0,0,1,1.783-6.856l10.515,2.6a3.391,3.391,0,0,1,2.542-4.751H67.035a8.608,8.608,0,0,1,4.311,1.155l3.611,2.085.033.019A9.562,9.562,0,0,0,78.543,353.31Z" transform="translate(-38.494 -348.868)" fill="none" stroke="#000" stroke-linecap="round" stroke-linejoin="round" stroke-miterlimit="10" stroke-width="1"/>
              <path id="Path_1052388" data-name="Path 1052388" d="M163.559,348.868h-7.615a3.391,3.391,0,0,0-2.846,3.347h0a3.391,3.391,0,0,0,3.391,3.391h8.1" transform="translate(-138.494 -348.868)" fill="none" stroke="#000" stroke-linecap="round" stroke-linejoin="round" stroke-miterlimit="10" stroke-width="1"/>
            </g>
          </g>
        </g>
        <rect id="Rectangle_418500" data-name="Rectangle 418500" width="6.03" height="14.176" transform="translate(78.543 55.423)" fill="#fff"/>
        <rect id="Rectangle_418501" data-name="Rectangle 418501" width="9.35" height="18.389" transform="translate(84.574 54.303)" fill="#868eaf"/>
        <rect id="Rectangle_418502" data-name="Rectangle 418502" width="6.03" height="14.176" transform="translate(78.543 55.423)" fill="none" stroke="#000" stroke-linecap="round" stroke-linejoin="round" stroke-miterlimit="10" stroke-width="1"/>
        <path id="Path_1052389" data-name="Path 1052389" d="M409.476,376.076h-9.35V357.687h9.35" transform="translate(-315.552 -303.384)" fill="none" stroke="#000" stroke-linecap="round" stroke-linejoin="round" stroke-miterlimit="10" stroke-width="1"/>
        <circle id="Ellipse_13468" data-name="Ellipse 13468" cx="10.302" cy="10.302" r="10.302" transform="translate(49.88 16.903)" fill="#ffce62"/>
        <circle id="Ellipse_13469" data-name="Ellipse 13469" cx="10.302" cy="10.302" r="10.302" transform="translate(49.88 16.903)" fill="none" stroke="#000" stroke-linecap="round" stroke-linejoin="round" stroke-miterlimit="10" stroke-width="1"/>
        <g id="Group_1208134" data-name="Group 1208134" transform="translate(56.986 23.92)">
          <line id="Line_851" data-name="Line 851" fill="none" stroke="#000" stroke-linecap="round" stroke-linejoin="round" stroke-miterlimit="10" stroke-width="1"/>
          <line id="Line_852" data-name="Line 852" transform="translate(6.296)" fill="none" stroke="#000" stroke-linecap="round" stroke-linejoin="round" stroke-miterlimit="10" stroke-width="1"/>
        </g>
        <path id="Path_1052390" data-name="Path 1052390" d="M184.932,161.977a4.409,4.409,0,0,1-4.076,2.457,4.648,4.648,0,0,1-4.076-2.457" transform="translate(-120.665 -132.612)" fill="none" stroke="#000" stroke-linecap="round" stroke-linejoin="round" stroke-miterlimit="10" stroke-width="1"/>
      </g>
    </g>
  </g>
</svg>
