<svg xmlns="http://www.w3.org/2000/svg" xmlns:xlink="http://www.w3.org/1999/xlink" width="113" height="113" viewBox="0 0 113 113">
  <defs>
    <filter id="Path_982547" x="0" y="0" width="113" height="113" filterUnits="userSpaceOnUse">
      <feOffset dy="3" input="SourceAlpha"/>
      <feGaussianBlur stdDeviation="3" result="blur"/>
      <feFlood flood-opacity="0.161"/>
      <feComposite operator="in" in2="blur"/>
      <feComposite in="SourceGraphic"/>
    </filter>
  </defs>
  <g id="Group_1208181" data-name="Group 1208181" transform="translate(-1216 -2822.143)">
    <g id="Group_1208017" data-name="Group 1208017">
      <g id="Group_1207724" data-name="Group 1207724" transform="translate(-1 752.362)">
        <g id="Group_1207257" data-name="Group 1207257" transform="translate(0 -8747.046)">
          <g id="Group_1204128" data-name="Group 1204128" transform="translate(0 6976.49)">
            <g id="Group_1203961" data-name="Group 1203961" transform="translate(0.44 1899.461)">
              <g id="Group_1203500" data-name="Group 1203500" transform="translate(0 -197.72)">
                <g id="Group_1202592" data-name="Group 1202592" transform="translate(1225.561 2144.596)">
                  <g id="Group_1172010" data-name="Group 1172010" transform="translate(0)">
                    <g id="Group_1171046" data-name="Group 1171046">
                      <g id="Group_1148525" data-name="Group 1148525">
                        <g transform="matrix(1, 0, 0, 1, -9, -6)" filter="url(#Path_982547)">
                          <g id="Path_982547-2" data-name="Path 982547" transform="translate(9 6)" fill="#edf3fc">
                            <path d="M 47.5 93.5 C 41.28937149047852 93.5 35.26533508300781 92.28397369384766 29.59518623352051 89.88570404052734 C 24.11771965026855 87.56893157958984 19.19813346862793 84.25196075439453 14.97309303283691 80.02691650390625 C 10.74804019927979 75.80186462402344 7.431066513061523 70.88229370117188 5.114293098449707 65.40481567382812 C 2.716026782989502 59.73468017578125 1.5 53.71062850952148 1.5 47.5 C 1.5 41.28937149047852 2.716026782989502 35.26533508300781 5.114293098449707 29.59518623352051 C 7.431066513061523 24.11771965026855 10.74804019927979 19.19813346862793 14.97309303283691 14.97309303283691 C 19.19813346862793 10.74804019927979 24.11771965026855 7.431066513061523 29.59518623352051 5.114293098449707 C 35.26533508300781 2.716026782989502 41.28937149047852 1.5 47.5 1.5 C 53.71062850952148 1.5 59.73468017578125 2.716026782989502 65.40481567382812 5.114293098449707 C 70.88229370117188 7.431066513061523 75.80186462402344 10.74804019927979 80.02691650390625 14.97309303283691 C 84.25196075439453 19.19813346862793 87.56893157958984 24.11771965026855 89.88570404052734 29.59518623352051 C 92.28397369384766 35.26533508300781 93.5 41.28937149047852 93.5 47.5 C 93.5 53.71062850952148 92.28397369384766 59.73468017578125 89.88570404052734 65.40481567382812 C 87.56893157958984 70.88229370117188 84.25196075439453 75.80186462402344 80.02691650390625 80.02691650390625 C 75.80186462402344 84.25196075439453 70.88229370117188 87.56893157958984 65.40481567382812 89.88570404052734 C 59.73468017578125 92.28397369384766 53.71062850952148 93.5 47.5 93.5 Z" stroke="none"/>
                            <path d="M 47.5 3 C 41.49121475219727 3 35.66376876831055 4.176155090332031 30.17950439453125 6.495796203613281 C 24.88084411621094 8.736953735351562 20.12152099609375 11.94598388671875 16.03375244140625 16.03375244140625 C 11.94598388671875 20.12152099609375 8.736953735351562 24.88084411621094 6.495796203613281 30.17950439453125 C 4.176155090332031 35.66376876831055 3 41.49121475219727 3 47.5 C 3 53.50878524780273 4.176155090332031 59.33623123168945 6.495796203613281 64.82049560546875 C 8.736953735351562 70.11915588378906 11.94598388671875 74.87847900390625 16.03375244140625 78.96624755859375 C 20.12152099609375 83.05401611328125 24.88084411621094 86.26304626464844 30.17950439453125 88.50419616699219 C 35.66376876831055 90.82384490966797 41.49121475219727 92 47.5 92 C 53.50878524780273 92 59.33623123168945 90.82384490966797 64.82049560546875 88.50419616699219 C 70.11915588378906 86.26304626464844 74.87847900390625 83.05401611328125 78.96624755859375 78.96624755859375 C 83.05401611328125 74.87847900390625 86.26304626464844 70.11915588378906 88.50419616699219 64.82049560546875 C 90.82384490966797 59.33623123168945 92 53.50878524780273 92 47.5 C 92 41.49121475219727 90.82384490966797 35.66376876831055 88.50419616699219 30.17950439453125 C 86.26304626464844 24.88084411621094 83.05401611328125 20.12152099609375 78.96624755859375 16.03375244140625 C 74.87847900390625 11.94598388671875 70.11915588378906 8.736953735351562 64.82049560546875 6.495796203613281 C 59.33623123168945 4.176155090332031 53.50878524780273 3 47.5 3 M 47.5 0 C 73.7335205078125 0 95 21.2664794921875 95 47.5 C 95 73.7335205078125 73.7335205078125 95 47.5 95 C 21.2664794921875 95 0 73.7335205078125 0 47.5 C 0 21.2664794921875 21.2664794921875 0 47.5 0 Z" stroke="none" fill="#5692e8"/>
                          </g>
                        </g>
                      </g>
                    </g>
                  </g>
                </g>
              </g>
            </g>
          </g>
        </g>
      </g>
      <g id="foot_6205058" transform="translate(1239.798 2842.621)">
        <g id="Group_1208013" data-name="Group 1208013" transform="translate(3.491 3.5)">
          <g id="Group_1208012" data-name="Group 1208012">
            <g id="Group_1207997" data-name="Group 1207997" transform="translate(40.932 42.789)">
              <path id="Path_1051908" data-name="Path 1051908" d="M37.689,39.01a12.778,12.778,0,0,0,6.386,2.723,38.125,38.125,0,0,0,7.037.229,4.619,4.619,0,0,1,2.711.47A2.866,2.866,0,0,1,54.98,45a4.751,4.751,0,0,1-1.615,3.181,8.521,8.521,0,0,1-3.217,1.735c-4.109,1.3-8.712.663-12.688,2.326Z" transform="translate(-37.46 -39.01)" fill="#ffd9b6"/>
            </g>
            <g id="Group_1207998" data-name="Group 1207998" transform="translate(40.317 42.181)">
              <path id="Path_1051909" data-name="Path 1051909" d="M37.552,52.934a.564.564,0,0,1-.337-.108.6.6,0,0,1-.265-.506L37.191,39.1a.6.6,0,0,1,.361-.542.592.592,0,0,1,.639.1,12.081,12.081,0,0,0,6.085,2.579,37.3,37.3,0,0,0,6.917.217,5.167,5.167,0,0,1,3.061.566,3.463,3.463,0,0,1,1.434,3.1,5.336,5.336,0,0,1-1.82,3.591,9.111,9.111,0,0,1-3.446,1.868,28.864,28.864,0,0,1-5.953,1,22.81,22.81,0,0,0-6.688,1.313.459.459,0,0,1-.229.048Zm.819-12.628-.193,11.146a27.829,27.829,0,0,1,6.182-1.084,28.014,28.014,0,0,0,5.7-.94,7.8,7.8,0,0,0,2.988-1.6,4.154,4.154,0,0,0,1.422-2.771,2.267,2.267,0,0,0-.88-2.024,4.224,4.224,0,0,0-2.362-.374,37.931,37.931,0,0,1-7.146-.241,13.794,13.794,0,0,1-5.712-2.109Z" transform="translate(-36.95 -38.506)"/>
            </g>
            <g id="Group_1207999" data-name="Group 1207999" transform="translate(5.783 0.602)">
              <path id="Path_1051910" data-name="Path 1051910" d="M8.29,24.292,9.013,5.41A1.464,1.464,0,0,1,10.483,4H29.534A1.461,1.461,0,0,1,31,5.506L30.281,24.28H8.29Z" transform="translate(-8.29 -4)" fill="#ffd9b6"/>
            </g>
            <g id="Group_1208000" data-name="Group 1208000" transform="translate(5.18)">
              <path id="Path_1051911" data-name="Path 1051911" d="M30.4,25h-22a.62.62,0,0,1-.434-.181.64.64,0,0,1-.169-.446L8.513,5.488A2.056,2.056,0,0,1,10.586,3.5H29.636a2.077,2.077,0,0,1,1.506.639,2.1,2.1,0,0,1,.578,1.494L31,24.406a.61.61,0,0,1-.6.59Zm-21.376-1.2h20.8l.7-18.2a.8.8,0,0,0-.241-.615.9.9,0,0,0-.639-.265H10.586a.855.855,0,0,0-.868.819Z" transform="translate(-7.79 -3.5)"/>
            </g>
            <g id="Group_1208001" data-name="Group 1208001" transform="translate(0.609 17.062)">
              <path id="Path_1051912" data-name="Path 1051912" d="M9.544,17.66a1.458,1.458,0,0,0-1.47,1.494c.253,8.363.325,16.87-2.253,24.835a37.978,37.978,0,0,0-1.687,5.687,7.8,7.8,0,0,0,1.012,5.712c1.386,1.988,3.964,2.892,6.41,2.976a38.151,38.151,0,0,0,7.278-.892c8.893-1.422,17.966-.012,26.859,1.554a1.476,1.476,0,0,0,1.735-1.277,110.987,110.987,0,0,0,.3-13.435,1.446,1.446,0,0,0-.807-1.277A71.665,71.665,0,0,0,32.727,37.53c-.084-6.1-.3-12.3-.4-18.412A1.451,1.451,0,0,0,30.86,17.7Z" transform="translate(-3.997 -17.66)" fill="#ededed"/>
            </g>
            <g id="Group_1208002" data-name="Group 1208002" transform="translate(0.609 17.062)">
              <path id="Path_1051913" data-name="Path 1051913" d="M9.544,17.66a1.458,1.458,0,0,0-1.47,1.494c.253,8.363.325,16.87-2.253,24.835a37.978,37.978,0,0,0-1.687,5.687,7.8,7.8,0,0,0,1.012,5.712c1.386,1.988,3.964,2.892,6.41,2.976a38.151,38.151,0,0,0,7.278-.892c8.893-1.422,17.966-.012,26.859,1.554a1.476,1.476,0,0,0,1.735-1.277,110.987,110.987,0,0,0,.3-13.435,1.446,1.446,0,0,0-.807-1.277A71.665,71.665,0,0,0,32.727,37.53c-.084-6.1-.3-12.3-.4-18.412A1.451,1.451,0,0,0,30.86,17.7Z" transform="translate(-3.997 -17.66)" fill="#ededed"/>
            </g>
            <g id="Group_1208003" data-name="Group 1208003" transform="translate(0 16.46)">
              <path id="Path_1051914" data-name="Path 1051914" d="M46.062,59.744a1.839,1.839,0,0,1-.361-.036c-9.122-1.6-18.026-2.928-26.666-1.554-.566.084-1.121.193-1.687.289a27.276,27.276,0,0,1-5.712.615C8.623,58.949,6.1,57.78,4.743,55.828a8.372,8.372,0,0,1-1.109-6.145A26.514,26.514,0,0,1,4.864,45.3c.157-.47.325-.928.47-1.4,2.494-7.712,2.482-16.05,2.217-24.63A2.058,2.058,0,0,1,9.623,17.16l21.3.024A2.055,2.055,0,0,1,33,19.208c.048,2.82.12,5.663.193,8.507.084,3.157.157,6.326.2,9.447A73.855,73.855,0,0,1,47.267,42.6,2.055,2.055,0,0,1,48.4,44.4v.313a104.4,104.4,0,0,1-.313,13.194,2.028,2.028,0,0,1-.807,1.41,1.845,1.845,0,0,1-1.217.422ZM26.7,56.382A111.864,111.864,0,0,1,45.9,58.527a.9.9,0,0,0,.7-.169.814.814,0,0,0,.325-.578,104.228,104.228,0,0,0,.3-13.05v-.313a.847.847,0,0,0-.47-.747,69.987,69.987,0,0,0-14.074-5.459.618.618,0,0,1-.458-.578c-.048-3.278-.133-6.591-.217-9.9-.072-2.844-.145-5.687-.193-8.519a.849.849,0,0,0-.868-.831l-21.3-.012a.855.855,0,0,0-.627.265.9.9,0,0,0-.241.615c.253,8.688.277,17.135-2.277,25.027-.157.47-.313.952-.482,1.422a25.727,25.727,0,0,0-1.181,4.181,7.185,7.185,0,0,0,.9,5.266,7.432,7.432,0,0,0,5.941,2.711,26.729,26.729,0,0,0,5.446-.59c.566-.108,1.145-.2,1.711-.3a50.378,50.378,0,0,1,7.856-.578Z" transform="translate(-3.491 -17.16)"/>
            </g>
            <g id="Group_1208011" data-name="Group 1208011" transform="translate(1.732 17.002)">
              <g id="Group_1208004" data-name="Group 1208004" transform="translate(26.175 28.39)">
                <path id="Path_1051915" data-name="Path 1051915" d="M38.338,54.328a.628.628,0,0,1-.349-.108A39.372,39.372,0,0,1,26.734,42.074a.6.6,0,1,1,1.036-.6A38.123,38.123,0,0,0,38.687,53.244a.6.6,0,0,1,.145.843A.616.616,0,0,1,38.338,54.328Z" transform="translate(-26.651 -41.171)"/>
              </g>
              <g id="Group_1208005" data-name="Group 1208005" transform="translate(26.173 22.663)">
                <path id="Path_1051916" data-name="Path 1051916" d="M27.253,43.349a.606.606,0,0,1-.277-1.145c3.555-1.771,7.037-3.7,10.339-5.7a.605.605,0,1,1,.627,1.036c-3.326,2.024-6.832,3.964-10.423,5.748a.705.705,0,0,1-.265.06Z" transform="translate(-26.649 -36.418)"/>
              </g>
              <g id="Group_1208006" data-name="Group 1208006" transform="translate(11.929 8.517)">
                <path id="Path_1051917" data-name="Path 1051917" d="M30.374,29.536a.705.705,0,0,1-.157-.024c-4.205-1.109-10.556-2.783-14.906-3.639a.6.6,0,1,1,.241-1.181c4.386.868,10.76,2.542,14.978,3.663a.6.6,0,0,1,.434.735.629.629,0,0,1-.59.446Z" transform="translate(-14.828 -24.678)"/>
              </g>
              <g id="Group_1208007" data-name="Group 1208007" transform="translate(2.314)">
                <path id="Path_1051918" data-name="Path 1051918" d="M7.453,31.817a.6.6,0,0,1-.554-.374.589.589,0,0,1,.325-.783A135.494,135.494,0,0,0,31.046,17.718a.587.587,0,0,1,.831.157.6.6,0,0,1-.157.831A136.7,136.7,0,0,1,7.682,31.756a.385.385,0,0,1-.229.06Z" transform="translate(-6.849 -17.61)"/>
              </g>
              <g id="Group_1208008" data-name="Group 1208008" transform="translate(0 11.554)">
                <path id="Path_1051919" data-name="Path 1051919" d="M5.533,42.913a.585.585,0,0,1-.518-.289.608.608,0,0,1,.2-.831L29.078,27.285a.605.605,0,0,1,.627,1.036L5.846,42.829a.584.584,0,0,1-.313.084Z" transform="translate(-4.928 -27.198)"/>
              </g>
              <g id="Group_1208009" data-name="Group 1208009" transform="translate(6.971 21.874)">
                <path id="Path_1051920" data-name="Path 1051920" d="M18.734,54.171a.591.591,0,0,1-.494-.265c-3.482-5.049-6.157-12.3-7.507-17.388a.6.6,0,0,1,1.169-.3c1.313,5,3.94,12.086,7.326,17.014a.6.6,0,0,1-.157.843A.648.648,0,0,1,18.734,54.171Z" transform="translate(-10.714 -35.764)"/>
              </g>
              <g id="Group_1208010" data-name="Group 1208010" transform="translate(11.768 28.316)">
                <path id="Path_1051921" data-name="Path 1051921" d="M15.3,48.834a.61.61,0,0,1-.566-.386.6.6,0,0,1,.337-.783c3.76-1.482,10.447-4.531,14.5-6.495a.6.6,0,1,1,.53,1.084C26.028,44.243,19.3,47.3,15.52,48.8A.682.682,0,0,1,15.3,48.834Z" transform="translate(-14.695 -41.109)"/>
              </g>
            </g>
          </g>
        </g>
        <g id="Group_1208014" data-name="Group 1208014" transform="translate(36.847 26.754)">
          <path id="Path_1051922" data-name="Path 1051922" d="M31.772,30.343a.593.593,0,0,1-.361-.12.611.611,0,0,1-.12-.843l4.8-6.338a.6.6,0,0,1,.843-.12.611.611,0,0,1,.12.843L32.266,30.1A.652.652,0,0,1,31.772,30.343Z" transform="translate(-31.173 -22.798)"/>
        </g>
        <g id="Group_1208015" data-name="Group 1208015" transform="translate(35.403 34.305)">
          <path id="Path_1051923" data-name="Path 1051923" d="M30.572,33.843a.6.6,0,0,1-.229-1.157l8.736-3.579a.6.6,0,0,1,.458,1.109L30.8,33.795A.559.559,0,0,1,30.572,33.843Z" transform="translate(-29.975 -29.065)"/>
        </g>
        <g id="Group_1208016" data-name="Group 1208016" transform="translate(43.183 38.615)">
          <path id="Path_1051924" data-name="Path 1051924" d="M37.032,35.255a.6.6,0,0,1-.59-.482.611.611,0,0,1,.47-.711l7.013-1.41a.6.6,0,0,1,.711.47.611.611,0,0,1-.47.711l-7.013,1.41a.452.452,0,0,1-.12.012Z" transform="translate(-36.431 -32.641)"/>
        </g>
      </g>
    </g>
  </g>
</svg>
