<svg xmlns="http://www.w3.org/2000/svg" xmlns:xlink="http://www.w3.org/1999/xlink" width="98" height="98" viewBox="0 0 98 98">
  <defs>
    <filter id="Path_982547" x="0" y="0" width="98" height="98" filterUnits="userSpaceOnUse">
      <feOffset dy="3" input="SourceAlpha"/>
      <feGaussianBlur stdDeviation="3" result="blur"/>
      <feFlood flood-opacity="0.161"/>
      <feComposite operator="in" in2="blur"/>
      <feComposite in="SourceGraphic"/>
    </filter>
    <clipPath id="clip-path">
      <path id="path8121" d="M0-682.665H48.414v48.414H0Z" transform="translate(0 682.665)"/>
    </clipPath>
    <clipPath id="clip-path-4">
      <path id="path684" d="M0-682.665H52.346v52.346H0Z" transform="translate(0 682.665)"/>
    </clipPath>
  </defs>
  <g id="Group_1208175" data-name="Group 1208175" transform="translate(-191 -2467.014)">
    <g id="Group_1207937" data-name="Group 1207937">
      <g id="Group_1207718" data-name="Group 1207718" transform="translate(0 381.462)">
        <g id="Group_1207712" data-name="Group 1207712">
          <g id="Group_1207285" data-name="Group 1207285" transform="translate(0 344.552)">
            <g id="Group_1206883" data-name="Group 1206883" transform="translate(0 -209)">
              <g id="Group_1204569" data-name="Group 1204569" transform="translate(-81 -1890.336)">
                <g id="Group_1203962" data-name="Group 1203962" transform="translate(281 3846.336)">
                  <g id="Group_1203498" data-name="Group 1203498" transform="translate(0)">
                    <g id="Group_1202589" data-name="Group 1202589">
                      <g id="Group_1172010" data-name="Group 1172010">
                        <g id="Group_1171046" data-name="Group 1171046">
                          <g id="Group_1148525" data-name="Group 1148525">
                            <g transform="matrix(1, 0, 0, 1, -9, -6)" filter="url(#Path_982547)">
                              <g id="Path_982547-2" data-name="Path 982547" transform="translate(9 6)" fill="#fdfbec">
                                <path d="M 39.99999237060547 78.49998474121094 C 34.8018684387207 78.49998474121094 29.76002502441406 77.48226165771484 25.0145263671875 75.47508239746094 C 20.43014717102051 73.53604888916016 16.31264877319336 70.75984954833984 12.77639198303223 67.22359466552734 C 9.240137100219727 63.68733596801758 6.463936805725098 59.5698356628418 4.524903297424316 54.98546981811523 C 2.517725706100464 50.23995971679688 1.500003457069397 45.19811630249023 1.500003457069397 39.99999237060547 C 1.500003457069397 34.8018684387207 2.517725706100464 29.76002502441406 4.524903297424316 25.0145263671875 C 6.463936805725098 20.43014717102051 9.240137100219727 16.31264877319336 12.77639198303223 12.77639198303223 C 16.31264877319336 9.240137100219727 20.43014717102051 6.463936805725098 25.0145263671875 4.524903297424316 C 29.76002502441406 2.517725706100464 34.8018684387207 1.500003457069397 39.99999237060547 1.500003457069397 C 45.19811630249023 1.500003457069397 50.23995971679688 2.517725706100464 54.98546981811523 4.524903297424316 C 59.5698356628418 6.463936805725098 63.68733596801758 9.240137100219727 67.22359466552734 12.77639198303223 C 70.75984954833984 16.31264877319336 73.53604888916016 20.43014717102051 75.47508239746094 25.0145263671875 C 77.48226165771484 29.76002502441406 78.49998474121094 34.8018684387207 78.49998474121094 39.99999237060547 C 78.49998474121094 45.19812393188477 77.48226165771484 50.23995971679688 75.47508239746094 54.98546981811523 C 73.53604888916016 59.5698356628418 70.75984954833984 63.68733596801758 67.22359466552734 67.22359466552734 C 63.68733596801758 70.75984954833984 59.5698356628418 73.53604888916016 54.98546981811523 75.47508239746094 C 50.23995971679688 77.48226165771484 45.19812393188477 78.49998474121094 39.99999237060547 78.49998474121094 Z" stroke="none"/>
                                <path d="M 39.99999237060547 2.999992370605469 C 35.00370025634766 2.999992370605469 30.1584587097168 3.97784423828125 25.59884643554688 5.906402587890625 C 21.19327163696289 7.769805908203125 17.23603057861328 10.43805694580078 13.83704376220703 13.83704376220703 C 10.43805694580078 17.23603057861328 7.769805908203125 21.19327163696289 5.906402587890625 25.59884643554688 C 3.97784423828125 30.1584587097168 2.999992370605469 35.00370025634766 2.999992370605469 39.99999237060547 C 2.999992370605469 44.99628448486328 3.97784423828125 49.84152603149414 5.906402587890625 54.40113830566406 C 7.769805908203125 58.80671310424805 10.43805694580078 62.76395416259766 13.83704376220703 66.16294097900391 C 17.23603057861328 69.56191253662109 21.19327163696289 72.23016357421875 25.59884643554688 74.09356689453125 C 30.1584587097168 76.02212524414062 35.00370025634766 76.99997711181641 39.99999237060547 76.99997711181641 C 44.99628448486328 76.99997711181641 49.84152603149414 76.02212524414062 54.40113830566406 74.09356689453125 C 58.80671310424805 72.23016357421875 62.76395416259766 69.56191253662109 66.16294097900391 66.16294097900391 C 69.56191253662109 62.76395416259766 72.23016357421875 58.80671310424805 74.09356689453125 54.40113830566406 C 76.02212524414062 49.84152603149414 76.99997711181641 44.99628448486328 76.99997711181641 39.99999237060547 C 76.99997711181641 35.00370025634766 76.02212524414062 30.1584587097168 74.09356689453125 25.59884643554688 C 72.23016357421875 21.19327163696289 69.56191253662109 17.23603057861328 66.16294097900391 13.83704376220703 C 62.76395416259766 10.43805694580078 58.80671310424805 7.769805908203125 54.40113830566406 5.906402587890625 C 49.84152603149414 3.97784423828125 44.99628448486328 2.999992370605469 39.99999237060547 2.999992370605469 M 39.99999237060547 -7.62939453125e-06 C 62.09137725830078 -7.62939453125e-06 79.99997711181641 17.90860748291016 79.99997711181641 39.99999237060547 C 79.99997711181641 62.09137725830078 62.09137725830078 79.99997711181641 39.99999237060547 79.99997711181641 C 17.90860748291016 79.99997711181641 -7.62939453125e-06 62.09137725830078 -7.62939453125e-06 39.99999237060547 C -7.62939453125e-06 17.90860748291016 17.90860748291016 -7.62939453125e-06 39.99999237060547 -7.62939453125e-06 Z" stroke="none" fill="#83793c"/>
                              </g>
                            </g>
                          </g>
                        </g>
                      </g>
                    </g>
                  </g>
                </g>
              </g>
            </g>
          </g>
          <g id="g8115" transform="translate(215.793 2790.01)">
            <g id="g8117" transform="translate(0 -682.665)">
              <g id="g8119" clip-path="url(#clip-path)">
                <g id="g8125" transform="translate(-33.259 0.709)">
                  <path id="path8127" d="M-338.457-377.826h-25.835v-25.108c5.31-7.679,37.755-5.416,25.835,25.108" transform="translate(364.292 406.667)" fill="#fbdf63"/>
                </g>
                <g id="g8129" transform="translate(-33.259 0.709)">
                  <path id="path8131" d="M-338.457-377.826h-.619c6.164-24.728-15.887-30.6-25.216-24.374v-.734c5.31-7.679,37.755-5.416,25.835,25.108" transform="translate(364.292 406.667)" fill="#f9d11f"/>
                </g>
              </g>
            </g>
            <g id="g8265" transform="translate(0 -682.665)">
              <g id="g8267" clip-path="url(#clip-path)">
                <g id="g8273" transform="translate(-33.259 51.036)">
                  <path id="path8275" d="M-338.457-377.654h-25.835v-25.1c5.31-7.676,37.755-5.413,25.835,25.1" transform="translate(364.292 406.481)" fill="#003343"/>
                </g>
                <g id="g8277" transform="translate(-33.259 51.036)">
                  <path id="path8279" d="M-338.457-377.654h-.619c6.164-24.717-15.887-30.585-25.216-24.362v-.734c5.31-7.676,37.755-5.413,25.835,25.1" transform="translate(364.292 406.481)" fill="#002439"/>
                </g>
              </g>
            </g>
            <g id="g8281" transform="translate(0 -682.665)">
              <g id="g8283" clip-path="url(#clip-path)">
                <g id="g8289" transform="translate(17.066 51.014)">
                  <path id="path8291" d="M-338.457-377.826h-25.835v-25.108c5.31-7.679,37.755-5.416,25.835,25.108" transform="translate(364.292 406.667)" fill="#ff7e50"/>
                </g>
                <g id="g8293" transform="translate(17.066 51.014)">
                  <path id="path8295" d="M-338.457-377.826h-.619c6.164-24.728-15.887-30.6-25.216-24.374v-.734c5.31-7.679,37.755-5.416,25.835,25.108" transform="translate(364.292 406.667)" fill="#ff6247"/>
                </g>
                <g id="g8297" transform="translate(2.941 54.225)">
                  <path id="path8299" d="M-233.028-131.751v15.573h-14.6c-12.2-25.649,14.6-34.273,14.6-15.573" transform="translate(250.816 141.808)" fill="#ffa68a"/>
                </g>
                <g id="g8301" transform="translate(2.941 54.225)">
                  <path id="path8303" d="M-233.028-131.751c-.9-16.1-20.23-9.82-14.176,15.573h-.427c-12.2-25.649,14.6-34.273,14.6-15.573" transform="translate(250.816 141.808)" fill="#ff7e50"/>
                </g>
              </g>
            </g>
          </g>
        </g>
      </g>
      <g id="g678" transform="translate(213.827 3167.507)">
        <g id="g680" transform="translate(0 -682.665)">
          <g id="g682" clip-path="url(#clip-path-4)">
            <g id="g688" transform="translate(8.014 3.199)">
              <path id="path690" d="M-124.516-.6a6.31,6.31,0,0,0-7.08,4.929c-.789,3.018-2.036,4.545-3.054,5.315a.511.511,0,0,0,.3.923c2.1-.006,5.271-.508,6.426-3.28,1.792-4.3,1.7-6,4.122-6.452Z" transform="translate(134.857 0.647)" fill="#fac600"/>
            </g>
            <g id="g692" transform="translate(8.014 3.199)">
              <path id="path694" d="M-22.954-132.567c1.018-.77,2.264-2.3,3.054-5.315a6.119,6.119,0,0,1,5.724-4.957l-.344-.687A6.31,6.31,0,0,0-21.6-138.6c-.789,3.018-2.036,4.545-3.054,5.315a.511.511,0,0,0,.3.923,12.5,12.5,0,0,0,1.268-.067.526.526,0,0,1,.129-.14" transform="translate(24.86 143.576)" fill="#e8b801"/>
            </g>
            <g id="g696" transform="translate(8.014 3.199)">
              <path id="path698" d="M-93.061-71.1c1.044-2.828,1.335-4.052,3.329-4.421l-.717-1.434a6.31,6.31,0,0,0-7.08,4.929c-.789,3.018-2.036,4.545-3.054,5.315a.511.511,0,0,0,.3.923c1.75-.005,4.233-.354,5.685-2.066" transform="translate(100.789 77.004)" fill="none" stroke="#000" stroke-linecap="round" stroke-linejoin="round" stroke-miterlimit="10" stroke-width="1"/>
            </g>
            <g id="g700" transform="translate(16.972 2.454)">
              <path id="path702" d="M-39.356-46.972h-2.074a1.2,1.2,0,0,1-1.195-1.195v-1.512a1.2,1.2,0,0,1,1.195-1.195h2.074Z" transform="translate(42.624 50.873)" fill="#fd4755"/>
            </g>
            <g id="g704" transform="translate(16.972 2.454)">
              <path id="path706" d="M-39.356-46.972h-2.074a1.2,1.2,0,0,1-1.195-1.195v-1.512a1.2,1.2,0,0,1,1.195-1.195h2.074Z" transform="translate(42.624 50.873)" fill="none" stroke="#000" stroke-linecap="round" stroke-linejoin="round" stroke-miterlimit="10" stroke-width="1"/>
            </g>
            <g id="g708" transform="translate(26.215 13.495)">
              <path id="path710" d="M-128.709-25.305l-1.774-1.774a1.117,1.117,0,0,0-1.58,0l-.592.592a1.116,1.116,0,0,0-.049,1.526l-6.693,6.693.734.734a1.862,1.862,0,0,0,2.633,0l5.407-5.407a1.117,1.117,0,0,0,1.322-.192l.592-.592a1.117,1.117,0,0,0,0-1.58" transform="translate(139.398 27.407)" fill="#fed2a4"/>
            </g>
            <g id="g712" transform="translate(26.215 13.495)">
              <path id="path714" d="M-28.342-123.812l-.734-.734,6.415-6.415a.505.505,0,0,0,.1-.565,1.116,1.116,0,0,1,.232-1.239l.593-.593a1.119,1.119,0,0,1,.207-.162l-.247-.247a1.117,1.117,0,0,0-1.58,0l-.592.593A1.117,1.117,0,0,0-24-131.649l-6.693,6.693.734.734a1.859,1.859,0,0,0,1.72.5c-.034-.029-.068-.059-.1-.091" transform="translate(30.696 134.095)" fill="#ffbd86"/>
            </g>
            <g id="g716" transform="translate(26.215 13.495)">
              <path id="path718" d="M-128.709-25.305l-1.774-1.774a1.117,1.117,0,0,0-1.58,0l-.592.592a1.116,1.116,0,0,0-.049,1.526l-6.693,6.693.734.734a1.862,1.862,0,0,0,2.633,0l5.407-5.407a1.117,1.117,0,0,0,1.322-.192l.592-.592A1.117,1.117,0,0,0-128.709-25.305Z" transform="translate(139.398 27.407)" fill="none" stroke="#000" stroke-linecap="round" stroke-linejoin="round" stroke-miterlimit="10" stroke-width="1"/>
            </g>
            <g id="g720" transform="translate(11.599 37.534)">
              <path id="path722" d="M-61.686,0l-5.123,8.873,3.423,1.976,5.05-8.746Z" transform="translate(66.809)" fill="#fed2a4"/>
            </g>
            <g id="g724" transform="translate(11.599 37.534)">
              <path id="path726" d="M-25.3-106.845l4.564-7.905-1.542-.968-5.123,8.873,3.423,1.976.525-.91Z" transform="translate(27.396 115.718)" fill="#ffbd86"/>
            </g>
            <g id="g728" transform="translate(11.599 37.534)">
              <path id="path730" d="M-93.1-40.792l.741-1.284-3.35-2.1-5.123,8.873,3.423,1.976,2.519-4.363" transform="translate(100.829 44.18)" fill="none" stroke="#000" stroke-linecap="round" stroke-linejoin="round" stroke-miterlimit="10" stroke-width="1"/>
            </g>
            <g id="g732" transform="translate(12.164 43.073)">
              <path id="path734" d="M-41.221-52.169l1.36-2.356L-43.284-56.5l-1.36,2.356Z" transform="translate(44.644 56.501)" fill="#dff6fd"/>
            </g>
            <g id="g736" transform="translate(12.164 43.073)">
              <path id="path738" d="M-16.38,0l-1.36,2.356,1.575.91L-14.8.91Z" transform="translate(17.74)" fill="#c8effe"/>
            </g>
            <g id="g740" transform="translate(11.833 43.073)">
              <path id="path742" d="M-1.124-36,2.2-34.083,3.9-37.017.474-38.993l-1.691,2.929A1.025,1.025,0,0,0-1.124-36Z" transform="translate(1.217 38.993)" fill="none" stroke="#000" stroke-linecap="round" stroke-linejoin="round" stroke-miterlimit="10" stroke-width="1"/>
            </g>
            <g id="g744" transform="translate(16.299 30.265)">
              <path id="path746" d="M-119.824-10.187l-1.347-.846h-4.635l-3.927,6.8a.307.307,0,0,0,.1.413l4.48,2.813a.307.307,0,0,0,.429-.106l5-8.662a.307.307,0,0,0-.1-.413" transform="translate(129.775 11.033)" fill="#62dbfb"/>
            </g>
            <g id="g748" transform="translate(16.299 30.265)">
              <path id="path750" d="M-35.68-84.95a.307.307,0,0,1-.1-.413l3.835-6.642h-2.727L-38.6-85.2a.307.307,0,0,0,.1.413l4.48,2.813a.307.307,0,0,0,.429-.106l.659-1.141Z" transform="translate(38.643 92.005)" fill="#01d0fb"/>
            </g>
            <g id="g752" transform="translate(16.299 30.265)">
              <path id="path754" d="M-119.824-10.187l-1.347-.846h-4.635l-3.927,6.8a.307.307,0,0,0,.1.413l4.48,2.813a.307.307,0,0,0,.429-.106l5-8.662A.307.307,0,0,0-119.824-10.187Z" transform="translate(129.775 11.033)" fill="none" stroke="#000" stroke-linecap="round" stroke-linejoin="round" stroke-miterlimit="10" stroke-width="1"/>
            </g>
            <g id="g756" transform="translate(10.844 45.429)">
              <path id="path758" d="M-1.651-24.671-.468-26.72l3.744,2.161a2.109,2.109,0,0,1,.772,2.88l-.64,1.108-4.684-2.7a1.022,1.022,0,0,1-.374-1.4" transform="translate(1.788 26.72)" fill="#53469c"/>
            </g>
            <g id="g760" transform="translate(10.844 45.429)">
              <path id="path762" d="M-15.9,0l-1.183,2.049a1.022,1.022,0,0,0,.374,1.4l.744.43L-14.266.941Z" transform="translate(17.216)" fill="#463a84"/>
            </g>
            <g id="g764" transform="translate(10.844 45.429)">
              <path id="path766" d="M-1.651-24.671-.468-26.72l3.744,2.161a2.109,2.109,0,0,1,.772,2.88l-.64,1.108-4.684-2.7A1.022,1.022,0,0,1-1.651-24.671Z" transform="translate(1.788 26.72)" fill="none" stroke="#000" stroke-linecap="round" stroke-linejoin="round" stroke-miterlimit="10" stroke-width="1"/>
            </g>
            <g id="g768" transform="translate(28.785 37.795)">
              <path id="path770" d="M-40.547,0l-3.367,2.073,5.632,9.754,3.423-1.976Z" transform="translate(43.915)" fill="#fed2a4"/>
            </g>
            <g id="g772" transform="translate(28.785 38.874)">
              <path id="path774" d="M-19.456,0l-1.616.995,5.632,9.754,1.665-.961Z" transform="translate(21.072)" fill="#ffbd86"/>
            </g>
            <g id="g776" transform="translate(28.785 37.795)">
              <path id="path778" d="M-40.547,0l-3.367,2.073,5.632,9.754,3.423-1.976Z" transform="translate(43.915)" fill="none" stroke="#000" stroke-linecap="round" stroke-linejoin="round" stroke-miterlimit="10" stroke-width="1"/>
            </g>
            <g id="g780" transform="translate(32.513 44.349)">
              <path id="path782" d="M-41.221,0l-3.423,1.976,1.449,2.51,3.423-1.976Z" transform="translate(44.644)" fill="#dff6fd"/>
            </g>
            <g id="g784" transform="translate(32.513 45.368)">
              <path id="path786" d="M-19.957,0l-1.657.957,1.449,2.51,1.663-.96Z" transform="translate(21.615)" fill="#c8effe"/>
            </g>
            <g id="g788" transform="translate(32.513 44.349)">
              <path id="path790" d="M-41.221,0l-3.423,1.976,1.449,2.51,3.423-1.976Z" transform="translate(44.644)" fill="none" stroke="#000" stroke-linecap="round" stroke-linejoin="round" stroke-miterlimit="10" stroke-width="1"/>
            </g>
            <g id="g792" transform="translate(21.865 30.265)">
              <path id="path794" d="M-128.565-85.022l-4.077-7.061h-6.6l5.827,10.028a.307.307,0,0,0,.426.107l4.32-2.66a.307.307,0,0,0,.1-.415" transform="translate(139.242 92.082)" fill="#62dbfb"/>
            </g>
            <g id="g796" transform="translate(21.865 30.265)">
              <path id="path798" d="M-30.94,0h-2.569l5.826,10.028a.307.307,0,0,0,.426.107l1.625-1Z" transform="translate(33.509)" fill="#01d0fb"/>
            </g>
            <g id="g800" transform="translate(21.865 30.265)">
              <path id="path802" d="M-92.588-22.707l-1.089-1.886h-6.6l5.826,10.028a.307.307,0,0,0,.426.107l4.32-2.66a.307.307,0,0,0,.1-.414l-1.2-2.076" transform="translate(100.277 24.593)" fill="none" stroke="#000" stroke-linecap="round" stroke-linejoin="round" stroke-miterlimit="10" stroke-width="1"/>
            </g>
            <g id="g804" transform="translate(33.852 46.201)">
              <path id="path806" d="M-20.4-64.764-22.093-67.7l3.744-2.161a2.109,2.109,0,0,1,2.88.772l.64,1.108Z" transform="translate(22.093 70.143)" fill="#53469c"/>
            </g>
            <g id="g808" transform="translate(33.852 47.71)">
              <path id="path810" d="M-19.5,0-21.12.935l1.694,2.934L-17.8,2.93Z" transform="translate(21.12)" fill="#463a84"/>
            </g>
            <g id="g812" transform="translate(33.852 46.201)">
              <path id="path814" d="M-20.4-64.764-22.093-67.7l3.744-2.161a2.109,2.109,0,0,1,2.88.772l.64,1.108Z" transform="translate(22.093 70.143)" fill="none" stroke="#000" stroke-linecap="round" stroke-linejoin="round" stroke-miterlimit="10" stroke-width="1"/>
            </g>
            <g id="g816" transform="translate(21.295 3.933)">
              <path id="path818" d="M-111.627-42.991l-.792-1.094a.8.8,0,0,1-.152-.47v-1.9l-.248-.1h-5.327a.631.631,0,0,0-.618.509l-.229,1.178h-.609A1.3,1.3,0,0,0-120.9-43.58v.778a1.289,1.289,0,0,0,.968,1.252l-.511,1.805.067.139v2.774a3.108,3.108,0,0,1,1.218-.247h.623a4.47,4.47,0,0,1,1.322.2V-38.13a.316.316,0,0,1,.316-.316h1.575c1.791,0,2.527-1.35,2.724-3.088a.318.318,0,0,1,.314-.286h.056a.738.738,0,0,0,.6-1.171" transform="translate(120.897 46.561)" fill="#fed2a4"/>
            </g>
            <g id="g820" transform="translate(21.295 3.933)">
              <path id="path822" d="M-111.627-42.991l-.792-1.094a.8.8,0,0,1-.152-.47v-1.9l-.248-.1h-5.327a.631.631,0,0,0-.618.509l-.229,1.178h-.609A1.3,1.3,0,0,0-120.9-43.58v.778a1.289,1.289,0,0,0,.968,1.252l-.511,1.805.067.139v2.774a3.108,3.108,0,0,1,1.218-.247h.623a4.47,4.47,0,0,1,1.322.2V-38.13a.316.316,0,0,1,.316-.316h1.575c1.791,0,2.527-1.35,2.724-3.088a.318.318,0,0,1,.314-.286h.056A.738.738,0,0,0-111.627-42.991Z" transform="translate(120.897 46.561)" fill="none" stroke="#000" stroke-linecap="round" stroke-linejoin="round" stroke-miterlimit="10" stroke-width="1"/>
            </g>
            <g id="g824" transform="translate(19.809 13.313)">
              <path id="path826" d="M-46.374,0H-47a3.228,3.228,0,0,0-3.228,3.228V16.543a.511.511,0,0,0,.511.511h7.964a.511.511,0,0,0,.511-.511V8.986q.066-.029.13-.06a2.818,2.818,0,0,0,.819-4.4l-2.665-2.992A4.578,4.578,0,0,0-46.374,0" transform="translate(50.225)" fill="#fe7701"/>
            </g>
            <g id="g828" transform="translate(19.809 13.313)">
              <path id="path830" d="M-30.777-199.2v-13.314a3.229,3.229,0,0,1,2.345-3.1,4.576,4.576,0,0,0-1.05-.123H-30.1a3.228,3.228,0,0,0-3.228,3.228V-199.2a.511.511,0,0,0,.511.511h2.556a.511.511,0,0,1-.511-.511" transform="translate(33.333 215.739)" fill="#f46700"/>
            </g>
            <g id="g832" transform="translate(19.809 13.313)">
              <path id="path834" d="M-46.374,0H-47a3.228,3.228,0,0,0-3.228,3.228V16.543a.511.511,0,0,0,.511.511h7.964a.511.511,0,0,0,.511-.511V8.986q.066-.029.13-.06a2.818,2.818,0,0,0,.819-4.4l-2.665-2.992A4.578,4.578,0,0,0-46.374,0Z" transform="translate(50.225)" fill="none" stroke="#000" stroke-linecap="round" stroke-linejoin="round" stroke-miterlimit="10" stroke-width="1"/>
            </g>
            <g id="g836" transform="translate(26.985 6.565)">
              <path id="path838" d="M0,0V1.16" fill="none" stroke="#000" stroke-linecap="round" stroke-linejoin="round" stroke-miterlimit="10" stroke-width="1"/>
            </g>
            <g id="g840" transform="translate(19.289 0.767)">
              <path id="path842" d="M0-46.589v3.262a2.9,2.9,0,0,0,1.787,2.68l.744.31L3.1-42.358a1.192,1.192,0,0,1-.994-1.175v-.778A1.192,1.192,0,0,1,3.3-45.5h.693l.246-1.261a.527.527,0,0,1,.517-.426h5.575l.43-1.027a1.616,1.616,0,0,0-1.491-2.242h-5.4A3.869,3.869,0,0,0,0-46.589" transform="translate(0 50.459)" fill="#fac600"/>
            </g>
            <g id="g844" transform="translate(19.289 0.767)">
              <path id="path846" d="M-32.655-95.864a1.19,1.19,0,0,1-.6-1.035v-.778a1.189,1.189,0,0,1,.482-.956v-1.323a3.869,3.869,0,0,1,3.869-3.869H-31.5a3.869,3.869,0,0,0-3.869,3.869v3.262a2.9,2.9,0,0,0,1.787,2.68l.744.31.44-1.554a2.906,2.906,0,0,1-.259-.606" transform="translate(35.367 103.825)" fill="#e8b801"/>
            </g>
            <g id="g848" transform="translate(19.289 0.767)">
              <path id="path850" d="M0-46.589v3.262a2.9,2.9,0,0,0,1.787,2.68l.744.31L3.1-42.358a1.192,1.192,0,0,1-.994-1.175v-.778A1.192,1.192,0,0,1,3.3-45.5h.693l.246-1.261a.527.527,0,0,1,.517-.426h5.575l.43-1.027a1.616,1.616,0,0,0-1.491-2.242h-5.4A3.869,3.869,0,0,0,0-46.589Z" transform="translate(0 50.459)" fill="none" stroke="#000" stroke-linecap="round" stroke-linejoin="round" stroke-miterlimit="10" stroke-width="1"/>
            </g>
            <g id="g852" transform="translate(17.216 19.225)">
              <path id="path854" d="M-127.9-96.8l-.592-.592a1.117,1.117,0,0,0-1.429-.126l-7.321-7.321-.734.734a1.862,1.862,0,0,0,0,2.633l6,6a1.117,1.117,0,0,0,.126,1.429l.592.593a1.117,1.117,0,0,0,1.58,0l1.774-1.774a1.117,1.117,0,0,0,0-1.58" transform="translate(138.522 104.836)" fill="#fed2a4"/>
            </g>
            <g id="g856" transform="translate(17.216 19.225)">
              <path id="path858" d="M-107.846-133.441l-.592-.593a1.116,1.116,0,0,1-.264-1.158.511.511,0,0,0-.12-.53l-5.745-5.745a1.863,1.863,0,0,1-.239-2.341l-.716-.716-.734.734a1.862,1.862,0,0,0,0,2.633l6,6a1.117,1.117,0,0,0,.126,1.429l.592.592a1.117,1.117,0,0,0,1.58,0l.217-.217a1.131,1.131,0,0,1-.109-.094" transform="translate(116.802 144.522)" fill="#ffbd86"/>
            </g>
            <g id="g860" transform="translate(17.216 19.225)">
              <path id="path862" d="M-127.9-96.8l-.592-.592a1.117,1.117,0,0,0-1.429-.126l-7.321-7.321-.734.734a1.862,1.862,0,0,0,0,2.633l6,6a1.117,1.117,0,0,0,.126,1.429l.592.593a1.117,1.117,0,0,0,1.58,0l1.774-1.774A1.117,1.117,0,0,0-127.9-96.8Z" transform="translate(138.522 104.836)" fill="none" stroke="#000" stroke-linecap="round" stroke-linejoin="round" stroke-miterlimit="10" stroke-width="1"/>
            </g>
            <g id="g864" transform="translate(17.792 15.251)">
              <path id="path866" d="M-34.131-85.7l3.934-3.934a1.865,1.865,0,0,0,0-2.637,1.865,1.865,0,0,0-2.637,0l-4.131,4.131,2.439,2.439a.279.279,0,0,0,.4,0" transform="translate(36.965 92.812)" fill="#fff"/>
            </g>
            <g id="g868" transform="translate(17.792 15.252)">
              <path id="path870" d="M-31.31-56.316l4.131-4.131.018-.017a1.864,1.864,0,0,0-2.619.017l-4.131,4.131,2.439,2.439a.279.279,0,0,0,.4,0l1.1-1.1Z" transform="translate(33.911 60.992)" fill="#f2fbff"/>
            </g>
            <g id="g872" transform="translate(17.792 15.251)">
              <path id="path874" d="M-34.131-85.7l3.934-3.934a1.865,1.865,0,0,0,0-2.637,1.865,1.865,0,0,0-2.637,0l-4.131,4.131,2.439,2.439A.279.279,0,0,0-34.131-85.7Z" transform="translate(36.965 92.812)" fill="none" stroke="#000" stroke-linecap="round" stroke-linejoin="round" stroke-miterlimit="10" stroke-width="1"/>
            </g>
            <g id="g876" transform="translate(4.38 51.579)">
              <path id="path878" d="M0,0H43.586" fill="none" stroke="#000" stroke-linecap="round" stroke-linejoin="round" stroke-miterlimit="10" stroke-width="1"/>
            </g>
          </g>
        </g>
      </g>
    </g>
  </g>
</svg>
