<svg xmlns="http://www.w3.org/2000/svg" xmlns:xlink="http://www.w3.org/1999/xlink" width="113" height="113" viewBox="0 0 113 113">
  <defs>
    <filter id="Path_982547" x="0" y="0" width="113" height="113" filterUnits="userSpaceOnUse">
      <feOffset dy="3" input="SourceAlpha"/>
      <feGaussianBlur stdDeviation="3" result="blur"/>
      <feFlood flood-opacity="0.161"/>
      <feComposite operator="in" in2="blur"/>
      <feComposite in="SourceGraphic"/>
    </filter>
  </defs>
  <g id="Group_1208217" data-name="Group 1208217" transform="translate(-793.49 -3878.335)">
    <g id="Group_1208054" data-name="Group 1208054">
      <g id="Group_1207895" data-name="Group 1207895" transform="translate(-4493 1958.062)">
        <g id="Group_1176928" data-name="Group 1176928" transform="translate(5295.49 1926.273)">
          <g id="Group_1172322" data-name="Group 1172322" transform="translate(0 0)">
            <g id="Group_1164700" data-name="Group 1164700">
              <g id="Group_1160931" data-name="Group 1160931">
                <g id="Group_1160749" data-name="Group 1160749">
                  <g id="Group_1158891" data-name="Group 1158891">
                    <g id="Group_1157406" data-name="Group 1157406">
                      <g id="Group_1155793" data-name="Group 1155793">
                        <g id="Group_1154704" data-name="Group 1154704">
                          <g id="Group_1150790" data-name="Group 1150790">
                            <g id="Group_1154214" data-name="Group 1154214">
                              <g id="Group_1152583" data-name="Group 1152583">
                                <g id="Group_1146973" data-name="Group 1146973">
                                  <g id="Group_1146954" data-name="Group 1146954">
                                    <g transform="matrix(1, 0, 0, 1, -9, -6)" filter="url(#Path_982547)">
                                      <g id="Path_982547-2" data-name="Path 982547" transform="translate(9 6)" fill="#ebe9f0">
                                        <path d="M 47.5000114440918 93.49987030029297 C 41.28938293457031 93.49987030029297 35.26534652709961 92.28384399414062 29.5951976776123 89.88558959960938 C 24.11773109436035 87.56881713867188 19.19814491271973 84.25183868408203 14.97310447692871 80.02680206298828 C 10.74805164337158 75.80176544189453 7.43107795715332 70.88218688964844 5.114304542541504 65.40472412109375 C 2.716038227081299 59.73458862304688 1.500011444091797 53.71054840087891 1.500011444091797 47.49993515014648 C 1.500011444091797 41.28932189941406 2.716038227081299 35.26528167724609 5.114304542541504 29.59514808654785 C 7.43107795715332 24.1176815032959 10.74805164337158 19.1981086730957 14.97310447692871 14.97306823730469 C 19.19814491271973 10.74802875518799 24.11773109436035 7.431055068969727 29.5951976776123 5.11428165435791 C 35.26534652709961 2.716028451919556 41.28938293457031 1.500001788139343 47.5000114440918 1.500001788139343 C 53.71063995361328 1.500001788139343 59.73467636108398 2.716028451919556 65.40482330322266 5.11428165435791 C 70.88229370117188 7.431055068969727 75.8018798828125 10.74802875518799 80.02691650390625 14.97306823730469 C 84.25196838378906 19.1981086730957 87.56894683837891 24.1176815032959 89.88571929931641 29.59514808654785 C 92.28398132324219 35.26528167724609 93.50001525878906 41.28932189941406 93.50001525878906 47.49993515014648 C 93.50001525878906 53.71054840087891 92.28398132324219 59.73458862304688 89.88571929931641 65.40472412109375 C 87.56894683837891 70.88218688964844 84.25196838378906 75.80176544189453 80.02691650390625 80.02680206298828 C 75.8018798828125 84.25183868408203 70.88229370117188 87.56881713867188 65.40482330322266 89.88558959960938 C 59.73467636108398 92.28384399414062 53.71063995361328 93.49987030029297 47.5000114440918 93.49987030029297 Z" stroke="none"/>
                                        <path d="M 47.5000114440918 3 C 41.49122619628906 3 35.66378021240234 4.1761474609375 30.17951965332031 6.495796203613281 C 24.880859375 8.7369384765625 20.12153625488281 11.94596862792969 16.03376770019531 16.03373718261719 C 11.94598388671875 20.12149047851562 8.736968994140625 24.88081359863281 6.495811462402344 30.17947387695312 C 4.176162719726562 35.66371917724609 3.000007629394531 41.49116516113281 3.000007629394531 47.49993515014648 C 3.000007629394531 53.50870513916016 4.176162719726562 59.33615112304688 6.495811462402344 64.82039642333984 C 8.736968994140625 70.11905670166016 11.94598388671875 74.87837982177734 16.03376770019531 78.96613311767578 C 20.12153625488281 83.05390167236328 24.880859375 86.26293182373047 30.17951965332031 88.50407409667969 C 35.66378021240234 90.82372283935547 41.49122619628906 91.99987030029297 47.5000114440918 91.99987030029297 C 53.50879669189453 91.99987030029297 59.33624267578125 90.82372283935547 64.82050323486328 88.50407409667969 C 70.11916351318359 86.26293182373047 74.87848663330078 83.05390167236328 78.96625518798828 78.96613311767578 C 83.05403900146484 74.87837982177734 86.2630615234375 70.11905670166016 88.50421142578125 64.82039642333984 C 90.82386016845703 59.33615112304688 92.00001525878906 53.50870513916016 92.00001525878906 47.49993515014648 C 92.00001525878906 41.49116516113281 90.82386016845703 35.66371917724609 88.50421142578125 30.17947387695312 C 86.2630615234375 24.88081359863281 83.05403900146484 20.12149047851562 78.96625518798828 16.03373718261719 C 74.87848663330078 11.94596862792969 70.11916351318359 8.7369384765625 64.82050323486328 6.495796203613281 C 59.33624267578125 4.1761474609375 53.50879669189453 3 47.5000114440918 3 M 47.5000114440918 0 C 73.73353576660156 0 95.00001525878906 21.26644134521484 95.00001525878906 47.49993515014648 C 95.00001525878906 73.73342895507812 73.73353576660156 94.99987030029297 47.5000114440918 94.99987030029297 C 21.26648712158203 94.99987030029297 7.62939453125e-06 73.73342895507812 7.62939453125e-06 47.49993515014648 C 7.62939453125e-06 21.26644134521484 21.26648712158203 0 47.5000114440918 0 Z" stroke="none" fill="#453179"/>
                                      </g>
                                    </g>
                                  </g>
                                </g>
                              </g>
                            </g>
                          </g>
                        </g>
                      </g>
                    </g>
                  </g>
                </g>
              </g>
            </g>
          </g>
        </g>
      </g>
      <g id="quarrel_4601331" transform="translate(816.606 3880.96)">
        <g id="Group_1208052" data-name="Group 1208052" transform="translate(0.978 14.704)">
          <g id="Group_1208048" data-name="Group 1208048" transform="translate(29.161 15.733)">
            <path id="Path_1052046" data-name="Path 1052046" d="M298.685,201.053v10.863a4.61,4.61,0,0,0,4.61,4.61h8.938a4.61,4.61,0,0,0,4.61-4.61V201.053Z" transform="translate(-289.873 -193.335)" fill="#fed2a4"/>
            <path id="Path_1052047" data-name="Path 1052047" d="M386.456,201.053v10.863a4.61,4.61,0,0,1-4.61,4.61h2.7a4.61,4.61,0,0,0,4.61-4.61V201.053Z" transform="translate(-362.19 -193.335)" fill="#ffbd86"/>
            <path id="Path_1052048" data-name="Path 1052048" d="M272.28,238.375h-2.436a1.523,1.523,0,0,1-1.523-1.523v-2.438a1.523,1.523,0,0,1,1.523-1.523h2.436Z" transform="translate(-263.469 -221.021)" fill="#fed2a4"/>
            <path id="Path_1052049" data-name="Path 1052049" d="M281.313,232.891h2.265v5.484h-2.265Z" transform="translate(-274.767 -221.021)" fill="#ffbd86"/>
            <path id="Path_1052050" data-name="Path 1052050" d="M440.119,238.374h-2.186V232.89h2.186a1.773,1.773,0,0,1,1.773,1.773V236.6A1.773,1.773,0,0,1,440.119,238.374Z" transform="translate(-410.962 -221.02)" fill="#fed2a4"/>
            <path id="Path_1052051" data-name="Path 1052051" d="M440.119,232.891h-2.186v0a1.772,1.772,0,0,1,1.694,1.769V236.6a1.772,1.772,0,0,1-1.694,1.769v0h2.186a1.773,1.773,0,0,0,1.773-1.773v-1.938a1.773,1.773,0,0,0-1.773-1.773Z" transform="translate(-410.962 -221.021)" fill="#ffbd86"/>
            <g id="Group_1208046" data-name="Group 1208046" transform="translate(5.975 23.192)">
              <path id="Path_1052052" data-name="Path 1052052" d="M300.636,378.844h-23.7V363.9l7.764-1.837H293l7.633,1.837Z" transform="translate(-276.936 -356.537)" fill="#a6e7f0"/>
              <path id="Path_1052053" data-name="Path 1052053" d="M382.117,362.06h-2.7l7.633,1.837v14.947h2.7V363.9Z" transform="translate(-366.05 -356.537)" fill="#6bd9e7"/>
              <path id="Path_1052054" data-name="Path 1052054" d="M336.47,319.71h8.3v5.523c-1.941,1.35-6.362,1.35-8.3,0Z" transform="translate(-328.706 -319.71)" fill="#fed2a4"/>
              <path id="Path_1052055" data-name="Path 1052055" d="M360.742,319.71v5.523a6.442,6.442,0,0,1-2.8.929,8.674,8.674,0,0,0,5.5-.929V319.71Z" transform="translate(-347.378 -319.71)" fill="#ffbd86"/>
            </g>
            <path id="Path_1052056" data-name="Path 1052056" d="M237.09,376.144a9.09,9.09,0,0,0-5.975,8.54v2.077h5.975Z" transform="translate(-231.115 -345.593)" fill="#a6e7f0"/>
            <path id="Path_1052057" data-name="Path 1052057" d="M231.115,457.56h5.975v4.33h-5.975Z" transform="translate(-231.115 -416.392)" fill="#fed2a4"/>
            <path id="Path_1052058" data-name="Path 1052058" d="M256.2,457.56h2.7v4.33h-2.7Z" transform="translate(-252.933 -416.392)" fill="#ffbd86"/>
            <path id="Path_1052059" data-name="Path 1052059" d="M458.677,376.144a9.09,9.09,0,0,1,5.975,8.54v2.077h-5.975Z" transform="translate(-429.001 -345.593)" fill="#a6e7f0"/>
            <path id="Path_1052060" data-name="Path 1052060" d="M458.677,376.144V377.7a9.09,9.09,0,0,1,3.272,6.984v2.077h2.7v-2.077A9.09,9.09,0,0,0,458.677,376.144Z" transform="translate(-429.001 -345.593)" fill="#6bd9e7"/>
            <path id="Path_1052061" data-name="Path 1052061" d="M458.677,457.56h5.975v4.33h-5.975Z" transform="translate(-429.001 -416.392)" fill="#fed2a4"/>
            <path id="Path_1052062" data-name="Path 1052062" d="M483.767,457.56h2.7v4.33h-2.7Z" transform="translate(-450.819 -416.392)" fill="#ffbd86"/>
            <path id="Path_1052063" data-name="Path 1052063" d="M298.685,149.589v-3.977a3.741,3.741,0,0,1,3.741-3.741H313.1a3.741,3.741,0,0,1,3.741,3.741v8.129l-10.319-4.152v3.328Z" transform="translate(-289.873 -141.871)" fill="#5d5360"/>
            <g id="Group_1208047" data-name="Group 1208047" transform="translate(13.948 0)">
              <path id="Path_1052064" data-name="Path 1052064" d="M338.074,203.233l2.7,1.147v-3.328h-2.7Z" transform="translate(-338.074 -193.335)" fill="#4b3f4e"/>
              <path id="Path_1052065" data-name="Path 1052065" d="M391.221,141.871h-2.7a3.741,3.741,0,0,1,3.741,3.741v7.041l2.7,1.088v-8.129A3.741,3.741,0,0,0,391.221,141.871Z" transform="translate(-381.94 -141.871)" fill="#4b3f4e"/>
            </g>
            <path id="Path_1052066" data-name="Path 1052066" d="M276.938,457.563h23.7v4.33h-23.7Z" transform="translate(-270.962 -416.394)" fill="#a2aee6"/>
            <path id="Path_1052067" data-name="Path 1052067" d="M437.948,457.563h2.7v4.33h-2.7Z" transform="translate(-410.975 -416.394)" fill="#8795de"/>
          </g>
          <g id="Group_1208051" data-name="Group 1208051" transform="translate(0 16.782)">
            <path id="Path_1052068" data-name="Path 1052068" d="M44.345,388.209H7.5l1.74-7.007a7.779,7.779,0,0,1,4.652-5.266l9.091-3.108h5.879l6.446,2.2,2.645.9a7.785,7.785,0,0,1,4.652,5.266l1.738,7Z" transform="translate(-7.502 -343.76)" fill="#ffe270"/>
            <path id="Path_1052069" data-name="Path 1052069" d="M223.377,390.634v12.273h-2.645V389.73Z" transform="translate(-192.925 -358.456)" fill="#ffd15b"/>
            <path id="Path_1052070" data-name="Path 1052070" d="M247.4,408.931h-2.639l-1.74-8.684a8,8,0,0,0-2.012-3.587,7.785,7.785,0,0,1,4.652,5.266l1.738,7Z" transform="translate(-210.561 -364.482)" fill="#ffd15b"/>
            <g id="Group_1208049" data-name="Group 1208049" transform="translate(5.835 18.532)">
              <path id="Path_1052071" data-name="Path 1052071" d="M52.908,298.78l-.006-.006a2.249,2.249,0,0,1,0-3.181l2.913-2.913a2.249,2.249,0,0,1,3.181,0l.006.006a2.249,2.249,0,0,1,0,3.181l-2.913,2.913A2.249,2.249,0,0,1,52.908,298.78Z" transform="translate(-52.243 -292.021)" fill="#d19a6e"/>
              <path id="Path_1052072" data-name="Path 1052072" d="M65.228,292.7l-.006-.006a2.248,2.248,0,0,0-2.912-.226,2.259,2.259,0,0,1,.269.226l.006.006a2.249,2.249,0,0,1,0,3.181l-2.913,2.913a2.262,2.262,0,0,1-.269.226,2.248,2.248,0,0,0,2.912-.226l2.913-2.913A2.249,2.249,0,0,0,65.228,292.7Z" transform="translate(-58.469 -292.031)" fill="#c38c66"/>
              <path id="Path_1052073" data-name="Path 1052073" d="M195.149,298.78l.006-.006a2.249,2.249,0,0,0,0-3.181l-2.913-2.913a2.249,2.249,0,0,0-3.181,0l-.006.006a2.249,2.249,0,0,0,0,3.181l2.913,2.913A2.249,2.249,0,0,0,195.149,298.78Z" transform="translate(-170.641 -292.021)" fill="#d19a6e"/>
              <path id="Path_1052074" data-name="Path 1052074" d="M201.381,295.6l-2.913-2.913a2.248,2.248,0,0,0-2.912-.226,2.258,2.258,0,0,1,.269.226l2.913,2.913a2.249,2.249,0,0,1,0,3.181l-.006.006a2.263,2.263,0,0,1-.269.226,2.248,2.248,0,0,0,2.912-.226l.006-.006A2.249,2.249,0,0,0,201.381,295.6Z" transform="translate(-176.867 -292.031)" fill="#c38c66"/>
            </g>
            <path id="Path_1052075" data-name="Path 1052075" d="M83.545,165.591H60.534v-8.83a6.846,6.846,0,0,1,6.846-6.846H76.7a6.846,6.846,0,0,1,6.846,6.846v8.83Z" transform="translate(-53.618 -149.915)" fill="#d19a6e"/>
            <path id="Path_1052076" data-name="Path 1052076" d="M166.86,149.914h-2.644a6.846,6.846,0,0,1,6.846,6.846v8.83h2.644v-8.83A6.846,6.846,0,0,0,166.86,149.914Z" transform="translate(-143.779 -149.914)" fill="#c38c66"/>
            <path id="Path_1052077" data-name="Path 1052077" d="M122.677,332.268h6.8v5.474a1.674,1.674,0,0,1-1.071,1.571,6.606,6.606,0,0,1-4.66,0,1.674,1.674,0,0,1-1.071-1.571v-5.474Z" transform="translate(-107.657 -308.488)" fill="#ffe5c2"/>
            <path id="Path_1052078" data-name="Path 1052078" d="M140.7,332.268v5.474a1.674,1.674,0,0,1-1.071,1.571,6.606,6.606,0,0,1-1.008.289,6.606,6.606,0,0,0,3.652-.289,1.674,1.674,0,0,0,1.071-1.571v-5.474Z" transform="translate(-121.525 -308.488)" fill="#fed2a4"/>
            <g id="Group_1208050" data-name="Group 1208050" transform="translate(6.257 11.983)">
              <path id="Path_1052079" data-name="Path 1052079" d="M60.4,248.436H57.218a1.733,1.733,0,0,1-1.733-1.733v-3.164a1.733,1.733,0,0,1,1.733-1.733h2.2Z" transform="translate(-55.485 -241.806)" fill="#ffe5c2"/>
              <path id="Path_1052080" data-name="Path 1052080" d="M70.43,241.8h-2.2c-.027,0-.054,0-.081,0l.042,6.624.039,0H71.41Z" transform="translate(-66.499 -241.805)" fill="#fed2a4"/>
              <path id="Path_1052081" data-name="Path 1052081" d="M208.736,248.435h-3l.8-6.63h2.2a1.733,1.733,0,0,1,1.733,1.733V246.7A1.733,1.733,0,0,1,208.736,248.435Z" transform="translate(-186.141 -241.805)" fill="#ffe5c2"/>
              <path id="Path_1052082" data-name="Path 1052082" d="M213.549,241.8h-2.2v0a1.658,1.658,0,0,1,1.565,1.729V246.7a1.66,1.66,0,0,1-1.645,1.733h2.279a1.733,1.733,0,0,0,1.733-1.733v-3.164A1.733,1.733,0,0,0,213.549,241.8Z" transform="translate(-190.954 -241.805)" fill="#fed2a4"/>
              <path id="Path_1052083" data-name="Path 1052083" d="M97.66,241.8v4.974a7.452,7.452,0,0,1-7.452,7.452H87.082a7.452,7.452,0,0,1-7.452-7.452V241.8Z" transform="translate(-76.481 -241.805)" fill="#ffe5c2"/>
              <path id="Path_1052084" data-name="Path 1052084" d="M147.924,241.8v4.974a7.452,7.452,0,0,1-7.452,7.452h2.644a7.452,7.452,0,0,0,7.452-7.452V241.8Z" transform="translate(-129.389 -241.805)" fill="#fed2a4"/>
            </g>
          </g>
          <path id="Path_1052085" data-name="Path 1052085" d="M217.392,23.488l-1.817-1.817a1.524,1.524,0,0,0-2.155,0l-2.35,2.35-2.35-2.35a1.524,1.524,0,0,0-2.155,0l-1.817,1.817a1.524,1.524,0,0,0,0,2.155l2.35,2.35-2.35,2.35a1.524,1.524,0,0,0,0,2.155l1.817,1.817a1.524,1.524,0,0,0,2.155,0l2.35-2.35,2.35,2.35a1.524,1.524,0,0,0,2.155,0l1.817-1.817a1.524,1.524,0,0,0,0-2.155l-2.35-2.35,2.35-2.35A1.524,1.524,0,0,0,217.392,23.488Z" transform="translate(-178.638 -21.224)" fill="#fe5694"/>
          <path id="Path_1052086" data-name="Path 1052086" d="M267.107,27.994l2.35,2.35a1.524,1.524,0,0,1,0,2.155l-1.817,1.817a1.524,1.524,0,0,1-2.155,0l-.388-.388,2.505-2.506-3.427-3.427,3.427-3.428L265.1,22.061l.388-.388a1.524,1.524,0,0,1,2.156,0l1.817,1.817a1.524,1.524,0,0,1,0,2.155Z" transform="translate(-230.702 -21.225)" fill="#fd3581"/>
        </g>
        <g id="Group_1208053" data-name="Group 1208053" transform="translate(0 13.726)">
          <path id="Path_1052089" data-name="Path 1052089" d="M99.189,164.979c-.089-.04-6.859-1.651-6.99-1.688v-3.815a5.645,5.645,0,0,0,4.927-5.8h1.208a2.754,2.754,0,0,0,2.751-2.751V148.99a2.754,2.754,0,0,0-2.751-2.751H97.126v-2.665a.978.978,0,0,0-1.956,0v2.2l-8.976-3.612a.978.978,0,0,0-1.343.907v1.85l-5.884-2.5v-3.33a2.766,2.766,0,0,1,2.763-2.763H92.408a2.766,2.766,0,0,1,2.763,2.763.978.978,0,0,0,1.956,0,4.724,4.724,0,0,0-4.719-4.719H81.73a4.724,4.724,0,0,0-4.719,4.719v7.151H75.553a2.5,2.5,0,0,0-2.5,2.5v2.438a2.5,2.5,0,0,0,2.5,2.5h1.458a5.65,5.65,0,0,0,4.927,5.8v3.812l-7.011,1.659a10.2,10.2,0,0,0-4.106,2.716l-.038-.014-7.967-2.724V161.3a8.4,8.4,0,0,0,1.735-.854l1.935,1.934a3.232,3.232,0,0,0,4.57-4.57l-1.845-1.845a2.713,2.713,0,0,0,2.367-2.687v-3.164a2.7,2.7,0,0,0-.659-1.766v-5.1a7.833,7.833,0,0,0-7.824-7.824H53.779a7.833,7.833,0,0,0-7.824,7.824v5.1a2.7,2.7,0,0,0-.659,1.766v3.164a2.713,2.713,0,0,0,2.367,2.687l-1.845,1.845a3.232,3.232,0,0,0,4.57,4.57l1.935-1.935a8.4,8.4,0,0,0,1.735.854v3.627L48.6,166.79a.978.978,0,1,0,.633,1.851l5.128-1.753a2.633,2.633,0,0,0,1.4,1.249,7.577,7.577,0,0,0,5.35,0,2.632,2.632,0,0,0,1.4-1.249l7.617,2.6a6.828,6.828,0,0,1,4.043,4.584l1.738,7,0,.009a.978.978,0,0,0,.947.739H88.517a.978.978,0,1,0,0-1.956H77.625l-.59-2.374h20.84v2.374H93.1a.978.978,0,1,0,0,1.956h5.757a.978.978,0,0,0,.978-.978v-3.352h4.019v3.352a.978.978,0,0,0,1.956,0v-6.408a10.1,10.1,0,0,0-6.618-9.459ZM77.011,151.723H75.553a.546.546,0,0,1-.545-.545V148.74a.546.546,0,0,1,.545-.545h1.458Zm6.884,7.794h6.348V163.5a8.72,8.72,0,0,1-6.348,0ZM99.13,148.99v1.938a.8.8,0,0,1-.8.8H97.127V148.2h1.208A.8.8,0,0,1,99.13,148.99Zm-20.162,4.938v-9.386l6.48,2.751a.978.978,0,0,0,1.36-.9v-1.88l8.363,3.365v6.051a3.636,3.636,0,0,1-3.632,3.632H82.6A3.636,3.636,0,0,1,78.968,153.929ZM50.4,153.354v-4H66.475v4A6.481,6.481,0,0,1,60,159.828H56.875A6.481,6.481,0,0,1,50.4,153.354Zm19.645,6.736a1.268,1.268,0,0,1-.379.905,1.312,1.312,0,0,1-1.8,0l-1.8-1.8a8.466,8.466,0,0,0,1.491-2.117l2.113,2.113A1.264,1.264,0,0,1,70.047,160.09Zm-.423-6.814a.756.756,0,0,1-.755.755H68.4c.018-.224.03-.45.03-.678v-4h.438a.756.756,0,0,1,.755.755v3.164Zm-15.845-15.9H63.1a5.875,5.875,0,0,1,5.868,5.868v4.164c-.188-.015-4.1,0-4.233,0v-3.167a.978.978,0,1,0-1.956,0V147.4s-14.763-.008-14.866,0v-4.164A5.875,5.875,0,0,1,53.779,137.374Zm-6.527,15.9v-3.164a.756.756,0,0,1,.755-.755h.438v4c0,.228.012.454.03.678C47.977,154.085,47.373,154,47.252,153.277ZM49.006,161a1.276,1.276,0,0,1-1.8-1.8l2.113-2.113a8.465,8.465,0,0,0,1.491,2.117Zm11.417,5.311a5.62,5.62,0,0,1-3.97,0,.7.7,0,0,1-.438-.656v-3.91c1.1.064,3.578.08,4.847,0v3.91A.7.7,0,0,1,60.423,166.306Zm12.185,2.322a8.093,8.093,0,0,1,1.567-1.194v2.6A8.819,8.819,0,0,0,72.608,168.628Zm3.523,5.226v-7.182l6.618-1.566a10.27,10.27,0,0,0,8.636,0l6.49,1.562v8.869H76.549Zm23.7,1.684v-8.1a8.144,8.144,0,0,1,4.019,7v1.1Z" transform="translate(-39.039 -118.636)"/>
          <path id="Path_1052090" data-name="Path 1052090" d="M196.8,24.9a2.486,2.486,0,0,0,.733,1.769l1.817,1.817a2.5,2.5,0,0,0,3.538,0l1.658-1.658,1.658,1.658a2.5,2.5,0,0,0,3.538,0l1.817-1.817a2.5,2.5,0,0,0,0-3.538l-1.658-1.658,1.658-1.658a2.5,2.5,0,0,0,0-3.538l-1.817-1.817a2.5,2.5,0,0,0-3.538,0l-1.658,1.658-1.658-1.658a2.5,2.5,0,0,0-3.538,0l-1.817,1.817a2.5,2.5,0,0,0,0,3.538l1.658,1.658-1.658,1.658A2.485,2.485,0,0,0,196.8,24.9Zm2.116-.386,2.35-2.35a.978.978,0,0,0,0-1.383l-2.35-2.35a.546.546,0,0,1,0-.772l1.817-1.817a.546.546,0,0,1,.772,0l2.35,2.35a.978.978,0,0,0,1.383,0l2.35-2.35a.546.546,0,0,1,.772,0l1.817,1.817a.546.546,0,0,1,0,.772l-2.35,2.35a.978.978,0,0,0,0,1.383l2.35,2.35a.546.546,0,0,1,0,.772L208.364,27.1a.546.546,0,0,1-.772,0l-2.35-2.35a.978.978,0,0,0-1.383,0l-2.35,2.35a.546.546,0,0,1-.772,0l-1.817-1.817a.546.546,0,0,1,0-.772Z" transform="translate(-171.139 -13.726)"/>
          <path id="Path_1052093" data-name="Path 1052093" d="M5.049,396.762a8.793,8.793,0,0,0-3.28,4.851l-1.74,7.007a.978.978,0,1,0,1.9.472l1.737-7a6.824,6.824,0,0,1,2.545-3.759.978.978,0,1,0-1.161-1.574Z" transform="translate(0 -346.645)"/>
          <path id="Path_1052094" data-name="Path 1052094" d="M214.356,436.215a.978.978,0,0,0-.978.978v6.136a.978.978,0,1,0,1.956,0v-6.136A.978.978,0,0,0,214.356,436.215Z" transform="translate(-185.552 -381.119)"/>
          <path id="Path_1052095" data-name="Path 1052095" d="M70.12,436.215a.978.978,0,0,0-.978.978v6.136a.978.978,0,1,0,1.956,0v-6.136A.978.978,0,0,0,70.12,436.215Z" transform="translate(-60.125 -381.119)"/>
        </g>
      </g>
    </g>
  </g>
</svg>
