<svg xmlns="http://www.w3.org/2000/svg" xmlns:xlink="http://www.w3.org/1999/xlink" width="113" height="113" viewBox="0 0 113 113">
  <defs>
    <filter id="Path_982547" x="0" y="0" width="113" height="113" filterUnits="userSpaceOnUse">
      <feOffset dy="3" input="SourceAlpha"/>
      <feGaussianBlur stdDeviation="3" result="blur"/>
      <feFlood flood-opacity="0.161"/>
      <feComposite operator="in" in2="blur"/>
      <feComposite in="SourceGraphic"/>
    </filter>
  </defs>
  <g id="Group_1208239" data-name="Group 1208239" transform="translate(-744 -7104)">
    <g id="Group_1208130" data-name="Group 1208130">
      <g id="Group_1207917" data-name="Group 1207917" transform="translate(753 7110)">
        <g id="Group_1207254" data-name="Group 1207254">
          <g id="Group_1204125" data-name="Group 1204125">
            <g id="Group_1203962" data-name="Group 1203962" transform="translate(0 0)">
              <g id="Group_1203498" data-name="Group 1203498">
                <g id="Group_1202589" data-name="Group 1202589">
                  <g id="Group_1172010" data-name="Group 1172010">
                    <g id="Group_1171046" data-name="Group 1171046">
                      <g id="Group_1148525" data-name="Group 1148525">
                        <g transform="matrix(1, 0, 0, 1, -9, -6)" filter="url(#Path_982547)">
                          <g id="Path_982547-2" data-name="Path 982547" transform="translate(9 6)" fill="#edf3fc">
                            <path d="M 47.5 93.5 C 41.28937149047852 93.5 35.26533508300781 92.28397369384766 29.59518623352051 89.88570404052734 C 24.11771965026855 87.56893157958984 19.19813346862793 84.25196075439453 14.97309303283691 80.02691650390625 C 10.74804019927979 75.80186462402344 7.431066513061523 70.88229370117188 5.114293098449707 65.40481567382812 C 2.716026782989502 59.73468017578125 1.5 53.71062850952148 1.5 47.5 C 1.5 41.28937149047852 2.716026782989502 35.26533508300781 5.114293098449707 29.59518623352051 C 7.431066513061523 24.11771965026855 10.74804019927979 19.19813346862793 14.97309303283691 14.97309303283691 C 19.19813346862793 10.74804019927979 24.11771965026855 7.431066513061523 29.59518623352051 5.114293098449707 C 35.26533508300781 2.716026782989502 41.28937149047852 1.5 47.5 1.5 C 53.71062850952148 1.5 59.73468017578125 2.716026782989502 65.40481567382812 5.114293098449707 C 70.88229370117188 7.431066513061523 75.80186462402344 10.74804019927979 80.02691650390625 14.97309303283691 C 84.25196075439453 19.19813346862793 87.56893157958984 24.11771965026855 89.88570404052734 29.59518623352051 C 92.28397369384766 35.26533508300781 93.5 41.28937149047852 93.5 47.5 C 93.5 53.71062850952148 92.28397369384766 59.73468017578125 89.88570404052734 65.40481567382812 C 87.56893157958984 70.88229370117188 84.25196075439453 75.80186462402344 80.02691650390625 80.02691650390625 C 75.80186462402344 84.25196075439453 70.88229370117188 87.56893157958984 65.40481567382812 89.88570404052734 C 59.73468017578125 92.28397369384766 53.71062850952148 93.5 47.5 93.5 Z" stroke="none"/>
                            <path d="M 47.5 3 C 41.49121475219727 3 35.66376876831055 4.176155090332031 30.17950439453125 6.495796203613281 C 24.88084411621094 8.736953735351562 20.12152099609375 11.94598388671875 16.03375244140625 16.03375244140625 C 11.94598388671875 20.12152099609375 8.736953735351562 24.88084411621094 6.495796203613281 30.17950439453125 C 4.176155090332031 35.66376876831055 3 41.49121475219727 3 47.5 C 3 53.50878524780273 4.176155090332031 59.33623123168945 6.495796203613281 64.82049560546875 C 8.736953735351562 70.11915588378906 11.94598388671875 74.87847900390625 16.03375244140625 78.96624755859375 C 20.12152099609375 83.05401611328125 24.88084411621094 86.26304626464844 30.17950439453125 88.50419616699219 C 35.66376876831055 90.82384490966797 41.49121475219727 92 47.5 92 C 53.50878524780273 92 59.33623123168945 90.82384490966797 64.82049560546875 88.50419616699219 C 70.11915588378906 86.26304626464844 74.87847900390625 83.05401611328125 78.96624755859375 78.96624755859375 C 83.05401611328125 74.87847900390625 86.26304626464844 70.11915588378906 88.50419616699219 64.82049560546875 C 90.82384490966797 59.33623123168945 92 53.50878524780273 92 47.5 C 92 41.49121475219727 90.82384490966797 35.66376876831055 88.50419616699219 30.17950439453125 C 86.26304626464844 24.88084411621094 83.05401611328125 20.12152099609375 78.96624755859375 16.03375244140625 C 74.87847900390625 11.94598388671875 70.11915588378906 8.736953735351562 64.82049560546875 6.495796203613281 C 59.33623123168945 4.176155090332031 53.50878524780273 3 47.5 3 M 47.5 0 C 73.7335205078125 0 95 21.2664794921875 95 47.5 C 95 73.7335205078125 73.7335205078125 95 47.5 95 C 21.2664794921875 95 0 73.7335205078125 0 47.5 C 0 21.2664794921875 21.2664794921875 0 47.5 0 Z" stroke="none" fill="#5692e8"/>
                          </g>
                        </g>
                      </g>
                    </g>
                  </g>
                </g>
              </g>
            </g>
          </g>
        </g>
      </g>
      <g id="emotional-intelligence_7521490" transform="translate(766 7123)">
        <path id="Path_1052365" data-name="Path 1052365" d="M19,59.023V43.89l10.809-5.4V32h6.486v6.486L47.1,43.89V59.023Z" transform="translate(1.457 2.023)" fill="#6c8199"/>
        <path id="Path_1052366" data-name="Path 1052366" d="M22,8H43.618V33.942H22Z" transform="translate(1.699 0.081)" fill="#5ab360"/>
        <path id="Path_1052367" data-name="Path 1052367" d="M46,11H63.295V30.457H46Z" transform="translate(3.641 0.324)" fill="#ffdc59"/>
        <path id="Path_1052368" data-name="Path 1052368" d="M2,11H19.295V30.457H2Z" transform="translate(0.081 0.324)" fill="#ff6668"/>
        <path id="Path_1052369" data-name="Path 1052369" d="M43.942,35.1a1.081,1.081,0,0,0,1.081-1.081V8.081A1.081,1.081,0,0,0,43.942,7H22.324a1.081,1.081,0,0,0-1.081,1.081V34.023A1.081,1.081,0,0,0,22.324,35.1h6.486v4.734L18.595,44.951a1.081,1.081,0,0,0-.595.962V61.046h2.162V46.583L30.377,41.47a1.081,1.081,0,0,0,.595-.962V35.1h4.324v5.4a1.081,1.081,0,0,0,.595.962L46.1,46.583V61.046h2.162V45.913a1.081,1.081,0,0,0-.595-.962L37.457,39.838V35.1ZM23.4,32.942V9.162H42.861v23.78Z" transform="translate(1.376)"/>
        <path id="Path_1052370" data-name="Path 1052370" d="M63.376,10H46.081A1.081,1.081,0,0,0,45,11.081V30.537a1.081,1.081,0,0,0,1.081,1.081H63.376a1.081,1.081,0,0,0,1.081-1.081V11.081A1.081,1.081,0,0,0,63.376,10ZM62.295,29.457H47.162V12.162H62.295Z" transform="translate(3.56 0.243)"/>
        <path id="Path_1052371" data-name="Path 1052371" d="M20.457,30.537V11.081A1.081,1.081,0,0,0,19.376,10H2.081A1.081,1.081,0,0,0,1,11.081V30.537a1.081,1.081,0,0,0,1.081,1.081H19.376A1.081,1.081,0,0,0,20.457,30.537Zm-2.162-1.081H3.162V12.162H18.295Z" transform="translate(0 0.243)"/>
        <path id="Path_1052372" data-name="Path 1052372" d="M27,14h2.162v2.162H27Z" transform="translate(2.104 0.566)"/>
        <path id="Path_1052373" data-name="Path 1052373" d="M35,14h2.162v2.162H35Z" transform="translate(2.751 0.566)"/>
        <path id="Path_1052374" data-name="Path 1052374" d="M32.486,25.324A4.324,4.324,0,0,1,28.162,21H26a6.486,6.486,0,0,0,12.971,0H36.809A4.324,4.324,0,0,1,32.486,25.324Z" transform="translate(2.023 1.133)"/>
        <path id="Path_1052375" data-name="Path 1052375" d="M6,15.5H8.162v2.162H6Z" transform="translate(0.405 0.688)"/>
        <path id="Path_1052376" data-name="Path 1052376" d="M12,15.5h2.162v2.162H12Z" transform="translate(0.89 0.688)"/>
        <path id="Path_1052377" data-name="Path 1052377" d="M10.324,22.662a2.162,2.162,0,0,1,2.162,2.162h2.162a4.324,4.324,0,1,0-8.647,0H8.162A2.162,2.162,0,0,1,10.324,22.662Z" transform="translate(0.405 1.092)"/>
        <path id="Path_1052378" data-name="Path 1052378" d="M50,16h2.162v2.162H50Z" transform="translate(3.965 0.728)"/>
        <path id="Path_1052379" data-name="Path 1052379" d="M56,16h2.162v2.162H56Z" transform="translate(4.45 0.728)"/>
        <path id="Path_1052380" data-name="Path 1052380" d="M50,22h8.647v2.162H50Z" transform="translate(3.965 1.214)"/>
        <path id="Path_1052381" data-name="Path 1052381" d="M23,46h2.162V57.89H23Z" transform="translate(1.78 3.156)"/>
        <path id="Path_1052382" data-name="Path 1052382" d="M39,46h2.162V57.89H39Z" transform="translate(3.075 3.156)"/>
      </g>
    </g>
  </g>
</svg>
