<svg xmlns="http://www.w3.org/2000/svg" xmlns:xlink="http://www.w3.org/1999/xlink" width="108" height="108" viewBox="0 0 108 108">
  <defs>
    <filter id="Path_904820" x="0" y="0" width="108" height="108" filterUnits="userSpaceOnUse">
      <feOffset dy="3" input="SourceAlpha"/>
      <feGaussianBlur stdDeviation="3" result="blur"/>
      <feFlood flood-opacity="0.161"/>
      <feComposite operator="in" in2="blur"/>
      <feComposite in="SourceGraphic"/>
    </filter>
    <clipPath id="clip-path">
      <path id="path7668" d="M0-682.665H57.978v57.978H0Z" transform="translate(0 682.665)"/>
    </clipPath>
  </defs>
  <g id="Group_1208212" data-name="Group 1208212" transform="translate(-619.477 -2865.676)">
    <g id="Group_1201662" data-name="Group 1201662" transform="translate(628.477 2871.676)">
      <g id="Group_1173585" data-name="Group 1173585" transform="translate(0 0)">
        <g id="Group_1173428" data-name="Group 1173428">
          <g id="Group_1171958" data-name="Group 1171958">
            <g id="Group_1167341" data-name="Group 1167341">
              <g id="Group_1166792" data-name="Group 1166792">
                <g transform="matrix(1, 0, 0, 1, -9, -6)" filter="url(#Path_904820)">
                  <g id="Path_904820-2" data-name="Path 904820" transform="translate(9 6)" fill="#effbfe">
                    <path d="M 44.99999618530273 88.49994659423828 C 39.12687301635742 88.49994659423828 33.43022155761719 87.35002136230469 28.06829643249512 85.08212280273438 C 22.88852119445801 82.89125823974609 18.23629570007324 79.75454711914062 14.24084663391113 75.75909423828125 C 10.24540901184082 71.76364135742188 7.108683586120605 67.11143493652344 4.917821407318115 61.93165588378906 C 2.649921178817749 56.56973266601562 1.499996185302734 50.87309265136719 1.499996185302734 44.99996948242188 C 1.499996185302734 39.12684631347656 2.649921178817749 33.43020629882812 4.917821407318115 28.06828117370605 C 7.108683586120605 22.88850784301758 10.24540901184082 18.23629379272461 14.24084663391113 14.2408447265625 C 18.23629570007324 10.24540710449219 22.88852119445801 7.108694553375244 28.06829643249512 4.917831897735596 C 33.43022155761719 2.649931907653809 39.12687301635742 1.500007033348083 44.99999618530273 1.500007033348083 C 50.87311935424805 1.500007033348083 56.56977081298828 2.649931907653809 61.93169784545898 4.917831897735596 C 67.11147308349609 7.108694553375244 71.76369476318359 10.24540710449219 75.75914764404297 14.2408447265625 C 79.75458526611328 18.23629379272461 82.89131164550781 22.88850784301758 85.08216857910156 28.06828117370605 C 87.35007476806641 33.43020629882812 88.5 39.12684631347656 88.5 44.99996948242188 C 88.5 50.87309265136719 87.35007476806641 56.56973266601562 85.08216857910156 61.93165588378906 C 82.89131164550781 67.11143493652344 79.75458526611328 71.76364135742188 75.75914764404297 75.75909423828125 C 71.76369476318359 79.75454711914062 67.11147308349609 82.89125823974609 61.93169784545898 85.08212280273438 C 56.56977081298828 87.35002136230469 50.87311935424805 88.49994659423828 44.99999618530273 88.49994659423828 Z" stroke="none"/>
                    <path d="M 44.99999618530273 3 C 39.32870864868164 3 33.82865142822266 4.110054016113281 28.65262603759766 6.299324035644531 C 23.65165710449219 8.414566040039062 19.15968322753906 11.44332885742188 15.301513671875 15.30149841308594 C 11.44333648681641 19.15968322753906 8.414566040039062 23.65164184570312 6.299339294433594 28.65261077880859 C 4.110054016113281 33.82863998413086 2.999992370605469 39.32868194580078 2.999992370605469 44.99996948242188 C 2.999992370605469 50.67125701904297 4.110054016113281 56.17129898071289 6.299339294433594 61.34732818603516 C 8.414566040039062 66.34829711914062 11.44333648681641 70.84025573730469 15.301513671875 74.69844055175781 C 19.15968322753906 78.55661010742188 23.65165710449219 81.58537292480469 28.65262603759766 83.70061492919922 C 33.82865142822266 85.88988494873047 39.32870864868164 86.99993896484375 44.99999618530273 86.99993896484375 C 50.67128372192383 86.99993896484375 56.17134094238281 85.88988494873047 61.34736633300781 83.70061492919922 C 66.34834289550781 81.58537292480469 70.84030914306641 78.55661010742188 74.69847869873047 74.69844055175781 C 78.55665588378906 70.84025573730469 81.58542633056641 66.34829711914062 83.70065307617188 61.34732818603516 C 85.88993835449219 56.17129898071289 87 50.67125701904297 87 44.99996948242188 C 87 39.32868194580078 85.88993835449219 33.82863998413086 83.70065307617188 28.65261077880859 C 81.58542633056641 23.65164184570312 78.55665588378906 19.15968322753906 74.69847869873047 15.30149841308594 C 70.84030914306641 11.44332885742188 66.34834289550781 8.414566040039062 61.34736633300781 6.299324035644531 C 56.17134094238281 4.110054016113281 50.67128372192383 3 44.99999618530273 3 M 44.99999618530273 0 C 69.85281372070312 0 90 20.14717102050781 90 44.99996948242188 C 90 69.85276794433594 69.85281372070312 89.99993896484375 44.99999618530273 89.99993896484375 C 20.14717864990234 89.99993896484375 -7.62939453125e-06 69.85276794433594 -7.62939453125e-06 44.99996948242188 C -7.62939453125e-06 20.14717102050781 20.14717864990234 0 44.99999618530273 0 Z" stroke="none" fill="#497f88"/>
                  </g>
                </g>
              </g>
            </g>
          </g>
        </g>
      </g>
      <g id="g7662" transform="translate(16.011 696.676)">
        <g id="g7664" transform="translate(0 -682.665)">
          <g id="g7666" clip-path="url(#clip-path)">
            <g id="g7672" transform="translate(7.438 0.849)">
              <path id="path7674" d="M0-105.9v28.045H26.763V-105.9a9.828,9.828,0,0,0-10.72-9.788l-1.874.171a8.688,8.688,0,0,1-1.575,0l-1.874-.171A9.828,9.828,0,0,0,0-105.9" transform="translate(0 115.733)" fill="#fdbd37"/>
            </g>
            <g id="g7676" transform="translate(20.951 0.849)">
              <path id="path7678" d="M-27.253-.446l-1.874.171c-.218.02-.437.029-.655.033a9.833,9.833,0,0,1,7.637,9.584V37.387h5.612V9.342A9.828,9.828,0,0,0-27.253-.446" transform="translate(29.783 0.487)" fill="#fa9a39"/>
            </g>
            <g id="g7680" transform="translate(0.852 25.474)">
              <path id="path7682" d="M-391.1-121.426h0a36.05,36.05,0,0,0-9.788-3.309,2.748,2.748,0,0,1-2.247-2.7V-132.7h-8.592v5.256a2.748,2.748,0,0,1-2.247,2.7,36.05,36.05,0,0,0-9.788,3.309A6.643,6.643,0,0,0-427.4-115.5v13.724a.737.737,0,0,0,.737.737h39.2V-115.5a6.643,6.643,0,0,0-3.636-5.923" transform="translate(427.399 132.696)" fill="#fed6a6"/>
            </g>
            <g id="g7684" transform="translate(19.481 25.474)">
              <path id="path7686" d="M-190.38-121.426h0a36.051,36.051,0,0,0-9.788-3.309,2.748,2.748,0,0,1-2.247-2.7V-132.7h-5.634v8.968a2.748,2.748,0,0,0,2.247,2.7,36.048,36.048,0,0,1,9.788,3.309,6.643,6.643,0,0,1,3.636,5.923v10.75h5.634V-115.5a6.643,6.643,0,0,0-3.636-5.923" transform="translate(208.049 132.696)" fill="#efc79c"/>
            </g>
            <g id="g7688" transform="translate(7.438 13.338)">
              <path id="path7690" d="M-42.675,0h-1.562a2.4,2.4,0,0,0-2.4,2.4V3.535a2.4,2.4,0,0,0,2.4,2.4h1.562Z" transform="translate(46.636)" fill="#fed6a6"/>
            </g>
            <g id="g7692" transform="translate(30.24 13.338)">
              <path id="path7694" d="M0,0H1.562a2.4,2.4,0,0,1,2.4,2.4V3.535a2.4,2.4,0,0,1-2.4,2.4H0Z" fill="#fed6a6"/>
            </g>
            <g id="g7696" transform="translate(10.699 7.482)">
              <path id="path7698" d="M-106.58-.993a17.746,17.746,0,0,1-9.607,4.511.326.326,0,0,0-.285.325l.031,8.194c0,6.707,7.041,9.865,10.089,9.93,3.048-.065,10.089-3.223,10.089-9.93l.031-8.194a.326.326,0,0,0-.285-.325,17.745,17.745,0,0,1-9.607-4.511.329.329,0,0,0-.457,0" transform="translate(116.472 1.085)" fill="#ffe3c2"/>
            </g>
            <g id="g7700" transform="translate(18.013 10.482)">
              <path id="path7702" d="M-136.205-17.27a18.285,18.285,0,0,1-5.343-1.6l-.016,10.122c0,5.059-4.006,8.1-7.283,9.315a9.038,9.038,0,0,0,2.806.615c3.048-.065,10.089-3.223,10.089-9.93l.031-8.194a.326.326,0,0,0-.285-.325" transform="translate(148.846 18.873)" fill="#f7d6b5"/>
            </g>
            <g id="g7704" transform="translate(20.619 17.968)">
              <path id="path7706" d="M0,0V2.256a.355.355,0,0,0,.355.355H1.1" fill="none" stroke="#000" stroke-linecap="round" stroke-linejoin="round" stroke-miterlimit="10" stroke-width="1"/>
            </g>
            <g id="g7708" transform="translate(17.446 23.835)">
              <path id="path7710" d="M0,0A3.965,3.965,0,0,0,3.374,1.639,3.965,3.965,0,0,0,6.747,0" fill="none" stroke="#000" stroke-linecap="round" stroke-linejoin="round" stroke-miterlimit="10" stroke-width="1"/>
            </g>
            <g id="g7712" transform="translate(25.984 15.87)">
              <path id="path7714" d="M0,0V1.028" fill="none" stroke="#000" stroke-linecap="round" stroke-linejoin="round" stroke-miterlimit="10" stroke-width="1"/>
            </g>
            <g id="g7716" transform="translate(15.655 15.87)">
              <path id="path7718" d="M0,0V1.028" fill="none" stroke="#000" stroke-linecap="round" stroke-linejoin="round" stroke-miterlimit="10" stroke-width="1"/>
            </g>
            <g id="g7720" transform="translate(0.852 34.169)">
              <path id="path7722" d="M-391.1-27.74h0a36.076,36.076,0,0,0-6.615-2.575c-1.242,1.995-5.2,3.453-9.892,3.453-4.625,0-8.538-1.417-9.838-3.368a36.068,36.068,0,0,0-6.317,2.49,6.643,6.643,0,0,0-3.636,5.923V-8.093a.737.737,0,0,0,.737.737h39.2V-21.817A6.643,6.643,0,0,0-391.1-27.74" transform="translate(427.399 30.315)" fill="#ff94a6"/>
            </g>
            <g id="g7724" transform="translate(23.266 34.169)">
              <path id="path7726" d="M-149.606-27.74h0a36.074,36.074,0,0,0-6.615-2.575c-1,1.609-3.773,2.869-7.27,3.3a36.051,36.051,0,0,1,8.251,2.99,6.643,6.643,0,0,1,3.636,5.923v10.75h5.634V-21.817a6.643,6.643,0,0,0-3.636-5.923" transform="translate(163.492 30.315)" fill="#f4849c"/>
            </g>
            <g id="g7728" transform="translate(7.11 47.456)">
              <path id="path7730" d="M0,0V9.672" fill="none" stroke="#000" stroke-linecap="round" stroke-linejoin="round" stroke-miterlimit="10" stroke-width="1"/>
            </g>
            <g id="g7732" transform="translate(31.805 19.243)">
              <path id="path7734" d="M0-80.409v13.422a.911.911,0,0,0,.911.911h11a8.411,8.411,0,0,0,8.411-8.411v-5.921a7.462,7.462,0,0,0-8.139-7.431H8.139A7.462,7.462,0,0,0,0-80.409" transform="translate(0 87.872)" fill="#fdbd37"/>
            </g>
            <g id="g7736" transform="translate(26.805 37.94)">
              <path id="path7738" d="M-296.951-92.194h0a27.377,27.377,0,0,0-7.423-2.511,2.091,2.091,0,0,1-1.715-2.055v-3.991h-6.523v3.991a2.091,2.091,0,0,1-1.715,2.055,27.376,27.376,0,0,0-7.423,2.511,6.948,6.948,0,0,0-2.761,5.158v5.473h29.584a.737.737,0,0,0,.737-.737v-4.736a6.948,6.948,0,0,0-2.76-5.158" transform="translate(324.511 100.75)" fill="#fed6a6"/>
            </g>
            <g id="g7740" transform="translate(39.615 37.94)">
              <path id="path7742" d="M-158.928-92.2h0a27.376,27.376,0,0,0-7.423-2.511,2.091,2.091,0,0,1-1.715-2.055v-3.991h-5.612v6.519a1.35,1.35,0,0,0,1.133,1.333,27.372,27.372,0,0,1,8,2.612l.328.219a6.122,6.122,0,0,1,2.432,4.545v3.96h4.875a.737.737,0,0,0,.737-.737v-4.736a6.948,6.948,0,0,0-2.761-5.158" transform="translate(173.678 100.752)" fill="#efc79c"/>
            </g>
            <g id="g7744" transform="translate(31.805 28.725)">
              <path id="path7746" d="M-32.4,0h-1.186a1.822,1.822,0,0,0-1.821,1.822v.862a1.822,1.822,0,0,0,1.821,1.822H-32.4Z" transform="translate(35.408)" fill="#fed6a6"/>
            </g>
            <g id="g7748" transform="translate(49.118 28.725)">
              <path id="path7750" d="M0,0H1.186A1.822,1.822,0,0,1,3.007,1.822v.862A1.822,1.822,0,0,1,1.186,4.507H0Z" fill="#fed6a6"/>
            </g>
            <g id="g7752" transform="translate(34.282 23.731)">
              <path id="path7754" d="M-110.981,0c-1.64,4.993-7.9,4.445-9.769,4.16a.461.461,0,0,0-.531.457l.022,5.894c0,5.092,5.346,7.49,7.66,7.54,2.314-.049,7.66-2.447,7.66-7.54l.025-8.1S-107.7,3.286-110.981,0" transform="translate(121.281 0)" fill="#ffe3c2"/>
            </g>
            <g id="g7756" transform="translate(41.813 32.241)">
              <path id="path7758" d="M0,0V1.713a.269.269,0,0,0,.27.269H.834" fill="none" stroke="#000" stroke-linecap="round" stroke-linejoin="round" stroke-miterlimit="10" stroke-width="1"/>
            </g>
            <g id="g7760" transform="translate(39.404 36.696)">
              <path id="path7762" d="M0,0A3.01,3.01,0,0,0,2.561,1.244,3.01,3.01,0,0,0,5.123,0" fill="none" stroke="#000" stroke-linecap="round" stroke-linejoin="round" stroke-miterlimit="10" stroke-width="1"/>
            </g>
            <g id="g7764" transform="translate(45.886 30.928)">
              <path id="path7766" d="M0,0V.5" fill="none" stroke="#000" stroke-linecap="round" stroke-linejoin="round" stroke-miterlimit="10" stroke-width="1"/>
            </g>
            <g id="g7768" transform="translate(38.044 30.928)">
              <path id="path7770" d="M0,0V.5" fill="none" stroke="#000" stroke-linecap="round" stroke-linejoin="round" stroke-miterlimit="10" stroke-width="1"/>
            </g>
            <g id="g7772" transform="translate(26.805 44.542)">
              <path id="path7774" d="M-296.951-21.062h0a27.392,27.392,0,0,0-5.023-1.955c-.943,1.514-3.949,2.622-7.511,2.622-3.512,0-6.482-1.076-7.47-2.557a27.388,27.388,0,0,0-4.8,1.89,6.948,6.948,0,0,0-2.761,5.158v5.473h29.584a.737.737,0,0,0,.737-.737V-15.9a6.948,6.948,0,0,0-2.76-5.158" transform="translate(324.511 23.017)" fill="#80c56e"/>
            </g>
            <g id="g7776" transform="translate(45.024 44.542)">
              <path id="path7778" d="M-130.391-127.673v-4.736a6.949,6.949,0,0,0-2.761-5.158,27.409,27.409,0,0,0-5.023-1.955c-.642,1.031-2.24,1.873-4.318,2.306a27.373,27.373,0,0,1,3.729,1.557l.328.219A6.122,6.122,0,0,1-136-130.9v3.96h4.875a.737.737,0,0,0,.737-.737" transform="translate(142.493 139.522)" fill="#70b25d"/>
            </g>
            <g id="g7780" transform="translate(41.08 20.339)">
              <path id="path7782" d="M-43.282-51.328l-2.685.11A1.278,1.278,0,0,1-47.2-52.992l.976-2.318a1.278,1.278,0,0,1,2.128-.36l1.8,2Z" transform="translate(47.299 56.092)" fill="#fc6a58"/>
            </g>
            <g id="g7784" transform="translate(47.052 23.471)">
              <path id="path7786" d="M0-26.452l1.8,2a1.278,1.278,0,0,0,2.128-.359L4.9-27.132a1.278,1.278,0,0,0-1.231-1.773L.987-28.8Z" transform="translate(0 28.907)" fill="#fc6a58"/>
            </g>
            <g id="g7788" transform="translate(44.996 22.625)">
              <path id="path7790" d="M-19.007-36.694l-1.535-.646a.374.374,0,0,1-.2-.49l.858-2.04a.375.375,0,0,1,.491-.2l1.535.646a.375.375,0,0,1,.2.491l-.859,2.04a.374.374,0,0,1-.49.2" transform="translate(20.771 40.1)" fill="#e35052"/>
            </g>
            <g id="g7792" transform="translate(31.318 53.392)">
              <path id="path7794" d="M0-40.032v-3.715" transform="translate(0 43.748)" fill="none" stroke="#000" stroke-linecap="round" stroke-linejoin="round" stroke-miterlimit="10" stroke-width="1"/>
            </g>
            <g id="g7796" transform="translate(52.612 53.392)">
              <path id="path7798" d="M0-40.259V-44" transform="translate(0 43.996)" fill="none" stroke="#000" stroke-linecap="round" stroke-linejoin="round" stroke-miterlimit="10" stroke-width="1"/>
            </g>
            <g id="g7800" transform="translate(10.805 34.169)">
              <path id="path7802" d="M-212.585,0c-1.242,1.995-5.2,3.453-9.892,3.453-4.625,0-8.538-1.417-9.838-3.368" transform="translate(232.315)" fill="none" stroke="#000" stroke-linecap="round" stroke-linejoin="round" stroke-miterlimit="10" stroke-width="1"/>
            </g>
            <g id="g7804" transform="translate(25.115 29.258)">
              <path id="path7806" d="M-72.079-57.021a36.051,36.051,0,0,0-4.443-1.115,2.748,2.748,0,0,1-2.247-2.7v-1.473" transform="translate(78.769 62.313)" fill="none" stroke="#000" stroke-linecap="round" stroke-linejoin="round" stroke-miterlimit="10" stroke-width="1"/>
            </g>
            <g id="g7808" transform="translate(0.852 47.713)">
              <path id="path7810" d="M0,0V8.679a.737.737,0,0,0,.737.737h39.2" fill="none" stroke="#000" stroke-linecap="round" stroke-linejoin="round" stroke-miterlimit="10" stroke-width="1"/>
            </g>
            <g id="g7812" transform="translate(0.852 29.258)">
              <path id="path7814" d="M-168.852,0V1.473a2.748,2.748,0,0,1-2.247,2.7,36.046,36.046,0,0,0-9.788,3.309,6.643,6.643,0,0,0-3.636,5.923V14.5" transform="translate(184.524)" fill="none" stroke="#000" stroke-linecap="round" stroke-linejoin="round" stroke-miterlimit="10" stroke-width="1"/>
            </g>
            <g id="g7816" transform="translate(10.699 7.482)">
              <path id="path7818" d="M-106.58-.993a17.746,17.746,0,0,1-9.607,4.511.326.326,0,0,0-.285.325l.031,8.194c0,6.707,7.041,9.865,10.089,9.93,3.048-.065,10.089-3.223,10.089-9.93l.031-8.194a.326.326,0,0,0-.285-.325,17.745,17.745,0,0,1-9.607-4.511A.329.329,0,0,0-106.58-.993Z" transform="translate(116.472 1.085)" fill="none" stroke="#000" stroke-linecap="round" stroke-linejoin="round" stroke-miterlimit="10" stroke-width="1"/>
            </g>
            <g id="g7820" transform="translate(7.438 13.338)">
              <path id="path7822" d="M-35.175,0h-.866a2.4,2.4,0,0,0-2.4,2.4V3.535a2.4,2.4,0,0,0,2.4,2.4h.889" transform="translate(38.44)" fill="none" stroke="#000" stroke-linecap="round" stroke-linejoin="round" stroke-miterlimit="10" stroke-width="1"/>
            </g>
            <g id="g7824" transform="translate(30.913 13.338)">
              <path id="path7826" d="M0-63.952H.889a2.4,2.4,0,0,0,2.4-2.4v-1.135a2.4,2.4,0,0,0-2.4-2.4H.023" transform="translate(0 69.888)" fill="none" stroke="#000" stroke-linecap="round" stroke-linejoin="round" stroke-miterlimit="10" stroke-width="1"/>
            </g>
            <g id="g7828" transform="translate(34.201 16.873)">
              <path id="path7830" d="M0-46.92v-4.355" transform="translate(0 51.275)" fill="none" stroke="#000" stroke-linecap="round" stroke-linejoin="round" stroke-miterlimit="10" stroke-width="1"/>
            </g>
            <g id="g7832" transform="translate(7.438 16.873)">
              <path id="path7834" d="M0,0V18.538" fill="none" stroke="#000" stroke-linecap="round" stroke-linejoin="round" stroke-miterlimit="10" stroke-width="1"/>
            </g>
            <g id="g7836" transform="translate(7.438 0.849)">
              <path id="path7838" d="M-288.357-160.419v-5.06a9.828,9.828,0,0,0-10.72-9.788l-1.874.171a8.688,8.688,0,0,1-1.575,0l-1.874-.171a9.828,9.828,0,0,0-10.72,9.788v5.06" transform="translate(315.119 175.308)" fill="none" stroke="#000" stroke-linecap="round" stroke-linejoin="round" stroke-miterlimit="10" stroke-width="1"/>
            </g>
            <g id="g7840" transform="translate(31.805 28.725)">
              <path id="path7842" d="M-26.708,0h-.658a1.822,1.822,0,0,0-1.821,1.822v.862a1.822,1.822,0,0,0,1.821,1.822h.675" transform="translate(29.187)" fill="none" stroke="#000" stroke-linecap="round" stroke-linejoin="round" stroke-miterlimit="10" stroke-width="1"/>
            </g>
            <g id="g7844" transform="translate(49.628 28.725)">
              <path id="path7846" d="M0-48.557H.676A1.822,1.822,0,0,0,2.5-50.38v-.862A1.822,1.822,0,0,0,.676-53.064H.014" transform="translate(0 53.064)" fill="none" stroke="#000" stroke-linecap="round" stroke-linejoin="round" stroke-miterlimit="10" stroke-width="1"/>
            </g>
            <g id="g7848" transform="translate(34.282 25.152)">
              <path id="path7850" d="M-103.7,0c-2.255,3.457-7.421,2.993-9.094,2.739a.461.461,0,0,0-.531.457l.022,5.894c0,5.092,5.346,7.49,7.66,7.54,2.314-.049,7.66-2.447,7.66-7.54l.018-5.908" transform="translate(113.326)" fill="none" stroke="#000" stroke-linecap="round" stroke-linejoin="round" stroke-miterlimit="10" stroke-width="1"/>
            </g>
            <g id="g7852" transform="translate(44.996 22.625)">
              <path id="path7854" d="M-19.007-36.694l-1.535-.646a.374.374,0,0,1-.2-.49l.858-2.04a.375.375,0,0,1,.491-.2l1.535.646a.375.375,0,0,1,.2.491l-.859,2.04A.374.374,0,0,1-19.007-36.694Z" transform="translate(20.771 40.1)" fill="none" stroke="#000" stroke-linecap="round" stroke-linejoin="round" stroke-miterlimit="10" stroke-width="1"/>
            </g>
            <g id="g7856" transform="translate(47.115 23.471)">
              <path id="path7858" d="M0-27.2l1.735,1.927a1.278,1.278,0,0,0,2.128-.359l.976-2.318a1.278,1.278,0,0,0-1.231-1.773l-2.591.106" transform="translate(0 29.729)" fill="none" stroke="#000" stroke-linecap="round" stroke-linejoin="round" stroke-miterlimit="10" stroke-width="1"/>
            </g>
            <g id="g7860" transform="translate(41.08 20.339)">
              <path id="path7862" d="M-53.233-25.323l-1.735-1.927a1.278,1.278,0,0,0-2.128.36l-.976,2.318A1.278,1.278,0,0,0-56.841-22.8l2.591-.106" transform="translate(58.174 27.674)" fill="none" stroke="#000" stroke-linecap="round" stroke-linejoin="round" stroke-miterlimit="10" stroke-width="1"/>
            </g>
            <g id="g7864" transform="translate(44.961 25.196)">
              <path id="path7866" d="M0-169.7a8.413,8.413,0,0,0,7.164-8.319v-5.921a7.5,7.5,0,0,0-.154-1.51c-.006.016-.01.033-.017.049" transform="translate(0 185.448)" fill="none" stroke="#000" stroke-linecap="round" stroke-linejoin="round" stroke-miterlimit="10" stroke-width="1"/>
            </g>
            <g id="g7868" transform="translate(31.805 19.243)">
              <path id="path7870" d="M-212.087-47.892a7.464,7.464,0,0,0-7.5-4.414h-4.041a7.462,7.462,0,0,0-8.139,7.431v13.422a.911.911,0,0,0,.911.911h6.45" transform="translate(231.771 52.337)" fill="none" stroke="#000" stroke-linecap="round" stroke-linejoin="round" stroke-miterlimit="10" stroke-width="1"/>
            </g>
            <g id="g7872" transform="translate(26.805 44.542)">
              <path id="path7874" d="M-268.5-8.463q-1.177-.449-2.382-.785c-.943,1.514-3.949,2.622-7.511,2.622-3.512,0-6.482-1.076-7.47-2.557a27.386,27.386,0,0,0-4.8,1.89,6.948,6.948,0,0,0-2.761,5.158V3.339h29.584A.737.737,0,0,0-263.1,2.6V-2.135a7.055,7.055,0,0,0-1.926-4.446" transform="translate(293.421 9.248)" fill="none" stroke="#000" stroke-linecap="round" stroke-linejoin="round" stroke-miterlimit="10" stroke-width="1"/>
            </g>
            <g id="g7876" transform="translate(34.362 40.813)">
              <path id="path7878" d="M-46.777,0V1.119a2.091,2.091,0,0,1-1.715,2.055q-1.324.245-2.626.621" transform="translate(51.119)" fill="none" stroke="#000" stroke-linecap="round" stroke-linejoin="round" stroke-miterlimit="10" stroke-width="1"/>
            </g>
            <g id="g7880" transform="translate(45.227 40.813)">
              <path id="path7882" d="M-44.341-40.183c.2.056.4.114.595.174a27.367,27.367,0,0,0-2.995-.73,2.091,2.091,0,0,1-1.715-2.055v-1.119" transform="translate(48.456 43.912)" fill="none" stroke="#000" stroke-linecap="round" stroke-linejoin="round" stroke-miterlimit="10" stroke-width="1"/>
            </g>
          </g>
        </g>
      </g>
    </g>
  </g>
</svg>
