<svg xmlns="http://www.w3.org/2000/svg" xmlns:xlink="http://www.w3.org/1999/xlink" width="98" height="98" viewBox="0 0 98 98">
  <defs>
    <filter id="Path_982547" x="0" y="0" width="98" height="98" filterUnits="userSpaceOnUse">
      <feOffset dy="3" input="SourceAlpha"/>
      <feGaussianBlur stdDeviation="3" result="blur"/>
      <feFlood flood-opacity="0.161"/>
      <feComposite operator="in" in2="blur"/>
      <feComposite in="SourceGraphic"/>
    </filter>
    <clipPath id="clip-path">
      <path id="path8121" d="M0-682.665H48.414v48.414H0Z" transform="translate(0 682.665)"/>
    </clipPath>
  </defs>
  <g id="Group_1208176" data-name="Group 1208176" transform="translate(-610.151 -2467.014)">
    <g id="Group_1207939" data-name="Group 1207939">
      <g id="Group_1207719" data-name="Group 1207719" transform="translate(419.15 381.462)">
        <g id="Group_1207712" data-name="Group 1207712">
          <g id="Group_1207285" data-name="Group 1207285" transform="translate(0 344.552)">
            <g id="Group_1206883" data-name="Group 1206883" transform="translate(0 -209)">
              <g id="Group_1204569" data-name="Group 1204569" transform="translate(-81 -1890.336)">
                <g id="Group_1203962" data-name="Group 1203962" transform="translate(281 3846.336)">
                  <g id="Group_1203498" data-name="Group 1203498" transform="translate(0)">
                    <g id="Group_1202589" data-name="Group 1202589">
                      <g id="Group_1172010" data-name="Group 1172010">
                        <g id="Group_1171046" data-name="Group 1171046">
                          <g id="Group_1148525" data-name="Group 1148525">
                            <g transform="matrix(1, 0, 0, 1, -9, -6)" filter="url(#Path_982547)">
                              <g id="Path_982547-2" data-name="Path 982547" transform="translate(9 6)" fill="#fdfbec">
                                <path d="M 39.99999237060547 78.49998474121094 C 34.8018684387207 78.49998474121094 29.76002502441406 77.48226165771484 25.0145263671875 75.47508239746094 C 20.43014717102051 73.53604888916016 16.31264877319336 70.75984954833984 12.77639198303223 67.22359466552734 C 9.240137100219727 63.68733596801758 6.463936805725098 59.5698356628418 4.524903297424316 54.98546981811523 C 2.517725706100464 50.23995971679688 1.500003457069397 45.19811630249023 1.500003457069397 39.99999237060547 C 1.500003457069397 34.8018684387207 2.517725706100464 29.76002502441406 4.524903297424316 25.0145263671875 C 6.463936805725098 20.43014717102051 9.240137100219727 16.31264877319336 12.77639198303223 12.77639198303223 C 16.31264877319336 9.240137100219727 20.43014717102051 6.463936805725098 25.0145263671875 4.524903297424316 C 29.76002502441406 2.517725706100464 34.8018684387207 1.500003457069397 39.99999237060547 1.500003457069397 C 45.19811630249023 1.500003457069397 50.23995971679688 2.517725706100464 54.98546981811523 4.524903297424316 C 59.5698356628418 6.463936805725098 63.68733596801758 9.240137100219727 67.22359466552734 12.77639198303223 C 70.75984954833984 16.31264877319336 73.53604888916016 20.43014717102051 75.47508239746094 25.0145263671875 C 77.48226165771484 29.76002502441406 78.49998474121094 34.8018684387207 78.49998474121094 39.99999237060547 C 78.49998474121094 45.19812393188477 77.48226165771484 50.23995971679688 75.47508239746094 54.98546981811523 C 73.53604888916016 59.5698356628418 70.75984954833984 63.68733596801758 67.22359466552734 67.22359466552734 C 63.68733596801758 70.75984954833984 59.5698356628418 73.53604888916016 54.98546981811523 75.47508239746094 C 50.23995971679688 77.48226165771484 45.19812393188477 78.49998474121094 39.99999237060547 78.49998474121094 Z" stroke="none"/>
                                <path d="M 39.99999237060547 2.999992370605469 C 35.00370025634766 2.999992370605469 30.1584587097168 3.97784423828125 25.59884643554688 5.906402587890625 C 21.19327163696289 7.769805908203125 17.23603057861328 10.43805694580078 13.83704376220703 13.83704376220703 C 10.43805694580078 17.23603057861328 7.769805908203125 21.19327163696289 5.906402587890625 25.59884643554688 C 3.97784423828125 30.1584587097168 2.999992370605469 35.00370025634766 2.999992370605469 39.99999237060547 C 2.999992370605469 44.99628448486328 3.97784423828125 49.84152603149414 5.906402587890625 54.40113830566406 C 7.769805908203125 58.80671310424805 10.43805694580078 62.76395416259766 13.83704376220703 66.16294097900391 C 17.23603057861328 69.56191253662109 21.19327163696289 72.23016357421875 25.59884643554688 74.09356689453125 C 30.1584587097168 76.02212524414062 35.00370025634766 76.99997711181641 39.99999237060547 76.99997711181641 C 44.99628448486328 76.99997711181641 49.84152603149414 76.02212524414062 54.40113830566406 74.09356689453125 C 58.80671310424805 72.23016357421875 62.76395416259766 69.56191253662109 66.16294097900391 66.16294097900391 C 69.56191253662109 62.76395416259766 72.23016357421875 58.80671310424805 74.09356689453125 54.40113830566406 C 76.02212524414062 49.84152603149414 76.99997711181641 44.99628448486328 76.99997711181641 39.99999237060547 C 76.99997711181641 35.00370025634766 76.02212524414062 30.1584587097168 74.09356689453125 25.59884643554688 C 72.23016357421875 21.19327163696289 69.56191253662109 17.23603057861328 66.16294097900391 13.83704376220703 C 62.76395416259766 10.43805694580078 58.80671310424805 7.769805908203125 54.40113830566406 5.906402587890625 C 49.84152603149414 3.97784423828125 44.99628448486328 2.999992370605469 39.99999237060547 2.999992370605469 M 39.99999237060547 -7.62939453125e-06 C 62.09137725830078 -7.62939453125e-06 79.99997711181641 17.90860748291016 79.99997711181641 39.99999237060547 C 79.99997711181641 62.09137725830078 62.09137725830078 79.99997711181641 39.99999237060547 79.99997711181641 C 17.90860748291016 79.99997711181641 -7.62939453125e-06 62.09137725830078 -7.62939453125e-06 39.99999237060547 C -7.62939453125e-06 17.90860748291016 17.90860748291016 -7.62939453125e-06 39.99999237060547 -7.62939453125e-06 Z" stroke="none" fill="#83793c"/>
                              </g>
                            </g>
                          </g>
                        </g>
                      </g>
                    </g>
                  </g>
                </g>
              </g>
            </g>
          </g>
          <g id="g8115" transform="translate(215.793 2790.01)">
            <g id="g8117" transform="translate(0 -682.665)">
              <g id="g8119" clip-path="url(#clip-path)">
                <g id="g8125" transform="translate(-33.259 0.709)">
                  <path id="path8127" d="M-338.457-377.826h-25.835v-25.108c5.31-7.679,37.755-5.416,25.835,25.108" transform="translate(364.292 406.667)" fill="#fbdf63"/>
                </g>
                <g id="g8129" transform="translate(-33.259 0.709)">
                  <path id="path8131" d="M-338.457-377.826h-.619c6.164-24.728-15.887-30.6-25.216-24.374v-.734c5.31-7.679,37.755-5.416,25.835,25.108" transform="translate(364.292 406.667)" fill="#f9d11f"/>
                </g>
              </g>
            </g>
            <g id="g8265" transform="translate(0 -682.665)">
              <g id="g8267" clip-path="url(#clip-path)">
                <g id="g8273" transform="translate(-33.259 51.036)">
                  <path id="path8275" d="M-338.457-377.654h-25.835v-25.1c5.31-7.676,37.755-5.413,25.835,25.1" transform="translate(364.292 406.481)" fill="#003343"/>
                </g>
                <g id="g8277" transform="translate(-33.259 51.036)">
                  <path id="path8279" d="M-338.457-377.654h-.619c6.164-24.717-15.887-30.585-25.216-24.362v-.734c5.31-7.676,37.755-5.413,25.835,25.1" transform="translate(364.292 406.481)" fill="#002439"/>
                </g>
              </g>
            </g>
            <g id="g8281" transform="translate(0 -682.665)">
              <g id="g8283" clip-path="url(#clip-path)">
                <g id="g8289" transform="translate(17.066 51.014)">
                  <path id="path8291" d="M-338.457-377.826h-25.835v-25.108c5.31-7.679,37.755-5.416,25.835,25.108" transform="translate(364.292 406.667)" fill="#ff7e50"/>
                </g>
                <g id="g8293" transform="translate(17.066 51.014)">
                  <path id="path8295" d="M-338.457-377.826h-.619c6.164-24.728-15.887-30.6-25.216-24.374v-.734c5.31-7.679,37.755-5.416,25.835,25.108" transform="translate(364.292 406.667)" fill="#ff6247"/>
                </g>
                <g id="g8297" transform="translate(2.941 54.225)">
                  <path id="path8299" d="M-233.028-131.751v15.573h-14.6c-12.2-25.649,14.6-34.273,14.6-15.573" transform="translate(250.816 141.808)" fill="#ffa68a"/>
                </g>
                <g id="g8301" transform="translate(2.941 54.225)">
                  <path id="path8303" d="M-233.028-131.751c-.9-16.1-20.23-9.82-14.176,15.573h-.427c-12.2-25.649,14.6-34.273,14.6-15.573" transform="translate(250.816 141.808)" fill="#ff7e50"/>
                </g>
              </g>
            </g>
          </g>
        </g>
      </g>
      <g id="taraweh_15320737" transform="translate(605.258 2457.232)">
        <g id="Group_1207938" data-name="Group 1207938" transform="translate(28.256 30.407)">
          <path id="Path_1051779" data-name="Path 1051779" d="M59.412,259.835H34.43l3.8-13.895,17.393-.071Z" transform="translate(-34.43 -222.027)" fill="#99cc67" fill-rule="evenodd"/>
          <path id="Path_1051780" data-name="Path 1051780" d="M86.331,274.868H69.29l2.594-9.479,11.866-.049Z" transform="translate(-65.318 -239.279)" fill="#acd482" fill-rule="evenodd"/>
          <path id="Path_1051781" data-name="Path 1051781" d="M111.346,204.68a2.11,2.11,0,0,1,2.106,2.106v7.26a2.106,2.106,0,1,1-4.211,0v-7.26A2.112,2.112,0,0,1,111.346,204.68Z" transform="translate(-100.716 -185.53)" fill="#f15b5c" fill-rule="evenodd"/>
          <path id="Path_1051782" data-name="Path 1051782" d="M126.181,206.47a2.107,2.107,0,0,1,1.208,1.9v7.26a2.108,2.108,0,0,1-1.208,1.9,2.11,2.11,0,0,1-1.211-1.9v-7.26A2.107,2.107,0,0,1,126.181,206.47Z" transform="translate(-114.654 -187.116)" fill="#ed2024" fill-rule="evenodd"/>
          <path id="Path_1051783" data-name="Path 1051783" d="M149.049,204.68a2.112,2.112,0,0,1,2.106,2.106v7.26a2.107,2.107,0,0,1-4.215,0v-7.26A2.113,2.113,0,0,1,149.049,204.68Z" transform="translate(-134.121 -185.53)" fill="#f15b5c" fill-rule="evenodd"/>
          <path id="Path_1051784" data-name="Path 1051784" d="M163.768,206.41a2.12,2.12,0,0,1,1.218,1.908v7.26a2.108,2.108,0,0,1-1.218,1.905,2.105,2.105,0,0,1-1.218-1.905v-7.26A2.114,2.114,0,0,1,163.768,206.41Z" transform="translate(-147.952 -187.063)" fill="#ed2024" fill-rule="evenodd"/>
          <path id="Path_1051785" data-name="Path 1051785" d="M92.867,104.507c2.449.093,6.512,2.387,6.389,4.88l.088,3.824a1.374,1.374,0,0,1-1.347,1.4h-.153v4.616l-9.951-.132v-4.482h-.424a1.38,1.38,0,0,1-1.35-1.4l.09-3.824C85.774,106.713,90.364,104.41,92.867,104.507Z" transform="translate(-80.229 -96.768)" fill="#f15b5c" fill-rule="evenodd"/>
          <path id="Path_1051786" data-name="Path 1051786" d="M108.021,107.65c2.762.752,5.785,2.577,5.665,4.524l.107,3.824a1.542,1.542,0,0,1-1.657,1.4h-.188v4.563l-7.348-.081V117.4h-.517a1.542,1.542,0,0,1-1.657-1.4l.107-3.824c-.4-2,2.641-3.785,5.487-4.524Z" transform="translate(-94.679 -99.556)" fill="#ed2024" fill-rule="evenodd"/>
          <path id="Path_1051787" data-name="Path 1051787" d="M119.769,48.628a3.235,3.235,0,0,0-3.169,3.216v.685a3.123,3.123,0,0,0,3.169,3.126,3.233,3.233,0,0,0,3.172-3.213v-.685A3.131,3.131,0,0,0,119.769,48.628Z" transform="translate(-107.238 -47.258)" fill="#f3c7ad" fill-rule="evenodd"/>
          <path id="Path_1051788" data-name="Path 1051788" d="M119.769,37.458a3.235,3.235,0,0,0-3.169,3.216v.51h6.34v-.6a3.131,3.131,0,0,0-3.171-3.13Z" transform="translate(-107.238 -37.361)" fill="#b92025" fill-rule="evenodd"/>
          <path id="Path_1051789" data-name="Path 1051789" d="M289.674,259.561H264.63l3.811-13.93,17.44-.071Z" transform="translate(-238.401 -221.752)" fill="#99cc67" fill-rule="evenodd"/>
          <path id="Path_1051790" data-name="Path 1051790" d="M316.636,274.64H299.55l2.6-9.506,11.9-.044Z" transform="translate(-269.343 -239.057)" fill="#acd482" fill-rule="evenodd"/>
          <path id="Path_1051791" data-name="Path 1051791" d="M341.722,204.26a2.117,2.117,0,0,1,2.112,2.112v7.276a2.112,2.112,0,1,1-4.225,0v-7.276A2.117,2.117,0,0,1,341.722,204.26Z" transform="translate(-304.838 -185.158)" fill="#fede59" fill-rule="evenodd"/>
          <path id="Path_1051792" data-name="Path 1051792" d="M356.611,206.01a2.121,2.121,0,0,1,1.215,1.912V215.2a1.34,1.34,0,1,1-2.426,0v-7.276A2.124,2.124,0,0,1,356.611,206.01Z" transform="translate(-318.829 -186.709)" fill="#ffcd05" fill-rule="evenodd"/>
          <path id="Path_1051793" data-name="Path 1051793" d="M379.532,204.26a2.117,2.117,0,0,1,2.112,2.112v7.276a2.112,2.112,0,1,1-4.225,0v-7.276A2.117,2.117,0,0,1,379.532,204.26Z" transform="translate(-338.34 -185.158)" fill="#fede59" fill-rule="evenodd"/>
          <path id="Path_1051794" data-name="Path 1051794" d="M394.29,205.98a2.125,2.125,0,0,1,1.22,1.915v7.276a1.345,1.345,0,1,1-2.441,0V207.9A2.12,2.12,0,0,1,394.29,205.98Z" transform="translate(-352.207 -186.682)" fill="#ffcd05" fill-rule="evenodd"/>
          <path id="Path_1051795" data-name="Path 1051795" d="M323.2,103.827c2.454.093,6.528,2.39,6.4,4.892l.088,3.831a1.382,1.382,0,0,1-1.354,1.408h-.153v4.628l-9.976-.136v-4.493h-.424a1.384,1.384,0,0,1-1.354-1.408l.09-3.831c-.434-2.683,4.166-4.989,6.678-4.893Z" transform="translate(-284.298 -96.166)" fill="#fede59" fill-rule="evenodd"/>
          <path id="Path_1051796" data-name="Path 1051796" d="M338.377,106.97c2.771.752,5.8,2.584,5.681,4.538l.107,3.831a1.546,1.546,0,0,1-1.66,1.408h-.188v4.573l-7.367-.081v-4.493h-.523a1.548,1.548,0,0,1-1.66-1.408l.109-3.831C332.477,109.505,335.526,107.713,338.377,106.97Z" transform="translate(-298.775 -98.953)" fill="#ffcd05" fill-rule="evenodd"/>
          <path id="Path_1051797" data-name="Path 1051797" d="M350.161,47.807a3.241,3.241,0,0,0-3.181,3.223v.685a3.135,3.135,0,0,0,3.181,3.136,3.24,3.24,0,0,0,3.178-3.223v-.685A3.134,3.134,0,0,0,350.161,47.807Z" transform="translate(-311.369 -46.531)" fill="#f3c7ad" fill-rule="evenodd"/>
          <path id="Path_1051798" data-name="Path 1051798" d="M350.161,36.607a3.241,3.241,0,0,0-3.181,3.223v.51h6.359v-.6A3.135,3.135,0,0,0,350.161,36.607Z" transform="translate(-311.369 -36.607)" fill="#fdb614" fill-rule="evenodd"/>
          <path id="Path_1051799" data-name="Path 1051799" d="M168.476,363.316H141.63l4.089-14.932,18.69-.074Z" transform="translate(-129.416 -312.795)" fill="#99cc67" fill-rule="evenodd"/>
          <path id="Path_1051800" data-name="Path 1051800" d="M197.392,379.469H179.08l2.787-10.187,12.752-.051Z" transform="translate(-162.599 -331.332)" fill="#acd482" fill-rule="evenodd"/>
          <path id="Path_1051801" data-name="Path 1051801" d="M224.291,304.03a2.271,2.271,0,0,1,2.264,2.264v7.8a2.262,2.262,0,1,1-4.524,0v-7.8A2.27,2.27,0,0,1,224.291,304.03Z" transform="translate(-200.655 -273.56)" fill="#7dd2f0" fill-rule="evenodd"/>
          <path id="Path_1051802" data-name="Path 1051802" d="M240.221,305.96a2.264,2.264,0,0,1,1.3,2.044v7.8a1.436,1.436,0,1,1-2.6,0V308A2.271,2.271,0,0,1,240.221,305.96Z" transform="translate(-215.621 -275.27)" fill="#60ccf0" fill-rule="evenodd"/>
          <path id="Path_1051803" data-name="Path 1051803" d="M264.794,304.03a2.273,2.273,0,0,1,2.264,2.264v7.8a2.264,2.264,0,1,1-4.528,0v-7.8A2.273,2.273,0,0,1,264.794,304.03Z" transform="translate(-236.541 -273.56)" fill="#7dd2f0" fill-rule="evenodd"/>
          <path id="Path_1051804" data-name="Path 1051804" d="M280.591,305.91a2.273,2.273,0,0,1,1.308,2.051v7.8a1.444,1.444,0,1,1-2.619,0v-7.8A2.274,2.274,0,0,1,280.591,305.91Z" transform="translate(-251.382 -275.226)" fill="#60ccf0" fill-rule="evenodd"/>
          <path id="Path_1051805" data-name="Path 1051805" d="M204.448,196.406c2.632.1,7,2.565,6.864,5.245l.1,4.109a1.479,1.479,0,0,1-1.45,1.505h-.164v4.961l-10.694-.142v-4.818h-.451a1.479,1.479,0,0,1-1.45-1.505l.093-4.109C196.825,198.777,201.758,196.3,204.448,196.406Z" transform="translate(-178.652 -178.196)" fill="#7dd2f0" fill-rule="evenodd"/>
          <path id="Path_1051806" data-name="Path 1051806" d="M220.673,199.8c2.968.8,6.214,2.764,6.088,4.861l.116,4.109a1.66,1.66,0,0,1-1.783,1.505h-.2v4.906l-7.9-.088v-4.818h-.556a1.66,1.66,0,0,1-1.783-1.505l.116-4.109C214.35,202.516,217.615,200.592,220.673,199.8Z" transform="translate(-194.122 -181.206)" fill="#60ccf0" fill-rule="evenodd"/>
          <path id="Path_1051807" data-name="Path 1051807" d="M233.32,136.367a3.475,3.475,0,0,0-3.41,3.456v.733a3.362,3.362,0,0,0,3.41,3.362,3.475,3.475,0,0,0,3.408-3.452v-.736a3.361,3.361,0,0,0-3.408-3.362Z" transform="translate(-207.637 -125.001)" fill="#f3c7ad" fill-rule="evenodd"/>
          <path id="Path_1051808" data-name="Path 1051808" d="M233.32,124.368a3.473,3.473,0,0,0-3.41,3.452v.549h6.818v-.643A3.362,3.362,0,0,0,233.32,124.368Z" transform="translate(-207.637 -114.368)" fill="#7dd2f0" fill-rule="evenodd"/>
        </g>
        <path id="Path_1051809" data-name="Path 1051809" d="M57.162,53.791a.795.795,0,0,1,1.589-.032l.062,2.6a.791.791,0,0,1-.778.808H56.746a2.3,2.3,0,0,1,0,1.37c.93,0,1.87.013,2.8,0a.693.693,0,0,0,.669-.639l-.093-3.986a.4.4,0,0,1,0-.09,3.046,3.046,0,0,0-1.179-2.2,9.2,9.2,0,0,0-3.294-1.886,4.242,4.242,0,0,1-1.76.387h0a4.163,4.163,0,0,1-1.8-.41,8.814,8.814,0,0,0-3.4,1.873,2.557,2.557,0,0,0-1,2.151c.032.213-.084,3.591-.084,4.17a.693.693,0,0,0,.669.633c2.081.046,4.221,0,6.311,0v0a.681.681,0,0,0,0-1.363v0h-4.8A.791.791,0,0,1,49,56.365l.058-2.6a.794.794,0,1,1,1.588.032L50.6,55.582l3.973,0v0a2.241,2.241,0,0,1,.514.058.807.807,0,0,1,.294-.055l1.822,0ZM61.8,57.87a2.281,2.281,0,0,1-1.609,2.3v4.264a.793.793,0,0,1-.423.7l3.472-.013a.8.8,0,0,1,.771.591v0l.461,1.7H78.483L75.124,55.012l-2.771.009V58.9a2.911,2.911,0,0,1-5.065,1.951A2.907,2.907,0,0,1,62.227,58.9V55.064h-.494Zm-3.2,2.258H55.382a.807.807,0,0,1-.294-.055,2.241,2.241,0,0,1-.514.058v0c-1.664,0-3.391.042-5.074.023V63.51l9.1.123ZM53.935,41.2a2.679,2.679,0,0,0-2.6,2.412h5.209A2.574,2.574,0,0,0,53.986,41.2h-.007v0Zm0-1.593v0l.046,0a4.154,4.154,0,0,1,4.156,4.1v.055h0v.643c0,.171-.039.165-.026.278.039.368.026.81.026,1.185a4.223,4.223,0,0,1-1,2.729,8.388,8.388,0,0,1,4.231,3.633V48.956A2.175,2.175,0,0,1,59.593,46.7l.088-3.685a3.839,3.839,0,0,1,1.408-3.288,9.433,9.433,0,0,1,2.787-1.75,3.9,3.9,0,0,1-.8-2.384h0v-.685l.035-.526a.815.815,0,0,1-.035-.239v-.51a4.048,4.048,0,0,1,3.975-4.021h.046a3.928,3.928,0,0,1,3.927,3.878l0,.055h0v.6L71,34.392A10.615,10.615,0,0,1,71.02,35.5a4,4,0,0,1-.9,2.529,9.8,9.8,0,0,1,2.648,1.711,4.287,4.287,0,0,1,1.586,3.232l.088,3.721a2.174,2.174,0,0,1-1.5,2.19v3.94a.8.8,0,0,1-.278.6l3.068-.013a.79.79,0,0,1,.771.588h0l3.792,14a.8.8,0,0,1-.769,1v0H64.908L68.08,80.72a.8.8,0,0,1-.769,1H40.47a.8.8,0,0,1-.75-1.079l3.188-11.633H28.256a.8.8,0,0,1-.746-1.079l3.782-13.823a.8.8,0,0,1,.769-.584l3.685-.016a.793.793,0,0,1-.623-.775h0V49.013a2.176,2.176,0,0,1-1.767-2.257l.088-3.676a3.831,3.831,0,0,1,1.4-3.281,9.348,9.348,0,0,1,2.778-1.741,3.912,3.912,0,0,1-.8-2.377h0V35l.035-.526a.792.792,0,0,1-.035-.236v-.512a4.043,4.043,0,0,1,3.97-4.014v0a.176.176,0,0,1,.042,0,3.923,3.923,0,0,1,3.921,3.873l0,.055h0v.6l-.023.252a10.536,10.536,0,0,1,.023,1.107,3.971,3.971,0,0,1-.9,2.519A9.8,9.8,0,0,1,46.49,39.82a4.28,4.28,0,0,1,1.586,3.227l.084,3.708a2.169,2.169,0,0,1-1.495,2.186v2.6a8.568,8.568,0,0,1,3.963-3,4.14,4.14,0,0,1-.894-2.581h0a10.71,10.71,0,0,1,.032-1.241c.016-.146-.032-.1-.032-.313v-.549a4.281,4.281,0,0,1,4.2-4.25Zm2.61,5.6h-5.22v.755c0,.1,0,.023,0,0a2.561,2.561,0,0,0,2.565,2.565c.1,0,.023,0,0,0a2.673,2.673,0,0,0,2.658-2.658Zm-2.61-4a.22.22,0,0,0,.046,0Zm4.2,2.565c0,.013,0,.009,0,0Zm-4.156-4.158Zm0,0c-.019,0-.065,0,0,0Zm-2.658,6.353Zm-1.589,0c0-.009,0-.007,0,0Zm4.154,2.568Zm0,1.592Zm7.8,3.207c.007.049.01.1.016.146h.31a.778.778,0,0,1-.326-.146ZM57.972,65.212l-2.929-.039v5.769a1.465,1.465,0,1,0,2.929,0Zm-4.615-.062-2.933-.039v5.83a1.466,1.466,0,0,0,2.933,0Zm-4.528-.062h-.136a.8.8,0,0,1-.785-.794h0V60.242A2.275,2.275,0,0,1,46.083,58.6v.326a2.9,2.9,0,0,1-5.051,1.947,2.9,2.9,0,0,1-5.052-1.947V55.1l-3.317.013L29.3,67.418H43.344l.445-1.628a.8.8,0,0,1,.766-.588l4.273-.016v-.1Zm10.739,1.644v4.209A3.061,3.061,0,0,1,54.2,72.948a3.061,3.061,0,0,1-5.371-2.005V66.775l-3.665.016L41.511,80.13H66.273L62.639,66.72ZM70,42.9a.794.794,0,1,1,1.588-.032l.055,2.426a.791.791,0,0,1-.778.81h-1.13a2.167,2.167,0,0,1,0,1.169c.847,0,1.69,0,2.535,0a.587.587,0,0,0,.575-.542l-.088-3.714v-.09a2.781,2.781,0,0,0-1.082-2.012,8.557,8.557,0,0,0-3.036-1.744,3.956,3.956,0,0,1-3.327-.023,8.14,8.14,0,0,0-3.136,1.734,2.33,2.33,0,0,0-.921,1.957c.042.252-.09,3.3-.077,3.892a.587.587,0,0,0,.578.542c1.957-.016,3.921,0,5.881,0v0a.581.581,0,0,0,.41-.991.571.571,0,0,0-.41-.171v0H63.163a.791.791,0,0,1-.778-.81l.055-2.426a.794.794,0,1,1,1.588.032l-.035,1.615h3.649v0a2.147,2.147,0,0,1,.479.055.779.779,0,0,1,.275-.051h1.648Zm1.341,5.966c-.982,0-1.967,0-2.949,0a.753.753,0,0,1-.275-.049,2.139,2.139,0,0,1-.479.051v0c-1.56,0-3.12.007-4.683.007v3.046l8.385.113Zm-4.3-17.657a2.441,2.441,0,0,0-2.364,2.139h4.741A2.342,2.342,0,0,0,67.089,31.2h-.046v0Zm2.384,3.733H64.664v.653c0,.109,0,.03,0,0a2.337,2.337,0,0,0,2.373,2.341A2.448,2.448,0,0,0,69.427,35.5v-.565Zm1.592-1.395Zm-6.359,2.047Zm-1.589,0c0-.013,0-.009,0,0ZM70.759,53.6l-2.629-.035V58.9a1.314,1.314,0,0,0,2.629,0Zm-4.309-.058-2.626-.035V58.9a1.313,1.313,0,0,0,2.625,0V53.546ZM43.735,42.962a.794.794,0,0,1,1.588-.03l.055,2.419a.793.793,0,0,1-.778.81H43.474a2.142,2.142,0,0,1,0,1.162c.843,0,1.686-.007,2.526,0a.586.586,0,0,0,.572-.539l-.084-3.7a.4.4,0,0,1,0-.09,2.78,2.78,0,0,0-1.082-2.005,8.4,8.4,0,0,0-3.023-1.738,3.974,3.974,0,0,1-3.324-.023,8.116,8.116,0,0,0-3.123,1.725,2.32,2.32,0,0,0-.917,1.954c.032.2-.077,3.34-.077,3.878a.587.587,0,0,0,.572.542c1.954-.016,3.915,0,5.869,0v0a.578.578,0,0,0,0-1.155v0H36.916a.793.793,0,0,1-.778-.81l.055-2.419a.794.794,0,0,1,1.588.03l-.039,1.612h3.64v0a2.308,2.308,0,0,1,.475.051.811.811,0,0,1,.278-.049h1.637Zm1.334,5.952c-.979,0-1.957,0-2.936,0a.813.813,0,0,1-.278-.051,2.087,2.087,0,0,1-.475.055v0c-1.556,0-3.111.007-4.667,0v3.033l8.355.113V48.915ZM40.786,31.3a2.433,2.433,0,0,0-2.357,2.132h4.725A2.332,2.332,0,0,0,40.829,31.3Zm2.374,3.727H38.413v.649c0,.107,0,.026,0,0a2.328,2.328,0,0,0,2.332,2.329,2.428,2.428,0,0,0,2.419-2.415Zm1.592-1.4ZM38.41,35.679Zm-1.589,0c0-.016,0-.009,0,0Zm7.668,17.967-2.616-.035v5.313a1.308,1.308,0,0,0,2.616,0Zm-4.3-.058-2.619-.035v5.371a1.31,1.31,0,0,0,2.619,0Z" transform="translate(0)"/>
      </g>
    </g>
  </g>
</svg>
