<svg xmlns="http://www.w3.org/2000/svg" xmlns:xlink="http://www.w3.org/1999/xlink" width="98" height="98" viewBox="0 0 98 98">
  <defs>
    <filter id="Path_982547" x="0" y="0" width="98" height="98" filterUnits="userSpaceOnUse">
      <feOffset dy="3" input="SourceAlpha"/>
      <feGaussianBlur stdDeviation="3" result="blur"/>
      <feFlood flood-opacity="0.161"/>
      <feComposite operator="in" in2="blur"/>
      <feComposite in="SourceGraphic"/>
    </filter>
    <clipPath id="clip-path">
      <path id="path8121" d="M0-682.665H48.414v48.414H0Z" transform="translate(0 682.665)"/>
    </clipPath>
  </defs>
  <g id="Group_1208245" data-name="Group 1208245" transform="translate(-609.726 -8932.605)">
    <g id="Group_1208162" data-name="Group 1208162">
      <g id="Group_1207920" data-name="Group 1207920" transform="translate(418.726 6847.053)">
        <g id="Group_1207712" data-name="Group 1207712">
          <g id="Group_1207285" data-name="Group 1207285" transform="translate(0 344.552)">
            <g id="Group_1206883" data-name="Group 1206883" transform="translate(0 -209)">
              <g id="Group_1204569" data-name="Group 1204569" transform="translate(-81 -1890.336)">
                <g id="Group_1203962" data-name="Group 1203962" transform="translate(281 3846.336)">
                  <g id="Group_1203498" data-name="Group 1203498" transform="translate(0)">
                    <g id="Group_1202589" data-name="Group 1202589">
                      <g id="Group_1172010" data-name="Group 1172010">
                        <g id="Group_1171046" data-name="Group 1171046">
                          <g id="Group_1148525" data-name="Group 1148525">
                            <g transform="matrix(1, 0, 0, 1, -9, -6)" filter="url(#Path_982547)">
                              <g id="Path_982547-2" data-name="Path 982547" transform="translate(9 6)" fill="#fdfbec">
                                <path d="M 39.99999237060547 78.49998474121094 C 34.8018684387207 78.49998474121094 29.76002502441406 77.48226165771484 25.0145263671875 75.47508239746094 C 20.43014717102051 73.53604888916016 16.31264877319336 70.75984954833984 12.77639198303223 67.22359466552734 C 9.240137100219727 63.68733596801758 6.463936805725098 59.5698356628418 4.524903297424316 54.98546981811523 C 2.517725706100464 50.23995971679688 1.500003457069397 45.19811630249023 1.500003457069397 39.99999237060547 C 1.500003457069397 34.8018684387207 2.517725706100464 29.76002502441406 4.524903297424316 25.0145263671875 C 6.463936805725098 20.43014717102051 9.240137100219727 16.31264877319336 12.77639198303223 12.77639198303223 C 16.31264877319336 9.240137100219727 20.43014717102051 6.463936805725098 25.0145263671875 4.524903297424316 C 29.76002502441406 2.517725706100464 34.8018684387207 1.500003457069397 39.99999237060547 1.500003457069397 C 45.19811630249023 1.500003457069397 50.23995971679688 2.517725706100464 54.98546981811523 4.524903297424316 C 59.5698356628418 6.463936805725098 63.68733596801758 9.240137100219727 67.22359466552734 12.77639198303223 C 70.75984954833984 16.31264877319336 73.53604888916016 20.43014717102051 75.47508239746094 25.0145263671875 C 77.48226165771484 29.76002502441406 78.49998474121094 34.8018684387207 78.49998474121094 39.99999237060547 C 78.49998474121094 45.19812393188477 77.48226165771484 50.23995971679688 75.47508239746094 54.98546981811523 C 73.53604888916016 59.5698356628418 70.75984954833984 63.68733596801758 67.22359466552734 67.22359466552734 C 63.68733596801758 70.75984954833984 59.5698356628418 73.53604888916016 54.98546981811523 75.47508239746094 C 50.23995971679688 77.48226165771484 45.19812393188477 78.49998474121094 39.99999237060547 78.49998474121094 Z" stroke="none"/>
                                <path d="M 39.99999237060547 2.999992370605469 C 35.00370025634766 2.999992370605469 30.1584587097168 3.97784423828125 25.59884643554688 5.906402587890625 C 21.19327163696289 7.769805908203125 17.23603057861328 10.43805694580078 13.83704376220703 13.83704376220703 C 10.43805694580078 17.23603057861328 7.769805908203125 21.19327163696289 5.906402587890625 25.59884643554688 C 3.97784423828125 30.1584587097168 2.999992370605469 35.00370025634766 2.999992370605469 39.99999237060547 C 2.999992370605469 44.99628448486328 3.97784423828125 49.84152603149414 5.906402587890625 54.40113830566406 C 7.769805908203125 58.80671310424805 10.43805694580078 62.76395416259766 13.83704376220703 66.16294097900391 C 17.23603057861328 69.56191253662109 21.19327163696289 72.23016357421875 25.59884643554688 74.09356689453125 C 30.1584587097168 76.02212524414062 35.00370025634766 76.99997711181641 39.99999237060547 76.99997711181641 C 44.99628448486328 76.99997711181641 49.84152603149414 76.02212524414062 54.40113830566406 74.09356689453125 C 58.80671310424805 72.23016357421875 62.76395416259766 69.56191253662109 66.16294097900391 66.16294097900391 C 69.56191253662109 62.76395416259766 72.23016357421875 58.80671310424805 74.09356689453125 54.40113830566406 C 76.02212524414062 49.84152603149414 76.99997711181641 44.99628448486328 76.99997711181641 39.99999237060547 C 76.99997711181641 35.00370025634766 76.02212524414062 30.1584587097168 74.09356689453125 25.59884643554688 C 72.23016357421875 21.19327163696289 69.56191253662109 17.23603057861328 66.16294097900391 13.83704376220703 C 62.76395416259766 10.43805694580078 58.80671310424805 7.769805908203125 54.40113830566406 5.906402587890625 C 49.84152603149414 3.97784423828125 44.99628448486328 2.999992370605469 39.99999237060547 2.999992370605469 M 39.99999237060547 -7.62939453125e-06 C 62.09137725830078 -7.62939453125e-06 79.99997711181641 17.90860748291016 79.99997711181641 39.99999237060547 C 79.99997711181641 62.09137725830078 62.09137725830078 79.99997711181641 39.99999237060547 79.99997711181641 C 17.90860748291016 79.99997711181641 -7.62939453125e-06 62.09137725830078 -7.62939453125e-06 39.99999237060547 C -7.62939453125e-06 17.90860748291016 17.90860748291016 -7.62939453125e-06 39.99999237060547 -7.62939453125e-06 Z" stroke="none" fill="#83793c"/>
                              </g>
                            </g>
                          </g>
                        </g>
                      </g>
                    </g>
                  </g>
                </g>
              </g>
            </g>
          </g>
          <g id="g8115" transform="translate(215.793 2790.01)">
            <g id="g8117" transform="translate(0 -682.665)">
              <g id="g8119" clip-path="url(#clip-path)">
                <g id="g8125" transform="translate(-33.259 0.709)">
                  <path id="path8127" d="M-338.457-377.826h-25.835v-25.108c5.31-7.679,37.755-5.416,25.835,25.108" transform="translate(364.292 406.667)" fill="#fbdf63"/>
                </g>
                <g id="g8129" transform="translate(-33.259 0.709)">
                  <path id="path8131" d="M-338.457-377.826h-.619c6.164-24.728-15.887-30.6-25.216-24.374v-.734c5.31-7.679,37.755-5.416,25.835,25.108" transform="translate(364.292 406.667)" fill="#f9d11f"/>
                </g>
              </g>
            </g>
            <g id="g8265" transform="translate(0 -682.665)">
              <g id="g8267" clip-path="url(#clip-path)">
                <g id="g8273" transform="translate(-33.259 51.036)">
                  <path id="path8275" d="M-338.457-377.654h-25.835v-25.1c5.31-7.676,37.755-5.413,25.835,25.1" transform="translate(364.292 406.481)" fill="#003343"/>
                </g>
                <g id="g8277" transform="translate(-33.259 51.036)">
                  <path id="path8279" d="M-338.457-377.654h-.619c6.164-24.717-15.887-30.585-25.216-24.362v-.734c5.31-7.676,37.755-5.413,25.835,25.1" transform="translate(364.292 406.481)" fill="#002439"/>
                </g>
              </g>
            </g>
            <g id="g8281" transform="translate(0 -682.665)">
              <g id="g8283" clip-path="url(#clip-path)">
                <g id="g8289" transform="translate(17.066 51.014)">
                  <path id="path8291" d="M-338.457-377.826h-25.835v-25.108c5.31-7.679,37.755-5.416,25.835,25.108" transform="translate(364.292 406.667)" fill="#ff7e50"/>
                </g>
                <g id="g8293" transform="translate(17.066 51.014)">
                  <path id="path8295" d="M-338.457-377.826h-.619c6.164-24.728-15.887-30.6-25.216-24.374v-.734c5.31-7.679,37.755-5.416,25.835,25.108" transform="translate(364.292 406.667)" fill="#ff6247"/>
                </g>
                <g id="g8297" transform="translate(2.941 54.225)">
                  <path id="path8299" d="M-233.028-131.751v15.573h-14.6c-12.2-25.649,14.6-34.273,14.6-15.573" transform="translate(250.816 141.808)" fill="#ffa68a"/>
                </g>
                <g id="g8301" transform="translate(2.941 54.225)">
                  <path id="path8303" d="M-233.028-131.751c-.9-16.1-20.23-9.82-14.176,15.573h-.427c-12.2-25.649,14.6-34.273,14.6-15.573" transform="translate(250.816 141.808)" fill="#ff7e50"/>
                </g>
              </g>
            </g>
          </g>
        </g>
      </g>
      <g id="carol-singer_13370802" transform="translate(591.528 8943.549)">
        <g id="Group_1208149" data-name="Group 1208149" transform="translate(43.648 7.499)">
          <g id="Group_1208148" data-name="Group 1208148" transform="translate(0 0)">
            <g id="Group_1208147" data-name="Group 1208147">
              <g id="Group_1208146" data-name="Group 1208146" transform="translate(7.541)">
                <path id="Path_1052408" data-name="Path 1052408" d="M362.916,149a4.194,4.194,0,0,0-.641.049,5.91,5.91,0,0,1-1.189,5.022l-.07.086.086.07a2.939,2.939,0,0,1,1,3.01,4.159,4.159,0,1,0,.811-8.238Z" transform="translate(-333.362 -133.308)" fill="#f3eae6"/>
                <path id="Path_1052409" data-name="Path 1052409" d="M371.711,149.83a4.158,4.158,0,0,1-1.782,6.381,2.939,2.939,0,0,1,.1,1.765,4.159,4.159,0,0,0,1.682-8.146Z" transform="translate(-341.286 -134.046)" fill="#efe2dd"/>
                <g id="Group_1208140" data-name="Group 1208140" transform="translate(2.883)">
                  <path id="Path_1052410" data-name="Path 1052410" d="M141.368,18.407l.074-.02.008-.076a5.933,5.933,0,0,1,8.9-4.511l.056.033.056-.033a5.931,5.931,0,0,1,8.921,4.9l0,.081.079.022a5.933,5.933,0,0,1,3.617,2.854,12.892,12.892,0,0,0,.077-1.4,12.753,12.753,0,0,0-25.506,0c0,.361.016.718.045,1.07A5.932,5.932,0,0,1,141.368,18.407Z" transform="translate(-137.648 -7.499)" fill="#fb2b3a"/>
                </g>
                <g id="Group_1208141" data-name="Group 1208141" transform="translate(12.884 0)">
                  <path id="Path_1052411" data-name="Path 1052411" d="M230.577,7.5a12.8,12.8,0,0,0-2.753.3,12.768,12.768,0,0,1,8.011,5.612,5.908,5.908,0,0,1,3.719,5.288l0,.081.079.022a5.933,5.933,0,0,1,3.617,2.855,12.9,12.9,0,0,0,.077-1.4A12.753,12.753,0,0,0,230.577,7.5Z" transform="translate(-227.824 -7.5)" fill="#e41f2d"/>
                </g>
                <g id="Group_1208143" data-name="Group 1208143" transform="translate(2.107 5.379)">
                  <path id="Path_1052412" data-name="Path 1052412" d="M133.919,114.11h.943v-1.968a3.782,3.782,0,0,1,1.572-3.062l.094-.067-.071-.091a5.872,5.872,0,0,1-1.261-3.655,5.965,5.965,0,0,1,.037-.653,6.042,6.042,0,0,0-2.949,10A2.921,2.921,0,0,1,133.919,114.11Z" transform="translate(-130.648 -99.222)" fill="#7a6d79"/>
                  <g id="Group_1208142" data-name="Group 1208142" transform="translate(4.436)">
                    <path id="Path_1052413" data-name="Path 1052413" d="M174.2,65.149h3.536l-.095-.166a5.928,5.928,0,0,1,2.215-8.091A6.043,6.043,0,0,0,172,65.856,3.749,3.749,0,0,1,174.2,65.149Z" transform="translate(-170.648 -56)" fill="#685e68"/>
                    <path id="Path_1052414" data-name="Path 1052414" d="M234.187,65.149a3.775,3.775,0,0,1,3.771,3.771v1.968h.943a2.925,2.925,0,0,1,1.845.654,6.042,6.042,0,0,0-3.016-9.725,6.043,6.043,0,1,0-11.224,3.332Z" transform="translate(-219.549 -56)" fill="#554e56"/>
                  </g>
                </g>
                <path id="Path_1052415" data-name="Path 1052415" d="M137.53,342.042a3.208,3.208,0,0,1-.82.106H117.858a3.207,3.207,0,0,1-.82-.106,13.288,13.288,0,0,0-5.391,10.7v6.21a1.109,1.109,0,0,0,1.109,1.109h29.055a1.109,1.109,0,0,0,1.109-1.109v-6.21A13.288,13.288,0,0,0,137.53,342.042Z" transform="translate(-111.648 -304.942)" fill="#0ed2b3"/>
                <path id="Path_1052416" data-name="Path 1052416" d="M164.334,269h-1.361a9.308,9.308,0,0,1-16.252,0H145.36a2.712,2.712,0,0,0-2.712,2.711v2.894a2.712,2.712,0,0,0,2.712,2.712h18.974a2.712,2.712,0,0,0,2.712-2.712v-2.894A2.712,2.712,0,0,0,164.334,269Z" transform="translate(-139.21 -240)" fill="#f3eae6"/>
                <path id="Path_1052417" data-name="Path 1052417" d="M164.334,269h-1.242v3.388a2.218,2.218,0,0,1-2.218,2.218H142.648a2.712,2.712,0,0,0,2.712,2.712h18.974a2.712,2.712,0,0,0,2.712-2.712v-2.894A2.712,2.712,0,0,0,164.334,269Z" transform="translate(-139.21 -240)" fill="#efe2dd"/>
                <path id="Path_1052418" data-name="Path 1052418" d="M179.5,347.26v-3.881a2.109,2.109,0,0,1,2.107-2.107h1.663c.021,0,.042,0,.063,0v-7.147a.554.554,0,0,0-.832-.48l-8.769,5.063a.555.555,0,0,1-.554,0l-8.769-5.063a.555.555,0,0,0-.832.48v7.147c.021,0,.042,0,.063,0H165.3a2.109,2.109,0,0,1,2.107,2.107v3.881a2.1,2.1,0,0,1-.63,1.5l6.4,3.693a.554.554,0,0,0,.554,0l6.4-3.693A2.1,2.1,0,0,1,179.5,347.26Z" transform="translate(-157.817 -297.412)" fill="#ffd15b"/>
                <path id="Path_1052419" data-name="Path 1052419" d="M205.185,445.651v-1.415l-5.767,3.329a.555.555,0,0,1-.554,0l-5.767-3.329v1.415a2.1,2.1,0,0,1-.63,1.5l6.4,3.693a.555.555,0,0,0,.554,0l6.4-3.693A2.1,2.1,0,0,1,205.185,445.651Z" transform="translate(-183.504 -395.803)" fill="#ffc344"/>
                <path id="Path_1052420" data-name="Path 1052420" d="M164.408,333.647a.554.554,0,0,0-.832.48v7.147c.021,0,.042,0,.063,0H165.3a2.109,2.109,0,0,1,2.107,2.107v3.881a2.1,2.1,0,0,1-.63,1.5l6.4,3.693a.554.554,0,0,0,.277.074V338.784a.553.553,0,0,1-.277-.074Z" transform="translate(-157.817 -297.411)" fill="#ffe177"/>
                <path id="Path_1052421" data-name="Path 1052421" d="M193.1,444.236v1.415a2.1,2.1,0,0,1-.63,1.5l6.4,3.693a.554.554,0,0,0,.277.074V447.64a.553.553,0,0,1-.277-.074Z" transform="translate(-183.504 -395.803)" fill="#ffd15b"/>
                <g id="Group_1208144" data-name="Group 1208144" transform="translate(3.604 43.749)">
                  <path id="Path_1052422" data-name="Path 1052422" d="M148.029,410.317h-1.663a2.224,2.224,0,0,1-2.218-2.218v-3.881A2.224,2.224,0,0,1,146.366,402h1.663a2.225,2.225,0,0,1,2.218,2.218V408.1A2.224,2.224,0,0,1,148.029,410.317Z" transform="translate(-144.148 -402)" fill="#d78878"/>
                  <path id="Path_1052423" data-name="Path 1052423" d="M310.029,410.317h-1.663a2.224,2.224,0,0,1-2.218-2.218v-3.881A2.225,2.225,0,0,1,308.366,402h1.663a2.224,2.224,0,0,1,2.218,2.218V408.1A2.224,2.224,0,0,1,310.029,410.317Z" transform="translate(-288.183 -402)" fill="#d78878"/>
                </g>
                <g id="Group_1208145" data-name="Group 1208145" transform="translate(2.329 20.156)">
                  <path id="Path_1052424" data-name="Path 1052424" d="M336.175,189.25h-.943v4.3a9.318,9.318,0,0,1-.177,1.8h1.119a3.05,3.05,0,0,0,3.05-3.05h0A3.05,3.05,0,0,0,336.175,189.25Z" transform="translate(-312.609 -189.25)" fill="#bb5d4c"/>
                  <path id="Path_1052425" data-name="Path 1052425" d="M136.64,193.547v-4.3H135.7a3.05,3.05,0,0,0-3.05,3.05h0a3.05,3.05,0,0,0,3.05,3.05h1.119A9.316,9.316,0,0,1,136.64,193.547Z" transform="translate(-132.648 -189.25)" fill="#c96e59"/>
                </g>
                <path id="Path_1052426" data-name="Path 1052426" d="M177.074,156.963h0a9.426,9.426,0,0,1-9.426-9.426v-6.155a3.881,3.881,0,0,1,3.881-3.881h11.09a3.881,3.881,0,0,1,3.881,3.881v6.155A9.426,9.426,0,0,1,177.074,156.963Z" transform="translate(-161.438 -123.083)" fill="#d78878"/>
                <path id="Path_1052427" data-name="Path 1052427" d="M234.646,172.94l-.669,1.894a1.409,1.409,0,0,0,1.329,1.879h1.338a1.409,1.409,0,0,0,1.329-1.879l-.669-1.894a1.409,1.409,0,0,0-1.329-.94h0A1.409,1.409,0,0,0,234.646,172.94Z" transform="translate(-220.338 -153.757)" fill="#bb5d4c"/>
                <circle id="Ellipse_13474" data-name="Ellipse 13474" cx="2.495" cy="2.495" r="2.495" transform="translate(13.141 25.839)" fill="#ffa78f"/>
                <path id="Path_1052428" data-name="Path 1052428" d="M234.38,241.721a2.5,2.5,0,0,1-3.191,3.112,2.5,2.5,0,1,0,3.191-3.112Z" transform="translate(-217.932 -215.746)" fill="#f89580"/>
              </g>
              <circle id="Ellipse_13475" data-name="Ellipse 13475" cx="2.438" cy="2.438" r="2.438" transform="translate(39.74 6.991)" fill="#9857bd"/>
              <path id="Path_1052429" data-name="Path 1052429" d="M406,71.366a2.438,2.438,0,0,1-2.987,3.079A2.438,2.438,0,1,0,406,71.366Z" transform="translate(-363.158 -64.283)" fill="#814aa0"/>
              <path id="Path_1052430" data-name="Path 1052430" d="M302.787,64.744a6.046,6.046,0,0,0-3.967-5.452,6.012,6.012,0,0,1,1.129,3.516v5.335a3.776,3.776,0,0,1,3.066,3.7v1.968h.943a2.925,2.925,0,0,1,1.845.654,6.042,6.042,0,0,0-3.016-9.725Z" transform="translate(-270.522 -53.548)" fill="#433f43"/>
              <circle id="Ellipse_13476" data-name="Ellipse 13476" cx="2.438" cy="2.438" r="2.438" transform="translate(0 33.329)" fill="#fe646f"/>
              <path id="Path_1052431" data-name="Path 1052431" d="M47.55,309.015a2.439,2.439,0,0,1-3.065,3,2.438,2.438,0,1,0,3.065-3Z" transform="translate(-44.392 -275.578)" fill="#fd4755"/>
              <path id="Path_1052432" data-name="Path 1052432" d="M310.029,402h-.177v4.88a1.112,1.112,0,0,1-1.109,1.109h-2.6v.111a2.224,2.224,0,0,0,2.218,2.218h1.663a2.224,2.224,0,0,0,2.218-2.218v-3.881A2.224,2.224,0,0,0,310.029,402Z" transform="translate(-277.037 -358.251)" fill="#c96e59"/>
              <path id="Path_1052433" data-name="Path 1052433" d="M148.029,402h-.177v4.88a1.112,1.112,0,0,1-1.109,1.109h-2.6v.111a2.224,2.224,0,0,0,2.218,2.218h1.663a2.224,2.224,0,0,0,2.218-2.218v-3.881A2.225,2.225,0,0,0,148.029,402Z" transform="translate(-133.003 -358.251)" fill="#c96e59"/>
              <path id="Path_1052434" data-name="Path 1052434" d="M263.874,138.086v10.748a9.426,9.426,0,0,1-5.629,8.627,9.425,9.425,0,0,0,8.806-9.4V141.9A3.882,3.882,0,0,0,263.874,138.086Z" transform="translate(-234.447 -123.604)" fill="#c96e59"/>
              <path id="Path_1052435" data-name="Path 1052435" d="M234.38,241.721a2.5,2.5,0,0,1-3.191,3.112,2.5,2.5,0,1,0,3.191-3.112Z" transform="translate(-210.391 -215.746)" fill="#f89580"/>
            </g>
          </g>
        </g>
        <g id="Group_1208161" data-name="Group 1208161" transform="translate(43.648 7.499)">
          <g id="Group_1208160" data-name="Group 1208160" transform="translate(0)">
            <path id="Path_1052436" data-name="Path 1052436" d="M371.822,157.257a4.158,4.158,0,1,0,.173-8.223" transform="translate(-335.428 -133.308)" fill="none" stroke="#000" stroke-linecap="round" stroke-linejoin="round" stroke-miterlimit="10" stroke-width="1"/>
            <g id="Group_1208159" data-name="Group 1208159">
              <g id="Group_1208150" data-name="Group 1208150" transform="translate(18.742 18.243)">
                <line id="Line_853" data-name="Line 853" y2="1.109" fill="none" stroke="#000" stroke-linecap="round" stroke-linejoin="round" stroke-miterlimit="10" stroke-width="1"/>
                <line id="Line_854" data-name="Line 854" y2="1.109" transform="translate(8.872)" fill="none" stroke="#000" stroke-linecap="round" stroke-linejoin="round" stroke-miterlimit="10" stroke-width="1"/>
              </g>
              <g id="Group_1208153" data-name="Group 1208153" transform="translate(4.875)">
                <g id="Group_1208151" data-name="Group 1208151" transform="translate(0 26.338)">
                  <path id="Path_1052437" data-name="Path 1052437" d="M87.609,254.428V245l2.484,2.484" transform="translate(-87.609 -245)" fill="none" stroke="#000" stroke-linecap="round" stroke-linejoin="round" stroke-miterlimit="10" stroke-width="1"/>
                </g>
                <g id="Group_1208152" data-name="Group 1208152" transform="translate(39.74)">
                  <path id="Path_1052438" data-name="Path 1052438" d="M445.957,16.928V7.5l2.484,2.484" transform="translate(-445.957 -7.5)" fill="none" stroke="#000" stroke-linecap="round" stroke-linejoin="round" stroke-miterlimit="10" stroke-width="1"/>
                </g>
              </g>
              <path id="Path_1052439" data-name="Path 1052439" d="M139.97,56.333a12.694,12.694,0,0,0-2.322,7.338c0,.29.013.578.032.863" transform="translate(-127.224 -50.918)" fill="none" stroke="#000" stroke-linecap="round" stroke-linejoin="round" stroke-miterlimit="10" stroke-width="1"/>
              <path id="Path_1052440" data-name="Path 1052440" d="M203.289,21.459c.037-.4.058-.8.058-1.205a12.753,12.753,0,0,0-20.493-10.136" transform="translate(-167.416 -7.5)" fill="none" stroke="#000" stroke-linecap="round" stroke-linejoin="round" stroke-miterlimit="10" stroke-width="1"/>
              <g id="Group_1208155" data-name="Group 1208155" transform="translate(9.648 5.379)">
                <path id="Path_1052441" data-name="Path 1052441" d="M135.116,104.9a6.039,6.039,0,0,0-2.909,9.881" transform="translate(-130.648 -99.473)" fill="none" stroke="#000" stroke-linecap="round" stroke-linejoin="round" stroke-miterlimit="10" stroke-width="1"/>
                <g id="Group_1208154" data-name="Group 1208154" transform="translate(4.436)">
                  <path id="Path_1052442" data-name="Path 1052442" d="M179.742,56.827a6.042,6.042,0,0,0-7.808,8.941" transform="translate(-170.648 -56)" fill="none" stroke="#000" stroke-linecap="round" stroke-linejoin="round" stroke-miterlimit="10" stroke-width="1"/>
                  <path id="Path_1052443" data-name="Path 1052443" d="M240.816,71.455a6.04,6.04,0,0,0-3.086-9.638,6.043,6.043,0,1,0-11.288,3.221" transform="translate(-219.549 -56)" fill="none" stroke="#000" stroke-linecap="round" stroke-linejoin="round" stroke-miterlimit="10" stroke-width="1"/>
                </g>
              </g>
              <g id="Group_1208156" data-name="Group 1208156" transform="translate(7.541 37.177)">
                <path id="Path_1052444" data-name="Path 1052444" d="M252.648,478.271h14.528a1.109,1.109,0,0,0,1.109-1.109V475" transform="translate(-237.011 -460.332)" fill="none" stroke="#000" stroke-linecap="round" stroke-linejoin="round" stroke-miterlimit="10" stroke-width="1"/>
                <path id="Path_1052445" data-name="Path 1052445" d="M351.239,353.524v-.166a13.285,13.285,0,0,0-5.29-10.62" transform="translate(-319.966 -342.738)" fill="none" stroke="#000" stroke-linecap="round" stroke-linejoin="round" stroke-miterlimit="10" stroke-width="1"/>
                <path id="Path_1052446" data-name="Path 1052446" d="M116.938,342.738a13.285,13.285,0,0,0-5.29,10.62v6.21a1.109,1.109,0,0,0,1.109,1.109h14.528" transform="translate(-111.648 -342.738)" fill="none" stroke="#000" stroke-linecap="round" stroke-linejoin="round" stroke-miterlimit="10" stroke-width="1"/>
              </g>
              <path id="Path_1052447" data-name="Path 1052447" d="M146.954,269h-1.23a2.712,2.712,0,0,0-2.666,2.218" transform="translate(-132.035 -240)" fill="none" stroke="#000" stroke-linecap="round" stroke-linejoin="round" stroke-miterlimit="10" stroke-width="1"/>
              <path id="Path_1052448" data-name="Path 1052448" d="M328.73,277.289a2.712,2.712,0,0,0,2.321-2.683v-2.894A2.711,2.711,0,0,0,328.34,269h-1.23" transform="translate(-295.675 -240)" fill="none" stroke="#000" stroke-linecap="round" stroke-linejoin="round" stroke-miterlimit="10" stroke-width="1"/>
              <line id="Line_855" data-name="Line 855" x2="14.346" transform="translate(16.004 37.317)" fill="none" stroke="#000" stroke-linecap="round" stroke-linejoin="round" stroke-miterlimit="10" stroke-width="1"/>
              <path id="Path_1052449" data-name="Path 1052449" d="M143.055,324a2.713,2.713,0,0,0,2.276,2.19" transform="translate(-132.031 -288.901)" fill="none" stroke="#000" stroke-linecap="round" stroke-linejoin="round" stroke-miterlimit="10" stroke-width="1"/>
              <path id="Path_1052450" data-name="Path 1052450" d="M193.352,471.039l6.3,3.636a.554.554,0,0,0,.554,0l6.3-3.636" transform="translate(-176.75 -419.634)" fill="none" stroke="#000" stroke-linecap="round" stroke-linejoin="round" stroke-miterlimit="10" stroke-width="1"/>
              <path id="Path_1052451" data-name="Path 1052451" d="M183.332,341.163v-7.036a.554.554,0,0,0-.832-.48l-8.769,5.063a.555.555,0,0,1-.554,0l-8.769-5.063a.555.555,0,0,0-.832.48v7.036" transform="translate(-150.276 -297.411)" fill="none" stroke="#000" stroke-linecap="round" stroke-linejoin="round" stroke-miterlimit="10" stroke-width="1"/>
              <g id="Group_1208157" data-name="Group 1208157" transform="translate(11.145 43.749)">
                <path id="Path_1052452" data-name="Path 1052452" d="M148.029,410.317h-1.663a2.224,2.224,0,0,1-2.218-2.218v-3.881A2.224,2.224,0,0,1,146.366,402h1.663a2.225,2.225,0,0,1,2.218,2.218V408.1A2.224,2.224,0,0,1,148.029,410.317Z" transform="translate(-144.148 -402)" fill="none" stroke="#000" stroke-linecap="round" stroke-linejoin="round" stroke-miterlimit="10" stroke-width="1"/>
                <path id="Path_1052453" data-name="Path 1052453" d="M310.029,410.317h-1.663a2.224,2.224,0,0,1-2.218-2.218v-3.881A2.225,2.225,0,0,1,308.366,402h1.663a2.224,2.224,0,0,1,2.218,2.218V408.1A2.224,2.224,0,0,1,310.029,410.317Z" transform="translate(-288.183 -402)" fill="none" stroke="#000" stroke-linecap="round" stroke-linejoin="round" stroke-miterlimit="10" stroke-width="1"/>
              </g>
              <g id="Group_1208158" data-name="Group 1208158" transform="translate(9.87 20.156)">
                <path id="Path_1052454" data-name="Path 1052454" d="M336.078,195.349h1.006a3.05,3.05,0,0,0,3.05-3.05h0a3.05,3.05,0,0,0-3.05-3.05h-.832" transform="translate(-313.518 -189.25)" fill="none" stroke="#000" stroke-linecap="round" stroke-linejoin="round" stroke-miterlimit="10" stroke-width="1"/>
                <path id="Path_1052455" data-name="Path 1052455" d="M136.529,189.25H135.7a3.05,3.05,0,0,0-3.05,3.05h0a3.05,3.05,0,0,0,3.05,3.05H136.7" transform="translate(-132.648 -189.25)" fill="none" stroke="#000" stroke-linecap="round" stroke-linejoin="round" stroke-miterlimit="10" stroke-width="1"/>
              </g>
              <path id="Path_1052456" data-name="Path 1052456" d="M177.074,156.963h0a9.426,9.426,0,0,1-9.426-9.426v-6.155a3.881,3.881,0,0,1,3.881-3.881h11.09a3.881,3.881,0,0,1,3.881,3.881v6.155A9.426,9.426,0,0,1,177.074,156.963Z" transform="translate(-153.897 -123.083)" fill="none" stroke="#000" stroke-linecap="round" stroke-linejoin="round" stroke-miterlimit="10" stroke-width="1"/>
              <path id="Path_1052457" data-name="Path 1052457" d="M234.646,172.94l-.669,1.894a1.409,1.409,0,0,0,1.329,1.879h1.338a1.409,1.409,0,0,0,1.329-1.879l-.669-1.894a1.409,1.409,0,0,0-1.329-.94h0A1.409,1.409,0,0,0,234.646,172.94Z" transform="translate(-212.797 -153.757)" fill="none" stroke="#000" stroke-linecap="round" stroke-linejoin="round" stroke-miterlimit="10" stroke-width="1"/>
              <circle id="Ellipse_13477" data-name="Ellipse 13477" cx="2.438" cy="2.438" r="2.438" transform="translate(39.74 6.991)" fill="none" stroke="#000" stroke-linecap="round" stroke-linejoin="round" stroke-miterlimit="10" stroke-width="1"/>
              <circle id="Ellipse_13478" data-name="Ellipse 13478" cx="2.438" cy="2.438" r="2.438" transform="translate(0 33.329)" fill="none" stroke="#000" stroke-linecap="round" stroke-linejoin="round" stroke-miterlimit="10" stroke-width="1"/>
              <circle id="Ellipse_13479" data-name="Ellipse 13479" cx="2.495" cy="2.495" r="2.495" transform="translate(20.682 25.839)" fill="none" stroke="#000" stroke-linecap="round" stroke-linejoin="round" stroke-miterlimit="10" stroke-width="1"/>
            </g>
          </g>
          <line id="Line_856" data-name="Line 856" y1="13.743" transform="translate(23.178 41.373)" fill="none" stroke="#000" stroke-linecap="round" stroke-linejoin="round" stroke-miterlimit="10" stroke-width="1"/>
        </g>
      </g>
    </g>
  </g>
</svg>
