<svg xmlns="http://www.w3.org/2000/svg" xmlns:xlink="http://www.w3.org/1999/xlink" width="113" height="113" viewBox="0 0 113 113">
  <defs>
    <filter id="Path_982547" x="0" y="0" width="113" height="113" filterUnits="userSpaceOnUse">
      <feOffset dy="3" input="SourceAlpha"/>
      <feGaussianBlur stdDeviation="3" result="blur"/>
      <feFlood flood-opacity="0.161"/>
      <feComposite operator="in" in2="blur"/>
      <feComposite in="SourceGraphic"/>
    </filter>
  </defs>
  <g id="Group_1208221" data-name="Group 1208221" transform="translate(-3668 -4282)">
    <g id="Group_1208071" data-name="Group 1208071">
      <g id="Group_1207902" data-name="Group 1207902" transform="translate(-1618.49 2361.727)">
        <g id="Group_1176928" data-name="Group 1176928" transform="translate(5295.49 1926.273)">
          <g id="Group_1172322" data-name="Group 1172322" transform="translate(0 0)">
            <g id="Group_1164700" data-name="Group 1164700">
              <g id="Group_1160931" data-name="Group 1160931">
                <g id="Group_1160749" data-name="Group 1160749">
                  <g id="Group_1158891" data-name="Group 1158891">
                    <g id="Group_1157406" data-name="Group 1157406">
                      <g id="Group_1155793" data-name="Group 1155793">
                        <g id="Group_1154704" data-name="Group 1154704">
                          <g id="Group_1150790" data-name="Group 1150790">
                            <g id="Group_1154214" data-name="Group 1154214">
                              <g id="Group_1152583" data-name="Group 1152583">
                                <g id="Group_1146973" data-name="Group 1146973">
                                  <g id="Group_1146954" data-name="Group 1146954">
                                    <g transform="matrix(1, 0, 0, 1, -9, -6)" filter="url(#Path_982547)">
                                      <g id="Path_982547-2" data-name="Path 982547" transform="translate(9 6)" fill="#ebe9f0">
                                        <path d="M 47.5000114440918 93.49987030029297 C 41.28938293457031 93.49987030029297 35.26534652709961 92.28384399414062 29.5951976776123 89.88558959960938 C 24.11773109436035 87.56881713867188 19.19814491271973 84.25183868408203 14.97310447692871 80.02680206298828 C 10.74805164337158 75.80176544189453 7.43107795715332 70.88218688964844 5.114304542541504 65.40472412109375 C 2.716038227081299 59.73458862304688 1.500011444091797 53.71054840087891 1.500011444091797 47.49993515014648 C 1.500011444091797 41.28932189941406 2.716038227081299 35.26528167724609 5.114304542541504 29.59514808654785 C 7.43107795715332 24.1176815032959 10.74805164337158 19.1981086730957 14.97310447692871 14.97306823730469 C 19.19814491271973 10.74802875518799 24.11773109436035 7.431055068969727 29.5951976776123 5.11428165435791 C 35.26534652709961 2.716028451919556 41.28938293457031 1.500001788139343 47.5000114440918 1.500001788139343 C 53.71063995361328 1.500001788139343 59.73467636108398 2.716028451919556 65.40482330322266 5.11428165435791 C 70.88229370117188 7.431055068969727 75.8018798828125 10.74802875518799 80.02691650390625 14.97306823730469 C 84.25196838378906 19.1981086730957 87.56894683837891 24.1176815032959 89.88571929931641 29.59514808654785 C 92.28398132324219 35.26528167724609 93.50001525878906 41.28932189941406 93.50001525878906 47.49993515014648 C 93.50001525878906 53.71054840087891 92.28398132324219 59.73458862304688 89.88571929931641 65.40472412109375 C 87.56894683837891 70.88218688964844 84.25196838378906 75.80176544189453 80.02691650390625 80.02680206298828 C 75.8018798828125 84.25183868408203 70.88229370117188 87.56881713867188 65.40482330322266 89.88558959960938 C 59.73467636108398 92.28384399414062 53.71063995361328 93.49987030029297 47.5000114440918 93.49987030029297 Z" stroke="none"/>
                                        <path d="M 47.5000114440918 3 C 41.49122619628906 3 35.66378021240234 4.1761474609375 30.17951965332031 6.495796203613281 C 24.880859375 8.7369384765625 20.12153625488281 11.94596862792969 16.03376770019531 16.03373718261719 C 11.94598388671875 20.12149047851562 8.736968994140625 24.88081359863281 6.495811462402344 30.17947387695312 C 4.176162719726562 35.66371917724609 3.000007629394531 41.49116516113281 3.000007629394531 47.49993515014648 C 3.000007629394531 53.50870513916016 4.176162719726562 59.33615112304688 6.495811462402344 64.82039642333984 C 8.736968994140625 70.11905670166016 11.94598388671875 74.87837982177734 16.03376770019531 78.96613311767578 C 20.12153625488281 83.05390167236328 24.880859375 86.26293182373047 30.17951965332031 88.50407409667969 C 35.66378021240234 90.82372283935547 41.49122619628906 91.99987030029297 47.5000114440918 91.99987030029297 C 53.50879669189453 91.99987030029297 59.33624267578125 90.82372283935547 64.82050323486328 88.50407409667969 C 70.11916351318359 86.26293182373047 74.87848663330078 83.05390167236328 78.96625518798828 78.96613311767578 C 83.05403900146484 74.87837982177734 86.2630615234375 70.11905670166016 88.50421142578125 64.82039642333984 C 90.82386016845703 59.33615112304688 92.00001525878906 53.50870513916016 92.00001525878906 47.49993515014648 C 92.00001525878906 41.49116516113281 90.82386016845703 35.66371917724609 88.50421142578125 30.17947387695312 C 86.2630615234375 24.88081359863281 83.05403900146484 20.12149047851562 78.96625518798828 16.03373718261719 C 74.87848663330078 11.94596862792969 70.11916351318359 8.7369384765625 64.82050323486328 6.495796203613281 C 59.33624267578125 4.1761474609375 53.50879669189453 3 47.5000114440918 3 M 47.5000114440918 0 C 73.73353576660156 0 95.00001525878906 21.26644134521484 95.00001525878906 47.49993515014648 C 95.00001525878906 73.73342895507812 73.73353576660156 94.99987030029297 47.5000114440918 94.99987030029297 C 21.26648712158203 94.99987030029297 7.62939453125e-06 73.73342895507812 7.62939453125e-06 47.49993515014648 C 7.62939453125e-06 21.26644134521484 21.26648712158203 0 47.5000114440918 0 Z" stroke="none" fill="#453179"/>
                                      </g>
                                    </g>
                                  </g>
                                </g>
                              </g>
                            </g>
                          </g>
                        </g>
                      </g>
                    </g>
                  </g>
                </g>
              </g>
            </g>
          </g>
        </g>
      </g>
      <g id="complaint_9375541" transform="translate(3680.998 4287.979)">
        <g id="Group_1208070" data-name="Group 1208070" transform="translate(9.139 11.158)">
          <g id="Group_1208064" data-name="Group 1208064" transform="translate(0 20.958)">
            <path id="Path_1052134" data-name="Path 1052134" d="M29.162,165.4a13.162,13.162,0,0,1,9.711,22.046l.76,4.278L35.848,189.9a13.163,13.163,0,1,1-6.685-24.5Z" transform="translate(-16 -165.396)" fill="#6cf5c2" fill-rule="evenodd"/>
            <path id="Path_1052135" data-name="Path 1052135" d="M104.216,165.4a13.162,13.162,0,0,1,9.711,22.046l.76,4.278-1.555-.749-.627-3.529a13.162,13.162,0,0,0-9-22.027Q103.858,165.4,104.216,165.4Zm6.685,24.5-.76-.366a16.288,16.288,0,0,1-6.645,2.17q.357.018.72.018A13.1,13.1,0,0,0,110.9,189.9Z" transform="translate(-91.053 -165.396)" fill="#00e499" fill-rule="evenodd"/>
            <path id="Path_1052136" data-name="Path 1052136" d="M53.423,237.142q.009,9.556,0,9.541H50.247a.5.5,0,0,1-.5-.5v-8.538a.5.5,0,0,1,.5-.5Z" transform="translate(-44.947 -226.939)" fill="#d1d1d6" fill-rule="evenodd"/>
            <path id="Path_1052137" data-name="Path 1052137" d="M49.746,246.182a.5.5,0,0,0,.5.5h3.179v-9.54h-.5v9.039Z" transform="translate(-44.947 -226.94)" fill="#b1b1b5" fill-rule="evenodd"/>
            <path id="Path_1052138" data-name="Path 1052138" d="M83.07,201.4c-3.7.637-5.847,1.1-8-.957V190.9c1.694-1.273,3.932-2.363,3.932-4.77v-2.9a3.484,3.484,0,0,1,3.474,3.473v2.247a3.342,3.342,0,0,1-.963,1.768C86.894,192.1,84.6,201.462,83.07,201.4Z" transform="translate(-66.672 -180.696)" fill="#f6dccd" fill-rule="evenodd"/>
            <path id="Path_1052139" data-name="Path 1052139" d="M75.917,201.12a6.055,6.055,0,0,1-.844-.681V190.9c1.694-1.273,3.932-2.363,3.932-4.77v-2.9a3.463,3.463,0,0,1,2.427.994,3.445,3.445,0,0,0-1.778-.493v2.9c0,2.407-2.237,3.5-3.932,4.77v9.54q.1.094.195.18Z" transform="translate(-66.672 -180.696)" fill="#f1cbbc" fill-rule="evenodd"/>
            <path id="Path_1052140" data-name="Path 1052140" d="M122.43,244.818h2.228a1.38,1.38,0,1,0,0-2.76h.823a1.38,1.38,0,0,0,0-2.761h.969a1.38,1.38,0,0,0,0-2.761h-.581a1.38,1.38,0,1,0,0-2.76H122.43a1.38,1.38,0,1,0,0,2.76h-.581a1.38,1.38,0,1,0,0,2.761h.581a1.38,1.38,0,1,0,0,2.761,1.38,1.38,0,1,0,0,2.76Z" transform="translate(-105.612 -224.052)" fill="#f6dccd" fill-rule="evenodd"/>
            <g id="Group_1208063" data-name="Group 1208063" transform="translate(14.856 11.104)">
              <path id="Path_1052141" data-name="Path 1052141" d="M125.938,303.1h2.228a1.384,1.384,0,0,0,1.38-1.38h-4.989A1.384,1.384,0,0,0,125.938,303.1Z" transform="translate(-123.977 -293.435)" fill="#f1cbbc" fill-rule="evenodd"/>
              <path id="Path_1052142" data-name="Path 1052142" d="M128.166,283.685h.823a1.384,1.384,0,0,0,1.38-1.38h-5.812a1.384,1.384,0,0,0,1.38,1.38Z" transform="translate(-123.977 -276.784)" fill="#f1cbbc" fill-rule="evenodd"/>
              <path id="Path_1052143" data-name="Path 1052143" d="M125.482,264.273h.969a1.384,1.384,0,0,0,1.38-1.38h-7.362a1.384,1.384,0,0,0,1.38,1.38h3.633Z" transform="translate(-120.469 -260.132)" fill="#f1cbbc" fill-rule="evenodd"/>
              <path id="Path_1052144" data-name="Path 1052144" d="M129.377,244.861a1.384,1.384,0,0,0,1.38-1.38h-6.2a1.384,1.384,0,0,0,1.38,1.38Z" transform="translate(-123.977 -243.481)" fill="#f1cbbc" fill-rule="evenodd"/>
            </g>
          </g>
          <g id="Group_1208065" data-name="Group 1208065" transform="translate(20.957 0)">
            <path id="Path_1052145" data-name="Path 1052145" d="M176.531,18.017a13.163,13.163,0,0,1,2.433,26.1l-2.423,3.846-2.412-3.828a12.978,12.978,0,0,1-10.761-12.954,13.162,13.162,0,0,1,13.162-13.162Z" transform="translate(-163.369 -18.017)" fill="#fe646f" fill-rule="evenodd"/>
            <path id="Path_1052146" data-name="Path 1052146" d="M251.635,18.017a13.163,13.163,0,0,1,2.433,26.1l-2.423,3.846-.711-1.129,1.712-2.717a13.163,13.163,0,0,0-1.722-26.08q.353-.019.711-.019Z" transform="translate(-238.473 -18.017)" fill="#fd4755" fill-rule="evenodd"/>
            <path id="Path_1052147" data-name="Path 1052147" d="M214.741,71.98l-3.273-3.273a1.831,1.831,0,1,1,2.59-2.59l3.273,3.273,3.273-3.273a1.831,1.831,0,1,1,2.59,2.59l-3.273,3.273,3.273,3.273a1.831,1.831,0,1,1-2.59,2.59l-3.273-3.273-3.273,3.273a1.831,1.831,0,1,1-2.59-2.59Z" transform="translate(-204.169 -58.817)" fill="#eceff1" fill-rule="evenodd"/>
            <path id="Path_1052148" data-name="Path 1052148" d="M214.741,71.98l-3.273-3.273a1.831,1.831,0,0,1,2.006-2.982,1.83,1.83,0,0,0-.584,2.982l3.273,3.273-3.273,3.273a1.83,1.83,0,0,0,.584,2.982,1.831,1.831,0,0,1-2.006-2.982Zm2.59-2.59,3.273-3.273a1.836,1.836,0,0,1,2.006-.392,1.817,1.817,0,0,0-.584.392L218.042,70.1Zm5.279,8.846a1.836,1.836,0,0,1-2.006-.392l-3.273-3.273.711-.711,3.984,3.984A1.817,1.817,0,0,0,222.61,78.236Z" transform="translate(-204.169 -58.818)" fill="#d1d1d6" fill-rule="evenodd"/>
          </g>
          <g id="Group_1208066" data-name="Group 1208066" transform="translate(41.935 20.929)">
            <path id="Path_1052149" data-name="Path 1052149" d="M324.05,165.186a13.162,13.162,0,0,0-9.711,22.046l-.76,4.278,3.786-1.823a13.163,13.163,0,1,0,6.685-24.5Z" transform="translate(-310.888 -165.186)" fill="#ffe177" fill-rule="evenodd"/>
            <path id="Path_1052150" data-name="Path 1052150" d="M340.283,165.186q-.358,0-.711.019a13.162,13.162,0,0,1,12.451,13.143,12.991,12.991,0,0,1-12.443,13.144q.349.018.7.018a13,13,0,0,0,13.162-13.162A13.162,13.162,0,0,0,340.283,165.186Zm-10.338,25.575-.133.749,3.786-1.823q-.337-.174-.662-.366Z" transform="translate(-327.121 -165.186)" fill="#ffd064" fill-rule="evenodd"/>
            <path id="Path_1052151" data-name="Path 1052151" d="M392.926,208.978a1.744,1.744,0,1,1-1.744,1.744A1.744,1.744,0,0,1,392.926,208.978Zm0-2.257a1.361,1.361,0,0,1-1.36-1.312l-.344-9.528a1.361,1.361,0,0,1,1.36-1.41h.688a1.361,1.361,0,0,1,1.36,1.41l-.344,9.528A1.361,1.361,0,0,1,392.926,206.72Z" transform="translate(-379.764 -190.306)" fill="#eceff1" fill-rule="evenodd"/>
            <path id="Path_1052152" data-name="Path 1052152" d="M392.926,208.978a1.742,1.742,0,0,1,.516.078,1.744,1.744,0,0,0,0,3.332,1.744,1.744,0,1,1-.516-3.41Zm0-2.257a1.361,1.361,0,0,1-1.36-1.312l-.344-9.528a1.361,1.361,0,0,1,1.36-1.41h.688a1.485,1.485,0,0,1,.172.01,1.363,1.363,0,0,0-1.188,1.4l.344,9.528a1.362,1.362,0,0,0,.844,1.211A1.359,1.359,0,0,1,392.926,206.72Z" transform="translate(-379.764 -190.306)" fill="#d1d1d6" fill-rule="evenodd"/>
          </g>
          <g id="Group_1208067" data-name="Group 1208067" transform="translate(25.158 35.312)">
            <path id="Path_1052153" data-name="Path 1052153" d="M193.957,344.979h15.711a1.043,1.043,0,0,0,1.011-1.3,9.157,9.157,0,0,0-17.732,0,1.043,1.043,0,0,0,1.011,1.3Z" transform="translate(-192.911 -326.787)" fill="#8ac9fe" fill-rule="evenodd"/>
            <path id="Path_1052154" data-name="Path 1052154" d="M257.068,344.978a1.043,1.043,0,0,0,1.011-1.3,9.161,9.161,0,0,0-9.91-6.807,9.163,9.163,0,0,1,7.823,6.807,1.043,1.043,0,0,1-1.011,1.3Z" transform="translate(-240.311 -326.786)" fill="#60b7ff" fill-rule="evenodd"/>
            <ellipse id="Ellipse_13458" data-name="Ellipse 13458" cx="4.629" cy="4.629" rx="4.629" ry="4.629" transform="matrix(0.179, -0.984, 0.984, 0.179, 3.522, 9.11)" fill="#f6dccd"/>
            <path id="Path_1052155" data-name="Path 1052155" d="M251.592,271.709a4.629,4.629,0,1,1,0,9.258,4.676,4.676,0,0,1-.649-.046,4.629,4.629,0,0,0,0-9.167A4.673,4.673,0,0,1,251.592,271.709Z" transform="translate(-242.69 -270.944)" fill="#f1cbbc" fill-rule="evenodd"/>
          </g>
          <g id="Group_1208068" data-name="Group 1208068" transform="translate(10.71 49.324)">
            <path id="Path_1052156" data-name="Path 1052156" d="M92.356,444.7h15.711a1.043,1.043,0,0,0,1.011-1.3,9.157,9.157,0,0,0-17.732,0,1.043,1.043,0,0,0,1.011,1.3Z" transform="translate(-91.31 -426.341)" fill="#8ac9fe" fill-rule="evenodd"/>
            <path id="Path_1052157" data-name="Path 1052157" d="M155.467,444.7a1.043,1.043,0,0,0,1.011-1.3,9.161,9.161,0,0,0-9.91-6.807,9.163,9.163,0,0,1,7.823,6.807,1.043,1.043,0,0,1-1.011,1.3Z" transform="translate(-138.71 -426.34)" fill="#60b7ff" fill-rule="evenodd"/>
            <ellipse id="Ellipse_13459" data-name="Ellipse 13459" cx="4.629" cy="4.629" rx="4.629" ry="4.629" transform="translate(3.333 9.008) rotate(-76.645)" fill="#f6dccd"/>
            <path id="Path_1052158" data-name="Path 1052158" d="M149.991,371.433a4.629,4.629,0,1,1-.649,9.212,4.629,4.629,0,0,0,0-9.167,4.7,4.7,0,0,1,.649-.045Z" transform="translate(-141.089 -370.499)" fill="#f1cbbc" fill-rule="evenodd"/>
          </g>
          <g id="Group_1208069" data-name="Group 1208069" transform="translate(39.606 49.656)">
            <path id="Path_1052159" data-name="Path 1052159" d="M295.558,444.7h15.711a1.043,1.043,0,0,0,1.011-1.3,9.157,9.157,0,0,0-17.732,0,1.043,1.043,0,0,0,1.011,1.3Z" transform="translate(-294.512 -426.672)" fill="#8ac9fe" fill-rule="evenodd"/>
            <path id="Path_1052160" data-name="Path 1052160" d="M358.669,444.7a1.043,1.043,0,0,0,1.011-1.3,9.161,9.161,0,0,0-9.91-6.807,9.163,9.163,0,0,1,7.823,6.807,1.043,1.043,0,0,1-1.011,1.3Z" transform="translate(-341.912 -426.672)" fill="#60b7ff" fill-rule="evenodd"/>
            <ellipse id="Ellipse_13460" data-name="Ellipse 13460" cx="4.629" cy="4.629" rx="4.629" ry="4.629" transform="translate(3.645 9.165) rotate(-82.008)" fill="#f6dccd"/>
            <path id="Path_1052161" data-name="Path 1052161" d="M353.193,371.433a4.629,4.629,0,1,1-.649,9.212,4.629,4.629,0,0,0,0-9.167,4.7,4.7,0,0,1,.649-.045Z" transform="translate(-344.291 -370.83)" fill="#f1cbbc" fill-rule="evenodd"/>
          </g>
        </g>
        <path id="Path_1052162" data-name="Path 1052162" d="M49.912,77.706a8,8,0,0,1,7.732-5.895h.005a8,8,0,0,1,7.732,5.895Zm4.244-11.66a3.491,3.491,0,1,1,3.494,3.49h-.005a3.5,3.5,0,0,1-3.489-3.49ZM35.464,63.525A8,8,0,0,1,43.2,57.63H43.2a8,8,0,0,1,7.732,5.894Zm4.243-11.661A3.491,3.491,0,1,1,43.2,55.355H43.2A3.5,3.5,0,0,1,39.707,51.864ZM28.75,69.536h0a3.492,3.492,0,1,1,.006,0h0Zm7.734,8.17H21.015a8,8,0,0,1,7.732-5.895h.006A8,8,0,0,1,36.484,77.706ZM61.539,70.3a5.765,5.765,0,1,0-8.509-7.7,10.262,10.262,0,0,0-5.94-6.479,5.767,5.767,0,1,0-7.783,0,10.261,10.261,0,0,0-5.941,6.479,5.764,5.764,0,1,0-8.507,7.7,10.259,10.259,0,0,0-6.343,8.426,1.138,1.138,0,0,0,1.133,1.259h18.2a1.136,1.136,0,0,0,1.13-1.259A10.256,10.256,0,0,0,32.642,70.3a5.757,5.757,0,0,0,1.874-4.251c0-.082,0-.165-.006-.246H51.887c0,.081-.007.164-.007.246A5.753,5.753,0,0,0,53.756,70.3a10.26,10.26,0,0,0-6.342,8.426,1.138,1.138,0,0,0,1.132,1.259h18.2a1.136,1.136,0,0,0,1.13-1.259A10.255,10.255,0,0,0,61.539,70.3ZM38.2,28.4l3.272-3.274a1.135,1.135,0,0,0,0-1.608L38.2,20.242a.694.694,0,0,1,.491-1.184.7.7,0,0,1,.49.2l3.272,3.274a1.14,1.14,0,0,0,1.61,0l3.274-3.273a.694.694,0,0,1,.981.981l-3.274,3.274a1.135,1.135,0,0,0,0,1.608L48.316,28.4a.693.693,0,0,1-.979.981l-3.274-3.273a1.136,1.136,0,0,0-1.61,0L39.18,29.379A.694.694,0,1,1,38.2,28.4Zm-1.609,2.59a2.97,2.97,0,0,0,4.2,0l2.469-2.469,2.469,2.469a2.969,2.969,0,0,0,4.2-4.2L47.457,24.32l2.469-2.469a2.969,2.969,0,0,0-4.2-4.2l-2.469,2.47-2.468-2.47a2.969,2.969,0,0,0-4.2,4.2l2.469,2.469L36.59,26.788A2.973,2.973,0,0,0,36.59,30.988Zm27.646,22.12a.606.606,0,1,1,.606-.606A.606.606,0,0,1,64.236,53.108Zm-.224-5.96-.344-9.528a.223.223,0,0,1,.224-.232h.688a.223.223,0,0,1,.223.232l-.344,9.528a.224.224,0,0,1-.447,0Zm.444,2.482a2.881,2.881,0,1,1-.441,0,2.489,2.489,0,0,1-2.276-2.4L61.395,37.7a2.5,2.5,0,0,1,2.5-2.59h.688a2.5,2.5,0,0,1,2.5,2.59l-.344,9.528A2.49,2.49,0,0,1,64.457,49.63Zm-.22,7.644a12.008,12.008,0,0,1-6.107-1.665,1.14,1.14,0,0,0-1.072-.046l-1.783.859.371-2.09a1.138,1.138,0,0,0-.281-.967,12.024,12.024,0,1,1,8.872,3.909Zm0-26.326A14.3,14.3,0,0,0,53.309,54.472l-.664,3.74a1.138,1.138,0,0,0,1.614,1.224l3.252-1.567a14.3,14.3,0,1,0,6.725-26.921ZM18.756,51.35c0-.028,0-5.562,0-8.453l.315-.225c1.577-1.11,3.54-2.494,3.54-5.124V36.087a2.335,2.335,0,0,1,1.2,2.039v2.149a2.312,2.312,0,0,1-.63,1.062,1.136,1.136,0,0,0-.134,1.446,1.618,1.618,0,0,1,.347,1.284,3.3,3.3,0,0,1-1.675,1.78,1.137,1.137,0,0,0,1.133,1.973c.157-.09.333-.2.521-.326a2.513,2.513,0,0,0,.257.294,2.51,2.51,0,0,0,.226,2.332,2.491,2.491,0,0,0-.414,1.38,2.551,2.551,0,0,0,.051.5c-2.35.363-3.527.327-4.734-.655Zm-3.681-7.894h1.4c0,3.973,0,6.138,0,7.265H15.075Zm14.562-.236a.246.246,0,0,1-.242.243H25.957a.247.247,0,0,1-.243-.243.242.242,0,0,1,.072-.171.239.239,0,0,1,.171-.071H29.4A.245.245,0,0,1,29.637,43.22Zm.339,3h-4.6a.243.243,0,0,1,0-.485h4.6a.243.243,0,0,1,0,.485Zm-1.792,5.521H25.957a.246.246,0,0,1-.243-.243.24.24,0,0,1,.072-.17.235.235,0,0,1,.171-.072h2.228a.243.243,0,0,1,0,.485Zm.823-3.245a.243.243,0,0,1,0,.485H25.957a.243.243,0,1,1,0-.485Zm-3.731,5.516a23.775,23.775,0,0,1-3.916.474A6.046,6.046,0,0,1,17.18,53H13.937A1.138,1.138,0,0,1,12.8,51.859V42.319a1.138,1.138,0,0,1,1.137-1.138h3.307c.172-.125.345-.247.515-.368,1.6-1.129,2.576-1.911,2.576-3.264v-2.9a1.138,1.138,0,0,1,1.137-1.138,4.616,4.616,0,0,1,4.611,4.612v2.247a1.091,1.091,0,0,1-.01.155c-.009.058-.018.116-.031.175h3.354a2.519,2.519,0,0,1,2.331,3.468,2.515,2.515,0,0,1-.3,3.866,2.491,2.491,0,0,1,.1.7,2.517,2.517,0,0,1-.95,1.97,2.52,2.52,0,0,1-2.391,3.309H25.956a2.65,2.65,0,0,1-.454-.043Zm-15-8.737a12.024,12.024,0,1,1,20.9,8.116,1.142,1.142,0,0,0-.282.967l.371,2.09-1.783-.859a1.138,1.138,0,0,0-1.072.046,12.025,12.025,0,0,1-18.13-10.36ZM29.027,57.9l3.251,1.566a1.137,1.137,0,0,0,1.614-1.223L33.228,54.5a14.29,14.29,0,1,0-4.2,3.4ZM43.258,12.3A12.039,12.039,0,0,0,31.233,24.32a11.8,11.8,0,0,0,9.821,11.835,1.135,1.135,0,0,1,.765.513l1.449,2.3,1.46-2.318a1.138,1.138,0,0,1,.754-.512A12.025,12.025,0,0,0,43.258,12.3Zm-3.1,26,2.15,3.412a1.136,1.136,0,0,0,1.924,0l2.164-3.436a14.19,14.19,0,1,0-14.131-4.707A14.128,14.128,0,0,0,40.156,38.3Z" fill-rule="evenodd"/>
      </g>
    </g>
  </g>
</svg>
