<svg xmlns="http://www.w3.org/2000/svg" xmlns:xlink="http://www.w3.org/1999/xlink" width="98" height="98" viewBox="0 0 98 98">
  <defs>
    <filter id="Path_982547" x="0" y="0" width="98" height="98" filterUnits="userSpaceOnUse">
      <feOffset dy="3" input="SourceAlpha"/>
      <feGaussianBlur stdDeviation="3" result="blur"/>
      <feFlood flood-opacity="0.161"/>
      <feComposite operator="in" in2="blur"/>
      <feComposite in="SourceGraphic"/>
    </filter>
    <clipPath id="clip-path">
      <path id="path8121" d="M0-682.665H48.414v48.414H0Z" transform="translate(0 682.665)"/>
    </clipPath>
    <clipPath id="clip-path-4">
      <path id="path3522" d="M0-682.665H58.866V-623.8H0Z" transform="translate(0 682.665)"/>
    </clipPath>
  </defs>
  <g id="Group_1208184" data-name="Group 1208184" transform="translate(-191 -3968.014)">
    <g id="Group_1208018" data-name="Group 1208018">
      <g id="Group_1207739" data-name="Group 1207739" transform="translate(0 1882.462)">
        <g id="Group_1207712" data-name="Group 1207712">
          <g id="Group_1207285" data-name="Group 1207285" transform="translate(0 344.552)">
            <g id="Group_1206883" data-name="Group 1206883" transform="translate(0 -209)">
              <g id="Group_1204569" data-name="Group 1204569" transform="translate(-81 -1890.336)">
                <g id="Group_1203962" data-name="Group 1203962" transform="translate(281 3846.336)">
                  <g id="Group_1203498" data-name="Group 1203498" transform="translate(0)">
                    <g id="Group_1202589" data-name="Group 1202589">
                      <g id="Group_1172010" data-name="Group 1172010">
                        <g id="Group_1171046" data-name="Group 1171046">
                          <g id="Group_1148525" data-name="Group 1148525">
                            <g transform="matrix(1, 0, 0, 1, -9, -6)" filter="url(#Path_982547)">
                              <g id="Path_982547-2" data-name="Path 982547" transform="translate(9 6)" fill="#fdfbec">
                                <path d="M 39.99999237060547 78.49998474121094 C 34.8018684387207 78.49998474121094 29.76002502441406 77.48226165771484 25.0145263671875 75.47508239746094 C 20.43014717102051 73.53604888916016 16.31264877319336 70.75984954833984 12.77639198303223 67.22359466552734 C 9.240137100219727 63.68733596801758 6.463936805725098 59.5698356628418 4.524903297424316 54.98546981811523 C 2.517725706100464 50.23995971679688 1.500003457069397 45.19811630249023 1.500003457069397 39.99999237060547 C 1.500003457069397 34.8018684387207 2.517725706100464 29.76002502441406 4.524903297424316 25.0145263671875 C 6.463936805725098 20.43014717102051 9.240137100219727 16.31264877319336 12.77639198303223 12.77639198303223 C 16.31264877319336 9.240137100219727 20.43014717102051 6.463936805725098 25.0145263671875 4.524903297424316 C 29.76002502441406 2.517725706100464 34.8018684387207 1.500003457069397 39.99999237060547 1.500003457069397 C 45.19811630249023 1.500003457069397 50.23995971679688 2.517725706100464 54.98546981811523 4.524903297424316 C 59.5698356628418 6.463936805725098 63.68733596801758 9.240137100219727 67.22359466552734 12.77639198303223 C 70.75984954833984 16.31264877319336 73.53604888916016 20.43014717102051 75.47508239746094 25.0145263671875 C 77.48226165771484 29.76002502441406 78.49998474121094 34.8018684387207 78.49998474121094 39.99999237060547 C 78.49998474121094 45.19812393188477 77.48226165771484 50.23995971679688 75.47508239746094 54.98546981811523 C 73.53604888916016 59.5698356628418 70.75984954833984 63.68733596801758 67.22359466552734 67.22359466552734 C 63.68733596801758 70.75984954833984 59.5698356628418 73.53604888916016 54.98546981811523 75.47508239746094 C 50.23995971679688 77.48226165771484 45.19812393188477 78.49998474121094 39.99999237060547 78.49998474121094 Z" stroke="none"/>
                                <path d="M 39.99999237060547 2.999992370605469 C 35.00370025634766 2.999992370605469 30.1584587097168 3.97784423828125 25.59884643554688 5.906402587890625 C 21.19327163696289 7.769805908203125 17.23603057861328 10.43805694580078 13.83704376220703 13.83704376220703 C 10.43805694580078 17.23603057861328 7.769805908203125 21.19327163696289 5.906402587890625 25.59884643554688 C 3.97784423828125 30.1584587097168 2.999992370605469 35.00370025634766 2.999992370605469 39.99999237060547 C 2.999992370605469 44.99628448486328 3.97784423828125 49.84152603149414 5.906402587890625 54.40113830566406 C 7.769805908203125 58.80671310424805 10.43805694580078 62.76395416259766 13.83704376220703 66.16294097900391 C 17.23603057861328 69.56191253662109 21.19327163696289 72.23016357421875 25.59884643554688 74.09356689453125 C 30.1584587097168 76.02212524414062 35.00370025634766 76.99997711181641 39.99999237060547 76.99997711181641 C 44.99628448486328 76.99997711181641 49.84152603149414 76.02212524414062 54.40113830566406 74.09356689453125 C 58.80671310424805 72.23016357421875 62.76395416259766 69.56191253662109 66.16294097900391 66.16294097900391 C 69.56191253662109 62.76395416259766 72.23016357421875 58.80671310424805 74.09356689453125 54.40113830566406 C 76.02212524414062 49.84152603149414 76.99997711181641 44.99628448486328 76.99997711181641 39.99999237060547 C 76.99997711181641 35.00370025634766 76.02212524414062 30.1584587097168 74.09356689453125 25.59884643554688 C 72.23016357421875 21.19327163696289 69.56191253662109 17.23603057861328 66.16294097900391 13.83704376220703 C 62.76395416259766 10.43805694580078 58.80671310424805 7.769805908203125 54.40113830566406 5.906402587890625 C 49.84152603149414 3.97784423828125 44.99628448486328 2.999992370605469 39.99999237060547 2.999992370605469 M 39.99999237060547 -7.62939453125e-06 C 62.09137725830078 -7.62939453125e-06 79.99997711181641 17.90860748291016 79.99997711181641 39.99999237060547 C 79.99997711181641 62.09137725830078 62.09137725830078 79.99997711181641 39.99999237060547 79.99997711181641 C 17.90860748291016 79.99997711181641 -7.62939453125e-06 62.09137725830078 -7.62939453125e-06 39.99999237060547 C -7.62939453125e-06 17.90860748291016 17.90860748291016 -7.62939453125e-06 39.99999237060547 -7.62939453125e-06 Z" stroke="none" fill="#83793c"/>
                              </g>
                            </g>
                          </g>
                        </g>
                      </g>
                    </g>
                  </g>
                </g>
              </g>
            </g>
          </g>
          <g id="g8115" transform="translate(215.793 2790.01)">
            <g id="g8117" transform="translate(0 -682.665)">
              <g id="g8119" clip-path="url(#clip-path)">
                <g id="g8125" transform="translate(-33.259 0.709)">
                  <path id="path8127" d="M-338.457-377.826h-25.835v-25.108c5.31-7.679,37.755-5.416,25.835,25.108" transform="translate(364.292 406.667)" fill="#fbdf63"/>
                </g>
                <g id="g8129" transform="translate(-33.259 0.709)">
                  <path id="path8131" d="M-338.457-377.826h-.619c6.164-24.728-15.887-30.6-25.216-24.374v-.734c5.31-7.679,37.755-5.416,25.835,25.108" transform="translate(364.292 406.667)" fill="#f9d11f"/>
                </g>
              </g>
            </g>
            <g id="g8265" transform="translate(0 -682.665)">
              <g id="g8267" clip-path="url(#clip-path)">
                <g id="g8273" transform="translate(-33.259 51.036)">
                  <path id="path8275" d="M-338.457-377.654h-25.835v-25.1c5.31-7.676,37.755-5.413,25.835,25.1" transform="translate(364.292 406.481)" fill="#003343"/>
                </g>
                <g id="g8277" transform="translate(-33.259 51.036)">
                  <path id="path8279" d="M-338.457-377.654h-.619c6.164-24.717-15.887-30.585-25.216-24.362v-.734c5.31-7.676,37.755-5.413,25.835,25.1" transform="translate(364.292 406.481)" fill="#002439"/>
                </g>
              </g>
            </g>
            <g id="g8281" transform="translate(0 -682.665)">
              <g id="g8283" clip-path="url(#clip-path)">
                <g id="g8289" transform="translate(17.066 51.014)">
                  <path id="path8291" d="M-338.457-377.826h-25.835v-25.108c5.31-7.679,37.755-5.416,25.835,25.108" transform="translate(364.292 406.667)" fill="#ff7e50"/>
                </g>
                <g id="g8293" transform="translate(17.066 51.014)">
                  <path id="path8295" d="M-338.457-377.826h-.619c6.164-24.728-15.887-30.6-25.216-24.374v-.734c5.31-7.679,37.755-5.416,25.835,25.108" transform="translate(364.292 406.667)" fill="#ff6247"/>
                </g>
                <g id="g8297" transform="translate(2.941 54.225)">
                  <path id="path8299" d="M-233.028-131.751v15.573h-14.6c-12.2-25.649,14.6-34.273,14.6-15.573" transform="translate(250.816 141.808)" fill="#ffa68a"/>
                </g>
                <g id="g8301" transform="translate(2.941 54.225)">
                  <path id="path8303" d="M-233.028-131.751c-.9-16.1-20.23-9.82-14.176,15.573h-.427c-12.2-25.649,14.6-34.273,14.6-15.573" transform="translate(250.816 141.808)" fill="#ff7e50"/>
                </g>
              </g>
            </g>
          </g>
        </g>
      </g>
      <g id="g3516" transform="translate(210.567 4667.246)">
        <g id="g3518" transform="translate(0 -682.665)">
          <g id="g3520" clip-path="url(#clip-path-4)">
            <g id="g3526" transform="translate(1.15 12.684)">
              <path id="path3528" d="M-599.431-177.484c0,.313-12.665,16.749-28.283,16.749S-656-177.276-656-177.484c0-.313,12.665-16.749,28.284-16.749s28.283,16.54,28.283,16.749" transform="translate(655.998 194.233)" fill="#edf2fa"/>
            </g>
            <g id="g3530" transform="translate(17.361 17.361)">
              <path id="path3532" d="M-255.855-127.927A12.072,12.072,0,0,0-267.927-140,12.072,12.072,0,0,0-280-127.927a12.072,12.072,0,0,0,12.072,12.072,12.072,12.072,0,0,0,12.072-12.072" transform="translate(279.999 140)" fill="#4dbaf6"/>
            </g>
            <g id="g3534" transform="translate(28.713 19.309)">
              <path id="path3536" d="M-98.087-98.087a5.422,5.422,0,0,0,0-7.668,5.422,5.422,0,0,0-7.668,0,5.422,5.422,0,0,0,0,7.668,5.422,5.422,0,0,0,7.668,0" transform="translate(107.343 107.343)" fill="#fff"/>
            </g>
            <g id="g3538" transform="translate(28.713 19.309)">
              <path id="path3540" d="M-98.087-98.087a5.422,5.422,0,0,0,0-7.668,5.422,5.422,0,0,0-7.668,0,5.422,5.422,0,0,0,0,7.668A5.422,5.422,0,0,0-98.087-98.087Z" transform="translate(107.343 107.343)" fill="none" stroke="#000" stroke-linecap="round" stroke-linejoin="round" stroke-miterlimit="10" stroke-width="2"/>
            </g>
            <g id="g3542" transform="translate(1.15 12.684)">
              <path id="path3544" d="M-539.006-111.648a42.276,42.276,0,0,1,5.7,6.213c0,.313-12.665,16.749-28.283,16.749s-28.284-16.54-28.284-16.749c0-.313,12.665-16.749,28.284-16.749,5.636,0,10.888,2.154,15.3,4.917" transform="translate(589.87 122.184)" fill="none" stroke="#000" stroke-linecap="round" stroke-linejoin="round" stroke-miterlimit="10" stroke-width="2"/>
            </g>
            <g id="g3546" transform="translate(48.51 20.248)">
              <path id="path3548" d="M0,0H0" fill="none" stroke="#000" stroke-linecap="round" stroke-linejoin="round" stroke-miterlimit="10" stroke-width="2"/>
            </g>
            <g id="g3550" transform="translate(17.361 17.361)">
              <path id="path3552" d="M-255.855-127.927A12.072,12.072,0,0,0-267.927-140,12.072,12.072,0,0,0-280-127.927a12.072,12.072,0,0,0,12.072,12.072A12.072,12.072,0,0,0-255.855-127.927Z" transform="translate(279.999 140)" fill="none" stroke="#000" stroke-linecap="round" stroke-linejoin="round" stroke-miterlimit="10" stroke-width="2"/>
            </g>
            <g id="g3554" transform="translate(29.433 1.15)">
              <path id="path3556" d="M0,0V5.2" fill="none" stroke="#000" stroke-linecap="round" stroke-linejoin="round" stroke-miterlimit="10" stroke-width="2"/>
            </g>
            <g id="g3558" transform="translate(40.605 5.021)">
              <path id="path3560" d="M-40.172,0l-3.791,3.791" transform="translate(43.963)" fill="none" stroke="#000" stroke-linecap="round" stroke-linejoin="round" stroke-miterlimit="10" stroke-width="2"/>
            </g>
            <g id="g3562" transform="translate(14.471 5.021)">
              <path id="path3564" d="M0,0,3.791,3.791" fill="none" stroke="#000" stroke-linecap="round" stroke-linejoin="round" stroke-miterlimit="10" stroke-width="2"/>
            </g>
            <g id="g3566" transform="translate(29.433 52.391)">
              <path id="path3568" d="M0-56.438v-5.326" transform="translate(0 61.764)" fill="none" stroke="#000" stroke-linecap="round" stroke-linejoin="round" stroke-miterlimit="10" stroke-width="2"/>
            </g>
            <g id="g3570" transform="translate(40.605 49.931)">
              <path id="path3572" d="M-40.172-40.172l-3.791-3.791" transform="translate(43.963 43.963)" fill="none" stroke="#000" stroke-linecap="round" stroke-linejoin="round" stroke-miterlimit="10" stroke-width="2"/>
            </g>
            <g id="g3574" transform="translate(14.471 49.931)">
              <path id="path3576" d="M0-40.172l3.791-3.791" transform="translate(0 43.963)" fill="none" stroke="#000" stroke-linecap="round" stroke-linejoin="round" stroke-miterlimit="10" stroke-width="2"/>
            </g>
          </g>
        </g>
      </g>
    </g>
  </g>
</svg>
