<svg xmlns="http://www.w3.org/2000/svg" xmlns:xlink="http://www.w3.org/1999/xlink" width="98" height="98" viewBox="0 0 98 98">
  <defs>
    <filter id="Path_982547" x="0" y="0" width="98" height="98" filterUnits="userSpaceOnUse">
      <feOffset dy="3" input="SourceAlpha"/>
      <feGaussianBlur stdDeviation="3" result="blur"/>
      <feFlood flood-opacity="0.161"/>
      <feComposite operator="in" in2="blur"/>
      <feComposite in="SourceGraphic"/>
    </filter>
    <clipPath id="clip-path">
      <path id="path8121" d="M0-682.665H48.414v48.414H0Z" transform="translate(0 682.665)"/>
    </clipPath>
  </defs>
  <g id="Group_1208246" data-name="Group 1208246" transform="translate(-1030.575 -8932.605)">
    <g id="Group_1208164" data-name="Group 1208164">
      <g id="Group_1207919" data-name="Group 1207919" transform="translate(839.575 6847.053)">
        <g id="Group_1207712" data-name="Group 1207712">
          <g id="Group_1207285" data-name="Group 1207285" transform="translate(0 344.552)">
            <g id="Group_1206883" data-name="Group 1206883" transform="translate(0 -209)">
              <g id="Group_1204569" data-name="Group 1204569" transform="translate(-81 -1890.336)">
                <g id="Group_1203962" data-name="Group 1203962" transform="translate(281 3846.336)">
                  <g id="Group_1203498" data-name="Group 1203498" transform="translate(0)">
                    <g id="Group_1202589" data-name="Group 1202589">
                      <g id="Group_1172010" data-name="Group 1172010">
                        <g id="Group_1171046" data-name="Group 1171046">
                          <g id="Group_1148525" data-name="Group 1148525">
                            <g transform="matrix(1, 0, 0, 1, -9, -6)" filter="url(#Path_982547)">
                              <g id="Path_982547-2" data-name="Path 982547" transform="translate(9 6)" fill="#fdfbec">
                                <path d="M 39.99999237060547 78.49998474121094 C 34.8018684387207 78.49998474121094 29.76002502441406 77.48226165771484 25.0145263671875 75.47508239746094 C 20.43014717102051 73.53604888916016 16.31264877319336 70.75984954833984 12.77639198303223 67.22359466552734 C 9.240137100219727 63.68733596801758 6.463936805725098 59.5698356628418 4.524903297424316 54.98546981811523 C 2.517725706100464 50.23995971679688 1.500003457069397 45.19811630249023 1.500003457069397 39.99999237060547 C 1.500003457069397 34.8018684387207 2.517725706100464 29.76002502441406 4.524903297424316 25.0145263671875 C 6.463936805725098 20.43014717102051 9.240137100219727 16.31264877319336 12.77639198303223 12.77639198303223 C 16.31264877319336 9.240137100219727 20.43014717102051 6.463936805725098 25.0145263671875 4.524903297424316 C 29.76002502441406 2.517725706100464 34.8018684387207 1.500003457069397 39.99999237060547 1.500003457069397 C 45.19811630249023 1.500003457069397 50.23995971679688 2.517725706100464 54.98546981811523 4.524903297424316 C 59.5698356628418 6.463936805725098 63.68733596801758 9.240137100219727 67.22359466552734 12.77639198303223 C 70.75984954833984 16.31264877319336 73.53604888916016 20.43014717102051 75.47508239746094 25.0145263671875 C 77.48226165771484 29.76002502441406 78.49998474121094 34.8018684387207 78.49998474121094 39.99999237060547 C 78.49998474121094 45.19812393188477 77.48226165771484 50.23995971679688 75.47508239746094 54.98546981811523 C 73.53604888916016 59.5698356628418 70.75984954833984 63.68733596801758 67.22359466552734 67.22359466552734 C 63.68733596801758 70.75984954833984 59.5698356628418 73.53604888916016 54.98546981811523 75.47508239746094 C 50.23995971679688 77.48226165771484 45.19812393188477 78.49998474121094 39.99999237060547 78.49998474121094 Z" stroke="none"/>
                                <path d="M 39.99999237060547 2.999992370605469 C 35.00370025634766 2.999992370605469 30.1584587097168 3.97784423828125 25.59884643554688 5.906402587890625 C 21.19327163696289 7.769805908203125 17.23603057861328 10.43805694580078 13.83704376220703 13.83704376220703 C 10.43805694580078 17.23603057861328 7.769805908203125 21.19327163696289 5.906402587890625 25.59884643554688 C 3.97784423828125 30.1584587097168 2.999992370605469 35.00370025634766 2.999992370605469 39.99999237060547 C 2.999992370605469 44.99628448486328 3.97784423828125 49.84152603149414 5.906402587890625 54.40113830566406 C 7.769805908203125 58.80671310424805 10.43805694580078 62.76395416259766 13.83704376220703 66.16294097900391 C 17.23603057861328 69.56191253662109 21.19327163696289 72.23016357421875 25.59884643554688 74.09356689453125 C 30.1584587097168 76.02212524414062 35.00370025634766 76.99997711181641 39.99999237060547 76.99997711181641 C 44.99628448486328 76.99997711181641 49.84152603149414 76.02212524414062 54.40113830566406 74.09356689453125 C 58.80671310424805 72.23016357421875 62.76395416259766 69.56191253662109 66.16294097900391 66.16294097900391 C 69.56191253662109 62.76395416259766 72.23016357421875 58.80671310424805 74.09356689453125 54.40113830566406 C 76.02212524414062 49.84152603149414 76.99997711181641 44.99628448486328 76.99997711181641 39.99999237060547 C 76.99997711181641 35.00370025634766 76.02212524414062 30.1584587097168 74.09356689453125 25.59884643554688 C 72.23016357421875 21.19327163696289 69.56191253662109 17.23603057861328 66.16294097900391 13.83704376220703 C 62.76395416259766 10.43805694580078 58.80671310424805 7.769805908203125 54.40113830566406 5.906402587890625 C 49.84152603149414 3.97784423828125 44.99628448486328 2.999992370605469 39.99999237060547 2.999992370605469 M 39.99999237060547 -7.62939453125e-06 C 62.09137725830078 -7.62939453125e-06 79.99997711181641 17.90860748291016 79.99997711181641 39.99999237060547 C 79.99997711181641 62.09137725830078 62.09137725830078 79.99997711181641 39.99999237060547 79.99997711181641 C 17.90860748291016 79.99997711181641 -7.62939453125e-06 62.09137725830078 -7.62939453125e-06 39.99999237060547 C -7.62939453125e-06 17.90860748291016 17.90860748291016 -7.62939453125e-06 39.99999237060547 -7.62939453125e-06 Z" stroke="none" fill="#83793c"/>
                              </g>
                            </g>
                          </g>
                        </g>
                      </g>
                    </g>
                  </g>
                </g>
              </g>
            </g>
          </g>
          <g id="g8115" transform="translate(215.793 2790.01)">
            <g id="g8117" transform="translate(0 -682.665)">
              <g id="g8119" clip-path="url(#clip-path)">
                <g id="g8125" transform="translate(-33.259 0.709)">
                  <path id="path8127" d="M-338.457-377.826h-25.835v-25.108c5.31-7.679,37.755-5.416,25.835,25.108" transform="translate(364.292 406.667)" fill="#fbdf63"/>
                </g>
                <g id="g8129" transform="translate(-33.259 0.709)">
                  <path id="path8131" d="M-338.457-377.826h-.619c6.164-24.728-15.887-30.6-25.216-24.374v-.734c5.31-7.679,37.755-5.416,25.835,25.108" transform="translate(364.292 406.667)" fill="#f9d11f"/>
                </g>
              </g>
            </g>
            <g id="g8265" transform="translate(0 -682.665)">
              <g id="g8267" clip-path="url(#clip-path)">
                <g id="g8273" transform="translate(-33.259 51.036)">
                  <path id="path8275" d="M-338.457-377.654h-25.835v-25.1c5.31-7.676,37.755-5.413,25.835,25.1" transform="translate(364.292 406.481)" fill="#003343"/>
                </g>
                <g id="g8277" transform="translate(-33.259 51.036)">
                  <path id="path8279" d="M-338.457-377.654h-.619c6.164-24.717-15.887-30.585-25.216-24.362v-.734c5.31-7.676,37.755-5.413,25.835,25.1" transform="translate(364.292 406.481)" fill="#002439"/>
                </g>
              </g>
            </g>
            <g id="g8281" transform="translate(0 -682.665)">
              <g id="g8283" clip-path="url(#clip-path)">
                <g id="g8289" transform="translate(17.066 51.014)">
                  <path id="path8291" d="M-338.457-377.826h-25.835v-25.108c5.31-7.679,37.755-5.416,25.835,25.108" transform="translate(364.292 406.667)" fill="#ff7e50"/>
                </g>
                <g id="g8293" transform="translate(17.066 51.014)">
                  <path id="path8295" d="M-338.457-377.826h-.619c6.164-24.728-15.887-30.6-25.216-24.374v-.734c5.31-7.679,37.755-5.416,25.835,25.108" transform="translate(364.292 406.667)" fill="#ff6247"/>
                </g>
                <g id="g8297" transform="translate(2.941 54.225)">
                  <path id="path8299" d="M-233.028-131.751v15.573h-14.6c-12.2-25.649,14.6-34.273,14.6-15.573" transform="translate(250.816 141.808)" fill="#ffa68a"/>
                </g>
                <g id="g8301" transform="translate(2.941 54.225)">
                  <path id="path8303" d="M-233.028-131.751c-.9-16.1-20.23-9.82-14.176,15.573h-.427c-12.2-25.649,14.6-34.273,14.6-15.573" transform="translate(250.816 141.808)" fill="#ff7e50"/>
                </g>
              </g>
            </g>
          </g>
        </g>
      </g>
      <g id="talking_3724949" transform="translate(1054.99 8952.99)">
        <path id="Path_1052458" data-name="Path 1052458" d="M47.167,53h5.422a3.1,3.1,0,0,1,3.1,3.1v3.873H34V56.1A3.1,3.1,0,0,1,37.1,53H42.52" transform="translate(-7.441 -11.726)" fill="#78a0d4"/>
        <path id="Path_1052459" data-name="Path 1052459" d="M52.392,36v4.647a6.2,6.2,0,0,1-12.392,0V36" transform="translate(-8.794 -7.892)" fill="#fbe1ca"/>
        <path id="Path_1052460" data-name="Path 1052460" d="M45.745,26a7.745,7.745,0,0,1,7.745,7.745H38A7.745,7.745,0,0,1,45.745,26Z" transform="translate(-8.343 -5.637)" fill="#78a0d4"/>
        <g id="Group_1208163" data-name="Group 1208163" transform="translate(31.206 23.461)">
          <path id="Path_1052461" data-name="Path 1052461" d="M45,34.647V32.324a2.324,2.324,0,1,1,4.647,0v2.324" transform="translate(-41.127 -30)" fill="#976947"/>
          <path id="Path_1052462" data-name="Path 1052462" d="M52,36a3.968,3.968,0,0,0,3.006,3.849l.092.023V36Z" transform="translate(-42.706 -31.353)" fill="#976947"/>
          <path id="Path_1052463" data-name="Path 1052463" d="M43.1,36a3.968,3.968,0,0,1-3.006,3.849L40,39.873V36Z" transform="translate(-40 -31.353)" fill="#976947"/>
        </g>
        <path id="Path_1052464" data-name="Path 1052464" d="M15.167,51h5.422a3.1,3.1,0,0,1,3.1,3.1V59.52H2V54.1A3.1,3.1,0,0,1,5.1,51H10.52" transform="translate(-0.225 -11.275)" fill="#e1656e"/>
        <path id="Path_1052465" data-name="Path 1052465" d="M17.647,48.418a6.214,6.214,0,0,1-4.647,0v2a2.324,2.324,0,0,0,4.647,0Z" transform="translate(-2.706 -10.692)" fill="#f2b9a1"/>
        <path id="Path_1052466" data-name="Path 1052466" d="M49.647,49.418a6.214,6.214,0,0,1-4.647,0v2.774a2.324,2.324,0,1,0,4.647,0Z" transform="translate(-9.922 -10.918)" fill="#f2b9a1"/>
        <path id="Path_1052467" data-name="Path 1052467" d="M5.549,41.49h15.49a1.549,1.549,0,0,0,1.549-1.549V30.647A4.647,4.647,0,0,0,17.941,26H8.647A4.647,4.647,0,0,0,4,30.647v9.294A1.549,1.549,0,0,0,5.549,41.49Z" transform="translate(-0.676 -5.637)" fill="#c18e59"/>
        <path id="Path_1052468" data-name="Path 1052468" d="M20.392,32.324v6.2A6.2,6.2,0,1,1,8,38.52v-6.2h3.1L13.422,30l2.324,2.324Z" transform="translate(-1.578 -6.539)" fill="#fbe1ca"/>
        <path id="Path_1052469" data-name="Path 1052469" d="M56,39h1.549a1.549,1.549,0,1,1,0,3.1H56" transform="translate(-12.402 -8.569)" fill="#f2b9a1"/>
        <path id="Path_1052470" data-name="Path 1052470" d="M39.1,39H37.549a1.549,1.549,0,1,0,0,3.1H39.1" transform="translate(-7.892 -8.569)" fill="#f2b9a1"/>
        <path id="Path_1052471" data-name="Path 1052471" d="M20.8,15.006a4.656,4.656,0,0,0,.717,1.4l1.394,1.859A7.517,7.517,0,0,1,18.1,16.521a14.3,14.3,0,0,1-5.254.969C6.855,17.49,2,14.023,2,9.745S6.855,2,12.843,2,23.686,5.467,23.686,9.745A6.719,6.719,0,0,1,20.8,15.006Z" transform="translate(-0.225 -0.225)" fill="#f9d266"/>
        <path id="Path_1052472" data-name="Path 1052472" d="M36.886,15.006a4.656,4.656,0,0,1-.717,1.4l-1.394,1.859a7.517,7.517,0,0,0,4.815-1.744,14.3,14.3,0,0,0,5.254.969c5.988,0,10.843-3.467,10.843-7.745S50.832,2,44.843,2,34,5.467,34,9.745a6.719,6.719,0,0,0,2.886,5.261Z" transform="translate(-7.441 -0.225)" fill="#f0ae42"/>
        <path id="Path_1052473" data-name="Path 1052473" d="M9,8H19.843V9.549H9Z" transform="translate(-1.804 -1.578)" fill="#f0ae42"/>
        <path id="Path_1052474" data-name="Path 1052474" d="M7,12H20.941v1.549H7Z" transform="translate(-1.353 -2.48)" fill="#f0ae42"/>
        <path id="Path_1052475" data-name="Path 1052475" d="M41.549,14.1A1.549,1.549,0,1,1,43.1,12.549,1.549,1.549,0,0,1,41.549,14.1Z" transform="translate(-8.794 -2.255)" fill="#f9d266"/>
        <path id="Path_1052476" data-name="Path 1052476" d="M47.549,14.1A1.549,1.549,0,1,1,49.1,12.549,1.549,1.549,0,0,1,47.549,14.1Z" transform="translate(-10.147 -2.255)" fill="#f9d266"/>
        <path id="Path_1052477" data-name="Path 1052477" d="M53.549,14.1A1.549,1.549,0,1,1,55.1,12.549,1.549,1.549,0,0,1,53.549,14.1Z" transform="translate(-11.5 -2.255)" fill="#f9d266"/>
        <path id="Path_1052478" data-name="Path 1052478" d="M34,57.5H52.588v3.485H34Z" transform="translate(-7.441 -12.74)" fill="#87b0dd"/>
        <path id="Path_1052479" data-name="Path 1052479" d="M2,56H20.33v4.647H2Z" transform="translate(-0.225 -12.402)" fill="#f29b99"/>
        <path id="Path_1052480" data-name="Path 1052480" d="M52.363,45.912H47.716V44.4a6.987,6.987,0,0,0,3.693-4.686h.954a2.324,2.324,0,1,0,0-4.647h-.775v-.775h.775a.775.775,0,0,0,.775-.775,8.52,8.52,0,1,0-17.039,0,.775.775,0,0,0,.775.775h.775v.775h-.775a2.324,2.324,0,0,0,0,4.647h.954A6.987,6.987,0,0,0,41.52,44.4v1.51H36.873A3.877,3.877,0,0,0,33,49.784v3.873a.775.775,0,0,0,.775.775H55.461a.775.775,0,0,0,.775-.775V49.784a3.877,3.877,0,0,0-3.873-3.873Zm0-9.294a.775.775,0,1,1,0,1.549h-.775V36.618Zm-2.324-.369A3.175,3.175,0,0,1,48.6,34.294h1.443Zm-3.873-3.5h-3.1V31.2a1.549,1.549,0,1,1,3.1,0Zm-1.549-6.2a6.981,6.981,0,0,1,6.928,6.2h-3.83V31.2a3.1,3.1,0,1,0-6.2,0v1.549H37.69a6.981,6.981,0,0,1,6.928-6.2Zm-3.979,7.745A3.175,3.175,0,0,1,39.2,36.249V34.294Zm-3.766,3.873a.775.775,0,1,1,0-1.549h.775v1.549Zm2.324,0v-.215a4.724,4.724,0,0,0,3.033-3.658h4.777a4.724,4.724,0,0,0,3.033,3.657v.215a5.422,5.422,0,1,1-10.843,0Zm5.422,6.971a6.948,6.948,0,0,0,1.549-.18v1.729a1.549,1.549,0,0,1-3.1,0V44.958a6.948,6.948,0,0,0,1.549.18Zm10.069,7.745H34.549v-3.1a2.324,2.324,0,0,1,2.324-2.324H41.63a3.083,3.083,0,0,0,5.976,0h4.757a2.324,2.324,0,0,1,2.324,2.324Z" transform="translate(-7.216 -5.412)"/>
        <path id="Path_1052481" data-name="Path 1052481" d="M20.363,44.363H15.716v-1.51A6.992,6.992,0,0,0,17.8,41.265h2.564a2.324,2.324,0,0,0,2.324-2.324v-8.52A5.428,5.428,0,0,0,17.265,25H7.971a5.428,5.428,0,0,0-5.422,5.422v8.52a2.324,2.324,0,0,0,2.324,2.324H7.437A6.992,6.992,0,0,0,9.52,42.852v1.51H4.873A3.877,3.877,0,0,0,1,48.235v5.422a.775.775,0,0,0,.775.775H23.461a.775.775,0,0,0,.775-.775V48.235a3.877,3.877,0,0,0-3.873-3.873ZM4.873,39.716a.775.775,0,0,1-.775-.775v-8.52a3.877,3.877,0,0,1,3.873-3.873h9.294a3.877,3.877,0,0,1,3.873,3.873v8.52a.775.775,0,0,1-.775.775h-1.51a6.919,6.919,0,0,0,.736-3.1V31.2a.775.775,0,0,0-.775-.775H14.487l-2.1-2.1a.775.775,0,0,0-1.1,0l-2.1,2.1H6.422a.775.775,0,0,0-.775.775v5.422a6.919,6.919,0,0,0,.736,3.1Zm2.324-3.1V31.971H9.52a.774.774,0,0,0,.547-.227l1.776-1.776,1.776,1.776a.775.775,0,0,0,.548.227h3.873v4.647a5.422,5.422,0,1,1-10.843,0Zm5.422,6.971a6.948,6.948,0,0,0,1.549-.18v1.729a1.549,1.549,0,1,1-3.1,0V43.409A6.949,6.949,0,0,0,12.618,43.588Zm10.069,9.294H2.549V48.235a2.324,2.324,0,0,1,2.324-2.324H9.63a3.083,3.083,0,0,0,5.976,0h4.757a2.324,2.324,0,0,1,2.324,2.324Z" transform="translate(0 -5.412)"/>
        <path id="Path_1052482" data-name="Path 1052482" d="M12.618,1C6.212,1,1,4.822,1,9.52s5.212,8.52,11.618,8.52a15.317,15.317,0,0,0,5.119-.864,8.317,8.317,0,0,0,4.95,1.639.775.775,0,0,0,.62-1.239l-1.394-1.859a3.9,3.9,0,0,1-.414-.69A7.3,7.3,0,0,0,24.235,9.52c0-4.7-5.212-8.52-11.618-8.52ZM20.1,14.167a.775.775,0,0,0-.266.845,5.409,5.409,0,0,0,.836,1.633l.3.4a6.76,6.76,0,0,1-2.6-1.341.775.775,0,0,0-.5-.179.761.761,0,0,0-.285.054,13.61,13.61,0,0,1-4.969.914c-5.552,0-10.069-3.127-10.069-6.971S7.066,2.549,12.618,2.549,22.686,5.676,22.686,9.52A5.959,5.959,0,0,1,20.1,14.167Z"/>
        <path id="Path_1052483" data-name="Path 1052483" d="M35.737,15.026a3.851,3.851,0,0,1-.414.69l-1.394,1.859a.775.775,0,0,0,.62,1.239,8.317,8.317,0,0,0,4.95-1.639,15.317,15.317,0,0,0,5.119.864c6.406,0,11.618-3.822,11.618-8.52S51.024,1,44.618,1,33,4.822,33,9.52a7.3,7.3,0,0,0,2.737,5.506ZM44.618,2.549c5.552,0,10.069,3.127,10.069,6.971S50.169,16.49,44.618,16.49a13.61,13.61,0,0,1-4.969-.914.775.775,0,0,0-.781.125,6.76,6.76,0,0,1-2.6,1.341l.3-.4a5.421,5.421,0,0,0,.836-1.633.775.775,0,0,0-.266-.845A5.964,5.964,0,0,1,34.549,9.52C34.549,5.676,39.066,2.549,44.618,2.549Z" transform="translate(-7.216 0)"/>
        <path id="Path_1052484" data-name="Path 1052484" d="M9,8H19.843V9.549H9Z" transform="translate(-1.804 -1.578)"/>
        <path id="Path_1052485" data-name="Path 1052485" d="M7,12H20.941v1.549H7Z" transform="translate(-1.353 -2.48)"/>
        <circle id="Ellipse_13480" data-name="Ellipse 13480" cx="1.5" cy="1.5" r="1.5" transform="translate(31.01 9.01)"/>
        <circle id="Ellipse_13481" data-name="Ellipse 13481" cx="1.5" cy="1.5" r="1.5" transform="translate(36.01 9.01)"/>
        <circle id="Ellipse_13482" data-name="Ellipse 13482" cx="1.5" cy="1.5" r="1.5" transform="translate(40.01 9.01)"/>
      </g>
    </g>
  </g>
</svg>
