<svg xmlns="http://www.w3.org/2000/svg" xmlns:xlink="http://www.w3.org/1999/xlink" width="113" height="113" viewBox="0 0 113 113">
  <defs>
    <filter id="Path_982547" x="0" y="0" width="113" height="113" filterUnits="userSpaceOnUse">
      <feOffset dy="3" input="SourceAlpha"/>
      <feGaussianBlur stdDeviation="3" result="blur"/>
      <feFlood flood-opacity="0.161"/>
      <feComposite operator="in" in2="blur"/>
      <feComposite in="SourceGraphic"/>
    </filter>
  </defs>
  <g id="Group_1208196" data-name="Group 1208196" transform="translate(-1112 -5627.425)">
    <g id="Group_1208038" data-name="Group 1208038">
      <g id="Group_1202104" data-name="Group 1202104" transform="translate(0 -1149.226)">
        <g id="Group_1201923" data-name="Group 1201923" transform="translate(-4174.49 4856.378)">
          <g id="Group_1176928" data-name="Group 1176928" transform="translate(5295.49 1926.273)">
            <g id="Group_1172322" data-name="Group 1172322" transform="translate(0 0)">
              <g id="Group_1164700" data-name="Group 1164700">
                <g id="Group_1160931" data-name="Group 1160931">
                  <g id="Group_1160749" data-name="Group 1160749">
                    <g id="Group_1158891" data-name="Group 1158891">
                      <g id="Group_1157406" data-name="Group 1157406">
                        <g id="Group_1155793" data-name="Group 1155793">
                          <g id="Group_1154704" data-name="Group 1154704">
                            <g id="Group_1150790" data-name="Group 1150790">
                              <g id="Group_1154214" data-name="Group 1154214">
                                <g id="Group_1152583" data-name="Group 1152583">
                                  <g id="Group_1146973" data-name="Group 1146973">
                                    <g id="Group_1146954" data-name="Group 1146954">
                                      <g transform="matrix(1, 0, 0, 1, -9, -6)" filter="url(#Path_982547)">
                                        <g id="Path_982547-2" data-name="Path 982547" transform="translate(9 6)" fill="#ebe9f0">
                                          <path d="M 47.5000114440918 93.49987030029297 C 41.28938293457031 93.49987030029297 35.26534652709961 92.28384399414062 29.5951976776123 89.88558959960938 C 24.11773109436035 87.56881713867188 19.19814491271973 84.25183868408203 14.97310447692871 80.02680206298828 C 10.74805164337158 75.80176544189453 7.43107795715332 70.88218688964844 5.114304542541504 65.40472412109375 C 2.716038227081299 59.73458862304688 1.500011444091797 53.71054840087891 1.500011444091797 47.49993515014648 C 1.500011444091797 41.28932189941406 2.716038227081299 35.26528167724609 5.114304542541504 29.59514808654785 C 7.43107795715332 24.1176815032959 10.74805164337158 19.1981086730957 14.97310447692871 14.97306823730469 C 19.19814491271973 10.74802875518799 24.11773109436035 7.431055068969727 29.5951976776123 5.11428165435791 C 35.26534652709961 2.716028451919556 41.28938293457031 1.500001788139343 47.5000114440918 1.500001788139343 C 53.71063995361328 1.500001788139343 59.73467636108398 2.716028451919556 65.40482330322266 5.11428165435791 C 70.88229370117188 7.431055068969727 75.8018798828125 10.74802875518799 80.02691650390625 14.97306823730469 C 84.25196838378906 19.1981086730957 87.56894683837891 24.1176815032959 89.88571929931641 29.59514808654785 C 92.28398132324219 35.26528167724609 93.50001525878906 41.28932189941406 93.50001525878906 47.49993515014648 C 93.50001525878906 53.71054840087891 92.28398132324219 59.73458862304688 89.88571929931641 65.40472412109375 C 87.56894683837891 70.88218688964844 84.25196838378906 75.80176544189453 80.02691650390625 80.02680206298828 C 75.8018798828125 84.25183868408203 70.88229370117188 87.56881713867188 65.40482330322266 89.88558959960938 C 59.73467636108398 92.28384399414062 53.71063995361328 93.49987030029297 47.5000114440918 93.49987030029297 Z" stroke="none"/>
                                          <path d="M 47.5000114440918 3 C 41.49122619628906 3 35.66378021240234 4.1761474609375 30.17951965332031 6.495796203613281 C 24.880859375 8.7369384765625 20.12153625488281 11.94596862792969 16.03376770019531 16.03373718261719 C 11.94598388671875 20.12149047851562 8.736968994140625 24.88081359863281 6.495811462402344 30.17947387695312 C 4.176162719726562 35.66371917724609 3.000007629394531 41.49116516113281 3.000007629394531 47.49993515014648 C 3.000007629394531 53.50870513916016 4.176162719726562 59.33615112304688 6.495811462402344 64.82039642333984 C 8.736968994140625 70.11905670166016 11.94598388671875 74.87837982177734 16.03376770019531 78.96613311767578 C 20.12153625488281 83.05390167236328 24.880859375 86.26293182373047 30.17951965332031 88.50407409667969 C 35.66378021240234 90.82372283935547 41.49122619628906 91.99987030029297 47.5000114440918 91.99987030029297 C 53.50879669189453 91.99987030029297 59.33624267578125 90.82372283935547 64.82050323486328 88.50407409667969 C 70.11916351318359 86.26293182373047 74.87848663330078 83.05390167236328 78.96625518798828 78.96613311767578 C 83.05403900146484 74.87837982177734 86.2630615234375 70.11905670166016 88.50421142578125 64.82039642333984 C 90.82386016845703 59.33615112304688 92.00001525878906 53.50870513916016 92.00001525878906 47.49993515014648 C 92.00001525878906 41.49116516113281 90.82386016845703 35.66371917724609 88.50421142578125 30.17947387695312 C 86.2630615234375 24.88081359863281 83.05403900146484 20.12149047851562 78.96625518798828 16.03373718261719 C 74.87848663330078 11.94596862792969 70.11916351318359 8.7369384765625 64.82050323486328 6.495796203613281 C 59.33624267578125 4.1761474609375 53.50879669189453 3 47.5000114440918 3 M 47.5000114440918 0 C 73.73353576660156 0 95.00001525878906 21.26644134521484 95.00001525878906 47.49993515014648 C 95.00001525878906 73.73342895507812 73.73353576660156 94.99987030029297 47.5000114440918 94.99987030029297 C 21.26648712158203 94.99987030029297 7.62939453125e-06 73.73342895507812 7.62939453125e-06 47.49993515014648 C 7.62939453125e-06 21.26644134521484 21.26648712158203 0 47.5000114440918 0 Z" stroke="none" fill="#453179"/>
                                        </g>
                                      </g>
                                    </g>
                                  </g>
                                </g>
                              </g>
                            </g>
                          </g>
                        </g>
                      </g>
                    </g>
                  </g>
                </g>
              </g>
            </g>
          </g>
        </g>
      </g>
      <g id="kids_15540132" transform="translate(1133.581 5644.825)">
        <g id="Group_1208036" data-name="Group 1208036" transform="translate(4.736 2.917)">
          <g id="Group_1208032" data-name="Group 1208032" transform="translate(0 7.783)">
            <path id="Path_1051953" data-name="Path 1051953" d="M43.666,118.859c-.228,3.6-2.124,3.3-1.138,5.344s.455,3.943-1.9,4.133a3.794,3.794,0,0,1-4.171,3.6H17.217a3.794,3.794,0,0,1-4.171-3.6c-2.351-.19-2.882-2.086-1.9-4.133s-.909-1.744-1.137-5.344,2.5-3.226,3.339-6.335v-3.547a13.488,13.488,0,0,1,26.975,0v3.547c.836,3.11,3.566,2.737,3.339,6.335Z" transform="translate(-10 -92.783)" fill="#417195"/>
            <path id="Path_1051954" data-name="Path 1051954" d="M70.753,217.4c-2.808,0-4.179-2.958-4.179-2.958s-.825,1.213-4.086,1.213-3.792-2.351-3.792-2.351c-1.365,5.081-7.122,5.384-7.122,5.384l1.244,8.663a5.686,5.686,0,0,0,3.655,4.525l3.6,1.334a8.016,8.016,0,0,0,3.234.485,8.016,8.016,0,0,0,3.234-.485l3.6-1.334a5.686,5.686,0,0,0,3.655-4.525l1.168-8.135c-3.137,0-4.221-1.816-4.221-1.816Z" transform="translate(-46.473 -196.144)" fill="#ffd5ae"/>
            <path id="Path_1051955" data-name="Path 1051955" d="M70.752,217.4c-2.808,0-4.179-2.958-4.179-2.958s-.825,1.213-4.086,1.213-3.792-2.351-3.792-2.351c-1.365,5.081-7.122,5.384-7.122,5.384l.419,2.92a12.892,12.892,0,0,0,3.819-1.012,10.448,10.448,0,0,0,3.611-2.572,7.847,7.847,0,0,0,3.064.576,11.934,11.934,0,0,0,3.234-.4,7.454,7.454,0,0,0,3.59,1.994,8.326,8.326,0,0,0,5.241,1.961l.422-2.935c-3.137,0-4.221-1.816-4.221-1.816Z" transform="translate(-46.473 -196.144)" fill="#f7bfa9"/>
            <path id="Path_1051956" data-name="Path 1051956" d="M125.08,332.9h5.362v.689a2.27,2.27,0,0,1-2.269,2.269h-.824a2.27,2.27,0,0,1-2.269-2.269V332.9Z" transform="translate(-110.96 -301.061)" fill="#fb5657"/>
            <g id="Group_1208029" data-name="Group 1208029" transform="translate(2.818 36.965)">
              <path id="Path_1051957" data-name="Path 1051957" d="M58.529,381.052a4.357,4.357,0,0,0-3.074-3.161l-2.2-.607a4.144,4.144,0,0,1-2.795-2.583l-.277.1a8.014,8.014,0,0,1-3.234.485,8.014,8.014,0,0,1-3.234-.485l-.276-.1a4.144,4.144,0,0,1-2.794,2.583l-2.2.607a4.357,4.357,0,0,0-3.074,3.161l-2.4,9.776H60.93l-2.4-9.776Z" transform="translate(-32.964 -374.7)" fill="#fb5657"/>
              <path id="Path_1051958" data-name="Path 1051958" d="M63.572,412.226l1.506-6.129a1.414,1.414,0,0,1,1-1.025l2.2-.607a7.09,7.09,0,0,0,3.315-2.018,10.965,10.965,0,0,0,1.754.141c.15,0,.3,0,.452-.009s.3.009.452.009a10.954,10.954,0,0,0,1.756-.141,7.09,7.09,0,0,0,3.316,2.018l2.2.607a1.414,1.414,0,0,1,1,1.025l1.506,6.129H63.572Z" transform="translate(-59.817 -399.042)" fill="#ff7b82"/>
              <path id="Path_1051959" data-name="Path 1051959" d="M103.862,374.7l-.277.1a11.014,11.014,0,0,1-6.468,0l-.276-.1a4.144,4.144,0,0,1-2.794,2.583l-.209.058a8.761,8.761,0,0,0,13.029,0l-.209-.058a4.144,4.144,0,0,1-2.795-2.583Z" transform="translate(-86.369 -374.7)" fill="#f7bfa9"/>
              <path id="Path_1051960" data-name="Path 1051960" d="M110.1,374.7l-.277.1a11.015,11.015,0,0,1-6.468,0l-.276-.1a4.147,4.147,0,0,1-2.132,2.337l1.425.527a10.926,10.926,0,0,0,3.8.681c.15,0,.3,0,.452-.009s.3.009.452.009h0a10.926,10.926,0,0,0,3.8-.681l1.383-.512A4.146,4.146,0,0,1,110.1,374.7Z" transform="translate(-92.602 -374.7)" fill="#dd9b90"/>
            </g>
            <g id="Group_1208030" data-name="Group 1208030">
              <path id="Path_1051961" data-name="Path 1051961" d="M74.984,81.068s3.13,1.262,5.293-.468c1.082-.865.441-1.7-.471-2.327a5.84,5.84,0,0,1-2.36-3.348c-.28-1.068-.855-1.954-2.033-1.227-2.357,1.456-2.221,4.827-2.221,4.827Z" transform="translate(-65.438 -73.432)" fill="#ff7b82"/>
              <path id="Path_1051962" data-name="Path 1051962" d="M17.652,125.191s.136,3.372-2.221,4.827c-1.178.728-1.753-.158-2.033-1.227a5.84,5.84,0,0,0-2.36-3.348c-.912-.623-1.553-1.462-.471-2.327,2.164-1.73,5.293-.468,5.293-.468Z" transform="translate(-10 -116.219)" fill="#ff7b82"/>
              <circle id="Ellipse_13438" data-name="Ellipse 13438" cx="1.94" cy="1.94" r="1.94" transform="translate(5.764 5.092)" fill="#fb5657"/>
            </g>
            <g id="Group_1208031" data-name="Group 1208031" transform="translate(2.817 41.564)">
              <path id="Path_1051963" data-name="Path 1051963" d="M39.485,423.719H32.96l2.4-9.776a4.343,4.343,0,0,1,.886-1.752s3.815,2.211,3.237,11.529Z" transform="translate(-32.96 -412.19)" fill="#f7bfa9"/>
              <path id="Path_1051964" data-name="Path 1051964" d="M213.819,423.719h-6.525c-.578-9.318,3.237-11.529,3.237-11.529a4.343,4.343,0,0,1,.886,1.752Z" transform="translate(-185.851 -412.19)" fill="#f7bfa9"/>
            </g>
          </g>
          <g id="Group_1208033" data-name="Group 1208033" transform="translate(30.414 10.905)">
            <path id="Path_1051965" data-name="Path 1051965" d="M291.539,381.052a4.357,4.357,0,0,0-3.074-3.161l-2.2-.607a4.144,4.144,0,0,1-2.795-2.583l-.277.1a11.015,11.015,0,0,1-6.468,0l-.276-.1a4.143,4.143,0,0,1-2.794,2.583l-2.2.607a4.357,4.357,0,0,0-3.074,3.161l-2.4,9.776H293.94l-2.4-9.776Z" transform="translate(-264.98 -340.857)" fill="#93cf00"/>
            <path id="Path_1051966" data-name="Path 1051966" d="M296.582,412.226l1.506-6.129a1.414,1.414,0,0,1,1-1.025l2.2-.607a7.092,7.092,0,0,0,3.315-2.018,10.965,10.965,0,0,0,1.755.141c.15,0,.3,0,.452-.009s.3.009.452.009a10.967,10.967,0,0,0,1.756-.141,7.092,7.092,0,0,0,3.316,2.018l2.2.607a1.414,1.414,0,0,1,1,1.025l1.506,6.129H296.582Z" transform="translate(-291.833 -365.2)" fill="#abe200"/>
            <path id="Path_1051967" data-name="Path 1051967" d="M295.275,213.185c-1.289,0-4.483-4.2-4.483-4.2-4.038,3.211-19.271,5.1-20.771,3.868l-.01-.01V215.9a1.74,1.74,0,0,1,.248-.02h1.6a2.023,2.023,0,0,1,2.023,2.023v.05h19.238v-.05a2.023,2.023,0,0,1,2.023-2.023h1.6a1.739,1.739,0,0,1,.248.02v-2.72h-1.711Z" transform="translate(-268.522 -195.471)" fill="#417195"/>
            <path id="Path_1051968" data-name="Path 1051968" d="M292.033,113.523s.544-7.811-3.207-7.887c0,0-4.509-9.859-15.43-5.764s-10.712,15.062-9.1,16.381c1.5,1.227,16.734-.657,20.771-3.868,0,0,3.194,4.2,4.483,4.2h2.483v-3.067Z" transform="translate(-262.797 -98.876)" fill="#417195"/>
            <path id="Path_1051969" data-name="Path 1051969" d="M259.615,265.255h1.6a2.024,2.024,0,0,1,2.023,2.023V269.7H259.9a2.024,2.024,0,0,1-2.023-2.023v-.683A1.737,1.737,0,0,1,259.615,265.255Z" transform="translate(-257.879 -244.841)" fill="#f7bfa9"/>
            <path id="Path_1051970" data-name="Path 1051970" d="M2.023,0H5.358V2.419A2.024,2.024,0,0,1,3.334,4.443h-1.6A1.737,1.737,0,0,1,0,2.706V2.023A2.024,2.024,0,0,1,2.023,0Z" transform="translate(29.953 24.857) rotate(180)" fill="#f7bfa9"/>
            <path id="Path_1051971" data-name="Path 1051971" d="M301.554,208.979c-3.439,2.734-15,4.506-19.276,4.214l1.488,10.364a5.686,5.686,0,0,0,3.655,4.525l3.6,1.334a11.015,11.015,0,0,0,6.468,0l3.6-1.334a5.686,5.686,0,0,0,3.655-4.525l1.49-10.373h-.206c-1.289,0-4.483-4.2-4.483-4.2Z" transform="translate(-279.284 -195.47)" fill="#ffd5ae"/>
            <path id="Path_1051972" data-name="Path 1051972" d="M306.243,213.185h-.206c-1.289,0-4.483-4.2-4.483-4.2-3.439,2.734-15,4.506-19.276,4.214l.426,2.967c.195.006.4.009.607.009a55.486,55.486,0,0,0,10.356-1.234,35.675,35.675,0,0,0,7.2-2.174q.135.151.274.3c1.889,2.07,3.266,2.972,4.684,3.055Z" transform="translate(-279.284 -195.471)" fill="#f7bfa9"/>
            <path id="Path_1051973" data-name="Path 1051973" d="M358.089,332.9h5.362v.689a2.27,2.27,0,0,1-2.269,2.269h-.824a2.27,2.27,0,0,1-2.269-2.269Z" transform="translate(-345.794 -304.183)" fill="#fb5657"/>
            <path id="Path_1051974" data-name="Path 1051974" d="M336.871,374.7l-.277.1a11.015,11.015,0,0,1-6.468,0l-.276-.1a4.144,4.144,0,0,1-2.794,2.583l-.209.058a8.761,8.761,0,0,0,13.028,0l-.209-.058A4.144,4.144,0,0,1,336.871,374.7Z" transform="translate(-318.384 -340.857)" fill="#f7bfa9"/>
            <path id="Path_1051975" data-name="Path 1051975" d="M342.98,374.7l-.277.1a11.014,11.014,0,0,1-6.468,0l-.276-.1a4.146,4.146,0,0,1-2.149,2.345l1.4.519a10.927,10.927,0,0,0,3.8.681c.15,0,.3,0,.452-.009s.3.009.452.009a10.925,10.925,0,0,0,3.8-.681l1.4-.52A4.147,4.147,0,0,1,342.98,374.7Z" transform="translate(-324.494 -340.857)" fill="#dd9b90"/>
          </g>
          <g id="Group_1208035" data-name="Group 1208035" transform="translate(15.835 0)">
            <path id="Path_1051976" data-name="Path 1051976" d="M272.818,112.836a5.289,5.289,0,0,0,1.389-1.438,16.385,16.385,0,0,0,2.375-7.652c.1-1.319.185-2.665.247-3.954a15.662,15.662,0,0,0-3.433.884c-10.921,4.1-10.712,15.062-9.1,16.381a1.889,1.889,0,0,0,.844.277,26.071,26.071,0,0,0,2.837-1.407c1.994-1.122,3.889-2.418,4.841-3.091Z" transform="translate(-248.219 -88.775)" fill="#2a4d74"/>
            <path id="Path_1051977" data-name="Path 1051977" d="M154.3,114.107a4.728,4.728,0,0,1-.744-1.582v-3.547A13.487,13.487,0,0,0,140.063,95.49q-.507,0-1,.037c.065,1.437.153,2.958.27,4.445a16.381,16.381,0,0,0,2.375,7.651,5.282,5.282,0,0,0,1.389,1.438c.951.672,2.846,1.968,4.841,3.091,2.437,1.372,4.267,2.067,5.442,2.067a4.4,4.4,0,0,0,.92-.113Z" transform="translate(-139.059 -85.001)" fill="#2a4d74"/>
            <path id="Path_1051978" data-name="Path 1051978" d="M173.329,36.274c-.041,0-1.032-.019-4-1.689-1.88-1.058-3.68-2.29-4.586-2.93a2.353,2.353,0,0,1-.62-.639,13.417,13.417,0,0,1-1.908-6.278c-.253-3.209-.365-6.6-.415-8.879a1.823,1.823,0,0,1,1.135-1.72l10.142-4.092a.667.667,0,0,1,.5,0l10.142,4.092a1.822,1.822,0,0,1,1.135,1.72c-.049,2.279-.161,5.669-.415,8.879a13.417,13.417,0,0,1-1.908,6.278,2.353,2.353,0,0,1-.62.639c-.906.64-2.706,1.872-4.586,2.93-2.965,1.669-3.956,1.689-4,1.689Z" transform="translate(-159.012 -10)" fill="#0087ff"/>
            <path id="Path_1051979" data-name="Path 1051979" d="M194.515,55.169a16.988,16.988,0,0,1-2.553-1.233c-1.708-.961-3.361-2.086-4.245-2.708a10.794,10.794,0,0,1-1.378-4.8c-.22-2.791-.332-5.735-.388-7.929l8.564-3.455,8.564,3.455c-.056,2.193-.167,5.136-.388,7.929a10.8,10.8,0,0,1-1.378,4.8c-.884.622-2.537,1.747-4.245,2.708a17.01,17.01,0,0,1-2.553,1.233Z" transform="translate(-180.198 -31.967)" fill="#ffd300"/>
            <g id="Group_1208034" data-name="Group 1208034" transform="translate(7.294 7.417)">
              <path id="Path_1051980" data-name="Path 1051980" d="M211.856,70.98a2.081,2.081,0,0,0-2.939.17L203.9,76.785l-1.83-1.83a2.082,2.082,0,0,0-2.944,2.944l3.39,3.39a2.094,2.094,0,0,0,3.027-.088l6.483-7.282a2.082,2.082,0,0,0-.17-2.939Z" transform="translate(-198.507 -70.453)" fill="#93cf00"/>
              <path id="Path_1051981" data-name="Path 1051981" d="M214.511,90.948a.561.561,0,0,1-.406-.151l-3.387-3.387a.569.569,0,0,1-.166-.661.686.686,0,0,1,.575-.413.7.7,0,0,1,.453.212l2.909,2.909,6.054-6.8a.609.609,0,1,1,.91.81l-6.5,7.305a.576.576,0,0,1-.438.175h0Z" transform="translate(-209.033 -80.981)" fill="#abe200"/>
            </g>
          </g>
        </g>
        <g id="Group_1208037" data-name="Group 1208037" transform="translate(4 1.926)">
          <path id="Path_1051982" data-name="Path 1051982" d="M358.187,324.818h-5.362a.736.736,0,0,0-.736.736v.689a3.009,3.009,0,0,0,3.005,3.005h.824a3.009,3.009,0,0,0,3.005-3.005v-.689A.736.736,0,0,0,358.187,324.818Zm-2.269,2.958h-.824a1.535,1.535,0,0,1-1.532-1.485h3.888A1.535,1.535,0,0,1,355.918,327.776Z" transform="translate(-309.38 -285.2)" fill="#002356"/>
          <path id="Path_1051983" data-name="Path 1051983" d="M64.35,33.45V32.017a.738.738,0,0,0,.772-.736V28.237c.161-2.567-.165-8.133-3.471-8.607-2.494-4.35-7.289-8.273-14.665-6.245.086-1.822.136-3.522.165-4.847a2.562,2.562,0,0,0-1.6-2.419L35.413,2.027a1.411,1.411,0,0,0-1.05,0L24.222,6.119a2.563,2.563,0,0,0-1.6,2.419c.024,1.1.063,2.457.124,3.927a14.206,14.206,0,0,0-4.839.427,5.115,5.115,0,0,1-.453-1.142A2.6,2.6,0,0,0,16.1,9.822a1.912,1.912,0,0,0-1.772.261,6.114,6.114,0,0,0-2.55,4.8,2.674,2.674,0,0,0-1.552,1.094,6.113,6.113,0,0,0-5.38.786A1.913,1.913,0,0,0,4,18.346a2.6,2.6,0,0,0,1.358,1.93A5.12,5.12,0,0,1,7.422,23.2a4.937,4.937,0,0,0,.209.63,14.32,14.32,0,0,0-.279,2.8v3.447C6.479,32.9,3.8,32.6,4.015,36.567A6.935,6.935,0,0,0,5.1,40.091c.368.61.455.755.119,1.454-1.044,2.21-.665,4.5,1.909,5.1a4.439,4.439,0,0,0,4.617,3.684A5.1,5.1,0,0,0,9.24,53.585l-2.4,9.776a.736.736,0,0,0,.715.912H35.52a.735.735,0,0,0,.312-.07.735.735,0,0,0,.312.07h5.781s16.4,0,16.4,0H64.11a.736.736,0,0,0,.715-.912l-2.4-9.776a5.1,5.1,0,0,0-3.593-3.7l-1.992-.549a3.472,3.472,0,0,1-2.184-1.523l2.565-.949a6.417,6.417,0,0,0,4.129-5.11l.373-2.6h1.358a2.763,2.763,0,0,0,2.76-2.76v-.683A2.476,2.476,0,0,0,64.35,33.45ZM46.9,14.944a10.93,10.93,0,0,1,13.606,5.69.737.737,0,0,0,.654.429c2.627.113,2.558,5.728,2.487,7.1,0,.017,0,.034,0,.051v2.331H61.91a.43.43,0,0,1-.084-.021,2.523,2.523,0,0,1-.645-.417,14.007,14.007,0,0,1-1.213-1.156c-.522-.551-1.018-1.126-1.494-1.718q-.238-.3-.469-.6a.741.741,0,0,0-1.044-.131,8.787,8.787,0,0,1-1.922,1.084,49.406,49.406,0,0,1-16.231,3,7.3,7.3,0,0,1-1.52-.151l-.032-.009a.825.825,0,0,1-.148-.053,2.416,2.416,0,0,1-.418-1.14c0-.02-.007-.04-.01-.06A44.37,44.37,0,0,0,43.9,24.919c1.281-.928,2.449-3.7,2.809-7.138.083-.941.142-1.893.2-2.837Zm.477,33.5a8.818,8.818,0,0,0,2.745.294,8.851,8.851,0,0,0,3.121-.4,4.929,4.929,0,0,0,2.045,2,8.073,8.073,0,0,1-10.331,0,4.931,4.931,0,0,0,2.045-2c.125.037.249.076.375.111Zm-1.825-.554a3.416,3.416,0,0,1-1.929,1.4l-.211.058-1.992.549a5.1,5.1,0,0,0-3.593,3.7l-2,8.134-2-8.134a5.1,5.1,0,0,0-2.5-3.252,4.449,4.449,0,0,0,4.69-3.686c2.573-.6,2.952-2.895,1.909-5.1-.337-.7-.249-.844.119-1.454a8.309,8.309,0,0,0,.488-.9l.369,2.569a6.418,6.418,0,0,0,4.129,5.11l2.566.95c-.014.023-.028.046-.043.069ZM26.7,50.332a8.072,8.072,0,0,1-10.331,0,4.931,4.931,0,0,0,2.045-2,8.849,8.849,0,0,0,3.138.405,8.864,8.864,0,0,0,3.108-.4,4.926,4.926,0,0,0,2.04,1.993Zm-1.775-3.649a3.3,3.3,0,0,0-.412.138,7.236,7.236,0,0,1-2.538.452c-.281-.01-.563-.01-.843,0a7.232,7.232,0,0,1-2.537-.452l-3.6-1.334a4.946,4.946,0,0,1-3.182-3.939l-1.138-7.921c2.507-.372,5.309-1.963,6.428-4.336,1.62,1.927,5.73,1.633,7.534.559a5.521,5.521,0,0,0,4.007,2.573,5.559,5.559,0,0,0,3.752,1.789L31.34,41.549a4.946,4.946,0,0,1-3.182,3.939ZM14.793,50.877a9.547,9.547,0,0,0,13.488,0l1.569.432a3.614,3.614,0,0,1,1.291.657C30.006,53.11,27.97,56.113,28.223,62.8H14.851c.253-6.688-1.783-9.691-2.918-10.834a3.614,3.614,0,0,1,1.291-.657Zm23.526-13.19H37.173A1.289,1.289,0,0,1,35.886,36.4a3.768,3.768,0,0,1,.066-1.036,1.013,1.013,0,0,1,.935-.647h1.006ZM24.772,7.485,34.888,3.4,45,7.485a1.082,1.082,0,0,1,.674,1.022c-.035,1.82-.134,4.654-.289,7.1q-.055.87-.123,1.74c-.272,3.153-1.285,5.6-2.219,6.373-1.261.944-6.294,4.207-8.135,4.478l-.023,0a12.074,12.074,0,0,1-3.636-1.592c-.231-.13-.46-.263-.689-.4-1.592-.939-3.051-1.939-3.833-2.492a1.621,1.621,0,0,1-.428-.439,13.314,13.314,0,0,1-1.792-5.934c-.1-1.34-.181-2.6-.247-3.982-.087-1.824-.137-3.528-.166-4.855a1.082,1.082,0,0,1,.674-1.022ZM15.1,11.336c.238-.147.389-.172.451-.147.1.04.312.281.483.934a6.615,6.615,0,0,0,2.656,3.769,2.207,2.207,0,0,1,.661.621.346.346,0,0,1,.056.149c0,.067-.072.2-.29.375a3.283,3.283,0,0,1-1.032.55,5.426,5.426,0,0,1-2.971-.017,2.691,2.691,0,0,0-1.865-2.644,4.645,4.645,0,0,1,1.85-3.589Zm-3.352,5.156a1.2,1.2,0,1,1,.093,2.025,1.209,1.209,0,0,1-.093-2.025ZM6.189,19.06c-.558-.381-.713-.663-.717-.769,0-.067.072-.2.29-.375a4.62,4.62,0,0,1,4-.532,2.692,2.692,0,0,0,1.863,2.643,5.642,5.642,0,0,1-.825,2.581A3.252,3.252,0,0,1,9.67,23.679c-.129.063-.312.159-.425.023a2.037,2.037,0,0,1-.4-.872A6.593,6.593,0,0,0,6.189,19.06ZM8.519,45.982a.736.736,0,0,0-.677-.718c-1.814-.136-2.043-1.488-1.292-3.08a2.527,2.527,0,0,0-.185-2.853,5.482,5.482,0,0,1-.881-2.857,3.234,3.234,0,0,1,1.331-3.048,5.907,5.907,0,0,0,2.009-3.241c.018-1.026-.059-4.023.084-5.01a2.554,2.554,0,0,0,2.329-.82A6.416,6.416,0,0,0,13.1,20.069a2.7,2.7,0,0,0,1.553-1.095,6.866,6.866,0,0,0,3.931,0c2.436-.858,3.2-2.774.932-4.3h0a5.2,5.2,0,0,1-.628-.507,12.825,12.825,0,0,1,3.926-.222c.059,1.154.133,2.347.224,3.511.3,3.487,1.482,6.471,2.837,7.46,1.589,1.194,7.969,5.281,9.389,4.708a4.044,4.044,0,0,0,.633,1.592V33.45a2.49,2.49,0,0,0-1.468,1.963c-.033.2-.017.775-.021.987A2.779,2.779,0,0,0,36.9,39.145a2.629,2.629,0,0,0-.3,3.038h0c.751,1.592.521,2.944-1.292,3.08a.741.741,0,0,0-.677.714c-.01.3-.188,2.886-3.435,2.886H27.1a3.406,3.406,0,0,1-1.029-1.035l2.6-.961a6.417,6.417,0,0,0,4.129-5.11l1.168-8.135a.736.736,0,0,0-.729-.841c-2.621,0-3.545-1.389-3.593-1.464a.736.736,0,0,0-.628-.352c-2.292,0-3.5-2.508-3.511-2.531a.739.739,0,0,0-.621-.45.693.693,0,0,0-.648.333c-.092.1-.913.9-3.484.9a2.964,2.964,0,0,1-3.074-1.777h0a.738.738,0,0,0-1.429-.029c-1.207,4.491-6.237,4.827-6.449,4.839a.741.741,0,0,0-.69.84l1.244,8.663a6.417,6.417,0,0,0,4.129,5.11l2.534.938a3.4,3.4,0,0,1-1.043,1.058H11.953c-3.246,0-3.425-2.591-3.435-2.882Zm2.152,7.954a3.609,3.609,0,0,1,.318-.83C12.7,55.1,13.5,57.929,13.378,62.8H8.493ZM29.7,62.8c-.239-6.036,1.491-8.715,2.392-9.69.2-.066,2.38,9.378,2.493,9.69Zm31.3-8.864L63.171,62.8H58.912l-.585-2.519a.736.736,0,1,0-1.434.333L57.4,62.8H42.852l.507-2.186a.736.736,0,1,0-1.434-.333L41.341,62.8H37.082l2.178-8.864a3.624,3.624,0,0,1,2.554-2.627l1.569-.432a9.547,9.547,0,0,0,13.488,0l1.569.432a3.624,3.624,0,0,1,2.554,2.627Zm-4.285-8.449-3.327,1.231-.277.1a7.415,7.415,0,0,1-3.02.441,7.249,7.249,0,0,1-2.937-.441l-.276-.1s-3.327-1.232-3.328-1.232a4.946,4.946,0,0,1-3.182-3.939l-.464-3.23-.638-4.441a.747.747,0,0,0-.775-.634H37.375v-1.3c4.627.518,15.52-1.189,19.9-3.869,1.364,1.732,3.565,4.078,4.63,3.937h.975v1.228H61.769a.747.747,0,0,0-.777.634l-.638,4.441-.464,3.229a4.946,4.946,0,0,1-3.182,3.939ZM64.367,36.4a1.289,1.289,0,0,1-1.287,1.287H61.933l.427-2.97c.108,0,1.082-.011,1.161.013a1,1,0,0,1,.846.987Z" transform="translate(-4 -1.926)" fill="#002356"/>
          <path id="Path_1051984" data-name="Path 1051984" d="M125.178,324.818h-5.362a.736.736,0,0,0-.736.736v.689a3.009,3.009,0,0,0,3.005,3.005h.824a3.009,3.009,0,0,0,3.005-3.005v-.689a.736.736,0,0,0-.736-.736Zm-2.269,2.958h-.824a1.535,1.535,0,0,1-1.532-1.485h3.888a1.535,1.535,0,0,1-1.532,1.485Z" transform="translate(-104.96 -285.2)" fill="#002356"/>
          <path id="Path_1051985" data-name="Path 1051985" d="M193.366,70.114l3.385,3.385a2.83,2.83,0,0,0,4.107-.119l6.478-7.276a2.821,2.821,0,0,0-.231-3.978h0a2.831,2.831,0,0,0-3.978.231l-4.5,5.052-1.278-1.278a2.818,2.818,0,0,0-3.985,3.985Zm1.049-2.936a1.3,1.3,0,0,1,1.906,0L198.14,69a.74.74,0,0,0,1.07-.031l5.016-5.634a1.345,1.345,0,0,1,2.01,1.789l-6.493,7.293a1.369,1.369,0,0,1-1.935.056c-.018,0-3.373-3.389-3.389-3.39a1.3,1.3,0,0,1,0-1.906Z" transform="translate(-169.402 -54.117)" fill="#002356"/>
        </g>
      </g>
    </g>
  </g>
</svg>
