<svg xmlns="http://www.w3.org/2000/svg" xmlns:xlink="http://www.w3.org/1999/xlink" width="113" height="113" viewBox="0 0 113 113">
  <defs>
    <filter id="Path_982547" x="0" y="0" width="113" height="113" filterUnits="userSpaceOnUse">
      <feOffset dy="3" input="SourceAlpha"/>
      <feGaussianBlur stdDeviation="3" result="blur"/>
      <feFlood flood-opacity="0.161"/>
      <feComposite operator="in" in2="blur"/>
      <feComposite in="SourceGraphic"/>
    </filter>
  </defs>
  <g id="Group_1208218" data-name="Group 1208218" transform="translate(-1112 -3878.335)">
    <g id="Group_1208055" data-name="Group 1208055">
      <g id="Group_1207897" data-name="Group 1207897" transform="translate(0 -2898.316)">
        <g id="Group_1201923" data-name="Group 1201923" transform="translate(-4174.49 4856.378)">
          <g id="Group_1176928" data-name="Group 1176928" transform="translate(5295.49 1926.273)">
            <g id="Group_1172322" data-name="Group 1172322" transform="translate(0 0)">
              <g id="Group_1164700" data-name="Group 1164700">
                <g id="Group_1160931" data-name="Group 1160931">
                  <g id="Group_1160749" data-name="Group 1160749">
                    <g id="Group_1158891" data-name="Group 1158891">
                      <g id="Group_1157406" data-name="Group 1157406">
                        <g id="Group_1155793" data-name="Group 1155793">
                          <g id="Group_1154704" data-name="Group 1154704">
                            <g id="Group_1150790" data-name="Group 1150790">
                              <g id="Group_1154214" data-name="Group 1154214">
                                <g id="Group_1152583" data-name="Group 1152583">
                                  <g id="Group_1146973" data-name="Group 1146973">
                                    <g id="Group_1146954" data-name="Group 1146954">
                                      <g transform="matrix(1, 0, 0, 1, -9, -6)" filter="url(#Path_982547)">
                                        <g id="Path_982547-2" data-name="Path 982547" transform="translate(9 6)" fill="#ebe9f0">
                                          <path d="M 47.5000114440918 93.49987030029297 C 41.28938293457031 93.49987030029297 35.26534652709961 92.28384399414062 29.5951976776123 89.88558959960938 C 24.11773109436035 87.56881713867188 19.19814491271973 84.25183868408203 14.97310447692871 80.02680206298828 C 10.74805164337158 75.80176544189453 7.43107795715332 70.88218688964844 5.114304542541504 65.40472412109375 C 2.716038227081299 59.73458862304688 1.500011444091797 53.71054840087891 1.500011444091797 47.49993515014648 C 1.500011444091797 41.28932189941406 2.716038227081299 35.26528167724609 5.114304542541504 29.59514808654785 C 7.43107795715332 24.1176815032959 10.74805164337158 19.1981086730957 14.97310447692871 14.97306823730469 C 19.19814491271973 10.74802875518799 24.11773109436035 7.431055068969727 29.5951976776123 5.11428165435791 C 35.26534652709961 2.716028451919556 41.28938293457031 1.500001788139343 47.5000114440918 1.500001788139343 C 53.71063995361328 1.500001788139343 59.73467636108398 2.716028451919556 65.40482330322266 5.11428165435791 C 70.88229370117188 7.431055068969727 75.8018798828125 10.74802875518799 80.02691650390625 14.97306823730469 C 84.25196838378906 19.1981086730957 87.56894683837891 24.1176815032959 89.88571929931641 29.59514808654785 C 92.28398132324219 35.26528167724609 93.50001525878906 41.28932189941406 93.50001525878906 47.49993515014648 C 93.50001525878906 53.71054840087891 92.28398132324219 59.73458862304688 89.88571929931641 65.40472412109375 C 87.56894683837891 70.88218688964844 84.25196838378906 75.80176544189453 80.02691650390625 80.02680206298828 C 75.8018798828125 84.25183868408203 70.88229370117188 87.56881713867188 65.40482330322266 89.88558959960938 C 59.73467636108398 92.28384399414062 53.71063995361328 93.49987030029297 47.5000114440918 93.49987030029297 Z" stroke="none"/>
                                          <path d="M 47.5000114440918 3 C 41.49122619628906 3 35.66378021240234 4.1761474609375 30.17951965332031 6.495796203613281 C 24.880859375 8.7369384765625 20.12153625488281 11.94596862792969 16.03376770019531 16.03373718261719 C 11.94598388671875 20.12149047851562 8.736968994140625 24.88081359863281 6.495811462402344 30.17947387695312 C 4.176162719726562 35.66371917724609 3.000007629394531 41.49116516113281 3.000007629394531 47.49993515014648 C 3.000007629394531 53.50870513916016 4.176162719726562 59.33615112304688 6.495811462402344 64.82039642333984 C 8.736968994140625 70.11905670166016 11.94598388671875 74.87837982177734 16.03376770019531 78.96613311767578 C 20.12153625488281 83.05390167236328 24.880859375 86.26293182373047 30.17951965332031 88.50407409667969 C 35.66378021240234 90.82372283935547 41.49122619628906 91.99987030029297 47.5000114440918 91.99987030029297 C 53.50879669189453 91.99987030029297 59.33624267578125 90.82372283935547 64.82050323486328 88.50407409667969 C 70.11916351318359 86.26293182373047 74.87848663330078 83.05390167236328 78.96625518798828 78.96613311767578 C 83.05403900146484 74.87837982177734 86.2630615234375 70.11905670166016 88.50421142578125 64.82039642333984 C 90.82386016845703 59.33615112304688 92.00001525878906 53.50870513916016 92.00001525878906 47.49993515014648 C 92.00001525878906 41.49116516113281 90.82386016845703 35.66371917724609 88.50421142578125 30.17947387695312 C 86.2630615234375 24.88081359863281 83.05403900146484 20.12149047851562 78.96625518798828 16.03373718261719 C 74.87848663330078 11.94596862792969 70.11916351318359 8.7369384765625 64.82050323486328 6.495796203613281 C 59.33624267578125 4.1761474609375 53.50879669189453 3 47.5000114440918 3 M 47.5000114440918 0 C 73.73353576660156 0 95.00001525878906 21.26644134521484 95.00001525878906 47.49993515014648 C 95.00001525878906 73.73342895507812 73.73353576660156 94.99987030029297 47.5000114440918 94.99987030029297 C 21.26648712158203 94.99987030029297 7.62939453125e-06 73.73342895507812 7.62939453125e-06 47.49993515014648 C 7.62939453125e-06 21.26644134521484 21.26648712158203 0 47.5000114440918 0 Z" stroke="none" fill="#453179"/>
                                        </g>
                                      </g>
                                    </g>
                                  </g>
                                </g>
                              </g>
                            </g>
                          </g>
                        </g>
                      </g>
                    </g>
                  </g>
                </g>
              </g>
            </g>
          </g>
        </g>
      </g>
      <g id="Layer_51" data-name="Layer 51" transform="translate(1134.218 3896.969)">
        <path id="Path_1052096" data-name="Path 1052096" d="M55.674,63.615H50.833l-1.663-.706c-4.063.455-10.648.706-15.316.706s-11.187-.251-15.25-.706l-.859.706h-5.71a.8.8,0,0,1-.75-1.09l3.427-8.95a23.79,23.79,0,0,0,.821-2.868,6.064,6.064,0,0,1,5.884-4.617h4.879A2.691,2.691,0,0,0,28.985,43.4V38.89h9.737V43.4a2.691,2.691,0,0,0,2.691,2.691h4.879a6.064,6.064,0,0,1,5.884,4.617A23.791,23.791,0,0,0,53,53.574l3.427,8.951a.8.8,0,0,1-.749,1.089Z" transform="translate(0.33 3.514)" fill="#fbc390"/>
        <path id="Path_1052097" data-name="Path 1052097" d="M17.408,25.09c1.557,2.7,1.078,5.888-1.07,7.128s-5.151.059-6.708-2.637-1.078-5.888,1.07-7.128,5.151-.059,6.708,2.637Zm33.363,0c-1.557,2.7-1.078,5.888,1.07,7.128s5.151.059,6.708-2.637,1.078-5.888-1.07-7.128-5.151-.059-6.708,2.637Z" transform="translate(0.093 1.922)" fill="#fba16f"/>
        <path id="Path_1052098" data-name="Path 1052098" d="M52.613,25.5v2.8A16.464,16.464,0,0,1,37.494,44.78q-1.939.145-3.958.146T29.6,44.782A16.462,16.462,0,0,1,14.482,28.3V25.5A13.376,13.376,0,0,1,25.8,12.249a52.6,52.6,0,0,1,15.493,0A13.377,13.377,0,0,1,52.613,25.5Z" transform="translate(0.636 0.956)" fill="#fbc390"/>
        <path id="Path_1052099" data-name="Path 1052099" d="M32.461,30.108a14.581,14.581,0,0,1,4.087.576,3.341,3.341,0,0,1-1.935,6.4,8.173,8.173,0,0,0-4.3,0,3.367,3.367,0,0,1-3.5-1.027h0a3.337,3.337,0,0,1,1.563-5.369A14.579,14.579,0,0,1,32.461,30.108Z" transform="translate(1.719 2.688)" fill="#f47d67"/>
        <path id="Path_1052100" data-name="Path 1052100" d="M48.448,62.163a114.478,114.478,0,0,1-15.229.963,116.823,116.823,0,0,1-15.25-.963,12.79,12.79,0,0,0,2.068-6.991V45.638A1.247,1.247,0,0,1,21.11,44.4l2.14-.3a1.239,1.239,0,0,1,1.413,1.085,2.733,2.733,0,0,0,.067.417,8.732,8.732,0,0,0,16.979,0,2.42,2.42,0,0,0,.061-.4,1.241,1.241,0,0,1,1.415-1.1l2.112.3a1.247,1.247,0,0,1,1.073,1.238v9.536a12.709,12.709,0,0,0,2.079,6.991Z" transform="translate(0.963 4.002)" fill="#f8869d"/>
        <path id="Path_1052101" data-name="Path 1052101" d="M37.834,12.806l-3.256,2.559a6.732,6.732,0,0,1-6.974.348C25.022,13.7,25.348,8.8,25.348,8.8c0-2.7.717-3.439,2.36-5.58l.546-.711,2.264,5.856A5.012,5.012,0,0,0,34.939,12.5Z" transform="translate(1.656 0.094)" fill="#7a4e4d"/>
        <path id="Path_1052102" data-name="Path 1052102" d="M34.395,8.665a9.434,9.434,0,0,1,.14,2.533,1.252,1.252,0,0,1-1.414,1.088l-3.6-.473a5.086,5.086,0,0,0-3.163.614l-3.182,1.8a1.256,1.256,0,0,1-1.739-.537,9.17,9.17,0,0,1-.794-2.341A9.459,9.459,0,0,1,20.5,8.8,1.252,1.252,0,0,1,21.91,7.716l3.614.472a5.086,5.086,0,0,0,3.163-.616L31.86,5.777a1.255,1.255,0,0,1,1.738.537,9.184,9.184,0,0,1,.8,2.351Z" transform="translate(1.198 0.386)" fill="#f8869d"/>
        <path id="Path_1052103" data-name="Path 1052103" d="M9.936,6.007a2.962,2.962,0,0,1,4.9,1.158l1.335,4A.851.851,0,0,1,15.1,12.246l-4-1.335a2.962,2.962,0,0,1-1.158-4.9ZM53.274,7.165l-1.335,4a.851.851,0,0,0,1.076,1.076l4-1.335a2.962,2.962,0,1,0-3.746-3.746Z" transform="translate(0.127 0.341)" fill="#62c1d3"/>
        <path id="Path_1052104" data-name="Path 1052104" d="M58.118,23.428a5.115,5.115,0,0,0-4.192-.34A14.541,14.541,0,0,0,42.093,12.127q-1.173-.179-2.385-.3c-.017,0-.032.005-.05,0s-.037-.013-.057-.015l-2.779-.288a10.5,10.5,0,0,0-.155-2.672l0-.014a10.3,10.3,0,0,0-.893-2.63,2.379,2.379,0,0,0-1.425-1.2,2.312,2.312,0,0,0-1.828.2l-.352.2-1.238-3.2a1.093,1.093,0,0,0-.864-.689,1.082,1.082,0,0,0-1.023.418l-.853,1.108a8.418,8.418,0,0,0-2.179,4.332l-2.757-.361a2.369,2.369,0,0,0-1.77.484A2.306,2.306,0,0,0,20.6,9.1a10.546,10.546,0,0,0,.159,2.849,10.433,10.433,0,0,0,.582,1.884,14.577,14.577,0,0,0-6.916,9.258,5.136,5.136,0,0,0-4.183.339c-2.666,1.538-3.326,5.407-1.47,8.623a6.934,6.934,0,0,0,5.767,3.678,5.065,5.065,0,0,0,.692-.055A17.567,17.567,0,0,0,28.219,46.562v.35a1.6,1.6,0,0,1-1.6,1.6h-.048A2.293,2.293,0,0,0,25.84,47.5a2.387,2.387,0,0,0-1.78-.478l-2.14.3a2.346,2.346,0,0,0-1.816,1.4A7.111,7.111,0,0,0,14.8,53.96l-.052.217a20.867,20.867,0,0,1-.726,2.521l-3.426,8.949a1.9,1.9,0,0,0,1.771,2.577h5.709a1.091,1.091,0,0,0,.694-.249l.505-.415c4.369.455,10.722.663,14.91.663,4.407,0,10.956-.234,15.152-.682l1.4.6a1.1,1.1,0,0,0,.427.087H56a1.9,1.9,0,0,0,1.77-2.575L54.346,56.7a21.1,21.1,0,0,1-.731-2.538l-.048-.2a7.108,7.108,0,0,0-5.343-5.25,2.349,2.349,0,0,0-1.81-1.391l-2.112-.3a2.366,2.366,0,0,0-1.788.484,2.292,2.292,0,0,0-.725,1h-.046a1.6,1.6,0,0,1-1.6-1.6V46.56A17.573,17.573,0,0,0,53.13,35.674a5.059,5.059,0,0,0,.7.057,6.925,6.925,0,0,0,5.763-3.681,7.5,7.5,0,0,0,.988-4.82,5.128,5.128,0,0,0-2.459-3.8ZM35.567,13.512a6.213,6.213,0,0,0,.913.176l.213.021-1.062.838a5.628,5.628,0,0,1-5.754.354,3.939,3.939,0,0,1-1.046-1.448,3.986,3.986,0,0,1,1.74-.168l3.6.473a2.358,2.358,0,0,0,1.395-.245Zm-5.977-8.7L30.241,6.5l-.9.506a3.985,3.985,0,0,1-1.14.424A5.764,5.764,0,0,1,29.59,4.814ZM22.832,9.223a.174.174,0,0,1,.108-.037h.025l3.614.472a6.172,6.172,0,0,0,3.844-.749L33.6,7.116a.143.143,0,0,1,.116-.013.172.172,0,0,1,.106.091,8.091,8.091,0,0,1,.7,2.065,7.092,7.092,0,0,1,.075,2.293.168.168,0,0,1-.134.036l-3.6-.473a6.2,6.2,0,0,0-3.844.747l-3.18,1.8a.151.151,0,0,1-.119.014.177.177,0,0,1-.107-.093,8.011,8.011,0,0,1-.694-2.047,6.967,6.967,0,0,1-.078-2.31ZM10.67,30.957c-1.253-2.171-.953-4.7.669-5.634a3.025,3.025,0,0,1,2.733-.02c-.031.381-.049.763-.049,1.149v2.807a17.594,17.594,0,0,0,.541,4.264,4.784,4.784,0,0,1-3.894-2.566Zm2.115,35.079,3.275-8.554a22.664,22.664,0,0,0,.81-2.786l.052-.214A5.007,5.007,0,0,1,19.9,51.067v8.109a11.735,11.735,0,0,1-1.891,6.4c-.057.088-.334.464-.334.464ZM51.441,54.481l.049.2a22.9,22.9,0,0,0,.813,2.8l3.276,8.555h-4.2l-1.049-.446c0-.007,0-.014-.008-.021a11.654,11.654,0,0,1-1.9-6.393V51.054a5,5,0,0,1,3.015,3.427ZM43.87,49.22a.147.147,0,0,1,.125-.033l2.111.3a.154.154,0,0,1,.132.155v9.535a13.83,13.83,0,0,0,1.528,6.318c-4.083.357-9.68.542-13.584.542s-9.523-.189-13.607-.55a13.906,13.906,0,0,0,1.518-6.31V49.641a.153.153,0,0,1,.131-.155l2.14-.3c.068-.009.106.018.173.112a3.737,3.737,0,0,0,.091.561,9.825,9.825,0,0,0,19.1.042c.04-.142.075-.35.145-.678Zm-2.711,1.418a7.631,7.631,0,0,1-13.958,0,3.78,3.78,0,0,0,3.206-3.726v-.069c1.236.086,2.5.134,3.763.134s2.535-.048,3.786-.135v.07a3.78,3.78,0,0,0,3.2,3.726Zm-3.112-5.992a52.448,52.448,0,0,1-7.731,0A15.4,15.4,0,0,1,16.211,29.259V26.453A12.375,12.375,0,0,1,22.681,15.6a2.324,2.324,0,0,0,.395.166,2.353,2.353,0,0,0,.684.1,2.325,2.325,0,0,0,1.146-.3l1.975-1.116a5.985,5.985,0,0,0,1.7,2.222.993.993,0,0,0,.1.072,7.763,7.763,0,0,0,3.778.967,7.944,7.944,0,0,0,4.442-1.389l2.9-2.279c.66.073,1.315.152,1.955.249a12.356,12.356,0,0,1,10.39,12.167v2.8A15.408,15.408,0,0,1,38.047,44.646ZM57.694,30.957A4.769,4.769,0,0,1,53.8,33.524a17.583,17.583,0,0,0,.542-4.266v-2.8c0-.387-.022-.769-.053-1.149a3.054,3.054,0,0,1,2.736.017,2.99,2.99,0,0,1,1.39,2.232,5.307,5.307,0,0,1-.72,3.4ZM38.574,32.323a15.965,15.965,0,0,0-8.785,0,4.373,4.373,0,0,0-2.967,2.964,4.436,4.436,0,0,0,.881,4.167,4.484,4.484,0,0,0,4.628,1.369,7.123,7.123,0,0,1,3.7,0A4.543,4.543,0,0,0,37.278,41a4.429,4.429,0,0,0,4.263-5.714,4.377,4.377,0,0,0-2.967-2.959Zm.428,5.7a2.285,2.285,0,0,1-2.372.69,9.312,9.312,0,0,0-4.9,0,2.251,2.251,0,0,1-2.814-2.807A2.163,2.163,0,0,1,30.4,34.421a13.678,13.678,0,0,1,7.555,0,2.165,2.165,0,0,1,1.485,1.486A2.255,2.255,0,0,1,39,38.027ZM29.63,27.479l-3.751,2.064a1.094,1.094,0,0,1-1.056-1.917l1.376-.757-1.564-.422a1.094,1.094,0,1,1,.571-2.113l4.182,1.13a1.094,1.094,0,0,1,.243,2.015ZM44.5,25.105a1.1,1.1,0,0,1-.771,1.342l-1.564.422,1.376.757a1.094,1.094,0,0,1-1.056,1.917l-3.75-2.064a1.094,1.094,0,0,1,.243-2.015l4.181-1.13a1.1,1.1,0,0,1,1.342.771ZM38.018,60.091a.411.411,0,0,1-.29.5,13.473,13.473,0,0,1-2.218.4l-.04,0a.41.41,0,0,1-.04-.818,12.76,12.76,0,0,0,2.083-.379.413.413,0,0,1,.5.289ZM40.447,58.6A12.94,12.94,0,0,0,42.2,57.4a.41.41,0,1,1,.517.637,13.73,13.73,0,0,1-1.861,1.271.411.411,0,0,1-.406-.714Zm-12.987.223a.409.409,0,0,1-.346.19.4.4,0,0,1-.22-.064A13.4,13.4,0,0,1,25.1,57.583a.411.411,0,0,1,.551-.609,12.471,12.471,0,0,0,1.683,1.282.41.41,0,0,1,.126.566ZM32.6,60.564a.411.411,0,0,1-.406.349.389.389,0,0,1-.061,0,13.691,13.691,0,0,1-2.192-.519.41.41,0,1,1,.254-.78,12.808,12.808,0,0,0,2.06.487.412.412,0,0,1,.345.467ZM9.468,14.277a1.094,1.094,0,1,1-1.094,1.094A1.094,1.094,0,0,1,9.468,14.277Zm1.4-1.987,4,1.334a1.944,1.944,0,0,0,2.46-2.459L16,7.16a4.055,4.055,0,1,0-5.129,5.13Zm-.038-5.168a1.833,1.833,0,0,1,1.306-.55,1.936,1.936,0,0,1,.444.053,1.83,1.83,0,0,1,1.343,1.226L15.109,11.4l-3.544-1.181a1.868,1.868,0,0,1-.731-3.093Zm42.032,6.6a1.979,1.979,0,0,0,.62-.1l4.005-1.335A4.056,4.056,0,1,0,52.36,7.16l-1.333,4.005a1.945,1.945,0,0,0,1.84,2.561Zm1.569-5.874a1.83,1.83,0,0,1,1.343-1.226,1.936,1.936,0,0,1,.444-.053,1.869,1.869,0,0,1,.576,3.642L53.255,11.4ZM46.4,4.387a1.092,1.092,0,1,1,.32.774,1.094,1.094,0,0,1-.32-.774ZM59.75,15.01a1.091,1.091,0,1,1-.775.319,1.094,1.094,0,0,1,.775-.319ZM45.589,10.933l.364-2.643a1.081,1.081,0,0,1,1.233-.934,1.093,1.093,0,0,1,.934,1.233l-.364,2.643a1.093,1.093,0,0,1-1.082.944,1.042,1.042,0,0,1-.151-.011,1.093,1.093,0,0,1-.934-1.233ZM15.536,18.075a1.093,1.093,0,0,1-1.439.567l-1.84-.8a1.094,1.094,0,1,1,.872-2.006l1.84.8a1.093,1.093,0,0,1,.567,1.439Zm42.1-1.169a1.1,1.1,0,0,1-.762,1.347l-2.843.79a1.118,1.118,0,0,1-.294.04,1.094,1.094,0,0,1-.292-2.148l2.843-.79a1.1,1.1,0,0,1,1.347.762Z" transform="translate(0 0)" fill="#0b2230"/>
      </g>
    </g>
  </g>
</svg>
