<svg xmlns="http://www.w3.org/2000/svg" xmlns:xlink="http://www.w3.org/1999/xlink" width="113" height="113" viewBox="0 0 113 113">
  <defs>
    <filter id="Path_982547" x="0" y="0" width="113" height="113" filterUnits="userSpaceOnUse">
      <feOffset dy="3" input="SourceAlpha"/>
      <feGaussianBlur stdDeviation="3" result="blur"/>
      <feFlood flood-opacity="0.161"/>
      <feComposite operator="in" in2="blur"/>
      <feComposite in="SourceGraphic"/>
    </filter>
  </defs>
  <g id="Group_1208178" data-name="Group 1208178" transform="translate(-271 -2830.143)">
    <g id="Group_1207982" data-name="Group 1207982">
      <g id="Group_1207721" data-name="Group 1207721" transform="translate(-1 752.362)">
        <g id="Group_1207254" data-name="Group 1207254" transform="translate(0 -8747.046)">
          <g id="Group_1204125" data-name="Group 1204125" transform="translate(0 6984.49)">
            <g id="Group_1203962" data-name="Group 1203962" transform="translate(0 1899.461)">
              <g id="Group_1203498" data-name="Group 1203498" transform="translate(0 -197.72)">
                <g id="Group_1202589" data-name="Group 1202589" transform="translate(281 2144.596)">
                  <g id="Group_1172010" data-name="Group 1172010" transform="translate(0)">
                    <g id="Group_1171046" data-name="Group 1171046">
                      <g id="Group_1148525" data-name="Group 1148525">
                        <g transform="matrix(1, 0, 0, 1, -9, -6)" filter="url(#Path_982547)">
                          <g id="Path_982547-2" data-name="Path 982547" transform="translate(9 6)" fill="#edf3fc">
                            <path d="M 47.5 93.5 C 41.28937149047852 93.5 35.26533508300781 92.28397369384766 29.59518623352051 89.88570404052734 C 24.11771965026855 87.56893157958984 19.19813346862793 84.25196075439453 14.97309303283691 80.02691650390625 C 10.74804019927979 75.80186462402344 7.431066513061523 70.88229370117188 5.114293098449707 65.40481567382812 C 2.716026782989502 59.73468017578125 1.5 53.71062850952148 1.5 47.5 C 1.5 41.28937149047852 2.716026782989502 35.26533508300781 5.114293098449707 29.59518623352051 C 7.431066513061523 24.11771965026855 10.74804019927979 19.19813346862793 14.97309303283691 14.97309303283691 C 19.19813346862793 10.74804019927979 24.11771965026855 7.431066513061523 29.59518623352051 5.114293098449707 C 35.26533508300781 2.716026782989502 41.28937149047852 1.5 47.5 1.5 C 53.71062850952148 1.5 59.73468017578125 2.716026782989502 65.40481567382812 5.114293098449707 C 70.88229370117188 7.431066513061523 75.80186462402344 10.74804019927979 80.02691650390625 14.97309303283691 C 84.25196075439453 19.19813346862793 87.56893157958984 24.11771965026855 89.88570404052734 29.59518623352051 C 92.28397369384766 35.26533508300781 93.5 41.28937149047852 93.5 47.5 C 93.5 53.71062850952148 92.28397369384766 59.73468017578125 89.88570404052734 65.40481567382812 C 87.56893157958984 70.88229370117188 84.25196075439453 75.80186462402344 80.02691650390625 80.02691650390625 C 75.80186462402344 84.25196075439453 70.88229370117188 87.56893157958984 65.40481567382812 89.88570404052734 C 59.73468017578125 92.28397369384766 53.71062850952148 93.5 47.5 93.5 Z" stroke="none"/>
                            <path d="M 47.5 3 C 41.49121475219727 3 35.66376876831055 4.176155090332031 30.17950439453125 6.495796203613281 C 24.88084411621094 8.736953735351562 20.12152099609375 11.94598388671875 16.03375244140625 16.03375244140625 C 11.94598388671875 20.12152099609375 8.736953735351562 24.88084411621094 6.495796203613281 30.17950439453125 C 4.176155090332031 35.66376876831055 3 41.49121475219727 3 47.5 C 3 53.50878524780273 4.176155090332031 59.33623123168945 6.495796203613281 64.82049560546875 C 8.736953735351562 70.11915588378906 11.94598388671875 74.87847900390625 16.03375244140625 78.96624755859375 C 20.12152099609375 83.05401611328125 24.88084411621094 86.26304626464844 30.17950439453125 88.50419616699219 C 35.66376876831055 90.82384490966797 41.49121475219727 92 47.5 92 C 53.50878524780273 92 59.33623123168945 90.82384490966797 64.82049560546875 88.50419616699219 C 70.11915588378906 86.26304626464844 74.87847900390625 83.05401611328125 78.96624755859375 78.96624755859375 C 83.05401611328125 74.87847900390625 86.26304626464844 70.11915588378906 88.50419616699219 64.82049560546875 C 90.82384490966797 59.33623123168945 92 53.50878524780273 92 47.5 C 92 41.49121475219727 90.82384490966797 35.66376876831055 88.50419616699219 30.17950439453125 C 86.26304626464844 24.88084411621094 83.05401611328125 20.12152099609375 78.96624755859375 16.03375244140625 C 74.87847900390625 11.94598388671875 70.11915588378906 8.736953735351562 64.82049560546875 6.495796203613281 C 59.33623123168945 4.176155090332031 53.50878524780273 3 47.5 3 M 47.5 0 C 73.7335205078125 0 95 21.2664794921875 95 47.5 C 95 73.7335205078125 73.7335205078125 95 47.5 95 C 21.2664794921875 95 0 73.7335205078125 0 47.5 C 0 21.2664794921875 21.2664794921875 0 47.5 0 Z" stroke="none" fill="#5692e8"/>
                          </g>
                        </g>
                      </g>
                    </g>
                  </g>
                </g>
              </g>
            </g>
          </g>
        </g>
      </g>
      <g id="me_6009645" transform="translate(295.481 2851.354)">
        <g id="Group_1207981" data-name="Group 1207981" transform="translate(0 0.776)">
          <g id="Group_1207941" data-name="Group 1207941" transform="translate(23.116 32.938)">
            <path id="Path_1051810" data-name="Path 1051810" d="M234.14,336.594l1.267-12.97v-5.6l.874-1.4-.874-1.762-7.92-2.46-7.917,2.46-.875,1.253.875,1.912v5.6l1.266,12.97,6.65,1.936Z" transform="translate(-218.695 -312.399)" fill="#ab695d" fill-rule="evenodd"/>
          </g>
          <g id="Group_1207942" data-name="Group 1207942" transform="translate(19.369 29.229)">
            <path id="Path_1051811" data-name="Path 1051811" d="M187.869,286.641v-3.165l1.266-6.169-5.888,1.232v8.1a2.312,2.312,0,0,0,4.621,0Z" transform="translate(-183.248 -277.307)" fill="#fed2a4" fill-rule="evenodd"/>
          </g>
          <g id="Group_1207943" data-name="Group 1207943" transform="translate(21.727 29.229)">
            <path id="Path_1051812" data-name="Path 1051812" d="M205.556,278.54v10.349a2.285,2.285,0,0,0,2.263-2.247v-3.165l1.235-6.169Z" transform="translate(-205.556 -277.308)" fill="#ffbd86" fill-rule="evenodd"/>
          </g>
          <g id="Group_1207944" data-name="Group 1207944" transform="translate(38.561 29.229)">
            <path id="Path_1051813" data-name="Path 1051813" d="M368.4,288.889a2.287,2.287,0,0,0,2.312-2.247v-8.1l-5.888-1.232,1.266,6.169v3.165a2.286,2.286,0,0,0,2.309,2.247Z" transform="translate(-364.82 -277.308)" fill="#fed2a4" fill-rule="evenodd"/>
          </g>
          <g id="Group_1207945" data-name="Group 1207945" transform="translate(19.369 16.447)">
            <path id="Path_1051814" data-name="Path 1051814" d="M195.786,175.334h7.92V170.4h4.621v-7.2a6.933,6.933,0,0,0-7.007-6.815H190.255a6.933,6.933,0,0,0-7.007,6.815v7.2h4.621v4.937Z" transform="translate(-183.248 -156.383)" fill="#6fd7a3" fill-rule="evenodd"/>
          </g>
          <g id="Group_1207946" data-name="Group 1207946" transform="translate(34.853 16.447)">
            <path id="Path_1051815" data-name="Path 1051815" d="M337.208,163.2v7.2h2.127v-7.2a6.933,6.933,0,0,0-7.007-6.815h-2.589a7.389,7.389,0,0,1,1.116.087c3.327.524,6.353,3.35,6.353,6.728Z" transform="translate(-329.739 -156.382)" fill="#3ec3a4" fill-rule="evenodd"/>
          </g>
          <g id="Group_1207947" data-name="Group 1207947" transform="translate(40.842 30.461)">
            <path id="Path_1051816" data-name="Path 1051816" d="M387.88,288.961v8.1c0,.771-.868,1.455-1.48,1.86a2.344,2.344,0,0,0,1.294.387,2.287,2.287,0,0,0,2.312-2.247v-8.1Z" transform="translate(-386.4 -288.961)" fill="#ffbd86" fill-rule="evenodd"/>
          </g>
          <g id="Group_1207948" data-name="Group 1207948" transform="translate(0.926 26.755)">
            <path id="Path_1051817" data-name="Path 1051817" d="M14.715,263.409l7.427-4.756L14.715,253.9v2.376H8.757v4.756h5.958Z" transform="translate(-8.757 -253.901)" fill="#bbf49b" fill-rule="evenodd"/>
          </g>
          <g id="Group_1207949" data-name="Group 1207949" transform="translate(1.744 8.774)">
            <path id="Path_1051818" data-name="Path 1051818" d="M19.028,93.037l8.624,1.877-1.879-8.6-1.686,1.678-4.212-4.2L16.5,87.154l4.212,4.2Z" transform="translate(-16.502 -83.79)" fill="#bbf49b" fill-rule="evenodd"/>
          </g>
          <g id="Group_1207950" data-name="Group 1207950" transform="translate(1.744 43.12)">
            <path id="Path_1051819" data-name="Path 1051819" d="M25.773,417.329l1.879-8.6-8.624,1.877,1.686,1.682-4.212,4.2,3.372,3.36,4.212-4.2Z" transform="translate(-16.502 -408.728)" fill="#bbf49b" fill-rule="evenodd"/>
          </g>
          <g id="Group_1207951" data-name="Group 1207951" transform="translate(50.291 43.12)">
            <path id="Path_1051820" data-name="Path 1051820" d="M479.365,415.647l4.212,4.2,3.372-3.36-4.216-4.2,1.686-1.682-8.623-1.877,1.882,8.6Z" transform="translate(-475.797 -408.728)" fill="#bbf49b" fill-rule="evenodd"/>
          </g>
          <g id="Group_1207952" data-name="Group 1207952" transform="translate(48.874 26.755)">
            <path id="Path_1051821" data-name="Path 1051821" d="M469.823,263.409v-2.376h5.958v-4.756h-5.958V253.9l-7.43,4.753Z" transform="translate(-462.393 -253.901)" fill="#bbf49b" fill-rule="evenodd"/>
          </g>
          <g id="Group_1207953" data-name="Group 1207953" transform="translate(50.291 8.774)">
            <path id="Path_1051822" data-name="Path 1051822" d="M475.8,94.914l8.623-1.877-1.686-1.682,4.216-4.2-3.372-3.364-4.212,4.2-1.686-1.678Z" transform="translate(-475.797 -83.79)" fill="#bbf49b" fill-rule="evenodd"/>
          </g>
          <g id="Group_1207954" data-name="Group 1207954" transform="translate(21.727 22.7)">
            <path id="Path_1051823" data-name="Path 1051823" d="M205.556,216.639V223.3h2.263v-6.661a1.132,1.132,0,0,0-2.263,0Z" transform="translate(-205.556 -215.54)" fill="#3ec3a4" fill-rule="evenodd"/>
          </g>
          <g id="Group_1207955" data-name="Group 1207955" transform="translate(24.648 5.208)">
            <path id="Path_1051824" data-name="Path 1051824" d="M240.45,62.586a7.334,7.334,0,0,0,4.188-1.3,7,7,0,0,0,3.075-5.754v-.516c-2.372-5.8-12.265-7.6-14.522.516a7.008,7.008,0,0,0,3.072,5.754,7.351,7.351,0,0,0,4.188,1.3Z" transform="translate(-233.191 -50.045)" fill="#fed2a4" fill-rule="evenodd"/>
          </g>
          <g id="Group_1207956" data-name="Group 1207956" transform="translate(29.909 9.588)">
            <path id="Path_1051825" data-name="Path 1051825" d="M284.968,99.651a7.348,7.348,0,0,0,4.062-1.214c.042-.028.084-.056.126-.087A7,7,0,0,0,292.23,92.6v-.516c-.878-.527-1.851-.984-2.7-.052v.325a7.025,7.025,0,0,1-3.446,6,7.372,7.372,0,0,1-3.117,1.029,7.435,7.435,0,0,0,2,.272Z" transform="translate(-282.97 -91.49)" fill="#ffbd86" fill-rule="evenodd"/>
          </g>
          <g id="Group_1207957" data-name="Group 1207957" transform="translate(24.644 0.919)">
            <path id="Path_1051826" data-name="Path 1051826" d="M236.581,16.843c2.7-1.623,5,1.888,9.292,1.888h1.805V15.377c0-5.182-8.585-7.764-11.272-4.372-3.505.3-3.25,4.84-3.25,5.436v2.805a29.985,29.985,0,0,1,3.425-2.4Z" transform="translate(-233.152 -9.473)" fill="#554e56" fill-rule="evenodd"/>
          </g>
          <g id="Group_1207958" data-name="Group 1207958" transform="translate(31.06 0.918)">
            <path id="Path_1051827" data-name="Path 1051827" d="M299.271,15.81v2.858a8.15,8.15,0,0,0,.892.052h1.805V15.367c0-3.789-4.59-6.187-8.109-5.879,2.8.712,5.412,2.778,5.412,5.639Z" transform="translate(-293.859 -9.461)" fill="#433f43" fill-rule="evenodd"/>
          </g>
          <g id="Group_1207959" data-name="Group 1207959" transform="translate(29.696 39.205)">
            <path id="Path_1051828" data-name="Path 1051828" d="M280.952,372.967v16.651h2.211V372.967a1.117,1.117,0,1,0-2.211,0Z" transform="translate(-280.952 -371.69)" fill="#935b50" fill-rule="evenodd"/>
          </g>
          <g id="Group_1207960" data-name="Group 1207960" transform="translate(36.21 34.753)">
            <path id="Path_1051829" data-name="Path 1051829" d="M344.93,351.946l1.266-12.97v-8.765l-2.075-.645v9.411l-1.266,12.97-.276.83Z" transform="translate(-342.579 -329.566)" fill="#935b50" fill-rule="evenodd"/>
          </g>
          <g id="Group_1207961" data-name="Group 1207961" transform="translate(37.753 22.7)">
            <path id="Path_1051830" data-name="Path 1051830" d="M357.175,216.574v11.665h2.075V216.574a1.037,1.037,0,0,0-2.075,0Z" transform="translate(-357.175 -215.541)" fill="#3ec3a4" fill-rule="evenodd"/>
          </g>
          <g id="Group_1207962" data-name="Group 1207962" transform="translate(21.372 57.133)">
            <path id="Path_1051831" data-name="Path 1051831" d="M202.21,546.27h10.527V541.3h-6.65c-2.568,0-4.006,2.01-3.876,4.965Z" transform="translate(-202.202 -541.305)" fill="#554e56" fill-rule="evenodd"/>
          </g>
          <g id="Group_1207963" data-name="Group 1207963" transform="translate(31.033 57.133)">
            <path id="Path_1051832" data-name="Path 1051832" d="M294.47,546.27H305c.129-2.955-1.308-4.965-3.876-4.965H294.47l-.875,2.837Z" transform="translate(-293.595 -541.305)" fill="#554e56" fill-rule="evenodd"/>
          </g>
          <g id="Group_1207964" data-name="Group 1207964" transform="translate(36.105 57.133)">
            <path id="Path_1051833" data-name="Path 1051833" d="M341.587,541.3c2.571,0,4.009,2.01,3.876,4.965h2.456c.13-2.955-1.308-4.965-3.876-4.965h-2.456Z" transform="translate(-341.587 -541.305)" fill="#433f43" fill-rule="evenodd"/>
          </g>
          <g id="Group_1207965" data-name="Group 1207965" transform="translate(29.696 57.133)">
            <rect id="Rectangle_418497" data-name="Rectangle 418497" width="2.211" height="4.965" fill="#433f43"/>
          </g>
          <g id="Group_1207966" data-name="Group 1207966" transform="translate(38.902 29.535)">
            <path id="Path_1051834" data-name="Path 1051834" d="M373.593,282.055h-4.621a.926.926,0,0,1,0-1.851h4.621a.926.926,0,1,1,0,1.851Z" transform="translate(-368.046 -280.204)"/>
          </g>
          <g id="Group_1207967" data-name="Group 1207967" transform="translate(0 25.829)">
            <path id="Path_1051835" data-name="Path 1051835" d="M6.883,256.5a.925.925,0,0,1-.925-.926v-1.451H.926A.926.926,0,0,1,0,253.2v-4.756a.926.926,0,0,1,.926-.926H5.958V246.07a.926.926,0,0,1,1.424-.78l7.427,4.753a.926.926,0,0,1,0,1.559l-7.427,4.756A.926.926,0,0,1,6.883,256.5Zm-5.032-4.227H6.883a.926.926,0,0,1,.926.926v.684l4.785-3.064-4.785-3.062v.685a.926.926,0,0,1-.926.926H1.851Z" transform="translate(0 -245.144)"/>
          </g>
          <g id="Group_1207968" data-name="Group 1207968" transform="translate(0.819 7.849)">
            <path id="Path_1051836" data-name="Path 1051836" d="M19.82,88.008a.93.93,0,0,1-.2-.021L11,86.109a.926.926,0,0,1-.457-1.56l1.029-1.026L8.017,79.977a.926.926,0,0,1,0-1.311L11.389,75.3a.925.925,0,0,1,1.307,0l3.559,3.55,1.033-1.028a.926.926,0,0,1,1.557.459l1.879,8.6a.926.926,0,0,1-.9,1.123Zm-6.768-3.346,5.556,1.21L17.4,80.328l-.489.487a.926.926,0,0,1-1.307,0l-3.558-3.549L9.981,79.322l3.555,3.546a.926.926,0,0,1,0,1.311Z" transform="translate(-7.745 -75.032)"/>
          </g>
          <g id="Group_1207969" data-name="Group 1207969" transform="translate(0.819 42.194)">
            <path id="Path_1051837" data-name="Path 1051837" d="M12.043,412.943a.923.923,0,0,1-.653-.27l-3.372-3.36a.926.926,0,0,1,0-1.311l3.555-3.546-1.029-1.026A.926.926,0,0,1,11,401.87l8.624-1.877a.926.926,0,0,1,1.1,1.1l-1.879,8.6a.926.926,0,0,1-1.558.458l-1.033-1.03L12.7,412.673A.923.923,0,0,1,12.043,412.943Zm-2.061-4.286,2.061,2.054,3.559-3.55a.926.926,0,0,1,1.307,0l.489.488,1.21-5.541-5.556,1.209.484.483a.926.926,0,0,1,0,1.311Z" transform="translate(-7.745 -399.972)"/>
          </g>
          <g id="Group_1207970" data-name="Group 1207970" transform="translate(47.949 25.829)">
            <path id="Path_1051838" data-name="Path 1051838" d="M461.992,256.5a.926.926,0,0,1-.5-.146l-7.43-4.756a.926.926,0,0,1,0-1.559l7.43-4.753a.926.926,0,0,1,1.424.78v1.451h5.032a.926.926,0,0,1,.926.926V253.2a.926.926,0,0,1-.926.926h-5.032v1.451a.926.926,0,0,1-.926.926Zm-5.713-5.681,4.787,3.064V253.2a.926.926,0,0,1,.926-.926h5.032v-2.9h-5.032a.926.926,0,0,1-.926-.926v-.686Z" transform="translate(-453.636 -245.144)"/>
          </g>
          <g id="Group_1207971" data-name="Group 1207971" transform="translate(49.365 7.849)">
            <path id="Path_1051839" data-name="Path 1051839" d="M467.965,88.009a.925.925,0,0,1-.9-1.123l1.882-8.6a.926.926,0,0,1,1.557-.458l1.032,1.028,3.559-3.55a.926.926,0,0,1,1.307,0l3.372,3.364a.926.926,0,0,1,0,1.311l-3.558,3.546,1.029,1.026a.926.926,0,0,1-.457,1.56l-8.623,1.877A.937.937,0,0,1,467.965,88.009Zm2.426-7.68-1.213,5.543,5.555-1.209-.484-.483a.925.925,0,0,1,0-1.311l3.558-3.546-2.062-2.056-3.558,3.549a.926.926,0,0,1-1.307,0Z" transform="translate(-467.04 -75.034)"/>
          </g>
          <g id="Group_1207972" data-name="Group 1207972" transform="translate(49.365 42.195)">
            <path id="Path_1051840" data-name="Path 1051840" d="M475.746,412.945a.923.923,0,0,1-.654-.27l-3.558-3.549-1.032,1.03a.926.926,0,0,1-1.558-.457l-1.882-8.6a.925.925,0,0,1,1.1-1.1l8.623,1.877a.926.926,0,0,1,.457,1.56l-1.029,1.026L479.771,408a.926.926,0,0,1,0,1.311l-3.372,3.36A.923.923,0,0,1,475.746,412.945Zm-4.212-6.052a.923.923,0,0,1,.654.27l3.559,3.55,2.061-2.053-3.558-3.545a.926.926,0,0,1,0-1.311l.485-.483-5.555-1.209,1.213,5.541.49-.488A.922.922,0,0,1,471.534,406.893Z" transform="translate(-467.04 -399.973)"/>
          </g>
          <g id="Group_1207973" data-name="Group 1207973" transform="translate(18.443 29.535)">
            <path id="Path_1051841" data-name="Path 1051841" d="M180.037,282.055h-4.621a.926.926,0,1,1,0-1.851h4.621a.926.926,0,1,1,0,1.851Z" transform="translate(-174.49 -280.204)"/>
          </g>
          <g id="Group_1207974" data-name="Group 1207974" transform="translate(23.719 0)">
            <path id="Path_1051842" data-name="Path 1051842" d="M225.332,12.4a.926.926,0,0,1-.926-.926V8.664c0-.026,0-.06,0-.1-.075-4.727,2.137-5.941,3.71-6.207,1.779-1.871,4.947-1.889,7.4-1.036,2.546.886,5.266,3,5.266,6.281v3.353a.926.926,0,0,1-.926.926h-1.805a11.887,11.887,0,0,1-5.242-1.456c-1.659-.784-2.571-1.165-3.573-.564a12.132,12.132,0,0,0-1.6,1.057c-.314.241-.788.606-1.755,1.3A.925.925,0,0,1,225.332,12.4Zm4.908-4.684A8.127,8.127,0,0,1,233.6,8.749a10.07,10.07,0,0,0,4.451,1.279h.88V7.6c0-2.312-2.167-3.887-4.023-4.533-2.314-.806-4.616-.5-5.6.735a.926.926,0,0,1-.647.347c-1.64.14-2.449,1.615-2.4,4.383,0,.054,0,.1,0,.131v.971l.242-.186a13.76,13.76,0,0,1,1.782-1.178A3.726,3.726,0,0,1,230.24,7.712Z" transform="translate(-224.403 -0.776)"/>
          </g>
          <g id="Group_1207975" data-name="Group 1207975" transform="translate(23.722 9.252)">
            <path id="Path_1051843" data-name="Path 1051843" d="M232.619,97.729a8.094,8.094,0,0,1-8.185-7.981.926.926,0,0,1,1.851,0,6.339,6.339,0,0,0,12.671,0v-.516a.926.926,0,1,1,1.851,0v.516A8.1,8.1,0,0,1,232.619,97.729Z" transform="translate(-224.434 -88.306)"/>
          </g>
          <g id="Group_1207976" data-name="Group 1207976" transform="translate(18.443 15.522)">
            <path id="Path_1051844" data-name="Path 1051844" d="M198.183,173.841a3.208,3.208,0,0,1-3.235-3.173V156.184a.926.926,0,0,1,1.851,0v14.484a1.387,1.387,0,0,0,2.77,0V157.4a.926.926,0,1,1,1.851,0v13.27A3.209,3.209,0,0,1,198.183,173.841Zm-20.455,0a3.21,3.21,0,0,1-3.238-3.173v-15.3a7.847,7.847,0,0,1,7.933-7.74h1.343a.926.926,0,0,1,0,1.851h-1.343a5.994,5.994,0,0,0-6.082,5.889v15.3a1.387,1.387,0,0,0,2.77,0V156.184a.926.926,0,0,1,1.851,0v14.484A3.208,3.208,0,0,1,177.728,173.84Zm22.424-19.648a.926.926,0,0,1-.877-.631,6.062,6.062,0,0,0-5.787-4.083h-1.347a.926.926,0,1,1,0-1.851h1.347a7.911,7.911,0,0,1,7.542,5.345.926.926,0,0,1-.878,1.22Z" transform="translate(-174.49 -147.627)"/>
          </g>
          <g id="Group_1207977" data-name="Group 1207977" transform="translate(23.065 34.472)">
            <path id="Path_1051845" data-name="Path 1051845" d="M233.709,350.5c-.03,0-.06,0-.091,0a.926.926,0,0,1-.831-1.011l1.262-12.925v-7.795H220.063v7.795l.4,4.153a.926.926,0,1,1-1.842.18l-.409-4.2c0-.03,0-.06,0-.09V327.84a.926.926,0,0,1,.926-.926h15.837a.926.926,0,0,1,.926.926V336.6q0,.045,0,.09l-1.266,12.97A.926.926,0,0,1,233.709,350.5Zm-13.306,0a.926.926,0,0,1-.92-.836l-.451-4.623a.926.926,0,1,1,1.842-.18l.451,4.623a.926.926,0,0,1-.831,1.011A.906.906,0,0,1,220.4,350.5Z" transform="translate(-218.212 -326.914)"/>
          </g>
          <g id="Group_1207978" data-name="Group 1207978" transform="translate(30.981 56.207)">
            <path id="Path_1051846" data-name="Path 1051846" d="M304.568,539.364h-10.53a.926.926,0,0,1-.926-.926v-4.965a.926.926,0,0,1,.926-.926h6.654a4.52,4.52,0,0,1,3.359,1.356,6.053,6.053,0,0,1,1.442,4.575A.926.926,0,0,1,304.568,539.364Zm-9.6-1.851h8.663a3.8,3.8,0,0,0-.913-2.329,2.678,2.678,0,0,0-2.022-.785h-5.728Z" transform="translate(-293.112 -532.548)"/>
          </g>
          <g id="Group_1207979" data-name="Group 1207979" transform="translate(20.447 56.208)">
            <path id="Path_1051847" data-name="Path 1051847" d="M204.9,539.365H194.377a.925.925,0,0,1-.925-.885,6.052,6.052,0,0,1,1.442-4.575,4.519,4.519,0,0,1,3.359-1.356h6.65a.926.926,0,0,1,.926.926v4.965A.926.926,0,0,1,204.9,539.365Zm-9.585-1.851h8.659V534.4h-5.725a2.679,2.679,0,0,0-2.022.785A3.8,3.8,0,0,0,195.319,537.514Z" transform="translate(-193.444 -532.549)"/>
          </g>
          <g id="Group_1207980" data-name="Group 1207980" transform="translate(30.981 39.884)">
            <path id="Path_1051848" data-name="Path 1051848" d="M294.038,396.292a.926.926,0,0,1-.926-.926V379.044a.926.926,0,1,1,1.851,0v16.323A.925.925,0,0,1,294.038,396.292Z" transform="translate(-293.112 -378.118)"/>
          </g>
        </g>
      </g>
    </g>
  </g>
</svg>
