<svg xmlns="http://www.w3.org/2000/svg" width="39.429" height="39.429" viewBox="0 0 39.429 39.429">
  <g id="Group_1208171" data-name="Group 1208171" transform="translate(-373.106 -1040.643)">
    <path id="leadership_2838119" d="M39.429,19.733a.533.533,0,0,1-.156.377L37.279,22.1a.533.533,0,0,1-.753-.753l1.084-1.084H31.447a.533.533,0,1,1,0-1.066H37.61l-1.084-1.084a.533.533,0,0,1,.753-.753l1.993,1.993A.533.533,0,0,1,39.429,19.733ZM2.9,21.251a.533.533,0,0,0,0-.753L1.819,19.414H7.982a.533.533,0,0,0,0-1.066H1.819L2.9,17.264a.533.533,0,0,0-.753-.753L.156,18.5a.533.533,0,0,0,0,.753L2.15,21.251a.533.533,0,0,0,.753,0Zm7.13-8.641L4.7,9.529l1.481-.4A.533.533,0,0,0,5.9,8.1l-2.723.73a.533.533,0,0,0-.377.653l.73,2.723a.545.545,0,0,0,.653.377.533.533,0,0,0,.377-.653l-.4-1.48L9.5,13.533a.543.543,0,0,0,.728-.195A.533.533,0,0,0,10.033,12.61ZM9.074,24.343,3.737,27.424l.4-1.481A.533.533,0,1,0,3.1,25.668l-.73,2.723a.533.533,0,0,0,.377.653l2.723.73a.539.539,0,0,0,.653-.377.533.533,0,0,0-.377-.653l-1.481-.4,5.337-3.081a.533.533,0,0,0-.533-.923ZM30.089,14.335a.5.5,0,0,0,.266-.064l5.337-3.081-.4,1.481a.533.533,0,1,0,1.029.276l.73-2.723a.533.533,0,0,0-.377-.653l-2.723-.73a.533.533,0,1,0-.276,1.029l1.481.4-5.337,3.081a.533.533,0,0,0-.195.728.553.553,0,0,0,.462.259ZM35.9,26.406a.533.533,0,1,0-1.029.276l.4,1.481-5.337-3.082A.533.533,0,1,0,29.4,26l5.337,3.082-1.481.4a.533.533,0,0,0-.377.653.548.548,0,0,0,.653.377l2.723-.73a.533.533,0,0,0,.377-.653ZM19.836,28.05a.533.533,0,0,0-.533.533V38.9a.533.533,0,0,0,1.066,0V28.583a.533.533,0,0,0-.533-.533Zm8.1-15.249V23.042a3.7,3.7,0,0,1-3.259,3.606V38.9a.533.533,0,0,1-1.066,0V15.7a.533.533,0,1,1,1.066,0v9.869a2.625,2.625,0,0,0,2.193-2.53V12.8c0-1.643-1.788-2.332-2.854-2.6a17.384,17.384,0,0,0-8.6,0c-1.3.335-2.858,1.058-2.858,2.6V23.042a2.625,2.625,0,0,0,2.193,2.53V15.7a.533.533,0,0,1,1.066,0V38.9a.533.533,0,0,1-1.066,0V26.648a3.7,3.7,0,0,1-3.259-3.606V12.8c0-1.734,1.3-3.023,3.659-3.63a18.152,18.152,0,0,1,2.945-.5,5.236,5.236,0,0,1-2.334-4.582A3.734,3.734,0,0,1,19.714,0a3.734,3.734,0,0,1,3.954,4.093,5.232,5.232,0,0,1-2.343,4.588,19.437,19.437,0,0,1,2.949.49c2.328.578,3.663,1.9,3.663,3.631ZM19.714,8.056c1.592,0,2.888-1.778,2.888-3.963,0-2.634-1.809-3.027-2.888-3.027s-2.888.393-2.888,3.027c0,2.185,1.3,3.963,2.888,3.963Z" transform="translate(373.106 1040.643)"/>
  </g>
</svg>
