<svg xmlns="http://www.w3.org/2000/svg" xmlns:xlink="http://www.w3.org/1999/xlink" width="113" height="113" viewBox="0 0 113 113">
  <defs>
    <filter id="Path_982547" x="0" y="0" width="113" height="113" filterUnits="userSpaceOnUse">
      <feOffset dy="3" input="SourceAlpha"/>
      <feGaussianBlur stdDeviation="3" result="blur"/>
      <feFlood flood-opacity="0.161"/>
      <feComposite operator="in" in2="blur"/>
      <feComposite in="SourceGraphic"/>
    </filter>
  </defs>
  <g id="Group_1208219" data-name="Group 1208219" transform="translate(-3668 -3878.335)">
    <g id="Group_1208061" data-name="Group 1208061">
      <g id="Group_1207900" data-name="Group 1207900" transform="translate(-1618.49 1958.062)">
        <g id="Group_1176928" data-name="Group 1176928" transform="translate(5295.49 1926.273)">
          <g id="Group_1172322" data-name="Group 1172322" transform="translate(0 0)">
            <g id="Group_1164700" data-name="Group 1164700">
              <g id="Group_1160931" data-name="Group 1160931">
                <g id="Group_1160749" data-name="Group 1160749">
                  <g id="Group_1158891" data-name="Group 1158891">
                    <g id="Group_1157406" data-name="Group 1157406">
                      <g id="Group_1155793" data-name="Group 1155793">
                        <g id="Group_1154704" data-name="Group 1154704">
                          <g id="Group_1150790" data-name="Group 1150790">
                            <g id="Group_1154214" data-name="Group 1154214">
                              <g id="Group_1152583" data-name="Group 1152583">
                                <g id="Group_1146973" data-name="Group 1146973">
                                  <g id="Group_1146954" data-name="Group 1146954">
                                    <g transform="matrix(1, 0, 0, 1, -9, -6)" filter="url(#Path_982547)">
                                      <g id="Path_982547-2" data-name="Path 982547" transform="translate(9 6)" fill="#ebe9f0">
                                        <path d="M 47.5000114440918 93.49987030029297 C 41.28938293457031 93.49987030029297 35.26534652709961 92.28384399414062 29.5951976776123 89.88558959960938 C 24.11773109436035 87.56881713867188 19.19814491271973 84.25183868408203 14.97310447692871 80.02680206298828 C 10.74805164337158 75.80176544189453 7.43107795715332 70.88218688964844 5.114304542541504 65.40472412109375 C 2.716038227081299 59.73458862304688 1.500011444091797 53.71054840087891 1.500011444091797 47.49993515014648 C 1.500011444091797 41.28932189941406 2.716038227081299 35.26528167724609 5.114304542541504 29.59514808654785 C 7.43107795715332 24.1176815032959 10.74805164337158 19.1981086730957 14.97310447692871 14.97306823730469 C 19.19814491271973 10.74802875518799 24.11773109436035 7.431055068969727 29.5951976776123 5.11428165435791 C 35.26534652709961 2.716028451919556 41.28938293457031 1.500001788139343 47.5000114440918 1.500001788139343 C 53.71063995361328 1.500001788139343 59.73467636108398 2.716028451919556 65.40482330322266 5.11428165435791 C 70.88229370117188 7.431055068969727 75.8018798828125 10.74802875518799 80.02691650390625 14.97306823730469 C 84.25196838378906 19.1981086730957 87.56894683837891 24.1176815032959 89.88571929931641 29.59514808654785 C 92.28398132324219 35.26528167724609 93.50001525878906 41.28932189941406 93.50001525878906 47.49993515014648 C 93.50001525878906 53.71054840087891 92.28398132324219 59.73458862304688 89.88571929931641 65.40472412109375 C 87.56894683837891 70.88218688964844 84.25196838378906 75.80176544189453 80.02691650390625 80.02680206298828 C 75.8018798828125 84.25183868408203 70.88229370117188 87.56881713867188 65.40482330322266 89.88558959960938 C 59.73467636108398 92.28384399414062 53.71063995361328 93.49987030029297 47.5000114440918 93.49987030029297 Z" stroke="none"/>
                                        <path d="M 47.5000114440918 3 C 41.49122619628906 3 35.66378021240234 4.1761474609375 30.17951965332031 6.495796203613281 C 24.880859375 8.7369384765625 20.12153625488281 11.94596862792969 16.03376770019531 16.03373718261719 C 11.94598388671875 20.12149047851562 8.736968994140625 24.88081359863281 6.495811462402344 30.17947387695312 C 4.176162719726562 35.66371917724609 3.000007629394531 41.49116516113281 3.000007629394531 47.49993515014648 C 3.000007629394531 53.50870513916016 4.176162719726562 59.33615112304688 6.495811462402344 64.82039642333984 C 8.736968994140625 70.11905670166016 11.94598388671875 74.87837982177734 16.03376770019531 78.96613311767578 C 20.12153625488281 83.05390167236328 24.880859375 86.26293182373047 30.17951965332031 88.50407409667969 C 35.66378021240234 90.82372283935547 41.49122619628906 91.99987030029297 47.5000114440918 91.99987030029297 C 53.50879669189453 91.99987030029297 59.33624267578125 90.82372283935547 64.82050323486328 88.50407409667969 C 70.11916351318359 86.26293182373047 74.87848663330078 83.05390167236328 78.96625518798828 78.96613311767578 C 83.05403900146484 74.87837982177734 86.2630615234375 70.11905670166016 88.50421142578125 64.82039642333984 C 90.82386016845703 59.33615112304688 92.00001525878906 53.50870513916016 92.00001525878906 47.49993515014648 C 92.00001525878906 41.49116516113281 90.82386016845703 35.66371917724609 88.50421142578125 30.17947387695312 C 86.2630615234375 24.88081359863281 83.05403900146484 20.12149047851562 78.96625518798828 16.03373718261719 C 74.87848663330078 11.94596862792969 70.11916351318359 8.7369384765625 64.82050323486328 6.495796203613281 C 59.33624267578125 4.1761474609375 53.50879669189453 3 47.5000114440918 3 M 47.5000114440918 0 C 73.73353576660156 0 95.00001525878906 21.26644134521484 95.00001525878906 47.49993515014648 C 95.00001525878906 73.73342895507812 73.73353576660156 94.99987030029297 47.5000114440918 94.99987030029297 C 21.26648712158203 94.99987030029297 7.62939453125e-06 73.73342895507812 7.62939453125e-06 47.49993515014648 C 7.62939453125e-06 21.26644134521484 21.26648712158203 0 47.5000114440918 0 Z" stroke="none" fill="#453179"/>
                                      </g>
                                    </g>
                                  </g>
                                </g>
                              </g>
                            </g>
                          </g>
                        </g>
                      </g>
                    </g>
                  </g>
                </g>
              </g>
            </g>
          </g>
        </g>
      </g>
      <g id="rejected_3890916" transform="translate(3690.203 3888.273)">
        <path id="Path_1052105" data-name="Path 1052105" d="M280.963,151.595H261.884a7.2,7.2,0,0,1-7.2-7.2V117.1a7.2,7.2,0,0,1,7.2-7.2h19.079a7.2,7.2,0,0,1,7.2,7.2v27.3A7.2,7.2,0,0,1,280.963,151.595Z" transform="translate(-220.567 -82.915)" fill="#f5df4d"/>
        <path id="Path_1052106" data-name="Path 1052106" d="M22.914,23.61a6.921,6.921,0,0,1,.029,9.816c-2.263,2.263-8.272,5.963-13.7,5.23A1.991,1.991,0,0,1,7.8,35.65c2.39-3.857,1.466-7.838,5.045-11.686a7.028,7.028,0,0,1,10.072-.355Z" transform="translate(-6.498 -6.489)" fill="#404656"/>
        <path id="Path_1052107" data-name="Path 1052107" d="M13.551,247.718a3.577,3.577,0,0,1,3.252-6.372,11.8,11.8,0,0,0,6.7,1.178,6.5,6.5,0,0,0,4.519-2.279,3.577,3.577,0,1,1,5.812,4.17c-4.248,5.921-13.48,6.775-20.282,3.3Z" transform="translate(-10.047 -194.503)" fill="#939597"/>
        <path id="Path_1052108" data-name="Path 1052108" d="M11.991,257.135a3.577,3.577,0,0,0,1.56,4.812,18.313,18.313,0,0,0,2.5,1.046,9.872,9.872,0,0,0,2.262-6.784,11.229,11.229,0,0,1-1.511-.634,3.577,3.577,0,0,0-4.812,1.56Z" transform="translate(-10.047 -208.731)" fill="#c99b80"/>
        <path id="Path_1052109" data-name="Path 1052109" d="M221.172,257.224a26.063,26.063,0,0,0-9.079-9.661,3.577,3.577,0,0,1,3.565-6.2,33.118,33.118,0,0,1,11.786,12.424,3.577,3.577,0,1,1-6.272,3.439Z" transform="translate(-182.124 -196.348)" fill="#939597"/>
        <path id="Path_1052110" data-name="Path 1052110" d="M291.359,326.037q-.476-.869-1.011-1.715c-2.714-.141-5.076,1.806-6.247,3.509.351.54.681,1.09.986,1.646a3.577,3.577,0,0,0,6.272-3.439Z" transform="translate(-246.039 -268.601)" fill="#c99b80"/>
        <path id="Path_1052111" data-name="Path 1052111" d="M138.914,239.529a9.53,9.53,0,0,0,1.1-4.458v-7.333a7.705,7.705,0,0,0-7.705-7.705h-3.739a7.705,7.705,0,0,0-7.705,7.705v7.333a9.529,9.529,0,0,0,1.1,4.458,75.193,75.193,0,0,0-1.57,13.143,3.577,3.577,0,1,0,7.153,0,70.654,70.654,0,0,1,.776-8.263,9.545,9.545,0,0,0,4.229,0,70.66,70.66,0,0,1,.776,8.263,3.577,3.577,0,1,0,7.154,0A75.223,75.223,0,0,0,138.914,239.529Z" transform="translate(-104.268 -178.29)" fill="#d4d5d5"/>
        <path id="Path_1052112" data-name="Path 1052112" d="M136,220.034h-3.739a7.706,7.706,0,0,0-7.6,6.455,26.451,26.451,0,0,0,18.944,0A7.706,7.706,0,0,0,136,220.034Z" transform="translate(-107.961 -178.291)" fill="#939597"/>
        <ellipse id="Ellipse_13450" data-name="Ellipse 13450" cx="17.165" cy="14.002" rx="17.165" ry="14.002" transform="translate(9.008 18.599)" fill="#c99b80"/>
        <g id="Group_1208060" data-name="Group 1208060" transform="translate(11.382 32.484)">
          <g id="Group_1208059" data-name="Group 1208059">
            <g id="Group_1208058" data-name="Group 1208058">
              <g id="Group_1208056" data-name="Group 1208056">
                <ellipse id="Ellipse_13451" data-name="Ellipse 13451" cx="3.987" cy="3.175" rx="3.987" ry="3.175" fill="#f1bdc4"/>
              </g>
              <g id="Group_1208057" data-name="Group 1208057" transform="translate(21.609 0.019)">
                <ellipse id="Ellipse_13452" data-name="Ellipse 13452" cx="3.987" cy="3.175" rx="3.987" ry="3.175" fill="#f1bdc4"/>
              </g>
            </g>
          </g>
        </g>
        <path id="Path_1052113" data-name="Path 1052113" d="M84.482,28.455c8.731-3.027,16.056,4.149,16.582,9.5a1.714,1.714,0,0,1-1.969,1.856c-4.03-.628-10.919-4.191-14.151-6.264a2.089,2.089,0,0,0-2.258,0c-3.232,2.073-10.121,5.636-14.151,6.264a1.714,1.714,0,0,1-1.969-1.856c.525-5.35,7.851-12.526,16.582-9.5a2.038,2.038,0,0,0,1.333,0Z" transform="translate(-57.642 -11.757)" fill="#565e75"/>
        <path id="Path_1052114" data-name="Path 1052114" d="M120.922,340.016a9.517,9.517,0,0,0,1.044,3.421,75.194,75.194,0,0,0-1.57,13.143,3.577,3.577,0,1,0,7.153,0,70.657,70.657,0,0,1,.776-8.263,9.544,9.544,0,0,0,4.229,0,70.663,70.663,0,0,1,.776,8.263,3.577,3.577,0,0,0,7.154,0,75.2,75.2,0,0,0-1.571-13.142,9.521,9.521,0,0,0,1.045-3.421H120.922Z" transform="translate(-104.267 -282.198)" fill="#939597"/>
        <path id="Path_1052115" data-name="Path 1052115" d="M120.922,340.016a9.517,9.517,0,0,0,1.044,3.421,75.194,75.194,0,0,0-1.57,13.143,3.577,3.577,0,1,0,7.153,0,70.657,70.657,0,0,1,.776-8.263,9.544,9.544,0,0,0,4.229,0,70.663,70.663,0,0,1,.776,8.263,3.577,3.577,0,0,0,7.154,0,75.2,75.2,0,0,0-1.571-13.142,9.521,9.521,0,0,0,1.045-3.421H120.922Z" transform="translate(-104.267 -282.198)" fill="#939597"/>
        <path id="Path_1052116" data-name="Path 1052116" d="M127.549,452.5c0-.28.008-.594.022-.931a18.263,18.263,0,0,0-7.124-.692c-.033.612-.051,1.163-.051,1.623a3.577,3.577,0,0,0,7.153,0Z" transform="translate(-104.267 -378.118)" fill="#fbf2b8"/>
        <path id="Path_1052117" data-name="Path 1052117" d="M216.768,451.569c.014.337.022.651.022.931a3.577,3.577,0,0,0,7.154,0c0-.46-.018-1.011-.051-1.623A18.258,18.258,0,0,0,216.768,451.569Z" transform="translate(-187.727 -378.119)" fill="#fbf2b8"/>
        <path id="Path_1052118" data-name="Path 1052118" d="M34.659,30h0a1,1,0,0,0-1,1V32.6a1,1,0,0,0,1,1.006h0a1,1,0,0,0,1-1V31.01A1,1,0,0,0,34.659,30Zm20.123,8.081a1,1,0,0,0-1.421,0l-2.5,2.5-2.5-2.5a1,1,0,1,0-1.421,1.421l2.5,2.5-2.5,2.5a1,1,0,1,0,1.421,1.421l2.5-2.5,2.5,2.5a1,1,0,1,0,1.421-1.421l-2.5-2.5,2.5-2.5A1,1,0,0,0,54.782,38.085ZM17.7,29.988h0a1,1,0,0,0-1,1v1.591a1,1,0,0,0,1,1.006h0a1,1,0,0,0,1-1V30.994a1,1,0,0,0-1-1.006Zm42.7-4.005H44.408c-.364-3.221-2.749-6.672-6.108-8.823a13.347,13.347,0,0,0-11.789-1.411,1.035,1.035,0,0,1-.675,0,13.294,13.294,0,0,0-9.3.14A7.781,7.781,0,0,0,11.4,14.163c-4.125.115-7.057,3.161-8.436,7.05a1,1,0,0,0,1.894.671c1.084-3.059,3.316-5.621,6.6-5.713a5.807,5.807,0,0,1,3.013.731C10.5,19.26,8.224,23.05,7.925,26.1a2.693,2.693,0,0,0,.828,2.226A12.719,12.719,0,0,0,8.164,30.6a12.293,12.293,0,0,1-5.284.571.986.986,0,0,1-.728-1.48,13.5,13.5,0,0,0,1.419-3.21,1,1,0,0,0-1.92-.594A11.562,11.562,0,0,1,.444,28.633a3,3,0,0,0,2.167,4.53,13.813,13.813,0,0,0,5.395-.427c.052,5.537,3.285,10.256,8.512,12.81-.069.137-.135.276-.2.416-1.914,1.346-5.756,1.7-9.107-.013a4.582,4.582,0,1,0-4.166,8.162,19.987,19.987,0,0,0,12.546,1.827,11.4,11.4,0,0,0,1.041,5.42,78.914,78.914,0,0,0-1.51,13.024,4.582,4.582,0,0,0,9.163,0,64.809,64.809,0,0,1,.623-7.1,10.492,10.492,0,0,0,2.525,0,64.828,64.828,0,0,1,.623,7.1,4.582,4.582,0,0,0,9.163,0c0-1.4-.17-3.7-.431-6.066a8.191,8.191,0,0,0,4.526,1.369h16.83a1,1,0,1,0,0-2.01H41.317a6.2,6.2,0,0,1-4.912-2.43c-.214-1.5-.453-2.875-.694-3.887a10.59,10.59,0,0,0,.844-2.55,25.534,25.534,0,0,1,1.612,2.551,4.588,4.588,0,0,0,7.682.548H58.875a1,1,0,0,0,0-2.01H46.7a4.546,4.546,0,0,0-.5-2.944q-.6-1.1-1.3-2.167H58.875a1,1,0,0,0,0-2.01H43.5a34.122,34.122,0,0,0-7.451-7.342c7.089-3.587,9.76-10.931,7.542-17.11a2.773,2.773,0,0,0,.3-.332H60.4a6.2,6.2,0,0,1,6.19,6.19v27.3A6.212,6.212,0,0,1,62.522,67.3a1,1,0,1,0,.69,1.887,8.229,8.229,0,0,0,5.384-7.7v-27.3a8.209,8.209,0,0,0-8.2-8.2ZM5.7,53.086a17.1,17.1,0,0,1-1.735-.765A2.572,2.572,0,0,1,6.3,47.739c.322.164.654.312.992.448A9.721,9.721,0,0,1,5.7,53.086Zm9.9.8a17.636,17.636,0,0,1-7.908-.182A12.145,12.145,0,0,0,9.269,48.8a11.774,11.774,0,0,0,6.374-.263C15.611,48.836,15.609,49.453,15.594,53.89Zm28.155,2.84c.238.393.471.789.69,1.19a2.572,2.572,0,1,1-4.51,2.473c-.2-.373-.422-.744-.647-1.111A6.736,6.736,0,0,1,43.749,56.73Zm-1.2-1.847a8.973,8.973,0,0,0-4.416,2.67q-.649-.9-1.378-1.768c-.018-6.486.041-6.453-.055-7.313a33.365,33.365,0,0,1,5.849,6.411Zm-20.268,19.5a2.572,2.572,0,0,1-5.144,0c0-.212,0-.449.013-.7a18.841,18.841,0,0,1,5.132.508Q22.278,74.286,22.278,74.382Zm7-8.408a1,1,0,0,0-1.215-.835,8.58,8.58,0,0,1-3.787,0,1,1,0,0,0-1.215.835c-.273,1.875-.548,4.215-.689,6.166a21.149,21.149,0,0,0-5.114-.476,72.941,72.941,0,0,1,1.411-10.169c.186-.7-.38-.858-.824-2.672H34.5c-.442,1.8-1.009,1.971-.824,2.672a72.95,72.95,0,0,1,1.411,10.169,21.136,21.136,0,0,0-5.114.476c-.141-1.951-.416-4.291-.689-6.166ZM17.6,49.448a6.66,6.66,0,0,1,.77-3.119,24.365,24.365,0,0,0,15.6,0,6.661,6.661,0,0,1,.77,3.119v7.333c0,.011,0,.021,0,.032H17.6c0-.194,0-4.183,0-7.365ZM32.64,76.953a2.575,2.575,0,0,1-2.572-2.572q0-.1,0-.2a18.831,18.831,0,0,1,5.132-.508c.008.254.013.491.013.7a2.575,2.575,0,0,1-2.572,2.572Zm5.389-35.217C35.054,44.263,30.954,45.6,26.173,45.6s-8.881-1.335-11.856-3.862a11.612,11.612,0,0,1-3.7-12.657,2.742,2.742,0,0,0,.428-.033c4.535-.707,11.753-4.625,14.538-6.411a1.089,1.089,0,0,1,1.172,0c2.785,1.786,10,5.7,14.538,6.411a2.756,2.756,0,0,0,.427.032,11.611,11.611,0,0,1-3.7,12.658ZM41.607,27.06c-2.251-.351-8.183-2.538-13.763-6.117a3.1,3.1,0,0,0-3.342,0c-5.58,3.579-11.512,5.766-13.763,6.117a.709.709,0,0,1-.814-.765c.258-2.623,2.349-5.614,5.205-7.443a11.377,11.377,0,0,1,10.047-1.2,3.055,3.055,0,0,0,1.991,0h0a11.376,11.376,0,0,1,10.047,1.2c2.856,1.829,4.948,4.82,5.205,7.443a.708.708,0,0,1-.814.765ZM28.412,32.3l-4.472,0h0a1,1,0,0,0,0,2.01l4.472,0h0a1,1,0,0,0,0-2.01Z" transform="translate(0)"/>
      </g>
    </g>
  </g>
</svg>
