<svg xmlns="http://www.w3.org/2000/svg" xmlns:xlink="http://www.w3.org/1999/xlink" width="113" height="113" viewBox="0 0 113 113">
  <defs>
    <filter id="Path_982547" x="0" y="0" width="113" height="113" filterUnits="userSpaceOnUse">
      <feOffset dy="3" input="SourceAlpha"/>
      <feGaussianBlur stdDeviation="3" result="blur"/>
      <feFlood flood-opacity="0.161"/>
      <feComposite operator="in" in2="blur"/>
      <feComposite in="SourceGraphic"/>
    </filter>
  </defs>
  <g id="Group_1208552" data-name="Group 1208552" transform="translate(-901 -4512.942)">
    <g id="Group_1208497" data-name="Group 1208497">
      <g id="Group_1208255" data-name="Group 1208255" transform="translate(0 1683.136)">
        <g id="Group_1207723" data-name="Group 1207723" transform="translate(-1 752.362)">
          <g id="Group_1207256" data-name="Group 1207256" transform="translate(0 -8747.046)">
            <g id="Group_1204127" data-name="Group 1204127" transform="translate(0 6984.49)">
              <g id="Group_1203960" data-name="Group 1203960" transform="translate(0.44 1899.125)">
                <g id="Group_1203499" data-name="Group 1203499" transform="translate(0 -197.72)">
                  <g id="Group_1202591" data-name="Group 1202591" transform="translate(910.561 2144.596)">
                    <g id="Group_1172010" data-name="Group 1172010" transform="translate(0)">
                      <g id="Group_1171046" data-name="Group 1171046">
                        <g id="Group_1148525" data-name="Group 1148525">
                          <g transform="matrix(1, 0, 0, 1, -9, -6)" filter="url(#Path_982547)">
                            <g id="Path_982547-2" data-name="Path 982547" transform="translate(9 6)" fill="#edf3fc">
                              <path d="M 47.5 93.5 C 41.28937149047852 93.5 35.26533508300781 92.28397369384766 29.59518623352051 89.88570404052734 C 24.11771965026855 87.56893157958984 19.19813346862793 84.25196075439453 14.97309303283691 80.02691650390625 C 10.74804019927979 75.80186462402344 7.431066513061523 70.88229370117188 5.114293098449707 65.40481567382812 C 2.716026782989502 59.73468017578125 1.5 53.71062850952148 1.5 47.5 C 1.5 41.28937149047852 2.716026782989502 35.26533508300781 5.114293098449707 29.59518623352051 C 7.431066513061523 24.11771965026855 10.74804019927979 19.19813346862793 14.97309303283691 14.97309303283691 C 19.19813346862793 10.74804019927979 24.11771965026855 7.431066513061523 29.59518623352051 5.114293098449707 C 35.26533508300781 2.716026782989502 41.28937149047852 1.5 47.5 1.5 C 53.71062850952148 1.5 59.73468017578125 2.716026782989502 65.40481567382812 5.114293098449707 C 70.88229370117188 7.431066513061523 75.80186462402344 10.74804019927979 80.02691650390625 14.97309303283691 C 84.25196075439453 19.19813346862793 87.56893157958984 24.11771965026855 89.88570404052734 29.59518623352051 C 92.28397369384766 35.26533508300781 93.5 41.28937149047852 93.5 47.5 C 93.5 53.71062850952148 92.28397369384766 59.73468017578125 89.88570404052734 65.40481567382812 C 87.56893157958984 70.88229370117188 84.25196075439453 75.80186462402344 80.02691650390625 80.02691650390625 C 75.80186462402344 84.25196075439453 70.88229370117188 87.56893157958984 65.40481567382812 89.88570404052734 C 59.73468017578125 92.28397369384766 53.71062850952148 93.5 47.5 93.5 Z" stroke="none"/>
                              <path d="M 47.5 3 C 41.49121475219727 3 35.66376876831055 4.176155090332031 30.17950439453125 6.495796203613281 C 24.88084411621094 8.736953735351562 20.12152099609375 11.94598388671875 16.03375244140625 16.03375244140625 C 11.94598388671875 20.12152099609375 8.736953735351562 24.88084411621094 6.495796203613281 30.17950439453125 C 4.176155090332031 35.66376876831055 3 41.49121475219727 3 47.5 C 3 53.50878524780273 4.176155090332031 59.33623123168945 6.495796203613281 64.82049560546875 C 8.736953735351562 70.11915588378906 11.94598388671875 74.87847900390625 16.03375244140625 78.96624755859375 C 20.12152099609375 83.05401611328125 24.88084411621094 86.26304626464844 30.17950439453125 88.50419616699219 C 35.66376876831055 90.82384490966797 41.49121475219727 92 47.5 92 C 53.50878524780273 92 59.33623123168945 90.82384490966797 64.82049560546875 88.50419616699219 C 70.11915588378906 86.26304626464844 74.87847900390625 83.05401611328125 78.96624755859375 78.96624755859375 C 83.05401611328125 74.87847900390625 86.26304626464844 70.11915588378906 88.50419616699219 64.82049560546875 C 90.82384490966797 59.33623123168945 92 53.50878524780273 92 47.5 C 92 41.49121475219727 90.82384490966797 35.66376876831055 88.50419616699219 30.17950439453125 C 86.26304626464844 24.88084411621094 83.05401611328125 20.12152099609375 78.96624755859375 16.03375244140625 C 74.87847900390625 11.94598388671875 70.11915588378906 8.736953735351562 64.82049560546875 6.495796203613281 C 59.33623123168945 4.176155090332031 53.50878524780273 3 47.5 3 M 47.5 0 C 73.7335205078125 0 95 21.2664794921875 95 47.5 C 95 73.7335205078125 73.7335205078125 95 47.5 95 C 21.2664794921875 95 0 73.7335205078125 0 47.5 C 0 21.2664794921875 21.2664794921875 0 47.5 0 Z" stroke="none" fill="#5692e8"/>
                            </g>
                          </g>
                        </g>
                      </g>
                    </g>
                  </g>
                </g>
              </g>
            </g>
          </g>
        </g>
      </g>
      <g id="skills_7799173" transform="translate(903.521 4527.686)">
        <path id="Path_1053147" data-name="Path 1053147" d="M109.757,68.365l3-.864a2.82,2.82,0,0,1,3.6,2.614l.107,3.124a2.821,2.821,0,0,0,.482,1.482l1.75,2.59a2.82,2.82,0,0,1-1.374,4.23l-2.938,1.067a2.82,2.82,0,0,0-1.261.916L111.2,85.989a2.82,2.82,0,0,1-4.448,0l-1.923-2.465a2.821,2.821,0,0,0-1.261-.916l-2.938-1.067a2.82,2.82,0,0,1-1.374-4.23l1.75-2.59a2.82,2.82,0,0,0,.482-1.482l.107-3.124a2.82,2.82,0,0,1,3.6-2.614l3,.864A2.818,2.818,0,0,0,109.757,68.365Z" transform="translate(-66.378 -52.115)" fill="#f3e64d"/>
        <path id="Path_1053148" data-name="Path 1053148" d="M116.953,74.723a2.819,2.819,0,0,1-.482-1.482l-.107-3.124a2.82,2.82,0,0,0-3.6-2.614l-3,.864a2.821,2.821,0,0,1-1.559,0l-1.479-.425a7.183,7.183,0,0,0,3.667,7.243v3.334c-2.921-.147-5.81-.37-8.709-.671a6.941,6.941,0,0,0-2.8.282,2.822,2.822,0,0,0,1.753,3.414l2.938,1.067a2.821,2.821,0,0,1,1.261.916l1.923,2.465a2.82,2.82,0,0,0,4.448,0l1.923-2.465a2.821,2.821,0,0,1,1.261-.916l2.938-1.067a2.82,2.82,0,0,0,1.374-4.23Z" transform="translate(-66.383 -52.116)" fill="#f8d071"/>
        <path id="Path_1053149" data-name="Path 1053149" d="M265.425,68.365l-3-.864a2.82,2.82,0,0,0-3.6,2.614l-.107,3.124a2.821,2.821,0,0,1-.482,1.482l-1.75,2.59a2.821,2.821,0,0,0,1.374,4.23l2.938,1.067a2.82,2.82,0,0,1,1.261.916l1.922,2.465a2.821,2.821,0,0,0,4.448,0l1.923-2.465a2.821,2.821,0,0,1,1.261-.916l2.938-1.067a2.82,2.82,0,0,0,1.374-4.23l-1.75-2.59a2.821,2.821,0,0,1-.482-1.482l-.107-3.124a2.82,2.82,0,0,0-3.6-2.614l-3,.864A2.818,2.818,0,0,1,265.425,68.365Z" transform="translate(-203.196 -52.115)" fill="#f3e64d"/>
        <path id="Path_1053150" data-name="Path 1053150" d="M258.237,74.723a2.82,2.82,0,0,0,.482-1.482l.107-3.124a2.82,2.82,0,0,1,3.6-2.614l3,.864a2.821,2.821,0,0,0,1.559,0l1.479-.425a7.183,7.183,0,0,1-3.667,7.243v3.334c2.921-.147,5.81-.37,8.709-.671a6.94,6.94,0,0,1,2.8.282,2.822,2.822,0,0,1-1.753,3.414l-2.938,1.067a2.822,2.822,0,0,0-1.261.916l-1.922,2.465a2.82,2.82,0,0,1-4.448,0l-1.923-2.465a2.821,2.821,0,0,0-1.261-.916l-2.938-1.067a2.82,2.82,0,0,1-1.374-4.23Z" transform="translate(-203.198 -52.116)" fill="#f8d071"/>
        <path id="Path_1053151" data-name="Path 1053151" d="M376.981,29.627,375.9,27.681a2.006,2.006,0,0,0-3.125-.495L371.154,28.7a2.009,2.009,0,0,1-.988.5l-2.183.423a2.006,2.006,0,0,0-1.436,2.819l.941,2.015a2.007,2.007,0,0,1,.173,1.1l-.273,2.207A2.006,2.006,0,0,0,369.626,40l2.207-.273a2.007,2.007,0,0,1,1.1.173l2.015.941a2.006,2.006,0,0,0,2.819-1.436l.423-2.183a2.005,2.005,0,0,1,.5-.988l1.518-1.625a2.006,2.006,0,0,0-.495-3.125l-1.946-1.077A2.007,2.007,0,0,1,376.981,29.627Z" transform="translate(-299.228 -16.66)" fill="#59d5ff"/>
        <path id="Path_1053152" data-name="Path 1053152" d="M38.557,29.627l1.077-1.946a2.006,2.006,0,0,1,3.125-.495L44.383,28.7a2.008,2.008,0,0,0,.988.5l2.183.423a2.006,2.006,0,0,1,1.436,2.819l-.941,2.015a2.007,2.007,0,0,0-.173,1.1l.273,2.207A2.006,2.006,0,0,1,45.912,40L43.7,39.73a2.007,2.007,0,0,0-1.1.173l-2.015.941a2.006,2.006,0,0,1-2.819-1.436l-.423-2.183a2.007,2.007,0,0,0-.5-.988l-1.518-1.625a2.006,2.006,0,0,1,.495-3.125l1.946-1.077A2.006,2.006,0,0,0,38.557,29.627Z" transform="translate(-10.702 -16.66)" fill="#59d5ff"/>
        <g id="Group_1208493" data-name="Group 1208493" transform="translate(43.783 7.501)">
          <rect id="Rectangle_418623" data-name="Rectangle 418623" width="10.583" height="14.713" transform="translate(3.73 10.267)" fill="#b08bd8"/>
          <path id="Path_1053153" data-name="Path 1053153" d="M215.235,86.6v5.881a33.965,33.965,0,0,0,10.583,0V86.6Z" transform="translate(-211.505 -76.33)" fill="#827cd1"/>
          <path id="Path_1053154" data-name="Path 1053154" d="M195.522,20.951a35.073,35.073,0,0,0,6.016-.575,3.649,3.649,0,0,0,2.286-5.761,35.95,35.95,0,0,0-6.008-6.3,3.647,3.647,0,0,0-4.588,0,35.953,35.953,0,0,0-6.008,6.3,3.649,3.649,0,0,0,2.286,5.761A35.071,35.071,0,0,0,195.522,20.951Z" transform="translate(-186.501 -7.501)" fill="#b08bd8"/>
        </g>
        <path id="Path_1053155" data-name="Path 1053155" d="M147.28,377.714a4.1,4.1,0,0,0,3.94-5.229,18.919,18.919,0,0,0-36.36,0,4.1,4.1,0,0,0,3.94,5.229h28.48Z" transform="translate(-80.236 -305.701)" fill="#72d98b"/>
        <path id="Path_1053156" data-name="Path 1053156" d="M154.143,364.192a34.29,34.29,0,0,0,26.443,0,18.911,18.911,0,0,0-26.443,0Z" transform="translate(-114.561 -305.701)" fill="#00c67f"/>
        <path id="Path_1053157" data-name="Path 1053157" d="M207.837,378.481a8.444,8.444,0,1,1-16.887,0Z" transform="translate(-146.59 -322.826)" fill="#eeecff"/>
        <path id="Path_1053158" data-name="Path 1053158" d="M206.137,383.327a8.784,8.784,0,0,0,1.7-4.847H190.95a8.784,8.784,0,0,0,1.7,4.847,35.811,35.811,0,0,0,13.486,0Z" transform="translate(-146.59 -322.825)" fill="#d3d3ff"/>
        <ellipse id="Ellipse_13518" data-name="Ellipse 13518" cx="7.014" cy="6.794" rx="7.014" ry="6.794" transform="translate(22.494 33.233)" fill="#da9d81"/>
        <ellipse id="Ellipse_13519" data-name="Ellipse 13519" cx="7.014" cy="6.794" rx="7.014" ry="6.794" transform="translate(69.087 33.233)" fill="#c7856a"/>
        <path id="Path_1053159" data-name="Path 1053159" d="M101.184,175.584a171.29,171.29,0,0,1-17.867-.907,3.449,3.449,0,0,0-3.491,1.975,18.717,18.717,0,0,0-1.735,7.866c0,11.409,10.339,18.579,23.093,18.579s23.093-7.17,23.093-18.579a18.717,18.717,0,0,0-1.735-7.866,3.449,3.449,0,0,0-3.491-1.975A171.29,171.29,0,0,1,101.184,175.584Z" transform="translate(-48.38 -145.46)" fill="#da9d81"/>
        <path id="Path_1053160" data-name="Path 1053160" d="M91.051,175.3c-2.924-.167-5.5-.391-7.736-.623a3.449,3.449,0,0,0-3.491,1.975,18.724,18.724,0,0,0-1.733,7.866c0,11.409,10.339,18.579,23.093,18.579a32.4,32.4,0,0,0,4.628-.327C93.03,198.467,90.2,186.839,91.051,175.3Z" transform="translate(-48.38 -145.459)" fill="#c7856a"/>
        <g id="Group_1208495" data-name="Group 1208495" transform="translate(38.09 39.51)">
          <g id="Group_1208494" data-name="Group 1208494">
            <path id="Path_1053161" data-name="Path 1053161" d="M150.574,264.211c0,1.744-1.774,3.159-3.964,3.16s-3.967-1.412-3.968-3.156,1.774-3.159,3.964-3.16S150.573,262.467,150.574,264.211Z" transform="translate(-142.642 -260.152)" fill="#fff"/>
            <path id="Path_1053162" data-name="Path 1053162" d="M308.251,264.131c0,1.744,1.777,3.157,3.967,3.156s3.965-1.416,3.964-3.16-1.777-3.157-3.968-3.156S308.25,262.387,308.251,264.131Z" transform="translate(-286.754 -260.079)" fill="#fff"/>
            <path id="Path_1053163" data-name="Path 1053163" d="M233.82,256.723c0-2.4-1.742-2.627-3.889-2.626s-3.887.228-3.886,2.63a3.912,3.912,0,1,0,7.775,0Z" transform="translate(-215.219 -254.097)" fill="#425460"/>
          </g>
        </g>
        <g id="Group_1208496" data-name="Group 1208496" transform="translate(22.494 7.501)">
          <path id="Path_1053164" data-name="Path 1053164" d="M376.981,29.627,375.9,27.681a2.006,2.006,0,0,0-3.125-.495L371.154,28.7a2.009,2.009,0,0,1-.988.5l-2.183.423a2.006,2.006,0,0,0-1.436,2.819l.941,2.015a2.007,2.007,0,0,1,.173,1.1l-.273,2.207A2.006,2.006,0,0,0,369.626,40l2.207-.273a2.007,2.007,0,0,1,1.1.173l2.015.941a2.006,2.006,0,0,0,2.819-1.436l.423-2.183a2.005,2.005,0,0,1,.5-.988l1.518-1.625a2.006,2.006,0,0,0-.495-3.125l-1.946-1.077A2.007,2.007,0,0,1,376.981,29.627Z" transform="translate(-321.722 -24.161)" fill="none" stroke="#000" stroke-linecap="round" stroke-linejoin="round" stroke-miterlimit="10" stroke-width="1"/>
          <path id="Path_1053165" data-name="Path 1053165" d="M41.956,27.269a2,2,0,0,1,.8.459l1.625,1.518a2.008,2.008,0,0,0,.988.5l2.183.423a2.006,2.006,0,0,1,1.436,2.819l-.941,2.015a2.007,2.007,0,0,0-.173,1.1l.273,2.207a2.006,2.006,0,0,1-2.237,2.237L43.7,40.272a2.007,2.007,0,0,0-1.1.173l-2.015.941a2.006,2.006,0,0,1-2.819-1.436l-.423-2.183a2.007,2.007,0,0,0-.5-.988l-1.518-1.625a2.006,2.006,0,0,1,.495-3.125l1.946-1.077a2.007,2.007,0,0,0,.784-.784l.188-.339" transform="translate(-33.196 -24.703)" fill="none" stroke="#000" stroke-linecap="round" stroke-linejoin="round" stroke-miterlimit="10" stroke-width="1"/>
          <path id="Path_1053166" data-name="Path 1053166" d="M195.522,20.951a35.073,35.073,0,0,0,6.016-.575,3.649,3.649,0,0,0,2.286-5.761,35.95,35.95,0,0,0-6.008-6.3,3.647,3.647,0,0,0-4.588,0,35.953,35.953,0,0,0-6.008,6.3,3.649,3.649,0,0,0,2.286,5.761A35.071,35.071,0,0,0,195.522,20.951Z" transform="translate(-165.212 -7.501)" fill="none" stroke="#000" stroke-linecap="round" stroke-linejoin="round" stroke-miterlimit="10" stroke-width="1"/>
          <path id="Path_1053167" data-name="Path 1053167" d="M150.773,68.442l-.465.134a2.821,2.821,0,0,1-1.559,0l-3-.864a2.877,2.877,0,0,0-.372-.08" transform="translate(-129.424 -59.827)" fill="none" stroke="#000" stroke-linecap="round" stroke-linejoin="round" stroke-miterlimit="10" stroke-width="1"/>
          <path id="Path_1053168" data-name="Path 1053168" d="M100.592,128.6l-1.336,1.977a2.821,2.821,0,0,0,1.016,4.07" transform="translate(-88.871 -112.882)" fill="none" stroke="#000" stroke-linecap="round" stroke-linejoin="round" stroke-miterlimit="10" stroke-width="1"/>
          <path id="Path_1053169" data-name="Path 1053169" d="M325.03,68.442l.465.134a2.821,2.821,0,0,0,1.559,0l3-.864a2.884,2.884,0,0,1,.372-.08" transform="translate(-285.76 -59.827)" fill="none" stroke="#000" stroke-linecap="round" stroke-linejoin="round" stroke-miterlimit="10" stroke-width="1"/>
          <path id="Path_1053170" data-name="Path 1053170" d="M399.207,128.6l1.335,1.977a2.82,2.82,0,0,1-1.016,4.07" transform="translate(-350.308 -112.882)" fill="none" stroke="#000" stroke-linecap="round" stroke-linejoin="round" stroke-miterlimit="10" stroke-width="1"/>
          <path id="Path_1053171" data-name="Path 1053171" d="M101.184,175.584a171.29,171.29,0,0,1-17.867-.907,3.449,3.449,0,0,0-3.491,1.975,18.717,18.717,0,0,0-1.735,7.866c0,11.409,10.339,18.579,23.093,18.579s23.093-7.17,23.093-18.579a18.717,18.717,0,0,0-1.735-7.866,3.449,3.449,0,0,0-3.491-1.975A171.29,171.29,0,0,1,101.184,175.584Z" transform="translate(-70.874 -152.961)" fill="none" stroke="#000" stroke-linecap="round" stroke-linejoin="round" stroke-miterlimit="10" stroke-width="1"/>
          <path id="Path_1053172" data-name="Path 1053172" d="M30.616,205.826a7.286,7.286,0,0,0-1.109-.085,6.8,6.8,0,1,0,0,13.588,7.227,7.227,0,0,0,1.913-.258" transform="translate(-22.494 -180.009)" fill="none" stroke="#000" stroke-linecap="round" stroke-linejoin="round" stroke-miterlimit="10" stroke-width="1"/>
          <path id="Path_1053173" data-name="Path 1053173" d="M420.734,219.07a7.227,7.227,0,0,0,1.913.258,6.8,6.8,0,1,0,0-13.588,7.291,7.291,0,0,0-1.109.085" transform="translate(-369.041 -180.008)" fill="none" stroke="#000" stroke-linecap="round" stroke-linejoin="round" stroke-miterlimit="10" stroke-width="1"/>
          <path id="Path_1053174" data-name="Path 1053174" d="M336.117,397.073h1.478a4.1,4.1,0,0,0,3.94-5.229,18.952,18.952,0,0,0-8.133-10.8" transform="translate(-293.045 -332.561)" fill="none" stroke="#000" stroke-linecap="round" stroke-linejoin="round" stroke-miterlimit="10" stroke-width="1"/>
          <path id="Path_1053175" data-name="Path 1053175" d="M122.993,381.048a18.953,18.953,0,0,0-8.133,10.8,4.1,4.1,0,0,0,3.94,5.229h22.42" transform="translate(-102.73 -332.56)" fill="none" stroke="#000" stroke-linecap="round" stroke-linejoin="round" stroke-miterlimit="10" stroke-width="1"/>
          <path id="Path_1053176" data-name="Path 1053176" d="M191.543,385.155a8.406,8.406,0,0,0,16.733,0" transform="translate(-169.6 -336.134)" fill="none" stroke="#000" stroke-linecap="round" stroke-linejoin="round" stroke-miterlimit="10" stroke-width="1"/>
          <path id="Path_1053177" data-name="Path 1053177" d="M233.82,256.723c0-2.4-1.742-2.627-3.889-2.626s-3.887.228-3.886,2.63a3.912,3.912,0,1,0,7.775,0Z" transform="translate(-199.623 -222.088)" fill="none" stroke="#000" stroke-linecap="round" stroke-linejoin="round" stroke-miterlimit="10" stroke-width="1"/>
          <line id="Line_888" data-name="Line 888" x1="0.003" y2="1.558" transform="translate(38.838 30.89)" fill="none" stroke="#000" stroke-linecap="round" stroke-linejoin="round" stroke-miterlimit="10" stroke-width="1"/>
          <path id="Path_1053178" data-name="Path 1053178" d="M185.65,244.113a1.825,1.825,0,0,0-3.651-.008" transform="translate(-161.295 -211.808)" fill="none" stroke="#000" stroke-linecap="round" stroke-linejoin="round" stroke-miterlimit="10" stroke-width="1"/>
          <line id="Line_889" data-name="Line 889" y2="9.548" transform="translate(25.018 13)" fill="none" stroke="#000" stroke-linecap="round" stroke-linejoin="round" stroke-miterlimit="10" stroke-width="1"/>
          <line id="Line_890" data-name="Line 890" y1="9.548" transform="translate(35.601 13)" fill="none" stroke="#000" stroke-linecap="round" stroke-linejoin="round" stroke-miterlimit="10" stroke-width="1"/>
        </g>
      </g>
    </g>
  </g>
</svg>
