<svg xmlns="http://www.w3.org/2000/svg" xmlns:xlink="http://www.w3.org/1999/xlink" width="113" height="113" viewBox="0 0 113 113">
  <defs>
    <filter id="Path_982547" x="0" y="0" width="113" height="113" filterUnits="userSpaceOnUse">
      <feOffset dy="3" input="SourceAlpha"/>
      <feGaussianBlur stdDeviation="3" result="blur"/>
      <feFlood flood-opacity="0.161"/>
      <feComposite operator="in" in2="blur"/>
      <feComposite in="SourceGraphic"/>
    </filter>
    <clipPath id="clip-path">
      <path id="path165" d="M0-682.665H68.128v68.128H0Z" transform="translate(0 682.665)"/>
    </clipPath>
  </defs>
  <g id="Group_1208195" data-name="Group 1208195" transform="translate(-793.49 -5627.425)">
    <g id="Group_1208028" data-name="Group 1208028">
      <g id="Group_1177675" data-name="Group 1177675" transform="translate(-4493 3707.152)">
        <g id="Group_1176928" data-name="Group 1176928" transform="translate(5295.49 1926.273)">
          <g id="Group_1172322" data-name="Group 1172322" transform="translate(0 0)">
            <g id="Group_1164700" data-name="Group 1164700">
              <g id="Group_1160931" data-name="Group 1160931">
                <g id="Group_1160749" data-name="Group 1160749">
                  <g id="Group_1158891" data-name="Group 1158891">
                    <g id="Group_1157406" data-name="Group 1157406">
                      <g id="Group_1155793" data-name="Group 1155793">
                        <g id="Group_1154704" data-name="Group 1154704">
                          <g id="Group_1150790" data-name="Group 1150790">
                            <g id="Group_1154214" data-name="Group 1154214">
                              <g id="Group_1152583" data-name="Group 1152583">
                                <g id="Group_1146973" data-name="Group 1146973">
                                  <g id="Group_1146954" data-name="Group 1146954">
                                    <g transform="matrix(1, 0, 0, 1, -9, -6)" filter="url(#Path_982547)">
                                      <g id="Path_982547-2" data-name="Path 982547" transform="translate(9 6)" fill="#ebe9f0">
                                        <path d="M 47.5000114440918 93.49987030029297 C 41.28938293457031 93.49987030029297 35.26534652709961 92.28384399414062 29.5951976776123 89.88558959960938 C 24.11773109436035 87.56881713867188 19.19814491271973 84.25183868408203 14.97310447692871 80.02680206298828 C 10.74805164337158 75.80176544189453 7.43107795715332 70.88218688964844 5.114304542541504 65.40472412109375 C 2.716038227081299 59.73458862304688 1.500011444091797 53.71054840087891 1.500011444091797 47.49993515014648 C 1.500011444091797 41.28932189941406 2.716038227081299 35.26528167724609 5.114304542541504 29.59514808654785 C 7.43107795715332 24.1176815032959 10.74805164337158 19.1981086730957 14.97310447692871 14.97306823730469 C 19.19814491271973 10.74802875518799 24.11773109436035 7.431055068969727 29.5951976776123 5.11428165435791 C 35.26534652709961 2.716028451919556 41.28938293457031 1.500001788139343 47.5000114440918 1.500001788139343 C 53.71063995361328 1.500001788139343 59.73467636108398 2.716028451919556 65.40482330322266 5.11428165435791 C 70.88229370117188 7.431055068969727 75.8018798828125 10.74802875518799 80.02691650390625 14.97306823730469 C 84.25196838378906 19.1981086730957 87.56894683837891 24.1176815032959 89.88571929931641 29.59514808654785 C 92.28398132324219 35.26528167724609 93.50001525878906 41.28932189941406 93.50001525878906 47.49993515014648 C 93.50001525878906 53.71054840087891 92.28398132324219 59.73458862304688 89.88571929931641 65.40472412109375 C 87.56894683837891 70.88218688964844 84.25196838378906 75.80176544189453 80.02691650390625 80.02680206298828 C 75.8018798828125 84.25183868408203 70.88229370117188 87.56881713867188 65.40482330322266 89.88558959960938 C 59.73467636108398 92.28384399414062 53.71063995361328 93.49987030029297 47.5000114440918 93.49987030029297 Z" stroke="none"/>
                                        <path d="M 47.5000114440918 3 C 41.49122619628906 3 35.66378021240234 4.1761474609375 30.17951965332031 6.495796203613281 C 24.880859375 8.7369384765625 20.12153625488281 11.94596862792969 16.03376770019531 16.03373718261719 C 11.94598388671875 20.12149047851562 8.736968994140625 24.88081359863281 6.495811462402344 30.17947387695312 C 4.176162719726562 35.66371917724609 3.000007629394531 41.49116516113281 3.000007629394531 47.49993515014648 C 3.000007629394531 53.50870513916016 4.176162719726562 59.33615112304688 6.495811462402344 64.82039642333984 C 8.736968994140625 70.11905670166016 11.94598388671875 74.87837982177734 16.03376770019531 78.96613311767578 C 20.12153625488281 83.05390167236328 24.880859375 86.26293182373047 30.17951965332031 88.50407409667969 C 35.66378021240234 90.82372283935547 41.49122619628906 91.99987030029297 47.5000114440918 91.99987030029297 C 53.50879669189453 91.99987030029297 59.33624267578125 90.82372283935547 64.82050323486328 88.50407409667969 C 70.11916351318359 86.26293182373047 74.87848663330078 83.05390167236328 78.96625518798828 78.96613311767578 C 83.05403900146484 74.87837982177734 86.2630615234375 70.11905670166016 88.50421142578125 64.82039642333984 C 90.82386016845703 59.33615112304688 92.00001525878906 53.50870513916016 92.00001525878906 47.49993515014648 C 92.00001525878906 41.49116516113281 90.82386016845703 35.66371917724609 88.50421142578125 30.17947387695312 C 86.2630615234375 24.88081359863281 83.05403900146484 20.12149047851562 78.96625518798828 16.03373718261719 C 74.87848663330078 11.94596862792969 70.11916351318359 8.7369384765625 64.82050323486328 6.495796203613281 C 59.33624267578125 4.1761474609375 53.50879669189453 3 47.5000114440918 3 M 47.5000114440918 0 C 73.73353576660156 0 95.00001525878906 21.26644134521484 95.00001525878906 47.49993515014648 C 95.00001525878906 73.73342895507812 73.73353576660156 94.99987030029297 47.5000114440918 94.99987030029297 C 21.26648712158203 94.99987030029297 7.62939453125e-06 73.73342895507812 7.62939453125e-06 47.49993515014648 C 7.62939453125e-06 21.26644134521484 21.26648712158203 0 47.5000114440918 0 Z" stroke="none" fill="#453179"/>
                                      </g>
                                    </g>
                                  </g>
                                </g>
                              </g>
                            </g>
                          </g>
                        </g>
                      </g>
                    </g>
                  </g>
                </g>
              </g>
            </g>
          </g>
        </g>
      </g>
      <g id="g159" transform="translate(814.926 6329.526)">
        <g id="g161" transform="translate(0 -682.665)">
          <g id="g163" clip-path="url(#clip-path)">
            <g id="g169" transform="translate(18.848 53.818)">
              <path id="path171" d="M-328.946-120.081c0-8.586-3.621-13.312-3.621-13.312h-29.226s-3.621,4.726-3.621,13.312Z" transform="translate(365.414 133.393)" fill="#ff8d9d"/>
            </g>
            <g id="g173" transform="translate(11.823 0.998)">
              <path id="path175" d="M0-227.844A25.288,25.288,0,0,1,25.259-253.1a25.288,25.288,0,0,1,25.259,25.259Z" transform="translate(0 253.103)" fill="#696eb1"/>
            </g>
            <g id="g177" transform="translate(51.846 21.615)">
              <path id="path179" d="M-107.746-53.873a5.972,5.972,0,0,1-5.972,5.972,5.972,5.972,0,0,1-5.972-5.972,5.972,5.972,0,0,1,5.972-5.972,5.972,5.972,0,0,1,5.972,5.972" transform="translate(119.69 59.845)" fill="#c7856a"/>
            </g>
            <g id="g181" transform="translate(4.337 1.053)">
              <path id="path183" d="M-280.514,0A25.09,25.09,0,0,0-291.93,3.594,7.235,7.235,0,0,0-297.393.413a7.232,7.232,0,0,0-7.46,5.147,7.253,7.253,0,0,1-3.924,4.631,8.519,8.519,0,0,1-1.195.431,2.258,2.258,0,0,0-.978,3.769c1.885,1.875,4.64,3.593,8.086,2.919a25.16,25.16,0,0,0-1.264,7.893h10.638a24.617,24.617,0,0,1-.25-3.493A24.425,24.425,0,0,1-280.514,0" transform="translate(311.613)" fill="#4c5698"/>
            </g>
            <g id="g185" transform="translate(16.478 11.786)">
              <path id="path187" d="M-367.395-90.544a4.417,4.417,0,0,0-4.937-3.393,37.628,37.628,0,0,1-5.137.35,34.684,34.684,0,0,1-20.139-6.162,4.439,4.439,0,0,0-6.066.847,20.514,20.514,0,0,0-4.451,12.872,20.662,20.662,0,0,0,20.452,20.522,20.6,20.6,0,0,0,20.756-20.6,20.668,20.668,0,0,0-.478-4.433" transform="translate(408.125 100.582)" fill="#da9d81"/>
            </g>
            <g id="g189" transform="translate(10.372 11.787)">
              <path id="path191" d="M-106.791-99.023a24.323,24.323,0,0,1,2.592-10.96,4.431,4.431,0,0,0-3.875,1.662,20.522,20.522,0,0,0-3.933,8.184,6.047,6.047,0,0,0-.651-.036A5.973,5.973,0,0,0-118.63-94.2a5.972,5.972,0,0,0,5.972,5.972,5.981,5.981,0,0,0,1.413-.17A20.679,20.679,0,0,0-92.073-74.927a20.732,20.732,0,0,0,3.956-.352,24.436,24.436,0,0,1-18.675-23.745" transform="translate(118.63 110)" fill="#c7856a"/>
            </g>
            <g id="g193" transform="translate(21.776 27.047)">
              <path id="path195" d="M-74.424-29.633c0,1.814-1.847,3.285-4.125,3.285s-4.125-1.471-4.125-3.285,1.847-3.285,4.125-3.285,4.125,1.471,4.125,3.285" transform="translate(82.674 32.919)" fill="#eeedff"/>
            </g>
            <g id="g197" transform="translate(44.137 27.047)">
              <path id="path199" d="M0-29.633c0,1.814,1.847,3.285,4.125,3.285s4.125-1.471,4.125-3.285S6.4-32.919,4.125-32.919,0-31.448,0-29.633" transform="translate(0 32.919)" fill="#eeedff"/>
            </g>
            <g id="g201" transform="translate(24.003 32.371)">
              <path id="path203" d="M-220.333-53.884h-7.106v-1.732a4.241,4.241,0,0,0-4.241-4.241,4.241,4.241,0,0,0-4.241,4.241v1.732h-7.106a1.732,1.732,0,0,0-1.732,1.732v21.364a1.732,1.732,0,0,0,1.732,1.732h7.106v-1.732a4.241,4.241,0,0,1,4.241-4.241,4.241,4.241,0,0,1,4.241,4.241v1.732h7.106a1.732,1.732,0,0,0,1.732-1.732V-52.152a1.732,1.732,0,0,0-1.732-1.732" transform="translate(244.759 59.857)" fill="#fce29f"/>
            </g>
            <g id="g205" transform="translate(18.848 53.818)">
              <path id="path207" d="M-73.016-68.516a18.155,18.155,0,0,1,1.655-7.6H-77.49S-81.11-71.386-81.11-62.8h9.01a18.206,18.206,0,0,1-.916-5.716" transform="translate(81.11 76.112)" fill="#e95b70"/>
            </g>
            <g id="g209" transform="translate(24.003 38.345)">
              <path id="path211" d="M-47.245-33.643a22.4,22.4,0,0,1,.313-3.73H-50.75a1.732,1.732,0,0,0-1.732,1.732v21.364a1.732,1.732,0,0,0,1.732,1.732h7.106v-1.732a4.236,4.236,0,0,1,1.824-3.484,25.639,25.639,0,0,1-5.424-15.883" transform="translate(52.483 37.373)" fill="#ffcd71"/>
            </g>
            <g id="g213" transform="translate(16.133 48.686)">
              <path id="path215" d="M-121.488-25.91h0a4.241,4.241,0,0,0-5.384-2.644l-5.212,1.779a4.242,4.242,0,0,0-2.644,5.384,4.241,4.241,0,0,0,5.384,2.644l5.212-1.779a4.241,4.241,0,0,0,2.644-5.384" transform="translate(134.956 28.782)" fill="#da9d81"/>
            </g>
            <g id="g217" transform="translate(44.334 48.686)">
              <path id="path219" d="M-2.062-25.91h0a4.241,4.241,0,0,1,5.384-2.644l5.212,1.779a4.241,4.241,0,0,1,2.644,5.384,4.241,4.241,0,0,1-5.384,2.644L.582-20.526A4.241,4.241,0,0,1-2.062-25.91" transform="translate(2.29 28.782)" fill="#da9d81"/>
            </g>
            <g id="g221" transform="translate(16.133 51.248)">
              <path id="path223" d="M-121.485-2.8c-.036-.106-.078-.209-.121-.311A8.589,8.589,0,0,1-128.723.66,8.566,8.566,0,0,1-134.5-1.566a4.228,4.228,0,0,0-.23,3.283,4.241,4.241,0,0,0,5.384,2.644l5.212-1.779A4.241,4.241,0,0,0-121.485-2.8Z" transform="translate(134.953 3.113)" fill="#c7856a"/>
            </g>
            <g id="g225" transform="translate(44.334 48.874)">
              <path id="path227" d="M-103.954-67.616a8.6,8.6,0,0,1-8.525-7.5,4.235,4.235,0,0,0-2.771,2.684h0a4.241,4.241,0,0,0,2.644,5.384l5.212,1.779a4.24,4.24,0,0,0,5.356-2.568,8.622,8.622,0,0,1-1.916.217" transform="translate(115.478 75.112)" fill="#c7856a"/>
            </g>
            <g id="g229" transform="translate(28.306 25.483)">
              <path id="path231" d="M0,0V1.686" fill="none" stroke="#000" stroke-linecap="round" stroke-linejoin="round" stroke-miterlimit="10" stroke-width="1.5"/>
            </g>
            <g id="g233" transform="translate(45.858 25.483)">
              <path id="path235" d="M0,0V1.686" fill="none" stroke="#000" stroke-linecap="round" stroke-linejoin="round" stroke-miterlimit="10" stroke-width="1.5"/>
            </g>
            <g id="g237" transform="translate(34.768 27.12)">
              <path id="path239" d="M0,0A3.061,3.061,0,0,0,2.314,1.054,3.061,3.061,0,0,0,4.628,0" fill="none" stroke="#000" stroke-linecap="round" stroke-linejoin="round" stroke-miterlimit="10" stroke-width="1.5"/>
            </g>
            <g id="g241" transform="translate(4.337 1.447)">
              <path id="path243" d="M-177.542-28.861A7.236,7.236,0,0,0-183-32.041a7.232,7.232,0,0,0-7.46,5.147,7.253,7.253,0,0,1-3.924,4.631,8.519,8.519,0,0,1-1.195.431,2.257,2.257,0,0,0-.978,3.769c1.885,1.875,4.64,3.594,8.087,2.919A25.385,25.385,0,0,1-177.542-28.861Z" transform="translate(197.224 32.06)" fill="none" stroke="#000" stroke-linecap="round" stroke-linejoin="round" stroke-miterlimit="10" stroke-width="1.5"/>
            </g>
            <g id="g245" transform="translate(11.971 0.998)">
              <path id="path247" d="M-344.592-33.072a25.1,25.1,0,0,0-13.091-3.666,25.294,25.294,0,0,0-25.11,22.524,5.955,5.955,0,0,1,4.373-1.907,6.015,6.015,0,0,1,.651.036,20.523,20.523,0,0,1,3.933-8.184,4.439,4.439,0,0,1,6.066-.847,31.265,31.265,0,0,0,5.2,3" transform="translate(382.794 36.739)" fill="none" stroke="#000" stroke-linecap="round" stroke-linejoin="round" stroke-miterlimit="10" stroke-width="1.5"/>
            </g>
            <g id="g249" transform="translate(36.287 7.034)">
              <path id="path251" d="M0-91.438a36.8,36.8,0,0,0,10.847,1.61,37.632,37.632,0,0,0,5.137-.35,4.42,4.42,0,0,1,4.894,3.22,6.029,6.029,0,0,1,.654-.036,5.955,5.955,0,0,1,4.374,1.907,25.239,25.239,0,0,0-8.744-16.487" transform="translate(0 101.574)" fill="none" stroke="#000" stroke-linecap="round" stroke-linejoin="round" stroke-miterlimit="10" stroke-width="1.5"/>
            </g>
            <g id="g253" transform="translate(10.372 21.615)">
              <path id="path255" d="M-55.074-42.613a20.664,20.664,0,0,1,.518-4.688,6.015,6.015,0,0,0-.651-.036,5.972,5.972,0,0,0-5.972,5.972,5.972,5.972,0,0,0,5.972,5.972,5.981,5.981,0,0,0,1.413-.17A20.419,20.419,0,0,1-55.074-42.613Z" transform="translate(61.18 47.337)" fill="none" stroke="#000" stroke-linecap="round" stroke-linejoin="round" stroke-miterlimit="10" stroke-width="1.5"/>
            </g>
            <g id="g257" transform="translate(56.417 21.615)">
              <path id="path259" d="M-12.65,0A6.062,6.062,0,0,0-13.3.036c.015.057.03.115.043.173a20.676,20.676,0,0,1,.478,4.433,20.559,20.559,0,0,1-1.269,7.135,5.984,5.984,0,0,0,1.4.167A5.972,5.972,0,0,0-6.677,5.972,5.972,5.972,0,0,0-12.65,0Z" transform="translate(14.052)" fill="none" stroke="#000" stroke-linecap="round" stroke-linejoin="round" stroke-miterlimit="10" stroke-width="1.5"/>
            </g>
            <g id="g261" transform="translate(16.478 11.786)">
              <path id="path263" d="M-141.794-34.544a31.27,31.27,0,0,1-5.2-3,4.439,4.439,0,0,0-6.066.848,20.514,20.514,0,0,0-4.451,12.872,20.587,20.587,0,0,0,7.525,15.809v-2.072a1.732,1.732,0,0,1,1.732-1.732h7.106v-1.732a4.241,4.241,0,0,1,4.241-4.241h0a4.241,4.241,0,0,1,4.241,4.241v1.732h7.106a1.732,1.732,0,0,1,1.732,1.732v2.1A20.563,20.563,0,0,0-116.305-23.9a20.679,20.679,0,0,0-.478-4.433,4.417,4.417,0,0,0-4.937-3.393,37.649,37.649,0,0,1-5.137.35,36.8,36.8,0,0,1-10.847-1.61" transform="translate(157.513 38.374)" fill="none" stroke="#000" stroke-linecap="round" stroke-linejoin="round" stroke-miterlimit="10" stroke-width="1.5"/>
            </g>
            <g id="g265" transform="translate(18.848 57.2)">
              <path id="path267" d="M-302.812-13.726l-2.257-.77v3.49A1.732,1.732,0,0,1-306.8-9.275h-7.106v-1.732a4.241,4.241,0,0,0-4.241-4.241,4.241,4.241,0,0,0-4.241,4.241v1.732H-329.5a1.732,1.732,0,0,1-1.732-1.732V-14.5l-2.257.77a4.226,4.226,0,0,1-1.686.216,27.22,27.22,0,0,0-1.211,8.193h36.467a27.221,27.221,0,0,0-1.211-8.193A4.226,4.226,0,0,1-302.812-13.726Z" transform="translate(336.382 15.248)" fill="none" stroke="#000" stroke-linecap="round" stroke-linejoin="round" stroke-miterlimit="10" stroke-width="1.5"/>
            </g>
            <g id="g269" transform="translate(16.133 48.686)">
              <path id="path271" d="M-121.488-25.91h0a4.241,4.241,0,0,0-5.384-2.644l-5.212,1.779a4.241,4.241,0,0,0-2.644,5.384,4.241,4.241,0,0,0,5.384,2.644l5.212-1.779A4.241,4.241,0,0,0-121.488-25.91Z" transform="translate(134.956 28.782)" fill="none" stroke="#000" stroke-linecap="round" stroke-linejoin="round" stroke-miterlimit="10" stroke-width="1.5"/>
            </g>
            <g id="g273" transform="translate(24.003 32.371)">
              <path id="path275" d="M-209.306-221.64a4.241,4.241,0,0,1-2.644-5.384,4.241,4.241,0,0,1,5.384-2.644l.214.073v-8.911a1.732,1.732,0,0,0-1.732-1.732h-7.106v-1.732a4.241,4.241,0,0,0-4.241-4.241h0a4.241,4.241,0,0,0-4.241,4.241v1.732h-7.106a1.732,1.732,0,0,0-1.732,1.732v8.911l.214-.073a4.241,4.241,0,0,1,5.384,2.644,4.241,4.241,0,0,1-2.644,5.384l-2.955,1.008v3.49a1.732,1.732,0,0,0,1.732,1.732h7.106v-1.732a4.241,4.241,0,0,1,4.241-4.241,4.241,4.241,0,0,1,4.241,4.241v1.732h7.106a1.732,1.732,0,0,0,1.732-1.732v-3.49Z" transform="translate(232.51 246.211)" fill="none" stroke="#000" stroke-linecap="round" stroke-linejoin="round" stroke-miterlimit="10" stroke-width="1.5"/>
            </g>
            <g id="g277" transform="translate(44.334 48.686)">
              <path id="path279" d="M-2.062-25.91h0a4.241,4.241,0,0,1,5.384-2.644l5.212,1.779a4.241,4.241,0,0,1,2.644,5.384,4.241,4.241,0,0,1-5.384,2.644L.582-20.526A4.241,4.241,0,0,1-2.062-25.91Z" transform="translate(2.29 28.782)" fill="none" stroke="#000" stroke-linecap="round" stroke-linejoin="round" stroke-miterlimit="10" stroke-width="1.5"/>
            </g>
          </g>
        </g>
      </g>
    </g>
  </g>
</svg>
