<svg xmlns="http://www.w3.org/2000/svg" xmlns:xlink="http://www.w3.org/1999/xlink" width="98" height="98" viewBox="0 0 98 98">
  <defs>
    <filter id="Path_982547" x="0" y="0" width="98" height="98" filterUnits="userSpaceOnUse">
      <feOffset dy="3" input="SourceAlpha"/>
      <feGaussianBlur stdDeviation="3" result="blur"/>
      <feFlood flood-opacity="0.161"/>
      <feComposite operator="in" in2="blur"/>
      <feComposite in="SourceGraphic"/>
    </filter>
    <clipPath id="clip-path">
      <path id="path8121" d="M0-682.665H48.414v48.414H0Z" transform="translate(0 682.665)"/>
    </clipPath>
  </defs>
  <g id="Group_1208244" data-name="Group 1208244" transform="translate(-186.575 -8932.605)">
    <g id="Group_1208139" data-name="Group 1208139">
      <g id="Group_1207921" data-name="Group 1207921" transform="translate(-4.425 6847.053)">
        <g id="Group_1207712" data-name="Group 1207712">
          <g id="Group_1207285" data-name="Group 1207285" transform="translate(0 344.552)">
            <g id="Group_1206883" data-name="Group 1206883" transform="translate(0 -209)">
              <g id="Group_1204569" data-name="Group 1204569" transform="translate(-81 -1890.336)">
                <g id="Group_1203962" data-name="Group 1203962" transform="translate(281 3846.336)">
                  <g id="Group_1203498" data-name="Group 1203498" transform="translate(0)">
                    <g id="Group_1202589" data-name="Group 1202589">
                      <g id="Group_1172010" data-name="Group 1172010">
                        <g id="Group_1171046" data-name="Group 1171046">
                          <g id="Group_1148525" data-name="Group 1148525">
                            <g transform="matrix(1, 0, 0, 1, -9, -6)" filter="url(#Path_982547)">
                              <g id="Path_982547-2" data-name="Path 982547" transform="translate(9 6)" fill="#fdfbec">
                                <path d="M 39.99999237060547 78.49998474121094 C 34.8018684387207 78.49998474121094 29.76002502441406 77.48226165771484 25.0145263671875 75.47508239746094 C 20.43014717102051 73.53604888916016 16.31264877319336 70.75984954833984 12.77639198303223 67.22359466552734 C 9.240137100219727 63.68733596801758 6.463936805725098 59.5698356628418 4.524903297424316 54.98546981811523 C 2.517725706100464 50.23995971679688 1.500003457069397 45.19811630249023 1.500003457069397 39.99999237060547 C 1.500003457069397 34.8018684387207 2.517725706100464 29.76002502441406 4.524903297424316 25.0145263671875 C 6.463936805725098 20.43014717102051 9.240137100219727 16.31264877319336 12.77639198303223 12.77639198303223 C 16.31264877319336 9.240137100219727 20.43014717102051 6.463936805725098 25.0145263671875 4.524903297424316 C 29.76002502441406 2.517725706100464 34.8018684387207 1.500003457069397 39.99999237060547 1.500003457069397 C 45.19811630249023 1.500003457069397 50.23995971679688 2.517725706100464 54.98546981811523 4.524903297424316 C 59.5698356628418 6.463936805725098 63.68733596801758 9.240137100219727 67.22359466552734 12.77639198303223 C 70.75984954833984 16.31264877319336 73.53604888916016 20.43014717102051 75.47508239746094 25.0145263671875 C 77.48226165771484 29.76002502441406 78.49998474121094 34.8018684387207 78.49998474121094 39.99999237060547 C 78.49998474121094 45.19812393188477 77.48226165771484 50.23995971679688 75.47508239746094 54.98546981811523 C 73.53604888916016 59.5698356628418 70.75984954833984 63.68733596801758 67.22359466552734 67.22359466552734 C 63.68733596801758 70.75984954833984 59.5698356628418 73.53604888916016 54.98546981811523 75.47508239746094 C 50.23995971679688 77.48226165771484 45.19812393188477 78.49998474121094 39.99999237060547 78.49998474121094 Z" stroke="none"/>
                                <path d="M 39.99999237060547 2.999992370605469 C 35.00370025634766 2.999992370605469 30.1584587097168 3.97784423828125 25.59884643554688 5.906402587890625 C 21.19327163696289 7.769805908203125 17.23603057861328 10.43805694580078 13.83704376220703 13.83704376220703 C 10.43805694580078 17.23603057861328 7.769805908203125 21.19327163696289 5.906402587890625 25.59884643554688 C 3.97784423828125 30.1584587097168 2.999992370605469 35.00370025634766 2.999992370605469 39.99999237060547 C 2.999992370605469 44.99628448486328 3.97784423828125 49.84152603149414 5.906402587890625 54.40113830566406 C 7.769805908203125 58.80671310424805 10.43805694580078 62.76395416259766 13.83704376220703 66.16294097900391 C 17.23603057861328 69.56191253662109 21.19327163696289 72.23016357421875 25.59884643554688 74.09356689453125 C 30.1584587097168 76.02212524414062 35.00370025634766 76.99997711181641 39.99999237060547 76.99997711181641 C 44.99628448486328 76.99997711181641 49.84152603149414 76.02212524414062 54.40113830566406 74.09356689453125 C 58.80671310424805 72.23016357421875 62.76395416259766 69.56191253662109 66.16294097900391 66.16294097900391 C 69.56191253662109 62.76395416259766 72.23016357421875 58.80671310424805 74.09356689453125 54.40113830566406 C 76.02212524414062 49.84152603149414 76.99997711181641 44.99628448486328 76.99997711181641 39.99999237060547 C 76.99997711181641 35.00370025634766 76.02212524414062 30.1584587097168 74.09356689453125 25.59884643554688 C 72.23016357421875 21.19327163696289 69.56191253662109 17.23603057861328 66.16294097900391 13.83704376220703 C 62.76395416259766 10.43805694580078 58.80671310424805 7.769805908203125 54.40113830566406 5.906402587890625 C 49.84152603149414 3.97784423828125 44.99628448486328 2.999992370605469 39.99999237060547 2.999992370605469 M 39.99999237060547 -7.62939453125e-06 C 62.09137725830078 -7.62939453125e-06 79.99997711181641 17.90860748291016 79.99997711181641 39.99999237060547 C 79.99997711181641 62.09137725830078 62.09137725830078 79.99997711181641 39.99999237060547 79.99997711181641 C 17.90860748291016 79.99997711181641 -7.62939453125e-06 62.09137725830078 -7.62939453125e-06 39.99999237060547 C -7.62939453125e-06 17.90860748291016 17.90860748291016 -7.62939453125e-06 39.99999237060547 -7.62939453125e-06 Z" stroke="none" fill="#83793c"/>
                              </g>
                            </g>
                          </g>
                        </g>
                      </g>
                    </g>
                  </g>
                </g>
              </g>
            </g>
          </g>
          <g id="g8115" transform="translate(215.793 2790.01)">
            <g id="g8117" transform="translate(0 -682.665)">
              <g id="g8119" clip-path="url(#clip-path)">
                <g id="g8125" transform="translate(-33.259 0.709)">
                  <path id="path8127" d="M-338.457-377.826h-25.835v-25.108c5.31-7.679,37.755-5.416,25.835,25.108" transform="translate(364.292 406.667)" fill="#fbdf63"/>
                </g>
                <g id="g8129" transform="translate(-33.259 0.709)">
                  <path id="path8131" d="M-338.457-377.826h-.619c6.164-24.728-15.887-30.6-25.216-24.374v-.734c5.31-7.679,37.755-5.416,25.835,25.108" transform="translate(364.292 406.667)" fill="#f9d11f"/>
                </g>
              </g>
            </g>
            <g id="g8265" transform="translate(0 -682.665)">
              <g id="g8267" clip-path="url(#clip-path)">
                <g id="g8273" transform="translate(-33.259 51.036)">
                  <path id="path8275" d="M-338.457-377.654h-25.835v-25.1c5.31-7.676,37.755-5.413,25.835,25.1" transform="translate(364.292 406.481)" fill="#003343"/>
                </g>
                <g id="g8277" transform="translate(-33.259 51.036)">
                  <path id="path8279" d="M-338.457-377.654h-.619c6.164-24.717-15.887-30.585-25.216-24.362v-.734c5.31-7.676,37.755-5.413,25.835,25.1" transform="translate(364.292 406.481)" fill="#002439"/>
                </g>
              </g>
            </g>
            <g id="g8281" transform="translate(0 -682.665)">
              <g id="g8283" clip-path="url(#clip-path)">
                <g id="g8289" transform="translate(17.066 51.014)">
                  <path id="path8291" d="M-338.457-377.826h-25.835v-25.108c5.31-7.679,37.755-5.416,25.835,25.108" transform="translate(364.292 406.667)" fill="#ff7e50"/>
                </g>
                <g id="g8293" transform="translate(17.066 51.014)">
                  <path id="path8295" d="M-338.457-377.826h-.619c6.164-24.728-15.887-30.6-25.216-24.374v-.734c5.31-7.679,37.755-5.416,25.835,25.108" transform="translate(364.292 406.667)" fill="#ff6247"/>
                </g>
                <g id="g8297" transform="translate(2.941 54.225)">
                  <path id="path8299" d="M-233.028-131.751v15.573h-14.6c-12.2-25.649,14.6-34.273,14.6-15.573" transform="translate(250.816 141.808)" fill="#ffa68a"/>
                </g>
                <g id="g8301" transform="translate(2.941 54.225)">
                  <path id="path8303" d="M-233.028-131.751c-.9-16.1-20.23-9.82-14.176,15.573h-.427c-12.2-25.649,14.6-34.273,14.6-15.573" transform="translate(250.816 141.808)" fill="#ff7e50"/>
                </g>
              </g>
            </g>
          </g>
        </g>
      </g>
      <g id="juggling_5618657" transform="translate(208.096 8951.048)">
        <g id="Group_1208137" data-name="Group 1208137" transform="translate(0.841 0.804)">
          <path id="Path_1052391" data-name="Path 1052391" d="M40.1,170.664l1.4-1.642a2.008,2.008,0,0,1,3.287,2.269l-1.541,2.817a2.711,2.711,0,0,0,.2,2.91l9,12.2-9.371,1.991L39.286,180.3A9.409,9.409,0,0,1,40.1,170.664Z" transform="translate(-35.022 -151.08)" fill="#ffcfc0"/>
          <path id="Path_1052392" data-name="Path 1052392" d="M28.139,184.734a6.033,6.033,0,0,1-.72-4.691l.987-3.833a2.051,2.051,0,0,0-3.887-1.281l-1.558,3.848a2.638,2.638,0,0,1-1.172,1.321,2.569,2.569,0,0,1-3.388-.842l-6.269-9.564a2.6,2.6,0,0,1-.109-2.664l1.664-3.055a1.883,1.883,0,0,0-3.269-1.87l-1.572,2.619a9.434,9.434,0,0,0-.612,8.5l6.12,14.6a11.671,11.671,0,0,1,.908,4.513v5.656H27.05l1.869-8.819a6.033,6.033,0,0,0-.779-4.437Z" transform="translate(-7.502 -144.714)" fill="#ffe0cf"/>
          <path id="Path_1052393" data-name="Path 1052393" d="M173.918,288.5a6.033,6.033,0,0,1-.72-4.691l.987-3.833a2.05,2.05,0,0,0-3.008-2.289,2.052,2.052,0,0,1,.963,2.289l-.987,3.833a6.032,6.032,0,0,0,.72,4.691,6.033,6.033,0,0,1,.779,4.437l-1.869,8.819h2.045l1.869-8.819A6.033,6.033,0,0,0,173.918,288.5Z" transform="translate(-153.28 -248.482)" fill="#ffcfc0"/>
          <path id="Path_1052394" data-name="Path 1052394" d="M354.326,170.664l-1.4-1.642a2.008,2.008,0,0,0-3.287,2.269l1.541,2.817a2.711,2.711,0,0,1-.2,2.91l-9,12.2,9.371,1.991,3.787-10.909A9.409,9.409,0,0,0,354.326,170.664Z" transform="translate(-306.128 -151.08)" fill="#ffcfc0"/>
          <path id="Path_1052395" data-name="Path 1052395" d="M304.4,184.734a6.033,6.033,0,0,0,.72-4.691l-.987-3.833a2.051,2.051,0,0,1,3.887-1.281l1.558,3.848a2.638,2.638,0,0,0,1.172,1.321,2.569,2.569,0,0,0,3.388-.842l6.269-9.564a2.6,2.6,0,0,0,.109-2.664l-1.664-3.055a1.883,1.883,0,0,1,3.269-1.87l1.572,2.619a9.434,9.434,0,0,1,.612,8.5l-6.12,14.6a11.672,11.672,0,0,0-.908,4.513v5.656H305.485l-1.869-8.819a6.033,6.033,0,0,1,.779-4.437Z" transform="translate(-271.757 -144.714)" fill="#ffe0cf"/>
          <path id="Path_1052396" data-name="Path 1052396" d="M304.4,288.5a6.033,6.033,0,0,0,.72-4.691l-.987-3.833a2.05,2.05,0,0,1,3.008-2.289,2.052,2.052,0,0,0-.963,2.289l.987,3.833a6.033,6.033,0,0,1-.72,4.691,6.033,6.033,0,0,0-.779,4.437l1.869,8.819h-2.045l-1.869-8.819A6.033,6.033,0,0,1,304.4,288.5Z" transform="translate(-271.757 -248.482)" fill="#ffcfc0"/>
          <circle id="Ellipse_13470" data-name="Ellipse 13470" cx="4.661" cy="4.661" r="4.661" transform="translate(30.324 15.488)" fill="#60b7ff"/>
          <path id="Path_1052397" data-name="Path 1052397" d="M322.361,151.985a4.659,4.659,0,0,0-1.381.208,4.663,4.663,0,0,1,0,8.906,4.662,4.662,0,1,0,1.381-9.114Z" transform="translate(-287.376 -136.497)" fill="#26a6fe"/>
          <circle id="Ellipse_13471" data-name="Ellipse 13471" cx="4.661" cy="4.661" r="4.661" transform="translate(13.63 15.488)" fill="#ffe177"/>
          <path id="Path_1052398" data-name="Path 1052398" d="M166.632,151.985a4.658,4.658,0,0,0-1.381.208,4.663,4.663,0,0,1,0,8.906,4.662,4.662,0,1,0,1.381-9.114Z" transform="translate(-148.341 -136.497)" fill="#ffd15b"/>
          <g id="Group_1208136" data-name="Group 1208136" transform="translate(15.115)">
            <circle id="Ellipse_13472" data-name="Ellipse 13472" cx="4.661" cy="4.661" r="4.661" transform="translate(13.725 0)" fill="#ff6470"/>
            <path id="Path_1052399" data-name="Path 1052399" d="M308.513,7.5a4.659,4.659,0,0,0-1.381.208,4.663,4.663,0,0,1,0,8.906A4.662,4.662,0,1,0,308.513,7.5Z" transform="translate(-290.128 -7.5)" fill="#ff4555"/>
            <circle id="Ellipse_13473" data-name="Ellipse 13473" cx="4.661" cy="4.661" r="4.661" transform="translate(0 0)" fill="#6fd7a3"/>
            <path id="Path_1052400" data-name="Path 1052400" d="M180.48,7.5a4.658,4.658,0,0,0-1.381.208,4.663,4.663,0,0,1,0,8.906A4.662,4.662,0,1,0,180.48,7.5Z" transform="translate(-175.819 -7.5)" fill="#3ec3a4"/>
          </g>
        </g>
        <g id="Group_1208138" data-name="Group 1208138" transform="translate(0.041 0)">
          <path id="Path_1052401" data-name="Path 1052401" d="M21.537,173.549l.987-3.833a2.855,2.855,0,0,0-5.411-1.783l-1.389,3.43-2.344-3.179a.8.8,0,1,0-1.294.954l2.633,3.572a1.773,1.773,0,0,1-2.308-.589l-6.269-9.564a1.788,1.788,0,0,1-.075-1.839l1.664-3.055a2.693,2.693,0,0,0,.326-1.306,1.2,1.2,0,0,1,1.633.05,1.208,1.208,0,0,1,.213,1.437l-1.541,2.817a3.527,3.527,0,0,0,.254,3.773l1.622,2.2a.8.8,0,1,0,1.294-.954l-1.622-2.2a1.914,1.914,0,0,1-.138-2.047l1.541-2.817a2.811,2.811,0,0,0-3.782-3.834,2.686,2.686,0,0,0-4.465.213L1.5,157.613a10.275,10.275,0,0,0-.664,9.229l6.12,14.6a10.811,10.811,0,0,1,.845,4.2V191.3a.8.8,0,0,0,1.608,0V185.64a12.411,12.411,0,0,0-.97-4.824l-6.12-14.6a8.661,8.661,0,0,1,.56-7.779l1.572-2.619a1.079,1.079,0,0,1,1.873,1.072l-1.664,3.055a3.394,3.394,0,0,0,.142,3.489L11.068,173a3.388,3.388,0,0,0,4.448,1.1,3.454,3.454,0,0,0,1.529-1.723l1.558-3.848a1.247,1.247,0,0,1,2.363.779l-.987,3.833a6.868,6.868,0,0,0,.816,5.316,5.205,5.205,0,0,1,.676,3.846L19.6,191.129a.8.8,0,1,0,1.573.333l1.869-8.819a6.806,6.806,0,0,0-.883-5.029,5.253,5.253,0,0,1-.624-4.066Z" transform="translate(-0.041 -137.215)"/>
          <path id="Path_1052402" data-name="Path 1052402" d="M288.349,155.416a5.465,5.465,0,1,0-5.465-5.465A5.471,5.471,0,0,0,288.349,155.416Zm0-9.322a3.857,3.857,0,1,1-3.857,3.857A3.862,3.862,0,0,1,288.349,146.094Z" transform="translate(-252.564 -128.998)"/>
          <path id="Path_1052403" data-name="Path 1052403" d="M132.621,144.485a5.465,5.465,0,1,0,5.465,5.465A5.471,5.471,0,0,0,132.621,144.485Zm0,9.322a3.857,3.857,0,1,1,3.857-3.857A3.861,3.861,0,0,1,132.621,153.807Z" transform="translate(-113.53 -128.997)"/>
          <path id="Path_1052404" data-name="Path 1052404" d="M317.668,157.613l-1.572-2.619a2.686,2.686,0,0,0-4.465-.213,2.811,2.811,0,0,0-3.782,3.834l1.541,2.817a1.914,1.914,0,0,1-.138,2.047l-5.811,7.882-1.389-3.43a2.855,2.855,0,0,0-5.411,1.783l.987,3.833a5.253,5.253,0,0,1-.624,4.066,6.805,6.805,0,0,0-.883,5.029l1.869,8.819a.8.8,0,1,0,1.573-.333l-1.869-8.819a5.2,5.2,0,0,1,.675-3.846,6.868,6.868,0,0,0,.816-5.316l-.987-3.833a1.247,1.247,0,0,1,2.363-.779l1.558,3.848a3.452,3.452,0,0,0,1.529,1.723A3.388,3.388,0,0,0,308.1,173l6.269-9.564a3.394,3.394,0,0,0,.142-3.489l-1.664-3.055a1.079,1.079,0,0,1,1.873-1.072l1.572,2.619a8.661,8.661,0,0,1,.56,7.779l-2.633,6.28a.8.8,0,1,0,1.483.622l2.633-6.28a10.274,10.274,0,0,0-.664-9.228Zm-4.572,3.105a1.788,1.788,0,0,1-.075,1.839l-6.269,9.564a1.773,1.773,0,0,1-2.307.589l6.1-8.276a3.527,3.527,0,0,0,.254-3.773l-1.541-2.817a1.2,1.2,0,0,1,1.108-1.781,1.19,1.19,0,0,1,.737.294,2.693,2.693,0,0,0,.327,1.306Z" transform="translate(-264.248 -137.215)"/>
          <path id="Path_1052405" data-name="Path 1052405" d="M428.9,351.436a.8.8,0,0,0-1.052.431l-2.281,5.441a12.413,12.413,0,0,0-.97,4.824v5.657a.8.8,0,1,0,1.608,0v-5.657a10.81,10.81,0,0,1,.845-4.2l2.281-5.441A.8.8,0,0,0,428.9,351.436Z" transform="translate(-379.085 -313.708)"/>
          <path id="Path_1052406" data-name="Path 1052406" d="M274.5,10.93a5.465,5.465,0,1,0-5.465-5.465A5.471,5.471,0,0,0,274.5,10.93Zm0-9.322a3.857,3.857,0,1,1-3.857,3.857A3.861,3.861,0,0,1,274.5,1.608Z" transform="translate(-240.201 0)"/>
          <path id="Path_1052407" data-name="Path 1052407" d="M146.542,0a5.423,5.423,0,0,0-4.372,2.186.8.8,0,0,0,1.286.966,3.858,3.858,0,1,1-.763,2.543.8.8,0,0,0-1.605.094A5.465,5.465,0,1,0,146.542,0Z" transform="translate(-125.966 0)"/>
        </g>
      </g>
    </g>
  </g>
</svg>
