<svg xmlns="http://www.w3.org/2000/svg" xmlns:xlink="http://www.w3.org/1999/xlink" width="113" height="113" viewBox="0 0 113 113">
  <defs>
    <filter id="Path_982547" x="0" y="0" width="113" height="113" filterUnits="userSpaceOnUse">
      <feOffset dy="3" input="SourceAlpha"/>
      <feGaussianBlur stdDeviation="3" result="blur"/>
      <feFlood flood-opacity="0.161"/>
      <feComposite operator="in" in2="blur"/>
      <feComposite in="SourceGraphic"/>
    </filter>
    <clipPath id="clip-path">
      <path id="path6927" d="M0-682.665H71.364V-611.3H0Z" transform="translate(0 682.665)"/>
    </clipPath>
  </defs>
  <g id="Group_1208223" data-name="Group 1208223" transform="translate(-4006.5 -4282.335)">
    <g id="Group_1208222" data-name="Group 1208222">
      <g id="Group_1207903" data-name="Group 1207903" transform="translate(-1279.99 2362.062)">
        <g id="Group_1176928" data-name="Group 1176928" transform="translate(5295.49 1926.273)">
          <g id="Group_1172322" data-name="Group 1172322" transform="translate(0 0)">
            <g id="Group_1164700" data-name="Group 1164700">
              <g id="Group_1160931" data-name="Group 1160931">
                <g id="Group_1160749" data-name="Group 1160749">
                  <g id="Group_1158891" data-name="Group 1158891">
                    <g id="Group_1157406" data-name="Group 1157406">
                      <g id="Group_1155793" data-name="Group 1155793">
                        <g id="Group_1154704" data-name="Group 1154704">
                          <g id="Group_1150790" data-name="Group 1150790">
                            <g id="Group_1154214" data-name="Group 1154214">
                              <g id="Group_1152583" data-name="Group 1152583">
                                <g id="Group_1146973" data-name="Group 1146973">
                                  <g id="Group_1146954" data-name="Group 1146954">
                                    <g transform="matrix(1, 0, 0, 1, -9, -6)" filter="url(#Path_982547)">
                                      <g id="Path_982547-2" data-name="Path 982547" transform="translate(9 6)" fill="#ebe9f0">
                                        <path d="M 47.5000114440918 93.49987030029297 C 41.28938293457031 93.49987030029297 35.26534652709961 92.28384399414062 29.5951976776123 89.88558959960938 C 24.11773109436035 87.56881713867188 19.19814491271973 84.25183868408203 14.97310447692871 80.02680206298828 C 10.74805164337158 75.80176544189453 7.43107795715332 70.88218688964844 5.114304542541504 65.40472412109375 C 2.716038227081299 59.73458862304688 1.500011444091797 53.71054840087891 1.500011444091797 47.49993515014648 C 1.500011444091797 41.28932189941406 2.716038227081299 35.26528167724609 5.114304542541504 29.59514808654785 C 7.43107795715332 24.1176815032959 10.74805164337158 19.1981086730957 14.97310447692871 14.97306823730469 C 19.19814491271973 10.74802875518799 24.11773109436035 7.431055068969727 29.5951976776123 5.11428165435791 C 35.26534652709961 2.716028451919556 41.28938293457031 1.500001788139343 47.5000114440918 1.500001788139343 C 53.71063995361328 1.500001788139343 59.73467636108398 2.716028451919556 65.40482330322266 5.11428165435791 C 70.88229370117188 7.431055068969727 75.8018798828125 10.74802875518799 80.02691650390625 14.97306823730469 C 84.25196838378906 19.1981086730957 87.56894683837891 24.1176815032959 89.88571929931641 29.59514808654785 C 92.28398132324219 35.26528167724609 93.50001525878906 41.28932189941406 93.50001525878906 47.49993515014648 C 93.50001525878906 53.71054840087891 92.28398132324219 59.73458862304688 89.88571929931641 65.40472412109375 C 87.56894683837891 70.88218688964844 84.25196838378906 75.80176544189453 80.02691650390625 80.02680206298828 C 75.8018798828125 84.25183868408203 70.88229370117188 87.56881713867188 65.40482330322266 89.88558959960938 C 59.73467636108398 92.28384399414062 53.71063995361328 93.49987030029297 47.5000114440918 93.49987030029297 Z" stroke="none"/>
                                        <path d="M 47.5000114440918 3 C 41.49122619628906 3 35.66378021240234 4.1761474609375 30.17951965332031 6.495796203613281 C 24.880859375 8.7369384765625 20.12153625488281 11.94596862792969 16.03376770019531 16.03373718261719 C 11.94598388671875 20.12149047851562 8.736968994140625 24.88081359863281 6.495811462402344 30.17947387695312 C 4.176162719726562 35.66371917724609 3.000007629394531 41.49116516113281 3.000007629394531 47.49993515014648 C 3.000007629394531 53.50870513916016 4.176162719726562 59.33615112304688 6.495811462402344 64.82039642333984 C 8.736968994140625 70.11905670166016 11.94598388671875 74.87837982177734 16.03376770019531 78.96613311767578 C 20.12153625488281 83.05390167236328 24.880859375 86.26293182373047 30.17951965332031 88.50407409667969 C 35.66378021240234 90.82372283935547 41.49122619628906 91.99987030029297 47.5000114440918 91.99987030029297 C 53.50879669189453 91.99987030029297 59.33624267578125 90.82372283935547 64.82050323486328 88.50407409667969 C 70.11916351318359 86.26293182373047 74.87848663330078 83.05390167236328 78.96625518798828 78.96613311767578 C 83.05403900146484 74.87837982177734 86.2630615234375 70.11905670166016 88.50421142578125 64.82039642333984 C 90.82386016845703 59.33615112304688 92.00001525878906 53.50870513916016 92.00001525878906 47.49993515014648 C 92.00001525878906 41.49116516113281 90.82386016845703 35.66371917724609 88.50421142578125 30.17947387695312 C 86.2630615234375 24.88081359863281 83.05403900146484 20.12149047851562 78.96625518798828 16.03373718261719 C 74.87848663330078 11.94596862792969 70.11916351318359 8.7369384765625 64.82050323486328 6.495796203613281 C 59.33624267578125 4.1761474609375 53.50879669189453 3 47.5000114440918 3 M 47.5000114440918 0 C 73.73353576660156 0 95.00001525878906 21.26644134521484 95.00001525878906 47.49993515014648 C 95.00001525878906 73.73342895507812 73.73353576660156 94.99987030029297 47.5000114440918 94.99987030029297 C 21.26648712158203 94.99987030029297 7.62939453125e-06 73.73342895507812 7.62939453125e-06 47.49993515014648 C 7.62939453125e-06 21.26644134521484 21.26648712158203 0 47.5000114440918 0 Z" stroke="none" fill="#453179"/>
                                      </g>
                                    </g>
                                  </g>
                                </g>
                              </g>
                            </g>
                          </g>
                        </g>
                      </g>
                    </g>
                  </g>
                </g>
              </g>
            </g>
          </g>
        </g>
      </g>
      <g id="g6921" transform="translate(4027.318 4982.818)">
        <g id="g6923" transform="translate(0 -682.665)">
          <g id="g6925" clip-path="url(#clip-path)">
            <g id="g6931" transform="translate(54.867 57.384)">
              <path id="path6933" d="M-51.814-25.906a3.024,3.024,0,0,1-3.024,3.024,3.024,3.024,0,0,1-3.024-3.024,3.024,3.024,0,0,1,3.024-3.024,3.024,3.024,0,0,1,3.024,3.024" transform="translate(57.863 28.931)" fill="#ffb09e"/>
            </g>
            <g id="g6935" transform="translate(54.867 57.384)">
              <path id="path6937" d="M-51.814-25.906a3.024,3.024,0,0,1-3.024,3.024,3.024,3.024,0,0,1-3.024-3.024,3.024,3.024,0,0,1,3.024-3.024A3.024,3.024,0,0,1-51.814-25.906Z" transform="translate(57.863 28.931)" fill="none" stroke="#000" stroke-linecap="round" stroke-linejoin="round" stroke-miterlimit="10" stroke-width="1"/>
            </g>
            <g id="g6939" transform="translate(38.137 57.384)">
              <path id="path6941" d="M-51.814-25.906a3.024,3.024,0,0,1-3.024,3.024,3.024,3.024,0,0,1-3.024-3.024,3.024,3.024,0,0,1,3.024-3.024,3.024,3.024,0,0,1,3.024,3.024" transform="translate(57.863 28.931)" fill="#ffb09e"/>
            </g>
            <g id="g6943" transform="translate(38.137 57.384)">
              <path id="path6945" d="M-51.814-25.906a3.024,3.024,0,0,1-3.024,3.024,3.024,3.024,0,0,1-3.024-3.024,3.024,3.024,0,0,1,3.024-3.024A3.024,3.024,0,0,1-51.814-25.906Z" transform="translate(57.863 28.931)" fill="none" stroke="#000" stroke-linecap="round" stroke-linejoin="round" stroke-miterlimit="10" stroke-width="1"/>
            </g>
            <g id="g6947" transform="translate(41.582 48.032)">
              <path id="path6949" d="M-136.087-68.038V-62.3a8.007,8.007,0,0,1-7.884,8.043,7.944,7.944,0,0,1-8-7.943v-5.837a7.944,7.944,0,0,1,7.944-7.943,7.918,7.918,0,0,1,5.616,2.326,7.921,7.921,0,0,1,2.326,5.616" transform="translate(151.974 75.981)" fill="#ffcebf"/>
            </g>
            <g id="g6951" transform="translate(42.92 48.032)">
              <path id="path6953" d="M-113.186-30.255a9.268,9.268,0,0,1-6.607,2.372,9.266,9.266,0,0,1-6.607-2.374,7.94,7.94,0,0,1,6.607-3.531,7.922,7.922,0,0,1,5.617,2.326,7.978,7.978,0,0,1,.99,1.206" transform="translate(126.4 33.787)" fill="#fee35a"/>
            </g>
            <g id="g6955" transform="translate(46.47 48.032)">
              <path id="path6957" d="M-82.776-30.255a7.308,7.308,0,0,1-2.8,1.734c-.088-.2-.184-.387-.289-.576a7.927,7.927,0,0,0-4.761-3.781,7.9,7.9,0,0,0-1.812-.3,7.887,7.887,0,0,1,3.057-.611,7.922,7.922,0,0,1,5.617,2.326,7.979,7.979,0,0,1,.99,1.206" transform="translate(92.44 33.787)" fill="#fed400"/>
            </g>
            <g id="g6959" transform="translate(42.92 51.562)">
              <path id="path6961" d="M-113.186-.012a9.268,9.268,0,0,1-6.607,2.372A9.266,9.266,0,0,1-126.4-.013" transform="translate(126.4 0.013)" fill="none" stroke="#000" stroke-linecap="round" stroke-linejoin="round" stroke-miterlimit="10" stroke-width="1"/>
            </g>
            <g id="g6963" transform="translate(41.583 48.032)">
              <path id="path6965" d="M-136.084-68.042v5.737a8.008,8.008,0,0,1-7.884,8.043,7.943,7.943,0,0,1-8-7.943v-5.836a7.943,7.943,0,0,1,7.943-7.943h0A7.943,7.943,0,0,1-136.084-68.042Z" transform="translate(151.97 75.985)" fill="none" stroke="#000" stroke-linecap="round" stroke-linejoin="round" stroke-miterlimit="10" stroke-width="1"/>
            </g>
            <g id="g6967" transform="translate(53.154 60.014)">
              <path id="path6969" d="M0,0H.011" fill="none" stroke="#000" stroke-linecap="round" stroke-linejoin="round" stroke-miterlimit="10" stroke-width="1"/>
            </g>
            <g id="g6971" transform="translate(45.889 60.014)">
              <path id="path6973" d="M0,0H.011" fill="none" stroke="#000" stroke-linecap="round" stroke-linejoin="round" stroke-miterlimit="10" stroke-width="1"/>
            </g>
            <g id="g6975" transform="translate(10.857 5.572)">
              <path id="path6977" d="M-97.471-55.214c0,3.56-2.547,6.446-5.689,6.446s-5.689-2.886-5.689-6.446,2.547-6.446,5.689-6.446,5.689,2.886,5.689,6.446" transform="translate(108.85 61.66)" fill="#a54f3e"/>
            </g>
            <g id="g6979" transform="translate(10.857 5.572)">
              <path id="path6981" d="M-97.471-55.214c0,3.56-2.547,6.446-5.689,6.446s-5.689-2.886-5.689-6.446,2.547-6.446,5.689-6.446S-97.471-58.774-97.471-55.214Z" transform="translate(108.85 61.66)" fill="none" stroke="#000" stroke-linecap="round" stroke-linejoin="round" stroke-miterlimit="10" stroke-width="1"/>
            </g>
            <g id="g6983" transform="translate(22.908 5.572)">
              <path id="path6985" d="M-97.471-55.214c0,3.56-2.547,6.446-5.689,6.446s-5.689-2.886-5.689-6.446,2.547-6.446,5.689-6.446,5.689,2.886,5.689,6.446" transform="translate(108.85 61.66)" fill="#a54f3e"/>
            </g>
            <g id="g6987" transform="translate(22.908 5.572)">
              <path id="path6989" d="M-93.024-32.176a5.7,5.7,0,0,0-5.17-3.756c-3.142,0-5.689,2.886-5.689,6.446s2.547,6.446,5.689,6.446a5.759,5.759,0,0,0,5.309-4.128" transform="translate(103.884 35.932)" fill="none" stroke="#000" stroke-linecap="round" stroke-linejoin="round" stroke-miterlimit="10" stroke-width="1"/>
            </g>
            <g id="g6991" transform="translate(27.922 16.437)">
              <path id="path6993" d="M-51.814-25.906a3.024,3.024,0,0,1-3.024,3.024,3.024,3.024,0,0,1-3.024-3.024,3.024,3.024,0,0,1,3.024-3.024,3.024,3.024,0,0,1,3.024,3.024" transform="translate(57.863 28.931)" fill="#ffb09e"/>
            </g>
            <g id="g6995" transform="translate(27.922 16.437)">
              <path id="path6997" d="M-51.814-25.906a3.024,3.024,0,0,1-3.024,3.024,3.024,3.024,0,0,1-3.024-3.024,3.024,3.024,0,0,1,3.024-3.024A3.024,3.024,0,0,1-51.814-25.906Z" transform="translate(57.863 28.931)" fill="none" stroke="#000" stroke-linecap="round" stroke-linejoin="round" stroke-miterlimit="10" stroke-width="1"/>
            </g>
            <g id="g6999" transform="translate(11.193 16.437)">
              <path id="path7001" d="M-51.814-25.906a3.024,3.024,0,0,1-3.024,3.024,3.024,3.024,0,0,1-3.024-3.024,3.024,3.024,0,0,1,3.024-3.024,3.024,3.024,0,0,1,3.024,3.024" transform="translate(57.863 28.931)" fill="#ffb09e"/>
            </g>
            <g id="g7003" transform="translate(11.193 16.437)">
              <path id="path7005" d="M-51.814-25.906a3.024,3.024,0,0,1-3.024,3.024,3.024,3.024,0,0,1-3.024-3.024,3.024,3.024,0,0,1,3.024-3.024A3.024,3.024,0,0,1-51.814-25.906Z" transform="translate(57.863 28.931)" fill="none" stroke="#000" stroke-linecap="round" stroke-linejoin="round" stroke-miterlimit="10" stroke-width="1"/>
            </g>
            <g id="g7007" transform="translate(14.638 7.084)">
              <path id="path7009" d="M-136.087-68.039V-62.3a8.007,8.007,0,0,1-7.884,8.043,7.944,7.944,0,0,1-8-7.943v-5.837a7.944,7.944,0,0,1,7.944-7.943,7.918,7.918,0,0,1,5.617,2.327,7.921,7.921,0,0,1,2.326,5.616" transform="translate(151.974 75.982)" fill="#ffcebf"/>
            </g>
            <g id="g7011" transform="translate(14.639 7.084)">
              <path id="path7013" d="M-136.084-68.041V-62.3a8.008,8.008,0,0,1-7.884,8.043,7.943,7.943,0,0,1-8-7.943v-5.836a7.943,7.943,0,0,1,7.943-7.943A7.943,7.943,0,0,1-136.084-68.041Z" transform="translate(151.97 75.984)" fill="none" stroke="#000" stroke-linecap="round" stroke-linejoin="round" stroke-miterlimit="10" stroke-width="1"/>
            </g>
            <g id="g7015" transform="translate(26.21 19.066)">
              <path id="path7017" d="M0,0H.011" fill="none" stroke="#000" stroke-linecap="round" stroke-linejoin="round" stroke-miterlimit="10" stroke-width="1"/>
            </g>
            <g id="g7019" transform="translate(18.945 19.066)">
              <path id="path7021" d="M0,0H.011" fill="none" stroke="#000" stroke-linecap="round" stroke-linejoin="round" stroke-miterlimit="10" stroke-width="1"/>
            </g>
            <g id="g7023" transform="translate(16.136 1.61)">
              <path id="path7025" d="M-55.214-97.471c-3.56,0-6.446-2.547-6.446-5.689s2.886-5.69,6.446-5.69,6.446,2.547,6.446,5.69-2.886,5.689-6.446,5.689" transform="translate(61.66 108.85)" fill="#bc5d4c"/>
            </g>
            <g id="g7027" transform="translate(18.62 1.617)">
              <path id="path7029" d="M-89.152-48.677c0,3.142-2.887,5.69-6.446,5.69a6.977,6.977,0,0,1-3.961-1.2c.112,0,.223.007.336.007,3.56,0,6.445-2.548,6.445-5.69a5.473,5.473,0,0,0-2.484-4.488c3.4.155,6.111,2.639,6.111,5.683" transform="translate(99.56 54.36)" fill="#a54f3e"/>
            </g>
            <g id="g7031" transform="translate(16.136 1.61)">
              <path id="path7033" d="M-55.214-97.471c-3.56,0-6.446-2.547-6.446-5.689s2.886-5.69,6.446-5.69,6.446,2.547,6.446,5.69S-51.654-97.471-55.214-97.471Z" transform="translate(61.66 108.85)" fill="none" stroke="#000" stroke-linecap="round" stroke-linejoin="round" stroke-miterlimit="10" stroke-width="1"/>
            </g>
            <g id="g7035" transform="translate(53.703 16.656)">
              <path id="path7037" d="M-51.813-25.906a3.024,3.024,0,0,1-3.024,3.024,3.024,3.024,0,0,1-3.024-3.024,3.024,3.024,0,0,1,3.024-3.024,3.024,3.024,0,0,1,3.024,3.024" transform="translate(57.861 28.931)" fill="#ffb09e"/>
            </g>
            <g id="g7039" transform="translate(53.703 16.656)">
              <path id="path7041" d="M-51.813-25.906a3.024,3.024,0,0,1-3.024,3.024,3.024,3.024,0,0,1-3.024-3.024,3.024,3.024,0,0,1,3.024-3.024A3.024,3.024,0,0,1-51.813-25.906Z" transform="translate(57.861 28.931)" fill="none" stroke="#000" stroke-linecap="round" stroke-linejoin="round" stroke-miterlimit="10" stroke-width="1"/>
            </g>
            <g id="g7043" transform="translate(36.974 16.656)">
              <path id="path7045" d="M-51.814-25.906a3.024,3.024,0,0,1-3.024,3.024,3.024,3.024,0,0,1-3.024-3.024,3.024,3.024,0,0,1,3.024-3.024,3.024,3.024,0,0,1,3.024,3.024" transform="translate(57.863 28.931)" fill="#ffb09e"/>
            </g>
            <g id="g7047" transform="translate(36.974 16.656)">
              <path id="path7049" d="M-51.814-25.906a3.024,3.024,0,0,1-3.024,3.024,3.024,3.024,0,0,1-3.024-3.024,3.024,3.024,0,0,1,3.024-3.024A3.024,3.024,0,0,1-51.814-25.906Z" transform="translate(57.863 28.931)" fill="none" stroke="#000" stroke-linecap="round" stroke-linejoin="round" stroke-miterlimit="10" stroke-width="1"/>
            </g>
            <g id="g7051" transform="translate(40.419 7.303)">
              <path id="path7053" d="M-136.087-68.038V-62.3a8.007,8.007,0,0,1-7.884,8.043,7.944,7.944,0,0,1-8-7.943v-5.837a7.944,7.944,0,0,1,7.944-7.943,7.918,7.918,0,0,1,5.616,2.326,7.921,7.921,0,0,1,2.326,5.616" transform="translate(151.974 75.981)" fill="#ffcebf"/>
            </g>
            <g id="g7055" transform="translate(41.756 7.303)">
              <path id="path7057" d="M-113.186-30.255a9.268,9.268,0,0,1-6.607,2.372,9.266,9.266,0,0,1-6.607-2.374,7.94,7.94,0,0,1,6.607-3.531,7.922,7.922,0,0,1,5.617,2.326,7.978,7.978,0,0,1,.99,1.206" transform="translate(126.4 33.787)" fill="#547984"/>
            </g>
            <g id="g7059" transform="translate(45.307 7.303)">
              <path id="path7061" d="M-82.776-30.255a7.309,7.309,0,0,1-2.8,1.734c-.088-.2-.184-.387-.289-.576a7.927,7.927,0,0,0-4.761-3.781,7.9,7.9,0,0,0-1.812-.3,7.886,7.886,0,0,1,3.057-.611,7.922,7.922,0,0,1,5.617,2.326,7.978,7.978,0,0,1,.99,1.206" transform="translate(92.44 33.787)" fill="#3e5958"/>
            </g>
            <g id="g7063" transform="translate(41.756 10.834)">
              <path id="path7065" d="M-113.186-.012a9.268,9.268,0,0,1-6.607,2.372A9.266,9.266,0,0,1-126.4-.013" transform="translate(126.4 0.013)" fill="none" stroke="#000" stroke-linecap="round" stroke-linejoin="round" stroke-miterlimit="10" stroke-width="1"/>
            </g>
            <g id="g7067" transform="translate(40.42 7.303)">
              <path id="path7069" d="M-136.084-68.041V-62.3a8.008,8.008,0,0,1-7.884,8.043,7.943,7.943,0,0,1-8-7.943v-5.836a7.943,7.943,0,0,1,7.943-7.943h0A7.943,7.943,0,0,1-136.084-68.041Z" transform="translate(151.97 75.984)" fill="none" stroke="#000" stroke-linecap="round" stroke-linejoin="round" stroke-miterlimit="10" stroke-width="1"/>
            </g>
            <g id="g7071" transform="translate(51.991 19.285)">
              <path id="path7073" d="M0,0H.011" fill="none" stroke="#000" stroke-linecap="round" stroke-linejoin="round" stroke-miterlimit="10" stroke-width="1"/>
            </g>
            <g id="g7075" transform="translate(44.726 19.285)">
              <path id="path7077" d="M0,0H.011" fill="none" stroke="#000" stroke-linecap="round" stroke-linejoin="round" stroke-miterlimit="10" stroke-width="1"/>
            </g>
            <g id="g7079" transform="translate(17.892 38.524)">
              <path id="path7081" d="M-51.814-25.906a3.024,3.024,0,0,1-3.024,3.024,3.024,3.024,0,0,1-3.024-3.024,3.024,3.024,0,0,1,3.024-3.024,3.024,3.024,0,0,1,3.024,3.024" transform="translate(57.863 28.931)" fill="#ffb09e"/>
            </g>
            <g id="g7083" transform="translate(17.892 38.524)">
              <path id="path7085" d="M-51.814-25.906a3.024,3.024,0,0,1-3.024,3.024,3.024,3.024,0,0,1-3.024-3.024,3.024,3.024,0,0,1,3.024-3.024A3.024,3.024,0,0,1-51.814-25.906Z" transform="translate(57.863 28.931)" fill="none" stroke="#000" stroke-linecap="round" stroke-linejoin="round" stroke-miterlimit="10" stroke-width="1"/>
            </g>
            <g id="g7087" transform="translate(1.164 38.524)">
              <path id="path7089" d="M-51.814-25.906a3.024,3.024,0,0,1-3.024,3.024,3.024,3.024,0,0,1-3.024-3.024,3.024,3.024,0,0,1,3.024-3.024,3.024,3.024,0,0,1,3.024,3.024" transform="translate(57.863 28.931)" fill="#ffb09e"/>
            </g>
            <g id="g7091" transform="translate(1.164 38.524)">
              <path id="path7093" d="M-51.814-25.906a3.024,3.024,0,0,1-3.024,3.024,3.024,3.024,0,0,1-3.024-3.024,3.024,3.024,0,0,1,3.024-3.024A3.024,3.024,0,0,1-51.814-25.906Z" transform="translate(57.863 28.931)" fill="none" stroke="#000" stroke-linecap="round" stroke-linejoin="round" stroke-miterlimit="10" stroke-width="1"/>
            </g>
            <g id="g7095" transform="translate(4.608 29.171)">
              <path id="path7097" d="M-136.087-68.038V-62.3a8.007,8.007,0,0,1-7.884,8.043,7.944,7.944,0,0,1-8-7.943v-5.837a7.944,7.944,0,0,1,7.944-7.943,7.918,7.918,0,0,1,5.617,2.326,7.921,7.921,0,0,1,2.326,5.616" transform="translate(151.974 75.981)" fill="#ffcebf"/>
            </g>
            <g id="g7099" transform="translate(4.609 29.172)">
              <path id="path7101" d="M-136.084-68.041V-62.3a8.008,8.008,0,0,1-7.884,8.043,7.943,7.943,0,0,1-8-7.943v-5.836a7.943,7.943,0,0,1,7.943-7.943A7.943,7.943,0,0,1-136.084-68.041Z" transform="translate(151.97 75.984)" fill="none" stroke="#000" stroke-linecap="round" stroke-linejoin="round" stroke-miterlimit="10" stroke-width="1"/>
            </g>
            <g id="g7103" transform="translate(16.18 41.154)">
              <path id="path7105" d="M0,0H.011" fill="none" stroke="#000" stroke-linecap="round" stroke-linejoin="round" stroke-miterlimit="10" stroke-width="1"/>
            </g>
            <g id="g7107" transform="translate(8.915 41.154)">
              <path id="path7109" d="M0,0H.011" fill="none" stroke="#000" stroke-linecap="round" stroke-linejoin="round" stroke-miterlimit="10" stroke-width="1"/>
            </g>
            <g id="g7111" transform="translate(1.045 25.394)">
              <path id="path7113" d="M-196.256-59.379a7.8,7.8,0,0,0-4.734-6.336,7.866,7.866,0,0,0-3.066-.6h-7.209a7.867,7.867,0,0,0-3.066.6,7.8,7.8,0,0,0-4.734,6.336c-1.3,7.657,10.138,3.94,11.4,3.506,1.266.433,12.7,4.151,11.4-3.506" transform="translate(219.167 66.311)" fill="#fee97d"/>
            </g>
            <g id="g7115" transform="translate(12.531 25.395)">
              <path id="path7117" d="M-41.293-99.173c2.033-.384,3.49-1.636,2.979-4.646a7.805,7.805,0,0,0-4.733-6.336,7.876,7.876,0,0,0-3.066-.6h3.626a7.882,7.882,0,0,1,3.066.6,7.805,7.805,0,0,1,4.733,6.336c.79,4.655-3.127,5.105-6.606,4.646" transform="translate(46.113 110.75)" fill="#fed400"/>
            </g>
            <g id="g7119" transform="translate(12.552 25.394)">
              <path id="path7121" d="M0,0V5.86" fill="none" stroke="#000" stroke-linecap="round" stroke-linejoin="round" stroke-miterlimit="10" stroke-width="1"/>
            </g>
            <g id="g7123" transform="translate(9.679 29.912)">
              <path id="path7125" d="M-24.614-24.614h0a2.874,2.874,0,0,0-2.874-2.874" transform="translate(27.488 27.488)" fill="none" stroke="#000" stroke-linecap="round" stroke-linejoin="round" stroke-miterlimit="10" stroke-width="1"/>
            </g>
            <g id="g7127" transform="translate(12.552 29.912)">
              <path id="path7129" d="M0-50.718v-3.047a2.873,2.873,0,0,1,2.873-2.874" transform="translate(0 56.639)" fill="none" stroke="#000" stroke-linecap="round" stroke-linejoin="round" stroke-miterlimit="10" stroke-width="1"/>
            </g>
            <g id="g7131" transform="translate(1.045 25.394)">
              <path id="path7133" d="M-196.256-59.379a7.8,7.8,0,0,0-4.734-6.336,7.866,7.866,0,0,0-3.066-.6h-7.209a7.867,7.867,0,0,0-3.066.6,7.8,7.8,0,0,0-4.734,6.336c-1.3,7.657,10.138,3.94,11.4,3.506C-206.394-55.439-194.955-51.721-196.256-59.379Z" transform="translate(219.167 66.311)" fill="none" stroke="#000" stroke-linecap="round" stroke-linejoin="round" stroke-miterlimit="10" stroke-width="1"/>
            </g>
            <g id="g7135" transform="translate(19.265 22.278)">
              <path id="path7137" d="M-191.658-191.661a9.418,9.418,0,0,1-10.681,1.839l12.521-12.521a9.418,9.418,0,0,1-1.84,10.681m-13.308-13.309a9.381,9.381,0,0,1,6.654-2.752,9.428,9.428,0,0,1,4.027.912l-12.521,12.521a9.418,9.418,0,0,1,1.84-10.681m17.775-4.467a15.746,15.746,0,0,0-22.243,0,15.746,15.746,0,0,0,0,22.243,15.681,15.681,0,0,0,11.121,4.6,15.68,15.68,0,0,0,11.121-4.6,15.746,15.746,0,0,0,0-22.243" transform="translate(214.032 214.036)" fill="#fd636f"/>
            </g>
            <g id="g7139" transform="translate(32.523 22.278)">
              <path id="path7141" d="M-116.361-229.918a15.678,15.678,0,0,1-11.122,4.6,15.753,15.753,0,0,1-2.462-.193,15.63,15.63,0,0,0,8.66-4.406,15.746,15.746,0,0,0,0-22.242,15.632,15.632,0,0,0-8.66-4.406,15.716,15.716,0,0,1,13.584,4.406,15.747,15.747,0,0,1,0,22.242" transform="translate(129.945 256.759)" fill="#fe4855"/>
            </g>
            <g id="g7143" transform="translate(19.265 22.278)">
              <path id="path7145" d="M-171.517-136.066l4.191-4.191a9.418,9.418,0,0,1-1.84,10.681,9.418,9.418,0,0,1-10.681,1.84l4.789-4.789m-7.416-10.36a9.381,9.381,0,0,1,6.654-2.752,9.427,9.427,0,0,1,4.027.912L-184.314-132.2A9.418,9.418,0,0,1-182.474-142.885Zm17.775-4.467a15.746,15.746,0,0,0-22.243,0,15.746,15.746,0,0,0,0,22.243,15.681,15.681,0,0,0,11.121,4.6,15.68,15.68,0,0,0,11.121-4.6A15.746,15.746,0,0,0-164.7-147.352Z" transform="translate(191.54 151.951)" fill="none" stroke="#000" stroke-linecap="round" stroke-linejoin="round" stroke-miterlimit="10" stroke-width="1"/>
            </g>
            <g id="g7147" transform="translate(11.856 45.305)">
              <path id="path7149" d="M-97.47-55.213c0,3.56-2.547,6.446-5.689,6.446s-5.689-2.886-5.689-6.446,2.547-6.446,5.689-6.446,5.689,2.886,5.689,6.446" transform="translate(108.849 61.659)" fill="#3e5958"/>
            </g>
            <g id="g7151" transform="translate(11.856 45.305)">
              <path id="path7153" d="M-97.47-55.213c0,3.56-2.547,6.446-5.689,6.446s-5.689-2.886-5.689-6.446,2.547-6.446,5.689-6.446S-97.47-58.773-97.47-55.213Z" transform="translate(108.849 61.659)" fill="none" stroke="#000" stroke-linecap="round" stroke-linejoin="round" stroke-miterlimit="10" stroke-width="1"/>
            </g>
            <g id="g7155" transform="translate(28.584 56.17)">
              <path id="path7157" d="M-51.814-25.907a3.024,3.024,0,0,1-3.024,3.024,3.024,3.024,0,0,1-3.024-3.024,3.024,3.024,0,0,1,3.024-3.024,3.024,3.024,0,0,1,3.024,3.024" transform="translate(57.863 28.932)" fill="#ffb09e"/>
            </g>
            <g id="g7159" transform="translate(28.584 56.17)">
              <path id="path7161" d="M-51.814-25.907a3.024,3.024,0,0,1-3.024,3.024,3.024,3.024,0,0,1-3.024-3.024,3.024,3.024,0,0,1,3.024-3.024A3.024,3.024,0,0,1-51.814-25.907Z" transform="translate(57.863 28.932)" fill="none" stroke="#000" stroke-linecap="round" stroke-linejoin="round" stroke-miterlimit="10" stroke-width="1"/>
            </g>
            <g id="g7163" transform="translate(11.855 56.17)">
              <path id="path7165" d="M-51.814-25.907a3.024,3.024,0,0,1-3.024,3.024,3.024,3.024,0,0,1-3.024-3.024,3.024,3.024,0,0,1,3.024-3.024,3.024,3.024,0,0,1,3.024,3.024" transform="translate(57.863 28.932)" fill="#ffb09e"/>
            </g>
            <g id="g7167" transform="translate(11.855 56.17)">
              <path id="path7169" d="M-51.814-25.907a3.024,3.024,0,0,1-3.024,3.024,3.024,3.024,0,0,1-3.024-3.024,3.024,3.024,0,0,1,3.024-3.024A3.024,3.024,0,0,1-51.814-25.907Z" transform="translate(57.863 28.932)" fill="none" stroke="#000" stroke-linecap="round" stroke-linejoin="round" stroke-miterlimit="10" stroke-width="1"/>
            </g>
            <g id="g7171" transform="translate(15.3 46.817)">
              <path id="path7173" d="M-136.087-68.039V-62.3a8.007,8.007,0,0,1-7.884,8.043,7.944,7.944,0,0,1-8-7.943v-5.837a7.944,7.944,0,0,1,7.944-7.943,7.918,7.918,0,0,1,5.617,2.326,7.922,7.922,0,0,1,2.326,5.617" transform="translate(151.974 75.982)" fill="#ffcebf"/>
            </g>
            <g id="g7175" transform="translate(15.301 46.817)">
              <path id="path7177" d="M-136.084-68.042v5.737a8.008,8.008,0,0,1-7.884,8.043,7.943,7.943,0,0,1-8-7.943v-5.836a7.943,7.943,0,0,1,7.943-7.943A7.943,7.943,0,0,1-136.084-68.042Z" transform="translate(151.97 75.985)" fill="none" stroke="#000" stroke-linecap="round" stroke-linejoin="round" stroke-miterlimit="10" stroke-width="1"/>
            </g>
            <g id="g7179" transform="translate(26.872 58.799)">
              <path id="path7181" d="M0,0H.011" fill="none" stroke="#000" stroke-linecap="round" stroke-linejoin="round" stroke-miterlimit="10" stroke-width="1"/>
            </g>
            <g id="g7183" transform="translate(19.607 58.799)">
              <path id="path7185" d="M0,0H.011" fill="none" stroke="#000" stroke-linecap="round" stroke-linejoin="round" stroke-miterlimit="10" stroke-width="1"/>
            </g>
            <g id="g7199" transform="translate(47.541 24.174)">
              <path id="path7201" d="M-97.471-55.214c0,3.56-2.547,6.446-5.689,6.446s-5.689-2.886-5.689-6.446,2.547-6.446,5.689-6.446,5.689,2.886,5.689,6.446" transform="translate(108.85 61.66)" fill="#a54f3e"/>
            </g>
            <g id="g7203" transform="translate(47.541 24.174)">
              <path id="path7205" d="M-97.471-55.214c0,3.56-2.547,6.446-5.689,6.446s-5.689-2.886-5.689-6.446,2.547-6.446,5.689-6.446S-97.471-58.774-97.471-55.214Z" transform="translate(108.85 61.66)" fill="none" stroke="#000" stroke-linecap="round" stroke-linejoin="round" stroke-miterlimit="10" stroke-width="1"/>
            </g>
            <g id="g7207" transform="translate(64.27 35.04)">
              <path id="path7209" d="M-51.814-25.906a3.024,3.024,0,0,1-3.024,3.024,3.024,3.024,0,0,1-3.024-3.024,3.024,3.024,0,0,1,3.024-3.024,3.024,3.024,0,0,1,3.024,3.024" transform="translate(57.863 28.931)" fill="#ffb09e"/>
            </g>
            <g id="g7211" transform="translate(64.27 35.04)">
              <path id="path7213" d="M-51.814-25.906a3.024,3.024,0,0,1-3.024,3.024,3.024,3.024,0,0,1-3.024-3.024,3.024,3.024,0,0,1,3.024-3.024A3.024,3.024,0,0,1-51.814-25.906Z" transform="translate(57.863 28.931)" fill="none" stroke="#000" stroke-linecap="round" stroke-linejoin="round" stroke-miterlimit="10" stroke-width="1"/>
            </g>
            <g id="g7215" transform="translate(47.541 35.04)">
              <path id="path7217" d="M-51.814-25.906a3.024,3.024,0,0,1-3.024,3.024,3.024,3.024,0,0,1-3.024-3.024,3.024,3.024,0,0,1,3.024-3.024,3.024,3.024,0,0,1,3.024,3.024" transform="translate(57.863 28.931)" fill="#ffb09e"/>
            </g>
            <g id="g7219" transform="translate(47.541 35.04)">
              <path id="path7221" d="M-51.814-25.906a3.024,3.024,0,0,1-3.024,3.024,3.024,3.024,0,0,1-3.024-3.024,3.024,3.024,0,0,1,3.024-3.024A3.024,3.024,0,0,1-51.814-25.906Z" transform="translate(57.863 28.931)" fill="none" stroke="#000" stroke-linecap="round" stroke-linejoin="round" stroke-miterlimit="10" stroke-width="1"/>
            </g>
            <g id="g7223" transform="translate(50.986 25.687)">
              <path id="path7225" d="M-136.087-68.038V-62.3a8.008,8.008,0,0,1-7.884,8.043,7.944,7.944,0,0,1-8-7.943v-5.837a7.943,7.943,0,0,1,7.944-7.943,7.918,7.918,0,0,1,5.617,2.326,7.921,7.921,0,0,1,2.326,5.616" transform="translate(151.974 75.981)" fill="#ffcebf"/>
            </g>
            <g id="g7227" transform="translate(50.987 25.687)">
              <path id="path7229" d="M-136.085-68.041V-62.3a8.008,8.008,0,0,1-7.884,8.043,7.943,7.943,0,0,1-8-7.943v-5.836a7.943,7.943,0,0,1,7.943-7.943A7.943,7.943,0,0,1-136.085-68.041Z" transform="translate(151.972 75.984)" fill="none" stroke="#000" stroke-linecap="round" stroke-linejoin="round" stroke-miterlimit="10" stroke-width="1"/>
            </g>
            <g id="g7231" transform="translate(62.558 37.669)">
              <path id="path7233" d="M0,0H.011" fill="none" stroke="#000" stroke-linecap="round" stroke-linejoin="round" stroke-miterlimit="10" stroke-width="1"/>
            </g>
            <g id="g7235" transform="translate(55.293 37.669)">
              <path id="path7237" d="M0,0H.011" fill="none" stroke="#000" stroke-linecap="round" stroke-linejoin="round" stroke-miterlimit="10" stroke-width="1"/>
            </g>
            <g id="g7239" transform="translate(52.815 21.043)">
              <path id="path7241" d="M-131.835-38.81c.943-.864,1.392-1.793,1.127-2.6-.548-1.661-13.142-4.027-16.171,1.644-1.543,2.889,2.307,8.058,6.688,9.381s8.789-.1,9.847-3.173a5.224,5.224,0,0,0-1.491-5.255" transform="translate(147.226 43.341)" fill="#bc5d4c"/>
            </g>
            <g id="g7243" transform="translate(58.953 21.195)">
              <path id="path7245" d="M-92.026-82.52c-1.059,3.074-5.468,4.495-9.848,3.173a8.632,8.632,0,0,1-.9-.326c3.356.176,6.286-1.222,7.123-3.653a4.894,4.894,0,0,0-.843-4.463,1.293,1.293,0,0,1,.019-1.522,2.063,2.063,0,0,0,.46-1.865c-.106-.321-.66-.668-1.508-.978,2.725.326,4.906,1.113,5.128,1.782.265.8-.184,1.733-1.127,2.6a5.226,5.226,0,0,1,1.491,5.255" transform="translate(102.769 92.153)" fill="#a54f3e"/>
            </g>
            <g id="g7247" transform="translate(52.815 21.043)">
              <path id="path7249" d="M-131.835-38.81c.943-.864,1.392-1.793,1.127-2.6-.548-1.661-13.142-4.027-16.171,1.644-1.543,2.889,2.307,8.058,6.688,9.381s8.789-.1,9.847-3.173A5.224,5.224,0,0,0-131.835-38.81Z" transform="translate(147.226 43.341)" fill="none" stroke="#000" stroke-linecap="round" stroke-linejoin="round" stroke-miterlimit="10" stroke-width="1"/>
            </g>
            <g id="leaf_4431009" transform="translate(21.82 24.167)">
              <g id="Group_1208073" data-name="Group 1208073" transform="translate(2.616 1.609)">
                <g id="Group_1208072" data-name="Group 1208072">
                  <path id="Path_1052163" data-name="Path 1052163" d="M74.394,15.871s-12.4-.684-19.626,6.542A9.252,9.252,0,0,0,67.852,35.5c7.226-7.226,6.542-19.626,6.542-19.626Z" transform="translate(-52.058 -15.854)" fill="#54e360"/>
                </g>
              </g>
              <path id="Path_1052164" data-name="Path 1052164" d="M25.7,1.584a.754.754,0,0,0-.711-.711c-.014,0-.342-.018-.913-.018A36.007,36.007,0,0,0,15.7,1.878a22.854,22.854,0,0,0-10.9,5.757,10.005,10.005,0,0,0-.552,13.551l-4.02,4.02a.754.754,0,1,0,1.066,1.066L5.3,22.258a10.006,10.006,0,0,0,13.642-.473,20.512,20.512,0,0,0,4.228-6.346,29.865,29.865,0,0,0,1.961-6.574,33.993,33.993,0,0,0,.572-7.28ZM23.649,8.594c-.1.566-.23,1.17-.383,1.8h-6.1L24.2,3.357a35.282,35.282,0,0,1-.553,5.237ZM21.011,16.43H11.128L15.66,11.9h7.2A24.751,24.751,0,0,1,21.011,16.43Zm-6.416-5.6-4.532,4.532V5.608a24.347,24.347,0,0,1,4.532-1.862Zm1.507-7.5a34.806,34.806,0,0,1,6.945-.952L16.1,9.326ZM3.369,14.71A8.442,8.442,0,0,1,5.859,8.7a17.3,17.3,0,0,1,2.7-2.191V16.872L5.31,20.117A8.434,8.434,0,0,1,3.369,14.71Zm14.508,6.009a8.5,8.5,0,0,1-11.508.47l3.252-3.252h10.5A17.255,17.255,0,0,1,17.877,20.719Z" transform="translate(0 0)"/>
            </g>
            <g id="g7187" transform="translate(17.129 42.335)">
              <path id="path7189" d="M-131.835-38.811c.943-.864,1.392-1.793,1.127-2.6-.548-1.661-13.142-4.027-16.171,1.644-1.543,2.889,2.307,8.058,6.688,9.381s8.789-.1,9.847-3.173a5.224,5.224,0,0,0-1.491-5.255" transform="translate(147.226 43.341)" fill="#547984"/>
            </g>
            <g id="g7191" transform="translate(23.098 42.249)">
              <path id="path7193" d="M-92.027-82.52c-1.059,3.074-5.468,4.494-9.848,3.173a8.676,8.676,0,0,1-.9-.326c3.356.176,6.286-1.222,7.123-3.653a4.893,4.893,0,0,0-.843-4.463,1.293,1.293,0,0,1,.019-1.522,2.063,2.063,0,0,0,.46-1.865c-.106-.321-.66-.667-1.508-.978,2.725.326,4.906,1.113,5.128,1.782.265.8-.184,1.733-1.127,2.6a5.227,5.227,0,0,1,1.491,5.255" transform="translate(102.77 92.153)" fill="#3e5958"/>
            </g>
            <g id="g7195" transform="translate(17.129 42.173)">
              <path id="path7197" d="M-64.869-112.263c4.2,1.054,8.294-.372,9.309-3.32a5.224,5.224,0,0,0-1.491-5.255c.943-.864,1.392-1.793,1.127-2.6-.548-1.661-13.142-4.028-16.171,1.644-1.051,1.968.4,4.992,2.817,7.139" transform="translate(72.442 125.368)" fill="none" stroke="#000" stroke-linecap="round" stroke-linejoin="round" stroke-miterlimit="10" stroke-width="1"/>
            </g>
          </g>
        </g>
      </g>
    </g>
  </g>
</svg>
