<svg xmlns="http://www.w3.org/2000/svg" xmlns:xlink="http://www.w3.org/1999/xlink" width="98" height="98" viewBox="0 0 98 98">
  <defs>
    <filter id="Path_982547" x="0" y="0" width="98" height="98" filterUnits="userSpaceOnUse">
      <feOffset dy="3" input="SourceAlpha"/>
      <feGaussianBlur stdDeviation="3" result="blur"/>
      <feFlood flood-opacity="0.161"/>
      <feComposite operator="in" in2="blur"/>
      <feComposite in="SourceGraphic"/>
    </filter>
    <clipPath id="clip-path">
      <path id="path8121" d="M0-682.665H48.414v48.414H0Z" transform="translate(0 682.665)"/>
    </clipPath>
  </defs>
  <g id="Group_1208225" data-name="Group 1208225" transform="translate(-191 -4669)">
    <g id="Group_1208092" data-name="Group 1208092">
      <g id="Group_1207904" data-name="Group 1207904" transform="translate(0 2583.448)">
        <g id="Group_1207712" data-name="Group 1207712">
          <g id="Group_1207285" data-name="Group 1207285" transform="translate(0 344.552)">
            <g id="Group_1206883" data-name="Group 1206883" transform="translate(0 -209)">
              <g id="Group_1204569" data-name="Group 1204569" transform="translate(-81 -1890.336)">
                <g id="Group_1203962" data-name="Group 1203962" transform="translate(281 3846.336)">
                  <g id="Group_1203498" data-name="Group 1203498" transform="translate(0)">
                    <g id="Group_1202589" data-name="Group 1202589">
                      <g id="Group_1172010" data-name="Group 1172010">
                        <g id="Group_1171046" data-name="Group 1171046">
                          <g id="Group_1148525" data-name="Group 1148525">
                            <g transform="matrix(1, 0, 0, 1, -9, -6)" filter="url(#Path_982547)">
                              <g id="Path_982547-2" data-name="Path 982547" transform="translate(9 6)" fill="#fdfbec">
                                <path d="M 39.99999237060547 78.49998474121094 C 34.8018684387207 78.49998474121094 29.76002502441406 77.48226165771484 25.0145263671875 75.47508239746094 C 20.43014717102051 73.53604888916016 16.31264877319336 70.75984954833984 12.77639198303223 67.22359466552734 C 9.240137100219727 63.68733596801758 6.463936805725098 59.5698356628418 4.524903297424316 54.98546981811523 C 2.517725706100464 50.23995971679688 1.500003457069397 45.19811630249023 1.500003457069397 39.99999237060547 C 1.500003457069397 34.8018684387207 2.517725706100464 29.76002502441406 4.524903297424316 25.0145263671875 C 6.463936805725098 20.43014717102051 9.240137100219727 16.31264877319336 12.77639198303223 12.77639198303223 C 16.31264877319336 9.240137100219727 20.43014717102051 6.463936805725098 25.0145263671875 4.524903297424316 C 29.76002502441406 2.517725706100464 34.8018684387207 1.500003457069397 39.99999237060547 1.500003457069397 C 45.19811630249023 1.500003457069397 50.23995971679688 2.517725706100464 54.98546981811523 4.524903297424316 C 59.5698356628418 6.463936805725098 63.68733596801758 9.240137100219727 67.22359466552734 12.77639198303223 C 70.75984954833984 16.31264877319336 73.53604888916016 20.43014717102051 75.47508239746094 25.0145263671875 C 77.48226165771484 29.76002502441406 78.49998474121094 34.8018684387207 78.49998474121094 39.99999237060547 C 78.49998474121094 45.19812393188477 77.48226165771484 50.23995971679688 75.47508239746094 54.98546981811523 C 73.53604888916016 59.5698356628418 70.75984954833984 63.68733596801758 67.22359466552734 67.22359466552734 C 63.68733596801758 70.75984954833984 59.5698356628418 73.53604888916016 54.98546981811523 75.47508239746094 C 50.23995971679688 77.48226165771484 45.19812393188477 78.49998474121094 39.99999237060547 78.49998474121094 Z" stroke="none"/>
                                <path d="M 39.99999237060547 2.999992370605469 C 35.00370025634766 2.999992370605469 30.1584587097168 3.97784423828125 25.59884643554688 5.906402587890625 C 21.19327163696289 7.769805908203125 17.23603057861328 10.43805694580078 13.83704376220703 13.83704376220703 C 10.43805694580078 17.23603057861328 7.769805908203125 21.19327163696289 5.906402587890625 25.59884643554688 C 3.97784423828125 30.1584587097168 2.999992370605469 35.00370025634766 2.999992370605469 39.99999237060547 C 2.999992370605469 44.99628448486328 3.97784423828125 49.84152603149414 5.906402587890625 54.40113830566406 C 7.769805908203125 58.80671310424805 10.43805694580078 62.76395416259766 13.83704376220703 66.16294097900391 C 17.23603057861328 69.56191253662109 21.19327163696289 72.23016357421875 25.59884643554688 74.09356689453125 C 30.1584587097168 76.02212524414062 35.00370025634766 76.99997711181641 39.99999237060547 76.99997711181641 C 44.99628448486328 76.99997711181641 49.84152603149414 76.02212524414062 54.40113830566406 74.09356689453125 C 58.80671310424805 72.23016357421875 62.76395416259766 69.56191253662109 66.16294097900391 66.16294097900391 C 69.56191253662109 62.76395416259766 72.23016357421875 58.80671310424805 74.09356689453125 54.40113830566406 C 76.02212524414062 49.84152603149414 76.99997711181641 44.99628448486328 76.99997711181641 39.99999237060547 C 76.99997711181641 35.00370025634766 76.02212524414062 30.1584587097168 74.09356689453125 25.59884643554688 C 72.23016357421875 21.19327163696289 69.56191253662109 17.23603057861328 66.16294097900391 13.83704376220703 C 62.76395416259766 10.43805694580078 58.80671310424805 7.769805908203125 54.40113830566406 5.906402587890625 C 49.84152603149414 3.97784423828125 44.99628448486328 2.999992370605469 39.99999237060547 2.999992370605469 M 39.99999237060547 -7.62939453125e-06 C 62.09137725830078 -7.62939453125e-06 79.99997711181641 17.90860748291016 79.99997711181641 39.99999237060547 C 79.99997711181641 62.09137725830078 62.09137725830078 79.99997711181641 39.99999237060547 79.99997711181641 C 17.90860748291016 79.99997711181641 -7.62939453125e-06 62.09137725830078 -7.62939453125e-06 39.99999237060547 C -7.62939453125e-06 17.90860748291016 17.90860748291016 -7.62939453125e-06 39.99999237060547 -7.62939453125e-06 Z" stroke="none" fill="#83793c"/>
                              </g>
                            </g>
                          </g>
                        </g>
                      </g>
                    </g>
                  </g>
                </g>
              </g>
            </g>
          </g>
          <g id="g8115" transform="translate(215.793 2790.01)">
            <g id="g8117" transform="translate(0 -682.665)">
              <g id="g8119" clip-path="url(#clip-path)">
                <g id="g8125" transform="translate(-33.259 0.709)">
                  <path id="path8127" d="M-338.457-377.826h-25.835v-25.108c5.31-7.679,37.755-5.416,25.835,25.108" transform="translate(364.292 406.667)" fill="#fbdf63"/>
                </g>
                <g id="g8129" transform="translate(-33.259 0.709)">
                  <path id="path8131" d="M-338.457-377.826h-.619c6.164-24.728-15.887-30.6-25.216-24.374v-.734c5.31-7.679,37.755-5.416,25.835,25.108" transform="translate(364.292 406.667)" fill="#f9d11f"/>
                </g>
              </g>
            </g>
            <g id="g8265" transform="translate(0 -682.665)">
              <g id="g8267" clip-path="url(#clip-path)">
                <g id="g8273" transform="translate(-33.259 51.036)">
                  <path id="path8275" d="M-338.457-377.654h-25.835v-25.1c5.31-7.676,37.755-5.413,25.835,25.1" transform="translate(364.292 406.481)" fill="#003343"/>
                </g>
                <g id="g8277" transform="translate(-33.259 51.036)">
                  <path id="path8279" d="M-338.457-377.654h-.619c6.164-24.717-15.887-30.585-25.216-24.362v-.734c5.31-7.676,37.755-5.413,25.835,25.1" transform="translate(364.292 406.481)" fill="#002439"/>
                </g>
              </g>
            </g>
            <g id="g8281" transform="translate(0 -682.665)">
              <g id="g8283" clip-path="url(#clip-path)">
                <g id="g8289" transform="translate(17.066 51.014)">
                  <path id="path8291" d="M-338.457-377.826h-25.835v-25.108c5.31-7.679,37.755-5.416,25.835,25.108" transform="translate(364.292 406.667)" fill="#ff7e50"/>
                </g>
                <g id="g8293" transform="translate(17.066 51.014)">
                  <path id="path8295" d="M-338.457-377.826h-.619c6.164-24.728-15.887-30.6-25.216-24.374v-.734c5.31-7.679,37.755-5.416,25.835,25.108" transform="translate(364.292 406.667)" fill="#ff6247"/>
                </g>
                <g id="g8297" transform="translate(2.941 54.225)">
                  <path id="path8299" d="M-233.028-131.751v15.573h-14.6c-12.2-25.649,14.6-34.273,14.6-15.573" transform="translate(250.816 141.808)" fill="#ffa68a"/>
                </g>
                <g id="g8301" transform="translate(2.941 54.225)">
                  <path id="path8303" d="M-233.028-131.751c-.9-16.1-20.23-9.82-14.176,15.573h-.427c-12.2-25.649,14.6-34.273,14.6-15.573" transform="translate(250.816 141.808)" fill="#ff7e50"/>
                </g>
              </g>
            </g>
          </g>
        </g>
      </g>
      <g id="race-walking_13265970" transform="translate(207.364 4680.84)">
        <g id="Group_1208087" data-name="Group 1208087" transform="translate(7.5 7.5)">
          <g id="Group_1208086" data-name="Group 1208086" transform="translate(0 0)">
            <g id="Group_1208074" data-name="Group 1208074" transform="translate(0 43.395)">
              <path id="Path_1052165" data-name="Path 1052165" d="M261.384,436.5H238.5l-1.947.731v5.434l1.967.713h22.861a2.276,2.276,0,0,0,2.276-2.276v-2.327A2.276,2.276,0,0,0,261.384,436.5Z" transform="translate(-213.387 -436.5)" fill="#ffb39d"/>
              <path id="Path_1052166" data-name="Path 1052166" d="M32.617,436.5H9.776A2.276,2.276,0,0,0,7.5,438.776V441.1a2.276,2.276,0,0,0,2.276,2.276H32.636a4.877,4.877,0,0,1-.019-6.878Z" transform="translate(-7.5 -436.5)" fill="#ff8f71"/>
            </g>
            <g id="Group_1208085" data-name="Group 1208085" transform="translate(6.572)">
              <g id="Group_1208075" data-name="Group 1208075" transform="translate(11.123 36.015)">
                <path id="Path_1052167" data-name="Path 1052167" d="M186.668,417.9a1.836,1.836,0,0,0,.672-2.508l-2.072-3.588-1,.1a1.867,1.867,0,0,0-1.59,2.754l1.484,2.569A1.836,1.836,0,0,0,186.668,417.9Z" transform="translate(-182.429 -406.922)" fill="#efedff"/>
                <path id="Path_1052168" data-name="Path 1052168" d="M214.477,363.542a4.992,4.992,0,0,1-3.981,4.882,3.7,3.7,0,0,0,1.89,3.274,8.673,8.673,0,0,0,5.762-8.155Z" transform="translate(-207.657 -363.542)" fill="#ffbf9d"/>
              </g>
              <g id="Group_1208076" data-name="Group 1208076" transform="translate(21.257 18.774)">
                <path id="Path_1052169" data-name="Path 1052169" d="M357.931,193.725a2.623,2.623,0,0,0-4.265,1.426,8.86,8.86,0,0,1-3.284,1.117l-.612.317v2.772h1.256a12,12,0,0,0,3.952-1.333,2.623,2.623,0,0,0,2.954-4.3Z" transform="translate(-342.977 -193.096)" fill="#ffd4bd"/>
                <path id="Path_1052170" data-name="Path 1052170" d="M290.022,215.656a9.015,9.015,0,0,1-5.116-.828,1.6,1.6,0,0,0-2.005.5,1.563,1.563,0,0,0,.561,2.29,12.121,12.121,0,0,0,7.2,1.123A2.235,2.235,0,0,1,290.022,215.656Z" transform="translate(-282.617 -212.483)" fill="#30cd9c"/>
              </g>
              <g id="Group_1208079" data-name="Group 1208079" transform="translate(14.918 19.881)">
                <g id="Group_1208077" data-name="Group 1208077">
                  <path id="Path_1052171" data-name="Path 1052171" d="M248.166,212.378a3.64,3.64,0,0,0-1.3-5.524l-.564-.27a5.228,5.228,0,0,0-2.151-1.091l-4.482,1.2,2.961,11.052,5.534-1.483v-3.885Z" transform="translate(-237.676 -205.346)" fill="#70dcba"/>
                  <path id="Path_1052172" data-name="Path 1052172" d="M224.794,207.99a5.228,5.228,0,0,1,1.631-3.8,5.245,5.245,0,0,0-6.477,5.1v5.672l1.384.927,3.461-.927v-6.97Z" transform="translate(-219.949 -204.043)" fill="#30cd9c"/>
                </g>
                <g id="Group_1208078" data-name="Group 1208078" transform="translate(0 10.917)">
                  <path id="Path_1052173" data-name="Path 1052173" d="M261.454,313.639v-1.671H255.81l-.877.375-.478,6.117,3.124.244a5.245,5.245,0,0,0,3.875-5.064Z" transform="translate(-250.965 -311.968)" fill="#b0ebd8"/>
                  <path id="Path_1052174" data-name="Path 1052174" d="M225.614,315.158a5.209,5.209,0,0,1-.819-2.816v-.373H219.95v1.671a5.242,5.242,0,0,0,6.614,5.064l.179-2.287A5.273,5.273,0,0,1,225.614,315.158Z" transform="translate(-219.95 -311.969)" fill="#70dcba"/>
                </g>
              </g>
              <g id="Group_1208082" data-name="Group 1208082">
                <g id="Group_1208080" data-name="Group 1208080" transform="translate(8.769 0.632)">
                  <path id="Path_1052175" data-name="Path 1052175" d="M179.291,19.006,165.872,13.75l-6.714,14.055,14.777,6.431a11.005,11.005,0,0,0,5.993-13.773A11.178,11.178,0,0,0,179.291,19.006Z" transform="translate(-159.158 -13.75)" fill="#ffd4bd"/>
                  <path id="Path_1052176" data-name="Path 1052176" d="M165.767,119.083q-.207-.585-.364-1.185l-4.609,1.629-1.636,1.891a11.009,11.009,0,0,0,14.055,6.714q.366-.129.722-.283A14.981,14.981,0,0,1,165.767,119.083Z" transform="translate(-159.159 -107.363)" fill="#ffbf9d"/>
                </g>
                <g id="Group_1208081" data-name="Group 1208081">
                  <path id="Path_1052177" data-name="Path 1052177" d="M200.068,7.9l-3.689,3.753,2.48,7.016a20.665,20.665,0,0,0,5.151-6.33,10.986,10.986,0,0,0,8.737,1.051A11.006,11.006,0,0,0,200.068,7.9Z" transform="translate(-183.845 -7.5)" fill="#e8b5b1"/>
                  <path id="Path_1052178" data-name="Path 1052178" d="M83.263,41.316c-1.816,1.582-2.787,3.531-2.214,5.88a8.14,8.14,0,0,1,.19,3.376c-.621,3.964-4.171,6.877-7.756,6.221a1.2,1.2,0,0,1-1.013-1.2,1.237,1.237,0,0,1,.424-.949c2.161-1.883,2.668-4.009,2.181-5.87a7.9,7.9,0,0,1,1.984-7.668,6.392,6.392,0,0,1,5.61-1.939A1.237,1.237,0,0,1,83.263,41.316Z" transform="translate(-72.471 -35.884)" fill="#bd7669"/>
                  <path id="Path_1052179" data-name="Path 1052179" d="M160.246,11.675a11.012,11.012,0,0,0-6.714,14.055,20.627,20.627,0,0,0,6.245-3.52,14.97,14.97,0,0,1,1.209-10.768C160.736,11.511,160.49,11.589,160.246,11.675Z" transform="translate(-144.763 -11.043)" fill="#d6948c"/>
                </g>
              </g>
              <g id="Group_1208083" data-name="Group 1208083" transform="translate(19.704 33.927)">
                <path id="Path_1052180" data-name="Path 1052180" d="M302.965,424.676a2.089,2.089,0,0,0-2.757-1c-.934.435-2.818,1.347-3.8,1.816l.7,1.811a2.1,2.1,0,0,0,2.864,1.135l2-.961A2.1,2.1,0,0,0,302.965,424.676Z" transform="translate(-293.464 -415.33)" fill="#efedff"/>
                <path id="Path_1052181" data-name="Path 1052181" d="M271.319,344.241a2.1,2.1,0,1,0-3.914,1.513l2.807,7.3a4.877,4.877,0,0,0,3.8-1.816Z" transform="translate(-267.264 -342.899)" fill="#ffd4bd"/>
              </g>
              <g id="Group_1208084" data-name="Group 1208084" transform="translate(8.317 20.892)">
                <path id="Path_1052182" data-name="Path 1052182" d="M185.894,215.493a1.574,1.574,0,0,0-1.687-1.451,10.035,10.035,0,0,0-5.227,1.976v2.455h1.974a7.042,7.042,0,0,1,3.489-1.293A1.573,1.573,0,0,0,185.894,215.493Z" transform="translate(-176.523 -214.038)" fill="#30cd9c"/>
                <path id="Path_1052183" data-name="Path 1052183" d="M164.315,240.395a2.622,2.622,0,0,0-4.162-1.226l-1.513-.577c-.894-.341-1-.766-.533-1.487a4.062,4.062,0,0,1,1.013-1.034,2.817,2.817,0,0,0-1.974-2.455,7.18,7.18,0,0,0-1.685,1.785,3.928,3.928,0,0,0,2.058,6.131l1.9.725a2.622,2.622,0,0,0,4.895-1.863Z" transform="translate(-154.689 -231.637)" fill="#ffbf9d"/>
              </g>
            </g>
          </g>
        </g>
        <g id="Group_1208091" data-name="Group 1208091" transform="translate(7.5 7.5)">
          <g id="Group_1208090" data-name="Group 1208090" transform="translate(14.708 0)">
            <path id="Path_1052184" data-name="Path 1052184" d="M189.118,374.817a5,5,0,0,1-3.848,3.741l-1,.1a1.829,1.829,0,0,0-1.59,2.754l1.484,2.569a1.836,1.836,0,1,0,3.179-1.836l-.182-.314a8.71,8.71,0,0,0,5.032-4.685" transform="translate(-179.444 -337.662)" fill="none" stroke="#000" stroke-linecap="round" stroke-linejoin="round" stroke-miterlimit="10" stroke-width="1"/>
            <path id="Path_1052185" data-name="Path 1052185" d="M212.387,415.078a3.7,3.7,0,0,1-1.89-3.274" transform="translate(-204.671 -370.908)" fill="none" stroke="#000" stroke-linecap="round" stroke-linejoin="round" stroke-miterlimit="10" stroke-width="1"/>
            <path id="Path_1052186" data-name="Path 1052186" d="M179.292,56.37a10.986,10.986,0,0,1-8.737-1.051,20.592,20.592,0,0,1-11.4,9.85" transform="translate(-158.526 -50.482)" fill="none" stroke="#000" stroke-linecap="round" stroke-linejoin="round" stroke-miterlimit="10" stroke-width="1"/>
            <path id="Path_1052187" data-name="Path 1052187" d="M159.158,65.169a20.592,20.592,0,0,0,11.4-9.85,10.986,10.986,0,0,0,8.737,1.051" transform="translate(-158.525 -50.482)" fill="none" stroke="#000" stroke-linecap="round" stroke-linejoin="round" stroke-miterlimit="10" stroke-width="1"/>
            <g id="Group_1208089" data-name="Group 1208089" transform="translate(7.284 10.161)">
              <line id="Line_839" data-name="Line 839" x2="0.187" y2="0.447" transform="translate(11.487)" fill="none" stroke="#000" stroke-linecap="round" stroke-linejoin="round" stroke-miterlimit="10" stroke-width="1"/>
              <line id="Line_840" data-name="Line 840" x2="0.187" y2="0.446" transform="translate(0 4.816)" fill="none" stroke="#000" stroke-linecap="round" stroke-linejoin="round" stroke-miterlimit="10" stroke-width="1"/>
              <g id="Group_1208088" data-name="Group 1208088" transform="translate(5.466 1.516)">
                <path id="Path_1052188" data-name="Path 1052188" d="M287.6,143.392a1.119,1.119,0,1,1,.874,2.06" transform="translate(-286.724 -141.243)" fill="none" stroke="#000" stroke-linecap="round" stroke-miterlimit="10" stroke-width="1"/>
                <path id="Path_1052189" data-name="Path 1052189" d="M278.955,123.031a1.119,1.119,0,1,1,.874,2.06" transform="translate(-278.955 -122.942)" fill="none" stroke="#000" stroke-linecap="round" stroke-miterlimit="10" stroke-width="1"/>
              </g>
            </g>
            <path id="Path_1052190" data-name="Path 1052190" d="M274.009,351.242l-2.69-7a2.1,2.1,0,1,0-3.914,1.513l3.507,9.115A2.1,2.1,0,0,0,273.776,356l2-.961a2.1,2.1,0,0,0-1.772-3.8Z" transform="translate(-255.696 -308.972)" fill="none" stroke="#000" stroke-linecap="round" stroke-linejoin="round" stroke-miterlimit="10" stroke-width="1"/>
            <path id="Path_1052191" data-name="Path 1052191" d="M300.209,425.38a4.877,4.877,0,0,1-3.8,1.816" transform="translate(-281.895 -383.11)" fill="none" stroke="#000" stroke-linecap="round" stroke-linejoin="round" stroke-miterlimit="10" stroke-width="1"/>
            <path id="Path_1052192" data-name="Path 1052192" d="M160.47,31.6a6.214,6.214,0,0,0-3.97,2.262c-.464.721-.361,1.146.533,1.487l1.513.577a2.622,2.622,0,1,1-.733,3.088l-1.9-.725a3.928,3.928,0,0,1-2.058-6.131,9.328,9.328,0,0,1,6.911-3.761,1.573,1.573,0,0,1,1.594,1.025,11.019,11.019,0,1,0-2.9-.833" transform="translate(-152.9 -7.5)" fill="none" stroke="#000" stroke-linecap="round" stroke-linejoin="round" stroke-miterlimit="10" stroke-width="1" stroke-dasharray="890 30 1000 0 1000 0"/>
          </g>
          <path id="Path_1052193" data-name="Path 1052193" d="M83.391,39.582a1.214,1.214,0,0,0-.721-.414,6.392,6.392,0,0,0-5.61,1.939,7.9,7.9,0,0,0-1.984,7.668c.486,1.861-.02,3.987-2.181,5.87a1.237,1.237,0,0,0-.424.949,1.2,1.2,0,0,0,1.013,1.2c3.584.656,7.135-2.257,7.756-6.221" transform="translate(-65.899 -35.884)" fill="none" stroke="#000" stroke-linecap="round" stroke-linejoin="round" stroke-miterlimit="10" stroke-width="1"/>
          <path id="Path_1052194" data-name="Path 1052194" d="M178.98,233.617a2.817,2.817,0,0,1,1.974,2.455" transform="translate(-161.634 -210.745)" fill="none" stroke="#000" stroke-linecap="round" stroke-linejoin="round" stroke-miterlimit="10" stroke-width="1"/>
          <path id="Path_1052195" data-name="Path 1052195" d="M180.954,236.072a2.817,2.817,0,0,0-1.974-2.455" transform="translate(-161.634 -210.745)" fill="none" stroke="#000" stroke-linecap="round" stroke-linejoin="round" stroke-miterlimit="10" stroke-width="1"/>
          <path id="Path_1052196" data-name="Path 1052196" d="M305.739,231.159a5.226,5.226,0,0,0,1.368-3.531v-5.556a3.64,3.64,0,0,0-1.3-5.524l-.564-.27" transform="translate(-275.127 -195.159)" fill="none" stroke="#000" stroke-linecap="round" stroke-linejoin="round" stroke-miterlimit="10" stroke-width="1"/>
          <path id="Path_1052197" data-name="Path 1052197" d="M220.246,333.988a5.229,5.229,0,0,0,5.255,4.688" transform="translate(-198.726 -300.963)" fill="none" stroke="#000" stroke-linecap="round" stroke-linejoin="round" stroke-miterlimit="10" stroke-width="1"/>
          <line id="Line_841" data-name="Line 841" x1="7.363" transform="translate(24.617 30.798)" fill="none" stroke="#000" stroke-linecap="round" stroke-linejoin="round" stroke-miterlimit="10" stroke-width="1"/>
          <path id="Path_1052198" data-name="Path 1052198" d="M220.022,247.313a5.279,5.279,0,0,0-.073.868v2.756" transform="translate(-198.459 -223.055)" fill="none" stroke="#000" stroke-linecap="round" stroke-linejoin="round" stroke-miterlimit="10" stroke-width="1"/>
          <path id="Path_1052199" data-name="Path 1052199" d="M307.853,199.421a12.048,12.048,0,0,0,7.1-1.4,2.622,2.622,0,1,0-1.311-2.873,8.86,8.86,0,0,1-3.284,1.117,9.016,9.016,0,0,1-5.116-.828" transform="translate(-275.127 -174.322)" fill="none" stroke="#000" stroke-linecap="round" stroke-linejoin="round" stroke-miterlimit="10" stroke-width="1"/>
          <path id="Path_1052200" data-name="Path 1052200" d="M353.236,227.549a2.235,2.235,0,0,1-.644-3.089" transform="translate(-317.359 -202.514)" fill="none" stroke="#000" stroke-linecap="round" stroke-linejoin="round" stroke-miterlimit="10" stroke-width="1"/>
          <path id="Path_1052201" data-name="Path 1052201" d="M256,443.378h22.861a2.276,2.276,0,0,0,2.276-2.276v-2.327a2.276,2.276,0,0,0-2.276-2.276H266.692" transform="translate(-230.864 -393.105)" fill="none" stroke="#000" stroke-linecap="round" stroke-linejoin="round" stroke-miterlimit="10" stroke-width="1" stroke-dasharray="135 30 1000 0 1000 0"/>
          <path id="Path_1052202" data-name="Path 1052202" d="M25.282,436.5H9.776A2.276,2.276,0,0,0,7.5,438.776V441.1a2.276,2.276,0,0,0,2.276,2.276H32.636" transform="translate(-7.5 -393.105)" fill="none" stroke="#000" stroke-linecap="round" stroke-linejoin="round" stroke-miterlimit="10" stroke-width="1"/>
          <line id="Line_842" data-name="Line 842" x1="4.917" transform="translate(24.042 43.395)" fill="none" stroke="#000" stroke-linecap="round" stroke-linejoin="round" stroke-miterlimit="10" stroke-width="1"/>
        </g>
      </g>
    </g>
  </g>
</svg>
