<svg xmlns="http://www.w3.org/2000/svg" xmlns:xlink="http://www.w3.org/1999/xlink" width="113" height="113" viewBox="0 0 113 113">
  <defs>
    <filter id="Path_982547" x="0" y="0" width="113" height="113" filterUnits="userSpaceOnUse">
      <feOffset dy="3" input="SourceAlpha"/>
      <feGaussianBlur stdDeviation="3" result="blur"/>
      <feFlood flood-opacity="0.161"/>
      <feComposite operator="in" in2="blur"/>
      <feComposite in="SourceGraphic"/>
    </filter>
  </defs>
  <g id="Group_1208179" data-name="Group 1208179" transform="translate(-585.06 -2830.143)">
    <g id="Group_1207990" data-name="Group 1207990">
      <g id="Group_1207722" data-name="Group 1207722" transform="translate(-1 752.362)">
        <g id="Group_1207255" data-name="Group 1207255" transform="translate(0 -8747.046)">
          <g id="Group_1204126" data-name="Group 1204126" transform="translate(0 6984.49)">
            <g id="Group_1203959" data-name="Group 1203959" transform="translate(0 1899.461)">
              <g id="Group_1203497" data-name="Group 1203497" transform="translate(595.061 1946.875)">
                <g id="Group_1172010" data-name="Group 1172010" transform="translate(0)">
                  <g id="Group_1171046" data-name="Group 1171046">
                    <g id="Group_1148525" data-name="Group 1148525">
                      <g transform="matrix(1, 0, 0, 1, -9, -6)" filter="url(#Path_982547)">
                        <g id="Path_982547-2" data-name="Path 982547" transform="translate(9 6)" fill="#edf3fc">
                          <path d="M 47.5 93.5 C 41.28937149047852 93.5 35.26533508300781 92.28397369384766 29.59518623352051 89.88570404052734 C 24.11771965026855 87.56893157958984 19.19813346862793 84.25196075439453 14.97309303283691 80.02691650390625 C 10.74804019927979 75.80186462402344 7.431066513061523 70.88229370117188 5.114293098449707 65.40481567382812 C 2.716026782989502 59.73468017578125 1.5 53.71062850952148 1.5 47.5 C 1.5 41.28937149047852 2.716026782989502 35.26533508300781 5.114293098449707 29.59518623352051 C 7.431066513061523 24.11771965026855 10.74804019927979 19.19813346862793 14.97309303283691 14.97309303283691 C 19.19813346862793 10.74804019927979 24.11771965026855 7.431066513061523 29.59518623352051 5.114293098449707 C 35.26533508300781 2.716026782989502 41.28937149047852 1.5 47.5 1.5 C 53.71062850952148 1.5 59.73468017578125 2.716026782989502 65.40481567382812 5.114293098449707 C 70.88229370117188 7.431066513061523 75.80186462402344 10.74804019927979 80.02691650390625 14.97309303283691 C 84.25196075439453 19.19813346862793 87.56893157958984 24.11771965026855 89.88570404052734 29.59518623352051 C 92.28397369384766 35.26533508300781 93.5 41.28937149047852 93.5 47.5 C 93.5 53.71062850952148 92.28397369384766 59.73468017578125 89.88570404052734 65.40481567382812 C 87.56893157958984 70.88229370117188 84.25196075439453 75.80186462402344 80.02691650390625 80.02691650390625 C 75.80186462402344 84.25196075439453 70.88229370117188 87.56893157958984 65.40481567382812 89.88570404052734 C 59.73468017578125 92.28397369384766 53.71062850952148 93.5 47.5 93.5 Z" stroke="none"/>
                          <path d="M 47.5 3 C 41.49121475219727 3 35.66376876831055 4.176155090332031 30.17950439453125 6.495796203613281 C 24.88084411621094 8.736953735351562 20.12152099609375 11.94598388671875 16.03375244140625 16.03375244140625 C 11.94598388671875 20.12152099609375 8.736953735351562 24.88084411621094 6.495796203613281 30.17950439453125 C 4.176155090332031 35.66376876831055 3 41.49121475219727 3 47.5 C 3 53.50878524780273 4.176155090332031 59.33623123168945 6.495796203613281 64.82049560546875 C 8.736953735351562 70.11915588378906 11.94598388671875 74.87847900390625 16.03375244140625 78.96624755859375 C 20.12152099609375 83.05401611328125 24.88084411621094 86.26304626464844 30.17950439453125 88.50419616699219 C 35.66376876831055 90.82384490966797 41.49121475219727 92 47.5 92 C 53.50878524780273 92 59.33623123168945 90.82384490966797 64.82049560546875 88.50419616699219 C 70.11915588378906 86.26304626464844 74.87847900390625 83.05401611328125 78.96624755859375 78.96624755859375 C 83.05401611328125 74.87847900390625 86.26304626464844 70.11915588378906 88.50419616699219 64.82049560546875 C 90.82384490966797 59.33623123168945 92 53.50878524780273 92 47.5 C 92 41.49121475219727 90.82384490966797 35.66376876831055 88.50419616699219 30.17950439453125 C 86.26304626464844 24.88084411621094 83.05401611328125 20.12152099609375 78.96624755859375 16.03375244140625 C 74.87847900390625 11.94598388671875 70.11915588378906 8.736953735351562 64.82049560546875 6.495796203613281 C 59.33623123168945 4.176155090332031 53.50878524780273 3 47.5 3 M 47.5 0 C 73.7335205078125 0 95 21.2664794921875 95 47.5 C 95 73.7335205078125 73.7335205078125 95 47.5 95 C 21.2664794921875 95 0 73.7335205078125 0 47.5 C 0 21.2664794921875 21.2664794921875 0 47.5 0 Z" stroke="none" fill="#5692e8"/>
                        </g>
                      </g>
                    </g>
                  </g>
                </g>
              </g>
            </g>
          </g>
        </g>
      </g>
      <g id="book_7246721" transform="translate(604.583 2849.564)">
        <g id="Group_1207986" data-name="Group 1207986" transform="translate(7.5 7.5)">
          <g id="Group_1207983" data-name="Group 1207983" transform="translate(0 0)">
            <path id="Path_1051849" data-name="Path 1051849" d="M64.149,58.6H9.335A1.835,1.835,0,0,0,7.5,60.431v33.4a1.835,1.835,0,0,0,1.835,1.835H64.15a1.835,1.835,0,0,0,1.835-1.835v-33.4A1.836,1.836,0,0,0,64.149,58.6Z" transform="translate(-7.5 -52.571)" fill="#9ec8fc"/>
            <path id="Path_1051850" data-name="Path 1051850" d="M64.149,341.231H9.335A1.835,1.835,0,0,1,7.5,339.4v2.122a1.835,1.835,0,0,0,1.835,1.835H64.15a1.835,1.835,0,0,0,1.835-1.835V339.4A1.836,1.836,0,0,1,64.149,341.231Z" transform="translate(-7.5 -300.261)" fill="#8aaadc"/>
            <path id="Path_1051851" data-name="Path 1051851" d="M255.5,41.8s3.907-1.934,11.95-1.934S279.4,41.8,279.4,41.8V10.692a1.836,1.836,0,0,0-1.262-1.744A34.512,34.512,0,0,0,267.45,7.5c-8.043,0-11.95,1.934-11.95,1.934Z" transform="translate(-226.258 -7.5)" fill="#dfe9fb"/>
            <path id="Path_1051852" data-name="Path 1051852" d="M255.5,288.337s3.907-1.934,11.95-1.934a35.3,35.3,0,0,1,10.365,1.345,1.223,1.223,0,0,0,1.585-1.169v-2.619s-3.907-1.934-11.95-1.934-11.95,1.934-11.95,1.934Z" transform="translate(-226.258 -249.657)" fill="#dfe9fb"/>
            <path id="Path_1051853" data-name="Path 1051853" d="M76.711,41.8S72.8,39.87,64.761,39.87,52.811,41.8,52.811,41.8V10.692a1.836,1.836,0,0,1,1.262-1.744A34.511,34.511,0,0,1,64.761,7.5c8.043,0,11.95,1.934,11.95,1.934Z" transform="translate(-47.468 -7.5)" fill="#eef5ff"/>
            <path id="Path_1051854" data-name="Path 1051854" d="M76.71,288.337S72.8,286.4,64.76,286.4A35.3,35.3,0,0,0,54.4,287.749a1.223,1.223,0,0,1-1.585-1.169v-2.619s3.907-1.934,11.95-1.934,11.95,1.934,11.95,1.934v4.377Z" transform="translate(-47.467 -249.657)" fill="#dfe9fb"/>
            <path id="Path_1051855" data-name="Path 1051855" d="M277.814,302.488a35.3,35.3,0,0,0-10.365-1.345c-8.043,0-11.95,1.934-11.95,1.934V305.2s3.907-1.934,11.95-1.934a35.3,35.3,0,0,1,10.365,1.345,1.223,1.223,0,0,0,1.585-1.169V301.32A1.223,1.223,0,0,1,277.814,302.488Z" transform="translate(-226.258 -266.519)" fill="#9ec8fc"/>
            <path id="Path_1051856" data-name="Path 1051856" d="M54.4,302.488a1.223,1.223,0,0,1-1.585-1.169v2.122a1.223,1.223,0,0,0,1.585,1.169,35.3,35.3,0,0,1,10.365-1.345c8.043,0,11.95,1.934,11.95,1.934v-2.122s-3.907-1.934-11.95-1.934A35.307,35.307,0,0,0,54.4,302.488Z" transform="translate(-47.467 -266.519)" fill="#9ec8fc"/>
          </g>
          <path id="Path_1051857" data-name="Path 1051857" d="M144.713,202.619c.428-5.318-3.448-9.548-3.448-9.548s1.415-5.935,2.076-9.436a3.707,3.707,0,0,0-.727-3.251,1.523,1.523,0,0,0-2.509.28L134.41,191.5a6.737,6.737,0,0,0-.676,4.27l.484,2.831a16.756,16.756,0,0,1-.5,8.2l-5.271,11.211h19.6l3.662-8.976a10.041,10.041,0,0,0,5.893-6.416Z" transform="translate(-114.188 -159.526)" fill="#ffdcd0"/>
          <g id="Group_1207984" data-name="Group 1207984" transform="translate(14.262 56.362)">
            <path id="Path_1051858" data-name="Path 1051858" d="M129.448,485.5l-1,2.122h19.6l.866-2.122Z" transform="translate(-128.45 -485.5)" fill="#ffc7b6"/>
          </g>
          <g id="Group_1207985" data-name="Group 1207985" transform="translate(29.853 43.092)">
            <path id="Path_1051859" data-name="Path 1051859" d="M260.681,375.083h12.7a8.725,8.725,0,0,0,.87-2.122H261.352A8.436,8.436,0,0,1,260.681,375.083Z" transform="translate(-260.681 -372.96)" fill="#ffc7b6"/>
          </g>
        </g>
        <g id="Group_1207989" data-name="Group 1207989" transform="translate(7.5 7.5)">
          <path id="Path_1051860" data-name="Path 1051860" d="M143.088,207.39c4.6-7.313-1.823-14.32-1.823-14.32s1.415-5.935,2.076-9.436a3.707,3.707,0,0,0-.727-3.251,1.523,1.523,0,0,0-2.509.28L134.41,191.5a6.737,6.737,0,0,0-.676,4.27l.484,2.831a16.756,16.756,0,0,1-.5,8.2l-5.271,11.211h19.6l3.662-8.976a10.041,10.041,0,0,0,5.893-6.416" transform="translate(-114.188 -159.526)" fill="none" stroke="#000" stroke-linecap="round" stroke-linejoin="round" stroke-miterlimit="10" stroke-width="1"/>
          <g id="Group_1207988" data-name="Group 1207988" transform="translate(0 0)">
            <path id="Path_1051861" data-name="Path 1051861" d="M270.988,40c5.653.436,8.412,1.8,8.412,1.8V10.692a1.836,1.836,0,0,0-1.262-1.744A34.512,34.512,0,0,0,267.45,7.5c-8.043,0-11.95,1.934-11.95,1.934V41.8s3.907-1.934,11.95-1.934" transform="translate(-226.258 -7.5)" fill="none" stroke="#000" stroke-linecap="round" stroke-linejoin="round" stroke-miterlimit="10" stroke-width="1"/>
            <path id="Path_1051862" data-name="Path 1051862" d="M300.874,130.179a44.66,44.66,0,0,1,13.2,0" transform="translate(-266.281 -115.28)" fill="none" stroke="#000" stroke-linecap="round" stroke-linejoin="round" stroke-miterlimit="10" stroke-width="1"/>
            <path id="Path_1051863" data-name="Path 1051863" d="M300.874,167.3a44.659,44.659,0,0,1,13.2,0" transform="translate(-266.281 -148.022)" fill="none" stroke="#000" stroke-linecap="round" stroke-linejoin="round" stroke-miterlimit="10" stroke-width="1"/>
            <path id="Path_1051864" data-name="Path 1051864" d="M300.874,204.415a44.658,44.658,0,0,1,13.2,0" transform="translate(-266.281 -180.763)" fill="none" stroke="#000" stroke-linecap="round" stroke-linejoin="round" stroke-miterlimit="10" stroke-width="1"/>
            <path id="Path_1051865" data-name="Path 1051865" d="M300.874,241.532a41.869,41.869,0,0,1,6.6-.491" transform="translate(-266.281 -213.504)" fill="none" stroke="#000" stroke-linecap="round" stroke-linejoin="round" stroke-miterlimit="10" stroke-width="1"/>
            <path id="Path_1051866" data-name="Path 1051866" d="M111.383,204.415a44.659,44.659,0,0,0-13.2,0" transform="translate(-87.49 -180.763)" fill="none" stroke="#000" stroke-linecap="round" stroke-linejoin="round" stroke-miterlimit="10" stroke-width="1"/>
            <path id="Path_1051867" data-name="Path 1051867" d="M300.874,92.525a44.66,44.66,0,0,1,13.2,0" transform="translate(-266.281 -82.066)" fill="none" stroke="#000" stroke-linecap="round" stroke-linejoin="round" stroke-miterlimit="10" stroke-width="1"/>
            <path id="Path_1051868" data-name="Path 1051868" d="M300.874,54.87a44.66,44.66,0,0,1,13.2,0" transform="translate(-266.281 -48.851)" fill="none" stroke="#000" stroke-linecap="round" stroke-linejoin="round" stroke-miterlimit="10" stroke-width="1"/>
            <path id="Path_1051869" data-name="Path 1051869" d="M111.383,130.179a44.661,44.661,0,0,0-13.2,0" transform="translate(-87.49 -115.28)" fill="none" stroke="#000" stroke-linecap="round" stroke-linejoin="round" stroke-miterlimit="10" stroke-width="1"/>
            <path id="Path_1051870" data-name="Path 1051870" d="M111.383,167.3a44.659,44.659,0,0,0-13.2,0" transform="translate(-87.49 -148.022)" fill="none" stroke="#000" stroke-linecap="round" stroke-linejoin="round" stroke-miterlimit="10" stroke-width="1"/>
            <path id="Path_1051871" data-name="Path 1051871" d="M111.383,92.525a44.66,44.66,0,0,0-13.2,0" transform="translate(-87.49 -82.066)" fill="none" stroke="#000" stroke-linecap="round" stroke-linejoin="round" stroke-miterlimit="10" stroke-width="1"/>
            <path id="Path_1051872" data-name="Path 1051872" d="M111.383,54.87a44.66,44.66,0,0,0-13.2,0" transform="translate(-87.49 -48.851)" fill="none" stroke="#000" stroke-linecap="round" stroke-linejoin="round" stroke-miterlimit="10" stroke-width="1"/>
            <path id="Path_1051873" data-name="Path 1051873" d="M109.459,241.279a44.41,44.41,0,0,0-4.676-.237,41.9,41.9,0,0,0-6.6.49" transform="translate(-87.49 -213.504)" fill="none" stroke="#000" stroke-linecap="round" stroke-linejoin="round" stroke-miterlimit="10" stroke-width="1"/>
            <path id="Path_1051874" data-name="Path 1051874" d="M266.362,95.665h26.126a1.835,1.835,0,0,0,1.835-1.835v-33.4a1.835,1.835,0,0,0-1.835-1.835h-3.507" transform="translate(-235.839 -52.572)" fill="none" stroke="#000" stroke-linecap="round" stroke-linejoin="round" stroke-miterlimit="10" stroke-width="1"/>
            <line id="Line_818" data-name="Line 818" x2="9.995" transform="translate(10.3 43.093)" fill="none" stroke="#000" stroke-linecap="round" stroke-linejoin="round" stroke-miterlimit="10" stroke-width="1"/>
            <path id="Path_1051875" data-name="Path 1051875" d="M12.843,58.6H9.335A1.835,1.835,0,0,0,7.5,60.431v33.4a1.835,1.835,0,0,0,1.835,1.835h4.928" transform="translate(-7.5 -52.571)" fill="none" stroke="#000" stroke-linecap="round" stroke-linejoin="round" stroke-miterlimit="10" stroke-width="1"/>
            <g id="Group_1207987" data-name="Group 1207987" transform="translate(5.343 32.37)">
              <path id="Path_1051876" data-name="Path 1051876" d="M239.3,295.326v-2.578a13.8,13.8,0,0,0-2.166-.759A15.091,15.091,0,0,1,239.3,295.326Z" transform="translate(-215.398 -290.814)" fill="none" stroke="#000" stroke-linecap="round" stroke-linejoin="round" stroke-miterlimit="10" stroke-width="1"/>
              <path id="Path_1051877" data-name="Path 1051877" d="M67.109,286.462l-.1-.559a6.737,6.737,0,0,1,.453-3.8c-.844-.049-1.744-.077-2.706-.077-8.043,0-11.95,1.934-11.95,1.934v2.619a1.223,1.223,0,0,0,1.585,1.169A35.3,35.3,0,0,1,64.76,286.4C65.587,286.4,66.369,286.425,67.109,286.462Z" transform="translate(-52.81 -282.027)" fill="none" stroke="#000" stroke-linecap="round" stroke-linejoin="round" stroke-miterlimit="10" stroke-width="1"/>
            </g>
            <path id="Path_1051878" data-name="Path 1051878" d="M61.224,7.632a30.533,30.533,0,0,0-7.152,1.316,1.836,1.836,0,0,0-1.262,1.744V41.8s3.907-1.934,11.95-1.934c.961,0,1.862.028,2.706.077q.1-.239.224-.471l5.694-10.838a1.523,1.523,0,0,1,2.509-.28,3.707,3.707,0,0,1,.727,3.251c-.661,3.5-2.076,9.436-2.076,9.436h0a13.8,13.8,0,0,1,2.166.759V9.434S72.8,7.5,64.76,7.5" transform="translate(-47.467 -7.5)" fill="none" stroke="#000" stroke-linecap="round" stroke-linejoin="round" stroke-miterlimit="10" stroke-width="1"/>
            <path id="Path_1051879" data-name="Path 1051879" d="M260.887,302.541a32.665,32.665,0,0,1,11.315-1.67,35.3,35.3,0,0,1,10.365,1.345,1.223,1.223,0,0,0,1.585-1.169v-2.619" transform="translate(-231.009 -264.125)" fill="none" stroke="#000" stroke-linecap="round" stroke-linejoin="round" stroke-miterlimit="10" stroke-width="1"/>
          </g>
        </g>
      </g>
    </g>
  </g>
</svg>
