<svg xmlns="http://www.w3.org/2000/svg" xmlns:xlink="http://www.w3.org/1999/xlink" width="98" height="98" viewBox="0 0 98 98">
  <defs>
    <filter id="Path_982547" x="0" y="0" width="98" height="98" filterUnits="userSpaceOnUse">
      <feOffset dy="3" input="SourceAlpha"/>
      <feGaussianBlur stdDeviation="3" result="blur"/>
      <feFlood flood-opacity="0.161"/>
      <feComposite operator="in" in2="blur"/>
      <feComposite in="SourceGraphic"/>
    </filter>
    <clipPath id="clip-path">
      <path id="path8121" d="M0-682.665H48.414v48.414H0Z" transform="translate(0 682.665)"/>
    </clipPath>
  </defs>
  <g id="Group_1208226" data-name="Group 1208226" transform="translate(-610.151 -4669)">
    <g id="Group_1208095" data-name="Group 1208095">
      <g id="Group_1207905" data-name="Group 1207905" transform="translate(419.15 2583.448)">
        <g id="Group_1207712" data-name="Group 1207712">
          <g id="Group_1207285" data-name="Group 1207285" transform="translate(0 344.552)">
            <g id="Group_1206883" data-name="Group 1206883" transform="translate(0 -209)">
              <g id="Group_1204569" data-name="Group 1204569" transform="translate(-81 -1890.336)">
                <g id="Group_1203962" data-name="Group 1203962" transform="translate(281 3846.336)">
                  <g id="Group_1203498" data-name="Group 1203498" transform="translate(0)">
                    <g id="Group_1202589" data-name="Group 1202589">
                      <g id="Group_1172010" data-name="Group 1172010">
                        <g id="Group_1171046" data-name="Group 1171046">
                          <g id="Group_1148525" data-name="Group 1148525">
                            <g transform="matrix(1, 0, 0, 1, -9, -6)" filter="url(#Path_982547)">
                              <g id="Path_982547-2" data-name="Path 982547" transform="translate(9 6)" fill="#fdfbec">
                                <path d="M 39.99999237060547 78.49998474121094 C 34.8018684387207 78.49998474121094 29.76002502441406 77.48226165771484 25.0145263671875 75.47508239746094 C 20.43014717102051 73.53604888916016 16.31264877319336 70.75984954833984 12.77639198303223 67.22359466552734 C 9.240137100219727 63.68733596801758 6.463936805725098 59.5698356628418 4.524903297424316 54.98546981811523 C 2.517725706100464 50.23995971679688 1.500003457069397 45.19811630249023 1.500003457069397 39.99999237060547 C 1.500003457069397 34.8018684387207 2.517725706100464 29.76002502441406 4.524903297424316 25.0145263671875 C 6.463936805725098 20.43014717102051 9.240137100219727 16.31264877319336 12.77639198303223 12.77639198303223 C 16.31264877319336 9.240137100219727 20.43014717102051 6.463936805725098 25.0145263671875 4.524903297424316 C 29.76002502441406 2.517725706100464 34.8018684387207 1.500003457069397 39.99999237060547 1.500003457069397 C 45.19811630249023 1.500003457069397 50.23995971679688 2.517725706100464 54.98546981811523 4.524903297424316 C 59.5698356628418 6.463936805725098 63.68733596801758 9.240137100219727 67.22359466552734 12.77639198303223 C 70.75984954833984 16.31264877319336 73.53604888916016 20.43014717102051 75.47508239746094 25.0145263671875 C 77.48226165771484 29.76002502441406 78.49998474121094 34.8018684387207 78.49998474121094 39.99999237060547 C 78.49998474121094 45.19812393188477 77.48226165771484 50.23995971679688 75.47508239746094 54.98546981811523 C 73.53604888916016 59.5698356628418 70.75984954833984 63.68733596801758 67.22359466552734 67.22359466552734 C 63.68733596801758 70.75984954833984 59.5698356628418 73.53604888916016 54.98546981811523 75.47508239746094 C 50.23995971679688 77.48226165771484 45.19812393188477 78.49998474121094 39.99999237060547 78.49998474121094 Z" stroke="none"/>
                                <path d="M 39.99999237060547 2.999992370605469 C 35.00370025634766 2.999992370605469 30.1584587097168 3.97784423828125 25.59884643554688 5.906402587890625 C 21.19327163696289 7.769805908203125 17.23603057861328 10.43805694580078 13.83704376220703 13.83704376220703 C 10.43805694580078 17.23603057861328 7.769805908203125 21.19327163696289 5.906402587890625 25.59884643554688 C 3.97784423828125 30.1584587097168 2.999992370605469 35.00370025634766 2.999992370605469 39.99999237060547 C 2.999992370605469 44.99628448486328 3.97784423828125 49.84152603149414 5.906402587890625 54.40113830566406 C 7.769805908203125 58.80671310424805 10.43805694580078 62.76395416259766 13.83704376220703 66.16294097900391 C 17.23603057861328 69.56191253662109 21.19327163696289 72.23016357421875 25.59884643554688 74.09356689453125 C 30.1584587097168 76.02212524414062 35.00370025634766 76.99997711181641 39.99999237060547 76.99997711181641 C 44.99628448486328 76.99997711181641 49.84152603149414 76.02212524414062 54.40113830566406 74.09356689453125 C 58.80671310424805 72.23016357421875 62.76395416259766 69.56191253662109 66.16294097900391 66.16294097900391 C 69.56191253662109 62.76395416259766 72.23016357421875 58.80671310424805 74.09356689453125 54.40113830566406 C 76.02212524414062 49.84152603149414 76.99997711181641 44.99628448486328 76.99997711181641 39.99999237060547 C 76.99997711181641 35.00370025634766 76.02212524414062 30.1584587097168 74.09356689453125 25.59884643554688 C 72.23016357421875 21.19327163696289 69.56191253662109 17.23603057861328 66.16294097900391 13.83704376220703 C 62.76395416259766 10.43805694580078 58.80671310424805 7.769805908203125 54.40113830566406 5.906402587890625 C 49.84152603149414 3.97784423828125 44.99628448486328 2.999992370605469 39.99999237060547 2.999992370605469 M 39.99999237060547 -7.62939453125e-06 C 62.09137725830078 -7.62939453125e-06 79.99997711181641 17.90860748291016 79.99997711181641 39.99999237060547 C 79.99997711181641 62.09137725830078 62.09137725830078 79.99997711181641 39.99999237060547 79.99997711181641 C 17.90860748291016 79.99997711181641 -7.62939453125e-06 62.09137725830078 -7.62939453125e-06 39.99999237060547 C -7.62939453125e-06 17.90860748291016 17.90860748291016 -7.62939453125e-06 39.99999237060547 -7.62939453125e-06 Z" stroke="none" fill="#83793c"/>
                              </g>
                            </g>
                          </g>
                        </g>
                      </g>
                    </g>
                  </g>
                </g>
              </g>
            </g>
          </g>
          <g id="g8115" transform="translate(215.793 2790.01)">
            <g id="g8117" transform="translate(0 -682.665)">
              <g id="g8119" clip-path="url(#clip-path)">
                <g id="g8125" transform="translate(-33.259 0.709)">
                  <path id="path8127" d="M-338.457-377.826h-25.835v-25.108c5.31-7.679,37.755-5.416,25.835,25.108" transform="translate(364.292 406.667)" fill="#fbdf63"/>
                </g>
                <g id="g8129" transform="translate(-33.259 0.709)">
                  <path id="path8131" d="M-338.457-377.826h-.619c6.164-24.728-15.887-30.6-25.216-24.374v-.734c5.31-7.679,37.755-5.416,25.835,25.108" transform="translate(364.292 406.667)" fill="#f9d11f"/>
                </g>
              </g>
            </g>
            <g id="g8265" transform="translate(0 -682.665)">
              <g id="g8267" clip-path="url(#clip-path)">
                <g id="g8273" transform="translate(-33.259 51.036)">
                  <path id="path8275" d="M-338.457-377.654h-25.835v-25.1c5.31-7.676,37.755-5.413,25.835,25.1" transform="translate(364.292 406.481)" fill="#003343"/>
                </g>
                <g id="g8277" transform="translate(-33.259 51.036)">
                  <path id="path8279" d="M-338.457-377.654h-.619c6.164-24.717-15.887-30.585-25.216-24.362v-.734c5.31-7.676,37.755-5.413,25.835,25.1" transform="translate(364.292 406.481)" fill="#002439"/>
                </g>
              </g>
            </g>
            <g id="g8281" transform="translate(0 -682.665)">
              <g id="g8283" clip-path="url(#clip-path)">
                <g id="g8289" transform="translate(17.066 51.014)">
                  <path id="path8291" d="M-338.457-377.826h-25.835v-25.108c5.31-7.679,37.755-5.416,25.835,25.108" transform="translate(364.292 406.667)" fill="#ff7e50"/>
                </g>
                <g id="g8293" transform="translate(17.066 51.014)">
                  <path id="path8295" d="M-338.457-377.826h-.619c6.164-24.728-15.887-30.6-25.216-24.374v-.734c5.31-7.679,37.755-5.416,25.835,25.108" transform="translate(364.292 406.667)" fill="#ff6247"/>
                </g>
                <g id="g8297" transform="translate(2.941 54.225)">
                  <path id="path8299" d="M-233.028-131.751v15.573h-14.6c-12.2-25.649,14.6-34.273,14.6-15.573" transform="translate(250.816 141.808)" fill="#ffa68a"/>
                </g>
                <g id="g8301" transform="translate(2.941 54.225)">
                  <path id="path8303" d="M-233.028-131.751c-.9-16.1-20.23-9.82-14.176,15.573h-.427c-12.2-25.649,14.6-34.273,14.6-15.573" transform="translate(250.816 141.808)" fill="#ff7e50"/>
                </g>
              </g>
            </g>
          </g>
        </g>
      </g>
      <g id="running-shoes_3860798" transform="translate(627.752 4682.097)">
        <g id="Group_1208093" data-name="Group 1208093" transform="translate(8.803 8.803)">
          <path id="Path_1052203" data-name="Path 1052203" d="M32,52.207,39.23,16h9.64L41.64,52.185Z" transform="translate(-30.393 -16)" fill="#ffdaaa"/>
          <path id="Path_1052204" data-name="Path 1052204" d="M263,27.246,271.134,16H282.38L271.033,33.673Z" transform="translate(-238.198 -16)" fill="#ffdaaa"/>
          <path id="Path_1052205" data-name="Path 1052205" d="M233.64,397.19v3.122H224l0,0,.007-.006a16.837,16.837,0,0,0,2.42-2.421c.656-.848,1.106-1.748.784-2.391l4.774-3.182.007.008A8.017,8.017,0,0,1,233.64,397.19Z" transform="translate(-203.114 -354.523)" fill="#acabb1"/>
          <path id="Path_1052206" data-name="Path 1052206" d="M21.768,347.174A12.868,12.868,0,0,1,16,350.248v-4.428A1.819,1.819,0,0,1,17.82,344a1.8,1.8,0,0,1,.974.288,1.9,1.9,0,0,1,.676.766,4.908,4.908,0,0,0,1.941,1.92C21.527,347.043,21.646,347.111,21.768,347.174Z" transform="translate(-16 -311.064)" fill="#4e901e"/>
          <path id="Path_1052207" data-name="Path 1052207" d="M40.1,354.634c.321.643-.129,1.542-.784,2.391a16.836,16.836,0,0,1-2.42,2.421l-.007.006,0,0H16v-6.605a12.869,12.869,0,0,0,5.768-3.074,6.983,6.983,0,0,0,3.069.842,2.108,2.108,0,0,0,2.29-2.056,2.008,2.008,0,0,1,2.266-1.649l10.754,1.559a8.015,8.015,0,0,1,4.726,2.98Z" transform="translate(-16 -313.665)" fill="#d8d7da"/>
          <path id="Path_1052208" data-name="Path 1052208" d="M16,472H46.526v1.2a1.2,1.2,0,0,1-1.2,1.2H17.2a1.2,1.2,0,0,1-1.2-1.2Z" transform="translate(-16 -426.211)" fill="#787680"/>
          <path id="Path_1052209" data-name="Path 1052209" d="M398.23,276.673l-1.689,2.626-7.721-4.966a18.858,18.858,0,0,0,2.989-.681h0c1.142-.382,2.152-.93,2.234-1.683l5.454.005a.021.021,0,0,0,0,.008A8.022,8.022,0,0,1,398.23,276.673Z" transform="translate(-351.383 -246.267)" fill="#acabb1"/>
          <path id="Path_1052210" data-name="Path 1052210" d="M252.579,84.869a8.492,8.492,0,0,1-6.469-.622l.16-.249,2.186-3.4a1.816,1.816,0,0,1,3.345,1,1.936,1.936,0,0,1-.013.229,5.149,5.149,0,0,0,.746,2.956Z" transform="translate(-223.004 -73.361)" fill="#4e901e"/>
          <path id="Path_1052211" data-name="Path 1052211" d="M238.661,139.232l-5.454-.005c-.082.753-1.093,1.3-2.234,1.683h0a18.867,18.867,0,0,1-2.989.681l-.036-.024L210.03,130.043l3.623-5.633a8.492,8.492,0,0,0,6.469.622,6.974,6.974,0,0,0,2.121,2.36,2.107,2.107,0,0,0,3.038-.49,2.008,2.008,0,0,1,2.8-.161l8.2,7.128A8.018,8.018,0,0,1,238.661,139.232Z" transform="translate(-190.547 -113.524)" fill="#d8d7da"/>
          <path id="Path_1052212" data-name="Path 1052212" d="M0,0H30.526V1.2a1.2,1.2,0,0,1-1.2,1.2H1.2A1.2,1.2,0,0,1,0,1.2Z" transform="matrix(0.841, 0.541, -0.541, 0.841, 19.481, 16.519)" fill="#787680"/>
        </g>
        <g id="Group_1208094" data-name="Group 1208094" transform="translate(8 8)">
          <path id="Path_1052213" data-name="Path 1052213" d="M38.157,45.9a8.869,8.869,0,0,0-5.041-3.079l-.05-.009L22.312,41.255a2.858,2.858,0,0,0-.553-.026L28.068,8.958A.8.8,0,0,0,27.28,8H17.64a.8.8,0,0,0-.788.65L10.543,40.938A2.625,2.625,0,0,0,8,43.559V55.8a2.01,2.01,0,0,0,2.008,2.008H38.124A2.01,2.01,0,0,0,40.133,55.8V51.47A8.859,8.859,0,0,0,38.157,45.9ZM18.3,9.607h8L20.065,41.521a.81.81,0,0,0,.016.375,2.815,2.815,0,0,0-.943,1.667c-.179,1.039-.557,1.39-1.5,1.39-1.583,0-3.956-1.1-4.645-2.511a2.709,2.709,0,0,0-.9-1.05ZM9.607,43.559a1.017,1.017,0,0,1,1.016-1.016,1.039,1.039,0,0,1,.928.6,5.277,5.277,0,0,0,1.734,1.914,4.836,4.836,0,0,1-3.678,1.592Zm0,4.7H9.74a6.447,6.447,0,0,0,4.981-2.387,7.488,7.488,0,0,0,2.919.69,2.886,2.886,0,0,0,3.082-2.723,1.2,1.2,0,0,1,1.361-.99l1.879.272-1.266,1.266a.8.8,0,1,0,1.137,1.137l2.115-2.115,2.926.424-1.358,1.358a.8.8,0,0,0,1.137,1.137l2.206-2.206,1.953.283c.084.018.168.038.251.059l-1.53,1.53a.8.8,0,0,0,1.137,1.137L34.7,45.1a7.267,7.267,0,0,1,1.768,1.336L32.457,49.1a.805.805,0,0,0-.273,1.028c.089.177-.042.843-1.172,2.1A17.615,17.615,0,0,1,29.4,53.789H9.607ZM38.526,55.8a.4.4,0,0,1-.4.4H10.008a.4.4,0,0,1-.4-.4v-.4H38.526Zm0-2.008h-6.77c.146-.149.293-.305.439-.467,1.135-1.261,1.67-2.314,1.618-3.191L37.456,47.7a7.187,7.187,0,0,1,1.07,3.768Z" transform="translate(-8 -8)"/>
          <path id="Path_1052214" data-name="Path 1052214" d="M224.668,33.894a8.856,8.856,0,0,0-2.575-5.317c-.012-.012-.024-.024-.037-.035l-8.2-7.128a2.928,2.928,0,0,0-.57-.387l7.373-11.8A.8.8,0,0,0,219.978,8H208.731a.8.8,0,0,0-.643.321l-4.63,6.172a2.629,2.629,0,0,0-2.887,1.114l-5.969,9.28-.652,1.014a2.009,2.009,0,0,0,.6,2.775L218.2,43.886a2.011,2.011,0,0,0,2.775-.6l.652-1.013s0,0,0,0l1.688-2.625a8.869,8.869,0,0,0,1.351-5.751ZM209.133,9.607h9.4L211.56,20.756a2.815,2.815,0,0,0-1.623.882c-.713.776-1.221.867-2.012.357a5.845,5.845,0,0,1-2.549-4.624,2.654,2.654,0,0,0-.567-2Zm-7.21,6.87a1.018,1.018,0,0,1,1.4-.305,1.036,1.036,0,0,1,.454,1.009,5.277,5.277,0,0,0,.425,2.548,4.834,4.834,0,0,1-3.955-.651Zm-2.54,3.95a6.282,6.282,0,0,0,3.525,1.074,7.2,7.2,0,0,0,2.066-.316,7.493,7.493,0,0,0,2.084,2.161,2.885,2.885,0,0,0,4.065-.624,1.2,1.2,0,0,1,1.68-.1l1.434,1.245-1.75.381a.8.8,0,0,0,.17,1.589.767.767,0,0,0,.171-.019l2.923-.635,2.231,1.94-1.876.408a.8.8,0,0,0,.17,1.589.829.829,0,0,0,.171-.018l3.05-.663,1.489,1.3c.061.06.12.124.18.186l-2.116.46a.8.8,0,0,0,.17,1.589.769.769,0,0,0,.172-.019l2.807-.61a7.263,7.263,0,0,1,.816,2.364l-4.554,0h0a.8.8,0,0,0-.8.717c-.018.158-.46.681-2.278,1.185a19.111,19.111,0,0,1-1.97.424l-17.02-10.947Zm20.243,21.987a.4.4,0,0,1-.555.12L195.423,27.326a.4.4,0,0,1-.12-.555l.217-.337,24.323,15.644Zm2.341-3.639-1.254,1.95-5.359-3.446.44-.12c1.708-.472,2.772-1.08,3.223-1.849l4.077,0a7.18,7.18,0,0,1-1.127,3.461Z" transform="translate(-174.992 -8)"/>
        </g>
      </g>
    </g>
  </g>
</svg>
