<svg xmlns="http://www.w3.org/2000/svg" xmlns:xlink="http://www.w3.org/1999/xlink" width="98" height="98" viewBox="0 0 98 98">
  <defs>
    <filter id="Path_982547" x="0" y="0" width="98" height="98" filterUnits="userSpaceOnUse">
      <feOffset dy="3" input="SourceAlpha"/>
      <feGaussianBlur stdDeviation="3" result="blur"/>
      <feFlood flood-opacity="0.161"/>
      <feComposite operator="in" in2="blur"/>
      <feComposite in="SourceGraphic"/>
    </filter>
    <clipPath id="clip-path">
      <path id="path8121" d="M0-682.665H48.414v48.414H0Z" transform="translate(0 682.665)"/>
    </clipPath>
  </defs>
  <g id="Group_1208227" data-name="Group 1208227" transform="translate(-1031 -4669)">
    <g id="Group_1208096" data-name="Group 1208096">
      <g id="Group_1207906" data-name="Group 1207906" transform="translate(840 2583.448)">
        <g id="Group_1207712" data-name="Group 1207712">
          <g id="Group_1207285" data-name="Group 1207285" transform="translate(0 344.552)">
            <g id="Group_1206883" data-name="Group 1206883" transform="translate(0 -209)">
              <g id="Group_1204569" data-name="Group 1204569" transform="translate(-81 -1890.336)">
                <g id="Group_1203962" data-name="Group 1203962" transform="translate(281 3846.336)">
                  <g id="Group_1203498" data-name="Group 1203498" transform="translate(0)">
                    <g id="Group_1202589" data-name="Group 1202589">
                      <g id="Group_1172010" data-name="Group 1172010">
                        <g id="Group_1171046" data-name="Group 1171046">
                          <g id="Group_1148525" data-name="Group 1148525">
                            <g transform="matrix(1, 0, 0, 1, -9, -6)" filter="url(#Path_982547)">
                              <g id="Path_982547-2" data-name="Path 982547" transform="translate(9 6)" fill="#fdfbec">
                                <path d="M 39.99999237060547 78.49998474121094 C 34.8018684387207 78.49998474121094 29.76002502441406 77.48226165771484 25.0145263671875 75.47508239746094 C 20.43014717102051 73.53604888916016 16.31264877319336 70.75984954833984 12.77639198303223 67.22359466552734 C 9.240137100219727 63.68733596801758 6.463936805725098 59.5698356628418 4.524903297424316 54.98546981811523 C 2.517725706100464 50.23995971679688 1.500003457069397 45.19811630249023 1.500003457069397 39.99999237060547 C 1.500003457069397 34.8018684387207 2.517725706100464 29.76002502441406 4.524903297424316 25.0145263671875 C 6.463936805725098 20.43014717102051 9.240137100219727 16.31264877319336 12.77639198303223 12.77639198303223 C 16.31264877319336 9.240137100219727 20.43014717102051 6.463936805725098 25.0145263671875 4.524903297424316 C 29.76002502441406 2.517725706100464 34.8018684387207 1.500003457069397 39.99999237060547 1.500003457069397 C 45.19811630249023 1.500003457069397 50.23995971679688 2.517725706100464 54.98546981811523 4.524903297424316 C 59.5698356628418 6.463936805725098 63.68733596801758 9.240137100219727 67.22359466552734 12.77639198303223 C 70.75984954833984 16.31264877319336 73.53604888916016 20.43014717102051 75.47508239746094 25.0145263671875 C 77.48226165771484 29.76002502441406 78.49998474121094 34.8018684387207 78.49998474121094 39.99999237060547 C 78.49998474121094 45.19812393188477 77.48226165771484 50.23995971679688 75.47508239746094 54.98546981811523 C 73.53604888916016 59.5698356628418 70.75984954833984 63.68733596801758 67.22359466552734 67.22359466552734 C 63.68733596801758 70.75984954833984 59.5698356628418 73.53604888916016 54.98546981811523 75.47508239746094 C 50.23995971679688 77.48226165771484 45.19812393188477 78.49998474121094 39.99999237060547 78.49998474121094 Z" stroke="none"/>
                                <path d="M 39.99999237060547 2.999992370605469 C 35.00370025634766 2.999992370605469 30.1584587097168 3.97784423828125 25.59884643554688 5.906402587890625 C 21.19327163696289 7.769805908203125 17.23603057861328 10.43805694580078 13.83704376220703 13.83704376220703 C 10.43805694580078 17.23603057861328 7.769805908203125 21.19327163696289 5.906402587890625 25.59884643554688 C 3.97784423828125 30.1584587097168 2.999992370605469 35.00370025634766 2.999992370605469 39.99999237060547 C 2.999992370605469 44.99628448486328 3.97784423828125 49.84152603149414 5.906402587890625 54.40113830566406 C 7.769805908203125 58.80671310424805 10.43805694580078 62.76395416259766 13.83704376220703 66.16294097900391 C 17.23603057861328 69.56191253662109 21.19327163696289 72.23016357421875 25.59884643554688 74.09356689453125 C 30.1584587097168 76.02212524414062 35.00370025634766 76.99997711181641 39.99999237060547 76.99997711181641 C 44.99628448486328 76.99997711181641 49.84152603149414 76.02212524414062 54.40113830566406 74.09356689453125 C 58.80671310424805 72.23016357421875 62.76395416259766 69.56191253662109 66.16294097900391 66.16294097900391 C 69.56191253662109 62.76395416259766 72.23016357421875 58.80671310424805 74.09356689453125 54.40113830566406 C 76.02212524414062 49.84152603149414 76.99997711181641 44.99628448486328 76.99997711181641 39.99999237060547 C 76.99997711181641 35.00370025634766 76.02212524414062 30.1584587097168 74.09356689453125 25.59884643554688 C 72.23016357421875 21.19327163696289 69.56191253662109 17.23603057861328 66.16294097900391 13.83704376220703 C 62.76395416259766 10.43805694580078 58.80671310424805 7.769805908203125 54.40113830566406 5.906402587890625 C 49.84152603149414 3.97784423828125 44.99628448486328 2.999992370605469 39.99999237060547 2.999992370605469 M 39.99999237060547 -7.62939453125e-06 C 62.09137725830078 -7.62939453125e-06 79.99997711181641 17.90860748291016 79.99997711181641 39.99999237060547 C 79.99997711181641 62.09137725830078 62.09137725830078 79.99997711181641 39.99999237060547 79.99997711181641 C 17.90860748291016 79.99997711181641 -7.62939453125e-06 62.09137725830078 -7.62939453125e-06 39.99999237060547 C -7.62939453125e-06 17.90860748291016 17.90860748291016 -7.62939453125e-06 39.99999237060547 -7.62939453125e-06 Z" stroke="none" fill="#83793c"/>
                              </g>
                            </g>
                          </g>
                        </g>
                      </g>
                    </g>
                  </g>
                </g>
              </g>
            </g>
          </g>
          <g id="g8115" transform="translate(215.793 2790.01)">
            <g id="g8117" transform="translate(0 -682.665)">
              <g id="g8119" clip-path="url(#clip-path)">
                <g id="g8125" transform="translate(-33.259 0.709)">
                  <path id="path8127" d="M-338.457-377.826h-25.835v-25.108c5.31-7.679,37.755-5.416,25.835,25.108" transform="translate(364.292 406.667)" fill="#fbdf63"/>
                </g>
                <g id="g8129" transform="translate(-33.259 0.709)">
                  <path id="path8131" d="M-338.457-377.826h-.619c6.164-24.728-15.887-30.6-25.216-24.374v-.734c5.31-7.679,37.755-5.416,25.835,25.108" transform="translate(364.292 406.667)" fill="#f9d11f"/>
                </g>
              </g>
            </g>
            <g id="g8265" transform="translate(0 -682.665)">
              <g id="g8267" clip-path="url(#clip-path)">
                <g id="g8273" transform="translate(-33.259 51.036)">
                  <path id="path8275" d="M-338.457-377.654h-25.835v-25.1c5.31-7.676,37.755-5.413,25.835,25.1" transform="translate(364.292 406.481)" fill="#003343"/>
                </g>
                <g id="g8277" transform="translate(-33.259 51.036)">
                  <path id="path8279" d="M-338.457-377.654h-.619c6.164-24.717-15.887-30.585-25.216-24.362v-.734c5.31-7.676,37.755-5.413,25.835,25.1" transform="translate(364.292 406.481)" fill="#002439"/>
                </g>
              </g>
            </g>
            <g id="g8281" transform="translate(0 -682.665)">
              <g id="g8283" clip-path="url(#clip-path)">
                <g id="g8289" transform="translate(17.066 51.014)">
                  <path id="path8291" d="M-338.457-377.826h-25.835v-25.108c5.31-7.679,37.755-5.416,25.835,25.108" transform="translate(364.292 406.667)" fill="#ff7e50"/>
                </g>
                <g id="g8293" transform="translate(17.066 51.014)">
                  <path id="path8295" d="M-338.457-377.826h-.619c6.164-24.728-15.887-30.6-25.216-24.374v-.734c5.31-7.679,37.755-5.416,25.835,25.108" transform="translate(364.292 406.667)" fill="#ff6247"/>
                </g>
                <g id="g8297" transform="translate(2.941 54.225)">
                  <path id="path8299" d="M-233.028-131.751v15.573h-14.6c-12.2-25.649,14.6-34.273,14.6-15.573" transform="translate(250.816 141.808)" fill="#ffa68a"/>
                </g>
                <g id="g8301" transform="translate(2.941 54.225)">
                  <path id="path8303" d="M-233.028-131.751c-.9-16.1-20.23-9.82-14.176,15.573h-.427c-12.2-25.649,14.6-34.273,14.6-15.573" transform="translate(250.816 141.808)" fill="#ff7e50"/>
                </g>
              </g>
            </g>
          </g>
        </g>
      </g>
      <g id="hello_5849203" transform="translate(1052.954 4690.308)">
        <path id="Path_1052215" data-name="Path 1052215" d="M43.822,44.3a5.3,5.3,0,0,1-1.907-4.07V39.62H32.481v.608a5.3,5.3,0,0,1-1.907,4.07l3.479,3.481h6.289Z" transform="translate(-6.326 -8.26)" fill="#cf8b76"/>
        <path id="Path_1052216" data-name="Path 1052216" d="M43.657,44.535a5.29,5.29,0,0,1-1.894-3.81c-.1.063-.2.128-.314.187a9.013,9.013,0,0,1-7.675.528.368.368,0,0,0-.494.265l-.009.038a5.247,5.247,0,0,1-2.684,3.3l-.786.417,2.251,3.148,2.068.344s1.576-.531,2.5-.933h3.556Z" transform="translate(-6.16 -8.497)" fill="#f1b79d"/>
        <path id="Path_1052217" data-name="Path 1052217" d="M47.583,10.574v1.851a78.117,78.117,0,0,1-.55,9.276H24.55A78.116,78.116,0,0,1,24,12.425v-.713Z" transform="translate(-4.919 -2.048)" fill="#4c4c4c"/>
        <path id="Path_1052218" data-name="Path 1052218" d="M26.144,24h0A3.144,3.144,0,0,0,23,27.144h0a3.144,3.144,0,0,0,3.144,3.144h.289" transform="translate(-4.706 -4.919)" fill="#cf8b76"/>
        <path id="Path_1052219" data-name="Path 1052219" d="M50.921,24h0a3.144,3.144,0,0,1,3.144,3.144h0a3.144,3.144,0,0,1-3.144,3.144h-.289" transform="translate(-10.616 -4.919)" fill="#cf8b76"/>
        <path id="Path_1052220" data-name="Path 1052220" d="M44.766,15.131l.047.1a9.984,9.984,0,0,1,1.053,4.464h0v6.289a9.748,9.748,0,0,1-5.013,8.52h0a9.1,9.1,0,0,1-4.42,1.149h0A9.1,9.1,0,0,1,32.014,34.5h0A9.748,9.748,0,0,1,27,25.979V19.69h0a9.984,9.984,0,0,1,1.055-4.468l.173-.346" transform="translate(-5.561 -2.968)" fill="#cf8b76"/>
        <path id="Path_1052221" data-name="Path 1052221" d="M34.014,34.507a9.093,9.093,0,0,0,3.633,1.1,9.093,9.093,0,0,0,3.633-1.1,9.748,9.748,0,0,0,5.014-8.521V19.7a9.984,9.984,0,0,0-1.055-4.468l-.045-.091L30.218,14.91l-.161.323A9.984,9.984,0,0,0,29,19.7v6.289a9.748,9.748,0,0,0,5.013,8.52Z" transform="translate(-5.989 -2.975)" fill="#f1b79d"/>
        <path id="Path_1052222" data-name="Path 1052222" d="M37.717,36.717A4.721,4.721,0,0,1,33,32h1.572a3.144,3.144,0,1,0,6.289,0h1.572a4.721,4.721,0,0,1-4.717,4.717Z" transform="translate(-6.844 -6.63)" fill="#cf8b76"/>
        <path id="Path_1052223" data-name="Path 1052223" d="M52.375,59.15V53.267A6.673,6.673,0,0,0,50.42,48.55h0a6.673,6.673,0,0,0-2.8-1.673L41.37,45,41,45.366a9.488,9.488,0,0,1-6.709,2.779h0a9.49,9.49,0,0,1-6.71-2.779L27.219,45,17,47.358v8.647l5.5.786V59.15Z" transform="translate(-3.422 -9.411)" fill="#0056bf"/>
        <path id="Path_1052224" data-name="Path 1052224" d="M49.562,46.875,43.312,45l-.366.366a9.489,9.489,0,0,1-13.42,0L29.162,45l-3.078.708A18.609,18.609,0,0,0,43.092,56.792H54.318V53.267a6.674,6.674,0,0,0-4.755-6.392Z" transform="translate(-5.365 -9.411)" fill="#0068dc"/>
        <rect id="Rectangle_418498" data-name="Rectangle 418498" width="2" height="3" transform="translate(42.046 46.692)" fill="#004a9d"/>
        <path id="Path_1052225" data-name="Path 1052225" d="M8.289,4.358H7.5V2L2,5.931,7.5,9.861V7.5h.31a5.3,5.3,0,0,1,4.407,2.358L14.578,7.5A7.861,7.861,0,0,0,8.289,4.358Z" transform="translate(-0.214 -0.214)" fill="#a5d400"/>
        <path id="Path_1052226" data-name="Path 1052226" d="M8.289,4.358H7.5V2L2,5.931H8.7a5.681,5.681,0,0,1,4.8,2.65L14.578,7.5A7.861,7.861,0,0,0,8.289,4.358Z" transform="translate(-0.214 -0.214)" fill="#8abf00"/>
        <path id="Path_1052227" data-name="Path 1052227" d="M33.23,14.952l-5-.079-.173.347A9.984,9.984,0,0,0,27,19.69v5.568c.2-.329.393-.668.57-1.022L27.685,24l5.176-8.135A2.6,2.6,0,0,0,33.23,14.952Z" transform="translate(-5.561 -2.967)" fill="#a0695e"/>
        <path id="Path_1052228" data-name="Path 1052228" d="M25.034,3.983h0A4.035,4.035,0,0,0,23,7.486h0a4.035,4.035,0,0,0,2.076,3.528h0a22.069,22.069,0,0,0,10.718,2.777h2.362A12.387,12.387,0,0,0,43.7,12.484h0a8.065,8.065,0,0,0,3.31-3.066h0a8.073,8.073,0,0,0,1.149-4.15v-1.7L47.124,4.6a1.846,1.846,0,0,1-1.306.541h0a6.742,6.742,0,0,1-3.02-.714h0A23.038,23.038,0,0,0,32.5,2h0a15.043,15.043,0,0,0-7.466,1.983Z" transform="translate(-4.706 -0.214)" fill="#212121"/>
        <path id="Path_1052229" data-name="Path 1052229" d="M46.246,5.144a6.742,6.742,0,0,1-3.02-.714A23.038,23.038,0,0,0,32.926,2a15.048,15.048,0,0,0-7.415,1.956,4.026,4.026,0,0,0,1.564,5.486,22.069,22.069,0,0,0,10.718,2.777h2.362A12.387,12.387,0,0,0,45.7,10.912a7.989,7.989,0,0,0,1.249-.794,8.18,8.18,0,0,0,.49-.7,8.067,8.067,0,0,0,1.149-4.151v-1.7L47.552,4.6A1.846,1.846,0,0,1,46.246,5.144Z" transform="translate(-5.133 -0.214)" fill="#383838"/>
        <path id="Path_1052230" data-name="Path 1052230" d="M27.156,12.739a1.844,1.844,0,0,1-.3,1.014l-5.2,8.183-.134.267a11.988,11.988,0,0,1-6.941,6.022L9.861,39.231h3.931v7.861l-6.147-.818a6.515,6.515,0,0,1-5.086-9.1L8.289,24.294v-.621A10.593,10.593,0,0,1,13,14.862l3.02-4.222a3.052,3.052,0,0,1,2.484-1.281h1.415l.134-.228a2.784,2.784,0,0,1,2.382-1.344h1.156A1.917,1.917,0,0,1,25.151,7,1.225,1.225,0,0,1,26.37,8.218a1.192,1.192,0,0,1-.189.652l-.967,1.549,1.093.731A1.9,1.9,0,0,1,27.156,12.739Z" transform="translate(-0.214 -1.283)" fill="#cf8b76"/>
        <path id="Path_1052231" data-name="Path 1052231" d="M26.735,11.559a1.869,1.869,0,0,0-.428-.407l-1.093-.731.967-1.549a1.192,1.192,0,0,0,.189-.654A1.225,1.225,0,0,0,25.151,7a1.917,1.917,0,0,0-1.557.786H22.439A2.783,2.783,0,0,0,20.057,9.13l-.134.229H18.508a3.052,3.052,0,0,0-2.484,1.281l-3.019,4.221a10.594,10.594,0,0,0-4.717,8.812v.621L2.558,37.179a6.515,6.515,0,0,0,5.086,9.1l6.147.818V39.231h-5.5l4.717-11.006A11.988,11.988,0,0,0,19.947,22.2Z" transform="translate(-0.214 -1.283)" fill="#f1b79d"/>
        <path id="Path_1052232" data-name="Path 1052232" d="M16.476,25.464l-1.308-.873a7.625,7.625,0,0,1,4.378-3.138l.406,1.519a6.053,6.053,0,0,0-3.475,2.492Z" transform="translate(-3.03 -4.375)" fill="#cf8b76"/>
        <path id="Path_1052233" data-name="Path 1052233" d="M22.781,13.7,24.754,10.4,24.08,10h-.917l-1.731,2.89Z" transform="translate(-4.37 -1.925)" fill="#cf8b76"/>
        <path id="Path_1052234" data-name="Path 1052234" d="M27.152,15.262l1.333.833,2.762-4.421L30.6,11.24l-.671-.42Z" transform="translate(-5.594 -2.1)" fill="#cf8b76"/>
        <path id="Path_1052235" data-name="Path 1052235" d="M25.5,14.671l3.38-6.083a1.193,1.193,0,0,1,.079-.116L28.33,8h-.923l-3.281,5.907Z" transform="translate(-4.946 -1.497)" fill="#cf8b76"/>
        <path id="Path_1052236" data-name="Path 1052236" d="M21.358,24.648H19.786V21.165a1.128,1.128,0,0,0-.117-.5A6.362,6.362,0,0,1,19,17.838a1.835,1.835,0,0,1,3.3-1.1l.629.836A7.917,7.917,0,0,1,24.5,22.29H22.931a6.337,6.337,0,0,0-1.258-3.773l-.629-.837a.273.273,0,0,0-.472.157,4.783,4.783,0,0,0,.5,2.13,2.71,2.71,0,0,1,.283,1.2Z" transform="translate(-3.85 -3.209)" fill="#cf8b76"/>
        <path id="Path_1052237" data-name="Path 1052237" d="M44.423,36.711l-6.25-1.875a.78.78,0,0,0-.667.111,4.493,4.493,0,0,1-1.13-2.974v-.18a10.534,10.534,0,0,0,4.24-5.665,3.9,3.9,0,0,0,2.322-6.8,79.375,79.375,0,0,0,.513-8.952V8.68a8.849,8.849,0,0,0,.786-3.625v-1.7A.786.786,0,0,0,42.894,2.8L41.863,3.834a1.068,1.068,0,0,1-.75.311,6,6,0,0,1-2.667-.629A23.939,23.939,0,0,0,27.793,1a15.847,15.847,0,0,0-7.855,2.086,4.831,4.831,0,0,0-2.43,4.186c0,.035,0,.068.006.1A3.845,3.845,0,0,0,15.168,8.9l-2.934,4.108a11.355,11.355,0,0,0-4.945,9.385v.454L1.629,35.58A7.232,7.232,0,0,0,1,38.541a7.311,7.311,0,0,0,6.327,7.228l5.464.729v.1a.786.786,0,0,0,.675.778l4.828.689v1.677h1.572V47.381a.786.786,0,0,0-.675-.778l-4.828-.689V38.576l9.186-2.123.057.057a10.209,10.209,0,0,0,7.266,3.009h0a10.2,10.2,0,0,0,7.264-3.009l.034-.034,5.8,1.74a5.886,5.886,0,0,1,4.2,5.64v5.882h1.572V43.857a7.411,7.411,0,0,0-2.185-5.275,7.489,7.489,0,0,0-3.132-1.871Zm-4.9-13.7a8.968,8.968,0,0,1-4.609,7.834,8.457,8.457,0,0,1-8.077,0,8.968,8.968,0,0,1-4.609-7.834V20.93l4.433-7.008a22.857,22.857,0,0,0,4.431.443h2.362a13.248,13.248,0,0,0,5.361-1.145,9.252,9.252,0,0,1,.708,3.5ZM20.756,24.47a2.321,2.321,0,0,1-.7-.345c.21-.236.414-.472.608-.722a10.418,10.418,0,0,0,.09,1.067Zm20.233,0a10.45,10.45,0,0,0,.1-1.459v-3a2.343,2.343,0,0,1-.1,4.459Zm.1-6.1V16.722a10.823,10.823,0,0,0-.9-4.254,8.824,8.824,0,0,0,1.671-1.415c-.021,2.477-.165,4.967-.424,7.433A3.166,3.166,0,0,0,41.092,18.373ZM20.718,4.451a14.287,14.287,0,0,1,7.075-1.879,22.354,22.354,0,0,1,9.949,2.349,7.581,7.581,0,0,0,3.371.8,2.655,2.655,0,0,0,1.551-.5,7.282,7.282,0,0,1-4.023,6.355,11.66,11.66,0,0,1-5.19,1.225H31.089a21.354,21.354,0,0,1-3.573-.3,2.673,2.673,0,0,0-.985-3.273l-.46-.307L26.637,8a2.009,2.009,0,0,0-1.7-3.072,2.716,2.716,0,0,0-1.908.786h-.8A3.574,3.574,0,0,0,19.28,7.289h-.2V7.272A3.258,3.258,0,0,1,20.718,4.451ZM7.535,44.21a5.718,5.718,0,0,1-4.47-7.992L8.794,23.326a.786.786,0,0,0,.068-.314v-.62a9.787,9.787,0,0,1,4.367-8.159.786.786,0,0,0,.2-.2l3.016-4.224a2.28,2.28,0,0,1,1.847-.95h.027l-1.258,2.1,1.348.81,2.11-3.516a1.989,1.989,0,0,1,1.494-.938l-2.83,5.092,1.374.764,3.38-6.081a1.145,1.145,0,0,1,.994-.59.436.436,0,0,1,.369.667l-3.745,5.992,1.336.833,2.345-3.753.422.281a1.116,1.116,0,0,1,.322,1.528l-5.209,8.18q-.021.035-.04.071l-.134.27A11.14,11.14,0,0,1,14.116,26.2a.786.786,0,0,0-.472.436L8.927,37.638a.786.786,0,0,0,.72,1.1h3.144v6.177Zm5.952-7.048H10.84l4.111-9.591a12.755,12.755,0,0,0,3.968-2.33,3.889,3.889,0,0,0,2.215.9,10.534,10.534,0,0,0,4.236,5.65v.184a4.492,4.492,0,0,1-1.13,2.976.786.786,0,0,0-.619-.123Zm17.385.786A8.64,8.64,0,0,1,25.4,36.008a6.053,6.053,0,0,0,1.509-3.392,9.712,9.712,0,0,0,7.932,0,6.053,6.053,0,0,0,1.509,3.392,8.632,8.632,0,0,1-5.475,1.939Z" transform="translate(0 0)"/>
        <path id="Path_1052238" data-name="Path 1052238" d="M18.967,22.165v2.483h1.572V21.165a2.71,2.71,0,0,0-.283-1.2,4.783,4.783,0,0,1-.5-2.13.273.273,0,0,1,.472-.157l.629.837a6.337,6.337,0,0,1,1.258,3.775h1.572a7.917,7.917,0,0,0-1.572-4.717l-.629-.837a1.835,1.835,0,0,0-3.3,1.1,6.368,6.368,0,0,0,.612,2.7,7.625,7.625,0,0,0-3.624,2.891l1.308.873a6.053,6.053,0,0,1,2.49-2.134Z" transform="translate(-3.03 -3.209)"/>
        <rect id="Rectangle_418499" data-name="Rectangle 418499" width="2" height="4" transform="translate(42.046 45.692)"/>
        <path id="Path_1052239" data-name="Path 1052239" d="M37.717,35.144A3.144,3.144,0,0,1,34.572,32H33a4.717,4.717,0,0,0,9.433,0H40.861A3.144,3.144,0,0,1,37.717,35.144Z" transform="translate(-6.844 -6.63)"/>
        <path id="Path_1052240" data-name="Path 1052240" d="M1.329,6.357l5.5,3.931a.786.786,0,0,0,1.243-.64V8.1a4.5,4.5,0,0,1,3.277,1.983.786.786,0,0,0,.575.35.653.653,0,0,0,.079,0,.786.786,0,0,0,.556-.23L14.92,7.845a.786.786,0,0,0,.073-1.027A8.69,8.69,0,0,0,8.075,3.358V1.786a.786.786,0,0,0-1.243-.64l-5.5,3.931a.786.786,0,0,0,0,1.28ZM6.5,3.314v.831a.786.786,0,0,0,.786.786h.786A7.116,7.116,0,0,1,13.3,7.239L12.075,8.468A6.066,6.066,0,0,0,7.6,6.5H7.289a.786.786,0,0,0-.786.786V8.12l-3.364-2.4Z" transform="translate(0)"/>
      </g>
    </g>
  </g>
</svg>
