<svg xmlns="http://www.w3.org/2000/svg" xmlns:xlink="http://www.w3.org/1999/xlink" width="113" height="113" viewBox="0 0 113 113">
  <defs>
    <filter id="Path_982547" x="0" y="0" width="113" height="113" filterUnits="userSpaceOnUse">
      <feOffset dy="3" input="SourceAlpha"/>
      <feGaussianBlur stdDeviation="3" result="blur"/>
      <feFlood flood-opacity="0.161"/>
      <feComposite operator="in" in2="blur"/>
      <feComposite in="SourceGraphic"/>
    </filter>
  </defs>
  <g id="Group_1208197" data-name="Group 1208197" transform="translate(-383.51 -5395.425)">
    <g id="Group_1208039" data-name="Group 1208039">
      <g id="Group_1207838" data-name="Group 1207838" transform="translate(-728.49 -1381.226)">
        <g id="Group_1201923" data-name="Group 1201923" transform="translate(-4174.49 4856.378)">
          <g id="Group_1176928" data-name="Group 1176928" transform="translate(5295.49 1926.273)">
            <g id="Group_1172322" data-name="Group 1172322" transform="translate(0 0)">
              <g id="Group_1164700" data-name="Group 1164700">
                <g id="Group_1160931" data-name="Group 1160931">
                  <g id="Group_1160749" data-name="Group 1160749">
                    <g id="Group_1158891" data-name="Group 1158891">
                      <g id="Group_1157406" data-name="Group 1157406">
                        <g id="Group_1155793" data-name="Group 1155793">
                          <g id="Group_1154704" data-name="Group 1154704">
                            <g id="Group_1150790" data-name="Group 1150790">
                              <g id="Group_1154214" data-name="Group 1154214">
                                <g id="Group_1152583" data-name="Group 1152583">
                                  <g id="Group_1146973" data-name="Group 1146973">
                                    <g id="Group_1146954" data-name="Group 1146954">
                                      <g transform="matrix(1, 0, 0, 1, -9, -6)" filter="url(#Path_982547)">
                                        <g id="Path_982547-2" data-name="Path 982547" transform="translate(9 6)" fill="#ebe9f0">
                                          <path d="M 47.5000114440918 93.49987030029297 C 41.28938293457031 93.49987030029297 35.26534652709961 92.28384399414062 29.5951976776123 89.88558959960938 C 24.11773109436035 87.56881713867188 19.19814491271973 84.25183868408203 14.97310447692871 80.02680206298828 C 10.74805164337158 75.80176544189453 7.43107795715332 70.88218688964844 5.114304542541504 65.40472412109375 C 2.716038227081299 59.73458862304688 1.500011444091797 53.71054840087891 1.500011444091797 47.49993515014648 C 1.500011444091797 41.28932189941406 2.716038227081299 35.26528167724609 5.114304542541504 29.59514808654785 C 7.43107795715332 24.1176815032959 10.74805164337158 19.1981086730957 14.97310447692871 14.97306823730469 C 19.19814491271973 10.74802875518799 24.11773109436035 7.431055068969727 29.5951976776123 5.11428165435791 C 35.26534652709961 2.716028451919556 41.28938293457031 1.500001788139343 47.5000114440918 1.500001788139343 C 53.71063995361328 1.500001788139343 59.73467636108398 2.716028451919556 65.40482330322266 5.11428165435791 C 70.88229370117188 7.431055068969727 75.8018798828125 10.74802875518799 80.02691650390625 14.97306823730469 C 84.25196838378906 19.1981086730957 87.56894683837891 24.1176815032959 89.88571929931641 29.59514808654785 C 92.28398132324219 35.26528167724609 93.50001525878906 41.28932189941406 93.50001525878906 47.49993515014648 C 93.50001525878906 53.71054840087891 92.28398132324219 59.73458862304688 89.88571929931641 65.40472412109375 C 87.56894683837891 70.88218688964844 84.25196838378906 75.80176544189453 80.02691650390625 80.02680206298828 C 75.8018798828125 84.25183868408203 70.88229370117188 87.56881713867188 65.40482330322266 89.88558959960938 C 59.73467636108398 92.28384399414062 53.71063995361328 93.49987030029297 47.5000114440918 93.49987030029297 Z" stroke="none"/>
                                          <path d="M 47.5000114440918 3 C 41.49122619628906 3 35.66378021240234 4.1761474609375 30.17951965332031 6.495796203613281 C 24.880859375 8.7369384765625 20.12153625488281 11.94596862792969 16.03376770019531 16.03373718261719 C 11.94598388671875 20.12149047851562 8.736968994140625 24.88081359863281 6.495811462402344 30.17947387695312 C 4.176162719726562 35.66371917724609 3.000007629394531 41.49116516113281 3.000007629394531 47.49993515014648 C 3.000007629394531 53.50870513916016 4.176162719726562 59.33615112304688 6.495811462402344 64.82039642333984 C 8.736968994140625 70.11905670166016 11.94598388671875 74.87837982177734 16.03376770019531 78.96613311767578 C 20.12153625488281 83.05390167236328 24.880859375 86.26293182373047 30.17951965332031 88.50407409667969 C 35.66378021240234 90.82372283935547 41.49122619628906 91.99987030029297 47.5000114440918 91.99987030029297 C 53.50879669189453 91.99987030029297 59.33624267578125 90.82372283935547 64.82050323486328 88.50407409667969 C 70.11916351318359 86.26293182373047 74.87848663330078 83.05390167236328 78.96625518798828 78.96613311767578 C 83.05403900146484 74.87837982177734 86.2630615234375 70.11905670166016 88.50421142578125 64.82039642333984 C 90.82386016845703 59.33615112304688 92.00001525878906 53.50870513916016 92.00001525878906 47.49993515014648 C 92.00001525878906 41.49116516113281 90.82386016845703 35.66371917724609 88.50421142578125 30.17947387695312 C 86.2630615234375 24.88081359863281 83.05403900146484 20.12149047851562 78.96625518798828 16.03373718261719 C 74.87848663330078 11.94596862792969 70.11916351318359 8.7369384765625 64.82050323486328 6.495796203613281 C 59.33624267578125 4.1761474609375 53.50879669189453 3 47.5000114440918 3 M 47.5000114440918 0 C 73.73353576660156 0 95.00001525878906 21.26644134521484 95.00001525878906 47.49993515014648 C 95.00001525878906 73.73342895507812 73.73353576660156 94.99987030029297 47.5000114440918 94.99987030029297 C 21.26648712158203 94.99987030029297 7.62939453125e-06 73.73342895507812 7.62939453125e-06 47.49993515014648 C 7.62939453125e-06 21.26644134521484 21.26648712158203 0 47.5000114440918 0 Z" stroke="none" fill="#453179"/>
                                        </g>
                                      </g>
                                    </g>
                                  </g>
                                </g>
                              </g>
                            </g>
                          </g>
                        </g>
                      </g>
                    </g>
                  </g>
                </g>
              </g>
            </g>
          </g>
        </g>
      </g>
      <g id="use-cap_2124643" transform="translate(404.686 5446.892)">
        <ellipse id="Ellipse_13439" data-name="Ellipse 13439" cx="7.267" cy="7.536" rx="7.267" ry="7.536" transform="translate(0.972 -1.178)" fill="#ffd3bd"/>
        <ellipse id="Ellipse_13440" data-name="Ellipse 13440" cx="7.267" cy="7.536" rx="7.267" ry="7.536" transform="translate(50.076 -1.178)" fill="#ffbe9d"/>
        <path id="Path_1051986" data-name="Path 1051986" d="M158.505,386.351a2.236,2.236,0,0,0,2.214-2.535c-1.139-8.511-7.927-15.051-16.13-15.051s-14.991,6.54-16.13,15.051a2.236,2.236,0,0,0,2.214,2.535Z" transform="translate(-111.798 -349.964)" fill="#ffd3bd"/>
        <path id="Path_1051987" data-name="Path 1051987" d="M156.338,386.351h19.21a36.746,36.746,0,0,1,3.366-10.648,15.594,15.594,0,0,0-25.943,0A36.75,36.75,0,0,1,156.338,386.351Z" transform="translate(-133.152 -349.964)" fill="#8daee1"/>
        <path id="Path_1051988" data-name="Path 1051988" d="M202.492,401.732c-1.8,5.475-5.475,8.5-8.848,8.5s-7.051-3.024-8.848-8.5Z" transform="translate(-160.852 -378.66)" fill="#ffd3bd"/>
        <path id="Path_1051989" data-name="Path 1051989" d="M108.714,124.627c0,12.559-11.3,20.862-25.248,20.862s-25.248-8.3-25.248-20.862,11.3-22.046,25.248-22.046S108.714,112.069,108.714,124.627Z" transform="translate(-50.675 -118.269)" fill="#ffd3bd"/>
        <path id="Path_1051990" data-name="Path 1051990" d="M70.736,125.124c-7.487,3.74-12.516,10.749-12.516,19.125,0,12.559,11.3,20.862,25.248,20.862a33.937,33.937,0,0,0,4.114-.249c-18.949-1.522-23.211-27.057-16.846-39.738Z" transform="translate(-50.677 -137.891)" fill="#ffbe9d"/>
        <path id="Path_1051991" data-name="Path 1051991" d="M60.956,100.235A29.6,29.6,0,0,1,53.2,111.386a1.476,1.476,0,0,1-2.436-.976c-.738-7.847,3.839-23.326,26.15-23.326s26.888,15.479,26.15,23.326a1.476,1.476,0,0,1-2.436.976,29.6,29.6,0,0,1-7.752-11.151H60.956Z" transform="translate(-44.126 -104.78)" fill="#4e5660"/>
        <ellipse id="Ellipse_13441" data-name="Ellipse 13441" cx="4.954" cy="3.945" rx="4.954" ry="3.945" transform="translate(14.41 7.119)" fill="#e7889d"/>
        <ellipse id="Ellipse_13442" data-name="Ellipse 13442" cx="4.954" cy="3.945" rx="4.954" ry="3.945" transform="translate(41.264 7.119)" fill="#e7889d"/>
        <path id="Path_1051992" data-name="Path 1051992" d="M87.255,104.59a86.517,86.517,0,0,0,24.684-3.643c-2.77-6.936-9.759-13.863-24.684-13.863s-21.914,6.927-24.684,13.863a86.518,86.518,0,0,0,24.684,3.643Z" transform="translate(-54.464 -104.78)" fill="#8daee1"/>
        <path id="Path_1051993" data-name="Path 1051993" d="M319.047,125.79a20.316,20.316,0,0,0-8.81-10.165c-5.22,3.2-8.072,10.108-9.73,13.569A83.126,83.126,0,0,0,319.047,125.79Z" transform="translate(-261.571 -129.623)" fill="#f6ee86"/>
        <path id="Path_1051994" data-name="Path 1051994" d="M62.571,125.79a20.316,20.316,0,0,1,8.81-10.165c5.22,3.2,8.072,10.108,9.73,13.569A83.126,83.126,0,0,1,62.571,125.79Z" transform="translate(-54.464 -129.623)" fill="#f6ee86"/>
        <ellipse id="Ellipse_13443" data-name="Ellipse 13443" cx="12.776" cy="12.776" rx="12.776" ry="12.776" transform="translate(34.516 -15.226) rotate(-45)" fill="#98cd64"/>
        <path id="Path_1051995" data-name="Path 1051995" d="M357.159,82.117a.969.969,0,0,1-.687-.285l-4.313-4.313a.972.972,0,1,1,1.374-1.374l3.626,3.626,7.065-7.065A.972.972,0,0,1,365.6,74.08l-7.752,7.752A.968.968,0,0,1,357.159,82.117Z" transform="translate(-306.284 -92.017)" fill="#fff"/>
        <path id="Path_1051996" data-name="Path 1051996" d="M10.344,13.185a.972.972,0,1,0,1.374-1.374L8.926,9.019a.972.972,0,1,0-1.374,1.374Zm11.908-5.4a.972.972,0,0,0,.972-.972V3.526a.972.972,0,1,0-1.943,0V6.816A.972.972,0,0,0,22.252,7.787ZM59.143,27.037Q59,26.527,58.822,26A13.748,13.748,0,0,0,63.643,5.573.972.972,0,0,0,62.081,6.73,11.8,11.8,0,1,1,58.943,3.8a.972.972,0,0,0,1.048-1.637,13.751,13.751,0,0,0-20.825,8.613,42.262,42.262,0,0,0-6.375-.463c-15.306,0-23.69,7.259-26.345,16.724A8.489,8.489,0,0,0,0,35.337a8.372,8.372,0,0,0,8.436,8.5,21.912,21.912,0,0,0,10.582,10.33A19.2,19.2,0,0,0,15.7,62.7a.972.972,0,1,0,1.926.258A17.4,17.4,0,0,1,19.7,56.723a39.592,39.592,0,0,1,2.357,7.671h-1.9a.972.972,0,1,0,0,1.943H46.707A3.209,3.209,0,0,0,49.884,62.7a19.2,19.2,0,0,0-3.32-8.532,21.914,21.914,0,0,0,10.582-10.33,8.372,8.372,0,0,0,8.436-8.5,8.489,8.489,0,0,0-6.44-8.3ZM47.5,26.52c-2.294.39-4.643.7-6.97.915.591-1.258,1.286-2.706,2.127-4.188A13.8,13.8,0,0,0,47.5,26.52ZM32.791,12.255a40.307,40.307,0,0,1,6.09.442,13.687,13.687,0,0,0,2.463,8.951,66.6,66.6,0,0,0-3.042,5.97,77.331,77.331,0,0,1-11.018.006c-2.09-4.446-4.436-9.349-8.51-12.532a31.72,31.72,0,0,1,14.017-2.836ZM16.9,16.126c4.009,2.734,6.561,7.919,8.156,11.317a82.811,82.811,0,0,1-15.631-2.9A19.608,19.608,0,0,1,16.9,16.126ZM1.943,35.337a6.6,6.6,0,0,1,4-6.111,20.56,20.56,0,0,0-.27,5.474A2.436,2.436,0,0,0,6.6,36.4a19.982,19.982,0,0,0,1.043,5.475A6.474,6.474,0,0,1,1.943,35.337Zm5.665-.819A19.923,19.923,0,0,1,8.7,26.354c1.563.482,3.409.959,5.458,1.4a27.541,27.541,0,0,1-5.709,7.1.5.5,0,0,1-.835-.33ZM41.553,64.393H24.03a40.3,40.3,0,0,0-2.944-9.326A29.936,29.936,0,0,0,24.8,56.231c2.063,3.32,5.024,5.29,7.986,5.29s5.924-1.97,7.986-5.29A29.968,29.968,0,0,0,44.5,55.067,40.289,40.289,0,0,0,41.553,64.393ZM27.611,56.784a34.943,34.943,0,0,0,10.361,0,7.1,7.1,0,0,1-5.18,2.793,7.1,7.1,0,0,1-5.181-2.793Zm20.347,6.174a1.263,1.263,0,0,1-1.251,1.435H43.524a39.581,39.581,0,0,1,2.357-7.671,17.4,17.4,0,0,1,2.077,6.236ZM32.791,55.227c-12.362,0-23.313-6.854-24.215-18.355a2.457,2.457,0,0,0,1.135-.55,30.023,30.023,0,0,0,6.443-8.17,87.351,87.351,0,0,0,33.272,0,30.032,30.032,0,0,0,6.445,8.174,2.457,2.457,0,0,0,1.135.55C56.1,48.451,45.072,55.227,32.791,55.227ZM57.138,34.848a27.549,27.549,0,0,1-5.711-7.1c.31-.066,1.128-.252,1.162-.252a13.689,13.689,0,0,0,4.436-.735,19.873,19.873,0,0,1,.949,7.756.5.5,0,0,1-.835.331Zm.8,7.023A19.982,19.982,0,0,0,58.983,36.4a2.436,2.436,0,0,0,.925-1.7,20.6,20.6,0,0,0-.261-5.47,6.6,6.6,0,0,1,3.991,6.107A6.474,6.474,0,0,1,57.941,41.871ZM43.7,32.937A3.21,3.21,0,0,0,40.5,36.143a.972.972,0,0,0,1.943,0,1.263,1.263,0,1,1,2.525,0,.972.972,0,0,0,1.943,0A3.21,3.21,0,0,0,43.7,32.937Zm-7.495,2.516a.972.972,0,0,0-1.371.094,2.711,2.711,0,0,1-4.092,0,.972.972,0,0,0-1.465,1.277,4.655,4.655,0,0,0,7.023,0A.972.972,0,0,0,36.208,35.452ZM22.252,33.3a.972.972,0,0,0-.972.972V36.2a.972.972,0,1,0,1.943,0V34.268A.972.972,0,0,0,22.252,33.3Z" transform="translate(0 -28.979)"/>
      </g>
    </g>
  </g>
</svg>
