<svg xmlns="http://www.w3.org/2000/svg" width="33.048" height="39.429" viewBox="0 0 33.048 39.429">
  <g id="Group_1208213" data-name="Group 1208213" transform="translate(-377.09 -1040.643)">
    <g id="boy_4439795" transform="translate(362.913 1036.086)">
      <path id="Path_1051747" data-name="Path 1051747" d="M47.222,43.344l-.687-6.457a4.9,4.9,0,0,0-3.728-4.241L40.518,32.1a6.119,6.119,0,0,0-4.087-5.652,11.338,11.338,0,0,0,2.344-3.98c.1.007.193.014.287.014a2.908,2.908,0,0,0,2.306-1.021,3.16,3.16,0,0,0,.566-3.016A2.028,2.028,0,0,0,40.8,17.227a2.267,2.267,0,0,0-.993-.142c.567-1.849,1.426-5.74-.429-8.1a3.892,3.892,0,0,0,.212-4.131.581.581,0,0,0-.763-.232c-1.511.752-2.843.578-4.857.313a35.126,35.126,0,0,0-4.853-.376c-4.572,0-5.671,2.487-5.918,3.389-3.336,2.025-2.267,6.976-1.6,9.14a2.263,2.263,0,0,0-.992.143,2.028,2.028,0,0,0-1.135,1.217,3.161,3.161,0,0,0,.567,3.016,2.907,2.907,0,0,0,2.305,1.021c.094,0,.191-.007.287-.014a11.347,11.347,0,0,0,2.344,3.98,6.117,6.117,0,0,0-4.088,5.65l-2.288.547a4.9,4.9,0,0,0-3.728,4.241l-.688,6.457a.58.58,0,0,0,.516.638.56.56,0,0,0,.062,0,.581.581,0,0,0,.576-.519l.688-6.457a3.738,3.738,0,0,1,2.843-3.234l2.374-.567c1.429,1.619,3.909,2.327,5.977,2.633v5.388a.58.58,0,1,0,1.161,0V35.979c.818.074,1.5.089,1.915.089.215,0,.354,0,.41-.006s.2.006.409.006c.416,0,1.1-.015,1.915-.089v5.25a.58.58,0,0,0,1.161,0V35.842c2.068-.306,4.548-1.014,5.977-2.633l2.374.567a3.738,3.738,0,0,1,2.844,3.234l.687,6.457a.58.58,0,0,0,.576.519.57.57,0,0,0,.062,0,.58.58,0,0,0,.515-.638ZM23.073,18.136l1.171-1.18a4.657,4.657,0,0,0,1.3-2.665l.194-1.5a26.052,26.052,0,0,0,4.96.458,26.052,26.052,0,0,0,4.958-.458l.194,1.5a4.652,4.652,0,0,0,1.3,2.665l1.172,1.181a10.735,10.735,0,0,1-5.9,9.921,3.8,3.8,0,0,1-3.449,0A10.739,10.739,0,0,1,23.073,18.136Zm17.293.171a.877.877,0,0,1,.483.551,2.006,2.006,0,0,1-.371,1.857,1.751,1.751,0,0,1-1.37.606,14.432,14.432,0,0,0,.377-3.009,1.481,1.481,0,0,1,.882-.005ZM23.98,8.836a.591.591,0,0,0,.3-.449c.013-.109.372-2.669,4.832-2.669a33.672,33.672,0,0,1,4.7.365,9.621,9.621,0,0,0,4.962-.176A2.536,2.536,0,0,1,38.2,8.577a.58.58,0,0,0,0,.825c1.9,1.873,1,5.715.47,7.427l-.686-.691a3.489,3.489,0,0,1-.976-2l-.276-2.128a.581.581,0,0,0-.721-.487,23.377,23.377,0,0,1-5.306.562,23.386,23.386,0,0,1-5.306-.562.58.58,0,0,0-.722.487L24.4,14.141a3.489,3.489,0,0,1-.977,2l-.685.691C22.144,14.921,21.1,10.37,23.98,8.836ZM20.924,20.715a2.006,2.006,0,0,1-.37-1.857.878.878,0,0,1,.477-.55,1.471,1.471,0,0,1,.886,0,14.447,14.447,0,0,0,.377,3.007A1.755,1.755,0,0,1,20.924,20.715Zm1.107,11.636a4.935,4.935,0,0,1,3.888-4.973q.27.237.54.446l-.291,3.423a.586.586,0,0,0,.062.315,12.529,12.529,0,0,0,2.707,3.293C26.883,34.713,23.553,34.193,22.031,32.351Zm8.67,2.423a12.4,12.4,0,0,1-3.36-3.606l.219-2.579c.311.193.611.36.888.5a4.962,4.962,0,0,0,4.506,0c.277-.142.577-.309.889-.5l.219,2.579A12.4,12.4,0,0,1,30.7,34.774Zm1.763.081a12.529,12.529,0,0,0,2.707-3.293.586.586,0,0,0,.062-.315l-.291-3.423q.269-.21.54-.446a4.962,4.962,0,0,1,3.887,4.975C37.848,34.193,34.519,34.713,32.464,34.855Z" transform="translate(0)"/>
    </g>
  </g>
</svg>
