<svg xmlns="http://www.w3.org/2000/svg" xmlns:xlink="http://www.w3.org/1999/xlink" width="98" height="98" viewBox="0 0 98 98">
  <defs>
    <filter id="Path_982547" x="0" y="0" width="98" height="98" filterUnits="userSpaceOnUse">
      <feOffset dy="3" input="SourceAlpha"/>
      <feGaussianBlur stdDeviation="3" result="blur"/>
      <feFlood flood-opacity="0.161"/>
      <feComposite operator="in" in2="blur"/>
      <feComposite in="SourceGraphic"/>
    </filter>
    <clipPath id="clip-path">
      <path id="path8121" d="M0-682.665H48.414v48.414H0Z" transform="translate(0 682.665)"/>
    </clipPath>
  </defs>
  <g id="Group_1208234" data-name="Group 1208234" transform="translate(-609.726 -6411.375)">
    <g id="Group_1208100" data-name="Group 1208100">
      <g id="Group_1207914" data-name="Group 1207914" transform="translate(418.726 4325.823)">
        <g id="Group_1207712" data-name="Group 1207712">
          <g id="Group_1207285" data-name="Group 1207285" transform="translate(0 344.552)">
            <g id="Group_1206883" data-name="Group 1206883" transform="translate(0 -209)">
              <g id="Group_1204569" data-name="Group 1204569" transform="translate(-81 -1890.336)">
                <g id="Group_1203962" data-name="Group 1203962" transform="translate(281 3846.336)">
                  <g id="Group_1203498" data-name="Group 1203498" transform="translate(0)">
                    <g id="Group_1202589" data-name="Group 1202589">
                      <g id="Group_1172010" data-name="Group 1172010">
                        <g id="Group_1171046" data-name="Group 1171046">
                          <g id="Group_1148525" data-name="Group 1148525">
                            <g transform="matrix(1, 0, 0, 1, -9, -6)" filter="url(#Path_982547)">
                              <g id="Path_982547-2" data-name="Path 982547" transform="translate(9 6)" fill="#fdfbec">
                                <path d="M 39.99999237060547 78.49998474121094 C 34.8018684387207 78.49998474121094 29.76002502441406 77.48226165771484 25.0145263671875 75.47508239746094 C 20.43014717102051 73.53604888916016 16.31264877319336 70.75984954833984 12.77639198303223 67.22359466552734 C 9.240137100219727 63.68733596801758 6.463936805725098 59.5698356628418 4.524903297424316 54.98546981811523 C 2.517725706100464 50.23995971679688 1.500003457069397 45.19811630249023 1.500003457069397 39.99999237060547 C 1.500003457069397 34.8018684387207 2.517725706100464 29.76002502441406 4.524903297424316 25.0145263671875 C 6.463936805725098 20.43014717102051 9.240137100219727 16.31264877319336 12.77639198303223 12.77639198303223 C 16.31264877319336 9.240137100219727 20.43014717102051 6.463936805725098 25.0145263671875 4.524903297424316 C 29.76002502441406 2.517725706100464 34.8018684387207 1.500003457069397 39.99999237060547 1.500003457069397 C 45.19811630249023 1.500003457069397 50.23995971679688 2.517725706100464 54.98546981811523 4.524903297424316 C 59.5698356628418 6.463936805725098 63.68733596801758 9.240137100219727 67.22359466552734 12.77639198303223 C 70.75984954833984 16.31264877319336 73.53604888916016 20.43014717102051 75.47508239746094 25.0145263671875 C 77.48226165771484 29.76002502441406 78.49998474121094 34.8018684387207 78.49998474121094 39.99999237060547 C 78.49998474121094 45.19812393188477 77.48226165771484 50.23995971679688 75.47508239746094 54.98546981811523 C 73.53604888916016 59.5698356628418 70.75984954833984 63.68733596801758 67.22359466552734 67.22359466552734 C 63.68733596801758 70.75984954833984 59.5698356628418 73.53604888916016 54.98546981811523 75.47508239746094 C 50.23995971679688 77.48226165771484 45.19812393188477 78.49998474121094 39.99999237060547 78.49998474121094 Z" stroke="none"/>
                                <path d="M 39.99999237060547 2.999992370605469 C 35.00370025634766 2.999992370605469 30.1584587097168 3.97784423828125 25.59884643554688 5.906402587890625 C 21.19327163696289 7.769805908203125 17.23603057861328 10.43805694580078 13.83704376220703 13.83704376220703 C 10.43805694580078 17.23603057861328 7.769805908203125 21.19327163696289 5.906402587890625 25.59884643554688 C 3.97784423828125 30.1584587097168 2.999992370605469 35.00370025634766 2.999992370605469 39.99999237060547 C 2.999992370605469 44.99628448486328 3.97784423828125 49.84152603149414 5.906402587890625 54.40113830566406 C 7.769805908203125 58.80671310424805 10.43805694580078 62.76395416259766 13.83704376220703 66.16294097900391 C 17.23603057861328 69.56191253662109 21.19327163696289 72.23016357421875 25.59884643554688 74.09356689453125 C 30.1584587097168 76.02212524414062 35.00370025634766 76.99997711181641 39.99999237060547 76.99997711181641 C 44.99628448486328 76.99997711181641 49.84152603149414 76.02212524414062 54.40113830566406 74.09356689453125 C 58.80671310424805 72.23016357421875 62.76395416259766 69.56191253662109 66.16294097900391 66.16294097900391 C 69.56191253662109 62.76395416259766 72.23016357421875 58.80671310424805 74.09356689453125 54.40113830566406 C 76.02212524414062 49.84152603149414 76.99997711181641 44.99628448486328 76.99997711181641 39.99999237060547 C 76.99997711181641 35.00370025634766 76.02212524414062 30.1584587097168 74.09356689453125 25.59884643554688 C 72.23016357421875 21.19327163696289 69.56191253662109 17.23603057861328 66.16294097900391 13.83704376220703 C 62.76395416259766 10.43805694580078 58.80671310424805 7.769805908203125 54.40113830566406 5.906402587890625 C 49.84152603149414 3.97784423828125 44.99628448486328 2.999992370605469 39.99999237060547 2.999992370605469 M 39.99999237060547 -7.62939453125e-06 C 62.09137725830078 -7.62939453125e-06 79.99997711181641 17.90860748291016 79.99997711181641 39.99999237060547 C 79.99997711181641 62.09137725830078 62.09137725830078 79.99997711181641 39.99999237060547 79.99997711181641 C 17.90860748291016 79.99997711181641 -7.62939453125e-06 62.09137725830078 -7.62939453125e-06 39.99999237060547 C -7.62939453125e-06 17.90860748291016 17.90860748291016 -7.62939453125e-06 39.99999237060547 -7.62939453125e-06 Z" stroke="none" fill="#83793c"/>
                              </g>
                            </g>
                          </g>
                        </g>
                      </g>
                    </g>
                  </g>
                </g>
              </g>
            </g>
          </g>
          <g id="g8115" transform="translate(215.793 2790.01)">
            <g id="g8117" transform="translate(0 -682.665)">
              <g id="g8119" clip-path="url(#clip-path)">
                <g id="g8125" transform="translate(-33.259 0.709)">
                  <path id="path8127" d="M-338.457-377.826h-25.835v-25.108c5.31-7.679,37.755-5.416,25.835,25.108" transform="translate(364.292 406.667)" fill="#fbdf63"/>
                </g>
                <g id="g8129" transform="translate(-33.259 0.709)">
                  <path id="path8131" d="M-338.457-377.826h-.619c6.164-24.728-15.887-30.6-25.216-24.374v-.734c5.31-7.679,37.755-5.416,25.835,25.108" transform="translate(364.292 406.667)" fill="#f9d11f"/>
                </g>
              </g>
            </g>
            <g id="g8265" transform="translate(0 -682.665)">
              <g id="g8267" clip-path="url(#clip-path)">
                <g id="g8273" transform="translate(-33.259 51.036)">
                  <path id="path8275" d="M-338.457-377.654h-25.835v-25.1c5.31-7.676,37.755-5.413,25.835,25.1" transform="translate(364.292 406.481)" fill="#003343"/>
                </g>
                <g id="g8277" transform="translate(-33.259 51.036)">
                  <path id="path8279" d="M-338.457-377.654h-.619c6.164-24.717-15.887-30.585-25.216-24.362v-.734c5.31-7.676,37.755-5.413,25.835,25.1" transform="translate(364.292 406.481)" fill="#002439"/>
                </g>
              </g>
            </g>
            <g id="g8281" transform="translate(0 -682.665)">
              <g id="g8283" clip-path="url(#clip-path)">
                <g id="g8289" transform="translate(17.066 51.014)">
                  <path id="path8291" d="M-338.457-377.826h-25.835v-25.108c5.31-7.679,37.755-5.416,25.835,25.108" transform="translate(364.292 406.667)" fill="#ff7e50"/>
                </g>
                <g id="g8293" transform="translate(17.066 51.014)">
                  <path id="path8295" d="M-338.457-377.826h-.619c6.164-24.728-15.887-30.6-25.216-24.374v-.734c5.31-7.679,37.755-5.416,25.835,25.108" transform="translate(364.292 406.667)" fill="#ff6247"/>
                </g>
                <g id="g8297" transform="translate(2.941 54.225)">
                  <path id="path8299" d="M-233.028-131.751v15.573h-14.6c-12.2-25.649,14.6-34.273,14.6-15.573" transform="translate(250.816 141.808)" fill="#ffa68a"/>
                </g>
                <g id="g8301" transform="translate(2.941 54.225)">
                  <path id="path8303" d="M-233.028-131.751c-.9-16.1-20.23-9.82-14.176,15.573h-.427c-12.2-25.649,14.6-34.273,14.6-15.573" transform="translate(250.816 141.808)" fill="#ff7e50"/>
                </g>
              </g>
            </g>
          </g>
        </g>
      </g>
      <g id="pyramid_8282515" transform="translate(620.536 6414.02)">
        <g id="Group_1208098" data-name="Group 1208098" transform="translate(7.5 17.383)">
          <path id="Path_1052258" data-name="Path 1052258" d="M105.209,180.186v-4.272a1.709,1.709,0,0,1,3.418,0v4.272A1.709,1.709,0,0,1,105.209,180.186Z" transform="translate(-94.12 -156.428)" fill="#e4996d"/>
          <path id="Path_1052259" data-name="Path 1052259" d="M61.421,293.722h-16c-6.981-2.564-.011-5.476.136-5.536h0l6.061-1.319,7.818,1.729h1.981C64.813,288.6,64.813,293.722,61.421,293.722Z" transform="translate(-38.37 -256.292)" fill="#fbf198"/>
          <path id="Path_1052260" data-name="Path 1052260" d="M14.551,304.023H10.044c-3.392,0-3.392-5.126,0-5.126H12.8l1.886-.411C13.732,299.478,11.88,301.936,14.551,304.023Z" transform="translate(-7.5 -266.594)" fill="#f8ea69"/>
          <path id="Path_1052261" data-name="Path 1052261" d="M79.537,250.3H68.077c-5.615-2.409.247-5.081.35-5.127v0l.026-.035,3.781-1.467,3.14,1.5h4.162C82.928,245.171,82.928,250.3,79.537,250.3Z" transform="translate(-59.049 -217.995)" fill="#ff6e80"/>
          <path id="Path_1052262" data-name="Path 1052262" d="M36.555,262.053H32.634c-3.392,0-3.392-5.127,0-5.127H36.8C35.857,257.969,34.424,260.135,36.555,262.053Z" transform="translate(-27.526 -229.75)" fill="#fd5c6f"/>
          <path id="Path_1052263" data-name="Path 1052263" d="M93.115,216.873H88.429c-5.855-2.783-.166-5.127-.166-5.127h4.852C96.506,211.746,96.506,216.873,93.115,216.873Z" transform="translate(-76.899 -189.697)" fill="#83deff"/>
          <path id="Path_1052264" data-name="Path 1052264" d="M72.431,216.873H70.28c-3.391,0-3.391-5.127,0-5.127h1.985C71.3,212.89,70.105,215.023,72.431,216.873Z" transform="translate(-60.901 -189.697)" fill="#5ad6ff"/>
          <path id="Path_1052265" data-name="Path 1052265" d="M451.562,207.391c0-3.957,5.981-3.957,5.981,0S451.562,211.348,451.562,207.391Z" transform="translate(-401.167 -183.206)" fill="#ffcbbe"/>
          <path id="Path_1052266" data-name="Path 1052266" d="M240.738,79.391c0-3.957,5.981-3.957,5.981,0S240.738,83.348,240.738,79.391Z" transform="translate(-214.269 -69.732)" fill="#ffddcf"/>
          <path id="Path_1052267" data-name="Path 1052267" d="M287.2,359.521l-.021,11.965-3.727.212-3.772-2.349V358.2Z" transform="translate(-248.794 -319.528)" fill="#687daa"/>
          <path id="Path_1052268" data-name="Path 1052268" d="M270.317,457.817h-4.272c-3.392,0-3.392-5.127,0-5.127h4.272C273.709,452.69,273.709,457.817,270.317,457.817Z" transform="translate(-234.449 -403.298)" fill="#bd9cde"/>
          <path id="Path_1052269" data-name="Path 1052269" d="M198.365,359.958l2.965,2.061,4.971-2.061c0-1.985-.39-4.246,1.507-4.62,2.22-.439,4.147-2.312,5.306-4.642l-7.653-3.418-6.85,1.592S193.151,354.465,198.365,359.958Z" transform="translate(-174.705 -309.848)" fill="#7888af"/>
          <path id="Path_1052270" data-name="Path 1052270" d="M235.287,254.162l-2.633,4.684-14.5-1.826c.833-5.431.059-3.258,3.582-9.52a7.928,7.928,0,0,1,10.341-3.006A6.936,6.936,0,0,1,235.287,254.162Z" transform="translate(-194.244 -217.998)" fill="#5ad6ff"/>
          <path id="Path_1052271" data-name="Path 1052271" d="M285.608,67.308a13.674,13.674,0,0,1-20,12.118c-15.256-16.633,3.081-25.353,3.284-25.448h0a13.684,13.684,0,0,1,16.718,13.331Z" transform="translate(-230.941 -49.531)" fill="#ffddcf"/>
          <path id="Path_1052272" data-name="Path 1052272" d="M255.606,82.085a13.675,13.675,0,0,1,3.287-25.449C253.591,61.96,248.554,70.778,255.606,82.085Z" transform="translate(-220.943 -52.19)" fill="#ffcbbe"/>
          <path id="Path_1052273" data-name="Path 1052273" d="M166.6,302.41a23.2,23.2,0,0,1-4.882-.6c-2.25-.522-3.745-2.363-3.339-4.113s2.559-2.745,4.809-2.223c4.209.976,1.9-1.137,5.578,3.465Z" transform="translate(-141.198 -263.801)" fill="#ffddcf"/>
          <path id="Path_1052274" data-name="Path 1052274" d="M227.015,288.378l-.26-6.587a11.024,11.024,0,0,0,5.712-1.61,5,5,0,0,1,5.852.651c1.571,1.458,1.5,3.53-.165,4.629A19.949,19.949,0,0,1,227.015,288.378Z" transform="translate(-201.873 -249.775)" fill="#83deff"/>
          <path id="Path_1052275" data-name="Path 1052275" d="M350.134,38.907a1.282,1.282,0,0,1-2.4-.845c1.036-4.315-.5-7.381-.993-6.43-1.249,2.422-5.058,3.817-4.833,2.776.429-1.981,1.282-5.1-.776-8.071a.564.564,0,0,0-.392-.238c-5.122-.657-7.543,4.017-7.978,2.922a6.465,6.465,0,0,1,.689-5.461.293.293,0,0,0-.222-.473,7.824,7.824,0,0,0-1.448.127c-.221-4.721,6.559-5.647,6.559-5.647a13.717,13.717,0,0,1,9.9,4.746A15.211,15.211,0,0,1,350.134,38.907Z" transform="translate(-294.97 -17.554)" fill="#ffaa75"/>
          <path id="Path_1052276" data-name="Path 1052276" d="M286.739,17.473a35.049,35.049,0,0,0-6.56,5.647c-3.281.613-4.347,3.2-5.769,2.667a1.286,1.286,0,0,1-.586-1.979A15.362,15.362,0,0,1,286.739,17.473Z" transform="translate(-243.374 -17.461)" fill="#ff9a5c"/>
          <path id="Path_1052277" data-name="Path 1052277" d="M210.558,457.817h-4.681a2.572,2.572,0,1,1,0-5.127h4.681A2.572,2.572,0,1,1,210.558,457.817Z" transform="translate(-180.894 -403.298)" fill="#c7aee4"/>
          <path id="Path_1052278" data-name="Path 1052278" d="M90.138,256.906v0h0Z" transform="translate(-80.759 -229.732)" fill="#8ce09f"/>
        </g>
        <g id="Group_1208099" data-name="Group 1208099" transform="translate(7.5 17.373)">
          <path id="Path_1052279" data-name="Path 1052279" d="M105.207,178.393v-2.564a1.709,1.709,0,0,1,3.418,0v2.564" transform="translate(-94.119 -156.344)" fill="none" stroke="#000" stroke-linecap="round" stroke-linejoin="round" stroke-miterlimit="10" stroke-width="1"/>
          <path id="Path_1052280" data-name="Path 1052280" d="M25.767,302.024H10.044c-3.392,0-3.392,5.126,0,5.126H26.556" transform="translate(-7.5 -269.72)" fill="none" stroke="#000" stroke-linecap="round" stroke-linejoin="round" stroke-miterlimit="10" stroke-width="1"/>
          <path id="Path_1052281" data-name="Path 1052281" d="M45.793,261.971H32.634c-3.392,0-3.392-5.127,0-5.127H48.014a2.6,2.6,0,0,1,1.691,4.539" transform="translate(-27.526 -229.667)" fill="none" stroke="#000" stroke-linecap="round" stroke-linejoin="round" stroke-miterlimit="10" stroke-width="1"/>
          <path id="Path_1052282" data-name="Path 1052282" d="M77.116,216.794H70.28c-3.392,0-3.392-5.127,0-5.127h6.836C80.507,211.667,80.507,216.794,77.116,216.794Z" transform="translate(-60.9 -189.617)" fill="none" stroke="#000" stroke-linecap="round" stroke-linejoin="round" stroke-miterlimit="10" stroke-width="1"/>
          <path id="Path_1052283" data-name="Path 1052283" d="M464.695,208a2.8,2.8,0,0,1,1.391,2.552,3.018,3.018,0,0,1-4.888,2.355" transform="translate(-409.709 -186.37)" fill="none" stroke="#000" stroke-linecap="round" stroke-linejoin="round" stroke-miterlimit="10" stroke-width="1"/>
          <path id="Path_1052284" data-name="Path 1052284" d="M242.663,81.96a2.984,2.984,0,0,1,1.841-5.67" transform="translate(-214.263 -69.506)" fill="none" stroke="#000" stroke-linecap="round" stroke-linejoin="round" stroke-miterlimit="10" stroke-width="1"/>
          <path id="Path_1052285" data-name="Path 1052285" d="M345.957,377.264c0,3.293.042,11.112,0,11.115" transform="translate(-307.547 -336.421)" fill="none" stroke="#000" stroke-linecap="round" stroke-linejoin="round" stroke-miterlimit="10" stroke-width="1"/>
          <path id="Path_1052286" data-name="Path 1052286" d="M198.178,370.377c-4.015-4.938.417-10.591.811-10.643" transform="translate(-175.057 -320.881)" fill="none" stroke="#000" stroke-linecap="round" stroke-linejoin="round" stroke-miterlimit="10" stroke-width="1"/>
          <path id="Path_1052287" data-name="Path 1052287" d="M292.156,376.959a2.484,2.484,0,0,1,.319.146,8.019,8.019,0,0,1-5.307,4.535c-1.671.33-1.566,2.123-1.517,3.9" transform="translate(-254.066 -336.15)" fill="none" stroke="#000" stroke-linecap="round" stroke-linejoin="round" stroke-miterlimit="10" stroke-width="1"/>
          <path id="Path_1052288" data-name="Path 1052288" d="M236.076,294.294c.672,3.125-.793,4.851-3.361,9.417,0,.013.233.034-14.389-1.807-.155-.02-.118.01-.043-.495" transform="translate(-194.304 -262.867)" fill="none" stroke="#000" stroke-linecap="round" stroke-linejoin="round" stroke-miterlimit="10" stroke-width="1"/>
          <path id="Path_1052289" data-name="Path 1052289" d="M237.428,256.944c1.463-2.522,2.05-4.118,4.442-5.36" transform="translate(-211.334 -225.004)" fill="none" stroke="#000" stroke-linecap="round" stroke-linejoin="round" stroke-miterlimit="10" stroke-width="1"/>
          <path id="Path_1052290" data-name="Path 1052290" d="M252.037,90.924c-8.205,8.609-2.181,23.1,9.9,23.1a13.679,13.679,0,0,0,12.979-9.367" transform="translate(-220.94 -82.577)" fill="none" stroke="#000" stroke-linecap="round" stroke-linejoin="round" stroke-miterlimit="10" stroke-width="1"/>
          <path id="Path_1052291" data-name="Path 1052291" d="M166.611,302.362a23.22,23.22,0,0,1-4.881-.6c-2.344-.545-3.728-2.436-3.34-4.113.433-1.873,2.737-2.7,4.808-2.223a10.734,10.734,0,0,0,3.756.266" transform="translate(-141.208 -263.753)" fill="none" stroke="#000" stroke-linecap="round" stroke-linejoin="round" stroke-miterlimit="10" stroke-width="1"/>
          <path id="Path_1052292" data-name="Path 1052292" d="M228.651,288.3l-.344-6.608a10.388,10.388,0,0,0,5.536-1.595,5,5,0,0,1,5.852.651c1.571,1.458,1.5,3.53-.165,4.629A18.549,18.549,0,0,1,228.651,288.3Z" transform="translate(-203.248 -249.691)" fill="none" stroke="#000" stroke-linecap="round" stroke-linejoin="round" stroke-miterlimit="10" stroke-width="1"/>
          <line id="Line_843" data-name="Line 843" x1="0.681" y2="1.179" transform="translate(34.519 13.049)" fill="none" stroke="#000" stroke-linecap="round" stroke-linejoin="round" stroke-miterlimit="10" stroke-width="1"/>
          <line id="Line_844" data-name="Line 844" x1="0.681" y2="1.179" transform="translate(46.791 20.142)" fill="none" stroke="#000" stroke-linecap="round" stroke-linejoin="round" stroke-miterlimit="10" stroke-width="1"/>
          <path id="Path_1052293" data-name="Path 1052293" d="M351.66,165.449a2.476,2.476,0,0,0,3.235,1.87" transform="translate(-312.603 -148.644)" fill="none" stroke="#000" stroke-linecap="round" stroke-linejoin="round" stroke-miterlimit="10" stroke-width="1"/>
          <path id="Path_1052294" data-name="Path 1052294" d="M296.642,22.132h0c-6.05-6.97-17.073-6.152-22.815,1.588a1.286,1.286,0,0,0,.586,1.979c1.613.606,2.768-2.807,7.216-2.794a.294.294,0,0,1,.223.474,6.467,6.467,0,0,0-.689,5.46c.435,1.1,2.856-3.579,7.979-2.922a.562.562,0,0,1,.391.238c2.059,2.97,1.205,6.09.777,8.071-.225,1.041,3.583-.353,4.833-2.775.491-.951,2.029,2.116.993,6.43a1.282,1.282,0,0,0,2.4.845A15.211,15.211,0,0,0,296.642,22.132Z" transform="translate(-243.375 -17.373)" fill="none" stroke="#000" stroke-linecap="round" stroke-linejoin="round" stroke-miterlimit="10" stroke-width="1"/>
          <path id="Path_1052295" data-name="Path 1052295" d="M277.719,452.592s0,0,0,0c.783-.245,2.027-.145,5.2-.145,3.392,0,3.393,5.127,0,5.127-3.19,0-4.427.1-5.2-.144" transform="translate(-247.052 -403.054)" fill="none" stroke="#000" stroke-linecap="round" stroke-linejoin="round" stroke-miterlimit="10" stroke-width="1"/>
          <path id="Path_1052296" data-name="Path 1052296" d="M210.559,457.734h-4.681a2.572,2.572,0,1,1,0-5.127h4.681A2.572,2.572,0,1,1,210.559,457.734Z" transform="translate(-180.895 -403.214)" fill="none" stroke="#000" stroke-linecap="round" stroke-linejoin="round" stroke-miterlimit="10" stroke-width="1"/>
        </g>
      </g>
    </g>
  </g>
</svg>
