<svg xmlns="http://www.w3.org/2000/svg" xmlns:xlink="http://www.w3.org/1999/xlink" width="113" height="113" viewBox="0 0 113 113">
  <defs>
    <filter id="Path_982547" x="0" y="0" width="113" height="113" filterUnits="userSpaceOnUse">
      <feOffset dy="3" input="SourceAlpha"/>
      <feGaussianBlur stdDeviation="3" result="blur"/>
      <feFlood flood-opacity="0.161"/>
      <feComposite operator="in" in2="blur"/>
      <feComposite in="SourceGraphic"/>
    </filter>
    <clipPath id="clip-path">
      <path id="path8010" d="M0-682.665H61.631v61.631H0Z" transform="translate(0 682.665)"/>
    </clipPath>
  </defs>
  <g id="Group_1208200" data-name="Group 1208200" transform="translate(-754.51 -5801.425)">
    <g id="Group_1208045" data-name="Group 1208045">
      <g id="Group_1207841" data-name="Group 1207841" transform="translate(-357.49 -975.226)">
        <g id="Group_1201923" data-name="Group 1201923" transform="translate(-4174.49 4856.378)">
          <g id="Group_1176928" data-name="Group 1176928" transform="translate(5295.49 1926.273)">
            <g id="Group_1172322" data-name="Group 1172322" transform="translate(0 0)">
              <g id="Group_1164700" data-name="Group 1164700">
                <g id="Group_1160931" data-name="Group 1160931">
                  <g id="Group_1160749" data-name="Group 1160749">
                    <g id="Group_1158891" data-name="Group 1158891">
                      <g id="Group_1157406" data-name="Group 1157406">
                        <g id="Group_1155793" data-name="Group 1155793">
                          <g id="Group_1154704" data-name="Group 1154704">
                            <g id="Group_1150790" data-name="Group 1150790">
                              <g id="Group_1154214" data-name="Group 1154214">
                                <g id="Group_1152583" data-name="Group 1152583">
                                  <g id="Group_1146973" data-name="Group 1146973">
                                    <g id="Group_1146954" data-name="Group 1146954">
                                      <g transform="matrix(1, 0, 0, 1, -9, -6)" filter="url(#Path_982547)">
                                        <g id="Path_982547-2" data-name="Path 982547" transform="translate(9 6)" fill="#ebe9f0">
                                          <path d="M 47.5000114440918 93.49987030029297 C 41.28938293457031 93.49987030029297 35.26534652709961 92.28384399414062 29.5951976776123 89.88558959960938 C 24.11773109436035 87.56881713867188 19.19814491271973 84.25183868408203 14.97310447692871 80.02680206298828 C 10.74805164337158 75.80176544189453 7.43107795715332 70.88218688964844 5.114304542541504 65.40472412109375 C 2.716038227081299 59.73458862304688 1.500011444091797 53.71054840087891 1.500011444091797 47.49993515014648 C 1.500011444091797 41.28932189941406 2.716038227081299 35.26528167724609 5.114304542541504 29.59514808654785 C 7.43107795715332 24.1176815032959 10.74805164337158 19.1981086730957 14.97310447692871 14.97306823730469 C 19.19814491271973 10.74802875518799 24.11773109436035 7.431055068969727 29.5951976776123 5.11428165435791 C 35.26534652709961 2.716028451919556 41.28938293457031 1.500001788139343 47.5000114440918 1.500001788139343 C 53.71063995361328 1.500001788139343 59.73467636108398 2.716028451919556 65.40482330322266 5.11428165435791 C 70.88229370117188 7.431055068969727 75.8018798828125 10.74802875518799 80.02691650390625 14.97306823730469 C 84.25196838378906 19.1981086730957 87.56894683837891 24.1176815032959 89.88571929931641 29.59514808654785 C 92.28398132324219 35.26528167724609 93.50001525878906 41.28932189941406 93.50001525878906 47.49993515014648 C 93.50001525878906 53.71054840087891 92.28398132324219 59.73458862304688 89.88571929931641 65.40472412109375 C 87.56894683837891 70.88218688964844 84.25196838378906 75.80176544189453 80.02691650390625 80.02680206298828 C 75.8018798828125 84.25183868408203 70.88229370117188 87.56881713867188 65.40482330322266 89.88558959960938 C 59.73467636108398 92.28384399414062 53.71063995361328 93.49987030029297 47.5000114440918 93.49987030029297 Z" stroke="none"/>
                                          <path d="M 47.5000114440918 3 C 41.49122619628906 3 35.66378021240234 4.1761474609375 30.17951965332031 6.495796203613281 C 24.880859375 8.7369384765625 20.12153625488281 11.94596862792969 16.03376770019531 16.03373718261719 C 11.94598388671875 20.12149047851562 8.736968994140625 24.88081359863281 6.495811462402344 30.17947387695312 C 4.176162719726562 35.66371917724609 3.000007629394531 41.49116516113281 3.000007629394531 47.49993515014648 C 3.000007629394531 53.50870513916016 4.176162719726562 59.33615112304688 6.495811462402344 64.82039642333984 C 8.736968994140625 70.11905670166016 11.94598388671875 74.87837982177734 16.03376770019531 78.96613311767578 C 20.12153625488281 83.05390167236328 24.880859375 86.26293182373047 30.17951965332031 88.50407409667969 C 35.66378021240234 90.82372283935547 41.49122619628906 91.99987030029297 47.5000114440918 91.99987030029297 C 53.50879669189453 91.99987030029297 59.33624267578125 90.82372283935547 64.82050323486328 88.50407409667969 C 70.11916351318359 86.26293182373047 74.87848663330078 83.05390167236328 78.96625518798828 78.96613311767578 C 83.05403900146484 74.87837982177734 86.2630615234375 70.11905670166016 88.50421142578125 64.82039642333984 C 90.82386016845703 59.33615112304688 92.00001525878906 53.50870513916016 92.00001525878906 47.49993515014648 C 92.00001525878906 41.49116516113281 90.82386016845703 35.66371917724609 88.50421142578125 30.17947387695312 C 86.2630615234375 24.88081359863281 83.05403900146484 20.12149047851562 78.96625518798828 16.03373718261719 C 74.87848663330078 11.94596862792969 70.11916351318359 8.7369384765625 64.82050323486328 6.495796203613281 C 59.33624267578125 4.1761474609375 53.50879669189453 3 47.5000114440918 3 M 47.5000114440918 0 C 73.73353576660156 0 95.00001525878906 21.26644134521484 95.00001525878906 47.49993515014648 C 95.00001525878906 73.73342895507812 73.73353576660156 94.99987030029297 47.5000114440918 94.99987030029297 C 21.26648712158203 94.99987030029297 7.62939453125e-06 73.73342895507812 7.62939453125e-06 47.49993515014648 C 7.62939453125e-06 21.26644134521484 21.26648712158203 0 47.5000114440918 0 Z" stroke="none" fill="#453179"/>
                                        </g>
                                      </g>
                                    </g>
                                  </g>
                                </g>
                              </g>
                            </g>
                          </g>
                        </g>
                      </g>
                    </g>
                  </g>
                </g>
              </g>
            </g>
          </g>
        </g>
      </g>
      <g id="g8004" transform="translate(779.695 6504.774)">
        <g id="g8006" transform="translate(0 -682.665)">
          <g id="g8008" clip-path="url(#clip-path)">
            <g id="g8014" transform="translate(0.916 34.958)">
              <path id="path8016" d="M-388.022-41.773h0a38.275,38.275,0,0,0-34.65,0,7.047,7.047,0,0,0-3.857,6.284v14.558a.783.783,0,0,0,.783.783h41.581V-35.49a7.047,7.047,0,0,0-3.857-6.284" transform="translate(426.53 45.919)" fill="#51a1c8"/>
            </g>
            <g id="g8018" transform="translate(20.692 34.959)">
              <path id="path8020" d="M-188.751-41.764h0a38.264,38.264,0,0,0-18.732-4.119v2.355a2.068,2.068,0,0,0,1.722,2.043,38.246,38.246,0,0,1,11.045,3.626h0a7.047,7.047,0,0,1,3.857,6.284v11.436h5.964V-35.48a7.047,7.047,0,0,0-3.857-6.284" transform="translate(207.482 45.909)" fill="#4497b7"/>
            </g>
            <path id="path8022" d="M203.409-370.272h-9.115v-11.684h9.115Z" transform="translate(-176.753 409.104)" fill="#fed6a6"/>
            <g id="g8024" transform="translate(20.692 27.148)">
              <path id="path8026" d="M0-102.694A2.074,2.074,0,0,0,.634-101.2H5.964v-11.684H0Z" transform="translate(0 112.885)" fill="#efc79c"/>
            </g>
            <g id="g8028" transform="translate(8.47 5.266)">
              <path id="path8030" d="M-243.368,0h-21.048a3.1,3.1,0,0,0-3.1,3.1v8.588h27.256V3.1a3.1,3.1,0,0,0-3.1-3.1" transform="translate(267.519)" fill="#fa9a39"/>
            </g>
            <g id="g8032" transform="translate(7.903 14.273)">
              <path id="path8034" d="M-42.338,0H-44A2.545,2.545,0,0,0-46.54,2.546v1.2A2.545,2.545,0,0,0-44,6.3h1.657Z" transform="translate(46.54)" fill="#fed6a6"/>
            </g>
            <g id="g8036" transform="translate(32.092 14.273)">
              <path id="path8038" d="M0,0H1.657A2.545,2.545,0,0,1,4.2,2.546v1.2A2.545,2.545,0,0,1,1.657,6.3H0Z" fill="#fed6a6"/>
            </g>
            <g id="g8040" transform="translate(11.354 10.102)">
              <path id="path8042" d="M0,0,.037,11.88C.108,14.907,1.824,17,3.646,18.789c1.676,1.65,3.957,3.6,7.156,3.627,3.2-.049,5.466-2.012,7.131-3.674,1.809-1.806,3.511-3.909,3.561-6.936l-.022-7.2A4.618,4.618,0,0,0,16.855,0Z" transform="translate(0 0)" fill="#ffe3c2"/>
            </g>
            <g id="g8044" transform="translate(19.148 10.102)">
              <path id="path8046" d="M-137.827-46.387a4.618,4.618,0,0,0-4.618-4.6H-143.8l.027,11.806c-.05,3.027-1.752,5.13-3.562,6.936A13.461,13.461,0,0,1-151.5-29.2a7.865,7.865,0,0,0,3.008.629c3.2-.049,5.466-2.012,7.131-3.674,1.809-1.806,3.512-3.909,3.562-6.936Z" transform="translate(151.505 50.991)" fill="#f7d6b5"/>
            </g>
            <g id="g8048" transform="translate(8.47 0.903)">
              <path id="path8050" d="M-75.1,0a4.565,4.565,0,0,0-4.561,4.374,3.142,3.142,0,0,0-2.892,3.094v6.847a2.538,2.538,0,0,1,1.977-.944h.919a3.671,3.671,0,0,0,3.453-3,1.156,1.156,0,0,1,1.156-1.156H-62.57a6.846,6.846,0,0,0,6.846-6.846V.316A.316.316,0,0,0-56.04,0Z" transform="translate(82.554)" fill="#fdbd37"/>
            </g>
            <g id="g8052" transform="translate(22.098 33.74)">
              <path id="path8054" d="M-54.365-4.036-59.76.655l5.569,3.383a.959.959,0,0,0,1.278-.262l3.9-5.455-3.313-2.441a1.633,1.633,0,0,0-2.039.082" transform="translate(59.76 4.437)" fill="#3990b2"/>
            </g>
            <g id="g8056" transform="translate(11.354 33.74)">
              <path id="path8058" d="M-53.93-4.036l5.4,4.692L-54.1,4.039a.959.959,0,0,1-1.278-.262l-3.9-5.455,3.313-2.441a1.633,1.633,0,0,1,2.039.082" transform="translate(59.283 4.437)" fill="#3990b2"/>
            </g>
            <g id="g8060" transform="translate(7.603 52.658)">
              <path id="path8062" d="M0-81.326V-89.4" transform="translate(0 89.397)" fill="none" stroke="#000" stroke-linecap="round" stroke-linejoin="round" stroke-miterlimit="10" stroke-width="1"/>
            </g>
            <g id="g8064" transform="translate(21.886 19.185)">
              <path id="path8066" d="M0,0V2.393a.376.376,0,0,0,.376.376h.789" fill="none" stroke="#000" stroke-linecap="round" stroke-linejoin="round" stroke-miterlimit="10" stroke-width="1"/>
            </g>
            <g id="g8068" transform="translate(18.52 25.409)">
              <path id="path8070" d="M0,0A4.206,4.206,0,0,0,3.579,1.738,4.206,4.206,0,0,0,7.158,0" fill="none" stroke="#000" stroke-linecap="round" stroke-linejoin="round" stroke-miterlimit="10" stroke-width="1"/>
            </g>
            <g id="g8072" transform="translate(27.577 16.959)">
              <path id="path8074" d="M0,0V1.09" fill="none" stroke="#000" stroke-linecap="round" stroke-linejoin="round" stroke-miterlimit="10" stroke-width="1"/>
            </g>
            <g id="g8076" transform="translate(16.619 16.959)">
              <path id="path8078" d="M0,0V1.09" fill="none" stroke="#000" stroke-linecap="round" stroke-linejoin="round" stroke-miterlimit="10" stroke-width="1"/>
            </g>
            <g id="g8080" transform="translate(28.682 37.634)">
              <path id="path8082" d="M-293.4-91.093h0a28.919,28.919,0,0,0-7.618-2.611,2.524,2.524,0,0,1-2.036-2.483v-3.946h-6.892v3.946a2.524,2.524,0,0,1-2.036,2.483,28.919,28.919,0,0,0-7.618,2.611,4.265,4.265,0,0,0-2.917,4.046v10.008h31.25a.783.783,0,0,0,.783-.783v-9.225a4.265,4.265,0,0,0-2.917-4.046" transform="translate(322.515 100.133)" fill="#fed6a6"/>
            </g>
            <g id="g8084" transform="translate(42.136 37.634)">
              <path id="path8086" d="M-157.828-91.093h0a28.919,28.919,0,0,0-7.618-2.611,2.524,2.524,0,0,1-2.036-2.483v-3.946h-6.009v6.985a2.524,2.524,0,0,0,2.036,2.483,28.917,28.917,0,0,1,7.618,2.611,4.265,4.265,0,0,1,2.917,4.046v6.969h5.225a.783.783,0,0,0,.783-.783v-9.225a4.265,4.265,0,0,0-2.917-4.046" transform="translate(173.49 100.133)" fill="#efc79c"/>
            </g>
            <g id="g8088" transform="translate(28.682 44.186)">
              <path id="path8090" d="M-293.4-25.072h0a28.933,28.933,0,0,0-7.019-2.488c0,.008,0,.015,0,.022,0,1.777-2.723,3.217-6.082,3.217s-6.082-1.44-6.082-3.217c0-.008,0-.015,0-.022a28.934,28.934,0,0,0-7.019,2.488,4.265,4.265,0,0,0-2.917,4.046v10.008h31.25a.783.783,0,0,0,.783-.783v-9.225a4.265,4.265,0,0,0-2.917-4.046" transform="translate(322.515 27.56)" fill="#fc6a58"/>
            </g>
            <g id="g8092" transform="translate(45.514 44.186)">
              <path id="path8094" d="M-145.287-166.7a.783.783,0,0,0,.783-.783V-176.7a4.265,4.265,0,0,0-2.917-4.046,28.933,28.933,0,0,0-7.019-2.488c0,.008,0,.015,0,.022,0,1.63-2.294,2.977-5.267,3.187a28.916,28.916,0,0,1,6.276,2.318,4.265,4.265,0,0,1,2.917,4.046v6.969Z" transform="translate(159.705 183.238)" fill="#e35052"/>
            </g>
            <g id="g8096" transform="translate(35.091 19.266)">
              <path id="path8098" d="M-116.41,0H-120.3a7.663,7.663,0,0,0-7.663,7.663v4.718h19.216V7.663A7.663,7.663,0,0,0-116.41,0" transform="translate(127.962)" fill="#fdbd37"/>
            </g>
            <g id="g8100" transform="translate(44.578 19.266)">
              <path id="path8102" d="M-20.8,0h-2.065A3.764,3.764,0,0,1-19.1,3.764v8.617h5.964V7.663A7.663,7.663,0,0,0-20.8,0" transform="translate(22.868)" fill="#fa9a39"/>
            </g>
            <g id="g8104" transform="translate(34.238 28.946)">
              <path id="path8106" d="M-32.014,0h-1.253a1.924,1.924,0,0,0-1.924,1.925v.911a1.924,1.924,0,0,0,1.924,1.925h1.253Z" transform="translate(35.191)" fill="#fed6a6"/>
            </g>
            <g id="g8108" transform="translate(51.982 28.946)">
              <path id="path8110" d="M0,0H1.253A1.924,1.924,0,0,1,3.177,1.925v.911A1.924,1.924,0,0,1,1.253,4.761H0Z" fill="#fed6a6"/>
            </g>
            <g id="g8112" transform="translate(36.579 25.027)">
              <path id="path8114" d="M-10.972-28.872a.932.932,0,0,0-1.089.923l.023,4.913c0,6.034,5.721,7.946,8.14,7.967,2.419-.037,8.085-1.614,8.085-8.023l-.021-4.858a.8.8,0,0,0-.831-.793c-1.774.067-3.347-1.9-3.983-2.821a.4.4,0,0,0-.637-.03c-2.467,2.845-7.474,3.106-9.687,2.723" transform="translate(12.061 31.738)" fill="#ffe3c2"/>
            </g>
            <g id="g8116" transform="translate(41.826 25.027)">
              <path id="path8118" d="M-110.643-38.159a.8.8,0,0,0-.831-.793c-1.775.067-3.348-1.9-3.983-2.821a.4.4,0,0,0-.638-.03,6.113,6.113,0,0,1-.511.521l.02,7.981a7.445,7.445,0,0,1-5.037,7.4,8.683,8.683,0,0,0,2.916.625c2.419-.037,8.085-1.614,8.085-8.023Z" transform="translate(121.624 41.946)" fill="#f7d6b5"/>
            </g>
            <g id="g8120" transform="translate(33.738 54.191)">
              <path id="path8122" d="M0-65.877v-6.538" transform="translate(0 72.414)" fill="none" stroke="#000" stroke-linecap="round" stroke-linejoin="round" stroke-miterlimit="10" stroke-width="1"/>
            </g>
            <g id="g8124" transform="translate(55.658 54.191)">
              <path id="path8126" d="M0-65.877v-6.538" transform="translate(0 72.414)" fill="none" stroke="#000" stroke-linecap="round" stroke-linejoin="round" stroke-miterlimit="10" stroke-width="1"/>
            </g>
            <g id="g8128" transform="translate(44.538 31.613)">
              <path id="path8130" d="M0,0V1.81a.285.285,0,0,0,.285.285h.6" fill="none" stroke="#000" stroke-linecap="round" stroke-linejoin="round" stroke-miterlimit="10" stroke-width="1"/>
            </g>
            <g id="g8132" transform="translate(41.993 36.319)">
              <path id="path8134" d="M0,0A3.18,3.18,0,0,0,2.706,1.314,3.181,3.181,0,0,0,5.412,0" fill="none" stroke="#000" stroke-linecap="round" stroke-linejoin="round" stroke-miterlimit="10" stroke-width="1"/>
            </g>
            <g id="g8136" transform="translate(48.841 30.523)">
              <path id="path8138" d="M0,0V.528" transform="translate(0 0)" fill="none" stroke="#000" stroke-linecap="round" stroke-linejoin="round" stroke-miterlimit="10" stroke-width="1"/>
            </g>
            <g id="g8140" transform="translate(40.556 30.523)">
              <path id="path8142" d="M0,0V.528" transform="translate(0 0)" fill="none" stroke="#000" stroke-linecap="round" stroke-linejoin="round" stroke-miterlimit="10" stroke-width="1"/>
            </g>
            <g id="g8144" transform="translate(47.343 52.22)">
              <path id="path8146" d="M-51.972-40.353-54.3-39.2a.343.343,0,0,1-.3,0l-2.331-1.154a.343.343,0,0,1-.191-.308v-3.354a.343.343,0,0,1,.343-.343h4.662a.343.343,0,0,1,.343.343v3.354a.343.343,0,0,1-.191.308" transform="translate(57.129 44.357)" fill="#fa9a39"/>
            </g>
            <g id="g8148" transform="translate(28.682 44.186)">
              <path id="path8150" d="M-249.4-7.085q-1.313-.416-2.653-.7c0,.008,0,.015,0,.022,0,1.777-2.723,3.217-6.082,3.217s-6.082-1.44-6.082-3.217c0-.008,0-.015,0-.022A28.934,28.934,0,0,0-271.235-5.3a4.265,4.265,0,0,0-2.916,4.046V8.755h31.25a.783.783,0,0,0,.783-.783V-1.253A4.265,4.265,0,0,0-245.035-5.3q-.238-.121-.479-.237" transform="translate(274.151 7.788)" fill="none" stroke="#000" stroke-linecap="round" stroke-linejoin="round" stroke-miterlimit="10" stroke-width="1"/>
            </g>
            <g id="g8152" transform="translate(47.343 52.22)">
              <path id="path8154" d="M-51.972-40.353-54.3-39.2a.343.343,0,0,1-.3,0l-2.331-1.154a.343.343,0,0,1-.191-.308v-3.354a.343.343,0,0,1,.343-.343h4.662a.343.343,0,0,1,.343.343v3.354A.343.343,0,0,1-51.972-40.353Z" transform="translate(57.129 44.357)" fill="none" stroke="#000" stroke-linecap="round" stroke-linejoin="round" stroke-miterlimit="10" stroke-width="1"/>
            </g>
            <g id="g8156" transform="translate(38.616 40.826)">
              <path id="path8158" d="M-26.563,0V.754A2.525,2.525,0,0,1-28.6,3.237c-.2.039-.4.08-.6.123,0,.007,0,.015,0,.022" transform="translate(29.199)" fill="none" stroke="#000" stroke-linecap="round" stroke-linejoin="round" stroke-miterlimit="10" stroke-width="1"/>
            </g>
            <g id="g8160" transform="translate(48.144 40.926)">
              <path id="path8162" d="M-26.563-33.075c0-.007,0-.015,0-.022-.2-.043-.4-.084-.6-.123A2.525,2.525,0,0,1-29.2-35.7v-.654" transform="translate(29.199 36.357)" fill="none" stroke="#000" stroke-linecap="round" stroke-linejoin="round" stroke-miterlimit="10" stroke-width="1"/>
            </g>
            <g id="g8164" transform="translate(36.579 25.027)">
              <path id="path8166" d="M-10.972-28.872a.932.932,0,0,0-1.089.923l.023,4.913c0,6.034,5.721,7.946,8.14,7.967,2.419-.037,8.085-1.614,8.085-8.023l-.021-4.858a.8.8,0,0,0-.831-.793c-1.774.067-3.347-1.9-3.983-2.821a.4.4,0,0,0-.637-.03C-3.752-28.751-8.76-28.49-10.972-28.872Z" transform="translate(12.061 31.738)" fill="none" stroke="#000" stroke-linecap="round" stroke-linejoin="round" stroke-miterlimit="10" stroke-width="1"/>
            </g>
            <g id="g8168" transform="translate(52.806 28.946)">
              <path id="path8170" d="M-.2-47.619c0,.012,0,.023,0,.035H.2a1.924,1.924,0,0,0,1.924-1.925v-.911A1.924,1.924,0,0,0,.2-52.345H-.224" transform="translate(0.224 52.345)" fill="none" stroke="#000" stroke-linecap="round" stroke-linejoin="round" stroke-miterlimit="10" stroke-width="1"/>
            </g>
            <g id="g8172" transform="translate(34.238 28.946)">
              <path id="path8174" d="M-23.593,0h-.417a1.924,1.924,0,0,0-1.924,1.925v.911a1.924,1.924,0,0,0,1.924,1.925h.44" transform="translate(25.935)" fill="none" stroke="#000" stroke-linecap="round" stroke-linejoin="round" stroke-miterlimit="10" stroke-width="1"/>
            </g>
            <g id="g8176" transform="translate(35.091 19.266)">
              <path id="path8178" d="M-193.63-100.823v-2.342a7.663,7.663,0,0,0-7.663-7.663h-3.889a7.663,7.663,0,0,0-7.663,7.663v2.342" transform="translate(212.846 110.829)" fill="none" stroke="#000" stroke-linecap="round" stroke-linejoin="round" stroke-miterlimit="10" stroke-width="1"/>
            </g>
            <g id="g8180" transform="translate(22.098 33.74)">
              <path id="path8182" d="M-54.365-4.036-59.76.655l5.569,3.383a.959.959,0,0,0,1.278-.262l3.9-5.455-3.313-2.441A1.633,1.633,0,0,0-54.365-4.036Z" transform="translate(59.76 4.437)" fill="none" stroke="#000" stroke-linecap="round" stroke-linejoin="round" stroke-miterlimit="10" stroke-width="1"/>
            </g>
            <g id="g8184" transform="translate(11.354 33.74)">
              <path id="path8186" d="M-53.93-4.036l5.4,4.692L-54.1,4.039a.959.959,0,0,1-1.278-.262l-3.9-5.455,3.313-2.441A1.633,1.633,0,0,1-53.93-4.036Z" transform="translate(59.283 4.437)" fill="none" stroke="#000" stroke-linecap="round" stroke-linejoin="round" stroke-miterlimit="10" stroke-width="1"/>
            </g>
            <g id="g8188" transform="translate(32.845 36.499)">
              <path id="path8190" d="M-54.078-20.326a38.277,38.277,0,0,0-5.367-2.017" transform="translate(59.445 22.343)" fill="none" stroke="#000" stroke-linecap="round" stroke-linejoin="round" stroke-miterlimit="10" stroke-width="1"/>
            </g>
            <g id="g8192" transform="translate(0.916 50.713)">
              <path id="path8194" d="M0,0V9.233a.783.783,0,0,0,.783.783H27.766" fill="none" stroke="#000" stroke-linecap="round" stroke-linejoin="round" stroke-miterlimit="10" stroke-width="1"/>
            </g>
            <g id="g8196" transform="translate(0.916 36.495)">
              <path id="path8198" d="M-105.174-.04l.005,0a38.264,38.264,0,0,0-6.586,2.608,7.047,7.047,0,0,0-3.857,6.284v1.1" transform="translate(115.612 0.044)" fill="none" stroke="#000" stroke-linecap="round" stroke-linejoin="round" stroke-miterlimit="10" stroke-width="1"/>
            </g>
            <g id="g8200" transform="translate(17.541 31.021)">
              <path id="path8202" d="M0,0V3.846" fill="none" stroke="#000" stroke-linecap="round" stroke-linejoin="round" stroke-miterlimit="10" stroke-width="1"/>
            </g>
            <g id="g8204" transform="translate(26.655 31.06)">
              <path id="path8206" d="M0-38.39V-42.2" transform="translate(0 42.2)" fill="none" stroke="#000" stroke-linecap="round" stroke-linejoin="round" stroke-miterlimit="10" stroke-width="1"/>
            </g>
            <g id="g8208" transform="translate(11.366 14.273)">
              <path id="path8210" d="M0,0,.024,7.708c.071,3.027,1.788,5.116,3.609,6.909,1.676,1.65,3.957,3.6,7.156,3.627,3.2-.049,5.466-2.012,7.131-3.674,1.809-1.806,3.512-3.909,3.562-6.936l-.022-7.2" fill="none" stroke="#000" stroke-linecap="round" stroke-linejoin="round" stroke-miterlimit="10" stroke-width="1"/>
            </g>
            <g id="g8212" transform="translate(8.47 0.903)">
              <path id="path8214" d="M-29.183-134.727h0a3.671,3.671,0,0,0,3.454-3,1.156,1.156,0,0,1,1.156-1.156h12.479a6.846,6.846,0,0,0,6.846-6.846v-2.049a.316.316,0,0,0-.316-.316H-24.626a4.565,4.565,0,0,0-4.56,4.374,3.142,3.142,0,0,0-2.893,3.094v6.847" transform="translate(32.079 148.097)" fill="none" stroke="#000" stroke-linecap="round" stroke-linejoin="round" stroke-miterlimit="10" stroke-width="1"/>
            </g>
            <g id="g8216" transform="translate(28.516 10.113)">
              <path id="path8218" d="M0,0A4.617,4.617,0,0,1,4.288,4.16" fill="none" stroke="#000" stroke-linecap="round" stroke-linejoin="round" stroke-miterlimit="10" stroke-width="1"/>
            </g>
            <g id="g8220" transform="translate(34.702 6.067)">
              <path id="path8222" d="M-10.316-92.205v-6.847a3.1,3.1,0,0,0-1.024-2.3" transform="translate(11.34 101.356)" fill="none" stroke="#000" stroke-linecap="round" stroke-linejoin="round" stroke-miterlimit="10" stroke-width="1"/>
            </g>
            <g id="g8224" transform="translate(32.804 14.273)">
              <path id="path8226" d="M-.405-63.45H.5A2.545,2.545,0,0,0,3.045-66v-1.2A2.545,2.545,0,0,0,.5-69.746H-.445" transform="translate(0.445 69.746)" fill="none" stroke="#000" stroke-linecap="round" stroke-linejoin="round" stroke-miterlimit="10" stroke-width="1"/>
            </g>
            <g id="g8228" transform="translate(7.903 14.273)">
              <path id="path8230" d="M-34.9,0h-.919a2.545,2.545,0,0,0-2.545,2.546v1.2A2.545,2.545,0,0,0-35.821,6.3h.939Z" transform="translate(38.365)" fill="none" stroke="#000" stroke-linecap="round" stroke-linejoin="round" stroke-miterlimit="10" stroke-width="1"/>
            </g>
          </g>
        </g>
      </g>
    </g>
  </g>
</svg>
