<svg xmlns="http://www.w3.org/2000/svg" xmlns:xlink="http://www.w3.org/1999/xlink" width="113" height="113" viewBox="0 0 113 113">
  <defs>
    <filter id="Path_982547" x="0" y="0" width="113" height="113" filterUnits="userSpaceOnUse">
      <feOffset dy="3" input="SourceAlpha"/>
      <feGaussianBlur stdDeviation="3" result="blur"/>
      <feFlood flood-opacity="0.161"/>
      <feComposite operator="in" in2="blur"/>
      <feComposite in="SourceGraphic"/>
    </filter>
  </defs>
  <g id="Group_1208238" data-name="Group 1208238" transform="translate(-324.151 -7103.855)">
    <g id="Group_1208237" data-name="Group 1208237">
      <g id="Group_1208129" data-name="Group 1208129">
        <g id="Group_1207916" data-name="Group 1207916" transform="translate(333.151 7109.855)">
          <g id="Group_1207254" data-name="Group 1207254">
            <g id="Group_1204125" data-name="Group 1204125">
              <g id="Group_1203962" data-name="Group 1203962" transform="translate(0 0)">
                <g id="Group_1203498" data-name="Group 1203498">
                  <g id="Group_1202589" data-name="Group 1202589">
                    <g id="Group_1172010" data-name="Group 1172010">
                      <g id="Group_1171046" data-name="Group 1171046">
                        <g id="Group_1148525" data-name="Group 1148525">
                          <g transform="matrix(1, 0, 0, 1, -9, -6)" filter="url(#Path_982547)">
                            <g id="Path_982547-2" data-name="Path 982547" transform="translate(9 6)" fill="#edf3fc">
                              <path d="M 47.5 93.5 C 41.28937149047852 93.5 35.26533508300781 92.28397369384766 29.59518623352051 89.88570404052734 C 24.11771965026855 87.56893157958984 19.19813346862793 84.25196075439453 14.97309303283691 80.02691650390625 C 10.74804019927979 75.80186462402344 7.431066513061523 70.88229370117188 5.114293098449707 65.40481567382812 C 2.716026782989502 59.73468017578125 1.5 53.71062850952148 1.5 47.5 C 1.5 41.28937149047852 2.716026782989502 35.26533508300781 5.114293098449707 29.59518623352051 C 7.431066513061523 24.11771965026855 10.74804019927979 19.19813346862793 14.97309303283691 14.97309303283691 C 19.19813346862793 10.74804019927979 24.11771965026855 7.431066513061523 29.59518623352051 5.114293098449707 C 35.26533508300781 2.716026782989502 41.28937149047852 1.5 47.5 1.5 C 53.71062850952148 1.5 59.73468017578125 2.716026782989502 65.40481567382812 5.114293098449707 C 70.88229370117188 7.431066513061523 75.80186462402344 10.74804019927979 80.02691650390625 14.97309303283691 C 84.25196075439453 19.19813346862793 87.56893157958984 24.11771965026855 89.88570404052734 29.59518623352051 C 92.28397369384766 35.26533508300781 93.5 41.28937149047852 93.5 47.5 C 93.5 53.71062850952148 92.28397369384766 59.73468017578125 89.88570404052734 65.40481567382812 C 87.56893157958984 70.88229370117188 84.25196075439453 75.80186462402344 80.02691650390625 80.02691650390625 C 75.80186462402344 84.25196075439453 70.88229370117188 87.56893157958984 65.40481567382812 89.88570404052734 C 59.73468017578125 92.28397369384766 53.71062850952148 93.5 47.5 93.5 Z" stroke="none"/>
                              <path d="M 47.5 3 C 41.49121475219727 3 35.66376876831055 4.176155090332031 30.17950439453125 6.495796203613281 C 24.88084411621094 8.736953735351562 20.12152099609375 11.94598388671875 16.03375244140625 16.03375244140625 C 11.94598388671875 20.12152099609375 8.736953735351562 24.88084411621094 6.495796203613281 30.17950439453125 C 4.176155090332031 35.66376876831055 3 41.49121475219727 3 47.5 C 3 53.50878524780273 4.176155090332031 59.33623123168945 6.495796203613281 64.82049560546875 C 8.736953735351562 70.11915588378906 11.94598388671875 74.87847900390625 16.03375244140625 78.96624755859375 C 20.12152099609375 83.05401611328125 24.88084411621094 86.26304626464844 30.17950439453125 88.50419616699219 C 35.66376876831055 90.82384490966797 41.49121475219727 92 47.5 92 C 53.50878524780273 92 59.33623123168945 90.82384490966797 64.82049560546875 88.50419616699219 C 70.11915588378906 86.26304626464844 74.87847900390625 83.05401611328125 78.96624755859375 78.96624755859375 C 83.05401611328125 74.87847900390625 86.26304626464844 70.11915588378906 88.50419616699219 64.82049560546875 C 90.82384490966797 59.33623123168945 92 53.50878524780273 92 47.5 C 92 41.49121475219727 90.82384490966797 35.66376876831055 88.50419616699219 30.17950439453125 C 86.26304626464844 24.88084411621094 83.05401611328125 20.12152099609375 78.96624755859375 16.03375244140625 C 74.87847900390625 11.94598388671875 70.11915588378906 8.736953735351562 64.82049560546875 6.495796203613281 C 59.33623123168945 4.176155090332031 53.50878524780273 3 47.5 3 M 47.5 0 C 73.7335205078125 0 95 21.2664794921875 95 47.5 C 95 73.7335205078125 73.7335205078125 95 47.5 95 C 21.2664794921875 95 0 73.7335205078125 0 47.5 C 0 21.2664794921875 21.2664794921875 0 47.5 0 Z" stroke="none" fill="#5692e8"/>
                            </g>
                          </g>
                        </g>
                      </g>
                    </g>
                  </g>
                </g>
              </g>
            </g>
          </g>
        </g>
        <g id="drawing_4035191" transform="translate(345.365 7126)">
          <g id="Group_1208127" data-name="Group 1208127" transform="translate(1.059 1.059)">
            <g id="Group_1208104" data-name="Group 1208104" transform="translate(48.697)">
              <path id="Path_1052339" data-name="Path 1052339" d="M50.61,1.625a2.07,2.07,0,0,1,.625,1.493V9.469H47V3.117A2.123,2.123,0,0,1,49.117,1a2.07,2.07,0,0,1,1.493.625Z" transform="translate(-47 -1)" fill="#d3a06c"/>
            </g>
            <g id="Group_1208105" data-name="Group 1208105" transform="translate(35.993)">
              <path id="Path_1052340" data-name="Path 1052340" d="M37.117,1h12.7A2.123,2.123,0,0,0,47.7,3.117V9.469H35V3.117A2.123,2.123,0,0,1,37.117,1Z" transform="translate(-35 -1)" fill="#cf9e76"/>
            </g>
            <g id="Group_1208106" data-name="Group 1208106" transform="translate(59.283 8.469)">
              <path id="Path_1052341" data-name="Path 1052341" d="M60.61,9.625a2.07,2.07,0,0,1,.625,1.493v48.7H57v-48.7A2.123,2.123,0,0,1,59.117,9,2.07,2.07,0,0,1,60.61,9.625Z" transform="translate(-57 -9)" fill="#ccd1d9"/>
            </g>
            <g id="Group_1208107" data-name="Group 1208107" transform="translate(16.822 8.469)">
              <path id="Path_1052342" data-name="Path 1052342" d="M53,9H23.665a8.471,8.471,0,0,1,2.763,5.018,11.8,11.8,0,0,1,7.209,8.31l1.482-2.964a3.417,3.417,0,0,1,6.119,0L43.26,23.4l2.721-8.151a2.933,2.933,0,0,1,5.568,0l2.636,7.919c.011,0,.011.011.011.021a5.181,5.181,0,0,1,.921,2.752c0,1.757-1.419,4.235-3.176,4.235a2.858,2.858,0,0,1-2.191-1.387c-.307,1.641-1.577,3.5-3.1,3.5-1.757,0-3.176-2.477-3.176-4.235a4.85,4.85,0,0,1,.55-2.117H33.934A11.692,11.692,0,0,1,32.7,30.829a2.7,2.7,0,0,1,.318.275,3.174,3.174,0,0,1-2.244,5.42H29.71A10.59,10.59,0,0,1,19.124,47.111H16.89a10.719,10.719,0,0,1,10.258,7.633l2.562-1.281V52.393a3.181,3.181,0,0,1,3.2-3.186,2.789,2.789,0,0,1,.889.138,6.429,6.429,0,0,1-.91-3.292,6.345,6.345,0,0,1,9.739-5.367,3.361,3.361,0,0,0-.212,1.133,3.171,3.171,0,0,0,3.081,3.165,7.168,7.168,0,0,1,.1,1.069,6.358,6.358,0,0,1-.932,3.324,3.012,3.012,0,0,1,.932-.148c1.757,0,5.293,1.419,5.293,3.176s-3.536,3.176-5.293,3.176a3.074,3.074,0,0,1-2.35-1.059H35.564a4.89,4.89,0,0,1-1.09,1.429l-4.287,3.864H59.351v-48.7A2.123,2.123,0,0,1,61.469,9Z" transform="translate(-16.89 -9)" fill="#e6e9ed"/>
            </g>
            <g id="Group_1208108" data-name="Group 1208108" transform="translate(42.345 12.704)">
              <path id="Path_1052343" data-name="Path 1052343" d="M45.234,23.586A3.314,3.314,0,0,0,42.609,25.7H41l.847-2.541,2.721-8.151a2.933,2.933,0,0,1,5.568,0l2.636,7.919a2.881,2.881,0,0,0-2.244-1.461c-1.524,0-2.795,1.863-3.1,3.5a2.858,2.858,0,0,0-2.191-1.387Z" transform="translate(-41 -13)" fill="#b4dd7f"/>
            </g>
            <g id="Group_1208109" data-name="Group 1208109" transform="translate(33.569 16.938)">
              <path id="Path_1052344" data-name="Path 1052344" d="M33.017,25.469h-.011c.011-.127.011-.254.011-.381v-.572a11.553,11.553,0,0,0-.307-2.657l1.482-2.964a3.417,3.417,0,0,1,6.119,0l2.022,4.033-.847,2.541Z" transform="translate(-32.71 -17)" fill="#b4dd7f"/>
            </g>
            <g id="Group_1208110" data-name="Group 1208110" transform="translate(48.697 21.173)">
              <path id="Path_1052345" data-name="Path 1052345" d="M47.985,28.082A5.225,5.225,0,0,1,47,25.234a3.563,3.563,0,0,1,.074-.73c.307-1.641,1.577-3.5,3.1-3.5a2.881,2.881,0,0,1,2.244,1.461c.011,0,.011.011.011.021a5.181,5.181,0,0,1,.921,2.752c0,1.757-1.419,4.235-3.176,4.235a2.858,2.858,0,0,1-2.191-1.387Z" transform="translate(-47 -21)" fill="#a0d468"/>
            </g>
            <g id="Group_1208111" data-name="Group 1208111" transform="translate(43.404 23.29)">
              <path id="Path_1052346" data-name="Path 1052346" d="M47.293,25.117a5.225,5.225,0,0,0,.985,2.848c-.307,1.641-1.577,3.5-3.1,3.5-1.757,0-3.176-2.477-3.176-4.235a4.85,4.85,0,0,1,.55-2.117A3.314,3.314,0,0,1,45.176,23a2.858,2.858,0,0,1,2.191,1.387A3.563,3.563,0,0,0,47.293,25.117Z" transform="translate(-42 -23)" fill="#a0d468"/>
            </g>
            <g id="Group_1208112" data-name="Group 1208112" transform="translate(10.586 46.58)">
              <path id="Path_1052347" data-name="Path 1052347" d="M12.366,46.366A4.666,4.666,0,0,1,19.744,47.4l2.191,3.938a7.4,7.4,0,0,1-6.7,4.245h-.709L12.546,53.8A4.637,4.637,0,0,1,11,50.335v-.667A4.647,4.647,0,0,1,12.366,46.366Z" transform="translate(-11 -45)" fill="#ff826e"/>
            </g>
            <g id="Group_1208113" data-name="Group 1208113" transform="translate(14.122 48.676)">
              <path id="Path_1052348" data-name="Path 1052348" d="M23.508,54.412l3.79-1.895,2.562-1.281V50.166a3.181,3.181,0,0,1,3.2-3.186,2.789,2.789,0,0,1,.889.138,3.158,3.158,0,0,1,1.344.794,1.581,1.581,0,0,1,.127.148,3.159,3.159,0,0,1,.794,2.1,4.773,4.773,0,0,1-.5,2.138,4.89,4.89,0,0,1-1.09,1.429l-4.287,3.864h-.011L27.2,60.4a5.521,5.521,0,0,1-7.389,0L14.34,55.47h.7a7.4,7.4,0,0,0,6.7-4.245Z" transform="translate(-14.34 -46.98)" fill="#f0d0b4"/>
            </g>
            <g id="Group_1208114" data-name="Group 1208114" transform="translate(15.255 46.58)">
              <path id="Path_1052349" data-name="Path 1052349" d="M19.3,45.254a10.724,10.724,0,0,1,7.94,7.379l-3.79,1.895-1.768-3.186L19.486,47.4A4.667,4.667,0,0,0,15.41,45h1.567a10.655,10.655,0,0,1,2.318.254Z" transform="translate(-15.41 -45)" fill="#ff826e"/>
            </g>
            <g id="Group_1208115" data-name="Group 1208115" transform="translate(29.642 29.642)">
              <path id="Path_1052350" data-name="Path 1052350" d="M31.985,29.656a2.7,2.7,0,0,1,.318.275,3.174,3.174,0,0,1-2.244,5.42H29V29h1.059A3.115,3.115,0,0,1,31.985,29.656Z" transform="translate(-29 -29)" fill="#f0d0b4"/>
            </g>
            <g id="Group_1208116" data-name="Group 1208116" transform="translate(4.234 23.29)">
              <path id="Path_1052351" data-name="Path 1052351" d="M5,35.7v-7.41A5.3,5.3,0,0,1,10.293,23l1.08.307a46.731,46.731,0,0,0,12.9,1.81h1.895a4.233,4.233,0,0,1,4.235,4.235V35.7A10.59,10.59,0,0,1,19.821,46.29H15.586A10.59,10.59,0,0,1,5,35.7Z" transform="translate(-5 -23)" fill="#f0d0b4"/>
            </g>
            <g id="Group_1208117" data-name="Group 1208117" transform="translate(0 29.642)">
              <path id="Path_1052352" data-name="Path 1052352" d="M5.235,29v6.352H4.176A3.179,3.179,0,0,1,2.461,29.5,3.251,3.251,0,0,1,4.176,29Z" transform="translate(-1 -29)" fill="#f0d0b4"/>
            </g>
            <g id="Group_1208118" data-name="Group 1208118" transform="translate(0 13.487)">
              <path id="Path_1052353" data-name="Path 1052353" d="M5.235,28.836v1.059H4.176a3.251,3.251,0,0,0-1.715.5A11.768,11.768,0,0,1,8.516,13.74a7.913,7.913,0,0,0-.106,1.334,2.123,2.123,0,0,0,2.117,2.117H25.348a2.133,2.133,0,0,0,2.117-2.117,7.913,7.913,0,0,0-.106-1.334,11.8,11.8,0,0,1,7.209,8.31,11.553,11.553,0,0,1,.307,2.657v.572c0,.127,0,.254-.011.381a11.692,11.692,0,0,1-1.239,4.891,3.115,3.115,0,0,0-1.927-.656H30.642a4.233,4.233,0,0,0-4.235-4.235H24.512a46.731,46.731,0,0,1-12.9-1.81l-1.08-.307a5.3,5.3,0,0,0-5.293,5.293Z" transform="translate(-1 -13.74)" fill="#b27946"/>
            </g>
            <g id="Group_1208119" data-name="Group 1208119" transform="translate(16.938 6.352)">
              <path id="Path_1052354" data-name="Path 1052354" d="M26.422,14.135a7.913,7.913,0,0,1,.106,1.334,2.133,2.133,0,0,1-2.117,2.117H20.176C20.176,10.176,17,7,17,7h1.059a8.472,8.472,0,0,1,8.363,7.135Z" transform="translate(-17 -7)" fill="#ffeaa7"/>
            </g>
            <g id="Group_1208120" data-name="Group 1208120" transform="translate(7.41 6.352)">
              <path id="Path_1052355" data-name="Path 1052355" d="M17.528,7s-3.176,3.176-3.176,10.586H10.117A2.123,2.123,0,0,1,8,15.469a7.913,7.913,0,0,1,.106-1.334A8.454,8.454,0,0,1,16.469,7Z" transform="translate(-8 -7)" fill="#ffeaa7"/>
            </g>
            <g id="Group_1208121" data-name="Group 1208121" transform="translate(13.762 6.352)">
              <path id="Path_1052356" data-name="Path 1052356" d="M14,17.586C14,10.176,17.176,7,17.176,7s3.176,3.176,3.176,10.586Z" transform="translate(-14 -7)" fill="#fcd770"/>
            </g>
            <g id="Group_1208122" data-name="Group 1208122" transform="translate(14.821 2.117)">
              <circle id="Ellipse_13465" data-name="Ellipse 13465" cx="2" cy="2" r="2" transform="translate(-0.245 -0.176)" fill="#ff826e"/>
            </g>
            <g id="Group_1208123" data-name="Group 1208123" transform="translate(12.704 38.111)">
              <path id="Path_1052357" data-name="Path 1052357" d="M13,37h8.469A4.234,4.234,0,1,1,13,37Z" transform="translate(-13 -37)" fill="#ff826e"/>
            </g>
            <g id="Group_1208124" data-name="Group 1208124" transform="translate(32.817 39.169)">
              <path id="Path_1052358" data-name="Path 1052358" d="M44.608,43.283a7.168,7.168,0,0,1,.1,1.069,6.358,6.358,0,0,1-.932,3.324,2.92,2.92,0,0,0-1.419.91H34.382a1.581,1.581,0,0,0-.127-.148,3.158,3.158,0,0,0-1.344-.794A6.429,6.429,0,0,1,32,44.352a6.345,6.345,0,0,1,9.739-5.367,3.361,3.361,0,0,0-.212,1.133A3.171,3.171,0,0,0,44.608,43.283Z" transform="translate(-32 -38)" fill="#ffeaa7"/>
            </g>
            <g id="Group_1208125" data-name="Group 1208125" transform="translate(35.199 49.755)">
              <path id="Path_1052359" data-name="Path 1052359" d="M34.25,48h7.961a3.157,3.157,0,0,0,0,4.235H34.546a4.773,4.773,0,0,0,.5-2.138A3.159,3.159,0,0,0,34.25,48Z" transform="translate(-34.25 -48)" fill="#d3a06c"/>
            </g>
            <g id="Group_1208126" data-name="Group 1208126" transform="translate(42.345 48.697)">
              <path id="Path_1052360" data-name="Path 1052360" d="M44.176,47c1.757,0,5.293,1.419,5.293,3.176s-3.536,3.176-5.293,3.176a3.074,3.074,0,0,1-2.35-1.059h-.011a3.157,3.157,0,0,1,0-4.235h.011a2.92,2.92,0,0,1,1.419-.91A3.012,3.012,0,0,1,44.176,47Z" transform="translate(-41 -47)" fill="#fcd770"/>
            </g>
          </g>
          <g id="Group_1208128" data-name="Group 1208128">
            <path id="Path_1052361" data-name="Path 1052361" d="M22.586,37.059V36H12v1.059a5.293,5.293,0,0,0,10.586,0ZM14.3,38.117h5.99a3.177,3.177,0,0,1-5.99,0Z" transform="translate(0.704 2.111)"/>
            <path id="Path_1052362" data-name="Path 1052362" d="M14.352,32.235h2.117a4.235,4.235,0,1,0-8.469,0h2.117a2.117,2.117,0,0,1,4.235,0Z" transform="translate(0.469 1.642)"/>
            <path id="Path_1052363" data-name="Path 1052363" d="M22.235,30.117a2.119,2.119,0,0,1,2.117,2.117h2.117a4.235,4.235,0,1,0-8.469,0h2.117A2.119,2.119,0,0,1,22.235,30.117Z" transform="translate(1.055 1.642)"/>
            <path id="Path_1052364" data-name="Path 1052364" d="M65.635,11.645a3.18,3.18,0,0,0-3.176-3.176h-7.41V3.176A3.18,3.18,0,0,0,51.873,0h-12.7a3.18,3.18,0,0,0-3.176,3.176V8.469H25.03a9.488,9.488,0,0,0-4.113-1.932,3.145,3.145,0,0,0,.255-1.244,3.176,3.176,0,1,0-6.352,0,3.145,3.145,0,0,0,.255,1.244A9.55,9.55,0,0,0,7.646,13.8,12.738,12.738,0,0,0,1.218,30.911a4.229,4.229,0,0,0,3.016,7.2h.054a11.668,11.668,0,0,0,8.089,10.046A5.7,5.7,0,0,0,10.586,52.3v.668a5.732,5.732,0,0,0,1.895,4.255l7.466,6.721a6.579,6.579,0,0,0,8.8,0L31.577,61.4H65.635Zm-12.7-8.469V8.469H50.814V3.176a1.059,1.059,0,1,1,2.117,0Zm-14.821,0a1.06,1.06,0,0,1,1.059-1.059h9.722A3.14,3.14,0,0,0,48.7,3.176V8.469H38.111Zm-11.645,12.7a1.06,1.06,0,0,1-1.059,1.059H22.2a18.688,18.688,0,0,0-2.135-8.392A7.416,7.416,0,0,1,26.466,15.879ZM18,9.2a16.193,16.193,0,0,1,2.09,7.734H15.907A16.189,16.189,0,0,1,18,9.2Zm0-4.969a1.059,1.059,0,1,1-1.059,1.059A1.06,1.06,0,0,1,18,4.235ZM15.926,8.546a18.684,18.684,0,0,0-2.135,8.392h-3.2a1.06,1.06,0,0,1-1.059-1.059,7.416,7.416,0,0,1,6.4-7.333ZM2.117,33.876a2.119,2.119,0,0,1,2.117-2.117v4.234A2.119,2.119,0,0,1,2.117,33.876Zm2.117-4.235a4.175,4.175,0,0,0-1.189.191,10.638,10.638,0,0,1,4.4-13.567,3.169,3.169,0,0,0,3.137,2.791H25.407a3.169,3.169,0,0,0,3.137-2.791,10.783,10.783,0,0,1,5.332,9.252v.564a10.758,10.758,0,0,1-.714,3.817,4.2,4.2,0,0,0-1.4-.257h-.107a5.3,5.3,0,0,0-5.186-4.235h-1.89a45.964,45.964,0,0,1-12.614-1.766l-1.084-.31-.292-.041a6.358,6.358,0,0,0-6.352,6.352ZM49.6,29.5c-.353,1.208-1.232,2.255-1.965,2.255-1.023,0-2.117-1.864-2.117-3.176s1.095-3.176,2.117-3.176a1.619,1.619,0,0,1,1.081.636,4.156,4.156,0,0,0-.022.422A6.288,6.288,0,0,0,49.6,29.5ZM48.7,33.659a4.885,4.885,0,0,0,2.49-2.438,3.473,3.473,0,0,0,.686.339v6.689l-1.8-1.2H48.7Zm4.234-4.017c-1.023,0-2.117-1.864-2.117-3.176s1.095-3.176,2.117-3.176,2.117,1.864,2.117,3.176S53.954,29.642,52.931,29.642Zm0-8.469a4.256,4.256,0,0,0-3.55,2.662,3.206,3.206,0,0,0-1.744-.545,3.459,3.459,0,0,0-2.423,1.087l2.757-8.271a1.881,1.881,0,0,1,3.568,0l1.7,5.09c-.1-.01-.2-.023-.3-.023Zm-10.29,4.235H35.989a12.657,12.657,0,0,0-.257-2.4l1.32-2.642a2.367,2.367,0,0,1,4.235,0l1.821,3.643ZM31.759,31.759a2.117,2.117,0,1,1,0,4.234ZM15.879,46.58a9.539,9.539,0,0,1-9.528-9.528v-7.41a4.24,4.24,0,0,1,4.094-4.232l.935.267a48.014,48.014,0,0,0,13.2,1.848h1.89A3.18,3.18,0,0,1,29.642,30.7v6.352a9.539,9.539,0,0,1-9.528,9.528H15.879Zm5.435,2.944c-.049-.088-.109-.165-.162-.25a9.641,9.641,0,0,1,5.659,5.477l-2.03,1.015ZM12.7,52.971V52.3a3.607,3.607,0,0,1,6.76-1.752l1.9,3.43a6.378,6.378,0,0,1-5.489,3.184h-.3L13.9,55.652a3.614,3.614,0,0,1-1.194-2.68Zm14.628,9.4a4.573,4.573,0,0,1-5.969,0l-3.676-3.309a8.505,8.505,0,0,0,4.825-3.021l.683,1.23-.91,2.734,2.007.67.92-2.76,6.547-3.272V52.915A2.116,2.116,0,0,1,33.876,50.8h.012a2.121,2.121,0,0,1,2.106,2.117,3.738,3.738,0,0,1-1.235,2.774Zm7.6-15.793a5.285,5.285,0,0,1,7.455-4.827,3.981,3.981,0,0,0-.044.593,4.205,4.205,0,0,0,3.174,4.094c0,.048,0,.094,0,.141a5.266,5.266,0,0,1-.625,2.47,4.216,4.216,0,0,0-1.088.706H36.663a4.245,4.245,0,0,0-1.117-.729A5.276,5.276,0,0,1,34.935,46.58ZM46.58,50.814c1.583,0,4.235,1.325,4.235,2.117s-2.652,2.117-4.235,2.117a2.117,2.117,0,1,1,0-4.235ZM42.5,53.99H38a5.777,5.777,0,0,0,.106-1.075,4.188,4.188,0,0,0-.146-1.043H42.5a3.8,3.8,0,0,0,0,2.117Zm16.788,5.293H33.929l2.245-2.021a5.841,5.841,0,0,0,.978-1.155h6.656a4.194,4.194,0,0,0,2.771,1.059c2.182,0,6.352-1.649,6.352-4.235,0-2.323-3.361-3.885-5.628-4.179a7.138,7.138,0,0,0,.222-3.42l-.147-.852-.864-.026a2.091,2.091,0,0,1-1.907-2.858l.309-.809-.73-.464a7.392,7.392,0,0,0-11.035,8.429,4.214,4.214,0,0,0-3.511,4.165v.419l-.929.465a11.753,11.753,0,0,0-5.03-5.668A11.666,11.666,0,0,0,31.7,38.109h.055a4.213,4.213,0,0,0,3.182-7,12.89,12.89,0,0,0,.968-3.588h7.622a5.048,5.048,0,0,0-.127,1.06c0,1.8,1.233,4.376,3.176,5.1v3.374H44.462v2.117h4.972l3.176,2.117h4.555V39.169H53.99V31.56c1.943-.719,3.176-3.3,3.176-5.1a6.33,6.33,0,0,0-1.009-3.2l-2.611-7.833a4,4,0,0,0-7.582,0l-1.91,5.73-.874-1.749a4.484,4.484,0,0,0-8.022,0l-.366.732A12.889,12.889,0,0,0,28.347,13.8a9.472,9.472,0,0,0-1.375-3.212H59.478a3.14,3.14,0,0,0-.195,1.059Zm4.235,0H61.4V11.645a1.059,1.059,0,0,1,2.117,0Z"/>
            <circle id="Ellipse_13466" data-name="Ellipse 13466" cx="1" cy="1" r="1" transform="translate(39.635 42)"/>
            <circle id="Ellipse_13467" data-name="Ellipse 13467" cx="1" cy="1" r="1" transform="translate(35.635 46)"/>
          </g>
        </g>
      </g>
    </g>
  </g>
</svg>
