<svg xmlns="http://www.w3.org/2000/svg" xmlns:xlink="http://www.w3.org/1999/xlink" width="113" height="113" viewBox="0 0 113 113">
  <defs>
    <filter id="Path_982547" x="0" y="0" width="113" height="113" filterUnits="userSpaceOnUse">
      <feOffset dy="3" input="SourceAlpha"/>
      <feGaussianBlur stdDeviation="3" result="blur"/>
      <feFlood flood-opacity="0.161"/>
      <feComposite operator="in" in2="blur"/>
      <feComposite in="SourceGraphic"/>
    </filter>
  </defs>
  <g id="Group_1208198" data-name="Group 1208198" transform="translate(-755 -5395)">
    <g id="Group_1208040" data-name="Group 1208040">
      <g id="Group_1207839" data-name="Group 1207839" transform="translate(-357 -1381.651)">
        <g id="Group_1201923" data-name="Group 1201923" transform="translate(-4174.49 4856.378)">
          <g id="Group_1176928" data-name="Group 1176928" transform="translate(5295.49 1926.273)">
            <g id="Group_1172322" data-name="Group 1172322" transform="translate(0 0)">
              <g id="Group_1164700" data-name="Group 1164700">
                <g id="Group_1160931" data-name="Group 1160931">
                  <g id="Group_1160749" data-name="Group 1160749">
                    <g id="Group_1158891" data-name="Group 1158891">
                      <g id="Group_1157406" data-name="Group 1157406">
                        <g id="Group_1155793" data-name="Group 1155793">
                          <g id="Group_1154704" data-name="Group 1154704">
                            <g id="Group_1150790" data-name="Group 1150790">
                              <g id="Group_1154214" data-name="Group 1154214">
                                <g id="Group_1152583" data-name="Group 1152583">
                                  <g id="Group_1146973" data-name="Group 1146973">
                                    <g id="Group_1146954" data-name="Group 1146954">
                                      <g transform="matrix(1, 0, 0, 1, -9, -6)" filter="url(#Path_982547)">
                                        <g id="Path_982547-2" data-name="Path 982547" transform="translate(9 6)" fill="#ebe9f0">
                                          <path d="M 47.5000114440918 93.49987030029297 C 41.28938293457031 93.49987030029297 35.26534652709961 92.28384399414062 29.5951976776123 89.88558959960938 C 24.11773109436035 87.56881713867188 19.19814491271973 84.25183868408203 14.97310447692871 80.02680206298828 C 10.74805164337158 75.80176544189453 7.43107795715332 70.88218688964844 5.114304542541504 65.40472412109375 C 2.716038227081299 59.73458862304688 1.500011444091797 53.71054840087891 1.500011444091797 47.49993515014648 C 1.500011444091797 41.28932189941406 2.716038227081299 35.26528167724609 5.114304542541504 29.59514808654785 C 7.43107795715332 24.1176815032959 10.74805164337158 19.1981086730957 14.97310447692871 14.97306823730469 C 19.19814491271973 10.74802875518799 24.11773109436035 7.431055068969727 29.5951976776123 5.11428165435791 C 35.26534652709961 2.716028451919556 41.28938293457031 1.500001788139343 47.5000114440918 1.500001788139343 C 53.71063995361328 1.500001788139343 59.73467636108398 2.716028451919556 65.40482330322266 5.11428165435791 C 70.88229370117188 7.431055068969727 75.8018798828125 10.74802875518799 80.02691650390625 14.97306823730469 C 84.25196838378906 19.1981086730957 87.56894683837891 24.1176815032959 89.88571929931641 29.59514808654785 C 92.28398132324219 35.26528167724609 93.50001525878906 41.28932189941406 93.50001525878906 47.49993515014648 C 93.50001525878906 53.71054840087891 92.28398132324219 59.73458862304688 89.88571929931641 65.40472412109375 C 87.56894683837891 70.88218688964844 84.25196838378906 75.80176544189453 80.02691650390625 80.02680206298828 C 75.8018798828125 84.25183868408203 70.88229370117188 87.56881713867188 65.40482330322266 89.88558959960938 C 59.73467636108398 92.28384399414062 53.71063995361328 93.49987030029297 47.5000114440918 93.49987030029297 Z" stroke="none"/>
                                          <path d="M 47.5000114440918 3 C 41.49122619628906 3 35.66378021240234 4.1761474609375 30.17951965332031 6.495796203613281 C 24.880859375 8.7369384765625 20.12153625488281 11.94596862792969 16.03376770019531 16.03373718261719 C 11.94598388671875 20.12149047851562 8.736968994140625 24.88081359863281 6.495811462402344 30.17947387695312 C 4.176162719726562 35.66371917724609 3.000007629394531 41.49116516113281 3.000007629394531 47.49993515014648 C 3.000007629394531 53.50870513916016 4.176162719726562 59.33615112304688 6.495811462402344 64.82039642333984 C 8.736968994140625 70.11905670166016 11.94598388671875 74.87837982177734 16.03376770019531 78.96613311767578 C 20.12153625488281 83.05390167236328 24.880859375 86.26293182373047 30.17951965332031 88.50407409667969 C 35.66378021240234 90.82372283935547 41.49122619628906 91.99987030029297 47.5000114440918 91.99987030029297 C 53.50879669189453 91.99987030029297 59.33624267578125 90.82372283935547 64.82050323486328 88.50407409667969 C 70.11916351318359 86.26293182373047 74.87848663330078 83.05390167236328 78.96625518798828 78.96613311767578 C 83.05403900146484 74.87837982177734 86.2630615234375 70.11905670166016 88.50421142578125 64.82039642333984 C 90.82386016845703 59.33615112304688 92.00001525878906 53.50870513916016 92.00001525878906 47.49993515014648 C 92.00001525878906 41.49116516113281 90.82386016845703 35.66371917724609 88.50421142578125 30.17947387695312 C 86.2630615234375 24.88081359863281 83.05403900146484 20.12149047851562 78.96625518798828 16.03373718261719 C 74.87848663330078 11.94596862792969 70.11916351318359 8.7369384765625 64.82050323486328 6.495796203613281 C 59.33624267578125 4.1761474609375 53.50879669189453 3 47.5000114440918 3 M 47.5000114440918 0 C 73.73353576660156 0 95.00001525878906 21.26644134521484 95.00001525878906 47.49993515014648 C 95.00001525878906 73.73342895507812 73.73353576660156 94.99987030029297 47.5000114440918 94.99987030029297 C 21.26648712158203 94.99987030029297 7.62939453125e-06 73.73342895507812 7.62939453125e-06 47.49993515014648 C 7.62939453125e-06 21.26644134521484 21.26648712158203 0 47.5000114440918 0 Z" stroke="none" fill="#453179"/>
                                        </g>
                                      </g>
                                    </g>
                                  </g>
                                </g>
                              </g>
                            </g>
                          </g>
                        </g>
                      </g>
                    </g>
                  </g>
                </g>
              </g>
            </g>
          </g>
        </g>
      </g>
      <g id="sensory_10655705" transform="translate(770.5 5402.828)">
        <circle id="Ellipse_13444" data-name="Ellipse 13444" cx="3.452" cy="3.452" r="3.452" transform="translate(38.124 16.775)" fill="#02c7dd"/>
        <path id="Path_1051997" data-name="Path 1051997" d="M80.825,57.968q0-.175-.007-.349a.7.7,0,0,1,.483-.7L99.815,50.9a.7.7,0,0,0,.45-.883l-.913-2.809a.7.7,0,0,0-.883-.45L79.956,52.777a.7.7,0,0,1-.8-.281,9.815,9.815,0,0,0-5.435-3.949.7.7,0,0,1-.516-.676V28.405a.7.7,0,0,0-.7-.7H69.549a.7.7,0,0,0-.7.7V47.872a.7.7,0,0,1-.516.676A9.814,9.814,0,0,0,62.9,52.5a.7.7,0,0,1-.8.281L43.582,46.762a.7.7,0,0,0-.883.45l-.913,2.809a.7.7,0,0,0,.45.883l18.514,6.016a.7.7,0,0,1,.483.7q-.007.174-.007.349a9.752,9.752,0,0,0,2.083,6.037.7.7,0,0,1,.02.85L51.887,80.605a.7.7,0,0,0,.155.979l2.389,1.736a.7.7,0,0,0,.979-.155L66.851,67.419a.705.705,0,0,1,.815-.243,19.8,19.8,0,0,0,6.718,0,.705.705,0,0,1,.815.243L86.641,83.165a.7.7,0,0,0,.979.155l2.389-1.736a.7.7,0,0,0,.155-.979L78.721,64.855a.7.7,0,0,1,.02-.85A9.75,9.75,0,0,0,80.825,57.968Z" transform="translate(-29.45 -13.354)" fill="#80d261"/>
        <path id="Path_1051998" data-name="Path 1051998" d="M160.263,20.228a5.082,5.082,0,0,0,1.235,2.178c1.966,2.438,6.132,5.878,11.423,5.878,5.507,0,9.8-3.726,11.653-6.171a4.4,4.4,0,0,0,1.005-1.884,4.4,4.4,0,0,0-1.005-1.884c-1.858-2.444-6.146-6.171-11.653-6.171-5.291,0-9.457,3.44-11.423,5.878A5.082,5.082,0,0,0,160.263,20.228Z" transform="translate(-131.345 -0.001)" fill="#dcf5f8"/>
        <path id="Path_1051999" data-name="Path 1051999" d="M224.749,19.252A16.109,16.109,0,0,0,215,13.229a17.077,17.077,0,0,1,5.546,4.621,4.4,4.4,0,0,1,1.005,1.884,4.4,4.4,0,0,1-1.005,1.884c-1.858,2.444-6.146,6.171-11.653,6.171a12.327,12.327,0,0,1-1.9-.148,13.263,13.263,0,0,0,6.107,1.55c5.507,0,9.8-3.726,11.653-6.171a4.4,4.4,0,0,0,1.005-1.884A4.406,4.406,0,0,0,224.749,19.252Z" transform="translate(-171.52 -0.909)" fill="#a6e7f0"/>
        <circle id="Ellipse_13445" data-name="Ellipse 13445" cx="3.452" cy="3.452" r="3.452" transform="translate(38.124 16.775)" fill="#017297"/>
        <path id="Path_1052000" data-name="Path 1052000" d="M387.643,147.762a5.921,5.921,0,0,0-2.44-3.125,5.253,5.253,0,0,1-2.43-3.764l-.656-5.245a3.911,3.911,0,0,0-3.88-3.426h0a3.91,3.91,0,0,0-3.88,3.426l-.656,5.245a5.254,5.254,0,0,1-2.43,3.764,5.921,5.921,0,0,0-2.44,3.125h0a2.166,2.166,0,0,0,2.055,2.851h2.1a3.6,3.6,0,0,1,2.883,1.442h0a2.964,2.964,0,0,0,4.742,0h0a3.6,3.6,0,0,1,2.883-1.442h2.1a2.166,2.166,0,0,0,2.055-2.851Z" transform="translate(-310.574 -103.201)" fill="#ffe5c2"/>
        <path id="Path_1052001" data-name="Path 1052001" d="M311.822,372.807h0a6.648,6.648,0,0,1-6.519-5.344l-2.167-10.833a3.792,3.792,0,0,1,1.037-3.425h0a3.792,3.792,0,0,1,4.785-.474h0a5.162,5.162,0,0,0,5.727,0h0a3.792,3.792,0,0,1,4.785.474h0a3.792,3.792,0,0,1,1.037,3.425l-2.167,10.833A6.648,6.648,0,0,1,311.822,372.807Z" transform="translate(-254.124 -292.263)" fill="#f79595"/>
        <path id="Path_1052002" data-name="Path 1052002" d="M338.464,353.224h0a3.787,3.787,0,0,0-2.525-1.107,3.79,3.79,0,0,1,.056,1.729l-2.167,10.833a6.648,6.648,0,0,1-6.519,5.344h0a6.638,6.638,0,0,1-2.157-.359,6.649,6.649,0,0,0,5.662,3.163h0a6.648,6.648,0,0,0,6.519-5.344L339.5,356.65A3.792,3.792,0,0,0,338.464,353.224Z" transform="translate(-273.116 -292.283)" fill="#f37c7c"/>
        <path id="Path_1052003" data-name="Path 1052003" d="M7.5,137.089a5.707,5.707,0,0,0,11.4.35c0-.06.006-.12.008-.18a9.973,9.973,0,0,1,2.564-6.292A7.989,7.989,0,1,0,7.5,125.676Z" transform="translate(0 -90.722)" fill="#ffdfcf"/>
        <path id="Path_1052004" data-name="Path 1052004" d="M86.2,343.886H80a2.47,2.47,0,0,0-2.47,2.47v4.454a2.47,2.47,0,0,0-3.483.01l-1,1a1.235,1.235,0,0,0,0,1.746l6.36,6.36h0l.033.033a2.185,2.185,0,0,1,.644,1.548v2.861a.741.741,0,0,0,.741.741h6.19a.741.741,0,0,0,.741-.741v-2.847a2.234,2.234,0,0,1,.666-1.585,6.373,6.373,0,0,0,1.891-4.539V348A4.116,4.116,0,0,0,86.2,343.886Z" transform="translate(-56.048 -285.206)" fill="#eb9c8d"/>
        <path id="Path_1052005" data-name="Path 1052005" d="M189.076,168.706a.7.7,0,0,0-.388-.627l-1.64-.82a.712.712,0,0,1-.353-.41,10.058,10.058,0,0,0-.5-1.208.712.712,0,0,1-.041-.54l.58-1.74a.7.7,0,0,0-.169-.717l-1.993-1.993a.7.7,0,0,0-.717-.169l-1.74.58a.711.711,0,0,1-.54-.041,10.1,10.1,0,0,0-1.208-.5.711.711,0,0,1-.41-.353l-.82-1.64a.7.7,0,0,0-.627-.388H175.69a.7.7,0,0,0-.627.388l-.82,1.64a.711.711,0,0,1-.41.353,10.031,10.031,0,0,0-1.208.5.712.712,0,0,1-.54.041l-1.74-.58a.7.7,0,0,0-.717.169l-1.993,1.993a.7.7,0,0,0-.169.717l.58,1.74a.711.711,0,0,1-.041.54,10.077,10.077,0,0,0-.5,1.208.711.711,0,0,1-.353.41l-1.64.82a.7.7,0,0,0-.388.627v2.819a.7.7,0,0,0,.388.627l1.64.82a.712.712,0,0,1,.353.41,10.057,10.057,0,0,0,.5,1.208.712.712,0,0,1,.041.54l-.58,1.74a.7.7,0,0,0,.169.717l1.993,1.993a.7.7,0,0,0,.717.169l1.74-.58a.711.711,0,0,1,.54.041,10.078,10.078,0,0,0,1.208.5.711.711,0,0,1,.41.353l.82,1.64a.7.7,0,0,0,.627.388h2.819a.7.7,0,0,0,.627-.388l.82-1.64a.711.711,0,0,1,.41-.353,10.056,10.056,0,0,0,1.208-.5.712.712,0,0,1,.54-.041l1.74.58a.7.7,0,0,0,.717-.169l1.993-1.993a.7.7,0,0,0,.169-.717l-.58-1.74a.711.711,0,0,1,.041-.54,10.076,10.076,0,0,0,.5-1.208.712.712,0,0,1,.353-.41l1.64-.82a.7.7,0,0,0,.388-.627v-2.819ZM177.1,174.471a4.355,4.355,0,1,1,4.355-4.355A4.355,4.355,0,0,1,177.1,174.471Z" transform="translate(-135.523 -125.502)" fill="#d4f2f6"/>
        <path id="Path_1052006" data-name="Path 1052006" d="M164.483,15.192A17.035,17.035,0,0,0,161.5,18.05a5.082,5.082,0,0,0-1.235,2.178A5.082,5.082,0,0,0,161.5,22.4c1.966,2.438,6.132,5.878,11.423,5.878,5.507,0,9.8-3.726,11.653-6.171a4.4,4.4,0,0,0,1.005-1.884,4.4,4.4,0,0,0-1.005-1.884c-1.858-2.444-6.146-6.171-11.653-6.171a12.68,12.68,0,0,0-4.02.665" transform="translate(-131.345)" fill="none" stroke="#000" stroke-linecap="round" stroke-linejoin="round" stroke-miterlimit="10" stroke-width="1.5"/>
        <circle id="Ellipse_13446" data-name="Ellipse 13446" cx="3.452" cy="3.452" r="3.452" transform="translate(38.124 16.775)" fill="none" stroke="#000" stroke-linecap="round" stroke-linejoin="round" stroke-miterlimit="10" stroke-width="1.5"/>
        <path id="Path_1052007" data-name="Path 1052007" d="M387.643,147.762a5.921,5.921,0,0,0-2.44-3.125,5.253,5.253,0,0,1-2.43-3.764l-.656-5.245a3.911,3.911,0,0,0-3.88-3.426h0a3.91,3.91,0,0,0-3.88,3.426l-.656,5.245a5.254,5.254,0,0,1-2.43,3.764,5.921,5.921,0,0,0-2.44,3.125h0a2.166,2.166,0,0,0,2.055,2.851h2.1a3.6,3.6,0,0,1,2.883,1.442h0a2.964,2.964,0,0,0,4.742,0h0a3.6,3.6,0,0,1,2.883-1.442h2.1a2.166,2.166,0,0,0,2.055-2.851Z" transform="translate(-310.574 -103.201)" fill="none" stroke="#000" stroke-linecap="round" stroke-linejoin="round" stroke-miterlimit="10" stroke-width="1.5"/>
        <path id="Path_1052008" data-name="Path 1052008" d="M311.822,372.807h0a6.648,6.648,0,0,1-6.519-5.344l-2.167-10.833a3.792,3.792,0,0,1,1.037-3.425h0a3.792,3.792,0,0,1,4.785-.474h0a5.162,5.162,0,0,0,5.727,0h0a3.792,3.792,0,0,1,4.785.474h0a3.792,3.792,0,0,1,1.037,3.425l-2.167,10.833A6.648,6.648,0,0,1,311.822,372.807Z" transform="translate(-254.124 -292.263)" fill="none" stroke="#000" stroke-linecap="round" stroke-linejoin="round" stroke-miterlimit="10" stroke-width="1.5"/>
        <line id="Line_821" data-name="Line 821" y2="11.942" transform="translate(57.699 61.335)" fill="none" stroke="#000" stroke-linecap="round" stroke-linejoin="round" stroke-miterlimit="10" stroke-width="1.5"/>
        <path id="Path_1052009" data-name="Path 1052009" d="M7.5,137.089a5.707,5.707,0,0,0,11.4.35c0-.06.006-.12.008-.18a9.973,9.973,0,0,1,2.564-6.292A7.989,7.989,0,1,0,7.5,125.676Z" transform="translate(0 -90.722)" fill="none" stroke="#000" stroke-linecap="round" stroke-linejoin="round" stroke-miterlimit="10" stroke-width="1.5"/>
        <path id="Path_1052010" data-name="Path 1052010" d="M46.252,156.141a3.386,3.386,0,0,0-2.393-5.625l-.145,0a3.39,3.39,0,0,0-3.386,3.387v3.206a1.828,1.828,0,0,0,.536,1.294l.026.026a1.829,1.829,0,0,1,0,2.588l-.026.026a1.829,1.829,0,0,0-.536,1.294v2.981a1.1,1.1,0,0,0,1.1,1.1" transform="translate(-28.225 -118.945)" fill="none" stroke="#000" stroke-linecap="round" stroke-linejoin="round" stroke-miterlimit="10" stroke-width="1.5"/>
        <path id="Path_1052011" data-name="Path 1052011" d="M90.316,348.457V348a4.116,4.116,0,0,0-4.116-4.116H80a2.47,2.47,0,0,0-2.47,2.47v4.454a2.47,2.47,0,0,0-3.483.01l-1,1a1.235,1.235,0,0,0,0,1.746l6.36,6.36h0l.033.033a2.185,2.185,0,0,1,.644,1.548v2.861a.741.741,0,0,0,.741.741h6.19a.741.741,0,0,0,.741-.741v-2.847a2.234,2.234,0,0,1,.666-1.585,6.373,6.373,0,0,0,1.891-4.539v-2.028" transform="translate(-56.049 -285.205)" fill="none" stroke="#000" stroke-linecap="round" stroke-linejoin="round" stroke-miterlimit="10" stroke-width="1.5"/>
        <path id="Path_1052012" data-name="Path 1052012" d="M107.221,393.27l2.882,2.882a1.827,1.827,0,0,0,1.687.481,2.561,2.561,0,0,1,2.99,1.747" transform="translate(-85.74 -327.666)" fill="none" stroke="#000" stroke-linecap="round" stroke-linejoin="round" stroke-miterlimit="10" stroke-width="1.5"/>
        <line id="Line_822" data-name="Line 822" y2="4.603" transform="translate(25.466 59.186)" fill="none" stroke="#000" stroke-linecap="round" stroke-linejoin="round" stroke-miterlimit="10" stroke-width="1.5"/>
        <line id="Line_823" data-name="Line 823" y2="4.603" transform="translate(29.278 59.186)" fill="none" stroke="#000" stroke-linecap="round" stroke-linejoin="round" stroke-miterlimit="10" stroke-width="1.5"/>
        <path id="Path_1052013" data-name="Path 1052013" d="M189.076,168.706a.7.7,0,0,0-.388-.627l-1.64-.82a.712.712,0,0,1-.353-.41,10.058,10.058,0,0,0-.5-1.208.712.712,0,0,1-.041-.54l.58-1.74a.7.7,0,0,0-.169-.717l-1.993-1.993a.7.7,0,0,0-.717-.169l-1.74.58a.711.711,0,0,1-.54-.041,10.1,10.1,0,0,0-1.208-.5.711.711,0,0,1-.41-.353l-.82-1.64a.7.7,0,0,0-.627-.388H175.69a.7.7,0,0,0-.627.388l-.82,1.64a.711.711,0,0,1-.41.353,10.031,10.031,0,0,0-1.208.5.712.712,0,0,1-.54.041l-1.74-.58a.7.7,0,0,0-.717.169l-1.993,1.993a.7.7,0,0,0-.169.717l.58,1.74a.711.711,0,0,1-.041.54,10.077,10.077,0,0,0-.5,1.208.711.711,0,0,1-.353.41l-1.64.82a.7.7,0,0,0-.388.627v2.819a.7.7,0,0,0,.388.627l1.64.82a.712.712,0,0,1,.353.41,10.057,10.057,0,0,0,.5,1.208.712.712,0,0,1,.041.54l-.58,1.74a.7.7,0,0,0,.169.717l1.993,1.993a.7.7,0,0,0,.717.169l1.74-.58a.711.711,0,0,1,.54.041,10.078,10.078,0,0,0,1.208.5.711.711,0,0,1,.41.353l.82,1.64a.7.7,0,0,0,.627.388h2.819a.7.7,0,0,0,.627-.388l.82-1.64a.711.711,0,0,1,.41-.353,10.056,10.056,0,0,0,1.208-.5.712.712,0,0,1,.54-.041l1.74.58a.7.7,0,0,0,.717-.169l1.993-1.993a.7.7,0,0,0,.169-.717l-.58-1.74a.711.711,0,0,1,.041-.54,10.076,10.076,0,0,0,.5-1.208.712.712,0,0,1,.353-.41l1.64-.82a.7.7,0,0,0,.388-.627v-2.819ZM177.1,174.471a4.355,4.355,0,1,1,4.355-4.355A4.355,4.355,0,0,1,177.1,174.471Z" transform="translate(-135.523 -125.502)" fill="none" stroke="#000" stroke-linecap="round" stroke-linejoin="round" stroke-miterlimit="10" stroke-width="1.5"/>
        <line id="Line_824" data-name="Line 824" x2="8.235" y2="2.676" transform="translate(21.389 40.344)" fill="none" stroke="#000" stroke-linecap="round" stroke-linejoin="round" stroke-miterlimit="10" stroke-width="1.5"/>
        <line id="Line_825" data-name="Line 825" x1="9.093" y1="2.954" transform="translate(23.348 36.402)" fill="none" stroke="#000" stroke-linecap="round" stroke-linejoin="round" stroke-miterlimit="10" stroke-width="1.5"/>
        <line id="Line_826" data-name="Line 826" x2="4.728" y2="6.508" transform="translate(45.751 54.064)" fill="none" stroke="#000" stroke-linecap="round" stroke-linejoin="round" stroke-miterlimit="10" stroke-width="1.5"/>
        <line id="Line_827" data-name="Line 827" x1="6.007" y1="8.268" transform="translate(50.262 52.865)" fill="none" stroke="#000" stroke-linecap="round" stroke-linejoin="round" stroke-miterlimit="10" stroke-width="1.5"/>
        <line id="Line_828" data-name="Line 828" y1="2.757" x2="8.486" transform="translate(53.528 40.263)" fill="none" stroke="#000" stroke-linecap="round" stroke-linejoin="round" stroke-miterlimit="10" stroke-width="1.5"/>
        <line id="Line_829" data-name="Line 829" x1="4.405" y2="1.431" transform="translate(50.712 37.925)" fill="none" stroke="#000" stroke-linecap="round" stroke-linejoin="round" stroke-miterlimit="10" stroke-width="1.5"/>
        <line id="Line_830" data-name="Line 830" x1="3.629" y2="1.179" transform="translate(59.805 35.223)" fill="none" stroke="#000" stroke-linecap="round" stroke-linejoin="round" stroke-miterlimit="10" stroke-width="1.5"/>
        <line id="Line_831" data-name="Line 831" y1="5.886" x2="4.277" transform="translate(33.125 54.064)" fill="none" stroke="#000" stroke-linecap="round" stroke-linejoin="round" stroke-miterlimit="10" stroke-width="1.5"/>
        <line id="Line_832" data-name="Line 832" x1="4.225" y2="5.815" transform="translate(28.665 52.865)" fill="none" stroke="#000" stroke-linecap="round" stroke-linejoin="round" stroke-miterlimit="10" stroke-width="1.5"/>
        <line id="Line_833" data-name="Line 833" y1="5.22" transform="translate(43.754 28.088)" fill="none" stroke="#000" stroke-linecap="round" stroke-linejoin="round" stroke-miterlimit="10" stroke-width="1.5"/>
        <line id="Line_834" data-name="Line 834" y2="5.22" transform="translate(39.398 28.088)" fill="none" stroke="#000" stroke-linecap="round" stroke-linejoin="round" stroke-miterlimit="10" stroke-width="1.5"/>
      </g>
    </g>
  </g>
</svg>
