<svg xmlns="http://www.w3.org/2000/svg" xmlns:xlink="http://www.w3.org/1999/xlink" width="98" height="98" viewBox="0 0 98 98">
  <defs>
    <filter id="Path_982547" x="0" y="0" width="98" height="98" filterUnits="userSpaceOnUse">
      <feOffset dy="3" input="SourceAlpha"/>
      <feGaussianBlur stdDeviation="3" result="blur"/>
      <feFlood flood-opacity="0.161"/>
      <feComposite operator="in" in2="blur"/>
      <feComposite in="SourceGraphic"/>
    </filter>
    <clipPath id="clip-path">
      <path id="path8121" d="M0-682.665H48.414v48.414H0Z" transform="translate(0 682.665)"/>
    </clipPath>
  </defs>
  <g id="Group_1208185" data-name="Group 1208185" transform="translate(-821 -3968.014)">
    <g id="Group_1208020" data-name="Group 1208020">
      <g id="Group_1207740" data-name="Group 1207740" transform="translate(630 1882.462)">
        <g id="Group_1207712" data-name="Group 1207712">
          <g id="Group_1207285" data-name="Group 1207285" transform="translate(0 344.552)">
            <g id="Group_1206883" data-name="Group 1206883" transform="translate(0 -209)">
              <g id="Group_1204569" data-name="Group 1204569" transform="translate(-81 -1890.336)">
                <g id="Group_1203962" data-name="Group 1203962" transform="translate(281 3846.336)">
                  <g id="Group_1203498" data-name="Group 1203498" transform="translate(0)">
                    <g id="Group_1202589" data-name="Group 1202589">
                      <g id="Group_1172010" data-name="Group 1172010">
                        <g id="Group_1171046" data-name="Group 1171046">
                          <g id="Group_1148525" data-name="Group 1148525">
                            <g transform="matrix(1, 0, 0, 1, -9, -6)" filter="url(#Path_982547)">
                              <g id="Path_982547-2" data-name="Path 982547" transform="translate(9 6)" fill="#fdfbec">
                                <path d="M 39.99999237060547 78.49998474121094 C 34.8018684387207 78.49998474121094 29.76002502441406 77.48226165771484 25.0145263671875 75.47508239746094 C 20.43014717102051 73.53604888916016 16.31264877319336 70.75984954833984 12.77639198303223 67.22359466552734 C 9.240137100219727 63.68733596801758 6.463936805725098 59.5698356628418 4.524903297424316 54.98546981811523 C 2.517725706100464 50.23995971679688 1.500003457069397 45.19811630249023 1.500003457069397 39.99999237060547 C 1.500003457069397 34.8018684387207 2.517725706100464 29.76002502441406 4.524903297424316 25.0145263671875 C 6.463936805725098 20.43014717102051 9.240137100219727 16.31264877319336 12.77639198303223 12.77639198303223 C 16.31264877319336 9.240137100219727 20.43014717102051 6.463936805725098 25.0145263671875 4.524903297424316 C 29.76002502441406 2.517725706100464 34.8018684387207 1.500003457069397 39.99999237060547 1.500003457069397 C 45.19811630249023 1.500003457069397 50.23995971679688 2.517725706100464 54.98546981811523 4.524903297424316 C 59.5698356628418 6.463936805725098 63.68733596801758 9.240137100219727 67.22359466552734 12.77639198303223 C 70.75984954833984 16.31264877319336 73.53604888916016 20.43014717102051 75.47508239746094 25.0145263671875 C 77.48226165771484 29.76002502441406 78.49998474121094 34.8018684387207 78.49998474121094 39.99999237060547 C 78.49998474121094 45.19812393188477 77.48226165771484 50.23995971679688 75.47508239746094 54.98546981811523 C 73.53604888916016 59.5698356628418 70.75984954833984 63.68733596801758 67.22359466552734 67.22359466552734 C 63.68733596801758 70.75984954833984 59.5698356628418 73.53604888916016 54.98546981811523 75.47508239746094 C 50.23995971679688 77.48226165771484 45.19812393188477 78.49998474121094 39.99999237060547 78.49998474121094 Z" stroke="none"/>
                                <path d="M 39.99999237060547 2.999992370605469 C 35.00370025634766 2.999992370605469 30.1584587097168 3.97784423828125 25.59884643554688 5.906402587890625 C 21.19327163696289 7.769805908203125 17.23603057861328 10.43805694580078 13.83704376220703 13.83704376220703 C 10.43805694580078 17.23603057861328 7.769805908203125 21.19327163696289 5.906402587890625 25.59884643554688 C 3.97784423828125 30.1584587097168 2.999992370605469 35.00370025634766 2.999992370605469 39.99999237060547 C 2.999992370605469 44.99628448486328 3.97784423828125 49.84152603149414 5.906402587890625 54.40113830566406 C 7.769805908203125 58.80671310424805 10.43805694580078 62.76395416259766 13.83704376220703 66.16294097900391 C 17.23603057861328 69.56191253662109 21.19327163696289 72.23016357421875 25.59884643554688 74.09356689453125 C 30.1584587097168 76.02212524414062 35.00370025634766 76.99997711181641 39.99999237060547 76.99997711181641 C 44.99628448486328 76.99997711181641 49.84152603149414 76.02212524414062 54.40113830566406 74.09356689453125 C 58.80671310424805 72.23016357421875 62.76395416259766 69.56191253662109 66.16294097900391 66.16294097900391 C 69.56191253662109 62.76395416259766 72.23016357421875 58.80671310424805 74.09356689453125 54.40113830566406 C 76.02212524414062 49.84152603149414 76.99997711181641 44.99628448486328 76.99997711181641 39.99999237060547 C 76.99997711181641 35.00370025634766 76.02212524414062 30.1584587097168 74.09356689453125 25.59884643554688 C 72.23016357421875 21.19327163696289 69.56191253662109 17.23603057861328 66.16294097900391 13.83704376220703 C 62.76395416259766 10.43805694580078 58.80671310424805 7.769805908203125 54.40113830566406 5.906402587890625 C 49.84152603149414 3.97784423828125 44.99628448486328 2.999992370605469 39.99999237060547 2.999992370605469 M 39.99999237060547 -7.62939453125e-06 C 62.09137725830078 -7.62939453125e-06 79.99997711181641 17.90860748291016 79.99997711181641 39.99999237060547 C 79.99997711181641 62.09137725830078 62.09137725830078 79.99997711181641 39.99999237060547 79.99997711181641 C 17.90860748291016 79.99997711181641 -7.62939453125e-06 62.09137725830078 -7.62939453125e-06 39.99999237060547 C -7.62939453125e-06 17.90860748291016 17.90860748291016 -7.62939453125e-06 39.99999237060547 -7.62939453125e-06 Z" stroke="none" fill="#83793c"/>
                              </g>
                            </g>
                          </g>
                        </g>
                      </g>
                    </g>
                  </g>
                </g>
              </g>
            </g>
          </g>
          <g id="g8115" transform="translate(215.793 2790.01)">
            <g id="g8117" transform="translate(0 -682.665)">
              <g id="g8119" clip-path="url(#clip-path)">
                <g id="g8125" transform="translate(-33.259 0.709)">
                  <path id="path8127" d="M-338.457-377.826h-25.835v-25.108c5.31-7.679,37.755-5.416,25.835,25.108" transform="translate(364.292 406.667)" fill="#fbdf63"/>
                </g>
                <g id="g8129" transform="translate(-33.259 0.709)">
                  <path id="path8131" d="M-338.457-377.826h-.619c6.164-24.728-15.887-30.6-25.216-24.374v-.734c5.31-7.679,37.755-5.416,25.835,25.108" transform="translate(364.292 406.667)" fill="#f9d11f"/>
                </g>
              </g>
            </g>
            <g id="g8265" transform="translate(0 -682.665)">
              <g id="g8267" clip-path="url(#clip-path)">
                <g id="g8273" transform="translate(-33.259 51.036)">
                  <path id="path8275" d="M-338.457-377.654h-25.835v-25.1c5.31-7.676,37.755-5.413,25.835,25.1" transform="translate(364.292 406.481)" fill="#003343"/>
                </g>
                <g id="g8277" transform="translate(-33.259 51.036)">
                  <path id="path8279" d="M-338.457-377.654h-.619c6.164-24.717-15.887-30.585-25.216-24.362v-.734c5.31-7.676,37.755-5.413,25.835,25.1" transform="translate(364.292 406.481)" fill="#002439"/>
                </g>
              </g>
            </g>
            <g id="g8281" transform="translate(0 -682.665)">
              <g id="g8283" clip-path="url(#clip-path)">
                <g id="g8289" transform="translate(17.066 51.014)">
                  <path id="path8291" d="M-338.457-377.826h-25.835v-25.108c5.31-7.679,37.755-5.416,25.835,25.108" transform="translate(364.292 406.667)" fill="#ff7e50"/>
                </g>
                <g id="g8293" transform="translate(17.066 51.014)">
                  <path id="path8295" d="M-338.457-377.826h-.619c6.164-24.728-15.887-30.6-25.216-24.374v-.734c5.31-7.679,37.755-5.416,25.835,25.108" transform="translate(364.292 406.667)" fill="#ff6247"/>
                </g>
                <g id="g8297" transform="translate(2.941 54.225)">
                  <path id="path8299" d="M-233.028-131.751v15.573h-14.6c-12.2-25.649,14.6-34.273,14.6-15.573" transform="translate(250.816 141.808)" fill="#ffa68a"/>
                </g>
                <g id="g8301" transform="translate(2.941 54.225)">
                  <path id="path8303" d="M-233.028-131.751c-.9-16.1-20.23-9.82-14.176,15.573h-.427c-12.2-25.649,14.6-34.273,14.6-15.573" transform="translate(250.816 141.808)" fill="#ff7e50"/>
                </g>
              </g>
            </g>
          </g>
        </g>
      </g>
      <g id="Page-1" transform="translate(843.786 3986.432)">
        <g id="_037---Human-AI-Development" data-name="037---Human-AI-Development" transform="translate(-0.001 -0.001)">
          <g id="Icons_copy" transform="translate(0.918 0.921)">
            <path id="Path" d="M43.451,50.689A1.833,1.833,0,0,1,41.8,53.328H23.26a1.847,1.847,0,0,1-1.747-1.26c-.6-1.747-1.94-4.827-4.138-5.829a75.232,75.232,0,0,1-8,2.418,2.5,2.5,0,0,1-2.942-1.83c-.791-2.271.294-2.887-.046-4.239-.239-.938-1.131-1.168-1.821-1.664-.57-.4.451-1.7.451-1.7s-1.076-.8-1.471-1.14.166-.91.671-1.986a2.51,2.51,0,0,0,.175-1.49c-.184-.984-1.683-1.361-2.418-1.912-1.535-1.14-1.618-1.416,2.4-5.747A6.567,6.567,0,0,0,5.9,23.483c.074-.432.506-.9.506-1.425-.018-1.315-1.922-1.857-2.1-3.135-.138-.993,1.14-2.8,1.554-4.579a24.475,24.475,0,0,1,.873-3.218A15.118,15.118,0,0,1,14.1,2.676,26.742,26.742,0,0,1,24.786.046C32.923-.359,41.851,1.839,46.2,9.4a21.208,21.208,0,0,1,2.611,10.84c-.1,6.758-4.395,9.121-6.3,13.5a16.458,16.458,0,0,0-1.269,8.56,25.76,25.76,0,0,0,2.2,8.367Z" transform="translate(-0.998 0)" fill="#ffe0b2" fill-rule="evenodd"/>
            <path id="Path-2" data-name="Path" d="M27.867,44.02c.055,2.731-3.963,4.036-5.2,4.432-.524.166-2.023.708-3.852,1.333" transform="translate(-2.433 -3.546)" fill="#ffe0b2" fill-rule="evenodd"/>
            <path id="Path-3" data-name="Path" d="M45.569,50.662a25.76,25.76,0,0,1-2.2-8.367,16.458,16.458,0,0,1,1.269-8.56c1.9-4.377,6.2-6.74,6.3-13.5A21.208,21.208,0,0,0,48.327,9.4C44.065,1.991,35.409-.261,27.406.032,34.572.319,41.794,2.837,45.569,9.4a21.208,21.208,0,0,1,2.611,10.84c-.1,6.758-4.395,9.121-6.3,13.5a16.458,16.458,0,0,0-1.269,8.56,25.76,25.76,0,0,0,2.2,8.367l.009.028a1.833,1.833,0,0,1-1.655,2.639h2.758a1.833,1.833,0,0,0,1.655-2.639Z" transform="translate(-3.125 -0.001)" fill="#dfc49c" fill-rule="evenodd"/>
            <path id="Path-4" data-name="Path" d="M20.05,7.559a2.882,2.882,0,0,0-1.455,4.273l-.027.064a3.844,3.844,0,0,0-3.644,3.83,3.89,3.89,0,0,0,.142,1.033,4.175,4.175,0,0,0-.212,6.084,3.2,3.2,0,0,0,1.752,5.7,3.431,3.431,0,0,0-.4,1.617,3.528,3.528,0,0,0,3.53,3.53,4.171,4.171,0,0,0,8.025-1.6V7.385s0-5.48-7.713.174Z" transform="translate(-2.016 -0.403)" fill="#ef314c" fill-rule="evenodd"/>
            <path id="Path-5" data-name="Path" d="M24.725,5.313a2.654,2.654,0,0,1,1.029,2.072V32.092a4.158,4.158,0,0,1-2.805,3.923,4.149,4.149,0,0,0,5.564-3.923V7.385s0-3.4-3.787-2.072Z" transform="translate(-2.766 -0.403)" fill="#bb193b" fill-rule="evenodd"/>
            <path id="Path-6" data-name="Path" d="M29,11.436a9.194,9.194,0,1,1,0,18.389v6.436h1.324a1.083,1.083,0,0,0,.947-.561l.984-1.83,3.834-1.581,1.986.588a1.067,1.067,0,0,0,1.067-.276l1.839-1.839a1.084,1.084,0,0,0,.267-1.067l-.588-1.986,1.591-3.843,1.821-.984a1.094,1.094,0,0,0,.561-.947V19.325a1.094,1.094,0,0,0-.561-.947l-1.821-.984-1.591-3.843.588-1.986A1.084,1.084,0,0,0,40.98,10.5L39.142,8.659a1.067,1.067,0,0,0-1.067-.276l-1.986.588L32.255,7.391l-.984-1.83A1.083,1.083,0,0,0,30.324,5H29Z" transform="translate(-3.254 -0.403)" fill="#9e9e9e" fill-rule="evenodd"/>
            <g id="Group_1208019" data-name="Group 1208019" transform="translate(25.746 4.597)">
              <path id="Path-7" data-name="Path" d="M44.732,18.671l-1.821-.984-1.591-3.843.588-1.986a1.084,1.084,0,0,0-.267-1.067L39.8,8.952a1.067,1.067,0,0,0-1.067-.276l-1.518.45,1.665,1.665a1.084,1.084,0,0,1,.267,1.067l-.588,1.986,1.591,3.843,1.821.984a1.094,1.094,0,0,1,.561.947v2.611a1.094,1.094,0,0,1-.561.947l-1.821.984L38.562,28l.588,1.986a1.084,1.084,0,0,1-.267,1.067l-1.665,1.665,1.518.45a1.067,1.067,0,0,0,1.067-.276l1.839-1.839a1.084,1.084,0,0,0,.267-1.067L41.321,28l1.591-3.843,1.821-.984a1.094,1.094,0,0,0,.561-.947V19.618A1.094,1.094,0,0,0,44.732,18.671Z" transform="translate(-29.662 -5.293)" fill="#707070" fill-rule="evenodd"/>
              <path id="Path-8" data-name="Path" d="M29.5,7.391l3.834,1.581,1.605-.478-2.681-1.1-.984-1.83A1.083,1.083,0,0,0,30.324,5H29V6.471Z" transform="translate(-29 -5)" fill="#707070" fill-rule="evenodd"/>
              <path id="Path-9" data-name="Path" d="M33.331,34.68,29.5,36.261l-.5.919v1.471h1.324a1.083,1.083,0,0,0,.947-.561l.984-1.83,2.681-1.1Z" transform="translate(-29 -7.391)" fill="#707070" fill-rule="evenodd"/>
            </g>
          </g>
          <g id="Icons">
            <path id="Shape" d="M5.912,25.251a5.618,5.618,0,0,1-1.295,2.993c-2.887,3.115-3.709,4.189-3.61,5.3a2.666,2.666,0,0,0,1.34,1.811c.6.451,1.992.969,2.061,1.341a2.285,2.285,0,0,1-.5,1.68c-.359.635-.9,1.6-.051,2.311.2.176.539.443.85.681a2.323,2.323,0,0,0-.3,1.333,1.319,1.319,0,0,0,.54.894c.665.474,1.345.671,1.464,1.137a1.971,1.971,0,0,1-.076,1.033,5.211,5.211,0,0,0,.146,3.281,3.4,3.4,0,0,0,4,2.427,74.843,74.843,0,0,0,7.735-2.322c1.268.757,2.473,2.6,3.344,5.129a2.77,2.77,0,0,0,2.614,1.882H42.72a2.758,2.758,0,0,0,2.469-3.989A25.268,25.268,0,0,1,43.074,44.1a15.6,15.6,0,0,1,1.2-8.082A20.065,20.065,0,0,1,46.7,32.157c1.82-2.46,3.881-5.248,3.947-9.989a22.009,22.009,0,0,0-2.729-11.315C44.03,4.118,35.939.54,25.662,1.046A27.621,27.621,0,0,0,14.608,3.775a15.987,15.987,0,0,0-7.815,8.951,27.112,27.112,0,0,0-.906,3.329,12.493,12.493,0,0,1-.812,2.157,5.529,5.529,0,0,0-.757,2.758A3.512,3.512,0,0,0,5.657,23.02c.45.414.745.7.748.97a1.671,1.671,0,0,1-.177.428,2.824,2.824,0,0,0-.316.834ZM6.9,21.665c-.368-.341-.721-.663-.76-.947a5.95,5.95,0,0,1,.614-1.755,14.153,14.153,0,0,0,.925-2.492,25.59,25.59,0,0,1,.839-3.11,14.189,14.189,0,0,1,6.925-7.948,25.8,25.8,0,0,1,10.312-2.53c4.517-.223,15.561.2,20.574,8.893a20.175,20.175,0,0,1,2.485,10.371c-.057,4.149-1.772,6.467-3.586,8.919a21.742,21.742,0,0,0-2.636,4.218,17.446,17.446,0,0,0-1.341,9.036,27.063,27.063,0,0,0,2.3,8.686.919.919,0,0,1-.828,1.32H24.177a.93.93,0,0,1-.874-.637,13.578,13.578,0,0,0-3.02-5.246c.976-.342,1.809-.638,2.137-.742,3.933-1.238,5.9-3.034,5.847-5.333a.909.909,0,0,0-.941-.9.919.919,0,0,0-.9.941c.023.95-.75,2.334-4.562,3.533-2.666.848-7.926,2.936-11.754,3.733a1.628,1.628,0,0,1-1.889-1.234,3.391,3.391,0,0,1-.092-2.256,3.705,3.705,0,0,0,.07-1.908c-.276-1.073-1.022-1.487-1.889-2a3.487,3.487,0,0,1,.353-.573.919.919,0,0,0-.177-1.3c-.221-.164-.747-.559-1.123-.861.184-.342.387-.669.606-1.135a3.41,3.41,0,0,0,.247-2.057C6,35.226,4.931,34.676,4.144,34.274a4.7,4.7,0,0,1-1.306-.891c.016-.531,2.039-2.715,3.126-3.889a7.349,7.349,0,0,0,1.76-3.938,4.078,4.078,0,0,0,.516-1.589,3.205,3.205,0,0,0-1.343-2.3Z" transform="translate(-0.999 -0.999)"/>
            <path id="Shape-2" data-name="Shape" d="M16.316,30.97a4.448,4.448,0,0,0,3.751,5.364,5.086,5.086,0,0,0,7.7,1.428v2.1a.919.919,0,0,0,1.839,0v-.919h.4a2,2,0,0,0,1.757-1.044l.828-1.541,3.23-1.332,1.677.5a1.965,1.965,0,0,0,1.975-.508l1.839-1.839a2,2,0,0,0,.5-1.978l-.5-1.674,1.344-3.24,1.549-.838a2.017,2.017,0,0,0,1.025-1.747V21.083a2.023,2.023,0,0,0-1.044-1.756L42.656,18.5l-1.341-3.24.5-1.677a2,2,0,0,0-.5-1.975L39.485,9.779A1.979,1.979,0,0,0,37.5,9.26l-1.674.5-3.23-1.332-.828-1.543a1.992,1.992,0,0,0-1.758-1.043h-.4V4.919a.919.919,0,1,0-1.839,0V6.106c-1.655-.723-4.032.064-7.259,2.414a3.747,3.747,0,0,0-2.243,4.44,4.761,4.761,0,0,0-3.333,4.525,4.829,4.829,0,0,0,.061.726,5.074,5.074,0,0,0-.443,6.325,4.1,4.1,0,0,0-.9,2.574,4.144,4.144,0,0,0,2.67,3.859ZM29.6,14.168a8.275,8.275,0,0,1,0,16.442Zm.4-6.49a.165.165,0,0,1,.137.076l.984,1.831a.919.919,0,0,0,.46.414l3.834,1.581a.914.914,0,0,0,.611.032l1.983-.588a.155.155,0,0,1,.158.043l1.839,1.839a.163.163,0,0,1,.035.155l-.588,1.986a.919.919,0,0,0,.032.612L41.082,19.5a.919.919,0,0,0,.413.46l1.807.972a.184.184,0,0,1,.092.148v2.611a.172.172,0,0,1-.079.138l-1.82.984a.919.919,0,0,0-.413.46l-1.591,3.843a.919.919,0,0,0-.032.612l.588,1.983a.164.164,0,0,1-.034.158l-1.849,1.85a.144.144,0,0,1-.145.033l-1.986-.588a.925.925,0,0,0-.611.032l-3.834,1.581a.919.919,0,0,0-.46.414l-.982,1.828a.166.166,0,0,1-.139.077h-.4V32.456a10.108,10.108,0,0,0,0-20.136V7.678ZM19.7,14.554a2.927,2.927,0,0,1,2.7,1.8.919.919,0,0,0,1.7-.712,4.753,4.753,0,0,0-3.97-2.9,1.961,1.961,0,0,1,3.608-1.536.919.919,0,1,0,1.672-.765,3.793,3.793,0,0,0-1.733-1.8c2.115-1.185,3.066-1.019,3.411-.848.655.325.678,1.339.678,1.341v3.77a2.813,2.813,0,0,0-1.006-.193.919.919,0,0,0,0,1.839,1.011,1.011,0,0,1,1.006,1V33.85a3.252,3.252,0,0,1-6.252,1.25.919.919,0,0,0-.849-.565,2.612,2.612,0,0,1-2.609-2.61,2.528,2.528,0,0,1,.29-1.184.919.919,0,0,0-.744-1.35,2.292,2.292,0,0,1-2.115-2.278,2.262,2.262,0,0,1,.385-1.249,5.064,5.064,0,0,0,2.866.885.919.919,0,0,0,0-1.839,3.252,3.252,0,0,1-2.141-5.7,1,1,0,0,0,.281-.935,2.985,2.985,0,0,1-.108-.79A2.935,2.935,0,0,1,19.7,14.554Z" transform="translate(-2.018 -1.24)"/>
            <path id="Path-10" data-name="Path" d="M21.487,23.338a1.958,1.958,0,0,1-.9.808.92.92,0,1,0,.724,1.691,3.807,3.807,0,0,0,2.108-2.3,5.03,5.03,0,0,0,3.2-1.452.919.919,0,0,0-1.3-1.3,3.252,3.252,0,0,1-4.707-.113.919.919,0,1,0-1.361,1.236,5.088,5.088,0,0,0,2.239,1.429Z" transform="translate(-2.449 -2.558)" fill-rule="evenodd"/>
            <path id="Path-11" data-name="Path" d="M26.331,26.84a5.333,5.333,0,0,0-.586.032,4.066,4.066,0,0,0-3.5,2.672,4.269,4.269,0,0,0,1.034,4.446,2.62,2.62,0,0,1,.774,1.839.919.919,0,1,0,1.839,0,4.456,4.456,0,0,0-1.3-3.126,2.444,2.444,0,0,1-.616-2.538A2.24,2.24,0,0,1,25.942,28.7a3.609,3.609,0,0,1,.389-.021.919.919,0,1,0,0-1.839Z" transform="translate(-2.692 -3.08)" fill-rule="evenodd"/>
          </g>
        </g>
      </g>
    </g>
  </g>
</svg>
