<svg xmlns="http://www.w3.org/2000/svg" xmlns:xlink="http://www.w3.org/1999/xlink" width="108" height="108" viewBox="0 0 108 108">
  <defs>
    <filter id="Path_904820" x="0" y="0" width="108" height="108" filterUnits="userSpaceOnUse">
      <feOffset dy="3" input="SourceAlpha"/>
      <feGaussianBlur stdDeviation="3" result="blur"/>
      <feFlood flood-opacity="0.161"/>
      <feComposite operator="in" in2="blur"/>
      <feComposite in="SourceGraphic"/>
    </filter>
    <clipPath id="clip-path">
      <path id="path5484" d="M0-682.665H69.234v69.234H0Z" transform="translate(0 682.665)"/>
    </clipPath>
  </defs>
  <g id="Group_1208169" data-name="Group 1208169" transform="translate(-619.477 -328.148)">
    <g id="Group_1207936" data-name="Group 1207936">
      <g id="Group_1201662" data-name="Group 1201662" transform="translate(628.477 334.148)">
        <g id="Group_1173585" data-name="Group 1173585" transform="translate(0 0)">
          <g id="Group_1173428" data-name="Group 1173428">
            <g id="Group_1171958" data-name="Group 1171958">
              <g id="Group_1167341" data-name="Group 1167341">
                <g id="Group_1166792" data-name="Group 1166792">
                  <g transform="matrix(1, 0, 0, 1, -9, -6)" filter="url(#Path_904820)">
                    <g id="Path_904820-2" data-name="Path 904820" transform="translate(9 6)" fill="#effbfe">
                      <path d="M 44.99999618530273 88.49999237060547 C 39.12687301635742 88.49999237060547 33.43022155761719 87.35006713867188 28.06829643249512 85.08216857910156 C 22.88852119445801 82.89130401611328 18.23629570007324 79.75457763671875 14.24084663391113 75.75914001464844 C 10.24540901184082 71.76369476318359 7.108683586120605 67.11146545410156 4.917821407318115 61.93169403076172 C 2.649921178817749 56.56976699829102 1.499996185302734 50.87311553955078 1.499996185302734 44.99999237060547 C 1.499996185302734 39.12686920166016 2.649921178817749 33.43021774291992 4.917821407318115 28.06829261779785 C 7.108683586120605 22.88851737976074 10.24540901184082 18.23630523681641 14.24084663391113 14.24085521697998 C 18.23629570007324 10.24540519714355 22.88852119445801 7.108692169189453 28.06829643249512 4.917829990386963 C 33.43022155761719 2.649929761886597 39.12687301635742 1.500004887580872 44.99999618530273 1.500004887580872 C 50.87311935424805 1.500004887580872 56.56977081298828 2.649929761886597 61.93169784545898 4.917829990386963 C 67.11147308349609 7.108692169189453 71.76369476318359 10.24540519714355 75.75914764404297 14.24085521697998 C 79.75458526611328 18.23630523681641 82.89131164550781 22.88851737976074 85.08216857910156 28.06829261779785 C 87.35007476806641 33.43021774291992 88.5 39.12686920166016 88.5 44.99999237060547 C 88.5 50.87311553955078 87.35007476806641 56.56976699829102 85.08216857910156 61.93169403076172 C 82.89131164550781 67.11146545410156 79.75458526611328 71.76369476318359 75.75914764404297 75.75914001464844 C 71.76369476318359 79.75457763671875 67.11147308349609 82.89130401611328 61.93169784545898 85.08216857910156 C 56.56977081298828 87.35006713867188 50.87311935424805 88.49999237060547 44.99999618530273 88.49999237060547 Z" stroke="none"/>
                      <path d="M 44.99999618530273 2.999992370605469 C 39.32870864868164 2.999992370605469 33.82865142822266 4.11004638671875 28.65262603759766 6.299331665039062 C 23.65165710449219 8.414566040039062 19.15968322753906 11.44333648681641 15.301513671875 15.30150604248047 C 11.44333648681641 19.15967559814453 8.414566040039062 23.65164947509766 6.299339294433594 28.65262222290039 C 4.110054016113281 33.82864761352539 2.999992370605469 39.32870483398438 2.999992370605469 44.99999237060547 C 2.999992370605469 50.67127990722656 4.110054016113281 56.17132186889648 6.299339294433594 61.34736633300781 C 8.414566040039062 66.34833526611328 11.44333648681641 70.84029388427734 15.301513671875 74.69846343994141 C 19.15968322753906 78.55663299560547 23.65165710449219 81.58540344238281 28.65262603759766 83.70063781738281 C 33.82865142822266 85.88992309570312 39.32870864868164 86.99997711181641 44.99999618530273 86.99997711181641 C 50.67128372192383 86.99997711181641 56.17134094238281 85.88992309570312 61.34736633300781 83.70063781738281 C 66.34834289550781 81.58540344238281 70.84030914306641 78.55663299560547 74.69847869873047 74.69846343994141 C 78.55665588378906 70.84029388427734 81.58542633056641 66.34833526611328 83.70065307617188 61.34736633300781 C 85.88993835449219 56.17132186889648 87 50.67127990722656 87 44.99999237060547 C 87 39.32870483398438 85.88993835449219 33.82864761352539 83.70065307617188 28.65262222290039 C 81.58542633056641 23.65164947509766 78.55665588378906 19.15967559814453 74.69847869873047 15.30150604248047 C 70.84030914306641 11.44333648681641 66.34834289550781 8.414566040039062 61.34736633300781 6.299331665039062 C 56.17134094238281 4.11004638671875 50.67128372192383 2.999992370605469 44.99999618530273 2.999992370605469 M 44.99999618530273 -7.62939453125e-06 C 69.85281372070312 -7.62939453125e-06 90 20.14717864990234 90 44.99999237060547 C 90 69.85279083251953 69.85281372070312 89.99997711181641 44.99999618530273 89.99997711181641 C 20.14717864990234 89.99997711181641 -7.62939453125e-06 69.85279083251953 -7.62939453125e-06 44.99999237060547 C -7.62939453125e-06 20.14717864990234 20.14717864990234 -7.62939453125e-06 44.99999618530273 -7.62939453125e-06 Z" stroke="none" fill="#497f88"/>
                    </g>
                  </g>
                </g>
              </g>
            </g>
          </g>
        </g>
      </g>
      <g id="g5478" transform="translate(638.86 1027.196)">
        <g id="g5480" transform="translate(0 -682.665)">
          <g id="g5482" clip-path="url(#clip-path)">
            <g id="g5488" transform="translate(46.06 8.266)">
              <path id="path5490" d="M-14.557,0A3.623,3.623,0,0,0-16.2.389l.759,6.84a3.6,3.6,0,0,0,.884.108,3.667,3.667,0,0,0,3.669-3.669A3.668,3.668,0,0,0-14.557,0" transform="translate(16.2)" fill="#ffcbbe"/>
            </g>
            <g id="g5492" transform="translate(17.863 8.266)">
              <path id="path5494" d="M-32.5,0a3.668,3.668,0,0,0-3.669,3.669A3.667,3.667,0,0,0-32.5,7.337a3.725,3.725,0,0,0,.9-.111L-30.848.4A3.627,3.627,0,0,0-32.5,0" transform="translate(36.173)" fill="#ffcbbe"/>
            </g>
            <g id="g5496" transform="translate(12.762 23.69)">
              <path id="path5498" d="M-132.984,0l-4.376,8.361-7.59-.662-3.043-3.849L-144.95,0Z" transform="translate(147.993)" fill="#f2728d"/>
            </g>
            <g id="g5500" transform="translate(9.718 23.69)">
              <path id="path5502" d="M-53.927,0V7.7L-56.6,7.464a3.725,3.725,0,0,1-2.431-1.2,3.728,3.728,0,0,1-.983-2.527A3.739,3.739,0,0,1-56.273,0Z" transform="translate(60.013)" fill="#ffddcf"/>
            </g>
            <g id="g5504" transform="translate(41.463 23.69)">
              <path id="path5506" d="M-136.23-33.128l-3.409,3.959-7.59.663-4.376-8.361h11.966Z" transform="translate(151.605 36.867)" fill="#ea5e86"/>
            </g>
            <g id="g5508" transform="translate(53.429 23.69)">
              <path id="path5510" d="M-53.927-33.128A3.738,3.738,0,0,1-57.341-29.4l-2.672.234v-7.7h2.346a3.727,3.727,0,0,1,2.645,1.1,3.721,3.721,0,0,1,1.1,2.644" transform="translate(60.013 36.867)" fill="#ffcbbe"/>
            </g>
            <g id="g5512" transform="translate(34.617 45.666)">
              <path id="path5514" d="M-59.36-169.679l-4.986-3.831-1.713-9.583,11.018-5.736.577,15.319Z" transform="translate(66.06 188.83)" fill="#ea5e86"/>
            </g>
            <g id="g5516" transform="translate(23.023 45.666)">
              <path id="path5518" d="M-102.726-50.824l-1.713,9.583-5.409,3.381-4.472-3.381.576-15.319Z" transform="translate(114.32 56.56)" fill="#f2728d"/>
            </g>
            <g id="g5520" transform="translate(21.919 23.69)">
              <path id="path5522" d="M-180.85-224.477a13.649,13.649,0,0,1-7.713,2.377,13.647,13.647,0,0,1-7.712-2.377c-11.7-8.008.867-25.335.867-25.335h13.691a0,0,0,0,1,0,0c.133.183,12.507,17.37.865,25.334" transform="translate(201.262 249.813)" fill="#fd8b9b"/>
            </g>
            <g id="g5524" transform="translate(34.098 21.816)">
              <path id="path5526" d="M-72.941-241.083a13.649,13.649,0,0,1-7.713,2.377l.068-.045c12.611-8.629-.587-27.306-.587-27.306l.325-.362,1.682-1.874,5.359,1.874a0,0,0,0,1,0,0c.133.183,12.507,17.37.865,25.334" transform="translate(81.173 268.293)" fill="#f2728d"/>
            </g>
            <g id="g5528" transform="translate(36.33 60.986)">
              <path id="path5530" d="M-88.36-22.261a4.725,4.725,0,0,1-4.725,4.722,4.725,4.725,0,0,1-4.65-3.893l-.6-3.341h9.882l.088,2.333c0,.061,0,.12,0,.18" transform="translate(98.333 24.773)" fill="#ffcbbe"/>
            </g>
            <g id="g5532" transform="translate(22.932 60.986)">
              <path id="path5534" d="M-.809,0H9.071l-.6,3.341A4.724,4.724,0,0,1-.9,2.333Z" transform="translate(0.901)" fill="#ffddcf"/>
            </g>
            <g id="g5536" transform="translate(22.252 1.014)">
              <path id="path5538" d="M-207.272-109.627c0,6.833-4.187,12.373-11.021,12.373a12.373,12.373,0,0,1-12.373-12.373A12.373,12.373,0,0,1-218.293-122c6.833,0,11.021,5.54,11.021,12.373" transform="translate(230.666 122)" fill="#ffddcf"/>
            </g>
            <g id="g5540" transform="translate(35.202 4.124)">
              <path id="path5542" d="M-44.688,0-45.3,3.162a19.082,19.082,0,0,1,.768,5.376,19.007,19.007,0,0,1-5.2,13.085,12.373,12.373,0,0,0,11.8-12.36A12.318,12.318,0,0,0-40.512,1.7Z" transform="translate(49.732)" fill="#ffcbbe"/>
            </g>
            <g id="g5544" transform="translate(24.827 1.014)">
              <path id="path5546" d="M-173.609-42.657h0a12.352,12.352,0,0,0-9.8-4.814,12.352,12.352,0,0,0-9.8,4.816c4.536.239,4.781,2.686,9.783,2.686s5.248-2.456,9.811-2.687" transform="translate(193.204 47.472)" fill="#696eaf"/>
            </g>
            <g id="g5548" transform="translate(36.544 1.162)">
              <path id="path5550" d="M0,0A19.009,19.009,0,0,1,3.087,6.124,10.274,10.274,0,0,1,7.878,4.667h0A12.365,12.365,0,0,0,0,0" fill="#4c5696"/>
            </g>
            <g id="g5552" transform="translate(22.252 1.014)">
              <path id="path5554" d="M-109.627,0A12.373,12.373,0,0,0-122,12.373a12.373,12.373,0,0,0,12.373,12.373A12.373,12.373,0,0,0-97.254,12.373,12.373,12.373,0,0,0-109.627,0Z" transform="translate(122)" fill="none" stroke="#000" stroke-linecap="round" stroke-linejoin="round" stroke-miterlimit="10" stroke-width="1"/>
            </g>
            <g id="g5556" transform="translate(21.947 23.69)">
              <path id="path5558" d="M0-131.118c.439-7.375,5.825-14.8,5.825-14.8" transform="translate(0 145.917)" fill="none" stroke="#000" stroke-linecap="round" stroke-linejoin="round" stroke-miterlimit="10" stroke-width="1"/>
            </g>
            <g id="g5560" transform="translate(22.376 23.69)">
              <path id="path5562" d="M-169.118,0s12.571,17.328.867,25.336a13.7,13.7,0,0,1-15.425,0,10.861,10.861,0,0,1-4.529-6.12" transform="translate(188.205)" fill="none" stroke="#000" stroke-linecap="round" stroke-linejoin="round" stroke-miterlimit="10" stroke-width="1"/>
            </g>
            <g id="g5564" transform="translate(34.617 51.402)">
              <path id="path5566" d="M-101.829-60.931l.19,5.039a4.724,4.724,0,0,1-4.721,4.9h0a4.724,4.724,0,0,1-4.65-3.893l-2.311-12.925" transform="translate(113.322 67.808)" fill="none" stroke="#000" stroke-linecap="round" stroke-linejoin="round" stroke-miterlimit="10" stroke-width="1"/>
            </g>
            <g id="g5568" transform="translate(45.635 45.666)">
              <path id="path5570" d="M0,0,.3,8.087" fill="none" stroke="#000" stroke-linecap="round" stroke-linejoin="round" stroke-miterlimit="10" stroke-width="1"/>
            </g>
            <g id="g5572" transform="translate(36.331 60.986)">
              <path id="path5574" d="M0,0H9.881" fill="none" stroke="#000" stroke-linecap="round" stroke-linejoin="round" stroke-miterlimit="10" stroke-width="1"/>
            </g>
            <g id="g5576" transform="translate(22.931 45.666)">
              <path id="path5578" d="M-5.92,0l-.665,17.652a4.724,4.724,0,0,0,4.721,4.9,4.724,4.724,0,0,0,4.651-3.893L5.1,5.737" transform="translate(6.588)" fill="none" stroke="#000" stroke-linecap="round" stroke-linejoin="round" stroke-miterlimit="10" stroke-width="1"/>
            </g>
            <g id="g5580" transform="translate(23.022 60.986)">
              <path id="path5582" d="M-87.549,0H-97.43" transform="translate(97.43)" fill="none" stroke="#000" stroke-linecap="round" stroke-linejoin="round" stroke-miterlimit="10" stroke-width="1"/>
            </g>
            <g id="g5584" transform="translate(11.584 34.953)">
              <path id="path5586" d="M-311.433,0c6.552,1.115,10.916,3.108,10.916,5.38,0,3.493-10.312,6.325-23.033,6.325s-23.033-2.832-23.033-6.325c0-2.272,4.364-4.265,10.916-5.38" transform="translate(346.583)" fill="none" stroke="#000" stroke-linecap="round" stroke-linejoin="round" stroke-miterlimit="10" stroke-width="1"/>
            </g>
            <g id="g5588" transform="translate(6.446 38.9)">
              <path id="path5590" d="M-15.726-53.378A4.822,4.822,0,0,1-17.5-56.837a4.205,4.205,0,0,1,.959-2.566" transform="translate(17.501 59.403)" fill="none" stroke="#000" stroke-linecap="round" stroke-linejoin="round" stroke-miterlimit="10" stroke-width="1"/>
            </g>
            <g id="g5592" transform="translate(54.513 41.466)">
              <path id="path5594" d="M-73.328,0c0,2.733-3.163,5.206-8.276,6.995" transform="translate(81.604)" fill="none" stroke="#000" stroke-linecap="round" stroke-linejoin="round" stroke-miterlimit="10" stroke-width="1"/>
            </g>
            <g id="g5596" transform="translate(9.719 23.69)">
              <path id="path5598" d="M-159.947,0H-174.26A3.739,3.739,0,0,0-178,3.739a3.739,3.739,0,0,0,3.414,3.725l10.262.9" transform="translate(178)" fill="none" stroke="#000" stroke-linecap="round" stroke-linejoin="round" stroke-miterlimit="10" stroke-width="1"/>
            </g>
            <g id="g5600" transform="translate(15.804 23.69)">
              <path id="path5602" d="M0-68.207v-7.7" transform="translate(0 75.905)" fill="none" stroke="#000" stroke-linecap="round" stroke-linejoin="round" stroke-miterlimit="10" stroke-width="1"/>
            </g>
            <g id="g5604" transform="translate(41.463 23.69)">
              <path id="path5606" d="M-38.776-74.075l10.262-.9A3.739,3.739,0,0,0-25.1-78.7a3.74,3.74,0,0,0-3.74-3.739H-43.152" transform="translate(43.152 82.436)" fill="none" stroke="#000" stroke-linecap="round" stroke-linejoin="round" stroke-miterlimit="10" stroke-width="1"/>
            </g>
            <g id="g5608" transform="translate(53.43 23.69)">
              <path id="path5610" d="M0-68.206v-7.7" transform="translate(0 75.904)" fill="none" stroke="#000" stroke-linecap="round" stroke-linejoin="round" stroke-miterlimit="10" stroke-width="1"/>
            </g>
            <g id="g5612" transform="translate(26.402 11.53)">
              <path id="path5614" d="M-26.615-13.306a1.5,1.5,0,0,0-1.5-1.5,1.5,1.5,0,0,0-1.5,1.5" transform="translate(29.619 14.808)" fill="none" stroke="#000" stroke-linecap="round" stroke-linejoin="round" stroke-miterlimit="10" stroke-width="1"/>
            </g>
            <g id="g5616" transform="translate(39.828 11.53)">
              <path id="path5618" d="M0-13.306a1.5,1.5,0,0,1,1.5-1.5,1.5,1.5,0,0,1,1.5,1.5" transform="translate(0 14.808)" fill="none" stroke="#000" stroke-linecap="round" stroke-linejoin="round" stroke-miterlimit="10" stroke-width="1"/>
            </g>
            <g id="g5620" transform="translate(33.024 14.787)">
              <path id="path5622" d="M0,0A2.108,2.108,0,0,0,1.593.726,2.107,2.107,0,0,0,3.186,0" fill="none" stroke="#000" stroke-linecap="round" stroke-linejoin="round" stroke-miterlimit="10" stroke-width="1"/>
            </g>
            <g id="g5624" transform="translate(17.863 8.266)">
              <path id="path5626" d="M-40.484-64.027a3.732,3.732,0,0,1-.9.111,3.667,3.667,0,0,1-3.669-3.669,3.668,3.668,0,0,1,3.669-3.668,3.628,3.628,0,0,1,1.656.4" transform="translate(45.053 71.253)" fill="none" stroke="#000" stroke-linecap="round" stroke-linejoin="round" stroke-miterlimit="10" stroke-width="1"/>
            </g>
            <g id="g5628" transform="translate(24.827 5.829)">
              <path id="path5630" d="M0-.013C4.536.226,4.781,2.672,9.783,2.672S15.03.216,19.594-.015" transform="translate(0 0.015)" fill="none" stroke="#000" stroke-linecap="round" stroke-linejoin="round" stroke-miterlimit="10" stroke-width="1"/>
            </g>
            <g id="g5632" transform="translate(46.06 8.266)">
              <path id="path5634" d="M-6.721-64.051a3.6,3.6,0,0,0,.884.108,3.667,3.667,0,0,0,3.669-3.669A3.668,3.668,0,0,0-5.837-71.28a3.623,3.623,0,0,0-1.643.389" transform="translate(7.48 71.28)" fill="none" stroke="#000" stroke-linecap="round" stroke-linejoin="round" stroke-miterlimit="10" stroke-width="1"/>
            </g>
          </g>
        </g>
      </g>
    </g>
  </g>
</svg>
