<svg xmlns="http://www.w3.org/2000/svg" xmlns:xlink="http://www.w3.org/1999/xlink" width="98" height="98" viewBox="0 0 98 98">
  <defs>
    <filter id="Path_982547" x="0" y="0" width="98" height="98" filterUnits="userSpaceOnUse">
      <feOffset dy="3" input="SourceAlpha"/>
      <feGaussianBlur stdDeviation="3" result="blur"/>
      <feFlood flood-opacity="0.161"/>
      <feComposite operator="in" in2="blur"/>
      <feComposite in="SourceGraphic"/>
    </filter>
    <clipPath id="clip-path">
      <path id="path8121" d="M0-682.665H48.414v48.414H0Z" transform="translate(0 682.665)"/>
    </clipPath>
  </defs>
  <g id="Group_1208233" data-name="Group 1208233" transform="translate(-190.575 -6411.375)">
    <g id="Group_1208097" data-name="Group 1208097">
      <g id="Group_1207915" data-name="Group 1207915" transform="translate(-0.425 4325.823)">
        <g id="Group_1207712" data-name="Group 1207712">
          <g id="Group_1207285" data-name="Group 1207285" transform="translate(0 344.552)">
            <g id="Group_1206883" data-name="Group 1206883" transform="translate(0 -209)">
              <g id="Group_1204569" data-name="Group 1204569" transform="translate(-81 -1890.336)">
                <g id="Group_1203962" data-name="Group 1203962" transform="translate(281 3846.336)">
                  <g id="Group_1203498" data-name="Group 1203498" transform="translate(0)">
                    <g id="Group_1202589" data-name="Group 1202589">
                      <g id="Group_1172010" data-name="Group 1172010">
                        <g id="Group_1171046" data-name="Group 1171046">
                          <g id="Group_1148525" data-name="Group 1148525">
                            <g transform="matrix(1, 0, 0, 1, -9, -6)" filter="url(#Path_982547)">
                              <g id="Path_982547-2" data-name="Path 982547" transform="translate(9 6)" fill="#fdfbec">
                                <path d="M 39.99999237060547 78.49998474121094 C 34.8018684387207 78.49998474121094 29.76002502441406 77.48226165771484 25.0145263671875 75.47508239746094 C 20.43014717102051 73.53604888916016 16.31264877319336 70.75984954833984 12.77639198303223 67.22359466552734 C 9.240137100219727 63.68733596801758 6.463936805725098 59.5698356628418 4.524903297424316 54.98546981811523 C 2.517725706100464 50.23995971679688 1.500003457069397 45.19811630249023 1.500003457069397 39.99999237060547 C 1.500003457069397 34.8018684387207 2.517725706100464 29.76002502441406 4.524903297424316 25.0145263671875 C 6.463936805725098 20.43014717102051 9.240137100219727 16.31264877319336 12.77639198303223 12.77639198303223 C 16.31264877319336 9.240137100219727 20.43014717102051 6.463936805725098 25.0145263671875 4.524903297424316 C 29.76002502441406 2.517725706100464 34.8018684387207 1.500003457069397 39.99999237060547 1.500003457069397 C 45.19811630249023 1.500003457069397 50.23995971679688 2.517725706100464 54.98546981811523 4.524903297424316 C 59.5698356628418 6.463936805725098 63.68733596801758 9.240137100219727 67.22359466552734 12.77639198303223 C 70.75984954833984 16.31264877319336 73.53604888916016 20.43014717102051 75.47508239746094 25.0145263671875 C 77.48226165771484 29.76002502441406 78.49998474121094 34.8018684387207 78.49998474121094 39.99999237060547 C 78.49998474121094 45.19812393188477 77.48226165771484 50.23995971679688 75.47508239746094 54.98546981811523 C 73.53604888916016 59.5698356628418 70.75984954833984 63.68733596801758 67.22359466552734 67.22359466552734 C 63.68733596801758 70.75984954833984 59.5698356628418 73.53604888916016 54.98546981811523 75.47508239746094 C 50.23995971679688 77.48226165771484 45.19812393188477 78.49998474121094 39.99999237060547 78.49998474121094 Z" stroke="none"/>
                                <path d="M 39.99999237060547 2.999992370605469 C 35.00370025634766 2.999992370605469 30.1584587097168 3.97784423828125 25.59884643554688 5.906402587890625 C 21.19327163696289 7.769805908203125 17.23603057861328 10.43805694580078 13.83704376220703 13.83704376220703 C 10.43805694580078 17.23603057861328 7.769805908203125 21.19327163696289 5.906402587890625 25.59884643554688 C 3.97784423828125 30.1584587097168 2.999992370605469 35.00370025634766 2.999992370605469 39.99999237060547 C 2.999992370605469 44.99628448486328 3.97784423828125 49.84152603149414 5.906402587890625 54.40113830566406 C 7.769805908203125 58.80671310424805 10.43805694580078 62.76395416259766 13.83704376220703 66.16294097900391 C 17.23603057861328 69.56191253662109 21.19327163696289 72.23016357421875 25.59884643554688 74.09356689453125 C 30.1584587097168 76.02212524414062 35.00370025634766 76.99997711181641 39.99999237060547 76.99997711181641 C 44.99628448486328 76.99997711181641 49.84152603149414 76.02212524414062 54.40113830566406 74.09356689453125 C 58.80671310424805 72.23016357421875 62.76395416259766 69.56191253662109 66.16294097900391 66.16294097900391 C 69.56191253662109 62.76395416259766 72.23016357421875 58.80671310424805 74.09356689453125 54.40113830566406 C 76.02212524414062 49.84152603149414 76.99997711181641 44.99628448486328 76.99997711181641 39.99999237060547 C 76.99997711181641 35.00370025634766 76.02212524414062 30.1584587097168 74.09356689453125 25.59884643554688 C 72.23016357421875 21.19327163696289 69.56191253662109 17.23603057861328 66.16294097900391 13.83704376220703 C 62.76395416259766 10.43805694580078 58.80671310424805 7.769805908203125 54.40113830566406 5.906402587890625 C 49.84152603149414 3.97784423828125 44.99628448486328 2.999992370605469 39.99999237060547 2.999992370605469 M 39.99999237060547 -7.62939453125e-06 C 62.09137725830078 -7.62939453125e-06 79.99997711181641 17.90860748291016 79.99997711181641 39.99999237060547 C 79.99997711181641 62.09137725830078 62.09137725830078 79.99997711181641 39.99999237060547 79.99997711181641 C 17.90860748291016 79.99997711181641 -7.62939453125e-06 62.09137725830078 -7.62939453125e-06 39.99999237060547 C -7.62939453125e-06 17.90860748291016 17.90860748291016 -7.62939453125e-06 39.99999237060547 -7.62939453125e-06 Z" stroke="none" fill="#83793c"/>
                              </g>
                            </g>
                          </g>
                        </g>
                      </g>
                    </g>
                  </g>
                </g>
              </g>
            </g>
          </g>
          <g id="g8115" transform="translate(215.793 2790.01)">
            <g id="g8117" transform="translate(0 -682.665)">
              <g id="g8119" clip-path="url(#clip-path)">
                <g id="g8125" transform="translate(-33.259 0.709)">
                  <path id="path8127" d="M-338.457-377.826h-25.835v-25.108c5.31-7.679,37.755-5.416,25.835,25.108" transform="translate(364.292 406.667)" fill="#fbdf63"/>
                </g>
                <g id="g8129" transform="translate(-33.259 0.709)">
                  <path id="path8131" d="M-338.457-377.826h-.619c6.164-24.728-15.887-30.6-25.216-24.374v-.734c5.31-7.679,37.755-5.416,25.835,25.108" transform="translate(364.292 406.667)" fill="#f9d11f"/>
                </g>
              </g>
            </g>
            <g id="g8265" transform="translate(0 -682.665)">
              <g id="g8267" clip-path="url(#clip-path)">
                <g id="g8273" transform="translate(-33.259 51.036)">
                  <path id="path8275" d="M-338.457-377.654h-25.835v-25.1c5.31-7.676,37.755-5.413,25.835,25.1" transform="translate(364.292 406.481)" fill="#003343"/>
                </g>
                <g id="g8277" transform="translate(-33.259 51.036)">
                  <path id="path8279" d="M-338.457-377.654h-.619c6.164-24.717-15.887-30.585-25.216-24.362v-.734c5.31-7.676,37.755-5.413,25.835,25.1" transform="translate(364.292 406.481)" fill="#002439"/>
                </g>
              </g>
            </g>
            <g id="g8281" transform="translate(0 -682.665)">
              <g id="g8283" clip-path="url(#clip-path)">
                <g id="g8289" transform="translate(17.066 51.014)">
                  <path id="path8291" d="M-338.457-377.826h-25.835v-25.108c5.31-7.679,37.755-5.416,25.835,25.108" transform="translate(364.292 406.667)" fill="#ff7e50"/>
                </g>
                <g id="g8293" transform="translate(17.066 51.014)">
                  <path id="path8295" d="M-338.457-377.826h-.619c6.164-24.728-15.887-30.6-25.216-24.374v-.734c5.31-7.679,37.755-5.416,25.835,25.108" transform="translate(364.292 406.667)" fill="#ff6247"/>
                </g>
                <g id="g8297" transform="translate(2.941 54.225)">
                  <path id="path8299" d="M-233.028-131.751v15.573h-14.6c-12.2-25.649,14.6-34.273,14.6-15.573" transform="translate(250.816 141.808)" fill="#ffa68a"/>
                </g>
                <g id="g8301" transform="translate(2.941 54.225)">
                  <path id="path8303" d="M-233.028-131.751c-.9-16.1-20.23-9.82-14.176,15.573h-.427c-12.2-25.649,14.6-34.273,14.6-15.573" transform="translate(250.816 141.808)" fill="#ff7e50"/>
                </g>
              </g>
            </g>
          </g>
        </g>
      </g>
      <g id="Filled_outline" data-name="Filled outline" transform="translate(208.599 6425.781)">
        <path id="Path_1052241" data-name="Path 1052241" d="M31.427,23.792,10,16V41.323l5.179,1.884,1.638-10.649h5.844V45.219a3.4,3.4,0,0,1-.077.682l8.843,3.214L41.2,45.558a3.3,3.3,0,0,1-.038-.34V32.557H47.01L48.6,42.87l4.257-1.548V16Z" transform="translate(-0.026 -0.365)" fill="#195c85"/>
        <path id="Path_1052242" data-name="Path 1052242" d="M22,13.713h4.87l1.948-4.87,1.948,4.87h1.948l1.948-3.9,1.948,3.9h4.87V8.844A5.844,5.844,0,0,0,35.635,3H27.844A5.844,5.844,0,0,0,22,8.844Z" transform="translate(-0.339 -0.026)" fill="#394d5c"/>
        <path id="Path_1052243" data-name="Path 1052243" d="M41.479,13.87h-4.87l-1.948-3.9-1.948,3.9H30.766L28.818,9,26.87,13.87H22v3.588l9.74,6.151,9.74-6.151Z" transform="translate(-0.339 -0.182)" fill="#ffd782"/>
        <path id="Path_1052244" data-name="Path 1052244" d="M28,22.545V47.868l3.9,1.417,3.9-1.417V22.545l-3.9,1.417Z" transform="translate(-0.495 -0.535)" fill="#7fcac9"/>
        <path id="Path_1052245" data-name="Path 1052245" d="M31.505,23.687,13,12v4.958Z" transform="translate(-0.104 -0.26)" fill="#edeccc"/>
        <path id="Path_1052246" data-name="Path 1052246" d="M50.505,12,32,23.687l18.505-6.729Z" transform="translate(-0.599 -0.26)" fill="#edeccc"/>
        <path id="Path_1052247" data-name="Path 1052247" d="M19.922,27a2.922,2.922,0,0,1,2.922,2.922v2.922H17V29.922A2.922,2.922,0,0,1,19.922,27Z" transform="translate(-0.208 -0.651)" fill="#ffd782"/>
        <path id="Path_1052248" data-name="Path 1052248" d="M0,0H5.844V2.922A2.922,2.922,0,0,1,0,2.922Z" transform="translate(46.984 32.192) rotate(180)" fill="#ffd782"/>
        <path id="Path_1052249" data-name="Path 1052249" d="M41.4,46a3.3,3.3,0,0,0,.038.34L31.661,49.9l-8.843-3.214A3.4,3.4,0,0,0,22.9,46,4.069,4.069,0,0,1,19,49.9V60.609H45.3V49.9A4.069,4.069,0,0,1,41.4,46Z" transform="translate(-0.26 -1.146)" fill="#f98c96"/>
        <path id="Path_1052250" data-name="Path 1052250" d="M18.9,49.557a3.7,3.7,0,0,1-3.9-3.9L16.948,33h5.844V45.661a4.069,4.069,0,0,1-3.9,3.9Z" transform="translate(-0.156 -0.808)" fill="#db527d"/>
        <path id="Path_1052251" data-name="Path 1052251" d="M45.9,49.557a3.7,3.7,0,0,0,3.9-3.9L47.844,33H42V45.661A4.069,4.069,0,0,0,45.9,49.557Z" transform="translate(-0.86 -0.808)" fill="#db527d"/>
        <path id="Path_1052252" data-name="Path 1052252" d="M35.792,31.9l-3.9.974L28,31.9V28l3.9.974,3.9-.974Z" transform="translate(-0.495 -0.677)" fill="#f4f4e6"/>
        <path id="Path_1052253" data-name="Path 1052253" d="M35.792,35.9l-3.9.974L28,35.9V32l3.9.974,3.9-.974Z" transform="translate(-0.495 -0.781)" fill="#2d75bb"/>
        <path id="Path_1052254" data-name="Path 1052254" d="M28,18h1.948v1.948H28Z" transform="translate(-0.495 -0.417)"/>
        <path id="Path_1052255" data-name="Path 1052255" d="M34,18h1.948v1.948H34Z" transform="translate(-0.651 -0.417)"/>
        <path id="Path_1052256" data-name="Path 1052256" d="M53.387,14.838a.974.974,0,0,0-.892-.117l-1.615.584V11.74a.974.974,0,0,0-1.494-.824l-7.272,4.593V8.818A6.825,6.825,0,0,0,35.3,2H27.505a6.825,6.825,0,0,0-6.818,6.818v6.691l-7.272-4.593a.974.974,0,0,0-1.494.824v3.568l-1.615-.584A.974.974,0,0,0,9,15.635V40.958a.974.974,0,0,0,.641.915l4.429,1.611-.195,1.256a4.2,4.2,0,0,0,1.064,3.311,5.085,5.085,0,0,0,2.827,1.575v9.837a.974.974,0,0,0,.974.974h26.3a.974.974,0,0,0,.974-.974V49.626a5.085,5.085,0,0,0,2.824-1.572,4.21,4.21,0,0,0,1.059-3.348l-.24-1.558,3.506-1.276a.974.974,0,0,0,.642-.914V15.635a.974.974,0,0,0-.415-.8Zm-4.455-1.331v2.51l-9.363,3.409Zm-26.3-4.689a4.876,4.876,0,0,1,4.87-4.87H35.3a4.876,4.876,0,0,1,4.87,4.87v3.9H36.873l-2.55-5.1-2.55,5.1h-.682L28.479,6.2l-2.607,6.518H22.635Zm0,5.844H27.19l1.289-3.222,1.289,3.222h3.214l1.341-2.692,1.346,2.692h4.5v2.077L31.4,22.275l-8.766-5.536ZM31.4,35.084l-2.922-.73V32.466l2.685.671a.951.951,0,0,0,.473,0l2.685-.671v1.888Zm2.922,1.277v10.29L31.4,47.713l-2.922-1.063V36.361l2.685.672a.974.974,0,0,0,.473,0ZM31.4,31.188l-2.922-.73V28.57l2.685.671a.951.951,0,0,0,.473,0l2.685-.671v1.888Zm0-3.9-2.922-.73V23.4L31.4,24.579,34.323,23.4v3.16ZM13.87,13.506l9.363,5.914-9.363-3.4Zm.5,28.014-3.423-1.244V17.026l15.583,5.666V45.942l-2.922-1.063V29.271a3.9,3.9,0,0,0-7.792,0v2.848Zm7.29-12.249v1.948h-3.9V29.271a1.948,1.948,0,1,1,3.9,0ZM16.4,46.76a2.24,2.24,0,0,1-.589-1.753l1.821-11.84h4.034V44.854a3.117,3.117,0,0,1-2.922,2.922A3.167,3.167,0,0,1,16.4,46.76ZM44.062,58.489H19.713V49.608a5.2,5.2,0,0,0,3.439-2.824l8.248,3,9.1-3.311a5.2,5.2,0,0,0,3.564,3.133ZM47.38,46.76a3.167,3.167,0,0,1-2.344,1.016,3.13,3.13,0,0,1-2.89-2.655q0-.012,0-.023l-.032-11.931h4.034l1.461,9.488.355,2.31a2.254,2.254,0,0,1-.584,1.795ZM42.114,31.219V29.271a1.948,1.948,0,1,1,3.9,0v1.948Zm9.74,9.058-2.5.909-1.395-9.067V29.271a3.9,3.9,0,1,0-7.792,0V44.526l-3.9,1.416V22.693l15.583-5.666Z"/>
        <path id="Path_1052257" data-name="Path 1052257" d="M31,53h1.948v1.948H31Z" transform="translate(-0.573 -1.328)"/>
      </g>
    </g>
  </g>
</svg>
