<svg xmlns="http://www.w3.org/2000/svg" xmlns:xlink="http://www.w3.org/1999/xlink" width="113" height="113" viewBox="0 0 113 113">
  <defs>
    <filter id="Path_982547" x="0" y="0" width="113" height="113" filterUnits="userSpaceOnUse">
      <feOffset dy="3" input="SourceAlpha"/>
      <feGaussianBlur stdDeviation="3" result="blur"/>
      <feFlood flood-opacity="0.161"/>
      <feComposite operator="in" in2="blur"/>
      <feComposite in="SourceGraphic"/>
    </filter>
  </defs>
  <g id="Group_1208220" data-name="Group 1208220" transform="translate(-4005.5 -3878.335)">
    <g id="Group_1208062" data-name="Group 1208062">
      <g id="Group_1207901" data-name="Group 1207901" transform="translate(-1280.99 1958.062)">
        <g id="Group_1176928" data-name="Group 1176928" transform="translate(5295.49 1926.273)">
          <g id="Group_1172322" data-name="Group 1172322" transform="translate(0 0)">
            <g id="Group_1164700" data-name="Group 1164700">
              <g id="Group_1160931" data-name="Group 1160931">
                <g id="Group_1160749" data-name="Group 1160749">
                  <g id="Group_1158891" data-name="Group 1158891">
                    <g id="Group_1157406" data-name="Group 1157406">
                      <g id="Group_1155793" data-name="Group 1155793">
                        <g id="Group_1154704" data-name="Group 1154704">
                          <g id="Group_1150790" data-name="Group 1150790">
                            <g id="Group_1154214" data-name="Group 1154214">
                              <g id="Group_1152583" data-name="Group 1152583">
                                <g id="Group_1146973" data-name="Group 1146973">
                                  <g id="Group_1146954" data-name="Group 1146954">
                                    <g transform="matrix(1, 0, 0, 1, -9, -6)" filter="url(#Path_982547)">
                                      <g id="Path_982547-2" data-name="Path 982547" transform="translate(9 6)" fill="#ebe9f0">
                                        <path d="M 47.5000114440918 93.49987030029297 C 41.28938293457031 93.49987030029297 35.26534652709961 92.28384399414062 29.5951976776123 89.88558959960938 C 24.11773109436035 87.56881713867188 19.19814491271973 84.25183868408203 14.97310447692871 80.02680206298828 C 10.74805164337158 75.80176544189453 7.43107795715332 70.88218688964844 5.114304542541504 65.40472412109375 C 2.716038227081299 59.73458862304688 1.500011444091797 53.71054840087891 1.500011444091797 47.49993515014648 C 1.500011444091797 41.28932189941406 2.716038227081299 35.26528167724609 5.114304542541504 29.59514808654785 C 7.43107795715332 24.1176815032959 10.74805164337158 19.1981086730957 14.97310447692871 14.97306823730469 C 19.19814491271973 10.74802875518799 24.11773109436035 7.431055068969727 29.5951976776123 5.11428165435791 C 35.26534652709961 2.716028451919556 41.28938293457031 1.500001788139343 47.5000114440918 1.500001788139343 C 53.71063995361328 1.500001788139343 59.73467636108398 2.716028451919556 65.40482330322266 5.11428165435791 C 70.88229370117188 7.431055068969727 75.8018798828125 10.74802875518799 80.02691650390625 14.97306823730469 C 84.25196838378906 19.1981086730957 87.56894683837891 24.1176815032959 89.88571929931641 29.59514808654785 C 92.28398132324219 35.26528167724609 93.50001525878906 41.28932189941406 93.50001525878906 47.49993515014648 C 93.50001525878906 53.71054840087891 92.28398132324219 59.73458862304688 89.88571929931641 65.40472412109375 C 87.56894683837891 70.88218688964844 84.25196838378906 75.80176544189453 80.02691650390625 80.02680206298828 C 75.8018798828125 84.25183868408203 70.88229370117188 87.56881713867188 65.40482330322266 89.88558959960938 C 59.73467636108398 92.28384399414062 53.71063995361328 93.49987030029297 47.5000114440918 93.49987030029297 Z" stroke="none"/>
                                        <path d="M 47.5000114440918 3 C 41.49122619628906 3 35.66378021240234 4.1761474609375 30.17951965332031 6.495796203613281 C 24.880859375 8.7369384765625 20.12153625488281 11.94596862792969 16.03376770019531 16.03373718261719 C 11.94598388671875 20.12149047851562 8.736968994140625 24.88081359863281 6.495811462402344 30.17947387695312 C 4.176162719726562 35.66371917724609 3.000007629394531 41.49116516113281 3.000007629394531 47.49993515014648 C 3.000007629394531 53.50870513916016 4.176162719726562 59.33615112304688 6.495811462402344 64.82039642333984 C 8.736968994140625 70.11905670166016 11.94598388671875 74.87837982177734 16.03376770019531 78.96613311767578 C 20.12153625488281 83.05390167236328 24.880859375 86.26293182373047 30.17951965332031 88.50407409667969 C 35.66378021240234 90.82372283935547 41.49122619628906 91.99987030029297 47.5000114440918 91.99987030029297 C 53.50879669189453 91.99987030029297 59.33624267578125 90.82372283935547 64.82050323486328 88.50407409667969 C 70.11916351318359 86.26293182373047 74.87848663330078 83.05390167236328 78.96625518798828 78.96613311767578 C 83.05403900146484 74.87837982177734 86.2630615234375 70.11905670166016 88.50421142578125 64.82039642333984 C 90.82386016845703 59.33615112304688 92.00001525878906 53.50870513916016 92.00001525878906 47.49993515014648 C 92.00001525878906 41.49116516113281 90.82386016845703 35.66371917724609 88.50421142578125 30.17947387695312 C 86.2630615234375 24.88081359863281 83.05403900146484 20.12149047851562 78.96625518798828 16.03373718261719 C 74.87848663330078 11.94596862792969 70.11916351318359 8.7369384765625 64.82050323486328 6.495796203613281 C 59.33624267578125 4.1761474609375 53.50879669189453 3 47.5000114440918 3 M 47.5000114440918 0 C 73.73353576660156 0 95.00001525878906 21.26644134521484 95.00001525878906 47.49993515014648 C 95.00001525878906 73.73342895507812 73.73353576660156 94.99987030029297 47.5000114440918 94.99987030029297 C 21.26648712158203 94.99987030029297 7.62939453125e-06 73.73342895507812 7.62939453125e-06 47.49993515014648 C 7.62939453125e-06 21.26644134521484 21.26648712158203 0 47.5000114440918 0 Z" stroke="none" fill="#453179"/>
                                      </g>
                                    </g>
                                  </g>
                                </g>
                              </g>
                            </g>
                          </g>
                        </g>
                      </g>
                    </g>
                  </g>
                </g>
              </g>
            </g>
          </g>
        </g>
      </g>
      <g id="delete_6541143" transform="translate(4023.334 3892.331)">
        <path id="Path_1052119" data-name="Path 1052119" d="M60.136,106.587v25.4a7.768,7.768,0,0,1-7.767,7.767H32.631a1.944,1.944,0,0,0-1.322.518L19.854,150.915a.971.971,0,0,1-1.632-.711v-8.5a1.942,1.942,0,0,0-1.942-1.942H15.267A7.767,7.767,0,0,1,7.5,131.991v-25.4a7.767,7.767,0,0,1,7.767-7.767h37.1A7.768,7.768,0,0,1,60.136,106.587Z" transform="translate(0 -78.654)" fill="#f4f4f5"/>
        <path id="Path_1052120" data-name="Path 1052120" d="M33,139.759h-.368a1.944,1.944,0,0,0-1.322.518L19.854,150.915a.971.971,0,0,1-1.632-.711v-8.5a1.942,1.942,0,0,0-1.942-1.942H15.267A7.767,7.767,0,0,1,7.5,131.991v-25.4a7.767,7.767,0,0,1,7.767-7.767H29.631C26.821,103.216,16.678,121.827,33,139.759Z" transform="translate(0 -78.654)" fill="#dedde0"/>
        <path id="Path_1052121" data-name="Path 1052121" d="M310.147,106.587v7.688A15.457,15.457,0,0,1,294.69,98.82h7.69A7.768,7.768,0,0,1,310.147,106.587Z" transform="translate(-250.011 -78.654)" fill="#dedde0"/>
        <circle id="Ellipse_13453" data-name="Ellipse 13453" cx="3.899" cy="3.899" r="3.899" transform="translate(14.323 39.94)" fill="#ffbbae"/>
        <circle id="Ellipse_13454" data-name="Ellipse 13454" cx="3.899" cy="3.899" r="3.899" transform="translate(45.514 39.94)" fill="#ffcbbe"/>
        <path id="Path_1052122" data-name="Path 1052122" d="M127.962,175.831a14.627,14.627,0,0,1-18.81,14.01L102.7,184,98.85,173.879a14.622,14.622,0,0,1,29.112,1.952Z" transform="translate(-79.524 -132.967)" fill="#ffddcf"/>
        <path id="Path_1052123" data-name="Path 1052123" d="M108.282,210.176a14.622,14.622,0,0,1-4.714-25.607A30.776,30.776,0,0,0,108.282,210.176Z" transform="translate(-78.654 -153.302)" fill="#ffcbbe"/>
        <path id="Path_1052124" data-name="Path 1052124" d="M100.878,147.66a3.9,3.9,0,0,1-3.4-1.99.947.947,0,0,0-1.186-.4,5.851,5.851,0,0,1-7.206-2.319.976.976,0,0,0-1.116-.418,5.835,5.835,0,0,1-3.429,0,.975.975,0,0,0-1.116.418,5.852,5.852,0,0,1-7.046,2.382l-.159-.063a.947.947,0,0,0-1.186.4,3.9,3.9,0,0,1-7.3-2.018,3.83,3.83,0,0,1,1.214-2.691,4.028,4.028,0,0,1,2.764-1.1.962.962,0,0,0,.952-.827,5.849,5.849,0,0,1,5.791-5.022c.04,0,.08,0,.12,0a5.836,5.836,0,0,1,1.594.254.973.973,0,0,0,1.116-.417,5.847,5.847,0,0,1,9.936,0,.972.972,0,0,0,1.116.417,5.851,5.851,0,0,1,7.5,4.765.962.962,0,0,0,.952.827,3.951,3.951,0,0,1,3.978,3.789A3.9,3.9,0,0,1,100.878,147.66Z" transform="translate(-52.44 -106.746)" fill="#7888af"/>
        <path id="Path_1052125" data-name="Path 1052125" d="M78.58,153.682a34.65,34.65,0,0,0-2.2,11.313l-.159-.063a.947.947,0,0,0-1.186.4,3.9,3.9,0,0,1-7.3-2.018,3.83,3.83,0,0,1,1.214-2.691,4.028,4.028,0,0,1,2.764-1.1.962.962,0,0,0,.952-.827,5.849,5.849,0,0,1,5.791-5.022C78.5,153.679,78.54,153.679,78.58,153.682Z" transform="translate(-52.44 -126.411)" fill="#5972a5"/>
        <path id="Path_1052126" data-name="Path 1052126" d="M347.124,20.166a11.7,11.7,0,1,1-11.7-11.7A11.7,11.7,0,0,1,347.124,20.166Z" transform="translate(-275.292)" fill="#b4e9f1"/>
        <path id="Path_1052127" data-name="Path 1052127" d="M338.016,32.889a11.7,11.7,0,1,1-4.724-22.91C331.49,13.446,327.8,23.906,338.016,32.889Z" transform="translate(-275.292 -1.314)" fill="#81d8e7"/>
        <ellipse id="Ellipse_13455" data-name="Ellipse 13455" cx="2.126" cy="2.379" rx="2.126" ry="2.379" transform="translate(31.692 43.158)" fill="#495560"/>
        <path id="Path_1052128" data-name="Path 1052128" d="M24.52,146.693l-4.666,4.333a.971.971,0,0,1-1.632-.711v-8.5a1.942,1.942,0,0,0-1.942-1.942H15.267A7.767,7.767,0,0,1,7.5,132.1V106.7a7.767,7.767,0,0,1,7.767-7.767H48.179" transform="translate(0 -78.75)" fill="none" stroke="#000" stroke-linecap="round" stroke-linejoin="round" stroke-miterlimit="10" stroke-width="1.5"/>
        <path id="Path_1052129" data-name="Path 1052129" d="M196.924,223.611v17.03a7.768,7.768,0,0,1-7.767,7.767H169.42a1.944,1.944,0,0,0-1.322.518l-3.468,3.22" transform="translate(-136.788 -187.289)" fill="none" stroke="#000" stroke-linecap="round" stroke-linejoin="round" stroke-miterlimit="10" stroke-width="1.5"/>
        <circle id="Ellipse_13456" data-name="Ellipse 13456" cx="11.697" cy="11.697" r="11.697" transform="translate(48.439 8.484)" fill="none" stroke="#000" stroke-linecap="round" stroke-linejoin="round" stroke-miterlimit="10" stroke-width="1.5"/>
        <line id="Line_836" data-name="Line 836" x1="11.697" transform="translate(54.287 20.181)" fill="none" stroke="#000" stroke-linecap="round" stroke-linejoin="round" stroke-miterlimit="10" stroke-width="1.5"/>
        <path id="Path_1052130" data-name="Path 1052130" d="M322.152,253.91a3.9,3.9,0,1,1-3.05,7.178" transform="translate(-271.263 -213.666)" fill="none" stroke="#000" stroke-linecap="round" stroke-linejoin="round" stroke-miterlimit="10" stroke-width="1.5"/>
        <path id="Path_1052131" data-name="Path 1052131" d="M62.639,253.889a3.9,3.9,0,1,0,3.035,7.184" transform="translate(-45.886 -213.648)" fill="none" stroke="#000" stroke-linecap="round" stroke-linejoin="round" stroke-miterlimit="10" stroke-width="1.5"/>
        <path id="Path_1052132" data-name="Path 1052132" d="M126.965,260.372a14.621,14.621,0,1,1-29.025-.056" transform="translate(-78.632 -219.243)" fill="none" stroke="#000" stroke-linecap="round" stroke-linejoin="round" stroke-miterlimit="10" stroke-width="1.5"/>
        <path id="Path_1052133" data-name="Path 1052133" d="M87.367,132.011a5.859,5.859,0,0,1,3.859,2.659.972.972,0,0,0,1.116.417,5.852,5.852,0,0,1,7.5,4.765.962.962,0,0,0,.952.827,3.951,3.951,0,0,1,3.978,3.789,3.9,3.9,0,0,1-7.3,2.018.947.947,0,0,0-1.186-.4,5.85,5.85,0,0,1-7.206-2.319.976.976,0,0,0-1.116-.418,5.833,5.833,0,0,1-3.429,0,.975.975,0,0,0-1.116.418,5.85,5.85,0,0,1-7.206,2.319.947.947,0,0,0-1.186.4,3.9,3.9,0,0,1-7.3-2.018,3.951,3.951,0,0,1,3.978-3.789.962.962,0,0,0,.952-.827,5.852,5.852,0,0,1,7.5-4.765.973.973,0,0,0,1.116-.417,5.891,5.891,0,0,1,1.608-1.7" transform="translate(-52.44 -107.548)" fill="none" stroke="#000" stroke-linecap="round" stroke-linejoin="round" stroke-miterlimit="10" stroke-width="1.5"/>
        <line id="Line_837" data-name="Line 837" y2="1.553" transform="translate(23.633 42.6)" fill="none" stroke="#000" stroke-linecap="round" stroke-linejoin="round" stroke-miterlimit="10" stroke-width="1.5"/>
        <ellipse id="Ellipse_13457" data-name="Ellipse 13457" cx="2.126" cy="2.379" rx="2.126" ry="2.379" transform="translate(31.692 43.172)" fill="none" stroke="#000" stroke-linecap="round" stroke-linejoin="round" stroke-miterlimit="10" stroke-width="1.5"/>
        <line id="Line_838" data-name="Line 838" y2="1.553" transform="translate(44.003 42.6)" fill="none" stroke="#000" stroke-linecap="round" stroke-linejoin="round" stroke-miterlimit="10" stroke-width="1.5"/>
      </g>
    </g>
  </g>
</svg>
