<svg xmlns="http://www.w3.org/2000/svg" xmlns:xlink="http://www.w3.org/1999/xlink" width="113" height="113" viewBox="0 0 113 113">
  <defs>
    <filter id="Path_982547" x="0" y="0" width="113" height="113" filterUnits="userSpaceOnUse">
      <feOffset dy="3" input="SourceAlpha"/>
      <feGaussianBlur stdDeviation="3" result="blur"/>
      <feFlood flood-opacity="0.161"/>
      <feComposite operator="in" in2="blur"/>
      <feComposite in="SourceGraphic"/>
    </filter>
  </defs>
  <g id="Group_1208553" data-name="Group 1208553" transform="translate(-1216 -4512.942)">
    <g id="Group_1208500" data-name="Group 1208500">
      <g id="Group_1208254" data-name="Group 1208254" transform="translate(0 1690.8)">
        <g id="Group_1207724" data-name="Group 1207724" transform="translate(-1 752.362)">
          <g id="Group_1207257" data-name="Group 1207257" transform="translate(0 -8747.046)">
            <g id="Group_1204128" data-name="Group 1204128" transform="translate(0 6976.49)">
              <g id="Group_1203961" data-name="Group 1203961" transform="translate(0.44 1899.461)">
                <g id="Group_1203500" data-name="Group 1203500" transform="translate(0 -197.72)">
                  <g id="Group_1202592" data-name="Group 1202592" transform="translate(1225.561 2144.596)">
                    <g id="Group_1172010" data-name="Group 1172010" transform="translate(0)">
                      <g id="Group_1171046" data-name="Group 1171046">
                        <g id="Group_1148525" data-name="Group 1148525">
                          <g transform="matrix(1, 0, 0, 1, -9, -6)" filter="url(#Path_982547)">
                            <g id="Path_982547-2" data-name="Path 982547" transform="translate(9 6)" fill="#edf3fc">
                              <path d="M 47.5 93.5 C 41.28937149047852 93.5 35.26533508300781 92.28397369384766 29.59518623352051 89.88570404052734 C 24.11771965026855 87.56893157958984 19.19813346862793 84.25196075439453 14.97309303283691 80.02691650390625 C 10.74804019927979 75.80186462402344 7.431066513061523 70.88229370117188 5.114293098449707 65.40481567382812 C 2.716026782989502 59.73468017578125 1.5 53.71062850952148 1.5 47.5 C 1.5 41.28937149047852 2.716026782989502 35.26533508300781 5.114293098449707 29.59518623352051 C 7.431066513061523 24.11771965026855 10.74804019927979 19.19813346862793 14.97309303283691 14.97309303283691 C 19.19813346862793 10.74804019927979 24.11771965026855 7.431066513061523 29.59518623352051 5.114293098449707 C 35.26533508300781 2.716026782989502 41.28937149047852 1.5 47.5 1.5 C 53.71062850952148 1.5 59.73468017578125 2.716026782989502 65.40481567382812 5.114293098449707 C 70.88229370117188 7.431066513061523 75.80186462402344 10.74804019927979 80.02691650390625 14.97309303283691 C 84.25196075439453 19.19813346862793 87.56893157958984 24.11771965026855 89.88570404052734 29.59518623352051 C 92.28397369384766 35.26533508300781 93.5 41.28937149047852 93.5 47.5 C 93.5 53.71062850952148 92.28397369384766 59.73468017578125 89.88570404052734 65.40481567382812 C 87.56893157958984 70.88229370117188 84.25196075439453 75.80186462402344 80.02691650390625 80.02691650390625 C 75.80186462402344 84.25196075439453 70.88229370117188 87.56893157958984 65.40481567382812 89.88570404052734 C 59.73468017578125 92.28397369384766 53.71062850952148 93.5 47.5 93.5 Z" stroke="none"/>
                              <path d="M 47.5 3 C 41.49121475219727 3 35.66376876831055 4.176155090332031 30.17950439453125 6.495796203613281 C 24.88084411621094 8.736953735351562 20.12152099609375 11.94598388671875 16.03375244140625 16.03375244140625 C 11.94598388671875 20.12152099609375 8.736953735351562 24.88084411621094 6.495796203613281 30.17950439453125 C 4.176155090332031 35.66376876831055 3 41.49121475219727 3 47.5 C 3 53.50878524780273 4.176155090332031 59.33623123168945 6.495796203613281 64.82049560546875 C 8.736953735351562 70.11915588378906 11.94598388671875 74.87847900390625 16.03375244140625 78.96624755859375 C 20.12152099609375 83.05401611328125 24.88084411621094 86.26304626464844 30.17950439453125 88.50419616699219 C 35.66376876831055 90.82384490966797 41.49121475219727 92 47.5 92 C 53.50878524780273 92 59.33623123168945 90.82384490966797 64.82049560546875 88.50419616699219 C 70.11915588378906 86.26304626464844 74.87847900390625 83.05401611328125 78.96624755859375 78.96624755859375 C 83.05401611328125 74.87847900390625 86.26304626464844 70.11915588378906 88.50419616699219 64.82049560546875 C 90.82384490966797 59.33623123168945 92 53.50878524780273 92 47.5 C 92 41.49121475219727 90.82384490966797 35.66376876831055 88.50419616699219 30.17950439453125 C 86.26304626464844 24.88084411621094 83.05401611328125 20.12152099609375 78.96624755859375 16.03375244140625 C 74.87847900390625 11.94598388671875 70.11915588378906 8.736953735351562 64.82049560546875 6.495796203613281 C 59.33623123168945 4.176155090332031 53.50878524780273 3 47.5 3 M 47.5 0 C 73.7335205078125 0 95 21.2664794921875 95 47.5 C 95 73.7335205078125 73.7335205078125 95 47.5 95 C 21.2664794921875 95 0 73.7335205078125 0 47.5 C 0 21.2664794921875 21.2664794921875 0 47.5 0 Z" stroke="none" fill="#5692e8"/>
                            </g>
                          </g>
                        </g>
                      </g>
                    </g>
                  </g>
                </g>
              </g>
            </g>
          </g>
        </g>
      </g>
      <g id="unanimity_8305850" transform="translate(1238.525 4526.108)">
        <g id="Group_1208498" data-name="Group 1208498" transform="translate(0.985 5.444)">
          <path id="Path_1053179" data-name="Path 1053179" d="M353.7,430.289H343.89s-6.946-3.346.069-10.447c4.108-.261,8.277,2.2,11.282,7.391A2,2,0,0,1,353.7,430.289Z" transform="translate(-296.639 -366.031)" fill="#50e2ce"/>
          <path id="Path_1053180" data-name="Path 1053180" d="M296.438,430.412h-8.491a2,2,0,0,1-1.539-3.056c2.717-4.69,6.384-7.154,10.1-7.391A10.147,10.147,0,0,0,296.438,430.412Z" transform="translate(-249.187 -366.153)" fill="#00d7bd"/>
          <path id="Path_1053181" data-name="Path 1053181" d="M171.9,39.864H158.988a8.511,8.511,0,0,1-8.511-8.511V26.423a8.511,8.511,0,0,1,8.511-8.511H171.9a8.511,8.511,0,0,1,8.511,8.511v4.929A8.511,8.511,0,0,1,171.9,39.864Z" transform="translate(-131.518 -17.382)" fill="#ffebce"/>
          <path id="Path_1053182" data-name="Path 1053182" d="M209.162,14.9a4,4,0,0,0-5.655.4l-5.773,6.662a.663.663,0,0,1-1.146-.285l-.092-.4a3.705,3.705,0,0,0-4.444-2.786l-.59.137a3.718,3.718,0,0,0-2.777,4.459l1.095,4.758a6.4,6.4,0,0,0,11.079,2.771l8.7-10.039a4.03,4.03,0,0,0-.4-5.673Z" transform="translate(-164.58 -13.912)" fill="#50e2ce"/>
          <ellipse id="Ellipse_13520" data-name="Ellipse 13520" cx="4.429" cy="3.991" rx="4.429" ry="3.991" transform="translate(0 41.308)" fill="#ffddcf"/>
          <path id="Path_1053183" data-name="Path 1053183" d="M127.7,430.289H117.89s-6.946-3.346.069-10.447c4.108-.261,8.277,2.2,11.282,7.391A2,2,0,0,1,127.7,430.289Z" transform="translate(-100.589 -366.031)" fill="#93bce8"/>
          <path id="Path_1053184" data-name="Path 1053184" d="M70.438,430.412H61.947a2,2,0,0,1-1.539-3.056c2.717-4.69,6.384-7.154,10.1-7.391A10.147,10.147,0,0,0,70.438,430.412Z" transform="translate(-53.137 -366.153)" fill="#68a2df"/>
          <path id="Path_1053185" data-name="Path 1053185" d="M83.538,256.885c0,8.957-7.752,15.747-16.221,14.3,0,0-18.156-7.991-2.776-24.493a18.176,18.176,0,0,0,3.069-4.164C76,241.3,83.538,248.056,83.538,256.885Z" transform="translate(-51.607 -212.109)" fill="#ffddcf"/>
          <path id="Path_1053186" data-name="Path 1053186" d="M49.252,281.545a14.348,14.348,0,0,1-11.719-14.3,14.564,14.564,0,0,1,7.623-12.916l1.32,2.727S36.609,270.767,49.252,281.545Z" transform="translate(-33.542 -222.465)" fill="#ffcbbe"/>
          <path id="Path_1053187" data-name="Path 1053187" d="M111.2,219.512a1.689,1.689,0,0,1-1.692,1.578c-.574,0-.981,0-.986,0-1.305-.11-4.049-.725-7.225-3.682a2.385,2.385,0,0,0-2.931-.252,22.823,22.823,0,0,1-3.105,1.688c-13.482-4.177-.542-13.641-.542-13.641C103.726,204.352,111.729,211.007,111.2,219.512Z" transform="translate(-78.296 -179.789)" fill="#77728d"/>
          <path id="Path_1053188" data-name="Path 1053188" d="M43.977,219.326a27.393,27.393,0,0,1-9.576,2.253H31.722A1.691,1.691,0,0,1,30.031,220c-.459-7.314,5.51-13.588,13.4-14.315C42,208.379,39.389,214.8,43.977,219.326Z" transform="translate(-27.013 -180.271)" fill="#5c576e"/>
          <ellipse id="Ellipse_13521" data-name="Ellipse 13521" cx="4.552" cy="3.991" rx="4.552" ry="3.991" transform="translate(56.876 41.308)" fill="#ffcbbe"/>
          <ellipse id="Ellipse_13522" data-name="Ellipse 13522" cx="4.429" cy="3.991" rx="4.429" ry="3.991" transform="translate(29.935 41.308)" fill="#ffbbae"/>
          <ellipse id="Ellipse_13523" data-name="Ellipse 13523" cx="13.97" cy="14.493" rx="13.97" ry="14.493" transform="translate(33.926 30.282)" fill="#ffddcf"/>
          <path id="Path_1053189" data-name="Path 1053189" d="M275.252,281.545a14.348,14.348,0,0,1-11.719-14.3,14.564,14.564,0,0,1,7.623-12.916l1.32,2.727S262.609,270.767,275.252,281.545Z" transform="translate(-229.592 -222.465)" fill="#ffcbbe"/>
          <path id="Path_1053190" data-name="Path 1053190" d="M348.949,222.268a1,1,0,0,1-1.109.82c-2.78-.37-5.011-3.032-6.206-4.8a2.317,2.317,0,0,0-2.66-.881,14.722,14.722,0,0,1-6.093.652c-9.442-6.04.19-12.883.19-12.883A14.864,14.864,0,0,1,348.949,222.268Z" transform="translate(-286.151 -179.792)" fill="#eaaa83"/>
          <path id="Path_1053191" data-name="Path 1053191" d="M270.472,218.328a17.578,17.578,0,0,1-3.546-.718,2.307,2.307,0,0,0-2.6.906c-1.189,1.768-3.432,4.47-6.235,4.842a1,1,0,0,1-1.108-.82,14.83,14.83,0,0,1,13.679-17.093C269.315,207.967,266.876,213.858,270.472,218.328Z" transform="translate(-223.742 -180.062)" fill="#df8a57"/>
        </g>
        <g id="Group_1208499" data-name="Group 1208499" transform="translate(0.002 4.151)">
          <path id="Path_1053192" data-name="Path 1053192" d="M73.977,350.5a.994.994,0,0,0-.994.994v1.59a.994.994,0,1,0,1.988,0v-1.59A.994.994,0,0,0,73.977,350.5Z" transform="translate(-63.311 -304.597)"/>
          <path id="Path_1053193" data-name="Path 1053193" d="M198.873,350.5a.994.994,0,0,0-.994.994v1.59a.994.994,0,1,0,1.988,0v-1.59A.994.994,0,0,0,198.873,350.5Z" transform="translate(-171.656 -304.597)"/>
          <path id="Path_1053194" data-name="Path 1053194" d="M124.978,362.383a.994.994,0,0,0-1.4.1,1.9,1.9,0,0,1-2.865,0,.994.994,0,1,0-1.5,1.306,3.887,3.887,0,0,0,5.862,0A.994.994,0,0,0,124.978,362.383Z" transform="translate(-103.202 -314.696)"/>
          <path id="Path_1053195" data-name="Path 1053195" d="M64.947,216.409a15.521,15.521,0,0,0-1.535-7.531,14.946,14.946,0,0,0-1.447-2.339.994.994,0,1,0-1.6,1.175,13.059,13.059,0,0,1,1.261,2.029,13.606,13.606,0,0,1,1.181,8.111c-2.446-.324-4.5-2.878-5.514-4.372a3.32,3.32,0,0,0-3.8-1.267,14.966,14.966,0,0,1-9.027-.072,3.315,3.315,0,0,0-3.722,1.3c-1.011,1.5-3.072,4.074-5.524,4.414l-.015,0a13.78,13.78,0,0,1,10.4-15.558,14.069,14.069,0,0,1,11.784,2.344.994.994,0,1,0,1.184-1.6,16.054,16.054,0,0,0-24.453,6.908c-2.059-5.776-8.031-10.059-15.178-10.059-9.1,0-16.464,6.989-15.935,15.443a2.648,2.648,0,0,0,.236.936c-5.173,2.033-3.864,9.252,1.847,9.547a15.4,15.4,0,0,0,5.033,6.853,20.179,20.179,0,0,0-2.607,3.575,2.99,2.99,0,0,0,2.4,4.548h5.159a.994.994,0,0,0,0-1.988H9.916c-.678,0-1.056-.912-.678-1.564a17.952,17.952,0,0,1,2.562-3.452,14.934,14.934,0,0,0,14.687.162,18.126,18.126,0,0,1,2.41,3.29c.376.649,0,1.564-.679,1.564H19.067a.994.994,0,0,0,0,1.988h9.151a2.99,2.99,0,0,0,2.4-4.548,20.383,20.383,0,0,0-2.43-3.382,15.365,15.365,0,0,0,5.388-7.306,5.812,5.812,0,0,0,1.317.25,15.481,15.481,0,0,0,5.005,6.906,20.219,20.219,0,0,0-2.568,3.532,2.99,2.99,0,0,0,2.4,4.548h18.3a2.99,2.99,0,0,0,2.4-4.548,20.129,20.129,0,0,0-2.569-3.534,15.486,15.486,0,0,0,5.007-6.9c5.549-.408,7.012-7.128,2.081-9.4ZM8.287,206.336a14.976,14.976,0,0,1,21.327.014,11.785,11.785,0,0,1,3.28,8.857c-.049.776-.863.646-1.641.645-1.228-.111-3.684-.708-6.594-3.416a3.378,3.378,0,0,0-4.15-.358c-4.811,3.13-9.669,3.779-14.761,3.781-.041-.01-.716-.01-.756-.646a11.812,11.812,0,0,1,3.295-8.876Zm-4.022,11.7a15.763,15.763,0,0,0,.208,5.691C1.367,222.974,1.016,219.058,4.266,218.039Zm21.866,13.823a13.085,13.085,0,0,1-19.053-6.408,13.985,13.985,0,0,1-.765-7.608c5.534-.005,10.642-1.085,15.28-4.1a1.393,1.393,0,0,1,1.712.147c3.312,3.083,6.233,3.793,7.731,3.936a4.7,4.7,0,0,0,.759,6.786A13.593,13.593,0,0,1,26.132,231.862Zm6.69-8.989a2.754,2.754,0,0,1,.483-4.434,1.98,1.98,0,0,0,.639.947,16.151,16.151,0,0,0,.336,4.309A3.469,3.469,0,0,1,32.821,222.873Zm25.887,14.372c.372.643.006,1.564-.679,1.564h-18.3c-.676,0-1.056-.912-.679-1.564a18,18,0,0,1,2.514-3.4,14.609,14.609,0,0,0,14.631,0A17.928,17.928,0,0,1,58.708,237.245Zm-.4-7.647a12.627,12.627,0,0,1-18.854,0,13.86,13.86,0,0,1-3.533-9.85c2.854-.6,5.083-3.121,6.475-5.193a1.316,1.316,0,0,1,1.478-.513,16.967,16.967,0,0,0,10.252.061,1.326,1.326,0,0,1,1.521.5c1.347,1.993,3.478,4.41,6.2,5.093A13.852,13.852,0,0,1,58.3,229.6Zm5.173-5.895a16.118,16.118,0,0,0,.346-4.149,1.969,1.969,0,0,0,.845-1.022C66.892,220.078,66.106,223.008,63.477,223.7Z" transform="translate(-0.002 -173.951)"/>
          <path id="Path_1053196" data-name="Path 1053196" d="M299.859,350.5a.994.994,0,0,0-.994.994v1.59a.994.994,0,1,0,1.988,0v-1.59A.994.994,0,0,0,299.859,350.5Z" transform="translate(-259.259 -304.597)"/>
          <path id="Path_1053197" data-name="Path 1053197" d="M424.756,350.5a.994.994,0,0,0-.994.994v1.59a.994.994,0,1,0,1.988,0v-1.59A.994.994,0,0,0,424.756,350.5Z" transform="translate(-367.604 -304.597)"/>
          <path id="Path_1053198" data-name="Path 1053198" d="M350.86,362.383a.994.994,0,0,0-1.4.1,1.9,1.9,0,0,1-2.865,0,.994.994,0,1,0-1.5,1.306,3.887,3.887,0,0,0,5.862,0A.994.994,0,0,0,350.86,362.383Z" transform="translate(-299.149 -314.696)"/>
          <path id="Path_1053199" data-name="Path 1053199" d="M171.77,7.622a5,5,0,0,0-7.753-2.474h-11.55a9.515,9.515,0,0,0-9.5,9.5v4.93a9.516,9.516,0,0,0,9.5,9.506h12.912a9.517,9.517,0,0,0,9.506-9.506v-4.93a9.486,9.486,0,0,0-3.115-7.03Zm-2.782-.743a3.039,3.039,0,0,1,.3,4.273l-8.7,10.039a5.408,5.408,0,0,1-9.36-2.343l-1.095-4.758a2.727,2.727,0,0,1,2.033-3.268l.59-.137a2.71,2.71,0,0,1,3.251,2.041l.092.4a1.657,1.657,0,0,0,2.866.713l5.773-6.662a3,3,0,0,1,4.251-.3Zm3.908,12.7a7.527,7.527,0,0,1-7.518,7.518H152.467a7.526,7.526,0,0,1-7.517-7.518v-4.93a7.525,7.525,0,0,1,7.517-7.517h9.677l-4.259,4.915a4.7,4.7,0,0,0-5.578-3.3l-.59.137a4.718,4.718,0,0,0-3.521,5.65l1.095,4.758a7.4,7.4,0,0,0,12.8,3.2c9.618-11.1,9.266-10.484,9.684-11.791a7.5,7.5,0,0,1,1.124,3.951Z" transform="translate(-124.016 -4.151)"/>
        </g>
      </g>
    </g>
  </g>
</svg>
