<svg xmlns="http://www.w3.org/2000/svg" xmlns:xlink="http://www.w3.org/1999/xlink" width="98" height="98" viewBox="0 0 98 98">
  <defs>
    <filter id="Path_982547" x="0" y="0" width="98" height="98" filterUnits="userSpaceOnUse">
      <feOffset dy="3" input="SourceAlpha"/>
      <feGaussianBlur stdDeviation="3" result="blur"/>
      <feFlood flood-opacity="0.161"/>
      <feComposite operator="in" in2="blur"/>
      <feComposite in="SourceGraphic"/>
    </filter>
    <clipPath id="clip-path">
      <path id="path8121" d="M0-682.665H48.414v48.414H0Z" transform="translate(0 682.665)"/>
    </clipPath>
    <clipPath id="clip-path-4">
      <path id="path623" d="M0-682.665H54.568V-628.1H0Z" transform="translate(0 682.665)"/>
    </clipPath>
  </defs>
  <g id="Group_1208177" data-name="Group 1208177" transform="translate(-1031 -2467.014)">
    <g id="Group_1207940" data-name="Group 1207940">
      <g id="Group_1207720" data-name="Group 1207720" transform="translate(840 381.462)">
        <g id="Group_1207712" data-name="Group 1207712">
          <g id="Group_1207285" data-name="Group 1207285" transform="translate(0 344.552)">
            <g id="Group_1206883" data-name="Group 1206883" transform="translate(0 -209)">
              <g id="Group_1204569" data-name="Group 1204569" transform="translate(-81 -1890.336)">
                <g id="Group_1203962" data-name="Group 1203962" transform="translate(281 3846.336)">
                  <g id="Group_1203498" data-name="Group 1203498" transform="translate(0)">
                    <g id="Group_1202589" data-name="Group 1202589">
                      <g id="Group_1172010" data-name="Group 1172010">
                        <g id="Group_1171046" data-name="Group 1171046">
                          <g id="Group_1148525" data-name="Group 1148525">
                            <g transform="matrix(1, 0, 0, 1, -9, -6)" filter="url(#Path_982547)">
                              <g id="Path_982547-2" data-name="Path 982547" transform="translate(9 6)" fill="#fdfbec">
                                <path d="M 39.99999237060547 78.49998474121094 C 34.8018684387207 78.49998474121094 29.76002502441406 77.48226165771484 25.0145263671875 75.47508239746094 C 20.43014717102051 73.53604888916016 16.31264877319336 70.75984954833984 12.77639198303223 67.22359466552734 C 9.240137100219727 63.68733596801758 6.463936805725098 59.5698356628418 4.524903297424316 54.98546981811523 C 2.517725706100464 50.23995971679688 1.500003457069397 45.19811630249023 1.500003457069397 39.99999237060547 C 1.500003457069397 34.8018684387207 2.517725706100464 29.76002502441406 4.524903297424316 25.0145263671875 C 6.463936805725098 20.43014717102051 9.240137100219727 16.31264877319336 12.77639198303223 12.77639198303223 C 16.31264877319336 9.240137100219727 20.43014717102051 6.463936805725098 25.0145263671875 4.524903297424316 C 29.76002502441406 2.517725706100464 34.8018684387207 1.500003457069397 39.99999237060547 1.500003457069397 C 45.19811630249023 1.500003457069397 50.23995971679688 2.517725706100464 54.98546981811523 4.524903297424316 C 59.5698356628418 6.463936805725098 63.68733596801758 9.240137100219727 67.22359466552734 12.77639198303223 C 70.75984954833984 16.31264877319336 73.53604888916016 20.43014717102051 75.47508239746094 25.0145263671875 C 77.48226165771484 29.76002502441406 78.49998474121094 34.8018684387207 78.49998474121094 39.99999237060547 C 78.49998474121094 45.19812393188477 77.48226165771484 50.23995971679688 75.47508239746094 54.98546981811523 C 73.53604888916016 59.5698356628418 70.75984954833984 63.68733596801758 67.22359466552734 67.22359466552734 C 63.68733596801758 70.75984954833984 59.5698356628418 73.53604888916016 54.98546981811523 75.47508239746094 C 50.23995971679688 77.48226165771484 45.19812393188477 78.49998474121094 39.99999237060547 78.49998474121094 Z" stroke="none"/>
                                <path d="M 39.99999237060547 2.999992370605469 C 35.00370025634766 2.999992370605469 30.1584587097168 3.97784423828125 25.59884643554688 5.906402587890625 C 21.19327163696289 7.769805908203125 17.23603057861328 10.43805694580078 13.83704376220703 13.83704376220703 C 10.43805694580078 17.23603057861328 7.769805908203125 21.19327163696289 5.906402587890625 25.59884643554688 C 3.97784423828125 30.1584587097168 2.999992370605469 35.00370025634766 2.999992370605469 39.99999237060547 C 2.999992370605469 44.99628448486328 3.97784423828125 49.84152603149414 5.906402587890625 54.40113830566406 C 7.769805908203125 58.80671310424805 10.43805694580078 62.76395416259766 13.83704376220703 66.16294097900391 C 17.23603057861328 69.56191253662109 21.19327163696289 72.23016357421875 25.59884643554688 74.09356689453125 C 30.1584587097168 76.02212524414062 35.00370025634766 76.99997711181641 39.99999237060547 76.99997711181641 C 44.99628448486328 76.99997711181641 49.84152603149414 76.02212524414062 54.40113830566406 74.09356689453125 C 58.80671310424805 72.23016357421875 62.76395416259766 69.56191253662109 66.16294097900391 66.16294097900391 C 69.56191253662109 62.76395416259766 72.23016357421875 58.80671310424805 74.09356689453125 54.40113830566406 C 76.02212524414062 49.84152603149414 76.99997711181641 44.99628448486328 76.99997711181641 39.99999237060547 C 76.99997711181641 35.00370025634766 76.02212524414062 30.1584587097168 74.09356689453125 25.59884643554688 C 72.23016357421875 21.19327163696289 69.56191253662109 17.23603057861328 66.16294097900391 13.83704376220703 C 62.76395416259766 10.43805694580078 58.80671310424805 7.769805908203125 54.40113830566406 5.906402587890625 C 49.84152603149414 3.97784423828125 44.99628448486328 2.999992370605469 39.99999237060547 2.999992370605469 M 39.99999237060547 -7.62939453125e-06 C 62.09137725830078 -7.62939453125e-06 79.99997711181641 17.90860748291016 79.99997711181641 39.99999237060547 C 79.99997711181641 62.09137725830078 62.09137725830078 79.99997711181641 39.99999237060547 79.99997711181641 C 17.90860748291016 79.99997711181641 -7.62939453125e-06 62.09137725830078 -7.62939453125e-06 39.99999237060547 C -7.62939453125e-06 17.90860748291016 17.90860748291016 -7.62939453125e-06 39.99999237060547 -7.62939453125e-06 Z" stroke="none" fill="#83793c"/>
                              </g>
                            </g>
                          </g>
                        </g>
                      </g>
                    </g>
                  </g>
                </g>
              </g>
            </g>
          </g>
          <g id="g8115" transform="translate(215.793 2790.01)">
            <g id="g8117" transform="translate(0 -682.665)">
              <g id="g8119" clip-path="url(#clip-path)">
                <g id="g8125" transform="translate(-33.259 0.709)">
                  <path id="path8127" d="M-338.457-377.826h-25.835v-25.108c5.31-7.679,37.755-5.416,25.835,25.108" transform="translate(364.292 406.667)" fill="#fbdf63"/>
                </g>
                <g id="g8129" transform="translate(-33.259 0.709)">
                  <path id="path8131" d="M-338.457-377.826h-.619c6.164-24.728-15.887-30.6-25.216-24.374v-.734c5.31-7.679,37.755-5.416,25.835,25.108" transform="translate(364.292 406.667)" fill="#f9d11f"/>
                </g>
              </g>
            </g>
            <g id="g8265" transform="translate(0 -682.665)">
              <g id="g8267" clip-path="url(#clip-path)">
                <g id="g8273" transform="translate(-33.259 51.036)">
                  <path id="path8275" d="M-338.457-377.654h-25.835v-25.1c5.31-7.676,37.755-5.413,25.835,25.1" transform="translate(364.292 406.481)" fill="#003343"/>
                </g>
                <g id="g8277" transform="translate(-33.259 51.036)">
                  <path id="path8279" d="M-338.457-377.654h-.619c6.164-24.717-15.887-30.585-25.216-24.362v-.734c5.31-7.676,37.755-5.413,25.835,25.1" transform="translate(364.292 406.481)" fill="#002439"/>
                </g>
              </g>
            </g>
            <g id="g8281" transform="translate(0 -682.665)">
              <g id="g8283" clip-path="url(#clip-path)">
                <g id="g8289" transform="translate(17.066 51.014)">
                  <path id="path8291" d="M-338.457-377.826h-25.835v-25.108c5.31-7.679,37.755-5.416,25.835,25.108" transform="translate(364.292 406.667)" fill="#ff7e50"/>
                </g>
                <g id="g8293" transform="translate(17.066 51.014)">
                  <path id="path8295" d="M-338.457-377.826h-.619c6.164-24.728-15.887-30.6-25.216-24.374v-.734c5.31-7.679,37.755-5.416,25.835,25.108" transform="translate(364.292 406.667)" fill="#ff6247"/>
                </g>
                <g id="g8297" transform="translate(2.941 54.225)">
                  <path id="path8299" d="M-233.028-131.751v15.573h-14.6c-12.2-25.649,14.6-34.273,14.6-15.573" transform="translate(250.816 141.808)" fill="#ffa68a"/>
                </g>
                <g id="g8301" transform="translate(2.941 54.225)">
                  <path id="path8303" d="M-233.028-131.751c-.9-16.1-20.23-9.82-14.176,15.573h-.427c-12.2-25.649,14.6-34.273,14.6-15.573" transform="translate(250.816 141.808)" fill="#ff7e50"/>
                </g>
              </g>
            </g>
          </g>
        </g>
      </g>
      <g id="g585" transform="translate(1052.716 3164.729)">
        <g id="g587" transform="translate(0.799 -679.185)">
          <path id="path589" d="M0-547.975l26.484-47.607v43.818Z" transform="translate(0 595.581)" fill="#d9b1ee"/>
        </g>
        <g id="g591" transform="translate(15.199 -679.184)">
          <path id="path593" d="M-443.95-430.406h-38.569l12.085-37.393Z" transform="translate(482.519 467.799)" fill="#cb97e7"/>
        </g>
        <g id="g595" transform="translate(27.284 -679.185)">
          <path id="path597" d="M-139.092-547.975l-12.084-47.607,26.484,37.393Z" transform="translate(151.176 595.581)" fill="#e5caf3"/>
        </g>
        <g id="g599" transform="translate(0.799 -641.792)">
          <path id="path601" d="M-165.756,0h38.568l-14.4,10.214h-38.568Z" transform="translate(180.157)" fill="#bd80e1"/>
        </g>
        <g id="g603" transform="translate(36.775 -641.791)">
          <path id="path605" d="M-195.592,0l-14.4,10.213L-212.585,0Z" transform="translate(212.585)" fill="#d9b1ee"/>
        </g>
        <g id="g607" transform="translate(15.2 -643.313)">
          <path id="path609" d="M0-17.509l.492-1.521" transform="translate(0 19.031)" fill="none" stroke="#000" stroke-linecap="round" stroke-linejoin="round" stroke-width="1"/>
        </g>
        <g id="g611" transform="translate(17.079 -675.516)">
          <path id="path613" d="M0-321.253l9.019-27.91" transform="translate(0 349.163)" fill="none" stroke="#000" stroke-linecap="round" stroke-linejoin="round" stroke-width="1" stroke-dasharray="31.755 42.34"/>
        </g>
        <g id="g615" transform="translate(26.792 -679.185)">
          <path id="path617" d="M0-17.509l.492-1.521" transform="translate(0 19.031)" fill="none" stroke="#000" stroke-linecap="round" stroke-linejoin="round" stroke-width="1"/>
        </g>
        <g id="g619" transform="translate(0 -682.665)">
          <g id="g621" transform="translate(0 0)" clip-path="url(#clip-path-4)">
            <g id="g627" transform="translate(41.604 23.699)">
              <path id="path629" d="M-140.022-197.691l-12.165-17.175" transform="translate(152.186 214.866)" fill="none" stroke="#000" stroke-linecap="round" stroke-linejoin="round" stroke-miterlimit="10" stroke-width="1"/>
            </g>
          </g>
        </g>
        <g id="g631" transform="translate(27.284 -679.184)">
          <path id="path633" d="M-140.022-197.691l-12.165-17.175" transform="translate(152.186 214.866)" fill="none" stroke="#000" stroke-linecap="round" stroke-linejoin="round" stroke-miterlimit="10" stroke-width="1"/>
        </g>
        <g id="g635" transform="translate(15.2 -641.792)">
          <path id="path637" d="M0,0H1.6" fill="none" stroke="#000" stroke-linecap="round" stroke-linejoin="round" stroke-width="1"/>
        </g>
        <g id="g639" transform="translate(21.22 -641.792)">
          <path id="path641" d="M0,0H28.739" fill="none" stroke="#000" stroke-linecap="round" stroke-linejoin="round" stroke-width="1" stroke-dasharray="31.114 41.485"/>
        </g>
        <g id="g643" transform="translate(0 -682.665)">
          <g id="g645" transform="translate(0 0)" clip-path="url(#clip-path-4)">
            <g id="g651" transform="translate(52.17 40.873)">
              <path id="path653" d="M0,0H1.6" fill="none" stroke="#000" stroke-linecap="round" stroke-linejoin="round" stroke-width="1"/>
            </g>
            <g id="g655" transform="translate(0.799 50.162)">
              <path id="path657" d="M0-10.646l1.3-.925" transform="translate(0 11.571)" fill="none" stroke="#000" stroke-linecap="round" stroke-linejoin="round" stroke-width="1"/>
            </g>
          </g>
        </g>
        <g id="g659" transform="translate(6.392 -639.346)">
          <path id="path661" d="M0-43.762l5.36-3.8" transform="translate(0 47.564)" fill="none" stroke="#000" stroke-linecap="round" stroke-linejoin="round" stroke-width="1" stroke-dasharray="36.997 49.329"/>
        </g>
        <g id="g663" transform="translate(13.896 -641.792)">
          <path id="path665" d="M0-10.646l1.3-.925" transform="translate(0 11.571)" fill="none" stroke="#000" stroke-linecap="round" stroke-linejoin="round" stroke-width="1"/>
        </g>
        <g id="g667" transform="translate(0 -682.665)">
          <g id="g669" transform="translate(0 0)" clip-path="url(#clip-path-4)">
            <g id="g675" transform="translate(0.799 51.087)">
              <path id="path677" d="M-122.81,0H-133.48" transform="translate(133.48)" fill="none" stroke="#000" stroke-linecap="round" stroke-linejoin="round" stroke-miterlimit="10" stroke-width="1"/>
            </g>
            <g id="g679" transform="translate(15.199 40.873)">
              <path id="path681" d="M0-117.56H24.169l14.4-10.213" transform="translate(0 127.773)" fill="none" stroke="#000" stroke-linecap="round" stroke-linejoin="round" stroke-miterlimit="10" stroke-width="1"/>
            </g>
            <g id="g683" transform="translate(0.799 3.48)">
              <path id="path685" d="M0-547.975l26.484-47.607,12.084,47.607" transform="translate(0 595.581)" fill="none" stroke="#000" stroke-linecap="round" stroke-linejoin="round" stroke-miterlimit="10" stroke-width="1"/>
            </g>
          </g>
        </g>
      </g>
    </g>
  </g>
</svg>
