<svg xmlns="http://www.w3.org/2000/svg" xmlns:xlink="http://www.w3.org/1999/xlink" width="113" height="113" viewBox="0 0 113 113">
  <defs>
    <filter id="Path_982547" x="0" y="0" width="113" height="113" filterUnits="userSpaceOnUse">
      <feOffset dy="3" input="SourceAlpha"/>
      <feGaussianBlur stdDeviation="3" result="blur"/>
      <feFlood flood-opacity="0.161"/>
      <feComposite operator="in" in2="blur"/>
      <feComposite in="SourceGraphic"/>
    </filter>
  </defs>
  <g id="Group_1208180" data-name="Group 1208180" transform="translate(-901 -2829.806)">
    <g id="Group_1207996" data-name="Group 1207996">
      <g id="Group_1207723" data-name="Group 1207723" transform="translate(-1 752.362)">
        <g id="Group_1207256" data-name="Group 1207256" transform="translate(0 -8747.046)">
          <g id="Group_1204127" data-name="Group 1204127" transform="translate(0 6984.49)">
            <g id="Group_1203960" data-name="Group 1203960" transform="translate(0.44 1899.125)">
              <g id="Group_1203499" data-name="Group 1203499" transform="translate(0 -197.72)">
                <g id="Group_1202591" data-name="Group 1202591" transform="translate(910.561 2144.596)">
                  <g id="Group_1172010" data-name="Group 1172010" transform="translate(0)">
                    <g id="Group_1171046" data-name="Group 1171046">
                      <g id="Group_1148525" data-name="Group 1148525">
                        <g transform="matrix(1, 0, 0, 1, -9, -6)" filter="url(#Path_982547)">
                          <g id="Path_982547-2" data-name="Path 982547" transform="translate(9 6)" fill="#edf3fc">
                            <path d="M 47.5 93.5 C 41.28937149047852 93.5 35.26533508300781 92.28397369384766 29.59518623352051 89.88570404052734 C 24.11771965026855 87.56893157958984 19.19813346862793 84.25196075439453 14.97309303283691 80.02691650390625 C 10.74804019927979 75.80186462402344 7.431066513061523 70.88229370117188 5.114293098449707 65.40481567382812 C 2.716026782989502 59.73468017578125 1.5 53.71062850952148 1.5 47.5 C 1.5 41.28937149047852 2.716026782989502 35.26533508300781 5.114293098449707 29.59518623352051 C 7.431066513061523 24.11771965026855 10.74804019927979 19.19813346862793 14.97309303283691 14.97309303283691 C 19.19813346862793 10.74804019927979 24.11771965026855 7.431066513061523 29.59518623352051 5.114293098449707 C 35.26533508300781 2.716026782989502 41.28937149047852 1.5 47.5 1.5 C 53.71062850952148 1.5 59.73468017578125 2.716026782989502 65.40481567382812 5.114293098449707 C 70.88229370117188 7.431066513061523 75.80186462402344 10.74804019927979 80.02691650390625 14.97309303283691 C 84.25196075439453 19.19813346862793 87.56893157958984 24.11771965026855 89.88570404052734 29.59518623352051 C 92.28397369384766 35.26533508300781 93.5 41.28937149047852 93.5 47.5 C 93.5 53.71062850952148 92.28397369384766 59.73468017578125 89.88570404052734 65.40481567382812 C 87.56893157958984 70.88229370117188 84.25196075439453 75.80186462402344 80.02691650390625 80.02691650390625 C 75.80186462402344 84.25196075439453 70.88229370117188 87.56893157958984 65.40481567382812 89.88570404052734 C 59.73468017578125 92.28397369384766 53.71062850952148 93.5 47.5 93.5 Z" stroke="none"/>
                            <path d="M 47.5 3 C 41.49121475219727 3 35.66376876831055 4.176155090332031 30.17950439453125 6.495796203613281 C 24.88084411621094 8.736953735351562 20.12152099609375 11.94598388671875 16.03375244140625 16.03375244140625 C 11.94598388671875 20.12152099609375 8.736953735351562 24.88084411621094 6.495796203613281 30.17950439453125 C 4.176155090332031 35.66376876831055 3 41.49121475219727 3 47.5 C 3 53.50878524780273 4.176155090332031 59.33623123168945 6.495796203613281 64.82049560546875 C 8.736953735351562 70.11915588378906 11.94598388671875 74.87847900390625 16.03375244140625 78.96624755859375 C 20.12152099609375 83.05401611328125 24.88084411621094 86.26304626464844 30.17950439453125 88.50419616699219 C 35.66376876831055 90.82384490966797 41.49121475219727 92 47.5 92 C 53.50878524780273 92 59.33623123168945 90.82384490966797 64.82049560546875 88.50419616699219 C 70.11915588378906 86.26304626464844 74.87847900390625 83.05401611328125 78.96624755859375 78.96624755859375 C 83.05401611328125 74.87847900390625 86.26304626464844 70.11915588378906 88.50419616699219 64.82049560546875 C 90.82384490966797 59.33623123168945 92 53.50878524780273 92 47.5 C 92 41.49121475219727 90.82384490966797 35.66376876831055 88.50419616699219 30.17950439453125 C 86.26304626464844 24.88084411621094 83.05401611328125 20.12152099609375 78.96624755859375 16.03375244140625 C 74.87847900390625 11.94598388671875 70.11915588378906 8.736953735351562 64.82049560546875 6.495796203613281 C 59.33623123168945 4.176155090332031 53.50878524780273 3 47.5 3 M 47.5 0 C 73.7335205078125 0 95 21.2664794921875 95 47.5 C 95 73.7335205078125 73.7335205078125 95 47.5 95 C 21.2664794921875 95 0 73.7335205078125 0 47.5 C 0 21.2664794921875 21.2664794921875 0 47.5 0 Z" stroke="none" fill="#5692e8"/>
                          </g>
                        </g>
                      </g>
                    </g>
                  </g>
                </g>
              </g>
            </g>
          </g>
        </g>
      </g>
      <g id="skill_4158022" transform="translate(924 2809.847)">
        <g id="Group_1207994" data-name="Group 1207994" transform="translate(0.979 47.108)">
          <path id="Path_1051880" data-name="Path 1051880" d="M382.308,245.236H367.15l-1.536,1.668v2.229l1.536,1.13h15.158a1.307,1.307,0,0,0,1.307-1.307v-2.414A1.306,1.306,0,0,0,382.308,245.236Z" transform="translate(-318.868 -220.225)" fill="#f8f7f8"/>
          <path id="Path_1051881" data-name="Path 1051881" d="M422.765,169.106h-8.806l-1.814,1.3v2.953l1.814.769h8.806a1.306,1.306,0,0,0,1.307-1.307v-2.412A1.306,1.306,0,0,0,422.765,169.106Z" transform="translate(-359.325 -154.032)" fill="#f8f7f8"/>
          <path id="Path_1051882" data-name="Path 1051882" d="M42.543,347.28v-3.89a10.414,10.414,0,0,0-5.227-9.03L34.2,332.572l-1.966-.742H29.186l-1.512.742-3.112,1.788a10.414,10.414,0,0,0-5.227,9.03v3.89a.939.939,0,0,0,.939.939H41.6A.939.939,0,0,0,42.543,347.28Z" transform="translate(-17.789 -295.515)" fill="#f02d32"/>
          <path id="Path_1051883" data-name="Path 1051883" d="M29.48,331.83h-.294l-1.512.742-3.112,1.788a10.414,10.414,0,0,0-5.227,9.03v3.89a.939.939,0,0,0,.939.939h3.412v-3.86a10.414,10.414,0,0,1,5.227-9.03L29.48,335Z" transform="translate(-17.79 -295.515)" fill="#b41418"/>
          <path id="Path_1051884" data-name="Path 1051884" d="M89.752,288.706v2.055a3.265,3.265,0,0,1-6.53,0v-7.019h6.53v4.965Z" transform="translate(-73.338 -253.704)" fill="#ffe6c6"/>
          <path id="Path_1051885" data-name="Path 1051885" d="M39.141,89.074l.767-3.653a12.019,12.019,0,1,0-23.526,0l.767,3.653L18.34,93.3h19.5Z" transform="translate(-14.996 -68.673)" fill="#b3adb5"/>
          <g id="Group_1207993" data-name="Group 1207993" transform="translate(0 0)">
            <g id="Group_1207991" data-name="Group 1207991" transform="translate(0 20.339)">
              <path id="Path_1051886" data-name="Path 1051886" d="M10.232,214.907a2.732,2.732,0,1,1,0-5.464h6.642v5.464Z" transform="translate(-7.5 -209.443)" fill="#f8d3aa"/>
              <path id="Path_1051887" data-name="Path 1051887" d="M136.667,214.907a2.732,2.732,0,0,0,0-5.464h-7.712v5.347Z" transform="translate(-113.101 -209.443)" fill="#f8d3aa"/>
              <path id="Path_1051888" data-name="Path 1051888" d="M83.221,315.252v2.906a3.261,3.261,0,0,0,1.388,2.671v-1.894a.828.828,0,0,1,.906-.825q.48.046.971.046a10.362,10.362,0,0,0,3.265-.527v-2.376Z" transform="translate(-73.337 -301.44)" fill="#f8d3aa"/>
            </g>
            <path id="Path_1051889" data-name="Path 1051889" d="M58.178,164.1v7.8a8.842,8.842,0,1,1-17.685,0v-7.736a.654.654,0,0,1,.5-.635l3.052-.752a23.523,23.523,0,0,0,7.97-3.646.656.656,0,0,1,.941.2l.2.33a9.187,9.187,0,0,0,4.6,3.835.653.653,0,0,1,.422.611Z" transform="translate(-36.186 -145.253)" fill="#ffe6c6"/>
            <path id="Path_1051890" data-name="Path 1051890" d="M57.769,163.495a9.122,9.122,0,0,1-4.492-3.635l-.324-.535a.656.656,0,0,0-.941-.2,23.521,23.521,0,0,1-7.97,3.645l-3.052.752a.654.654,0,0,0-.5.635V171.9a8.848,8.848,0,0,0,11.895,8.3,8.841,8.841,0,0,1-8.713-8.839v-4.952a1.369,1.369,0,0,1,.882-1.275,26.122,26.122,0,0,0,7.041-4.108.706.706,0,0,1,1.089.26l.231.438a11.147,11.147,0,0,0,5.261,5.058V164.1a.654.654,0,0,0-.408-.606Z" transform="translate(-36.185 -145.253)" fill="#f8d3aa"/>
            <g id="XMLID_233_" transform="translate(31.818 15.074)">
              <g id="Group_1207992" data-name="Group 1207992">
                <path id="Path_1051891" data-name="Path 1051891" d="M456.715,397.506h-3.7l-1.828.929v3.356l1.828.741h3.7a1.306,1.306,0,0,0,1.307-1.307v-2.414A1.306,1.306,0,0,0,456.715,397.506Z" transform="translate(-425.093 -367.692)" fill="#f8f7f8"/>
                <path id="Path_1051892" data-name="Path 1051892" d="M279.181,402.533H252.56a1.306,1.306,0,0,1-1.305-1.307v-2.414a1.306,1.306,0,0,1,1.305-1.307h26.621Z" transform="translate(-251.255 -367.692)" fill="#6ae2f6"/>
                <path id="Path_1051893" data-name="Path 1051893" d="M343.045,321.376H321.764l-1.308.963v3.344l1.308.719h21.281a1.306,1.306,0,0,0,1.307-1.307v-2.412A1.306,1.306,0,0,0,343.045,321.376Z" transform="translate(-311.423 -301.5)" fill="#f8f7f8"/>
                <path id="Path_1051894" data-name="Path 1051894" d="M261.6,326.4H252.56a1.306,1.306,0,0,1-1.305-1.307v-2.412a1.306,1.306,0,0,1,1.305-1.307H261.6Z" transform="translate(-251.255 -301.5)" fill="#9fce42"/>
                <path id="Path_1051895" data-name="Path 1051895" d="M267.719,250.263H252.56a1.307,1.307,0,0,1-1.305-1.307v-2.414a1.306,1.306,0,0,1,1.305-1.307h15.159Z" transform="translate(-251.255 -235.298)" fill="#efd03a"/>
                <path id="Path_1051896" data-name="Path 1051896" d="M274.071,169.106v5.026H252.56a1.306,1.306,0,0,1-1.305-1.307v-2.412a1.306,1.306,0,0,1,1.305-1.307Z" transform="translate(-251.255 -169.106)" fill="#f02d32"/>
              </g>
            </g>
            <path id="Path_1051897" data-name="Path 1051897" d="M354.526,53.85l.771,1.562a.4.4,0,0,0,.3.216l1.724.25a.4.4,0,0,1,.219.673l-1.248,1.216a.394.394,0,0,0-.113.349l.294,1.717a.4.4,0,0,1-.573.416l-1.542-.811a.4.4,0,0,0-.367,0l-1.542.811a.4.4,0,0,1-.573-.416l.294-1.717a.4.4,0,0,0-.113-.349l-1.248-1.216a.4.4,0,0,1,.219-.673l1.724-.25a.4.4,0,0,0,.3-.216l.771-1.562a.4.4,0,0,1,.708,0Z" transform="translate(-305.89 -53.63)" fill="#efd03a"/>
            <path id="Path_1051898" data-name="Path 1051898" d="M271.217,53.85l.771,1.562a.4.4,0,0,0,.3.216l1.724.25a.4.4,0,0,1,.219.673l-1.248,1.216a.394.394,0,0,0-.113.349l.294,1.717a.4.4,0,0,1-.573.416l-1.542-.811a.4.4,0,0,0-.367,0l-1.542.811a.4.4,0,0,1-.573-.416l.294-1.717a.4.4,0,0,0-.113-.349L267.5,56.552a.4.4,0,0,1,.219-.673l1.724-.25a.4.4,0,0,0,.3-.216l.771-1.562a.4.4,0,0,1,.708,0Z" transform="translate(-233.456 -53.63)" fill="#efd03a"/>
            <path id="Path_1051899" data-name="Path 1051899" d="M435.9,53.85l-.771,1.562a.4.4,0,0,1-.3.216l-1.724.25a.4.4,0,0,0-.219.673l1.248,1.216a.394.394,0,0,1,.113.349l-.294,1.717a.4.4,0,0,0,.573.416l1.542-.811a.4.4,0,0,1,.367,0l1.542.811a.4.4,0,0,0,.573-.416l-.294-1.717a.4.4,0,0,1,.113-.349l1.248-1.216a.4.4,0,0,0-.219-.673l-1.724-.25a.4.4,0,0,1-.3-.216L436.6,53.85A.4.4,0,0,0,435.9,53.85Z" transform="translate(-377.254 -53.63)" fill="#efd03a"/>
          </g>
        </g>
        <g id="Group_1207995" data-name="Group 1207995" transform="translate(0 46.129)">
          <path id="Path_1051900" data-name="Path 1051900" d="M26.255,81.93l.594-2.83a13.02,13.02,0,0,0-3.224-11.545.979.979,0,1,0-1.432,1.336A11.059,11.059,0,0,1,24.933,78.7l-.591,2.814H23.95V81A1.641,1.641,0,0,0,22.9,79.473a8.245,8.245,0,0,1-4.112-3.426l-.2-.33a1.635,1.635,0,0,0-2.344-.488A22.452,22.452,0,0,1,8.6,78.723l-3.052.752a1.629,1.629,0,0,0-1.242,1.585v.451H3.914L3.323,78.7a11.048,11.048,0,0,1,15.8-12.118.979.979,0,1,0,.888-1.745A13,13,0,0,0,1.407,79.1L2,81.93a3.71,3.71,0,0,0,1.709,7h.6a9.833,9.833,0,0,0,5.574,8.72v.989l-2.621,1.505a11.421,11.421,0,0,0-5.718,9.879v4.829a.979.979,0,0,0,1.958,0v-4.829a9.458,9.458,0,0,1,4.736-8.181l1.931-1.109a4.242,4.242,0,0,0,7.917,0l1.931,1.109a9.458,9.458,0,0,1,4.736,8.181v4.829a.979.979,0,0,0,1.958,0v-4.829a11.421,11.421,0,0,0-5.718-9.879l-2.621-1.505v-.989a9.833,9.833,0,0,0,5.574-8.72h.6a3.71,3.71,0,0,0,1.71-7Zm-24.3,3.292A1.755,1.755,0,0,1,3.711,83.47h.6v3.506h-.6a1.755,1.755,0,0,1-1.753-1.753ZM16.414,99.208a2.286,2.286,0,0,1-4.572,0v-.861a9.764,9.764,0,0,0,4.572,0ZM21.992,88.8a7.863,7.863,0,1,1-15.727,0V81.316l2.8-.691a24.4,24.4,0,0,0,8.017-3.6l.021.035a10.215,10.215,0,0,0,4.883,4.161Zm2.554-1.822h-.6V83.47h.6a1.753,1.753,0,1,1,0,3.506Z" transform="translate(0 -61.172)"/>
          <path id="Path_1051901" data-name="Path 1051901" d="M276.353,237.74h-2.662a.979.979,0,0,0,0,1.958h2.662a.328.328,0,0,1,.327.327v2.413a.328.328,0,0,1-.327.327H262.174V239.7h7.345a.979.979,0,0,0,0-1.958H246.037a2.288,2.288,0,0,0-2.285,2.285v2.413a2.288,2.288,0,0,0,2.285,2.285h30.316a2.288,2.288,0,0,0,2.285-2.285v-2.413a2.288,2.288,0,0,0-2.285-2.285Zm-30.643,4.7v-2.413a.328.328,0,0,1,.327-.327h14.179v3.068H246.037a.328.328,0,0,1-.327-.327Z" transform="translate(-211.934 -212.728)"/>
          <path id="Path_1051902" data-name="Path 1051902" d="M276.353,313.875H246.036a2.288,2.288,0,0,0-2.285,2.285v2.413a2.288,2.288,0,0,0,2.285,2.285h30.316a2.288,2.288,0,0,0,2.285-2.285V316.16a2.288,2.288,0,0,0-2.285-2.285Zm-30.643,4.7V316.16a.328.328,0,0,1,.327-.327h8.056V318.9h-8.056A.328.328,0,0,1,245.709,318.573Zm30.971,0a.328.328,0,0,1-.327.327h-20.3v-3.068h20.3a.328.328,0,0,1,.327.327Z" transform="translate(-211.933 -278.925)"/>
          <path id="Path_1051903" data-name="Path 1051903" d="M276.353,390.01H246.036a2.288,2.288,0,0,0-2.285,2.285v2.413a2.288,2.288,0,0,0,2.285,2.285h30.316a2.288,2.288,0,0,0,2.285-2.285V392.3a2.288,2.288,0,0,0-2.285-2.285Zm-30.643,4.7V392.3a.328.328,0,0,1,.327-.327h25.642v3.068H246.036A.328.328,0,0,1,245.709,394.709Zm30.971,0a.328.328,0,0,1-.327.327h-2.717v-3.068h2.717a.328.328,0,0,1,.327.327Z" transform="translate(-211.933 -345.122)"/>
          <path id="Path_1051904" data-name="Path 1051904" d="M344.626,51.733l-.243,1.415a1.374,1.374,0,0,0,1.993,1.448l1.27-.668,1.27.668a1.374,1.374,0,0,0,1.993-1.448l-.242-1.414,1.027-1a1.374,1.374,0,0,0-.761-2.343l-1.42-.206-.635-1.287a1.365,1.365,0,0,0-1.232-.766h0a1.366,1.366,0,0,0-1.232.766l-.635,1.287-1.42.207a1.374,1.374,0,0,0-.761,2.343Zm1.739-1.658a1.373,1.373,0,0,0,1.034-.751l.247-.5.247.5a1.373,1.373,0,0,0,1.034.751l.552.08-.4.39a1.374,1.374,0,0,0-.395,1.215l.095.55-.494-.26a1.374,1.374,0,0,0-1.278,0l-.494.26.095-.55a1.374,1.374,0,0,0-.4-1.216l-.4-.39Z" transform="translate(-298.386 -46.129)"/>
          <path id="Path_1051905" data-name="Path 1051905" d="M261.318,51.733l-.243,1.414a1.372,1.372,0,0,0,1.993,1.448l1.27-.668,1.27.668a1.374,1.374,0,0,0,1.993-1.448l-.243-1.414,1.028-1a1.374,1.374,0,0,0-.761-2.343l-1.42-.206-.635-1.287a1.365,1.365,0,0,0-1.232-.766h0a1.366,1.366,0,0,0-1.232.766l-.635,1.287-1.42.206a1.374,1.374,0,0,0-.761,2.343Zm1.739-1.658a1.373,1.373,0,0,0,1.034-.751l.247-.5.247.5a1.373,1.373,0,0,0,1.034.751l.552.08-.4.39a1.373,1.373,0,0,0-.4,1.216l.095.55-.494-.26a1.374,1.374,0,0,0-1.278,0l-.494.26.095-.55a1.373,1.373,0,0,0-.4-1.216l-.4-.39Z" transform="translate(-225.952 -46.129)"/>
          <path id="Path_1051906" data-name="Path 1051906" d="M426.7,51.733l-.242,1.414a1.372,1.372,0,0,0,1.993,1.448l1.27-.668,1.27.668a1.374,1.374,0,0,0,1.993-1.448l-.243-1.414,1.028-1a1.374,1.374,0,0,0-.761-2.343l-1.42-.206-.635-1.287a1.374,1.374,0,0,0-2.464,0h0l-.635,1.287-1.42.206a1.374,1.374,0,0,0-.761,2.343Zm1.74-1.658a1.373,1.373,0,0,0,1.034-.751l.247-.5.247.5a1.373,1.373,0,0,0,1.034.751l.552.08-.4.39a1.374,1.374,0,0,0-.395,1.215l.095.55-.494-.26a1.374,1.374,0,0,0-1.278,0l-.494.26.095-.55a1.374,1.374,0,0,0-.395-1.216l-.4-.39Z" transform="translate(-369.749 -46.129)"/>
          <path id="Path_1051907" data-name="Path 1051907" d="M276.353,161.6H252.946a.979.979,0,1,0,0,1.958h13.623v3.068H246.037a.328.328,0,0,1-.327-.327v-2.413a.328.328,0,0,1,.327-.327h2.737a.979.979,0,0,0,0-1.958h-2.737a2.288,2.288,0,0,0-2.285,2.285V166.3a2.288,2.288,0,0,0,2.285,2.285h30.316a2.288,2.288,0,0,0,2.285-2.285v-2.413A2.288,2.288,0,0,0,276.353,161.6Zm.327,4.7a.328.328,0,0,1-.327.327h-7.827v-3.068h7.827a.328.328,0,0,1,.327.327Z" transform="translate(-211.934 -146.531)"/>
        </g>
      </g>
    </g>
  </g>
</svg>
