<svg xmlns="http://www.w3.org/2000/svg" xmlns:xlink="http://www.w3.org/1999/xlink" width="113" height="113" viewBox="0 0 113 113">
  <defs>
    <filter id="Path_982547" x="0" y="0" width="113" height="113" filterUnits="userSpaceOnUse">
      <feOffset dy="3" input="SourceAlpha"/>
      <feGaussianBlur stdDeviation="3" result="blur"/>
      <feFlood flood-opacity="0.161"/>
      <feComposite operator="in" in2="blur"/>
      <feComposite in="SourceGraphic"/>
    </filter>
  </defs>
  <g id="Group_1208199" data-name="Group 1208199" transform="translate(-383.51 -5801.425)">
    <g id="Group_1208044" data-name="Group 1208044">
      <g id="Group_1207840" data-name="Group 1207840" transform="translate(-728.49 -975.226)">
        <g id="Group_1201923" data-name="Group 1201923" transform="translate(-4174.49 4856.378)">
          <g id="Group_1176928" data-name="Group 1176928" transform="translate(5295.49 1926.273)">
            <g id="Group_1172322" data-name="Group 1172322" transform="translate(0 0)">
              <g id="Group_1164700" data-name="Group 1164700">
                <g id="Group_1160931" data-name="Group 1160931">
                  <g id="Group_1160749" data-name="Group 1160749">
                    <g id="Group_1158891" data-name="Group 1158891">
                      <g id="Group_1157406" data-name="Group 1157406">
                        <g id="Group_1155793" data-name="Group 1155793">
                          <g id="Group_1154704" data-name="Group 1154704">
                            <g id="Group_1150790" data-name="Group 1150790">
                              <g id="Group_1154214" data-name="Group 1154214">
                                <g id="Group_1152583" data-name="Group 1152583">
                                  <g id="Group_1146973" data-name="Group 1146973">
                                    <g id="Group_1146954" data-name="Group 1146954">
                                      <g transform="matrix(1, 0, 0, 1, -9, -6)" filter="url(#Path_982547)">
                                        <g id="Path_982547-2" data-name="Path 982547" transform="translate(9 6)" fill="#ebe9f0">
                                          <path d="M 47.5000114440918 93.49987030029297 C 41.28938293457031 93.49987030029297 35.26534652709961 92.28384399414062 29.5951976776123 89.88558959960938 C 24.11773109436035 87.56881713867188 19.19814491271973 84.25183868408203 14.97310447692871 80.02680206298828 C 10.74805164337158 75.80176544189453 7.43107795715332 70.88218688964844 5.114304542541504 65.40472412109375 C 2.716038227081299 59.73458862304688 1.500011444091797 53.71054840087891 1.500011444091797 47.49993515014648 C 1.500011444091797 41.28932189941406 2.716038227081299 35.26528167724609 5.114304542541504 29.59514808654785 C 7.43107795715332 24.1176815032959 10.74805164337158 19.1981086730957 14.97310447692871 14.97306823730469 C 19.19814491271973 10.74802875518799 24.11773109436035 7.431055068969727 29.5951976776123 5.11428165435791 C 35.26534652709961 2.716028451919556 41.28938293457031 1.500001788139343 47.5000114440918 1.500001788139343 C 53.71063995361328 1.500001788139343 59.73467636108398 2.716028451919556 65.40482330322266 5.11428165435791 C 70.88229370117188 7.431055068969727 75.8018798828125 10.74802875518799 80.02691650390625 14.97306823730469 C 84.25196838378906 19.1981086730957 87.56894683837891 24.1176815032959 89.88571929931641 29.59514808654785 C 92.28398132324219 35.26528167724609 93.50001525878906 41.28932189941406 93.50001525878906 47.49993515014648 C 93.50001525878906 53.71054840087891 92.28398132324219 59.73458862304688 89.88571929931641 65.40472412109375 C 87.56894683837891 70.88218688964844 84.25196838378906 75.80176544189453 80.02691650390625 80.02680206298828 C 75.8018798828125 84.25183868408203 70.88229370117188 87.56881713867188 65.40482330322266 89.88558959960938 C 59.73467636108398 92.28384399414062 53.71063995361328 93.49987030029297 47.5000114440918 93.49987030029297 Z" stroke="none"/>
                                          <path d="M 47.5000114440918 3 C 41.49122619628906 3 35.66378021240234 4.1761474609375 30.17951965332031 6.495796203613281 C 24.880859375 8.7369384765625 20.12153625488281 11.94596862792969 16.03376770019531 16.03373718261719 C 11.94598388671875 20.12149047851562 8.736968994140625 24.88081359863281 6.495811462402344 30.17947387695312 C 4.176162719726562 35.66371917724609 3.000007629394531 41.49116516113281 3.000007629394531 47.49993515014648 C 3.000007629394531 53.50870513916016 4.176162719726562 59.33615112304688 6.495811462402344 64.82039642333984 C 8.736968994140625 70.11905670166016 11.94598388671875 74.87837982177734 16.03376770019531 78.96613311767578 C 20.12153625488281 83.05390167236328 24.880859375 86.26293182373047 30.17951965332031 88.50407409667969 C 35.66378021240234 90.82372283935547 41.49122619628906 91.99987030029297 47.5000114440918 91.99987030029297 C 53.50879669189453 91.99987030029297 59.33624267578125 90.82372283935547 64.82050323486328 88.50407409667969 C 70.11916351318359 86.26293182373047 74.87848663330078 83.05390167236328 78.96625518798828 78.96613311767578 C 83.05403900146484 74.87837982177734 86.2630615234375 70.11905670166016 88.50421142578125 64.82039642333984 C 90.82386016845703 59.33615112304688 92.00001525878906 53.50870513916016 92.00001525878906 47.49993515014648 C 92.00001525878906 41.49116516113281 90.82386016845703 35.66371917724609 88.50421142578125 30.17947387695312 C 86.2630615234375 24.88081359863281 83.05403900146484 20.12149047851562 78.96625518798828 16.03373718261719 C 74.87848663330078 11.94596862792969 70.11916351318359 8.7369384765625 64.82050323486328 6.495796203613281 C 59.33624267578125 4.1761474609375 53.50879669189453 3 47.5000114440918 3 M 47.5000114440918 0 C 73.73353576660156 0 95.00001525878906 21.26644134521484 95.00001525878906 47.49993515014648 C 95.00001525878906 73.73342895507812 73.73353576660156 94.99987030029297 47.5000114440918 94.99987030029297 C 21.26648712158203 94.99987030029297 7.62939453125e-06 73.73342895507812 7.62939453125e-06 47.49993515014648 C 7.62939453125e-06 21.26644134521484 21.26648712158203 0 47.5000114440918 0 Z" stroke="none" fill="#453179"/>
                                        </g>
                                      </g>
                                    </g>
                                  </g>
                                </g>
                              </g>
                            </g>
                          </g>
                        </g>
                      </g>
                    </g>
                  </g>
                </g>
              </g>
            </g>
          </g>
        </g>
      </g>
      <g id="rating_11252770" transform="translate(398.873 5810.288)">
        <g id="Group_1208041" data-name="Group 1208041" transform="translate(7.5 7.5)">
          <path id="Path_1052014" data-name="Path 1052014" d="M407.063,344.819v-3.691a2.334,2.334,0,0,0-4.549-.738l-.944,2.833a2.334,2.334,0,0,1-2.214,1.6h-.326a4.094,4.094,0,0,0,8.033,0Z" transform="translate(-346.814 -294.611)" fill="#bc775e"/>
          <path id="Path_1052015" data-name="Path 1052015" d="M414.966,391.417a2,2,0,0,1-1.42.588,2.01,2.01,0,0,1,1.42,3.427c-.7.7-1.431.588-2.425.588a2.008,2.008,0,1,1,0,4.017h-6.564c-.545-.505-4.6-4.395-4.05-10.048a11.63,11.63,0,0,1,2.47-6.019h9.149a2.008,2.008,0,1,1,0,4.017A2.011,2.011,0,0,1,414.966,391.417Z" transform="translate(-349.279 -333.763)" fill="#db9e82"/>
          <path id="Path_1052016" data-name="Path 1052016" d="M376.359,400.038h-2.473a4.016,4.016,0,0,1-4.017-4.017,9.449,9.449,0,0,1,0-12.05h4.909A19.481,19.481,0,0,0,376.359,400.038Z" transform="translate(-319.661 -333.763)" fill="#c8866a"/>
          <path id="Path_1052017" data-name="Path 1052017" d="M158.28,414.8H145.162c-6.507-4.17-3.789-12.666,3.413-13.8h9.284a21.787,21.787,0,0,1,4.326,8.917A4,4,0,0,1,158.28,414.8Z" transform="translate(-123.609 -348.522)" fill="#5ad6ff"/>
          <path id="Path_1052018" data-name="Path 1052018" d="M90.932,414.8H82.907a4,4,0,0,1-3.9-4.878A21.787,21.787,0,0,1,83.329,401H94.345a28.782,28.782,0,0,0-3.95,10.137A5.558,5.558,0,0,0,90.932,414.8Z" transform="translate(-69.378 -348.522)" fill="#00c5fd"/>
          <path id="Path_1052019" data-name="Path 1052019" d="M170.329,406.215a4,4,0,0,1-2.063-.569,4.152,4.152,0,0,1,3.082-6.435,4.408,4.408,0,0,1,2.978,2.59A4.017,4.017,0,0,1,170.329,406.215Z" transform="translate(-146.229 -346.97)" fill="#c8866a"/>
          <path id="Path_1052020" data-name="Path 1052020" d="M163.133,398.4a27.574,27.574,0,0,0-3.082,6.435,4.015,4.015,0,0,1-1.935-3.845A4.364,4.364,0,0,1,163.133,398.4Z" transform="translate(-138.014 -346.163)" fill="#bc775e"/>
          <path id="Path_1052021" data-name="Path 1052021" d="M12.405,263.906a4.017,4.017,0,1,1-.79-7.933c4.174,1.554,6.126,4.471,5.545,6.052C16.708,263.255,14.638,263.9,12.405,263.906Z" transform="translate(-7.5 -222.834)" fill="#db9e82"/>
          <path id="Path_1052022" data-name="Path 1052022" d="M300.955,263.666a4.017,4.017,0,1,0,.79-7.934c-3.3-.377-5.716,2.129-5.582,4.228C296.277,261.748,298.269,263.619,300.955,263.666Z" transform="translate(-257.66 -222.594)" fill="#c8866a"/>
          <path id="Path_1052023" data-name="Path 1052023" d="M102.858,207.486a20.083,20.083,0,0,1-20.738,18.627c-13.372-2.9-21.03-16.519-10.751-26.969C82.335,192.661,96.082,196.76,102.858,207.486Z" transform="translate(-58.727 -170.896)" fill="#db9e82"/>
          <path id="Path_1052024" data-name="Path 1052024" d="M57.334,246.28a20.084,20.084,0,0,1-19.323-18.627,26.044,26.044,0,0,1,8.573-8.342A20.1,20.1,0,0,0,57.334,246.28Z" transform="translate(-33.942 -191.063)" fill="#c8866a"/>
          <path id="Path_1052025" data-name="Path 1052025" d="M121.787,147.419a41.116,41.116,0,0,1-15-6.723,1.326,1.326,0,0,0-1.77.205,13.711,13.711,0,0,1-3.409,2.815,2,2,0,0,1-2.959-1.358c-.053-.256-.117-.511-.195-.76a1.328,1.328,0,0,0-2.035-.68,41.4,41.4,0,0,1-7.809,4.312c-1.579-12,9.208-20.984,20.673-17.883A20.091,20.091,0,0,1,121.787,147.419Z" transform="translate(-77.656 -110.829)" fill="#fcec78"/>
          <path id="Path_1052026" data-name="Path 1052026" d="M65.207,121.763a20.086,20.086,0,0,0-20.673,17.883,40.964,40.964,0,0,1-6.882,2.189A20.1,20.1,0,0,1,65.207,121.763Z" transform="translate(-33.583 -105.244)" fill="#ffcf6b"/>
          <ellipse id="Ellipse_13447" data-name="Ellipse 13447" cx="4.112" cy="3.275" rx="4.112" ry="3.275" transform="translate(8.843 38.638)" fill="#fff"/>
          <ellipse id="Ellipse_13448" data-name="Ellipse 13448" cx="4.112" cy="3.275" rx="4.112" ry="3.275" transform="translate(31.132 38.638)" fill="#fff"/>
          <path id="Path_1052027" data-name="Path 1052027" d="M344.82,384.979a2,2,0,0,1-2,2H340.8a2,2,0,0,1-2-2V370.912a2,2,0,0,1,2-2h2.024a2,2,0,0,1,2,2Z" transform="translate(-294.612 -320.712)" fill="#5ad6ff"/>
          <path id="Path_1052028" data-name="Path 1052028" d="M407.087,219.627c.647,1.353.51,1.305,2.049,1.536a2.358,2.358,0,0,1,1.256,3.988c-1.113,1.119-1.03,1-.783,2.485a2.282,2.282,0,0,1-3.289,2.465c-1.37-.743-1.237-.7-2.533,0a2.282,2.282,0,0,1-3.289-2.465c.263-1.58.26-1.436-.783-2.485a2.358,2.358,0,0,1,1.256-3.988c1.548-.232,1.405-.19,2.049-1.536A2.237,2.237,0,0,1,407.087,219.627Z" transform="translate(-346.814 -190.208)" fill="#fcec78"/>
          <path id="Path_1052029" data-name="Path 1052029" d="M361.911,99.156c.647,1.353.51,1.305,2.049,1.536a2.358,2.358,0,0,1,1.256,3.988c-1.041,1.046-1.049.885-.783,2.485a2.282,2.282,0,0,1-3.289,2.465c-1.37-.743-1.237-.7-2.533,0a2.282,2.282,0,0,1-3.289-2.465c.248-1.489.328-1.368-.783-2.485a2.358,2.358,0,0,1,1.256-3.988c1.424-.213,1.351-.077,2.049-1.536A2.237,2.237,0,0,1,361.911,99.156Z" transform="translate(-307.662 -85.803)" fill="#fcec78"/>
          <path id="Path_1052030" data-name="Path 1052030" d="M264.028,8.8c.689,1.44.61,1.32,2.049,1.536a2.358,2.358,0,0,1,1.256,3.988c-1.113,1.119-1.03,1-.783,2.485a2.282,2.282,0,0,1-3.289,2.465c-1.37-.743-1.237-.7-2.533,0a2.282,2.282,0,0,1-3.289-2.465l.141-.849c.124-.743-.386-1.1-.924-1.636a2.358,2.358,0,0,1,1.256-3.988c1.424-.213,1.351-.077,2.049-1.536A2.237,2.237,0,0,1,264.028,8.8Z" transform="translate(-222.834 -7.5)" fill="#fcec78"/>
        </g>
        <g id="Group_1208043" data-name="Group 1208043" transform="translate(7.5 7.5)">
          <circle id="Ellipse_13449" data-name="Ellipse 13449" cx="20.083" cy="20.083" r="20.083" transform="translate(4.017 15.062)" fill="none" stroke="#000" stroke-linecap="round" stroke-linejoin="round" stroke-miterlimit="10" stroke-width="1"/>
          <path id="Path_1052031" data-name="Path 1052031" d="M41.966,273.632a41.126,41.126,0,0,1-3.966,1.1" transform="translate(-33.932 -238.139)" fill="none" stroke="#000" stroke-linecap="round" stroke-linejoin="round" stroke-miterlimit="10" stroke-width="1"/>
          <path id="Path_1052032" data-name="Path 1052032" d="M129.936,236.565a41.138,41.138,0,0,1-15.005-6.723,1.327,1.327,0,0,0-1.77.206,13.656,13.656,0,0,1-3.409,2.815,2,2,0,0,1-2.959-1.357q-.078-.385-.194-.761a1.329,1.329,0,0,0-2.035-.68,41.369,41.369,0,0,1-6.709,3.833" transform="translate(-85.804 -199.975)" fill="none" stroke="#000" stroke-linecap="round" stroke-linejoin="round" stroke-miterlimit="10" stroke-width="1"/>
          <path id="Path_1052033" data-name="Path 1052033" d="M12.405,263.9a4.017,4.017,0,1,1-.79-7.934" transform="translate(-7.5 -222.833)" fill="none" stroke="#000" stroke-linecap="round" stroke-linejoin="round" stroke-miterlimit="10" stroke-width="1"/>
          <path id="Path_1052034" data-name="Path 1052034" d="M332.13,263.9a4.017,4.017,0,1,0,.79-7.934" transform="translate(-288.836 -222.833)" fill="none" stroke="#000" stroke-linecap="round" stroke-linejoin="round" stroke-miterlimit="10" stroke-width="1"/>
          <path id="Path_1052035" data-name="Path 1052035" d="M107.349,407.767q.356,1.058.606,2.15a4,4,0,0,1-3.9,4.879H82.908a4,4,0,0,1-3.9-4.879A21.775,21.775,0,0,1,83.329,401" transform="translate(-69.379 -348.522)" fill="none" stroke="#000" stroke-linecap="round" stroke-linejoin="round" stroke-miterlimit="10" stroke-width="1"/>
          <path id="Path_1052036" data-name="Path 1052036" d="M264.307,401a21.646,21.646,0,0,1,1.9,2.75" transform="translate(-230.058 -348.522)" fill="none" stroke="#000" stroke-linecap="round" stroke-linejoin="round" stroke-miterlimit="10" stroke-width="1"/>
          <path id="Path_1052037" data-name="Path 1052037" d="M166.1,418.634a4.017,4.017,0,1,1-8.014.4q0-.2.019-.4" transform="translate(-138.005 -363.803)" fill="none" stroke="#000" stroke-linecap="round" stroke-linejoin="round" stroke-miterlimit="10" stroke-width="1"/>
          <g id="Group_1208042" data-name="Group 1208042" transform="translate(15.352 36.821)">
            <line id="Line_835" data-name="Line 835" y2="1.6" transform="translate(0 0.299)" fill="none" stroke="#000" stroke-linecap="round" stroke-linejoin="round" stroke-miterlimit="10" stroke-width="1"/>
            <path id="Path_1052038" data-name="Path 1052038" d="M170.912,297.757a3.057,3.057,0,0,0,4.613,0" transform="translate(-164.47 -295.867)" fill="none" stroke="#000" stroke-linecap="round" stroke-linejoin="round" stroke-miterlimit="10" stroke-width="1"/>
            <path id="Path_1052039" data-name="Path 1052039" d="M242.211,285.444a1.855,1.855,0,0,1,3.709,0" transform="translate(-226.26 -283.589)" fill="none" stroke="#000" stroke-linecap="round" stroke-linejoin="round" stroke-miterlimit="10" stroke-width="1"/>
          </g>
          <path id="Path_1052040" data-name="Path 1052040" d="M344.82,384.979a2,2,0,0,1-2,2H340.8a2,2,0,0,1-2-2V370.912a2,2,0,0,1,2-2h2.024a2,2,0,0,1,2,2Z" transform="translate(-294.612 -320.712)" fill="none" stroke="#000" stroke-linecap="round" stroke-linejoin="round" stroke-miterlimit="10" stroke-width="1"/>
          <path id="Path_1052041" data-name="Path 1052041" d="M383.971,383.971h14.058a2.008,2.008,0,1,1,0,4.017,2.008,2.008,0,1,1,0,4.017,2.008,2.008,0,0,1,2.008,2.008h0a2.008,2.008,0,0,1-2.008,2.008h-1a2.008,2.008,0,0,1,2.008,2.008h0a2.008,2.008,0,0,1-2.008,2.008h-9.038a4.017,4.017,0,0,1-4.017-4.017h0" transform="translate(-333.763 -333.763)" fill="none" stroke="#000" stroke-linecap="round" stroke-linejoin="round" stroke-miterlimit="10" stroke-width="1"/>
          <path id="Path_1052042" data-name="Path 1052042" d="M407.063,344.819v-3.691a2.334,2.334,0,0,0-4.549-.738l-.944,2.833a2.334,2.334,0,0,1-2.214,1.6h-.326" transform="translate(-346.814 -294.611)" fill="none" stroke="#000" stroke-linecap="round" stroke-linejoin="round" stroke-miterlimit="10" stroke-width="1"/>
          <path id="Path_1052043" data-name="Path 1052043" d="M407.087,219.626c.321.671.5,1.3,1.223,1.412l.826.124a2.358,2.358,0,0,1,1.256,3.988c-.533.535-1.048.892-.924,1.636l.141.849a2.282,2.282,0,0,1-3.289,2.465c-.657-.356-1.146-.752-1.794-.4l-.739.4a2.282,2.282,0,0,1-3.289-2.465c.123-.742.34-1.356-.185-1.884l-.6-.6a2.358,2.358,0,0,1,1.256-3.988c.741-.111,1.356-.087,1.68-.763l.37-.772A2.237,2.237,0,0,1,407.087,219.626Z" transform="translate(-346.813 -190.207)" fill="none" stroke="#000" stroke-linecap="round" stroke-linejoin="round" stroke-miterlimit="10" stroke-width="1"/>
          <path id="Path_1052044" data-name="Path 1052044" d="M361.911,99.156l.37.772a1.137,1.137,0,0,0,.853.639l.826.124a2.358,2.358,0,0,1,1.256,3.988c-.533.535-1.048.892-.924,1.636l.141.849a2.282,2.282,0,0,1-3.289,2.465c-.657-.356-1.146-.752-1.794-.4l-.739.4a2.282,2.282,0,0,1-3.289-2.465c.123-.742.34-1.356-.185-1.884l-.6-.6a2.358,2.358,0,0,1,1.256-3.988l.826-.124a1.136,1.136,0,0,0,.853-.639l.37-.772A2.237,2.237,0,0,1,361.911,99.156Z" transform="translate(-307.662 -85.803)" fill="none" stroke="#000" stroke-linecap="round" stroke-linejoin="round" stroke-miterlimit="10" stroke-width="1"/>
          <path id="Path_1052045" data-name="Path 1052045" d="M264.028,8.8c.321.671.5,1.3,1.223,1.412l.826.124a2.358,2.358,0,0,1,1.256,3.988c-.533.535-1.048.892-.924,1.636l.141.849a2.282,2.282,0,0,1-3.289,2.465c-.657-.356-1.146-.752-1.794-.4l-.739.4a2.282,2.282,0,0,1-3.289-2.465c.123-.742.34-1.356-.185-1.884l-.6-.6a2.358,2.358,0,0,1,1.256-3.988l.826-.124a1.137,1.137,0,0,0,.853-.639l.37-.772A2.237,2.237,0,0,1,264.028,8.8Z" transform="translate(-222.834 -7.5)" fill="none" stroke="#000" stroke-linecap="round" stroke-linejoin="round" stroke-miterlimit="10" stroke-width="1"/>
        </g>
      </g>
    </g>
  </g>
</svg>
