<svg xmlns="http://www.w3.org/2000/svg" xmlns:xlink="http://www.w3.org/1999/xlink" width="108" height="108" viewBox="0 0 108 108">
  <defs>
    <filter id="Path_904820" x="0" y="0" width="108" height="108" filterUnits="userSpaceOnUse">
      <feOffset dy="3" input="SourceAlpha"/>
      <feGaussianBlur stdDeviation="3" result="blur"/>
      <feFlood flood-opacity="0.161"/>
      <feComposite operator="in" in2="blur"/>
      <feComposite in="SourceGraphic"/>
    </filter>
  </defs>
  <g id="Group_1208530" data-name="Group 1208530" transform="translate(-619.835 -7965.839)">
    <g id="Group_1208440" data-name="Group 1208440">
      <g id="Group_1208175" data-name="Group 1208175" transform="translate(628.835 7971.839)">
        <g id="Group_1201662" data-name="Group 1201662" transform="translate(0 0)">
          <g id="Group_1173585" data-name="Group 1173585">
            <g id="Group_1173428" data-name="Group 1173428">
              <g id="Group_1171958" data-name="Group 1171958">
                <g id="Group_1167341" data-name="Group 1167341">
                  <g id="Group_1166792" data-name="Group 1166792">
                    <g transform="matrix(1, 0, 0, 1, -9, -6)" filter="url(#Path_904820)">
                      <g id="Path_904820-2" data-name="Path 904820" transform="translate(9 6)" fill="#ebe9f0">
                        <path d="M 44.99999618530273 88.49997711181641 C 39.12687301635742 88.49997711181641 33.43022155761719 87.35005187988281 28.06829643249512 85.0821533203125 C 22.88852119445801 82.89128875732422 18.23629570007324 79.75457763671875 14.24084663391113 75.75912475585938 C 10.24540901184082 71.76367950439453 7.108683586120605 67.1114501953125 4.917821407318115 61.93169021606445 C 2.649921178817749 56.56975173950195 1.499996185302734 50.87311172485352 1.499996185302734 44.9999885559082 C 1.499996185302734 39.12686538696289 2.649921178817749 33.43021392822266 4.917821407318115 28.06828880310059 C 7.108683586120605 22.88851356506348 10.24540901184082 18.23630142211914 14.24084663391113 14.24085140228271 C 18.23629570007324 10.24540138244629 22.88852119445801 7.108688354492188 28.06829643249512 4.917826175689697 C 33.43022155761719 2.649925947189331 39.12687301635742 1.500001072883606 44.99999618530273 1.500001072883606 C 50.87311935424805 1.500001072883606 56.56977081298828 2.649925947189331 61.93169784545898 4.917826175689697 C 67.11147308349609 7.108688354492188 71.76369476318359 10.24540138244629 75.75914764404297 14.24085140228271 C 79.75458526611328 18.23630142211914 82.89131164550781 22.88851356506348 85.08216857910156 28.06828880310059 C 87.35007476806641 33.43021392822266 88.5 39.12686538696289 88.5 44.9999885559082 C 88.5 50.87311172485352 87.35007476806641 56.56975173950195 85.08216857910156 61.93169021606445 C 82.89131164550781 67.1114501953125 79.75458526611328 71.76367950439453 75.75914764404297 75.75912475585938 C 71.76369476318359 79.75457763671875 67.11147308349609 82.89128875732422 61.93169784545898 85.0821533203125 C 56.56977081298828 87.35005187988281 50.87311935424805 88.49997711181641 44.99999618530273 88.49997711181641 Z" stroke="none"/>
                        <path d="M 44.99999618530273 3 C 39.32870864868164 3 33.82865142822266 4.110061645507812 28.65262603759766 6.299331665039062 C 23.65165710449219 8.414573669433594 19.15968322753906 11.44332885742188 15.301513671875 15.301513671875 C 11.44333648681641 19.15969085693359 8.414566040039062 23.65164947509766 6.299339294433594 28.65261840820312 C 4.110054016113281 33.82864379882812 2.999992370605469 39.32870101928711 2.999992370605469 44.9999885559082 C 2.999992370605469 50.6712760925293 4.110054016113281 56.17131805419922 6.299339294433594 61.34735870361328 C 8.414566040039062 66.34832763671875 11.44333648681641 70.84028625488281 15.301513671875 74.69845581054688 C 19.15968322753906 78.55663299560547 23.65165710449219 81.58540344238281 28.65262603759766 83.70063018798828 C 33.82865142822266 85.88991546630859 39.32870864868164 86.99997711181641 44.99999618530273 86.99997711181641 C 50.67128372192383 86.99997711181641 56.17134094238281 85.88991546630859 61.34736633300781 83.70063018798828 C 66.34834289550781 81.58540344238281 70.84030914306641 78.55663299560547 74.69847869873047 74.69845581054688 C 78.55665588378906 70.84028625488281 81.58542633056641 66.34832763671875 83.70065307617188 61.34735870361328 C 85.88993835449219 56.17131805419922 87 50.6712760925293 87 44.9999885559082 C 87 39.32870101928711 85.88993835449219 33.82864379882812 83.70065307617188 28.65261840820312 C 81.58542633056641 23.65164947509766 78.55665588378906 19.15969085693359 74.69847869873047 15.301513671875 C 70.84030914306641 11.44332885742188 66.34834289550781 8.414573669433594 61.34736633300781 6.299331665039062 C 56.17134094238281 4.110061645507812 50.67128372192383 3 44.99999618530273 3 M 44.99999618530273 0 C 69.85281372070312 0 90 20.14717102050781 90 44.9999885559082 C 90 69.85279083251953 69.85281372070312 89.99997711181641 44.99999618530273 89.99997711181641 C 20.14717864990234 89.99997711181641 -7.62939453125e-06 69.85279083251953 -7.62939453125e-06 44.9999885559082 C -7.62939453125e-06 20.14717102050781 20.14717864990234 0 44.99999618530273 0 Z" stroke="none" fill="#453179"/>
                      </g>
                    </g>
                  </g>
                </g>
              </g>
            </g>
          </g>
        </g>
      </g>
      <g id="ice-climbing_14425568" transform="translate(638.468 7981.471)">
        <path id="Path_1052969" data-name="Path 1052969" d="M55.117,55.968A6.034,6.034,0,0,1,44.808,52q0-.124,0-.249h0a7.205,7.205,0,0,1,1.187-3.966,3.439,3.439,0,0,0,.326-3.1,6.855,6.855,0,0,1-.434-2.406h0a6.9,6.9,0,0,1,2.009-4.864h0a7.376,7.376,0,0,1,10.432,0L66,45.09Z" transform="translate(-33.121 -24.644)" fill="#8e453d"/>
        <path id="Path_1052970" data-name="Path 1052970" d="M299.848,118.54l-14.743,10.079L274,161.823h21.363a4.486,4.486,0,0,0,4.486-4.486Z" transform="translate(-236.613 -98.588)" fill="#7ce2ff"/>
        <g id="Group_1208428" data-name="Group 1208428" transform="translate(23.8 40.079)">
          <g id="Group_1208427" data-name="Group 1208427" transform="translate(0)">
            <path id="Path_1052971" data-name="Path 1052971" d="M171.483,304.826a20.744,20.744,0,0,1,2.329,4.257,3.364,3.364,0,1,1-6.232,2.537c-2.07-5.085-5.769-7.369-11-6.789a3.364,3.364,0,0,1-.743-6.688,16.319,16.319,0,0,1,12.484,3.311A17.047,17.047,0,0,1,171.483,304.826Z" transform="translate(-152.848 -298.01)" fill="#ea5b70"/>
          </g>
        </g>
        <path id="Path_1052972" data-name="Path 1052972" d="M215.063,59.325l8.734-26.7a3.358,3.358,0,0,1,2.15-2.148l5.2-1.7a3.358,3.358,0,0,0,2.187-2.268l1.881-6.564V10.858A3.358,3.358,0,0,0,231.861,7.5h0a3.358,3.358,0,0,0-3.228,2.433l-3.145,10.976a3.358,3.358,0,0,1-2.187,2.268l-5.2,1.7a3.358,3.358,0,0,0-2.15,2.148l-8.734,26.7a3.358,3.358,0,0,1-1.721,1.974L203.1,56.859a3.358,3.358,0,0,0,1.471,6.376h4.8l3.973-1.936A3.358,3.358,0,0,0,215.063,59.325Z" transform="translate(-171.983 0)" fill="#2fd0fc"/>
        <path id="Path_1052973" data-name="Path 1052973" d="M62.627,188.906c-.185-.091-.373-.178-.568-.254-4.554-1.783-10.013,1.283-12.192,6.849-1.741,4.446-.861,9.139,1.883,11.758a9.347,9.347,0,0,1-5.194,4.717v0l-.52,7.217a20.751,20.751,0,0,0,4.55-1.685,17.047,17.047,0,0,0,3.8-2.634,15.232,15.232,0,0,0,3.875-5.684,8.922,8.922,0,0,0,2.067-.639Z" transform="translate(-34.215 -160.386)" fill="#f47587"/>
        <path id="Path_1052974" data-name="Path 1052974" d="M142.848,207.989c2.087-5.328.41-11.012-3.731-13.053a11.871,11.871,0,0,0-6.031,6.595c-2.086,5.327-.411,11.01,3.729,13.052A11.867,11.867,0,0,0,142.848,207.989Z" transform="translate(-110.705 -166.416)" fill="#ff8e9e"/>
        <g id="Group_1208429" data-name="Group 1208429" transform="translate(19.834 7.5)">
          <path id="Path_1052975" data-name="Path 1052975" d="M132.1,7.793a11.225,11.225,0,0,0-13.666,9.372c.006,0,3.969,1.674,7.158,3.023Z" transform="translate(-118.329 -7.5)" fill="#9b5449"/>
          <path id="Path_1052976" data-name="Path 1052976" d="M196.734,21.038a11.219,11.219,0,0,0-8.656-10.921,12.343,12.343,0,0,0-6.508,12.4l3.949,1.67Z" transform="translate(-174.305 -9.824)" fill="#ac6758"/>
          <path id="Path_1052977" data-name="Path 1052977" d="M125.213,56.2a11.025,11.025,0,0,1-1.674-2.352c-1.257,4.139-5.928,4.466-5.949,4.467a11.223,11.223,0,0,0,13.666,12.47Z" transform="translate(-117.482 -48.654)" fill="#ffcbbe"/>
          <path id="Path_1052978" data-name="Path 1052978" d="M196.734,76.485c-3.05-3.671-6.3-3.918-6.3-3.918s1.531,2.469.691,3.259c-.712.67-5.65.676-9.092-3.006a12.353,12.353,0,0,0,6.043,14.585A11.219,11.219,0,0,0,196.734,76.485Z" transform="translate(-174.305 -65.27)" fill="#ffddcf"/>
        </g>
        <path id="Path_1052979" data-name="Path 1052979" d="M290.484,206.074a23.893,23.893,0,0,0,2.932-.433,15.761,15.761,0,0,0,5.549-2.844,3.364,3.364,0,0,0-4.117-5.322,7.946,7.946,0,0,1-4.56,1.883h0Z" transform="translate(-251.076 -168.045)" fill="#ffddcf"/>
        <g id="Group_1208430" data-name="Group 1208430" transform="translate(25.385 29.173)">
          <path id="Path_1052980" data-name="Path 1052980" d="M184.17,206.262a3.361,3.361,0,0,0-3.361-3.361h0a6.36,6.36,0,0,1-3.281-.826,10.925,10.925,0,0,0-8.053-.933,3.364,3.364,0,0,0,1.741,6.5,4.222,4.222,0,0,1,3.113.353,13.072,13.072,0,0,0,6.479,1.63l.2-.006A3.361,3.361,0,0,0,184.17,206.262Z" transform="translate(-166.98 -200.762)" fill="#ff8e9e"/>
        </g>
        <path id="Path_1052981" data-name="Path 1052981" d="M13.988,407.231l-1.646-6.565-2.719.682a2.8,2.8,0,0,0-2.038,3.4l1.363,5.439a2.814,2.814,0,0,0,.2.548Z" transform="translate(-0.001 -349.075)" fill="#30cd9c"/>
        <path id="Path_1052982" data-name="Path 1052982" d="M25.381,464.2h0a2.8,2.8,0,0,0,2.038-3.4l-.4-1.593-2.719.682a2.8,2.8,0,0,0-2.12,2.823A2.8,2.8,0,0,0,25.381,464.2Z" transform="translate(-13.032 -401.053)" fill="#6fdcba"/>
        <g id="Group_1208439" data-name="Group 1208439" transform="translate(7.5 7.5)">
          <path id="Path_1052983" data-name="Path 1052983" d="M49.694,57.638A5.909,5.909,0,0,1,44.808,52q0-.124,0-.249h0a7.205,7.205,0,0,1,1.187-3.966,3.439,3.439,0,0,0,.326-3.1,6.855,6.855,0,0,1-.434-2.406h0a6.9,6.9,0,0,1,2.009-4.864h0a7.378,7.378,0,0,1,7.881-1.664" transform="translate(-40.621 -32.144)" fill="none" stroke="#000" stroke-linecap="round" stroke-linejoin="round" stroke-miterlimit="10" stroke-width="1"/>
          <path id="Path_1052984" data-name="Path 1052984" d="M335.435,98.313l-.924,3.225a3.358,3.358,0,0,1-2.187,2.268l-5.2,1.7a3.358,3.358,0,0,0-2.15,2.148l-.97,2.964" transform="translate(-288.506 -88.129)" fill="none" stroke="#000" stroke-linecap="round" stroke-linejoin="round" stroke-miterlimit="10" stroke-width="1"/>
          <path id="Path_1052985" data-name="Path 1052985" d="M212.341,38.036l-5.13,15.682a3.358,3.358,0,0,1-1.721,1.974L203.1,56.859a3.358,3.358,0,0,0,1.471,6.376h30.65V10.858A3.358,3.358,0,0,0,231.859,7.5h0a3.358,3.358,0,0,0-3.228,2.433l-1.1,3.828" transform="translate(-179.481 -7.5)" fill="none" stroke="#000" stroke-linecap="round" stroke-linejoin="round" stroke-miterlimit="10" stroke-width="1"/>
          <path id="Path_1052986" data-name="Path 1052986" d="M125.67,29.516a11.215,11.215,0,1,1,5.8.068" transform="translate(-105.148 -7.5)" fill="none" stroke="#000" stroke-linecap="round" stroke-linejoin="round" stroke-miterlimit="10" stroke-width="1"/>
          <path id="Path_1052987" data-name="Path 1052987" d="M118.431,58.319s4.69-.319,5.95-4.467c3.21,6.016,9.926,6.148,10.766,5.358s-.691-3.259-.691-3.259,3.248.247,6.3,3.918" transform="translate(-105.991 -48.654)" fill="none" stroke="#000" stroke-linecap="round" stroke-linejoin="round" stroke-miterlimit="10" stroke-width="1"/>
          <g id="Group_1208431" data-name="Group 1208431" transform="translate(20.522 21.225)">
            <path id="Path_1052988" data-name="Path 1052988" d="M190.494,197.56a10.922,10.922,0,0,1,7.91.97c2.565,1.386,5.13,1.04,7.842-1.057a3.364,3.364,0,0,1,4.116,5.322,15.762,15.762,0,0,1-5.549,2.844,12.821,12.821,0,0,1-3.128.44,13.072,13.072,0,0,1-6.479-1.63,4.223,4.223,0,0,0-3.113-.353" transform="translate(-190.494 -196.77)" fill="none" stroke="#000" stroke-linecap="round" stroke-linejoin="round" stroke-miterlimit="10" stroke-width="1"/>
          </g>
          <path id="Path_1052989" data-name="Path 1052989" d="M53.565,324.31a8.852,8.852,0,0,0,2.307,3.844,9.343,9.343,0,0,1-5.193,4.719" transform="translate(-45.837 -288.782)" fill="none" stroke="#000" stroke-linecap="round" stroke-linejoin="round" stroke-miterlimit="10" stroke-width="1"/>
          <path id="Path_1052990" data-name="Path 1052990" d="M82.021,188.411c-3.6.315-7.15,3.1-8.8,7.326a12.9,12.9,0,0,0-.881,4.03" transform="translate(-65.064 -168.123)" fill="none" stroke="#000" stroke-linecap="round" stroke-linejoin="round" stroke-miterlimit="10" stroke-width="1"/>
          <path id="Path_1052991" data-name="Path 1052991" d="M65.837,288.71a19.914,19.914,0,0,0,2.33-1.014,17.045,17.045,0,0,0,3.8-2.634,15.233,15.233,0,0,0,3.875-5.684,11.259,11.259,0,0,0,8.1-7.233,12.756,12.756,0,0,0,.895-4.949" transform="translate(-59.295 -238.074)" fill="none" stroke="#000" stroke-linecap="round" stroke-linejoin="round" stroke-miterlimit="10" stroke-width="1"/>
          <path id="Path_1052992" data-name="Path 1052992" d="M8.948,410.188l-1.364-5.439a2.8,2.8,0,0,1,2.038-3.4l2.719-.682,2.045,8.158a2.8,2.8,0,0,1-2.038,3.4h0A2.8,2.8,0,0,1,8.948,410.188Z" transform="translate(-7.5 -356.575)" fill="none" stroke="#000" stroke-linecap="round" stroke-linejoin="round" stroke-miterlimit="10" stroke-width="1"/>
          <g id="Group_1208432" data-name="Group 1208432" transform="translate(20.857 32.915)">
            <path id="Path_1052993" data-name="Path 1052993" d="M231.587,301a15.233,15.233,0,0,1,6,2.614" transform="translate(-227.314 -301.004)" fill="none" stroke="#000" stroke-linecap="round" stroke-linejoin="round" stroke-miterlimit="10" stroke-width="1"/>
            <path id="Path_1052994" data-name="Path 1052994" d="M201.5,361.269a9.313,9.313,0,0,0-8.021-3.206" transform="translate(-193.481 -351.647)" fill="none" stroke="#000" stroke-linecap="round" stroke-linejoin="round" stroke-miterlimit="10" stroke-width="1"/>
          </g>
          <g id="Group_1208433" data-name="Group 1208433" transform="translate(31.713 23.812)">
            <path id="Path_1052995" data-name="Path 1052995" d="M290.484,226.553a3.361,3.361,0,0,0-.2-6.717" transform="translate(-290.288 -219.836)" fill="none" stroke="#000" stroke-linecap="round" stroke-linejoin="round" stroke-miterlimit="10" stroke-width="1"/>
          </g>
          <g id="Group_1208438" data-name="Group 1208438" transform="translate(19.976 13.413)">
            <g id="Group_1208437" data-name="Group 1208437">
              <g id="Group_1208434" data-name="Group 1208434">
                <line id="Line_867" data-name="Line 867" y2="1.077" fill="none" stroke="#000" stroke-linecap="round" stroke-linejoin="round" stroke-miterlimit="10" stroke-width="1"/>
              </g>
              <g id="Group_1208435" data-name="Group 1208435" transform="translate(11.214)">
                <line id="Line_868" data-name="Line 868" y2="1.077" fill="none" stroke="#000" stroke-linecap="round" stroke-linejoin="round" stroke-miterlimit="10" stroke-width="1"/>
              </g>
              <g id="Group_1208436" data-name="Group 1208436" transform="translate(4.129 1.045)">
                <path id="Path_1052996" data-name="Path 1052996" d="M222.442,136.423a1.959,1.959,0,0,0,2.957,0" transform="translate(-222.442 -136.423)" fill="none" stroke="#000" stroke-linecap="round" stroke-linejoin="round" stroke-miterlimit="10" stroke-width="1"/>
              </g>
            </g>
          </g>
          <path id="Path_1052997" data-name="Path 1052997" d="M435.353,128.574l3.686-1.2a3.357,3.357,0,0,0,2.187-2.268l1.881-6.564" transform="translate(-387.372 -106.088)" fill="none" stroke="#000" stroke-linecap="round" stroke-linejoin="round" stroke-miterlimit="10" stroke-width="1"/>
          <path id="Path_1052998" data-name="Path 1052998" d="M327.447,335.171l1.07-3.272a3.358,3.358,0,0,1,2.15-2.148l5.2-1.7a3.357,3.357,0,0,0,2.187-2.268l1.881-6.564" transform="translate(-291.567 -284.265)" fill="none" stroke="#000" stroke-linecap="round" stroke-linejoin="round" stroke-miterlimit="10" stroke-width="1"/>
        </g>
      </g>
    </g>
  </g>
</svg>
