<svg xmlns="http://www.w3.org/2000/svg" xmlns:xlink="http://www.w3.org/1999/xlink" width="108" height="108" viewBox="0 0 108 108">
  <defs>
    <filter id="Path_904820" x="0" y="0" width="108" height="108" filterUnits="userSpaceOnUse">
      <feOffset dy="3" input="SourceAlpha"/>
      <feGaussianBlur stdDeviation="3" result="blur"/>
      <feFlood flood-opacity="0.161"/>
      <feComposite operator="in" in2="blur"/>
      <feComposite in="SourceGraphic"/>
    </filter>
  </defs>
  <g id="Group_1208525" data-name="Group 1208525" transform="translate(-619.477 -5610.029)">
    <g id="Group_1208426" data-name="Group 1208426">
      <g id="Group_1208174" data-name="Group 1208174" transform="translate(628.477 5616.029)">
        <g id="Group_1201662" data-name="Group 1201662" transform="translate(0 0)">
          <g id="Group_1173585" data-name="Group 1173585">
            <g id="Group_1173428" data-name="Group 1173428">
              <g id="Group_1171958" data-name="Group 1171958">
                <g id="Group_1167341" data-name="Group 1167341">
                  <g id="Group_1166792" data-name="Group 1166792">
                    <g transform="matrix(1, 0, 0, 1, -9, -6)" filter="url(#Path_904820)">
                      <g id="Path_904820-2" data-name="Path 904820" transform="translate(9 6)" fill="#edf3fc">
                        <path d="M 44.99999618530273 88.49997711181641 C 39.12687301635742 88.49997711181641 33.43022155761719 87.35005187988281 28.06829643249512 85.0821533203125 C 22.88852119445801 82.89128875732422 18.23629570007324 79.75457763671875 14.24084663391113 75.75912475585938 C 10.24540901184082 71.76367950439453 7.108683586120605 67.1114501953125 4.917821407318115 61.93169021606445 C 2.649921178817749 56.56975173950195 1.499996185302734 50.87311172485352 1.499996185302734 44.9999885559082 C 1.499996185302734 39.12686538696289 2.649921178817749 33.43021392822266 4.917821407318115 28.06828880310059 C 7.108683586120605 22.88851356506348 10.24540901184082 18.23630142211914 14.24084663391113 14.24085140228271 C 18.23629570007324 10.24540138244629 22.88852119445801 7.108688354492188 28.06829643249512 4.917826175689697 C 33.43022155761719 2.649925947189331 39.12687301635742 1.500001072883606 44.99999618530273 1.500001072883606 C 50.87311935424805 1.500001072883606 56.56977081298828 2.649925947189331 61.93169784545898 4.917826175689697 C 67.11147308349609 7.108688354492188 71.76369476318359 10.24540138244629 75.75914764404297 14.24085140228271 C 79.75458526611328 18.23630142211914 82.89131164550781 22.88851356506348 85.08216857910156 28.06828880310059 C 87.35007476806641 33.43021392822266 88.5 39.12686538696289 88.5 44.9999885559082 C 88.5 50.87311172485352 87.35007476806641 56.56975173950195 85.08216857910156 61.93169021606445 C 82.89131164550781 67.1114501953125 79.75458526611328 71.76367950439453 75.75914764404297 75.75912475585938 C 71.76369476318359 79.75457763671875 67.11147308349609 82.89128875732422 61.93169784545898 85.0821533203125 C 56.56977081298828 87.35005187988281 50.87311935424805 88.49997711181641 44.99999618530273 88.49997711181641 Z" stroke="none"/>
                        <path d="M 44.99999618530273 3 C 39.32870864868164 3 33.82865142822266 4.110061645507812 28.65262603759766 6.299331665039062 C 23.65165710449219 8.414573669433594 19.15968322753906 11.44332885742188 15.301513671875 15.301513671875 C 11.44333648681641 19.15969085693359 8.414566040039062 23.65164947509766 6.299339294433594 28.65261840820312 C 4.110054016113281 33.82864379882812 2.999992370605469 39.32870101928711 2.999992370605469 44.9999885559082 C 2.999992370605469 50.6712760925293 4.110054016113281 56.17131805419922 6.299339294433594 61.34735870361328 C 8.414566040039062 66.34832763671875 11.44333648681641 70.84028625488281 15.301513671875 74.69845581054688 C 19.15968322753906 78.55663299560547 23.65165710449219 81.58540344238281 28.65262603759766 83.70063018798828 C 33.82865142822266 85.88991546630859 39.32870864868164 86.99997711181641 44.99999618530273 86.99997711181641 C 50.67128372192383 86.99997711181641 56.17134094238281 85.88991546630859 61.34736633300781 83.70063018798828 C 66.34834289550781 81.58540344238281 70.84030914306641 78.55663299560547 74.69847869873047 74.69845581054688 C 78.55665588378906 70.84028625488281 81.58542633056641 66.34832763671875 83.70065307617188 61.34735870361328 C 85.88993835449219 56.17131805419922 87 50.6712760925293 87 44.9999885559082 C 87 39.32870101928711 85.88993835449219 33.82864379882812 83.70065307617188 28.65261840820312 C 81.58542633056641 23.65164947509766 78.55665588378906 19.15969085693359 74.69847869873047 15.301513671875 C 70.84030914306641 11.44332885742188 66.34834289550781 8.414573669433594 61.34736633300781 6.299331665039062 C 56.17134094238281 4.110061645507812 50.67128372192383 3 44.99999618530273 3 M 44.99999618530273 0 C 69.85281372070312 0 90 20.14717102050781 90 44.9999885559082 C 90 69.85279083251953 69.85281372070312 89.99997711181641 44.99999618530273 89.99997711181641 C 20.14717864990234 89.99997711181641 -7.62939453125e-06 69.85279083251953 -7.62939453125e-06 44.9999885559082 C -7.62939453125e-06 20.14717102050781 20.14717864990234 0 44.99999618530273 0 Z" stroke="none" fill="#5692e8"/>
                      </g>
                    </g>
                  </g>
                </g>
              </g>
            </g>
          </g>
        </g>
      </g>
      <g id="decision_6193699_1_" data-name="decision_6193699 (1)" transform="translate(642.82 5631.646)">
        <g id="Group_1208424" data-name="Group 1208424" transform="translate(-1.691 -4.23)">
          <path id="Path_1052946" data-name="Path 1052946" d="M60.272,86.806a8.861,8.861,0,0,1-3.628-.773v6.036a3.628,3.628,0,0,0,7.257,0V86.034A8.863,8.863,0,0,1,60.272,86.806Z" transform="translate(-27.87 -41.51)" fill="#fdbdb1"/>
          <path id="Path_1052947" data-name="Path 1052947" d="M60.448,50.33h0v1.326a1.985,1.985,0,0,0,1.985,1.985h1.323V51.656a8.9,8.9,0,0,0-17.8,0v1.985h5.429a14.068,14.068,0,0,0,9.062-3.309Z" transform="translate(-22.453 -19.579)" fill="#97de3d"/>
          <path id="Path_1052948" data-name="Path 1052948" d="M61.432,61.42h-2.6a1.985,1.985,0,0,1-1.985-1.982V58.112a14.069,14.069,0,0,1-9.064,3.308H41.079a2.228,2.228,0,1,0,0,4.457h1.532a8.9,8.9,0,0,0,17.29,0h1.532a2.228,2.228,0,1,0,0-4.457Z" transform="translate(-18.853 -27.361)" fill="#ffdbca"/>
          <path id="Path_1052949" data-name="Path 1052949" d="M81.4,69.312H79.88a.863.863,0,1,1,0-1.726H81.4a.863.863,0,1,1,0,1.726Z" transform="translate(-39.207 -32.162)" fill="#fdbdb1"/>
          <path id="Path_1052950" data-name="Path 1052950" d="M44.785,69.312H43.266a.863.863,0,0,1,0-1.726h1.519a.863.863,0,1,1,0,1.726Z" transform="translate(-20.653 -32.162)" fill="#fdbdb1"/>
          <path id="Path_1052951" data-name="Path 1052951" d="M59.906,76.082A3.99,3.99,0,0,1,55.92,72.1a.863.863,0,0,1,1.726,0,2.259,2.259,0,1,0,4.518,0,.863.863,0,1,1,1.726,0A3.99,3.99,0,0,1,59.906,76.082Z" transform="translate(-27.503 -34.01)" fill="#fdbdb1"/>
          <path id="Path_1052952" data-name="Path 1052952" d="M63.524,103.792v6.718H28.66v-6.718a8.6,8.6,0,0,1,8.6-8.6h5.2v1.519a3.63,3.63,0,1,0,7.261,0V95.19h5.2a8.6,8.6,0,0,1,8.6,8.6Z" transform="translate(-13.689 -46.15)" fill="#ff641a"/>
          <circle id="Ellipse_13495" data-name="Ellipse 13495" cx="8.081" cy="8.081" r="8.081" transform="translate(21.374 8.032) rotate(-29.801)" fill="#474f54"/>
          <path id="Path_1052953" data-name="Path 1052953" d="M63.911,10.968a2.346,2.346,0,0,0-2.343-2.343H58.238a.864.864,0,0,0-.863.863v7.651a.864.864,0,0,0,.863.863h3.329a2.346,2.346,0,0,0,2.343-2.343v-.866a2.322,2.322,0,0,0-.543-1.48,2.318,2.318,0,0,0,.543-1.48ZM59.1,10.351h2.466a.617.617,0,0,1,.617.617v.866a.617.617,0,0,1-.617.617H59.1Zm3.083,5.308a.618.618,0,0,1-.617.617H59.1v-2.1h2.466a.618.618,0,0,1,.617.617Z" transform="translate(-28.24 -2.284)" fill="#97de3d"/>
          <circle id="Ellipse_13496" data-name="Ellipse 13496" cx="8.081" cy="8.081" r="8.081" transform="translate(45.358 28.448) rotate(-77.216)" fill="#6aa9ff"/>
          <path id="Path_1052954" data-name="Path 1052954" d="M108.914,40.965h-2.836a2.839,2.839,0,0,1-2.836-2.836V34.422a2.84,2.84,0,0,1,2.836-2.836h2.836a.863.863,0,0,1,0,1.726h-2.836a1.111,1.111,0,0,0-1.11,1.11v3.7a1.111,1.111,0,0,0,1.11,1.11h2.836a.863.863,0,1,1,0,1.726Z" transform="translate(-51.483 -13.92)" fill="#fff5f5"/>
          <circle id="Ellipse_13497" data-name="Ellipse 13497" cx="8.081" cy="8.081" r="8.081" transform="matrix(0.971, -0.239, 0.239, 0.971, 0, 16.44)" fill="#fed843"/>
          <path id="Path_1052955" data-name="Path 1052955" d="M15.207,31.586h-.863a2.84,2.84,0,0,0-2.836,2.836V40.1a.863.863,0,1,0,1.726,0V37.956h3.083V40.1a.863.863,0,1,0,1.726,0V34.422a2.84,2.84,0,0,0-2.836-2.836ZM13.234,36.23V34.422a1.111,1.111,0,0,1,1.11-1.11h.863a1.111,1.111,0,0,1,1.11,1.11V36.23Z" transform="translate(-4.997 -13.92)" fill="#ff641a"/>
          <path id="Path_1052956" data-name="Path 1052956" d="M88.416,112.533v6.329H86.69v-6.329a.863.863,0,0,1,1.726,0Z" transform="translate(-43.095 -54.501)" fill="#f03800"/>
          <path id="Path_1052957" data-name="Path 1052957" d="M39.536,112.533v6.329H37.81v-6.329a.863.863,0,0,1,1.726,0Z" transform="translate(-18.326 -54.501)" fill="#f03800"/>
        </g>
        <g id="Group_1208425" data-name="Group 1208425" transform="translate(-0.857 -2.148)">
          <path id="Path_1052958" data-name="Path 1052958" d="M79.88,69.312H81.4a.863.863,0,1,0,0-1.726H79.88a.863.863,0,1,0,0,1.726Z" transform="translate(-40.041 -34.244)"/>
          <path id="Path_1052959" data-name="Path 1052959" d="M44.785,67.586H43.266a.863.863,0,0,0,0,1.726h1.519a.863.863,0,1,0,0-1.726Z" transform="translate(-21.487 -34.244)"/>
          <path id="Path_1052960" data-name="Path 1052960" d="M59.905,76.082A3.99,3.99,0,0,0,63.89,72.1a.863.863,0,0,0-1.726,0,2.259,2.259,0,1,1-4.518,0,.863.863,0,1,0-1.726,0A3.99,3.99,0,0,0,59.905,76.082Z" transform="translate(-28.336 -36.092)"/>
          <path id="Path_1052961" data-name="Path 1052961" d="M54.036,67.091H49.7v-3.1a9.729,9.729,0,0,0,4.807-5.7h.879a3.092,3.092,0,1,0,0-6.183h-.41V50.992a9.767,9.767,0,0,0-19.528,0v1.122h-.413a3.092,3.092,0,1,0,0,6.183h.878a9.729,9.729,0,0,0,4.807,5.694v3.1h-4.34a9.475,9.475,0,0,0-9.464,9.465v6.718a.863.863,0,0,0,.863.863h8.583a.863.863,0,1,0,0-1.726H34.016V76.949a.863.863,0,1,0-1.726,0v5.464h-3.65V76.558a7.747,7.747,0,0,1,7.738-7.74h4.337v.657a4.492,4.492,0,0,0,8.983,0v-.657h4.339a7.747,7.747,0,0,1,7.738,7.738v5.856h-3.65V76.949a.863.863,0,1,0-1.726,0v5.464h-8.59a.863.863,0,1,0,0,1.726H62.636a.863.863,0,0,0,.863-.863V76.558a9.475,9.475,0,0,0-9.463-9.466Zm-8.829-24.14a8.047,8.047,0,0,1,8.04,8.04v1.122h-.46a1.123,1.123,0,0,1-1.124-1.122V49.666a.863.863,0,0,0-1.419-.66,13.227,13.227,0,0,1-8.508,3.108H37.169V50.992A8.047,8.047,0,0,1,45.206,42.952ZM37.4,57.226a.863.863,0,0,0-.839-.659H35.03a1.365,1.365,0,1,1,0-2.73h6.705a14.958,14.958,0,0,0,8.226-2.47,2.853,2.853,0,0,0,2.823,2.47h2.6a1.365,1.365,0,1,1,0,2.73H53.851a.864.864,0,0,0-.839.659,8.008,8.008,0,0,1-4.5,5.416,8.165,8.165,0,0,1-6.61,0A8.008,8.008,0,0,1,37.4,57.226ZM47.972,69.474a2.765,2.765,0,0,1-5.53,0v-4.8a9.946,9.946,0,0,0,5.53,0Z" transform="translate(-13.637 -20.997)"/>
          <path id="Path_1052962" data-name="Path 1052962" d="M56.75,124.5H54.3a.863.863,0,1,0,0,1.726H56.75a.863.863,0,1,0,0-1.726Z" transform="translate(-27.077 -63.085)"/>
          <path id="Path_1052963" data-name="Path 1052963" d="M54.811,17.883a8.921,8.921,0,0,0,8.814-7.413.863.863,0,1,0-1.7-.3,7.216,7.216,0,1,1-.461-4.048.863.863,0,1,0,1.59-.672,8.945,8.945,0,1,0-8.241,12.429Z" transform="translate(-23.242 0.009)"/>
          <path id="Path_1052964" data-name="Path 1052964" d="M63.911,10.968a2.346,2.346,0,0,0-2.343-2.343H58.238a.864.864,0,0,0-.863.863v7.651a.864.864,0,0,0,.863.863h3.329a2.346,2.346,0,0,0,2.343-2.343v-.866a2.322,2.322,0,0,0-.543-1.48,2.318,2.318,0,0,0,.543-1.48ZM59.1,10.351h2.466a.617.617,0,0,1,.617.617v.866a.617.617,0,0,1-.617.617H59.1Zm3.083,5.308a.618.618,0,0,1-.617.617H59.1v-2.1h2.466a.618.618,0,0,1,.617.617Z" transform="translate(-29.074 -4.366)"/>
          <path id="Path_1052965" data-name="Path 1052965" d="M100.677,22.958a8.945,8.945,0,1,0,8.944,8.945A8.945,8.945,0,0,0,100.677,22.958Zm0,16.163A7.218,7.218,0,1,1,107.9,31.9,7.218,7.218,0,0,1,100.677,39.121Z" transform="translate(-46.484 -11.629)"/>
          <path id="Path_1052966" data-name="Path 1052966" d="M106.078,33.312h2.836a.863.863,0,0,0,0-1.726h-2.836a2.84,2.84,0,0,0-2.836,2.836v3.7a2.839,2.839,0,0,0,2.836,2.836h2.836a.863.863,0,1,0,0-1.726h-2.836a1.111,1.111,0,0,1-1.11-1.11v-3.7A1.111,1.111,0,0,1,106.078,33.312Z" transform="translate(-52.316 -16.002)"/>
          <path id="Path_1052967" data-name="Path 1052967" d="M17.889,31.9a8.945,8.945,0,1,0-8.945,8.944A8.945,8.945,0,0,0,17.889,31.9ZM8.944,39.12A7.218,7.218,0,1,1,16.162,31.9,7.218,7.218,0,0,1,8.944,39.12Z" transform="translate(0.001 -11.629)"/>
          <path id="Path_1052968" data-name="Path 1052968" d="M15.207,31.586h-.863a2.84,2.84,0,0,0-2.836,2.836V40.1a.863.863,0,1,0,1.726,0V37.956h3.083V40.1a.863.863,0,1,0,1.726,0V34.422a2.84,2.84,0,0,0-2.836-2.836ZM13.234,36.23V34.422a1.111,1.111,0,0,1,1.11-1.11h.863a1.111,1.111,0,0,1,1.11,1.11V36.23Z" transform="translate(-5.831 -16.002)"/>
        </g>
      </g>
    </g>
  </g>
</svg>
