<svg xmlns="http://www.w3.org/2000/svg" xmlns:xlink="http://www.w3.org/1999/xlink" width="108" height="108" viewBox="0 0 108 108">
  <defs>
    <filter id="Path_904820" x="0" y="0" width="108" height="108" filterUnits="userSpaceOnUse">
      <feOffset dy="3" input="SourceAlpha"/>
      <feGaussianBlur stdDeviation="3" result="blur"/>
      <feFlood flood-opacity="0.161"/>
      <feComposite operator="in" in2="blur"/>
      <feComposite in="SourceGraphic"/>
    </filter>
  </defs>
  <g id="Group_1208548" data-name="Group 1208548" transform="translate(-619.477 -3969)">
    <g id="Group_1208486" data-name="Group 1208486">
      <g id="Group_1208253" data-name="Group 1208253" transform="translate(628.477 3975)">
        <g id="Group_1201662" data-name="Group 1201662" transform="translate(0 0)">
          <g id="Group_1173585" data-name="Group 1173585">
            <g id="Group_1173428" data-name="Group 1173428">
              <g id="Group_1171958" data-name="Group 1171958">
                <g id="Group_1167341" data-name="Group 1167341">
                  <g id="Group_1166792" data-name="Group 1166792">
                    <g transform="matrix(1, 0, 0, 1, -9, -6)" filter="url(#Path_904820)">
                      <g id="Path_904820-2" data-name="Path 904820" transform="translate(9 6)" fill="#fdfbec">
                        <path d="M 44.99999618530273 88.49996948242188 C 39.12687301635742 88.49996948242188 33.43022155761719 87.35004425048828 28.06829643249512 85.08214569091797 C 22.88852119445801 82.89128112792969 18.23629570007324 79.75457000732422 14.24084663391113 75.75911712646484 C 10.24540901184082 71.763671875 7.108683586120605 67.11144256591797 4.917821407318115 61.93168258666992 C 2.649921178817749 56.56974411010742 1.499996185302734 50.87310409545898 1.499996185302734 44.99998092651367 C 1.499996185302734 39.12685775756836 2.649921178817749 33.43020629882812 4.917821407318115 28.06828117370605 C 7.108683586120605 22.88851928710938 10.24540901184082 18.23629379272461 14.24084663391113 14.24084377288818 C 18.23629570007324 10.24540615081787 22.88852119445801 7.108693599700928 28.06829643249512 4.917830944061279 C 33.43022155761719 2.649930953979492 39.12687301635742 1.500005960464478 44.99999618530273 1.500005960464478 C 50.87311935424805 1.500005960464478 56.56977081298828 2.649930953979492 61.93169784545898 4.917830944061279 C 67.11147308349609 7.108693599700928 71.76369476318359 10.24540615081787 75.75914764404297 14.24084377288818 C 79.75458526611328 18.23629379272461 82.89131164550781 22.88851928710938 85.08216857910156 28.06828117370605 C 87.35007476806641 33.43020629882812 88.5 39.12685775756836 88.5 44.99998092651367 C 88.5 50.87310409545898 87.35007476806641 56.56974411010742 85.08216857910156 61.93168258666992 C 82.89131164550781 67.11144256591797 79.75458526611328 71.763671875 75.75914764404297 75.75911712646484 C 71.76369476318359 79.75457000732422 67.11147308349609 82.89128112792969 61.93169784545898 85.08214569091797 C 56.56977081298828 87.35004425048828 50.87311935424805 88.49996948242188 44.99999618530273 88.49996948242188 Z" stroke="none"/>
                        <path d="M 44.99999618530273 2.999992370605469 C 39.32870864868164 2.999992370605469 33.82865142822266 4.110054016113281 28.65262603759766 6.299324035644531 C 23.65165710449219 8.414566040039062 19.15968322753906 11.44332122802734 15.301513671875 15.30150604248047 C 11.44333648681641 19.15968322753906 8.414566040039062 23.65164184570312 6.299339294433594 28.65261077880859 C 4.110054016113281 33.82863616943359 2.999992370605469 39.32869338989258 2.999992370605469 44.99998092651367 C 2.999992370605469 50.67126846313477 4.110054016113281 56.17131042480469 6.299339294433594 61.34735107421875 C 8.414566040039062 66.34832763671875 11.44333648681641 70.84027862548828 15.301513671875 74.69845581054688 C 19.15968322753906 78.55662536621094 23.65165710449219 81.58539581298828 28.65262603759766 83.70062255859375 C 33.82865142822266 85.88990783691406 39.32870864868164 86.99996948242188 44.99999618530273 86.99996948242188 C 50.67128372192383 86.99996948242188 56.17134094238281 85.88990783691406 61.34736633300781 83.70062255859375 C 66.34834289550781 81.58539581298828 70.84030914306641 78.55662536621094 74.69847869873047 74.69845581054688 C 78.55665588378906 70.84027862548828 81.58542633056641 66.34832763671875 83.70065307617188 61.34735107421875 C 85.88993835449219 56.17131042480469 87 50.67126846313477 87 44.99998092651367 C 87 39.32869338989258 85.88993835449219 33.82863616943359 83.70065307617188 28.65261077880859 C 81.58542633056641 23.65164184570312 78.55665588378906 19.15968322753906 74.69847869873047 15.30150604248047 C 70.84030914306641 11.44332122802734 66.34834289550781 8.414566040039062 61.34736633300781 6.299324035644531 C 56.17134094238281 4.110054016113281 50.67128372192383 2.999992370605469 44.99999618530273 2.999992370605469 M 44.99999618530273 -7.62939453125e-06 C 69.85281372070312 -7.62939453125e-06 90 20.14716339111328 90 44.99998092651367 C 90 69.852783203125 69.85281372070312 89.99996948242188 44.99999618530273 89.99996948242188 C 20.14717864990234 89.99996948242188 -7.62939453125e-06 69.852783203125 -7.62939453125e-06 44.99998092651367 C -7.62939453125e-06 20.14716339111328 20.14717864990234 -7.62939453125e-06 44.99999618530273 -7.62939453125e-06 Z" stroke="none" fill="#83793c"/>
                      </g>
                    </g>
                  </g>
                </g>
              </g>
            </g>
          </g>
        </g>
      </g>
      <g id="goalkeeper_4351556" transform="translate(642.07 3989.372)">
        <path id="Path_1053115" data-name="Path 1053115" d="M77.8,30.7a6.965,6.965,0,0,0-.14-13.926,1.153,1.153,0,0,1-1.118-.946,6.964,6.964,0,0,0-10.218-4.82,1.159,1.159,0,0,1-1.476-.284,7.781,7.781,0,0,0-12.236,0,1.159,1.159,0,0,1-1.476.284A6.965,6.965,0,0,0,40.92,15.83a1.153,1.153,0,0,1-1.118.946A6.965,6.965,0,0,0,39.649,30.7Z" transform="translate(-29.005 -6.61)" fill="#e26e7e"/>
        <path id="Path_1053116" data-name="Path 1053116" d="M126.383,362.592a2.589,2.589,0,0,0,2.568-2.974,19.1,19.1,0,0,0-37.727,0,2.59,2.59,0,0,0,2.568,2.974Z" transform="translate(-80.361 -302.477)" fill="#79ce6f"/>
        <path id="Path_1053117" data-name="Path 1053117" d="M155.043,343.5a19.023,19.023,0,0,0-12.835,4.958,33.967,33.967,0,0,0,25.67,0A19.024,19.024,0,0,0,155.043,343.5Z" transform="translate(-125.317 -302.477)" fill="#4dc176"/>
        <path id="Path_1053118" data-name="Path 1053118" d="M199.3,357.991c-1.411,3.528-4.234,9.229-7.94,9.229s-6.528-5.7-7.94-9.229Z" transform="translate(-161.636 -315.248)" fill="#fff"/>
        <path id="Path_1053119" data-name="Path 1053119" d="M186.143,363.364a35.938,35.938,0,0,0,10.438,0,30.584,30.584,0,0,0,2.72-5.374H183.423A30.583,30.583,0,0,0,186.143,363.364Z" transform="translate(-161.636 -315.247)" fill="#efedff"/>
        <path id="Path_1053120" data-name="Path 1053120" d="M350.108,413.09a19.006,19.006,0,0,0-3.921-8.913c-3.622,3.825-3.99,9-4.028,11.886h5.381A2.589,2.589,0,0,0,350.108,413.09Z" transform="translate(-301.518 -355.948)" fill="#4dc176"/>
        <path id="Path_1053121" data-name="Path 1053121" d="M91.223,413.09a19.006,19.006,0,0,1,3.921-8.913c3.622,3.825,3.99,9,4.028,11.886H93.791A2.589,2.589,0,0,1,91.223,413.09Z" transform="translate(-80.36 -355.948)" fill="#4dc176"/>
        <ellipse id="Ellipse_13511" data-name="Ellipse 13511" cx="5.795" cy="5.549" rx="5.795" ry="5.549" transform="translate(0.891 22.004)" fill="#ffbf9e"/>
        <ellipse id="Ellipse_13512" data-name="Ellipse 13512" cx="5.795" cy="5.549" rx="5.795" ry="5.549" transform="translate(46.971 22.004)" fill="#ffbf9e"/>
        <path id="Path_1053122" data-name="Path 1053122" d="M85.939,134.584c12.233,0,22.149-6.557,22.149-17.5a17.736,17.736,0,0,0-5.949-13.2c-6.88-5.97-13.091,3.108-16.2,3.108s-9.32-9.077-16.2-3.108a17.736,17.736,0,0,0-5.949,13.2c0,10.943,9.917,17.5,22.149,17.5Z" transform="translate(-56.213 -89.53)" fill="#ffd4be"/>
        <g id="Group_1208484" data-name="Group 1208484" transform="translate(16.138 24.62)">
          <g id="Group_1208483" data-name="Group 1208483">
            <ellipse id="Ellipse_13513" data-name="Ellipse 13513" cx="3.662" cy="2.917" rx="3.662" ry="2.917" fill="#eda1ab"/>
            <ellipse id="Ellipse_13514" data-name="Ellipse 13514" cx="3.662" cy="2.917" rx="3.662" ry="2.917" transform="translate(19.851)" fill="#eda1ab"/>
          </g>
        </g>
        <g id="Group_1208485" data-name="Group 1208485" transform="translate(34.019 26.505)">
          <path id="Path_1053123" data-name="Path 1053123" d="M308.351,225.334a2.063,2.063,0,0,0-2.063,2.063V224.87a2.1,2.1,0,0,0-1.963-2.119,2.063,2.063,0,0,0-2.162,2.06V223.4a2.1,2.1,0,0,0-1.963-2.119,2.063,2.063,0,0,0-2.162,2.06v1.972a2.063,2.063,0,1,0-4.126,0v8.752a.436.436,0,0,1-.745.309l-2.032-2.032a2.769,2.769,0,0,0-3.915,3.915l6.692,6.692v2.557h16.5V227.4a2.063,2.063,0,0,0-2.063-2.063Z" transform="translate(-286.409 -221.28)" fill="#e26e7e"/>
          <path id="Path_1053124" data-name="Path 1053124" d="M352.6,406.466H334.873a1.285,1.285,0,0,1-1.285-1.285V401.9a1.285,1.285,0,0,1,1.285-1.285H352.6a1.285,1.285,0,0,1,1.285,1.285v3.284A1.285,1.285,0,0,1,352.6,406.466Z" transform="translate(-327.984 -379.311)" fill="#f5ea72"/>
        </g>
        <path id="Path_1053125" data-name="Path 1053125" d="M58.915,46.934V32.621a2.936,2.936,0,0,0-.495-1.634,6.35,6.35,0,0,0-3.334-9.474A7.844,7.844,0,0,0,48.664,9.275a.261.261,0,0,1-.25-.218,7.809,7.809,0,0,0-.795-2.267.891.891,0,0,0-1.571.841,6.028,6.028,0,0,1,.614,1.751,2.046,2.046,0,0,0,1.985,1.675A6.062,6.062,0,0,1,53.14,21.124a6.872,6.872,0,0,0-1.508.083,19.25,19.25,0,0,0-5.1-7.512l-.018-.016c-7.375-6.4-14.268,2.89-16.784,2.89s-9.407-9.29-16.784-2.89l-.018.016a19.251,19.251,0,0,0-5.1,7.512,6.876,6.876,0,0,0-1.5-.083A6.017,6.017,0,0,1,4.8,17.115a6.09,6.09,0,0,1,6-6.058,2.046,2.046,0,0,0,1.986-1.675,6.078,6.078,0,0,1,8.91-4.2,2.042,2.042,0,0,0,2.608-.512,6.89,6.89,0,0,1,10.836,0,2.042,2.042,0,0,0,2.608.512,6.076,6.076,0,0,1,5.7-.1A.891.891,0,0,0,44.262,3.5a7.864,7.864,0,0,0-7.375.125.268.268,0,0,1-.343-.056,8.672,8.672,0,0,0-13.635,0,.268.268,0,0,1-.343.057A7.862,7.862,0,0,0,11.039,9.058a.261.261,0,0,1-.25.218A7.878,7.878,0,0,0,3.019,17.11a7.76,7.76,0,0,0,1.351,4.4A6.467,6.467,0,0,0,0,27.554a6.621,6.621,0,0,0,7.865,6.339c1.849,4.627,5.706,7.936,10.357,9.88A19.864,19.864,0,0,0,9.982,57a3.481,3.481,0,0,0,3.449,4h7.18a.891.891,0,1,0,0-1.782h-.927C19.6,56.8,19.148,52,15.95,48.2a18.309,18.309,0,0,1,4.355-3.663q.72.23,1.465.423c2.411,5.242,5.087,7.9,7.956,7.9,2.789,0,5.4-2.513,7.754-7.469l2.031,2.031a2.171,2.171,0,0,0-.779,1.666v3.284a2.178,2.178,0,0,0,1.67,2.114,23.4,23.4,0,0,0-.63,4.736H24.9a.891.891,0,0,0,0,1.782H46.021a3.481,3.481,0,0,0,3.449-4,19.842,19.842,0,0,0-.547-2.454h9.715a2.178,2.178,0,0,0,2.176-2.176V49.09a2.178,2.178,0,0,0-1.9-2.156ZM1.782,27.554a4.82,4.82,0,0,1,5.5-4.622,18.144,18.144,0,0,0,.013,9.245,4.825,4.825,0,0,1-5.509-4.623ZM17.893,59.224H13.431a1.7,1.7,0,0,1-1.688-1.945,18.1,18.1,0,0,1,3.092-7.65C15.953,51.016,17.654,53.841,17.893,59.224Zm39.13-29.358a2.947,2.947,0,0,0-2.239.046,3,3,0,0,0-2.022-2.68,18.287,18.287,0,0,0-.587-4.3C56.236,22.467,59,26.611,57.024,29.866Zm-27.3,21.215c-1.856,0-3.865-1.986-5.739-5.634a33.417,33.417,0,0,0,11.479,0C33.591,49.1,31.582,51.081,29.726,51.081Zm0-6.918c-11.06,0-21.259-5.7-21.259-16.609a16.906,16.906,0,0,1,5.651-12.537c6.344-5.492,11.949,3.334,15.607,3.334,3.677,0,9.257-8.831,15.607-3.334a16.925,16.925,0,0,1,5.647,12.19,2.9,2.9,0,0,0-.553.231,2.944,2.944,0,0,0-5.585.429,2.956,2.956,0,0,0-4.211,2.673v7.655l-1.256-1.256A3.659,3.659,0,0,0,34.2,42.113l1.479,1.479a30.66,30.66,0,0,1-5.953.57Zm5.734-3.309A1.878,1.878,0,0,1,38.115,38.2l2.032,2.032a1.328,1.328,0,0,0,2.266-.938V30.539a1.172,1.172,0,0,1,2.344,0V37.36a.891.891,0,1,0,1.782,0V28.567a1.171,1.171,0,0,1,1.23-1.171,1.216,1.216,0,0,1,1.114,1.229v8.611a.891.891,0,1,0,1.782,0v-7.2a1.171,1.171,0,0,1,1.23-1.171,1.216,1.216,0,0,1,1.114,1.229v7.8a.891.891,0,0,0,1.782,0V32.621a1.172,1.172,0,0,1,2.344,0V46.915H41.521ZM46.021,59.224H41.555a21.172,21.172,0,0,1,.672-4.674h4.834a18.116,18.116,0,0,1,.649,2.729,1.7,1.7,0,0,1-1.688,1.945Zm13.011-6.85a.4.4,0,0,1-.394.394H40.908a.4.4,0,0,1-.394-.394V49.09a.4.4,0,0,1,.394-.394h17.73a.4.4,0,0,1,.394.394v3.284ZM32.366,24.013a.891.891,0,0,0-1.257.086,1.831,1.831,0,0,1-2.765,0A.891.891,0,1,0,27,25.27a3.613,3.613,0,0,0,5.451,0A.891.891,0,0,0,32.366,24.013ZM21.935,22.377a.891.891,0,0,0-.891.891v1.425a.891.891,0,0,0,1.782,0V23.268A.891.891,0,0,0,21.935,22.377Zm14.206,3.167a.891.891,0,0,0,.891-.891.761.761,0,0,1,1.522,0,.891.891,0,1,0,1.782,0,2.543,2.543,0,0,0-5.085,0A.891.891,0,0,0,36.141,25.544Z"/>
      </g>
    </g>
  </g>
</svg>
