<svg xmlns="http://www.w3.org/2000/svg" xmlns:xlink="http://www.w3.org/1999/xlink" width="113" height="113" viewBox="0 0 113 113">
  <defs>
    <filter id="Path_982547" x="0" y="0" width="113" height="113" filterUnits="userSpaceOnUse">
      <feOffset dy="3" input="SourceAlpha"/>
      <feGaussianBlur stdDeviation="3" result="blur"/>
      <feFlood flood-opacity="0.161"/>
      <feComposite operator="in" in2="blur"/>
      <feComposite in="SourceGraphic"/>
    </filter>
  </defs>
  <g id="Group_1208535" data-name="Group 1208535" transform="translate(-1216 -9101)">
    <g id="Group_1208479" data-name="Group 1208479">
      <g id="Group_1208179" data-name="Group 1208179" transform="translate(0 6278.857)">
        <g id="Group_1207724" data-name="Group 1207724" transform="translate(-1 752.362)">
          <g id="Group_1207257" data-name="Group 1207257" transform="translate(0 -8747.046)">
            <g id="Group_1204128" data-name="Group 1204128" transform="translate(0 6976.49)">
              <g id="Group_1203961" data-name="Group 1203961" transform="translate(0.44 1899.461)">
                <g id="Group_1203500" data-name="Group 1203500" transform="translate(0 -197.72)">
                  <g id="Group_1202592" data-name="Group 1202592" transform="translate(1225.561 2144.596)">
                    <g id="Group_1172010" data-name="Group 1172010" transform="translate(0)">
                      <g id="Group_1171046" data-name="Group 1171046">
                        <g id="Group_1148525" data-name="Group 1148525">
                          <g transform="matrix(1, 0, 0, 1, -9, -6)" filter="url(#Path_982547)">
                            <g id="Path_982547-2" data-name="Path 982547" transform="translate(9 6)" fill="#edf3fc">
                              <path d="M 47.5 93.5 C 41.28937149047852 93.5 35.26533508300781 92.28397369384766 29.59518623352051 89.88570404052734 C 24.11771965026855 87.56893157958984 19.19813346862793 84.25196075439453 14.97309303283691 80.02691650390625 C 10.74804019927979 75.80186462402344 7.431066513061523 70.88229370117188 5.114293098449707 65.40481567382812 C 2.716026782989502 59.73468017578125 1.5 53.71062850952148 1.5 47.5 C 1.5 41.28937149047852 2.716026782989502 35.26533508300781 5.114293098449707 29.59518623352051 C 7.431066513061523 24.11771965026855 10.74804019927979 19.19813346862793 14.97309303283691 14.97309303283691 C 19.19813346862793 10.74804019927979 24.11771965026855 7.431066513061523 29.59518623352051 5.114293098449707 C 35.26533508300781 2.716026782989502 41.28937149047852 1.5 47.5 1.5 C 53.71062850952148 1.5 59.73468017578125 2.716026782989502 65.40481567382812 5.114293098449707 C 70.88229370117188 7.431066513061523 75.80186462402344 10.74804019927979 80.02691650390625 14.97309303283691 C 84.25196075439453 19.19813346862793 87.56893157958984 24.11771965026855 89.88570404052734 29.59518623352051 C 92.28397369384766 35.26533508300781 93.5 41.28937149047852 93.5 47.5 C 93.5 53.71062850952148 92.28397369384766 59.73468017578125 89.88570404052734 65.40481567382812 C 87.56893157958984 70.88229370117188 84.25196075439453 75.80186462402344 80.02691650390625 80.02691650390625 C 75.80186462402344 84.25196075439453 70.88229370117188 87.56893157958984 65.40481567382812 89.88570404052734 C 59.73468017578125 92.28397369384766 53.71062850952148 93.5 47.5 93.5 Z" stroke="none"/>
                              <path d="M 47.5 3 C 41.49121475219727 3 35.66376876831055 4.176155090332031 30.17950439453125 6.495796203613281 C 24.88084411621094 8.736953735351562 20.12152099609375 11.94598388671875 16.03375244140625 16.03375244140625 C 11.94598388671875 20.12152099609375 8.736953735351562 24.88084411621094 6.495796203613281 30.17950439453125 C 4.176155090332031 35.66376876831055 3 41.49121475219727 3 47.5 C 3 53.50878524780273 4.176155090332031 59.33623123168945 6.495796203613281 64.82049560546875 C 8.736953735351562 70.11915588378906 11.94598388671875 74.87847900390625 16.03375244140625 78.96624755859375 C 20.12152099609375 83.05401611328125 24.88084411621094 86.26304626464844 30.17950439453125 88.50419616699219 C 35.66376876831055 90.82384490966797 41.49121475219727 92 47.5 92 C 53.50878524780273 92 59.33623123168945 90.82384490966797 64.82049560546875 88.50419616699219 C 70.11915588378906 86.26304626464844 74.87847900390625 83.05401611328125 78.96624755859375 78.96624755859375 C 83.05401611328125 74.87847900390625 86.26304626464844 70.11915588378906 88.50419616699219 64.82049560546875 C 90.82384490966797 59.33623123168945 92 53.50878524780273 92 47.5 C 92 41.49121475219727 90.82384490966797 35.66376876831055 88.50419616699219 30.17950439453125 C 86.26304626464844 24.88084411621094 83.05401611328125 20.12152099609375 78.96624755859375 16.03375244140625 C 74.87847900390625 11.94598388671875 70.11915588378906 8.736953735351562 64.82049560546875 6.495796203613281 C 59.33623123168945 4.176155090332031 53.50878524780273 3 47.5 3 M 47.5 0 C 73.7335205078125 0 95 21.2664794921875 95 47.5 C 95 73.7335205078125 73.7335205078125 95 47.5 95 C 21.2664794921875 95 0 73.7335205078125 0 47.5 C 0 21.2664794921875 21.2664794921875 0 47.5 0 Z" stroke="none" fill="#5692e8"/>
                            </g>
                          </g>
                        </g>
                      </g>
                    </g>
                  </g>
                </g>
              </g>
            </g>
          </g>
        </g>
      </g>
      <g id="triangle_10910805" transform="translate(1223.199 9121.977)">
        <g id="Group_1208477" data-name="Group 1208477" transform="translate(18.824 0.951)">
          <path id="Path_1053067" data-name="Path 1053067" d="M141.666,281.9l-.728-.3a3.491,3.491,0,0,1-1.908-4.553l6.8-16.612,7.189,2.944L146.22,280A3.491,3.491,0,0,1,141.666,281.9Z" transform="translate(-124.361 -228.304)" fill="#ffcbbe"/>
          <g id="Group_1208472" data-name="Group 1208472" transform="translate(23.174 31.339)">
            <path id="Path_1053068" data-name="Path 1053068" d="M242.875,280.545l-7.962-18.415a10.166,10.166,0,1,0-19.489,5.652l-7.138,12.364a3.884,3.884,0,0,0,1.422,5.306h0a3.884,3.884,0,0,0,5.306-1.422l5.616-9.728a.836.836,0,0,1,1-.372,10.175,10.175,0,0,0,8.538-.85.835.835,0,0,1,1.187.394l4.391,10.155a3.884,3.884,0,0,0,5.106,2.024h0A3.884,3.884,0,0,0,242.875,280.545Z" transform="translate(-207.764 -254.167)" fill="#5b778f"/>
            <path id="Path_1053069" data-name="Path 1053069" d="M215.544,304.605a10.042,10.042,0,0,0-.706,3.19,10.169,10.169,0,0,0,.586,4.016l-7.138,12.364a3.884,3.884,0,0,0,1.422,5.306h0a3.884,3.884,0,0,0,5.306-1.422l5.616-9.728a.836.836,0,0,1,1-.372,10.19,10.19,0,0,0,6.484.078A28.629,28.629,0,0,1,215.544,304.605Z" transform="translate(-207.764 -298.197)" fill="#485c70"/>
          </g>
          <path id="Path_1053070" data-name="Path 1053070" d="M298.281,80.158l.514.595a3.491,3.491,0,0,1-.36,4.924L283.889,98.241l-5.078-5.878L293.357,79.8A3.491,3.491,0,0,1,298.281,80.158Z" transform="translate(-246.61 -69.871)" fill="#ffcbbe"/>
          <g id="Group_1208473" data-name="Group 1208473" transform="translate(21.941 22.381)">
            <path id="Path_1053071" data-name="Path 1053071" d="M222.527,197.39a33.276,33.276,0,0,1-10.732,10.732,4.349,4.349,0,0,1-5.051-.253c-3.777-3.069-6.434-7.81-8.681-13.333a33.287,33.287,0,0,1,10.879-10.879c5.523,2.248,10.264,4.9,13.333,8.681A4.349,4.349,0,0,1,222.527,197.39Z" transform="translate(-198.062 -183.657)" fill="#55d47b"/>
            <path id="Path_1053072" data-name="Path 1053072" d="M204.558,209.449c0-.14,0-.279.005-.419a33.351,33.351,0,0,0-6.5,7.656c2.248,5.523,4.9,10.265,8.681,13.333a4.349,4.349,0,0,0,5.051.253c.365-.228.722-.464,1.076-.7A28.418,28.418,0,0,1,204.558,209.449Z" transform="translate(-198.062 -205.806)" fill="#00c755"/>
          </g>
          <circle id="Ellipse_13502" data-name="Ellipse 13502" cx="4.935" cy="4.935" r="4.935" transform="translate(5.544 26.449)" fill="#ffddcf"/>
          <circle id="Ellipse_13503" data-name="Ellipse 13503" cx="4.935" cy="4.935" r="4.935" transform="translate(25.996 5.997)" fill="#ffcbbe"/>
          <g id="Group_1208474" data-name="Group 1208474" transform="translate(6.244 6.697)">
            <circle id="Ellipse_13504" data-name="Ellipse 13504" cx="14.461" cy="14.461" r="14.461" fill="#ffddcf"/>
            <path id="Path_1053073" data-name="Path 1053073" d="M95.413,130.722A18.518,18.518,0,0,1,76.895,112.2q0-.747.059-1.48a14.464,14.464,0,0,0,20.292,19.908Q96.341,130.72,95.413,130.722Z" transform="translate(-74.513 -104.306)" fill="#ffcbbe"/>
          </g>
          <g id="Group_1208475" data-name="Group 1208475">
            <path id="Path_1053074" data-name="Path 1053074" d="M47.088,12.549A16.48,16.48,0,0,0,41.71,7.5a10.166,10.166,0,0,0-3.216,5.181c-.069.257-.125.514-.175.77a14.42,14.42,0,0,0-4.43,3.026q-.122.122-.24.246a4.031,4.031,0,0,1-1.066.8,14.5,14.5,0,0,0-7.146,8.552,1.622,1.622,0,0,0,1.3,2.071,14.632,14.632,0,0,0,1.566.169,1.849,1.849,0,0,1,1.688,1.475,14.369,14.369,0,0,0,.931,2.832,15.5,15.5,0,0,0,6.192-3.9C39.865,25.97,41.4,22.679,41.444,20a1,1,0,0,1,.985-.985c2.677-.042,5.968-1.579,8.721-4.332q.2-.2.386-.4A14.389,14.389,0,0,0,47.088,12.549Z" transform="translate(-25.365 -7.5)" fill="#f77661"/>
            <path id="Path_1053075" data-name="Path 1053075" d="M33.991,75.241a18.465,18.465,0,0,1,1.313-6.86,14.528,14.528,0,0,0-1.415,1.242q-.122.122-.24.246a4.032,4.032,0,0,1-1.066.8,14.5,14.5,0,0,0-7.146,8.552,1.622,1.622,0,0,0,1.3,2.071,14.63,14.63,0,0,0,1.566.169,1.85,1.85,0,0,1,1.688,1.475,14.369,14.369,0,0,0,.931,2.832A14.689,14.689,0,0,0,35.74,83.1,18.445,18.445,0,0,1,33.991,75.241Z" transform="translate(-25.365 -60.646)" fill="#df543d"/>
          </g>
          <g id="Group_1208476" data-name="Group 1208476" transform="translate(4.384 4.837)">
            <path id="Path_1053076" data-name="Path 1053076" d="M82.817,51.23,65.531,68.516a2.1,2.1,0,0,1-2.964,0l-2.078-2.078a2.1,2.1,0,0,1,0-2.964L77.775,46.187a2.1,2.1,0,0,1,2.964,0l2.078,2.078A2.1,2.1,0,0,1,82.817,51.23Z" transform="translate(-59.874 -45.574)" fill="#ffb3dd"/>
            <path id="Path_1053077" data-name="Path 1053077" d="M64.565,154.38l-4.076,4.076a2.1,2.1,0,0,0,0,2.964l2.078,2.078a2.1,2.1,0,0,0,2.964,0l2.2-2.2A18.435,18.435,0,0,1,64.565,154.38Z" transform="translate(-59.875 -140.556)" fill="#ff89ca"/>
          </g>
        </g>
        <g id="Group_1208478" data-name="Group 1208478" transform="translate(17.872 -0.002)">
          <path id="Path_1053078" data-name="Path 1053078" d="M138.461,222.685a.953.953,0,1,0-1.347,1.348l1.219,1.219a.953.953,0,1,0,1.348-1.348Z" transform="translate(-121.72 -194.148)"/>
          <path id="Path_1053079" data-name="Path 1053079" d="M238.2,125.38a.953.953,0,0,0,1.348-1.348l-1.219-1.219a.953.953,0,0,0-1.348,1.348Z" transform="translate(-208.903 -106.966)"/>
          <path id="Path_1053080" data-name="Path 1053080" d="M187.147,168.617a.953.953,0,0,0-.885,1.016,2.182,2.182,0,0,1-2.329,2.329.953.953,0,0,0-.13,1.9q.141.01.281.01a4.088,4.088,0,0,0,4.08-4.371A.956.956,0,0,0,187.147,168.617Z" transform="translate(-161.945 -147.192)"/>
          <path id="Path_1053081" data-name="Path 1053081" d="M77.983,58.291l-3.145-7.272a.953.953,0,1,0-1.749.756l3.145,7.273a2.9,2.9,0,0,1,.241,1.16,2.933,2.933,0,0,1-1.77,2.694,2.9,2.9,0,0,1-1.159.241,2.93,2.93,0,0,1-2.693-1.769L66.462,51.219a1.8,1.8,0,0,0-1.1-1,1.776,1.776,0,0,0-1.452.161,9.214,9.214,0,0,1-7.736.769,1.791,1.791,0,0,0-2.14.8l-5.616,9.728a2.928,2.928,0,0,1-4,1.072,2.929,2.929,0,0,1-1.073-4l5.879-10.183a5.192,5.192,0,0,0,2.9.874A5.436,5.436,0,0,0,55,48.6a34.216,34.216,0,0,0,8.9-7.98,35.019,35.019,0,0,0,2.14-3.056,5.516,5.516,0,0,0,.416-.815,13.457,13.457,0,0,0,.868,1.313,9.89,9.89,0,0,1,.7,1.68c.9,2.777,2.213,5.432,3.371,8.11a.953.953,0,0,0,1.749-.756c-1.016-2.35-2.151-4.653-3.018-7.065a19.3,19.3,0,0,0-1.206-3.02,11.01,11.01,0,0,0-.926-1.39c-.183-.234-1.121-1-1.135-1.245a5.165,5.165,0,0,0-1.143-2.967c-.181-.223-.376-.451-.578-.676A23.787,23.787,0,0,0,60.5,26.785l10.477-9.051a4.836,4.836,0,1,0-6.323-7.32L54.639,19.061a15.216,15.216,0,0,0-.874-2.868c.052-.048.1-.1.153-.146a5.888,5.888,0,0,0-7.713-8.861L44.748,5.729A3.07,3.07,0,0,0,41.2,5.172l-.078-.019A17.633,17.633,0,0,0,35.659.133a.953.953,0,0,0-1.1.086,11.179,11.179,0,0,0-3.527,5.667c-.03.111-.058.227-.086.347a15.34,15.34,0,0,0-4.271,3.019c-.086.087-.172.174-.257.264a3.056,3.056,0,0,1-.814.613,15.522,15.522,0,0,0-7.616,9.114,2.552,2.552,0,0,0,.267,2.1,2.589,2.589,0,0,0,1.785,1.2,15.632,15.632,0,0,0,1.668.18.9.9,0,0,1,.809.725c.024.112.05.225.077.337a3.07,3.07,0,0,0,.555,3.544l1.457,1.457A5.888,5.888,0,0,0,33.468,36.5c.05-.05.1-.1.146-.152A15.231,15.231,0,0,0,37.5,37.389L32.762,48.974a4.836,4.836,0,1,0,8.951,3.666l3.4-8.3a22.937,22.937,0,0,0,2.629,2.978L41.694,57.791a4.839,4.839,0,0,0,4.187,7.256,4.854,4.854,0,0,0,4.191-2.419l5.568-9.646a11.121,11.121,0,0,0,9.124-.89L69.1,62.129a4.837,4.837,0,1,0,8.88-3.838ZM65.9,11.856a2.93,2.93,0,0,1,3.831,4.435L58.8,25.729c-1.2-.7-2.5-1.375-3.944-2.042a15.161,15.161,0,0,0,.06-2.351ZM41.563,35.463A13.541,13.541,0,0,1,28.6,30.045a3.052,3.052,0,0,0,.941-.64L46.826,12.118a3.042,3.042,0,0,0,.64-.94,13.511,13.511,0,0,1-5.9,24.285ZM52.57,9.068a3.987,3.987,0,0,1,.293,5.3,15.491,15.491,0,0,0-5.32-5.431,3.02,3.02,0,0,0-.12-.285,3.98,3.98,0,0,1,5.147.413ZM24.386,24.492a1.108,1.108,0,0,1,.111-.128L35.435,13.425a.953.953,0,0,0-1.348-1.348L24.017,22.148a2.783,2.783,0,0,0-2.206-1.33,13.711,13.711,0,0,1-1.464-.158.683.683,0,0,1-.471-.315.642.642,0,0,1-.069-.534,13.6,13.6,0,0,1,6.673-7.988,4.954,4.954,0,0,0,1.317-.991c.074-.077.149-.155.225-.231A13.435,13.435,0,0,1,32.16,7.776a.952.952,0,0,0,.554-.692c.051-.265.1-.5.159-.7a9.436,9.436,0,0,1,2.4-4.237,15.34,15.34,0,0,1,4.43,4.316L37.274,8.89a.953.953,0,0,0,1.348,1.348l3.16-3.161a1.374,1.374,0,0,1,.121-.107l.013-.009a1.149,1.149,0,0,1,1.484.116l2.078,2.077a1.143,1.143,0,0,1,0,1.616L28.192,28.057a1.147,1.147,0,0,1-1.617,0L24.5,25.978A1.149,1.149,0,0,1,24.386,24.492Zm2.1,10.658A3.98,3.98,0,0,1,26.076,30a3.013,3.013,0,0,0,.285.12,15.476,15.476,0,0,0,5.431,5.32,3.98,3.98,0,0,1-5.305-.293Zm13.462,16.77A2.931,2.931,0,1,1,34.526,49.7L39.51,37.521a15.131,15.131,0,0,0,1.615-.082c.5,1.092,1.021,2.119,1.538,3.057.378.688.768,1.344,1.161,1.962ZM45.69,41.835c-.459-.7-.915-1.455-1.357-2.258-.421-.764-.842-1.591-1.257-2.467A15.47,15.47,0,0,0,54.534,25.639a40.865,40.865,0,0,1,3.876,2.075,23.1,23.1,0,0,1,5.308,4.294c.183.2.358.409.521.608a3.275,3.275,0,0,1,.724,2.163s0,.007,0,.011a3.54,3.54,0,0,1-.54,1.77A33.128,33.128,0,0,1,62.4,39.451a32.327,32.327,0,0,1-8.4,7.538,3.4,3.4,0,0,1-3.949-.186c-.169-.136-.318-.262-.455-.385l-.01-.009A21.958,21.958,0,0,1,45.69,41.835Z" transform="translate(-17.872 0.002)"/>
        </g>
      </g>
    </g>
  </g>
</svg>
