<svg xmlns="http://www.w3.org/2000/svg" xmlns:xlink="http://www.w3.org/1999/xlink" width="113" height="113" viewBox="0 0 113 113">
  <defs>
    <filter id="Path_982547" x="0" y="0" width="113" height="113" filterUnits="userSpaceOnUse">
      <feOffset dy="3" input="SourceAlpha"/>
      <feGaussianBlur stdDeviation="3" result="blur"/>
      <feFlood flood-opacity="0.161"/>
      <feComposite operator="in" in2="blur"/>
      <feComposite in="SourceGraphic"/>
    </filter>
  </defs>
  <g id="Group_1208533" data-name="Group 1208533" transform="translate(-585.06 -9101)">
    <g id="Group_1208454" data-name="Group 1208454">
      <g id="Group_1208177" data-name="Group 1208177" transform="translate(0 6270.857)">
        <g id="Group_1207722" data-name="Group 1207722" transform="translate(-1 752.362)">
          <g id="Group_1207255" data-name="Group 1207255" transform="translate(0 -8747.046)">
            <g id="Group_1204126" data-name="Group 1204126" transform="translate(0 6984.49)">
              <g id="Group_1203959" data-name="Group 1203959" transform="translate(0 1899.461)">
                <g id="Group_1203497" data-name="Group 1203497" transform="translate(595.061 1946.875)">
                  <g id="Group_1172010" data-name="Group 1172010" transform="translate(0)">
                    <g id="Group_1171046" data-name="Group 1171046">
                      <g id="Group_1148525" data-name="Group 1148525">
                        <g transform="matrix(1, 0, 0, 1, -9, -6)" filter="url(#Path_982547)">
                          <g id="Path_982547-2" data-name="Path 982547" transform="translate(9 6)" fill="#edf3fc">
                            <path d="M 47.5 93.5 C 41.28937149047852 93.5 35.26533508300781 92.28397369384766 29.59518623352051 89.88570404052734 C 24.11771965026855 87.56893157958984 19.19813346862793 84.25196075439453 14.97309303283691 80.02691650390625 C 10.74804019927979 75.80186462402344 7.431066513061523 70.88229370117188 5.114293098449707 65.40481567382812 C 2.716026782989502 59.73468017578125 1.5 53.71062850952148 1.5 47.5 C 1.5 41.28937149047852 2.716026782989502 35.26533508300781 5.114293098449707 29.59518623352051 C 7.431066513061523 24.11771965026855 10.74804019927979 19.19813346862793 14.97309303283691 14.97309303283691 C 19.19813346862793 10.74804019927979 24.11771965026855 7.431066513061523 29.59518623352051 5.114293098449707 C 35.26533508300781 2.716026782989502 41.28937149047852 1.5 47.5 1.5 C 53.71062850952148 1.5 59.73468017578125 2.716026782989502 65.40481567382812 5.114293098449707 C 70.88229370117188 7.431066513061523 75.80186462402344 10.74804019927979 80.02691650390625 14.97309303283691 C 84.25196075439453 19.19813346862793 87.56893157958984 24.11771965026855 89.88570404052734 29.59518623352051 C 92.28397369384766 35.26533508300781 93.5 41.28937149047852 93.5 47.5 C 93.5 53.71062850952148 92.28397369384766 59.73468017578125 89.88570404052734 65.40481567382812 C 87.56893157958984 70.88229370117188 84.25196075439453 75.80186462402344 80.02691650390625 80.02691650390625 C 75.80186462402344 84.25196075439453 70.88229370117188 87.56893157958984 65.40481567382812 89.88570404052734 C 59.73468017578125 92.28397369384766 53.71062850952148 93.5 47.5 93.5 Z" stroke="none"/>
                            <path d="M 47.5 3 C 41.49121475219727 3 35.66376876831055 4.176155090332031 30.17950439453125 6.495796203613281 C 24.88084411621094 8.736953735351562 20.12152099609375 11.94598388671875 16.03375244140625 16.03375244140625 C 11.94598388671875 20.12152099609375 8.736953735351562 24.88084411621094 6.495796203613281 30.17950439453125 C 4.176155090332031 35.66376876831055 3 41.49121475219727 3 47.5 C 3 53.50878524780273 4.176155090332031 59.33623123168945 6.495796203613281 64.82049560546875 C 8.736953735351562 70.11915588378906 11.94598388671875 74.87847900390625 16.03375244140625 78.96624755859375 C 20.12152099609375 83.05401611328125 24.88084411621094 86.26304626464844 30.17950439453125 88.50419616699219 C 35.66376876831055 90.82384490966797 41.49121475219727 92 47.5 92 C 53.50878524780273 92 59.33623123168945 90.82384490966797 64.82049560546875 88.50419616699219 C 70.11915588378906 86.26304626464844 74.87847900390625 83.05401611328125 78.96624755859375 78.96624755859375 C 83.05401611328125 74.87847900390625 86.26304626464844 70.11915588378906 88.50419616699219 64.82049560546875 C 90.82384490966797 59.33623123168945 92 53.50878524780273 92 47.5 C 92 41.49121475219727 90.82384490966797 35.66376876831055 88.50419616699219 30.17950439453125 C 86.26304626464844 24.88084411621094 83.05401611328125 20.12152099609375 78.96624755859375 16.03375244140625 C 74.87847900390625 11.94598388671875 70.11915588378906 8.736953735351562 64.82049560546875 6.495796203613281 C 59.33623123168945 4.176155090332031 53.50878524780273 3 47.5 3 M 47.5 0 C 73.7335205078125 0 95 21.2664794921875 95 47.5 C 95 73.7335205078125 73.7335205078125 95 47.5 95 C 21.2664794921875 95 0 73.7335205078125 0 47.5 C 0 21.2664794921875 21.2664794921875 0 47.5 0 Z" stroke="none" fill="#5692e8"/>
                          </g>
                        </g>
                      </g>
                    </g>
                  </g>
                </g>
              </g>
            </g>
          </g>
        </g>
      </g>
      <g id="talking_7609337" transform="translate(604.541 9117.689)">
        <g id="Group_1208447" data-name="Group 1208447" transform="translate(7.5 7.53)">
          <path id="Path_1053019" data-name="Path 1053019" d="M39.4,22.507v6.5H14.867v-6.5a12.271,12.271,0,0,1,8.88-11.793l-.045-.045a1.837,1.837,0,0,1,2.6-2.6l.836.836.834-.836a1.837,1.837,0,0,1,2.6,2.6l-.045.045A12.27,12.27,0,0,1,39.4,22.507Z" transform="translate(-13.999 -7.533)" fill="#eb9c8d"/>
          <path id="Path_1053020" data-name="Path 1053020" d="M30.568,10.669H30.1a7.186,7.186,0,0,0-7.185,7.185v5.878l.065,5.278H14.867v-6.5a12.271,12.271,0,0,1,8.88-11.793l-.045-.045a1.837,1.837,0,0,1,2.6-2.6l.836.836.834-.836a1.837,1.837,0,0,1,2.6,2.6Z" transform="translate(-13.999 -7.533)" fill="#d78878"/>
          <path id="Path_1053021" data-name="Path 1053021" d="M39.4,27.68V22.5a12.271,12.271,0,0,0-8.88-11.793l.045-.045a1.837,1.837,0,0,0-2.6-2.6l-.834.836L26.3,8.068a1.837,1.837,0,0,0-2.6,2.6l.045.045A12.271,12.271,0,0,0,14.865,22.5V27.68" transform="translate(-13.997 -7.53)" fill="none" stroke="#000" stroke-linecap="round" stroke-linejoin="round" stroke-miterlimit="10" stroke-width="1"/>
          <path id="Path_1053022" data-name="Path 1053022" d="M31.239,178.278H10.032A2.532,2.532,0,0,1,7.5,175.745h0a2.532,2.532,0,0,1,2.532-2.532H31.239a2.532,2.532,0,0,1,2.532,2.532h0A2.532,2.532,0,0,1,31.239,178.278Z" transform="translate(-7.5 -153.688)" fill="#ffcebf"/>
          <path id="Path_1053023" data-name="Path 1053023" d="M198.465,173.211h1.176a2.533,2.533,0,0,1,0,5.065H198.4" transform="translate(-175.902 -153.686)" fill="none" stroke="#000" stroke-linecap="round" stroke-linejoin="round" stroke-miterlimit="10" stroke-width="1"/>
          <path id="Path_1053024" data-name="Path 1053024" d="M11.21,173.211H10.034a2.533,2.533,0,0,0,0,5.065h1.243" transform="translate(-7.502 -153.686)" fill="none" stroke="#000" stroke-linecap="round" stroke-linejoin="round" stroke-miterlimit="10" stroke-width="1"/>
          <path id="Path_1053025" data-name="Path 1053025" d="M57.821,117.832V123.5a9.428,9.428,0,1,1-18.856.119v-5.792a9.946,9.946,0,0,0,8.5-4.774,1.087,1.087,0,0,1,1.856,0A9.948,9.948,0,0,0,57.821,117.832Z" transform="translate(-35.257 -100.162)" fill="#ffdfcf"/>
          <path id="Path_1053026" data-name="Path 1053026" d="M50.988,161.317a9.294,9.294,0,0,1-2.522.367,9.427,9.427,0,0,1-9.5-9.427v-5.792A9.908,9.908,0,0,0,44.175,145v7.262A9.432,9.432,0,0,0,50.988,161.317Z" transform="translate(-35.259 -128.795)" fill="#ffcebf"/>
          <path id="Path_1053027" data-name="Path 1053027" d="M45.811,115.108a9.924,9.924,0,0,0,1.658-2.046,1.087,1.087,0,0,1,1.856,0,9.947,9.947,0,0,0,8.5,4.774v5.673a9.428,9.428,0,1,1-18.855.119v-5.792a9.938,9.938,0,0,0,3.348-.577" transform="translate(-35.261 -100.166)" fill="none" stroke="#000" stroke-linecap="round" stroke-linejoin="round" stroke-miterlimit="10" stroke-width="1"/>
          <g id="Group_1208446" data-name="Group 1208446" transform="translate(10.587 19.525)">
            <line id="Line_871" data-name="Line 871" y1="1.928" fill="none" stroke="#000" stroke-linecap="round" stroke-linejoin="round" stroke-miterlimit="10" stroke-width="1"/>
            <line id="Line_872" data-name="Line 872" y1="1.928" transform="translate(5.097)" fill="none" stroke="#000" stroke-linecap="round" stroke-linejoin="round" stroke-miterlimit="10" stroke-width="1"/>
          </g>
          <path id="Path_1053028" data-name="Path 1053028" d="M93.086,221.656a4.313,4.313,0,0,0,6.1,0" transform="translate(-83 -196.422)" fill="none" stroke="#000" stroke-linecap="round" stroke-linejoin="round" stroke-miterlimit="10" stroke-width="1"/>
        </g>
        <g id="Group_1208449" data-name="Group 1208449" transform="translate(38.746 34.741)">
          <path id="Path_1053029" data-name="Path 1053029" d="M296.454,257.677A3.513,3.513,0,0,0,297.978,251a3.512,3.512,0,0,0-2.211-6.242c-.051,0-.1,0-.153,0a3.512,3.512,0,0,0-5.863-3.49,3.513,3.513,0,0,0-6.892,0A3.513,3.513,0,0,0,277,244.76c-.051,0-.1,0-.153,0A3.512,3.512,0,0,0,274.633,251a3.513,3.513,0,0,0,1.523,6.679" transform="translate(-272.644 -238.439)" fill="#ffe177"/>
          <path id="Path_1053030" data-name="Path 1053030" d="M286.468,270.716c0,.051,0,.1,0,.154s0,.105,0,.157H276.154a3.513,3.513,0,0,1-1.522-6.679,3.511,3.511,0,0,1,2.21-6.241c.051,0,.1,0,.152,0a3.551,3.551,0,0,1-.152-1.027A3.512,3.512,0,0,1,282.2,254.1a3.515,3.515,0,0,0,.776,3.864,3.513,3.513,0,0,0,0,6.892,3.512,3.512,0,0,0,3.49,5.862Z" transform="translate(-272.642 -251.788)" fill="#ffc344"/>
          <path id="Path_1053031" data-name="Path 1053031" d="M274.133,257.03a3.514,3.514,0,0,1,.5-6.035,3.512,3.512,0,0,1,2.211-6.241c.051,0,.1,0,.152,0a3.512,3.512,0,0,1,5.863-3.49,3.513,3.513,0,0,1,6.892,0,3.512,3.512,0,0,1,5.862,3.49c.051,0,.1,0,.154,0a3.512,3.512,0,0,1,2.21,6.241,3.513,3.513,0,0,1,.5,6.035" transform="translate(-272.647 -238.436)" fill="none" stroke="#000" stroke-linecap="round" stroke-linejoin="round" stroke-miterlimit="10" stroke-width="1"/>
          <path id="Path_1053032" data-name="Path 1053032" d="M301.082,396.416H279.934a2.526,2.526,0,0,1-2.526-2.525h0a2.526,2.526,0,0,1,2.526-2.526h21.149a2.526,2.526,0,0,1,2.526,2.526h0A2.526,2.526,0,0,1,301.082,396.416Z" transform="translate(-276.846 -373.343)" fill="#ffcebf"/>
          <path id="Path_1053033" data-name="Path 1053033" d="M467.852,391.364h1.173a2.526,2.526,0,0,1,0,5.052h-1.24" transform="translate(-444.788 -373.342)" fill="none" stroke="#000" stroke-linecap="round" stroke-linejoin="round" stroke-miterlimit="10" stroke-width="1"/>
          <path id="Path_1053034" data-name="Path 1053034" d="M281.108,391.364h-1.173a2.526,2.526,0,0,0,0,5.052h1.239" transform="translate(-276.848 -373.342)" fill="none" stroke="#000" stroke-linecap="round" stroke-linejoin="round" stroke-miterlimit="10" stroke-width="1"/>
          <path id="Path_1053035" data-name="Path 1053035" d="M327.593,334.273V338.2a9.4,9.4,0,1,1-18.8,0v-3.926a3.5,3.5,0,0,0,3.091-5.15,3.643,3.643,0,0,0,.479.033,3.5,3.5,0,0,0,3.358-2.51,3.5,3.5,0,0,0,4.947,0,3.506,3.506,0,0,0,3.36,2.51,3.63,3.63,0,0,0,.478-.033,3.5,3.5,0,0,0,3.092,5.15Z" transform="translate(-304.529 -316.252)" fill="#ffdfcf"/>
          <path id="Path_1053036" data-name="Path 1053036" d="M320.788,363.039a9.408,9.408,0,0,1-12-9.039v-3.926a3.5,3.5,0,0,0,3.091-5.15,3.649,3.649,0,0,0,.479.033,3.477,3.477,0,0,0,1.624-.4V354A9.406,9.406,0,0,0,320.788,363.039Z" transform="translate(-304.53 -332.052)" fill="#ffcebf"/>
          <path id="Path_1053037" data-name="Path 1053037" d="M327.593,334.273V338.2a9.4,9.4,0,1,1-18.8,0v-3.926a3.5,3.5,0,0,0,3.091-5.15,3.643,3.643,0,0,0,.479.033,3.5,3.5,0,0,0,3.358-2.51,3.5,3.5,0,0,0,4.947,0,3.506,3.506,0,0,0,3.36,2.51,3.63,3.63,0,0,0,.478-.033,3.5,3.5,0,0,0,3.092,5.15Z" transform="translate(-304.529 -316.252)" fill="none" stroke="#000" stroke-linecap="round" stroke-linejoin="round" stroke-miterlimit="10" stroke-width="1"/>
          <g id="Group_1208448" data-name="Group 1208448" transform="translate(11.12 18.022)">
            <line id="Line_873" data-name="Line 873" y2="1.923" fill="none" stroke="#000" stroke-linecap="round" stroke-linejoin="round" stroke-miterlimit="10" stroke-width="1"/>
            <line id="Line_874" data-name="Line 874" y2="1.923" transform="translate(5.083)" fill="none" stroke="#000" stroke-linecap="round" stroke-linejoin="round" stroke-miterlimit="10" stroke-width="1"/>
          </g>
          <path id="Path_1053038" data-name="Path 1053038" d="M357.2,429.762a.66.66,0,0,0-.647.792,3.844,3.844,0,0,0,7.522,0,.659.659,0,0,0-.647-.792Z" transform="translate(-346.652 -407.215)" fill="#fff"/>
          <path id="Path_1053039" data-name="Path 1053039" d="M357.2,429.762a.66.66,0,0,0-.647.792,3.844,3.844,0,0,0,7.522,0,.659.659,0,0,0-.647-.792Z" transform="translate(-346.652 -407.215)" fill="none" stroke="#000" stroke-linecap="round" stroke-linejoin="round" stroke-miterlimit="10" stroke-width="1"/>
        </g>
        <g id="Group_1208451" data-name="Group 1208451" transform="translate(39.51 7.531)">
          <path id="Path_1053040" data-name="Path 1053040" d="M305.692,9.914V24.057a2.373,2.373,0,0,1-2.373,2.373h-4.427l-6.107,3.67a1.16,1.16,0,0,1-1.758-.995V26.43h-9.52a2.373,2.373,0,0,1-2.373-2.373V9.914a2.373,2.373,0,0,1,2.373-2.373h21.812A2.373,2.373,0,0,1,305.692,9.914Z" transform="translate(-279.134 -7.541)" fill="#e8edf2"/>
          <path id="Path_1053041" data-name="Path 1053041" d="M285.3,26.43h-3.793a2.373,2.373,0,0,1-2.373-2.373V9.914a2.373,2.373,0,0,1,2.373-2.373H285.3a2.373,2.373,0,0,0-2.373,2.373V24.057A2.373,2.373,0,0,0,285.3,26.43Z" transform="translate(-279.134 -7.541)" fill="#d9e7ec"/>
          <path id="Path_1053042" data-name="Path 1053042" d="M301.363,7.539h1.953a2.374,2.374,0,0,1,2.373,2.373V24.055a2.374,2.374,0,0,1-2.373,2.373h-4.426l-6.107,3.67a1.16,1.16,0,0,1-1.758-.995V26.428H281.5a2.373,2.373,0,0,1-2.373-2.373V9.912A2.373,2.373,0,0,1,281.5,7.539h15.735" transform="translate(-279.13 -7.539)" fill="none" stroke="#000" stroke-linecap="round" stroke-linejoin="round" stroke-miterlimit="10" stroke-width="1"/>
          <g id="Group_1208450" data-name="Group 1208450" transform="translate(3.765 6.882)">
            <line id="Line_875" data-name="Line 875" x2="19.03" fill="none" stroke="#000" stroke-linecap="round" stroke-linejoin="round" stroke-miterlimit="10" stroke-width="1"/>
            <line id="Line_876" data-name="Line 876" x2="19.03" transform="translate(0 4.391)" fill="none" stroke="#000" stroke-linecap="round" stroke-linejoin="round" stroke-miterlimit="10" stroke-width="1"/>
          </g>
        </g>
        <g id="Group_1208453" data-name="Group 1208453" transform="translate(7.5 43.365)">
          <path id="Path_1053043" data-name="Path 1053043" d="M34.058,331.966V317.824a2.373,2.373,0,0,0-2.373-2.373H27.258l-6.107-3.67a1.161,1.161,0,0,0-1.758.995v2.676H9.873A2.373,2.373,0,0,0,7.5,317.824v14.143a2.373,2.373,0,0,0,2.373,2.373H31.685A2.373,2.373,0,0,0,34.058,331.966Z" transform="translate(-7.5 -311.613)" fill="#e8edf2"/>
          <path id="Path_1053044" data-name="Path 1053044" d="M13.666,344.181H9.873A2.373,2.373,0,0,0,7.5,346.554V360.7a2.373,2.373,0,0,0,2.373,2.373h3.793a2.373,2.373,0,0,1-2.373-2.373V346.554A2.373,2.373,0,0,1,13.666,344.181Z" transform="translate(-7.5 -340.343)" fill="#d9e7ec"/>
          <path id="Path_1053045" data-name="Path 1053045" d="M34.059,331.422v.546a2.374,2.374,0,0,1-2.373,2.373H9.873A2.373,2.373,0,0,1,7.5,331.968V317.825a2.373,2.373,0,0,1,2.373-2.373h9.52v-2.675a1.161,1.161,0,0,1,1.759-.995l6.106,3.67h4.427a2.374,2.374,0,0,1,2.373,2.373v9.512" transform="translate(-7.5 -311.614)" fill="none" stroke="#000" stroke-linecap="round" stroke-linejoin="round" stroke-miterlimit="10" stroke-width="1"/>
          <g id="Group_1208452" data-name="Group 1208452" transform="translate(3.764 11.453)">
            <line id="Line_877" data-name="Line 877" x2="19.03" transform="translate(0 4.391)" fill="none" stroke="#000" stroke-linecap="round" stroke-linejoin="round" stroke-miterlimit="10" stroke-width="1"/>
            <line id="Line_878" data-name="Line 878" x2="19.03" fill="none" stroke="#000" stroke-linecap="round" stroke-linejoin="round" stroke-miterlimit="10" stroke-width="1"/>
          </g>
        </g>
      </g>
    </g>
  </g>
</svg>
