<svg xmlns="http://www.w3.org/2000/svg" xmlns:xlink="http://www.w3.org/1999/xlink" width="113" height="113" viewBox="0 0 113 113">
  <defs>
    <filter id="Path_982547" x="0" y="0" width="113" height="113" filterUnits="userSpaceOnUse">
      <feOffset dy="3" input="SourceAlpha"/>
      <feGaussianBlur stdDeviation="3" result="blur"/>
      <feFlood flood-opacity="0.161"/>
      <feComposite operator="in" in2="blur"/>
      <feComposite in="SourceGraphic"/>
    </filter>
  </defs>
  <g id="Group_1208509" data-name="Group 1208509" transform="translate(-271 -961.142)">
    <g id="Group_1208350" data-name="Group 1208350">
      <g id="Group_1208168" data-name="Group 1208168" transform="translate(0 -1869)">
        <g id="Group_1207721" data-name="Group 1207721" transform="translate(-1 752.362)">
          <g id="Group_1207254" data-name="Group 1207254" transform="translate(0 -8747.046)">
            <g id="Group_1204125" data-name="Group 1204125" transform="translate(0 6984.49)">
              <g id="Group_1203962" data-name="Group 1203962" transform="translate(0 1899.461)">
                <g id="Group_1203498" data-name="Group 1203498" transform="translate(0 -197.72)">
                  <g id="Group_1202589" data-name="Group 1202589" transform="translate(281 2144.596)">
                    <g id="Group_1172010" data-name="Group 1172010" transform="translate(0)">
                      <g id="Group_1171046" data-name="Group 1171046">
                        <g id="Group_1148525" data-name="Group 1148525">
                          <g transform="matrix(1, 0, 0, 1, -9, -6)" filter="url(#Path_982547)">
                            <g id="Path_982547-2" data-name="Path 982547" transform="translate(9 6)" fill="#edf3fc">
                              <path d="M 47.5 93.5 C 41.28937149047852 93.5 35.26533508300781 92.28397369384766 29.59518623352051 89.88570404052734 C 24.11771965026855 87.56893157958984 19.19813346862793 84.25196075439453 14.97309303283691 80.02691650390625 C 10.74804019927979 75.80186462402344 7.431066513061523 70.88229370117188 5.114293098449707 65.40481567382812 C 2.716026782989502 59.73468017578125 1.5 53.71062850952148 1.5 47.5 C 1.5 41.28937149047852 2.716026782989502 35.26533508300781 5.114293098449707 29.59518623352051 C 7.431066513061523 24.11771965026855 10.74804019927979 19.19813346862793 14.97309303283691 14.97309303283691 C 19.19813346862793 10.74804019927979 24.11771965026855 7.431066513061523 29.59518623352051 5.114293098449707 C 35.26533508300781 2.716026782989502 41.28937149047852 1.5 47.5 1.5 C 53.71062850952148 1.5 59.73468017578125 2.716026782989502 65.40481567382812 5.114293098449707 C 70.88229370117188 7.431066513061523 75.80186462402344 10.74804019927979 80.02691650390625 14.97309303283691 C 84.25196075439453 19.19813346862793 87.56893157958984 24.11771965026855 89.88570404052734 29.59518623352051 C 92.28397369384766 35.26533508300781 93.5 41.28937149047852 93.5 47.5 C 93.5 53.71062850952148 92.28397369384766 59.73468017578125 89.88570404052734 65.40481567382812 C 87.56893157958984 70.88229370117188 84.25196075439453 75.80186462402344 80.02691650390625 80.02691650390625 C 75.80186462402344 84.25196075439453 70.88229370117188 87.56893157958984 65.40481567382812 89.88570404052734 C 59.73468017578125 92.28397369384766 53.71062850952148 93.5 47.5 93.5 Z" stroke="none"/>
                              <path d="M 47.5 3 C 41.49121475219727 3 35.66376876831055 4.176155090332031 30.17950439453125 6.495796203613281 C 24.88084411621094 8.736953735351562 20.12152099609375 11.94598388671875 16.03375244140625 16.03375244140625 C 11.94598388671875 20.12152099609375 8.736953735351562 24.88084411621094 6.495796203613281 30.17950439453125 C 4.176155090332031 35.66376876831055 3 41.49121475219727 3 47.5 C 3 53.50878524780273 4.176155090332031 59.33623123168945 6.495796203613281 64.82049560546875 C 8.736953735351562 70.11915588378906 11.94598388671875 74.87847900390625 16.03375244140625 78.96624755859375 C 20.12152099609375 83.05401611328125 24.88084411621094 86.26304626464844 30.17950439453125 88.50419616699219 C 35.66376876831055 90.82384490966797 41.49121475219727 92 47.5 92 C 53.50878524780273 92 59.33623123168945 90.82384490966797 64.82049560546875 88.50419616699219 C 70.11915588378906 86.26304626464844 74.87847900390625 83.05401611328125 78.96624755859375 78.96624755859375 C 83.05401611328125 74.87847900390625 86.26304626464844 70.11915588378906 88.50419616699219 64.82049560546875 C 90.82384490966797 59.33623123168945 92 53.50878524780273 92 47.5 C 92 41.49121475219727 90.82384490966797 35.66376876831055 88.50419616699219 30.17950439453125 C 86.26304626464844 24.88084411621094 83.05401611328125 20.12152099609375 78.96624755859375 16.03375244140625 C 74.87847900390625 11.94598388671875 70.11915588378906 8.736953735351562 64.82049560546875 6.495796203613281 C 59.33623123168945 4.176155090332031 53.50878524780273 3 47.5 3 M 47.5 0 C 73.7335205078125 0 95 21.2664794921875 95 47.5 C 95 73.7335205078125 73.7335205078125 95 47.5 95 C 21.2664794921875 95 0 73.7335205078125 0 47.5 C 0 21.2664794921875 21.2664794921875 0 47.5 0 Z" stroke="none" fill="#5692e8"/>
                            </g>
                          </g>
                        </g>
                      </g>
                    </g>
                  </g>
                </g>
              </g>
            </g>
          </g>
        </g>
      </g>
      <g id="rock-roll_9842380" transform="translate(287.705 970.093)">
        <g id="Group_1208348" data-name="Group 1208348" transform="translate(7.5 14.583)">
          <path id="path5331_00000172406869676628725410000009598561638592204716_" d="M189.672,248.924c-7.081-2.367-16.92-8.339-17.1-8.538l3.611-5.093c.2.214,9.295,5.71,14.577,7.449l.48,3.243Z" transform="translate(-151.533 -207.157)" fill="#f9475e"/>
          <path id="Path_1052788" data-name="Path 1052788" d="M224.61,218.5a38.125,38.125,0,0,1-9.035-6.194,3.519,3.519,0,0,1-.285-4.529,2.806,2.806,0,0,1,4.059.119,21.2,21.2,0,0,0,9.549,4.79l3.242,5.137Z" transform="translate(-188.196 -182.438)" fill="#fcb5a7"/>
          <path id="Path_1052789" data-name="Path 1052789" d="M83.881,360.933l-4.2-.064-1.59-3.8a4.4,4.4,0,0,0,1-2.371,2.524,2.524,0,0,0-4.51-1.545l-5.965,7.669-1.831,2.354a3.839,3.839,0,1,1-6.062-4.714l10.017-12.88,9.08-.673a8.209,8.209,0,0,1,6,3.872C88,352.608,86.19,357.189,83.881,360.933Z" transform="translate(-53.227 -302.804)" fill="#6b7d8e"/>
          <path id="Path_1052790" data-name="Path 1052790" d="M298.5,233.592l12.148,2s.392-3.574,1.427-5.016c0,0,7.8-3.237,12.046-7.114a3.519,3.519,0,0,0,.362-4.523,2.806,2.806,0,0,0-4.06.049,12.564,12.564,0,0,1-8.314,3.378,13.127,13.127,0,0,0-1-1.136l-6.482-2.429c0,.1,0,.211,0,.321Z" transform="translate(-261.403 -192.147)" fill="#ffcbbe"/>
          <path id="path5327_00000123409664207874843110000001413261715531107724_" d="M145.654,260.7h-5.278l-5.1-15.138h5.278l6.52,4.972,1.407,7.123Z" transform="translate(-118.984 -216.121)" fill="#ffce71"/>
          <path id="path5335_00000083071451986468433560000001115264229930926516_" d="M61.058,266.928a19.86,19.86,0,0,1-8.179,5.332l-.676,3.66,2.733,2.9a25.434,25.434,0,0,0,10.733-7.186Z" transform="translate(-46.504 -234.759)" fill="#f9475e"/>
          <path id="path5339_00000031190660776106829860000016749541674741601677_" d="M181.951,259.992c.388-8.435-5.277-15.2-5.277-15.2l3.147-.111a4.237,4.237,0,0,1,4.169,2.913,60.377,60.377,0,0,1,2.649,11.195,1.076,1.076,0,0,1-1.067,1.2Z" transform="translate(-155.107 -215.345)" fill="#ff6e80"/>
          <path id="path5343_00000042703640077159138470000016065461396320537510_" d="M104.9,260.767h-4.669a1.076,1.076,0,0,1-1.072-1.07,23.975,23.975,0,0,0-5.293-14.131h5.278s6.144,6.48,5.756,15.2" transform="translate(-82.861 -216.121)" fill="#ff6e80"/>
          <path id="path5379_00000011709420420289407190000012076886943961901210_" d="M29.681,308.752c-.542.184-1.108.347-1.7.486a3.375,3.375,0,0,0-2.285,4.08,3.186,3.186,0,0,0,3.7,2.67,23.957,23.957,0,0,0,2.335-.677Z" transform="translate(-23.306 -271.252)" fill="#ffcbbe"/>
          <path id="path5387_00000130615829388537384880000007032054171629200269_" d="M195.566,444.159q-.684,1.107-1.535,2.3a3.348,3.348,0,0,1-2.724,1.434c-2.824,0-4.4-3.454-2.684-5.864.448-.629.83-1.2,1.157-1.726Z" transform="translate(-164.913 -386.03)" fill="#f8ec7f"/>
          <path id="path5551_00000171711594625553777230000009177084911824081290_" d="M350.439,391.739l0,3.551L347,396.905c-4.166-3.15-6.727-7.355-7.439-10.165l5.964-1.537,0-.018a13.99,13.99,0,0,0,4.916,6.554" transform="translate(-297.233 -337.941)" fill="#ffcbbe"/>
          <path id="path5555_00000005971786629319486770000013049797439640921012_" d="M274.587,366.386l-.009.016-5.21-3.1c-1.409,2.533-2.448,7.312-1.657,12.524l3.495,1.267,2.4-2.545a14.4,14.4,0,0,1,.986-8.159" transform="translate(-234.301 -318.845)" fill="#ffcbbe"/>
          <path id="Path_1052791" data-name="Path 1052791" d="M309.082,286.052l-12.479-1.92c0-1.613-.014-3.694-.008-4.987a1.711,1.711,0,0,1,.659-1.341l2.913-2.165h0a2.032,2.032,0,0,0,.215.843c.687,1.39,2.513,3.782,6.589,2.453a1.934,1.934,0,0,0,1.214-1.275C311.477,282.277,309.813,279.412,309.082,286.052Z" transform="translate(-259.74 -242.36)" fill="#ff97c1"/>
          <path id="path5603_00000052792063822166238190000015746220258618433411_" d="M404.367,442.178a3.061,3.061,0,0,1-4.216,1.09,24.618,24.618,0,0,1-2.228-1.5l3.436-5.166a18.845,18.845,0,0,0,1.929,1.319,3.127,3.127,0,0,1,1.079,4.259" transform="translate(-348.152 -382.802)" fill="#68a2df"/>
          <path id="path5607_00000097468291122668967230000012366630209537989525_" d="M275.932,453.824a19.647,19.647,0,0,1-.459-2.3l-5.891,1.278a25.665,25.665,0,0,0,.545,2.647,3.114,3.114,0,0,0,.8,1.415,3.024,3.024,0,0,0,5-3.035" transform="translate(-236.172 -395.82)" fill="#68a2df"/>
          <path id="Path_1052792" data-name="Path 1052792" d="M276.563,344.142l-12.478-1.92-3.318,2.974a4.33,4.33,0,0,0,1.9,7.442,35.16,35.16,0,0,0,19.267-1,2.024,2.024,0,0,0,.038-3.82A12.221,12.221,0,0,1,276.563,344.142Z" transform="translate(-227.221 -300.455)" fill="#ff71a8"/>
          <path id="Path_1052793" data-name="Path 1052793" d="M68.615,438.464l-1.831,2.354a3.839,3.839,0,1,1-6.062-4.714l1.72-2.211Z" transform="translate(-53.227 -380.441)" fill="#f8ec7f"/>
          <path id="Path_1052794" data-name="Path 1052794" d="M76.952,35.285l-18.784,6.7c-6.579-8.54,2.018-14.7,2.018-14.7a2.316,2.316,0,0,0,2.152-1.188,2.3,2.3,0,0,1,2.878-1.022A2.3,2.3,0,0,0,68.1,24.05l.129-.243a2.312,2.312,0,0,1,2.6-1.118l1.284.343a1.877,1.877,0,0,1,1.451,1.894c-.19,3.585,2.57,7.721,3.768,9.337A.675.675,0,0,1,76.952,35.285Z" transform="translate(-49.546 -21.59)" fill="#e4996d"/>
          <path id="Path_1052795" data-name="Path 1052795" d="M16.123,71.637,11.8,73.179a.67.67,0,0,1-.931-.56c-.075-2.028-.509-7.032-2.913-9.677A1.872,1.872,0,0,1,7.9,60.559l.788-1.082a2.31,2.31,0,0,1,2.72-.771l.252.107a2.3,2.3,0,0,0,2.878-1.022,2.3,2.3,0,0,1,2.878-1.021,2.136,2.136,0,0,0,.727.166C16.732,60.469,15.154,66.023,16.123,71.637Z" transform="translate(-7.5 -51.242)" fill="#d97c41"/>
          <path id="Path_1052796" data-name="Path 1052796" d="M70.715,118.639c-16.042-2.683-9.026-16.64-8.921-16.845a0,0,0,0,0,0,0,14.9,14.9,0,0,0,2.069-2.926,5.381,5.381,0,0,1,6.823-2.423,15.356,15.356,0,0,0,8,1.012,2.828,2.828,0,0,1,2.843,1.414,13.6,13.6,0,0,1,.928,2.068A13.293,13.293,0,0,1,70.715,118.639Z" transform="translate(-53.462 -85.642)" fill="#ffddcf"/>
          <path id="Path_1052797" data-name="Path 1052797" d="M48.339,158.118a13.286,13.286,0,0,1-13.764-11,2.872,2.872,0,0,1,1.321-2.936,16.25,16.25,0,0,0,3.524-2.914C39.259,147.033,41.166,153.42,48.339,158.118Z" transform="translate(-31.087 -125.12)" fill="#ffcbbe"/>
          <path id="path5563_00000173861329232543857330000004175020896850237321_" d="M436.361,16.494c2.287,2.129,2.919,5.169,1.411,6.791s-4.585,1.209-6.872-.92-2.919-5.169-1.411-6.791,4.585-1.209,6.872.92" transform="translate(-374.979 -14.583)" fill="#546370"/>
          <path id="Path_1052798" data-name="Path 1052798" d="M332.042,61.894a13.367,13.367,0,0,1-.728,1.841l-22.777-5.767c1.091-8.81,11.476-13.166,11.647-13.237h0A13.289,13.289,0,0,1,332.042,61.894Z" transform="translate(-270.161 -40.886)" fill="#6b7d8e"/>
          <path id="Path_1052799" data-name="Path 1052799" d="M303.311,44.529h0c-2.74,2.44-7.61,7.486-9.354,13.817l-4.757-1.2a13.217,13.217,0,0,1,14.114-12.614Z" transform="translate(-253.287 -40.686)" fill="#546370"/>
          <path id="Path_1052800" data-name="Path 1052800" d="M326.384,123.68a13.256,13.256,0,0,1-18.217,10.7c-11.742-9.4-1.577-17.4-1.577-17.4a33.632,33.632,0,0,0,11.2-1.831,3.344,3.344,0,0,1,4.158,1.913,13.842,13.842,0,0,0,3.819,5.042A1.842,1.842,0,0,1,326.384,123.68Z" transform="translate(-264.899 -102.174)" fill="#ffddcf"/>
          <path id="Path_1052801" data-name="Path 1052801" d="M290.3,145.308a13.3,13.3,0,0,1-7.7-16.141c.045-.147.092-.292.142-.435a1.844,1.844,0,0,1,2.064-1.2,25.734,25.734,0,0,0,3.914.379A17.1,17.1,0,0,0,290.3,145.308Z" transform="translate(-247.032 -113.104)" fill="#ffcbbe"/>
          <path id="Path_1052802" data-name="Path 1052802" d="M450.308,58.379l-2.947-3.09a.57.57,0,0,1-.069-.7L449,51.885a.57.57,0,0,1,.66-.237l4.053,1.339a1.711,1.711,0,0,1,.348,3.088h0a1.711,1.711,0,0,0-.817,1.293h0A1.709,1.709,0,0,1,450.308,58.379Z" transform="translate(-391.151 -46.898)" fill="#f9475e"/>
          <path id="Path_1052803" data-name="Path 1052803" d="M403.378,26.053l4.053,1.339a.57.57,0,0,0,.66-.237l1.71-2.705a.57.57,0,0,0-.069-.7l-2.947-3.089a1.71,1.71,0,0,0-2.938,1.01h0a1.71,1.71,0,0,1-.817,1.293h0A1.711,1.711,0,0,0,403.378,26.053Z" transform="translate(-351.888 -19.423)" fill="#f9475e"/>
          <ellipse id="Ellipse_13489" data-name="Ellipse 13489" cx="2.045" cy="2.046" rx="2.045" ry="2.046" transform="translate(54.974 4.322) rotate(-0.292)" fill="#ff6e80"/>
        </g>
        <g id="Group_1208349" data-name="Group 1208349" transform="translate(7.5 14.588)">
          <path id="Path_1052804" data-name="Path 1052804" d="M248.047,317.247a69.488,69.488,0,0,0,6.364,2.8" transform="translate(-217.382 -278.669)" fill="none" stroke="#000" stroke-linecap="round" stroke-linejoin="round" stroke-miterlimit="10" stroke-width="1"/>
          <path id="Path_1052805" data-name="Path 1052805" d="M233.887,207a3.321,3.321,0,0,1,2.293.933,20.646,20.646,0,0,0,8.5,4.537" transform="translate(-205.027 -182.479)" fill="none" stroke="#000" stroke-linecap="round" stroke-linejoin="round" stroke-miterlimit="10" stroke-width="1"/>
          <path id="Path_1052806" data-name="Path 1052806" d="M215.677,237.507a3.14,3.14,0,0,0,.841,1.456A34.093,34.093,0,0,0,226,245.038" transform="translate(-189.139 -209.094)" fill="none" stroke="#000" stroke-linecap="round" stroke-linejoin="round" stroke-miterlimit="10" stroke-width="1"/>
          <path id="Path_1052807" data-name="Path 1052807" d="M69.688,360.827l-8.967,11.529a3.84,3.84,0,1,0,6.062,4.714l7.8-10.024a2.524,2.524,0,0,1,4.51,1.545,4.4,4.4,0,0,1-1,2.371" transform="translate(-53.225 -316.693)" fill="none" stroke="#000" stroke-linecap="round" stroke-linejoin="round" stroke-miterlimit="10" stroke-width="1"/>
          <path id="Path_1052808" data-name="Path 1052808" d="M247.957,422.749a18.578,18.578,0,0,0,2.82-6.992" transform="translate(-217.304 -364.621)" fill="none" stroke="#000" stroke-linecap="round" stroke-linejoin="round" stroke-miterlimit="10" stroke-width="1"/>
          <path id="Path_1052809" data-name="Path 1052809" d="M254.052,363.733a7.107,7.107,0,0,0-1.325-1.676" transform="translate(-221.466 -317.766)" fill="none" stroke="#000" stroke-linecap="round" stroke-linejoin="round" stroke-miterlimit="10" stroke-width="1"/>
          <path id="Path_1052810" data-name="Path 1052810" d="M410.366,295.614c-2.913,1.585-5.379,2.607-5.379,2.607" transform="translate(-354.316 -259.793)" fill="none" stroke="#000" stroke-linecap="round" stroke-linejoin="round" stroke-miterlimit="10" stroke-width="1"/>
          <path id="Path_1052811" data-name="Path 1052811" d="M475.369,218.381a2.561,2.561,0,0,1,3.056.593,3.521,3.521,0,0,1-.362,4.524,25.865,25.865,0,0,1-3.13,2.4" transform="translate(-415.344 -192.184)" fill="none" stroke="#000" stroke-linecap="round" stroke-linejoin="round" stroke-miterlimit="10" stroke-width="1"/>
          <path id="Path_1052812" data-name="Path 1052812" d="M57.507,279.566a20.312,20.312,0,0,0,7.135-4.269" transform="translate(-51.132 -242.066)" fill="none" stroke="#000" stroke-linecap="round" stroke-linejoin="round" stroke-miterlimit="10" stroke-width="1"/>
          <path id="Path_1052813" data-name="Path 1052813" d="M73.647,332.047a25.844,25.844,0,0,0,7.5-4.12" transform="translate(-65.215 -287.987)" fill="none" stroke="#000" stroke-linecap="round" stroke-linejoin="round" stroke-miterlimit="10" stroke-width="1"/>
          <path id="Path_1052814" data-name="Path 1052814" d="M192.8,256.057a76.508,76.508,0,0,1,3.135,12.664,1.076,1.076,0,0,1-1.067,1.2h-3.62c.264-5.734-2.268-10.7-3.919-13.286" transform="translate(-164.403 -225.279)" fill="none" stroke="#000" stroke-linecap="round" stroke-linejoin="round" stroke-miterlimit="10" stroke-width="1"/>
          <path id="Path_1052815" data-name="Path 1052815" d="M116.191,270.321a21.285,21.285,0,0,1,3.281,11.82H114.8a1.076,1.076,0,0,1-1.072-1.07,22.838,22.838,0,0,0-3.164-11.014" transform="translate(-97.428 -237.494)" fill="none" stroke="#000" stroke-linecap="round" stroke-linejoin="round" stroke-miterlimit="10" stroke-width="1"/>
          <path id="path5379_00000069370537109142460640000014455568060159304883_" d="M29.68,308.789c-.542.184-1.108.347-1.7.487a3.375,3.375,0,0,0-2.285,4.08,3.186,3.186,0,0,0,3.7,2.67,23.975,23.975,0,0,0,2.335-.677Z" transform="translate(-23.305 -271.289)" fill="none" stroke="#000" stroke-linecap="round" stroke-linejoin="round" stroke-miterlimit="10" stroke-width="1"/>
          <path id="path5387_00000108992174843443987880000012546777863261018280_" d="M195.565,444.2q-.684,1.108-1.535,2.3a3.347,3.347,0,0,1-2.724,1.434c-2.824,0-4.4-3.454-2.684-5.865.448-.63.83-1.2,1.157-1.726Z" transform="translate(-164.912 -386.068)" fill="none" stroke="#000" stroke-linecap="round" stroke-linejoin="round" stroke-miterlimit="10" stroke-width="1"/>
          <path id="Path_1052816" data-name="Path 1052816" d="M354.967,430.877a22.441,22.441,0,0,0,5.475,5.9h0" transform="translate(-310.672 -377.813)" fill="none" stroke="#000" stroke-linecap="round" stroke-linejoin="round" stroke-miterlimit="10" stroke-width="1"/>
          <path id="Path_1052817" data-name="Path 1052817" d="M410.427,423.6a16.915,16.915,0,0,0,1.841,1.662v0" transform="translate(-359.062 -371.461)" fill="none" stroke="#000" stroke-linecap="round" stroke-linejoin="round" stroke-miterlimit="10" stroke-width="1"/>
          <path id="Path_1052818" data-name="Path 1052818" d="M314.657,431.925a17.663,17.663,0,0,1-.161-2.868" transform="translate(-275.355 -376.225)" fill="none" stroke="#000" stroke-linecap="round" stroke-linejoin="round" stroke-miterlimit="10" stroke-width="1"/>
          <path id="Path_1052819" data-name="Path 1052819" d="M267.711,432.723a24.465,24.465,0,0,1-.274-4.216" transform="translate(-234.3 -375.745)" fill="none" stroke="#000" stroke-linecap="round" stroke-linejoin="round" stroke-miterlimit="10" stroke-width="1"/>
          <path id="Path_1052820" data-name="Path 1052820" d="M296.6,284.131c0-1.613-.014-3.7-.008-4.988a1.712,1.712,0,0,1,.659-1.341l2.913-2.165" transform="translate(-259.738 -242.363)" fill="none" stroke="#000" stroke-linecap="round" stroke-linejoin="round" stroke-miterlimit="10" stroke-width="1"/>
          <path id="Path_1052821" data-name="Path 1052821" d="M387.4,291.795l.037-.018c3.3,4.628,1.608,1.712.876,8.355" transform="translate(-338.968 -256.446)" fill="none" stroke="#000" stroke-linecap="round" stroke-linejoin="round" stroke-miterlimit="10" stroke-width="1"/>
          <path id="Path_1052822" data-name="Path 1052822" d="M325.211,257.937c-.363,1.109-.885,2.06-.368,3.1.687,1.389,2.513,3.782,6.589,2.453a1.95,1.95,0,0,0,1.238-1.353l.57-2.038" transform="translate(-284.199 -226.919)" fill="none" stroke="#000" stroke-linecap="round" stroke-linejoin="round" stroke-miterlimit="10" stroke-width="1"/>
          <path id="path5603_00000044856875960291636040000013328902080143563194_" d="M404.366,442.215a3.061,3.061,0,0,1-4.216,1.09,24.624,24.624,0,0,1-2.228-1.5l3.436-5.166a18.862,18.862,0,0,0,1.929,1.319,3.127,3.127,0,0,1,1.079,4.259" transform="translate(-348.151 -382.839)" fill="none" stroke="#000" stroke-linecap="round" stroke-linejoin="round" stroke-miterlimit="10" stroke-width="1"/>
          <path id="path5607_00000022562759946829892350000013838803822429851316_" d="M275.931,453.861a19.663,19.663,0,0,1-.459-2.3l-5.891,1.278a25.633,25.633,0,0,0,.545,2.647,3,3,0,0,0,3.686,2.191,3.122,3.122,0,0,0,2.12-3.811" transform="translate(-236.171 -395.857)" fill="none" stroke="#000" stroke-linecap="round" stroke-linejoin="round" stroke-miterlimit="10" stroke-width="1"/>
          <path id="Path_1052823" data-name="Path 1052823" d="M276.562,344.179l-12.478-1.92-3.318,2.974a4.33,4.33,0,0,0,1.9,7.441,35.159,35.159,0,0,0,19.267-1,2.024,2.024,0,0,0,.038-3.82A12.22,12.22,0,0,1,276.562,344.179Z" transform="translate(-227.22 -300.492)" fill="none" stroke="#000" stroke-linecap="round" stroke-linejoin="round" stroke-miterlimit="10" stroke-width="1"/>
          <path id="Path_1052824" data-name="Path 1052824" d="M68.614,438.5l-1.831,2.355a3.839,3.839,0,1,1-6.062-4.714l1.72-2.21Z" transform="translate(-53.226 -380.478)" fill="none" stroke="#000" stroke-linecap="round" stroke-linejoin="round" stroke-miterlimit="10" stroke-width="1"/>
          <path id="Path_1052825" data-name="Path 1052825" d="M35.394,34.58a.6.6,0,0,0-.113-.28c-1.2-1.615-3.958-5.752-3.768-9.337a1.877,1.877,0,0,0-1.451-1.894l-1.284-.343a2.312,2.312,0,0,0-2.6,1.118l-.129.243a2.3,2.3,0,0,1-2.878,1.022,2.3,2.3,0,0,0-2.878,1.022,2.309,2.309,0,0,1-2.878,1.022,2.3,2.3,0,0,0-2.878,1.021A2.3,2.3,0,0,1,11.657,29.2l-.252-.107a2.31,2.31,0,0,0-2.72.771L7.9,30.944a1.872,1.872,0,0,0,.064,2.383c2.4,2.645,2.838,7.649,2.913,9.677a.606.606,0,0,0,.078.277" transform="translate(-7.5 -21.627)" fill="none" stroke="#000" stroke-linecap="round" stroke-linejoin="round" stroke-miterlimit="10" stroke-width="1"/>
          <path id="Path_1052826" data-name="Path 1052826" d="M36.79,113.049a13.335,13.335,0,0,1-2.216-5.371,2.872,2.872,0,0,1,1.321-2.936A15.479,15.479,0,0,0,41.486,98.9a5.381,5.381,0,0,1,6.823-2.423,15.36,15.36,0,0,0,8,1.012,2.828,2.828,0,0,1,2.842,1.414,13.326,13.326,0,0,1-7.3,19.09,13.192,13.192,0,0,1-12.3-2.068" transform="translate(-31.085 -85.679)" fill="none" stroke="#000" stroke-linecap="round" stroke-linejoin="round" stroke-miterlimit="10" stroke-width="1"/>
          <line id="Line_862" data-name="Line 862" x2="0.455" y2="1.46" transform="translate(9.153 22.715)" fill="none" stroke="#000" stroke-linecap="round" stroke-linejoin="round" stroke-miterlimit="10" stroke-width="1"/>
          <line id="Line_863" data-name="Line 863" x2="0.455" y2="1.46" transform="translate(24.274 17.953)" fill="none" stroke="#000" stroke-linecap="round" stroke-linejoin="round" stroke-miterlimit="10" stroke-width="1"/>
          <path id="Path_1052827" data-name="Path 1052827" d="M126.441,181.571a2.763,2.763,0,0,0,3.986-1.255" transform="translate(-111.279 -159.194)" fill="none" stroke="#000" stroke-linecap="round" stroke-linejoin="round" stroke-miterlimit="10" stroke-width="1"/>
          <path id="Path_1052828" data-name="Path 1052828" d="M435.387,15.575c1.518-1.577,4.566-1.155,6.835.957a6.2,6.2,0,0,1,2.2,5.074" transform="translate(-380.84 -14.622)" fill="none" stroke="#000" stroke-linecap="round" stroke-linejoin="round" stroke-miterlimit="10" stroke-width="1"/>
          <path id="Path_1052829" data-name="Path 1052829" d="M304.932,44.635h0a13.236,13.236,0,0,0-14.664,11.137" transform="translate(-254.22 -40.727)" fill="none" stroke="#000" stroke-linecap="round" stroke-linejoin="round" stroke-miterlimit="10" stroke-width="1"/>
          <path id="Path_1052830" data-name="Path 1052830" d="M488.667,106.617a13.154,13.154,0,0,1,0,10.71" transform="translate(-427.328 -94.89)" fill="none" stroke="#000" stroke-linecap="round" stroke-linejoin="round" stroke-miterlimit="10" stroke-width="1"/>
          <path id="Path_1052831" data-name="Path 1052831" d="M291.152,134.727a13.3,13.3,0,0,1-8.407-16.891,1.842,1.842,0,0,1,2.064-1.2,31.3,31.3,0,0,0,15.11-1.452,3.344,3.344,0,0,1,4.158,1.913,13.834,13.834,0,0,0,3.819,5.043,1.837,1.837,0,0,1,.619,1.579A13.251,13.251,0,0,1,291.152,134.727Z" transform="translate(-247.031 -102.21)" fill="none" stroke="#000" stroke-linecap="round" stroke-linejoin="round" stroke-miterlimit="10" stroke-width="1"/>
          <path id="Path_1052832" data-name="Path 1052832" d="M449.6,51.648c.19-.026.018-.053,4.306,1.363a1.711,1.711,0,0,1,.348,3.089,1.709,1.709,0,0,0-.817,1.293A1.71,1.71,0,0,1,450.5,58.4c-3.1-3.25-3.018-3.127-3.076-3.308" transform="translate(-391.346 -46.922)" fill="none" stroke="#000" stroke-linecap="round" stroke-linejoin="round" stroke-miterlimit="10" stroke-width="1"/>
          <path id="Path_1052833" data-name="Path 1052833" d="M409.865,24.007c-.057-.178.039-.041-3.076-3.308a1.71,1.71,0,0,0-2.938,1.01A1.715,1.715,0,0,1,403.034,23a1.71,1.71,0,0,0,.348,3.088c4.27,1.41,4.12,1.388,4.306,1.363" transform="translate(-351.891 -19.46)" fill="none" stroke="#000" stroke-linecap="round" stroke-linejoin="round" stroke-miterlimit="10" stroke-width="1"/>
          <ellipse id="Ellipse_13490" data-name="Ellipse 13490" cx="2.045" cy="2.046" rx="2.045" ry="2.046" transform="translate(54.973 4.322) rotate(-0.292)" fill="none" stroke="#000" stroke-linecap="round" stroke-linejoin="round" stroke-miterlimit="10" stroke-width="1"/>
          <line id="Line_864" data-name="Line 864" x1="0.409" y2="1.474" transform="translate(39.756 18.868)" fill="none" stroke="#000" stroke-linecap="round" stroke-linejoin="round" stroke-miterlimit="10" stroke-width="1"/>
          <line id="Line_865" data-name="Line 865" x1="0.409" y2="1.474" transform="translate(55.097 23.13)" fill="none" stroke="#000" stroke-linecap="round" stroke-linejoin="round" stroke-miterlimit="10" stroke-width="1"/>
          <path id="Path_1052834" data-name="Path 1052834" d="M363.762,186.159a2.782,2.782,0,0,0,4.045,1.123" transform="translate(-318.346 -164.292)" fill="none" stroke="#000" stroke-linecap="round" stroke-linejoin="round" stroke-miterlimit="10" stroke-width="1"/>
          <line id="Line_866" data-name="Line 866" x2="6.095" transform="translate(21.488 44.646)" fill="none" stroke="#000" stroke-linecap="round" stroke-linejoin="round" stroke-miterlimit="10" stroke-width="1"/>
        </g>
      </g>
    </g>
  </g>
</svg>
