<svg xmlns="http://www.w3.org/2000/svg" xmlns:xlink="http://www.w3.org/1999/xlink" width="113" height="113" viewBox="0 0 113 113">
  <defs>
    <filter id="Path_982547" x="0" y="0.001" width="113" height="113" filterUnits="userSpaceOnUse">
      <feOffset dy="3" input="SourceAlpha"/>
      <feGaussianBlur stdDeviation="3" result="blur"/>
      <feFlood flood-opacity="0.161"/>
      <feComposite operator="in" in2="blur"/>
      <feComposite in="SourceGraphic"/>
    </filter>
  </defs>
  <g id="Group_1208534" data-name="Group 1208534" transform="translate(-901 -9100.999)">
    <g id="Group_1208471" data-name="Group 1208471">
      <g id="Group_1208178" data-name="Group 1208178" transform="translate(0 6271.193)">
        <g id="Group_1207723" data-name="Group 1207723" transform="translate(-1 752.362)">
          <g id="Group_1207256" data-name="Group 1207256" transform="translate(0 -8747.046)">
            <g id="Group_1204127" data-name="Group 1204127" transform="translate(0 6984.49)">
              <g id="Group_1203960" data-name="Group 1203960" transform="translate(0.44 1899.125)">
                <g id="Group_1203499" data-name="Group 1203499" transform="translate(0 -197.72)">
                  <g id="Group_1202591" data-name="Group 1202591" transform="translate(910.561 2144.596)">
                    <g id="Group_1172010" data-name="Group 1172010" transform="translate(0)">
                      <g id="Group_1171046" data-name="Group 1171046">
                        <g id="Group_1148525" data-name="Group 1148525">
                          <g transform="matrix(1, 0, 0, 1, -9, -6)" filter="url(#Path_982547)">
                            <g id="Path_982547-2" data-name="Path 982547" transform="translate(9 6)" fill="#edf3fc">
                              <path d="M 47.5 93.5 C 41.28937149047852 93.5 35.26533508300781 92.28397369384766 29.59518623352051 89.88570404052734 C 24.11771965026855 87.56893157958984 19.19813346862793 84.25196075439453 14.97309303283691 80.02691650390625 C 10.74804019927979 75.80186462402344 7.431066513061523 70.88229370117188 5.114293098449707 65.40481567382812 C 2.716026782989502 59.73468017578125 1.5 53.71062850952148 1.5 47.5 C 1.5 41.28937149047852 2.716026782989502 35.26533508300781 5.114293098449707 29.59518623352051 C 7.431066513061523 24.11771965026855 10.74804019927979 19.19813346862793 14.97309303283691 14.97309303283691 C 19.19813346862793 10.74804019927979 24.11771965026855 7.431066513061523 29.59518623352051 5.114293098449707 C 35.26533508300781 2.716026782989502 41.28937149047852 1.5 47.5 1.5 C 53.71062850952148 1.5 59.73468017578125 2.716026782989502 65.40481567382812 5.114293098449707 C 70.88229370117188 7.431066513061523 75.80186462402344 10.74804019927979 80.02691650390625 14.97309303283691 C 84.25196075439453 19.19813346862793 87.56893157958984 24.11771965026855 89.88570404052734 29.59518623352051 C 92.28397369384766 35.26533508300781 93.5 41.28937149047852 93.5 47.5 C 93.5 53.71062850952148 92.28397369384766 59.73468017578125 89.88570404052734 65.40481567382812 C 87.56893157958984 70.88229370117188 84.25196075439453 75.80186462402344 80.02691650390625 80.02691650390625 C 75.80186462402344 84.25196075439453 70.88229370117188 87.56893157958984 65.40481567382812 89.88570404052734 C 59.73468017578125 92.28397369384766 53.71062850952148 93.5 47.5 93.5 Z" stroke="none"/>
                              <path d="M 47.5 3 C 41.49121475219727 3 35.66376876831055 4.176155090332031 30.17950439453125 6.495796203613281 C 24.88084411621094 8.736953735351562 20.12152099609375 11.94598388671875 16.03375244140625 16.03375244140625 C 11.94598388671875 20.12152099609375 8.736953735351562 24.88084411621094 6.495796203613281 30.17950439453125 C 4.176155090332031 35.66376876831055 3 41.49121475219727 3 47.5 C 3 53.50878524780273 4.176155090332031 59.33623123168945 6.495796203613281 64.82049560546875 C 8.736953735351562 70.11915588378906 11.94598388671875 74.87847900390625 16.03375244140625 78.96624755859375 C 20.12152099609375 83.05401611328125 24.88084411621094 86.26304626464844 30.17950439453125 88.50419616699219 C 35.66376876831055 90.82384490966797 41.49121475219727 92 47.5 92 C 53.50878524780273 92 59.33623123168945 90.82384490966797 64.82049560546875 88.50419616699219 C 70.11915588378906 86.26304626464844 74.87847900390625 83.05401611328125 78.96624755859375 78.96624755859375 C 83.05401611328125 74.87847900390625 86.26304626464844 70.11915588378906 88.50419616699219 64.82049560546875 C 90.82384490966797 59.33623123168945 92 53.50878524780273 92 47.5 C 92 41.49121475219727 90.82384490966797 35.66376876831055 88.50419616699219 30.17950439453125 C 86.26304626464844 24.88084411621094 83.05401611328125 20.12152099609375 78.96624755859375 16.03375244140625 C 74.87847900390625 11.94598388671875 70.11915588378906 8.736953735351562 64.82049560546875 6.495796203613281 C 59.33623123168945 4.176155090332031 53.50878524780273 3 47.5 3 M 47.5 0 C 73.7335205078125 0 95 21.2664794921875 95 47.5 C 95 73.7335205078125 73.7335205078125 95 47.5 95 C 21.2664794921875 95 0 73.7335205078125 0 47.5 C 0 21.2664794921875 21.2664794921875 0 47.5 0 Z" stroke="none" fill="#5692e8"/>
                            </g>
                          </g>
                        </g>
                      </g>
                    </g>
                  </g>
                </g>
              </g>
            </g>
          </g>
        </g>
      </g>
      <g id="hand_6551779_1_" data-name="hand_6551779 (1)" transform="translate(925 9124)">
        <g id="Group_1208469" data-name="Group 1208469">
          <g id="Group_1208455" data-name="Group 1208455">
            <path id="Path_1053046" data-name="Path 1053046" d="M29,35v4H20.16a10,10,0,1,1,0-8H29Z" fill="#e6e9ed"/>
          </g>
          <g id="Group_1208456" data-name="Group 1208456">
            <path id="Path_1053047" data-name="Path 1053047" d="M33,37v5a1,1,0,0,1-1,1H29V27h3a1,1,0,0,1,1,1v9Z" fill="#aab2bd"/>
          </g>
          <g id="Group_1208457" data-name="Group 1208457">
            <path id="Path_1053048" data-name="Path 1053048" d="M7,33V31a2.006,2.006,0,0,1,2-2h4a2.006,2.006,0,0,1,2,2v6a4,4,0,0,1-4,4H9a4,4,0,0,1-4-4V35A2.006,2.006,0,0,1,7,33Z" fill="#f0d0b4"/>
          </g>
          <g id="Group_1208458" data-name="Group 1208458">
            <path id="Path_1053049" data-name="Path 1053049" d="M51,1H39.43A2.424,2.424,0,0,0,37,3.43a2.388,2.388,0,0,0,.26,1.08L38,6l-2.35.47A3.3,3.3,0,0,0,33,9.7V20a3,3,0,0,1,3-3h1V13H51a2.015,2.015,0,0,0,2-2,4,4,0,0,1,4,4v2h1a3,3,0,0,1,3,3V11A10,10,0,0,0,51,1Z" fill="#b27946"/>
          </g>
          <g id="Group_1208459" data-name="Group 1208459">
            <path id="Path_1053050" data-name="Path 1053050" d="M41,51h4V61H41Z" fill="#969faa"/>
          </g>
          <g id="Group_1208460" data-name="Group 1208460">
            <path id="Path_1053051" data-name="Path 1053051" d="M45,51H55V61H45Z" fill="#969faa"/>
          </g>
          <g id="Group_1208461" data-name="Group 1208461">
            <path id="Path_1053052" data-name="Path 1053052" d="M55,35V51H41V39H51a3.995,3.995,0,0,0,4-4Z" fill="#b4dd7f"/>
          </g>
          <g id="Group_1208462" data-name="Group 1208462">
            <path id="Path_1053053" data-name="Path 1053053" d="M51,31a4,4,0,1,1,0,8H38a1,1,0,0,1-1-1V31H51Z" fill="#b4dd7f"/>
          </g>
          <g id="Group_1208463" data-name="Group 1208463">
            <path id="Path_1053054" data-name="Path 1053054" d="M37,31v6H33V29h2A2.006,2.006,0,0,1,37,31Z" fill="#f0d0b4"/>
          </g>
          <g id="Group_1208464" data-name="Group 1208464">
            <path id="Path_1053055" data-name="Path 1053055" d="M58,17a3,3,0,0,1,0,6H57V17Z" fill="#f0d0b4"/>
          </g>
          <g id="Group_1208465" data-name="Group 1208465">
            <path id="Path_1053056" data-name="Path 1053056" d="M57,17v6a8,8,0,0,1-8,8H45a8,8,0,0,1-8-8V13H51a2.015,2.015,0,0,0,2-2,4,4,0,0,1,4,4Z" fill="#f0d0b4"/>
          </g>
          <g id="Group_1208466" data-name="Group 1208466">
            <path id="Path_1053057" data-name="Path 1053057" d="M37,17v6H36a3,3,0,0,1,0-6Z" fill="#f0d0b4"/>
          </g>
          <g id="Group_1208467" data-name="Group 1208467">
            <path id="Path_1053058" data-name="Path 1053058" d="M43,23h8a4,4,0,0,1-8,0Z" fill="#ef7385"/>
          </g>
          <g id="Group_1208468" data-name="Group 1208468">
            <path id="Path_1053059" data-name="Path 1053059" d="M15.88,5.51A5.93,5.93,0,0,1,17,9a6,6,0,1,1-1.12-3.49Z" fill="#ef7385"/>
          </g>
        </g>
        <g id="Group_1208470" data-name="Group 1208470">
          <path id="Path_1053060" data-name="Path 1053060" d="M13,28H9a3,3,0,0,0-3,3v1.171A3.006,3.006,0,0,0,4,35v2a5.006,5.006,0,0,0,5,5h2a5.006,5.006,0,0,0,5-5V31A3,3,0,0,0,13,28Zm1,9a3,3,0,0,1-3,3H9a3,3,0,0,1-3-3V35a1,1,0,0,1,2,0v1h2V35a3.006,3.006,0,0,0-2-2.829V31a1,1,0,0,1,1-1h4a1,1,0,0,1,1,1Z"/>
          <path id="Path_1053061" data-name="Path 1053061" d="M42,23a5,5,0,0,0,10,0V22H42Zm7.829,1a3,3,0,0,1-5.658,0Z"/>
          <path id="Path_1053062" data-name="Path 1053062" d="M42,19a1,1,0,0,1,2,0v1h2V19a3,3,0,0,0-6,0v1h2Z"/>
          <path id="Path_1053063" data-name="Path 1053063" d="M51,16a3,3,0,0,0-3,3v1h2V19a1,1,0,0,1,2,0v1h2V19A3,3,0,0,0,51,16Z"/>
          <path id="Path_1053064" data-name="Path 1053064" d="M57.941,24H58a4,4,0,0,0,4-4V11A11.013,11.013,0,0,0,51,0H39.427a3.429,3.429,0,0,0-3.066,4.96l.158.316-1.065.213A4.309,4.309,0,0,0,32,9.7V20a4,4,0,0,0,4,4h.059a8.991,8.991,0,0,0,3.3,6H37.829A3.006,3.006,0,0,0,35,28H34a2,2,0,0,0-2-2H30V0H28V30H20.8A10.985,10.985,0,0,0,12,24.07V15.92a6.985,6.985,0,0,0,5.123-10.3l2.624-2.952L18.253,1.336,15.887,4A6.994,6.994,0,1,0,10,15.92v8.131A11,11,0,1,0,20.8,40H28V60H0v2H62V60H56V35a4.983,4.983,0,0,0-2.425-4.263A9.007,9.007,0,0,0,57.941,24ZM58,22V18a2,2,0,0,1,0,4ZM35.847,7.45l3.634-.727-1.33-2.657A1.427,1.427,0,0,1,39.427,2H51a9.01,9.01,0,0,1,9,9v5.556A3.959,3.959,0,0,0,58,16V15a5,5,0,0,0-4.158-4.915A2.993,2.993,0,0,0,51,8H50v2h1a1,1,0,0,1,0,2H36.3a2.3,2.3,0,0,1-.45-4.55ZM36,16a3.959,3.959,0,0,0-2,.556V13.321a4.259,4.259,0,0,0,2,.648Zm-2,4a2,2,0,0,1,2-2v4A2,2,0,0,1,34,20Zm1,10a1,1,0,0,1,1,1v5H34V30Zm-3-2V42H30V28ZM6,9a4.994,4.994,0,0,1,8.557-3.506l-3.6,4.049-2.25-2.25L7.293,8.707l3.75,3.75,4.625-5.2A4.95,4.95,0,0,1,16,9,5,5,0,0,1,6,9ZM19.508,38l-.262.6a9,9,0,1,1,0-7.2l.262.6H28v2H20v2h8v2ZM30,44h2a2,2,0,0,0,2-2V38h2a2,2,0,0,0,2,2h2V60H30Zm12,8h2v8H42Zm0-2V40h9a4.948,4.948,0,0,0,3-1.026V50Zm4,10V52h8v8Zm5-28a3,3,0,0,1,0,6H38V32Zm-2-2H45a7.009,7.009,0,0,1-7-7V14H51a3,3,0,0,0,2.78-1.884A3,3,0,0,1,56,15v8A7.009,7.009,0,0,1,49,30Z"/>
          <path id="Path_1053065" data-name="Path 1053065" d="M36,52h2v2H36Z"/>
          <path id="Path_1053066" data-name="Path 1053066" d="M32,52h2v2H32Z"/>
        </g>
      </g>
    </g>
  </g>
</svg>
