<svg xmlns="http://www.w3.org/2000/svg" xmlns:xlink="http://www.w3.org/1999/xlink" width="113" height="113" viewBox="0 0 113 113">
  <defs>
    <filter id="Path_982547" x="0" y="0" width="113" height="113" filterUnits="userSpaceOnUse">
      <feOffset dy="3" input="SourceAlpha"/>
      <feGaussianBlur stdDeviation="3" result="blur"/>
      <feFlood flood-opacity="0.161"/>
      <feComposite operator="in" in2="blur"/>
      <feComposite in="SourceGraphic"/>
    </filter>
  </defs>
  <g id="Group_1208512" data-name="Group 1208512" transform="translate(-1216 -953.142)">
    <g id="Group_1208405" data-name="Group 1208405">
      <g id="Group_1208166" data-name="Group 1208166" transform="translate(0 -1869)">
        <g id="Group_1207724" data-name="Group 1207724" transform="translate(-1 752.362)">
          <g id="Group_1207257" data-name="Group 1207257" transform="translate(0 -8747.046)">
            <g id="Group_1204128" data-name="Group 1204128" transform="translate(0 6976.49)">
              <g id="Group_1203961" data-name="Group 1203961" transform="translate(0.44 1899.461)">
                <g id="Group_1203500" data-name="Group 1203500" transform="translate(0 -197.72)">
                  <g id="Group_1202592" data-name="Group 1202592" transform="translate(1225.561 2144.596)">
                    <g id="Group_1172010" data-name="Group 1172010" transform="translate(0)">
                      <g id="Group_1171046" data-name="Group 1171046">
                        <g id="Group_1148525" data-name="Group 1148525">
                          <g transform="matrix(1, 0, 0, 1, -9, -6)" filter="url(#Path_982547)">
                            <g id="Path_982547-2" data-name="Path 982547" transform="translate(9 6)" fill="#edf3fc">
                              <path d="M 47.5 93.5 C 41.28937149047852 93.5 35.26533508300781 92.28397369384766 29.59518623352051 89.88570404052734 C 24.11771965026855 87.56893157958984 19.19813346862793 84.25196075439453 14.97309303283691 80.02691650390625 C 10.74804019927979 75.80186462402344 7.431066513061523 70.88229370117188 5.114293098449707 65.40481567382812 C 2.716026782989502 59.73468017578125 1.5 53.71062850952148 1.5 47.5 C 1.5 41.28937149047852 2.716026782989502 35.26533508300781 5.114293098449707 29.59518623352051 C 7.431066513061523 24.11771965026855 10.74804019927979 19.19813346862793 14.97309303283691 14.97309303283691 C 19.19813346862793 10.74804019927979 24.11771965026855 7.431066513061523 29.59518623352051 5.114293098449707 C 35.26533508300781 2.716026782989502 41.28937149047852 1.5 47.5 1.5 C 53.71062850952148 1.5 59.73468017578125 2.716026782989502 65.40481567382812 5.114293098449707 C 70.88229370117188 7.431066513061523 75.80186462402344 10.74804019927979 80.02691650390625 14.97309303283691 C 84.25196075439453 19.19813346862793 87.56893157958984 24.11771965026855 89.88570404052734 29.59518623352051 C 92.28397369384766 35.26533508300781 93.5 41.28937149047852 93.5 47.5 C 93.5 53.71062850952148 92.28397369384766 59.73468017578125 89.88570404052734 65.40481567382812 C 87.56893157958984 70.88229370117188 84.25196075439453 75.80186462402344 80.02691650390625 80.02691650390625 C 75.80186462402344 84.25196075439453 70.88229370117188 87.56893157958984 65.40481567382812 89.88570404052734 C 59.73468017578125 92.28397369384766 53.71062850952148 93.5 47.5 93.5 Z" stroke="none"/>
                              <path d="M 47.5 3 C 41.49121475219727 3 35.66376876831055 4.176155090332031 30.17950439453125 6.495796203613281 C 24.88084411621094 8.736953735351562 20.12152099609375 11.94598388671875 16.03375244140625 16.03375244140625 C 11.94598388671875 20.12152099609375 8.736953735351562 24.88084411621094 6.495796203613281 30.17950439453125 C 4.176155090332031 35.66376876831055 3 41.49121475219727 3 47.5 C 3 53.50878524780273 4.176155090332031 59.33623123168945 6.495796203613281 64.82049560546875 C 8.736953735351562 70.11915588378906 11.94598388671875 74.87847900390625 16.03375244140625 78.96624755859375 C 20.12152099609375 83.05401611328125 24.88084411621094 86.26304626464844 30.17950439453125 88.50419616699219 C 35.66376876831055 90.82384490966797 41.49121475219727 92 47.5 92 C 53.50878524780273 92 59.33623123168945 90.82384490966797 64.82049560546875 88.50419616699219 C 70.11915588378906 86.26304626464844 74.87847900390625 83.05401611328125 78.96624755859375 78.96624755859375 C 83.05401611328125 74.87847900390625 86.26304626464844 70.11915588378906 88.50419616699219 64.82049560546875 C 90.82384490966797 59.33623123168945 92 53.50878524780273 92 47.5 C 92 41.49121475219727 90.82384490966797 35.66376876831055 88.50419616699219 30.17950439453125 C 86.26304626464844 24.88084411621094 83.05401611328125 20.12152099609375 78.96624755859375 16.03375244140625 C 74.87847900390625 11.94598388671875 70.11915588378906 8.736953735351562 64.82049560546875 6.495796203613281 C 59.33623123168945 4.176155090332031 53.50878524780273 3 47.5 3 M 47.5 0 C 73.7335205078125 0 95 21.2664794921875 95 47.5 C 95 73.7335205078125 73.7335205078125 95 47.5 95 C 21.2664794921875 95 0 73.7335205078125 0 47.5 C 0 21.2664794921875 21.2664794921875 0 47.5 0 Z" stroke="none" fill="#5692e8"/>
                            </g>
                          </g>
                        </g>
                      </g>
                    </g>
                  </g>
                </g>
              </g>
            </g>
          </g>
        </g>
      </g>
      <g id="puzzle_3181762" transform="translate(1187.887 972.937)">
        <g id="Group_1208403" data-name="Group 1208403" transform="translate(59.614 0.988)">
          <g id="Group_1208401" data-name="Group 1208401" transform="translate(0 5.283)">
            <g id="Group_1208400" data-name="Group 1208400">
              <g id="Group_1208399" data-name="Group 1208399">
                <g id="Group_1208396" data-name="Group 1208396" transform="translate(0 30.093)">
                  <path id="Path_1052908" data-name="Path 1052908" d="M72.415,286.01a5,5,0,0,1-6.288-4.83c0-2.76,2.1-5,5.384-5Z" transform="translate(-66.127 -276.182)" fill="#b77e5a"/>
                  <path id="Path_1052909" data-name="Path 1052909" d="M398.113,286.01a5,5,0,0,0,6.288-4.83c0-2.76-2.1-5-5.384-5Z" transform="translate(-354.403 -276.182)" fill="#b77e5a"/>
                </g>
                <g id="Group_1208397" data-name="Group 1208397" transform="translate(4.967 8.572)">
                  <path id="Path_1052910" data-name="Path 1052910" d="M142.623,144.365c.038.467.058.943.058,1.418,0,4.476-3.812,9.825-11.332,15.9a11.8,11.8,0,0,1-7.464,2.637h-.145a11.786,11.786,0,0,1-7.319-2.636c-7.521-6.074-11.332-11.422-11.332-15.9,0-.475.02-.951.058-1.418a24.055,24.055,0,0,0,.278-2.712c0-5.648-5.115-16,3.11-23.786,3.875-3.669,8.727-5.115,15.206-5.136h.145c6.552,0,11.447,1.439,15.351,5.136,8.225,7.786,3.11,18.138,3.11,23.786a24.063,24.063,0,0,0,.278,2.712Z" transform="translate(-103.852 -112.731)" fill="#feaf82"/>
                  <path id="Path_1052911" data-name="Path 1052911" d="M273.783,144.365c.038.467.058.943.058,1.418,0,4.476-3.812,9.825-11.332,15.9a11.8,11.8,0,0,1-7.464,2.637H254.9a8.7,8.7,0,0,0,6.014-2.636c6.179-6.074,9.31-11.422,9.31-15.9,0-.475-.016-.951-.047-1.418-.039-.486-.211-1.522-.229-2.712,0-5.648,4.2-16-2.554-23.786-3.184-3.669-7.17-5.115-12.494-5.136h.145c6.552,0,11.447,1.439,15.351,5.136,8.225,7.786,3.11,18.138,3.11,23.786A24.05,24.05,0,0,0,273.783,144.365Z" transform="translate(-235.013 -112.731)" fill="#df9f7a"/>
                </g>
                <g id="Group_1208398" data-name="Group 1208398" transform="translate(3.082)">
                  <circle id="Ellipse_13493" data-name="Ellipse 13493" cx="1.975" cy="1.975" r="1.975" fill="#f55c80"/>
                  <circle id="Ellipse_13494" data-name="Ellipse 13494" cx="1.975" cy="1.975" r="1.975" transform="translate(39.752)" fill="#f55c80"/>
                </g>
              </g>
            </g>
          </g>
          <path id="Path_1052912" data-name="Path 1052912" d="M195.714,22.716a4.535,4.535,0,0,0,4.536,4.534v6.188h-5.34a4.536,4.536,0,0,1-9.072,0H180.5V27.25a4.534,4.534,0,1,0,0-9.069V11.993h5.339a4.535,4.535,0,0,1,9.07,0h5.34v6.188A4.535,4.535,0,0,0,195.714,22.716Z" transform="translate(-165.441 -7.502)" fill="#5bc196"/>
          <g id="Group_1208402" data-name="Group 1208402" transform="translate(23.286 0)">
            <path id="Path_1052913" data-name="Path 1052913" d="M245.889,204.492h3.292a4.537,4.537,0,0,1-6.18,4.226A4.536,4.536,0,0,0,245.889,204.492Z" transform="translate(-242.999 -178.556)" fill="#3eafa9"/>
            <path id="Path_1052914" data-name="Path 1052914" d="M242.99,7.81a4.538,4.538,0,0,1,6.182,4.183H245.88A4.536,4.536,0,0,0,242.99,7.81Z" transform="translate(-242.99 -7.502)" fill="#3eafa9"/>
            <path id="Path_1052915" data-name="Path 1052915" d="M274.342,52.335a4.535,4.535,0,0,0,4.536,4.534v6.188h-3.292v-4.14A2.477,2.477,0,0,0,274,56.586a4.537,4.537,0,0,1,0-8.5,2.477,2.477,0,0,0,1.583-2.332v-4.14h3.292V47.8A4.535,4.535,0,0,0,274.342,52.335Z" transform="translate(-267.356 -37.121)" fill="#3eafa9"/>
          </g>
        </g>
        <g id="Group_1208404" data-name="Group 1208404" transform="translate(58.626 0)">
          <path id="Path_1052916" data-name="Path 1052916" d="M74.474,263.53c-5.089-4.7-7.67-8.832-7.67-12.292,0-.446.018-.893.054-1.329.011-.113.036-.28.064-.473a18.14,18.14,0,0,0,.218-2.31c0-.006,0-.012,0-.018a30.216,30.216,0,0,0-.679-5.137,43.305,43.305,0,0,1-.887-6.831.988.988,0,0,0-1.974.048,31.294,31.294,0,0,0,.317,3.609,5.87,5.87,0,0,0-5.292,5.91,5.992,5.992,0,0,0,5.985,5.984q.113,0,.226,0-.008.275-.008.551c0,4.034,2.794,8.658,8.305,13.743a.988.988,0,0,0,1.34-1.451ZM60.6,244.707a3.922,3.922,0,0,1,3.629-3.959c.1.543.194,1.072.29,1.585a29.131,29.131,0,0,1,.645,4.767,14.046,14.046,0,0,1-.133,1.595,4.062,4.062,0,0,1-.42.022A4.014,4.014,0,0,1,60.6,244.707Z" transform="translate(-58.626 -203.345)"/>
          <path id="Path_1052917" data-name="Path 1052917" d="M220.955,70.3c.569-4.058.634-8.679-1.977-12.913l1.682-1.251a.987.987,0,0,0,.4-.792V45.882a2.962,2.962,0,1,0-1.975,0v8.962l-1.249.929a17.128,17.128,0,0,0-1.543-1.663,18.841,18.841,0,0,0-1.813-1.515.987.987,0,1,0-1.167,1.593,16.878,16.878,0,0,1,1.622,1.355,15.044,15.044,0,0,1,1.313,1.409l-2.427,1.8A.987.987,0,0,0,215,60.342l2.385-1.773c2.9,4.856,1.879,10.338,1.03,14.9a30.2,30.2,0,0,0-.679,5.137c0,.006,0,.012,0,.018a18.145,18.145,0,0,0,.218,2.31c.028.193.052.36.064.472.036.436.054.883.054,1.329,0,4.162-3.689,9.251-10.967,15.128a10.848,10.848,0,0,1-6.817,2.415h-.056a10.844,10.844,0,0,1-6.812-2.416.987.987,0,0,0-1.244,1.534,12.819,12.819,0,0,0,8.051,2.857h.066a12.821,12.821,0,0,0,8.054-2.855c7.763-6.268,11.7-11.875,11.7-16.663q0-.276-.008-.551.113,0,.226,0a5.992,5.992,0,0,0,5.985-5.984,5.87,5.87,0,0,0-5.293-5.91ZM220.071,42.1a.987.987,0,1,1-.987.987A.988.988,0,0,1,220.071,42.1Zm.191,38.113a4.065,4.065,0,0,1-.421-.022,14.038,14.038,0,0,1-.133-1.594,29.121,29.121,0,0,1,.645-4.767c.1-.512.194-1.041.289-1.585a3.922,3.922,0,0,1,3.63,3.959A4.014,4.014,0,0,1,220.263,80.215Z" transform="translate(-174.274 -34.844)"/>
          <path id="Path_1052922" data-name="Path 1052922" d="M84.011,45.882V55.34a.988.988,0,0,0,.4.792l1.769,1.315a14.946,14.946,0,0,0-1.829,4.566.987.987,0,1,0,1.927.432,13.022,13.022,0,0,1,1.5-3.812l2.3,1.709a.987.987,0,1,0,1.178-1.585L88.9,57.013a15.272,15.272,0,0,1,1.365-1.469,16.864,16.864,0,0,1,1.622-1.355A.987.987,0,1,0,90.724,52.6a18.855,18.855,0,0,0-1.813,1.514,17.3,17.3,0,0,0-1.595,1.723l-1.33-.989V45.882a2.962,2.962,0,1,0-1.975,0ZM85,42.1a.987.987,0,1,1-.987.987A.988.988,0,0,1,85,42.1Z" transform="translate(-78.954 -34.844)"/>
          <path id="Path_1052923" data-name="Path 1052923" d="M173.984,27.912h4.44a5.524,5.524,0,0,0,10.869,0h4.441a.987.987,0,0,0,.987-.987V20.736a.987.987,0,0,0-.987-.987,3.547,3.547,0,1,1,0-7.094.987.987,0,0,0,.987-.987V5.478a.987.987,0,0,0-.987-.987h-4.449a5.523,5.523,0,0,0-10.852,0h-4.448a.987.987,0,0,0-.987.987v6.188a.987.987,0,0,0,.987.987,3.547,3.547,0,1,1,0,7.094.987.987,0,0,0-.987.987v6.188a.988.988,0,0,0,.987.988Zm.987-6.277a5.523,5.523,0,0,0,0-10.868v-4.3h4.351a.987.987,0,0,0,.987-.978,3.548,3.548,0,0,1,7.1,0,.988.988,0,0,0,.987.978h4.352v4.3a5.523,5.523,0,0,0,0,10.868v4.3h-4.352a.987.987,0,0,0-.987.987,3.548,3.548,0,0,1-7.1,0,.987.987,0,0,0-.987-.987h-4.351Z" transform="translate(-157.939 0)"/>
        </g>
      </g>
    </g>
  </g>
</svg>
