<svg xmlns="http://www.w3.org/2000/svg" xmlns:xlink="http://www.w3.org/1999/xlink" width="108" height="108" viewBox="0 0 108 108">
  <defs>
    <filter id="Path_904820" x="0" y="0" width="108" height="108" filterUnits="userSpaceOnUse">
      <feOffset dy="3" input="SourceAlpha"/>
      <feGaussianBlur stdDeviation="3" result="blur"/>
      <feFlood flood-opacity="0.161"/>
      <feComposite operator="in" in2="blur"/>
      <feComposite in="SourceGraphic"/>
    </filter>
  </defs>
  <g id="Group_1208537" data-name="Group 1208537" transform="translate(-200.522 -538.684)">
    <g id="Group_1208482" data-name="Group 1208482">
      <g id="Group_1207936" data-name="Group 1207936" transform="translate(209.522 544.684)">
        <g id="Group_1201662" data-name="Group 1201662" transform="translate(0 0)">
          <g id="Group_1173585" data-name="Group 1173585">
            <g id="Group_1173428" data-name="Group 1173428">
              <g id="Group_1171958" data-name="Group 1171958">
                <g id="Group_1167341" data-name="Group 1167341">
                  <g id="Group_1166792" data-name="Group 1166792">
                    <g transform="matrix(1, 0, 0, 1, -9, -6)" filter="url(#Path_904820)">
                      <g id="Path_904820-2" data-name="Path 904820" transform="translate(9 6)" fill="#fdfbec">
                        <path d="M 44.99999618530273 88.49999237060547 C 39.12687301635742 88.49999237060547 33.43022155761719 87.35006713867188 28.06829643249512 85.08216857910156 C 22.88852119445801 82.89130401611328 18.23629570007324 79.75457763671875 14.24084663391113 75.75914001464844 C 10.24540901184082 71.76369476318359 7.108683586120605 67.11146545410156 4.917821407318115 61.93169403076172 C 2.649921178817749 56.56976699829102 1.499996185302734 50.87311553955078 1.499996185302734 44.99999237060547 C 1.499996185302734 39.12686920166016 2.649921178817749 33.43021774291992 4.917821407318115 28.06829261779785 C 7.108683586120605 22.88851737976074 10.24540901184082 18.23630523681641 14.24084663391113 14.24085521697998 C 18.23629570007324 10.24540519714355 22.88852119445801 7.108692169189453 28.06829643249512 4.917829990386963 C 33.43022155761719 2.649929761886597 39.12687301635742 1.500004887580872 44.99999618530273 1.500004887580872 C 50.87311935424805 1.500004887580872 56.56977081298828 2.649929761886597 61.93169784545898 4.917829990386963 C 67.11147308349609 7.108692169189453 71.76369476318359 10.24540519714355 75.75914764404297 14.24085521697998 C 79.75458526611328 18.23630523681641 82.89131164550781 22.88851737976074 85.08216857910156 28.06829261779785 C 87.35007476806641 33.43021774291992 88.5 39.12686920166016 88.5 44.99999237060547 C 88.5 50.87311553955078 87.35007476806641 56.56976699829102 85.08216857910156 61.93169403076172 C 82.89131164550781 67.11146545410156 79.75458526611328 71.76369476318359 75.75914764404297 75.75914001464844 C 71.76369476318359 79.75457763671875 67.11147308349609 82.89130401611328 61.93169784545898 85.08216857910156 C 56.56977081298828 87.35006713867188 50.87311935424805 88.49999237060547 44.99999618530273 88.49999237060547 Z" stroke="none"/>
                        <path d="M 44.99999618530273 2.999992370605469 C 39.32870864868164 2.999992370605469 33.82865142822266 4.11004638671875 28.65262603759766 6.299331665039062 C 23.65165710449219 8.414566040039062 19.15968322753906 11.44333648681641 15.301513671875 15.30150604248047 C 11.44333648681641 19.15967559814453 8.414566040039062 23.65164947509766 6.299339294433594 28.65262222290039 C 4.110054016113281 33.82864761352539 2.999992370605469 39.32870483398438 2.999992370605469 44.99999237060547 C 2.999992370605469 50.67127990722656 4.110054016113281 56.17132186889648 6.299339294433594 61.34736633300781 C 8.414566040039062 66.34833526611328 11.44333648681641 70.84029388427734 15.301513671875 74.69846343994141 C 19.15968322753906 78.55663299560547 23.65165710449219 81.58540344238281 28.65262603759766 83.70063781738281 C 33.82865142822266 85.88992309570312 39.32870864868164 86.99997711181641 44.99999618530273 86.99997711181641 C 50.67128372192383 86.99997711181641 56.17134094238281 85.88992309570312 61.34736633300781 83.70063781738281 C 66.34834289550781 81.58540344238281 70.84030914306641 78.55663299560547 74.69847869873047 74.69846343994141 C 78.55665588378906 70.84029388427734 81.58542633056641 66.34833526611328 83.70065307617188 61.34736633300781 C 85.88993835449219 56.17132186889648 87 50.67127990722656 87 44.99999237060547 C 87 39.32870483398438 85.88993835449219 33.82864761352539 83.70065307617188 28.65262222290039 C 81.58542633056641 23.65164947509766 78.55665588378906 19.15967559814453 74.69847869873047 15.30150604248047 C 70.84030914306641 11.44333648681641 66.34834289550781 8.414566040039062 61.34736633300781 6.299331665039062 C 56.17134094238281 4.11004638671875 50.67128372192383 2.999992370605469 44.99999618530273 2.999992370605469 M 44.99999618530273 -7.62939453125e-06 C 69.85281372070312 -7.62939453125e-06 90 20.14717864990234 90 44.99999237060547 C 90 69.85279083251953 69.85281372070312 89.99997711181641 44.99999618530273 89.99997711181641 C 20.14717864990234 89.99997711181641 -7.62939453125e-06 69.85279083251953 -7.62939453125e-06 44.99999237060547 C -7.62939453125e-06 20.14717864990234 20.14717864990234 -7.62939453125e-06 44.99999618530273 -7.62939453125e-06 Z" stroke="none" fill="#83793c"/>
                      </g>
                    </g>
                  </g>
                </g>
              </g>
            </g>
          </g>
        </g>
      </g>
      <g id="yoga_7803739" transform="translate(219.706 554.83)">
        <g id="Group_1208480" data-name="Group 1208480" transform="translate(7.479 7.52)">
          <path id="Path_1053082" data-name="Path 1053082" d="M49.783,399.732H35.242a1.618,1.618,0,0,1-1.657-1.391l0-.015a3.636,3.636,0,0,0-3.451-3.014,4.362,4.362,0,0,0-1.378.106,1.216,1.216,0,0,1-1.389-.615,6.045,6.045,0,0,0-5.58-3.325,6.065,6.065,0,0,0-5.534,3.228,1.39,1.39,0,0,1-1.552.686c-2.4-.511-4.626,1.072-4.727,3.12a1.74,1.74,0,0,1-1.165,1.493c-2.29.912-1.412,3.9,1.053,3.9H49.84a2.233,2.233,0,0,0,2.375-2.162A2.3,2.3,0,0,0,49.783,399.732Z" transform="translate(-7.479 -349.236)" fill="#7dce5c"/>
          <path id="Path_1053083" data-name="Path 1053083" d="M261.495,73.8l-5.022-2.9,10.218-17.7a2.9,2.9,0,0,1,3.961-1.061h0a2.9,2.9,0,0,1,1.061,3.961Z" transform="translate(-229.079 -46.886)" fill="#ffcbbe"/>
          <path id="Path_1053084" data-name="Path 1053084" d="M156.832,242.216h0a2.9,2.9,0,0,1-2.058-3.546l5.245-19.75,5.6,1.488-5.245,19.75A2.9,2.9,0,0,1,156.832,242.216Z" transform="translate(-138.482 -195.661)" fill="#ffcbbe"/>
          <path id="Path_1053085" data-name="Path 1053085" d="M296.4,258.409a3.314,3.314,0,0,1-6.367,1.292l-2.411-5.706-2.126-5.03a1.254,1.254,0,0,0-2-.5q-.363.319-.734.605a13.97,13.97,0,0,1-1.581,1.065,8.934,8.934,0,0,1-.982-.085c-2.335-.314-7.92-1.782-6.5-8.662a15.665,15.665,0,0,1,1.887-2.544c4.747-5.224,11.451-5.921,12.6-1.013a11.925,11.925,0,0,0,.607,1.922C296.6,258.211,296.4,257.455,296.4,258.409Z" transform="translate(-244.207 -209.534)" fill="#7fb0e4"/>
          <path id="Path_1053086" data-name="Path 1053086" d="M232.343,305.758a11.534,11.534,0,0,1-2.2.991,1.24,1.24,0,0,0-.7.583l-4.634,8.385a3.314,3.314,0,0,1-5.8-3.206l.074-.134,4.418-7.994c-.712-1.986-.206-4.734,1.359-7.371a25.313,25.313,0,0,0,7.017,8.384C232.029,305.517,232.184,305.638,232.343,305.758Z" transform="translate(-195.366 -265.161)" fill="#4f96d9"/>
          <path id="Path_1053087" data-name="Path 1053087" d="M253.17,145.45l-7.392,7.392s-15.254-2-6.559-19.426l.958-.745,1.437.821,2.535-4.391a1.1,1.1,0,0,1,1.514-.4l3.759,2.23a1.1,1.1,0,0,1,.392,1.5l-1.911,3.311a1.16,1.16,0,0,0,.429,1.589l4.062,2.323A3.679,3.679,0,0,1,253.17,145.45Z" transform="translate(-211.338 -115.235)" fill="#a4e7ff"/>
          <path id="Path_1053088" data-name="Path 1053088" d="M185.556,192.2l-.571.571a4.627,4.627,0,0,1-6.546,0l-.952-1.32a1.161,1.161,0,0,0-2.064.38l-.019.073a1.1,1.1,0,0,1-1.359.777l-4.368-1.216a1.1,1.1,0,0,1-.768-1.342l2.054-7.734-1.553-2.157,2.68-2.085,1.46-1.135L179,172.771A24.024,24.024,0,0,0,185.556,192.2Z" transform="translate(-151.116 -154.59)" fill="#5ad6ff"/>
          <path id="Path_1053089" data-name="Path 1053089" d="M253.481,213.443a4.14,4.14,0,0,1-1.369.909s-5.015-2.378-1.659-7.98a4.143,4.143,0,0,1,3.028,7.071Z" transform="translate(-222.692 -184.493)" fill="#ffcbbe"/>
          <path id="Path_1053090" data-name="Path 1053090" d="M228.756,214.361a4.143,4.143,0,1,1-1.659-7.98A24.208,24.208,0,0,0,228.756,214.361Z" transform="translate(-199.336 -184.502)" fill="#ffbbae"/>
          <circle id="Ellipse_13505" data-name="Ellipse 13505" cx="4.036" cy="4.036" r="4.036" transform="translate(23.164 5.757) rotate(-6.321)" fill="#ffcbbe"/>
          <circle id="Ellipse_13506" data-name="Ellipse 13506" cx="4.036" cy="4.036" r="4.036" transform="translate(1.115 26.098) rotate(-45)" fill="#ffddcf"/>
          <path id="Path_1053091" data-name="Path 1053091" d="M81.516,67.543a14.343,14.343,0,0,1-7.171,3.081C51.971,66.354,66,45.271,66.123,45.088h0A13.794,13.794,0,0,1,83.91,48.078a13.267,13.267,0,0,1,2.436,4.7A14.093,14.093,0,0,1,81.516,67.543Z" transform="translate(-55.706 -39.184)" fill="#ffddcf"/>
          <path id="Path_1053092" data-name="Path 1053092" d="M53.038,86.708a13.8,13.8,0,0,1-8.285-1.489,13.254,13.254,0,0,1-4.074-3.374A13.871,13.871,0,0,1,43.074,62.38a14.624,14.624,0,0,1,1.744-1.209C42.742,69.279,41.967,81.278,53.038,86.708Z" transform="translate(-34.4 -55.268)" fill="#ffcbbe"/>
          <path id="Path_1053093" data-name="Path 1053093" d="M88.6,13.795a17.09,17.09,0,0,1-8.114,1.351,2.254,2.254,0,0,0-2.25,1.545,28.793,28.793,0,0,1-4.621,8.463C67.15,16.439,76.572,7.719,76.572,7.719a12.143,12.143,0,0,1,5.876.419,11.5,11.5,0,0,1,6.6,3.965A1.116,1.116,0,0,1,88.6,13.795Z" transform="translate(-64.322 -7.52)" fill="#6b7d8e"/>
          <path id="Path_1053094" data-name="Path 1053094" d="M18.053,26.765a37.689,37.689,0,0,1-4.66,5,1.116,1.116,0,0,1-1.567-.072C6.9,26.316,8.49,17.672,14.606,12.739c.051-.041.1-.078.151-.121a13.108,13.108,0,0,1,6.251-3.287C19.608,12.939,17.363,20,18.053,26.765Z" transform="translate(-8.758 -9.132)" fill="#546370"/>
          <ellipse id="Ellipse_13507" data-name="Ellipse 13507" cx="2.974" cy="2.368" rx="2.974" ry="2.368" transform="matrix(0.778, -0.628, 0.628, 0.778, 8.056, 24.177)" fill="#ffa1ac"/>
          <ellipse id="Ellipse_13508" data-name="Ellipse 13508" cx="2.974" cy="2.368" rx="2.974" ry="2.368" transform="matrix(0.778, -0.628, 0.628, 0.778, 20.603, 14.057)" fill="#ffa1ac"/>
          <ellipse id="Ellipse_13509" data-name="Ellipse 13509" cx="1.186" cy="1.265" rx="1.186" ry="1.265" transform="matrix(0.778, -0.628, 0.628, 0.778, 15.788, 18.077)" fill="#333941"/>
          <path id="Path_1053095" data-name="Path 1053095" d="M169.389,415.4a2.047,2.047,0,0,1-2.062,1.944H130.038a2.049,2.049,0,0,1-2.066-1.947,2.114,2.114,0,0,1,2.013-2.195h18.049c.748,0,1.362-.889,1.427-1.634,0-.012,0-.023,0-.035a3.242,3.242,0,0,1,4.832-2.5,5.041,5.041,0,0,1,8.535-.19,3.241,3.241,0,0,1,4.437,2.683,9.144,9.144,0,0,1,0,1.071.864.864,0,0,0,.575.9A1.992,1.992,0,0,1,169.389,415.4Z" transform="translate(-114.714 -362.675)" fill="#bbe5a7"/>
          <path id="Path_1053096" data-name="Path 1053096" d="M146.652,470.913H130.038a2.049,2.049,0,0,1-2.066-1.947,2.114,2.114,0,0,1,2.013-2.195h16.2A4.677,4.677,0,0,0,146.652,470.913Z" transform="translate(-114.714 -416.244)" fill="#9cda82"/>
        </g>
        <g id="Group_1208481" data-name="Group 1208481" transform="translate(7.481 7.52)">
          <path id="Path_1053097" data-name="Path 1053097" d="M275.381,466.491h4.083" transform="translate(-245.909 -415.995)" fill="none" stroke="#000" stroke-linecap="round" stroke-linejoin="round" stroke-miterlimit="10" stroke-width="1"/>
          <path id="Path_1053098" data-name="Path 1053098" d="M49.858,403.907H9.878A2.252,2.252,0,0,1,7.5,401.891a1.881,1.881,0,0,1,1.322-1.885,1.739,1.739,0,0,0,1.165-1.492c0-.064.008-.127.015-.191a3.638,3.638,0,0,1,3.459-3.009,4.355,4.355,0,0,1,1.252.08,1.39,1.39,0,0,0,1.552-.687,6.064,6.064,0,0,1,5.534-3.227,6.732,6.732,0,0,1,1.955.287" transform="translate(-7.502 -349.238)" fill="none" stroke="#000" stroke-linecap="round" stroke-linejoin="round" stroke-miterlimit="10" stroke-width="1"/>
          <path id="Path_1053099" data-name="Path 1053099" d="M194.361,426.282a1.3,1.3,0,0,0,.712.031,4.3,4.3,0,0,1,.852-.118,4.466,4.466,0,0,1,.527.011,4.134,4.134,0,0,1,1.474.4" transform="translate(-173.803 -380.129)" fill="none" stroke="#000" stroke-linecap="round" stroke-linejoin="round" stroke-miterlimit="10" stroke-width="1"/>
          <path id="Path_1053100" data-name="Path 1053100" d="M311.061,60.223l4.052-7.019a2.9,2.9,0,1,1,5.021,2.9l-4.076,7.059" transform="translate(-277.663 -46.888)" fill="none" stroke="#000" stroke-linecap="round" stroke-linejoin="round" stroke-miterlimit="10" stroke-width="1"/>
          <path id="Path_1053101" data-name="Path 1053101" d="M155.041,339.461l-1.723,6.488a2.9,2.9,0,1,0,5.6,1.489l1.71-6.438" transform="translate(-137.188 -302.941)" fill="none" stroke="#000" stroke-linecap="round" stroke-linejoin="round" stroke-miterlimit="10" stroke-width="1"/>
          <path id="Path_1053102" data-name="Path 1053102" d="M288.963,363.864l-1.929-4.566a1.254,1.254,0,0,0-1.978-.461,13.485,13.485,0,0,1-3.852,2.42c-.222.089-.444.169-.665.241a1.237,1.237,0,0,0-.7.583l-4.6,8.325-.018.031" transform="translate(-245.766 -319.91)" fill="none" stroke="#000" stroke-linecap="round" stroke-linejoin="round" stroke-miterlimit="10" stroke-width="1"/>
          <path id="Path_1053103" data-name="Path 1053103" d="M223.394,360.681h0c.033.125.072.246.114.365L219.5,368.3l-.484.875a3.309,3.309,0,0,0-.014,3.177" transform="translate(-195.377 -321.826)" fill="none" stroke="#000" stroke-linecap="round" stroke-linejoin="round" stroke-miterlimit="10" stroke-width="1"/>
          <line id="Line_879" data-name="Line 879" x2="2.734" y2="6.471" transform="translate(48.91 40.446)" fill="none" stroke="#000" stroke-linecap="round" stroke-linejoin="round" stroke-miterlimit="10" stroke-width="1"/>
          <path id="Path_1053104" data-name="Path 1053104" d="M390.991,240.791a3.9,3.9,0,0,1,.525.4,4.268,4.268,0,0,1,1.263,2.227,11.716,11.716,0,0,0,.607,1.922l2.979,7.05" transform="translate(-348.799 -215.127)" fill="none" stroke="#000" stroke-linecap="round" stroke-linejoin="round" stroke-miterlimit="10" stroke-width="1"/>
          <path id="Path_1053105" data-name="Path 1053105" d="M180.8,131.987l1.666-2.886a1.1,1.1,0,0,1,1.514-.4l3.76,2.23a1.1,1.1,0,0,1,.391,1.5l-1.911,3.31a1.16,1.16,0,0,0,.429,1.589l4.063,2.323a3.679,3.679,0,0,1,.776,5.8l-7.963,7.963a4.627,4.627,0,0,1-6.546,0l-.951-1.32a1.162,1.162,0,0,0-2.065.38l-.019.073a1.1,1.1,0,0,1-1.359.777l-4.367-1.216a1.1,1.1,0,0,1-.769-1.342l1.095-4.124" transform="translate(-149.822 -115.235)" fill="none" stroke="#000" stroke-linecap="round" stroke-linejoin="round" stroke-miterlimit="10" stroke-width="1"/>
          <path id="Path_1053106" data-name="Path 1053106" d="M238.149,212.521a4.211,4.211,0,0,1,.66.537,4.142,4.142,0,0,1-5.818,5.9" transform="translate(-208.182 -189.967)" fill="none" stroke="#000" stroke-linecap="round" stroke-linejoin="round" stroke-miterlimit="10" stroke-width="1"/>
          <path id="Path_1053107" data-name="Path 1053107" d="M239.753,62.692a4.036,4.036,0,0,0-5.082-6.268" transform="translate(-209.678 -50.295)" fill="none" stroke="#000" stroke-linecap="round" stroke-linejoin="round" stroke-miterlimit="10" stroke-width="1"/>
          <path id="Path_1053108" data-name="Path 1053108" d="M37.84,222.974a4.036,4.036,0,0,1-5.05-6.293" transform="translate(-28.73 -193.669)" fill="none" stroke="#000" stroke-linecap="round" stroke-linejoin="round" stroke-miterlimit="10" stroke-width="1"/>
          <path id="Path_1053109" data-name="Path 1053109" d="M65.035,61.791a13.3,13.3,0,0,1,5.73,7.619A14.262,14.262,0,0,1,50.479,85.771a13.317,13.317,0,0,1-6.138-6.954" transform="translate(-40.288 -55.82)" fill="none" stroke="#000" stroke-linecap="round" stroke-linejoin="round" stroke-miterlimit="10" stroke-width="1"/>
          <path id="Path_1053110" data-name="Path 1053110" d="M75.1,9.74a11.525,11.525,0,0,1,10.526-1.6,11.65,11.65,0,0,1,6.412,3.73" transform="translate(-67.664 -7.52)" fill="none" stroke="#000" stroke-linecap="round" stroke-linejoin="round" stroke-miterlimit="10" stroke-width="1"/>
          <path id="Path_1053111" data-name="Path 1053111" d="M31.875,47.05l.01.013a1.311,1.311,0,0,1-.52,2.022A17.2,17.2,0,0,1,23.5,50.327a2.254,2.254,0,0,0-2.25,1.544,32.624,32.624,0,0,1-9.129,13.321,1.316,1.316,0,0,1-1.873-.105q-.153-.174-.3-.355c-4.024-4.989-2.968-12.606,2.239-17.553" transform="translate(-7.5 -42.701)" fill="none" stroke="#000" stroke-linecap="round" stroke-linejoin="round" stroke-miterlimit="10" stroke-width="1"/>
          <path id="Path_1053112" data-name="Path 1053112" d="M97.561,188.462a2.034,2.034,0,0,0,2.389-1.927" transform="translate(-87.653 -166.84)" fill="none" stroke="#000" stroke-linecap="round" stroke-linejoin="round" stroke-miterlimit="10" stroke-width="1"/>
          <path id="Path_1053113" data-name="Path 1053113" d="M189.469,114.335a2.034,2.034,0,0,1-2.389,1.927" transform="translate(-167.323 -102.583)" fill="none" stroke="#000" stroke-linecap="round" stroke-linejoin="round" stroke-miterlimit="10" stroke-width="1"/>
          <path id="Path_1053114" data-name="Path 1053114" d="M167.844,413.5a.864.864,0,0,1-.576-.9,8.991,8.991,0,0,0,0-1.07,3.241,3.241,0,0,0-4.437-2.683,5.04,5.04,0,0,0-8.535.19,3.242,3.242,0,0,0-4.832,2.5l0,.034c-.065.745-.678,1.634-1.427,1.634H129.986a2.114,2.114,0,0,0-2.014,2.2,2.049,2.049,0,0,0,2.066,1.947h37.289a2.046,2.046,0,0,0,2.062-1.944A1.99,1.99,0,0,0,167.844,413.5Z" transform="translate(-114.717 -362.674)" fill="none" stroke="#000" stroke-linecap="round" stroke-linejoin="round" stroke-miterlimit="10" stroke-width="1"/>
          <ellipse id="Ellipse_13510" data-name="Ellipse 13510" cx="1.186" cy="1.265" rx="1.186" ry="1.265" transform="matrix(0.778, -0.628, 0.628, 0.778, 15.625, 18.077)"/>
        </g>
      </g>
    </g>
  </g>
</svg>
