<svg xmlns="http://www.w3.org/2000/svg" xmlns:xlink="http://www.w3.org/1999/xlink" width="98" height="98" viewBox="0 0 98 98">
  <defs>
    <filter id="Path_982547" x="0" y="0" width="98" height="98" filterUnits="userSpaceOnUse">
      <feOffset dy="3" input="SourceAlpha"/>
      <feGaussianBlur stdDeviation="3" result="blur"/>
      <feFlood flood-opacity="0.161"/>
      <feComposite operator="in" in2="blur"/>
      <feComposite in="SourceGraphic"/>
    </filter>
    <clipPath id="clip-path">
      <path id="path8121" d="M0-682.665H48.414v48.414H0Z" transform="translate(0 682.665)"/>
    </clipPath>
  </defs>
  <g id="Group_1208515" data-name="Group 1208515" transform="translate(-821 -1920.834)">
    <g id="Group_1208423" data-name="Group 1208423">
      <g id="Group_1208170" data-name="Group 1208170" transform="translate(0 -2047.18)">
        <g id="Group_1207740" data-name="Group 1207740" transform="translate(630 1882.462)">
          <g id="Group_1207712" data-name="Group 1207712">
            <g id="Group_1207285" data-name="Group 1207285" transform="translate(0 344.552)">
              <g id="Group_1206883" data-name="Group 1206883" transform="translate(0 -209)">
                <g id="Group_1204569" data-name="Group 1204569" transform="translate(-81 -1890.336)">
                  <g id="Group_1203962" data-name="Group 1203962" transform="translate(281 3846.336)">
                    <g id="Group_1203498" data-name="Group 1203498" transform="translate(0)">
                      <g id="Group_1202589" data-name="Group 1202589">
                        <g id="Group_1172010" data-name="Group 1172010">
                          <g id="Group_1171046" data-name="Group 1171046">
                            <g id="Group_1148525" data-name="Group 1148525">
                              <g transform="matrix(1, 0, 0, 1, -9, -6)" filter="url(#Path_982547)">
                                <g id="Path_982547-2" data-name="Path 982547" transform="translate(9 6)" fill="#fdfbec">
                                  <path d="M 39.99999237060547 78.49998474121094 C 34.8018684387207 78.49998474121094 29.76002502441406 77.48226165771484 25.0145263671875 75.47508239746094 C 20.43014717102051 73.53604888916016 16.31264877319336 70.75984954833984 12.77639198303223 67.22359466552734 C 9.240137100219727 63.68733596801758 6.463936805725098 59.5698356628418 4.524903297424316 54.98546981811523 C 2.517725706100464 50.23995971679688 1.500003457069397 45.19811630249023 1.500003457069397 39.99999237060547 C 1.500003457069397 34.8018684387207 2.517725706100464 29.76002502441406 4.524903297424316 25.0145263671875 C 6.463936805725098 20.43014717102051 9.240137100219727 16.31264877319336 12.77639198303223 12.77639198303223 C 16.31264877319336 9.240137100219727 20.43014717102051 6.463936805725098 25.0145263671875 4.524903297424316 C 29.76002502441406 2.517725706100464 34.8018684387207 1.500003457069397 39.99999237060547 1.500003457069397 C 45.19811630249023 1.500003457069397 50.23995971679688 2.517725706100464 54.98546981811523 4.524903297424316 C 59.5698356628418 6.463936805725098 63.68733596801758 9.240137100219727 67.22359466552734 12.77639198303223 C 70.75984954833984 16.31264877319336 73.53604888916016 20.43014717102051 75.47508239746094 25.0145263671875 C 77.48226165771484 29.76002502441406 78.49998474121094 34.8018684387207 78.49998474121094 39.99999237060547 C 78.49998474121094 45.19812393188477 77.48226165771484 50.23995971679688 75.47508239746094 54.98546981811523 C 73.53604888916016 59.5698356628418 70.75984954833984 63.68733596801758 67.22359466552734 67.22359466552734 C 63.68733596801758 70.75984954833984 59.5698356628418 73.53604888916016 54.98546981811523 75.47508239746094 C 50.23995971679688 77.48226165771484 45.19812393188477 78.49998474121094 39.99999237060547 78.49998474121094 Z" stroke="none"/>
                                  <path d="M 39.99999237060547 2.999992370605469 C 35.00370025634766 2.999992370605469 30.1584587097168 3.97784423828125 25.59884643554688 5.906402587890625 C 21.19327163696289 7.769805908203125 17.23603057861328 10.43805694580078 13.83704376220703 13.83704376220703 C 10.43805694580078 17.23603057861328 7.769805908203125 21.19327163696289 5.906402587890625 25.59884643554688 C 3.97784423828125 30.1584587097168 2.999992370605469 35.00370025634766 2.999992370605469 39.99999237060547 C 2.999992370605469 44.99628448486328 3.97784423828125 49.84152603149414 5.906402587890625 54.40113830566406 C 7.769805908203125 58.80671310424805 10.43805694580078 62.76395416259766 13.83704376220703 66.16294097900391 C 17.23603057861328 69.56191253662109 21.19327163696289 72.23016357421875 25.59884643554688 74.09356689453125 C 30.1584587097168 76.02212524414062 35.00370025634766 76.99997711181641 39.99999237060547 76.99997711181641 C 44.99628448486328 76.99997711181641 49.84152603149414 76.02212524414062 54.40113830566406 74.09356689453125 C 58.80671310424805 72.23016357421875 62.76395416259766 69.56191253662109 66.16294097900391 66.16294097900391 C 69.56191253662109 62.76395416259766 72.23016357421875 58.80671310424805 74.09356689453125 54.40113830566406 C 76.02212524414062 49.84152603149414 76.99997711181641 44.99628448486328 76.99997711181641 39.99999237060547 C 76.99997711181641 35.00370025634766 76.02212524414062 30.1584587097168 74.09356689453125 25.59884643554688 C 72.23016357421875 21.19327163696289 69.56191253662109 17.23603057861328 66.16294097900391 13.83704376220703 C 62.76395416259766 10.43805694580078 58.80671310424805 7.769805908203125 54.40113830566406 5.906402587890625 C 49.84152603149414 3.97784423828125 44.99628448486328 2.999992370605469 39.99999237060547 2.999992370605469 M 39.99999237060547 -7.62939453125e-06 C 62.09137725830078 -7.62939453125e-06 79.99997711181641 17.90860748291016 79.99997711181641 39.99999237060547 C 79.99997711181641 62.09137725830078 62.09137725830078 79.99997711181641 39.99999237060547 79.99997711181641 C 17.90860748291016 79.99997711181641 -7.62939453125e-06 62.09137725830078 -7.62939453125e-06 39.99999237060547 C -7.62939453125e-06 17.90860748291016 17.90860748291016 -7.62939453125e-06 39.99999237060547 -7.62939453125e-06 Z" stroke="none" fill="#83793c"/>
                                </g>
                              </g>
                            </g>
                          </g>
                        </g>
                      </g>
                    </g>
                  </g>
                </g>
              </g>
            </g>
            <g id="g8115" transform="translate(215.793 2790.01)">
              <g id="g8117" transform="translate(0 -682.665)">
                <g id="g8119" clip-path="url(#clip-path)">
                  <g id="g8125" transform="translate(-33.259 0.709)">
                    <path id="path8127" d="M-338.457-377.826h-25.835v-25.108c5.31-7.679,37.755-5.416,25.835,25.108" transform="translate(364.292 406.667)" fill="#fbdf63"/>
                  </g>
                  <g id="g8129" transform="translate(-33.259 0.709)">
                    <path id="path8131" d="M-338.457-377.826h-.619c6.164-24.728-15.887-30.6-25.216-24.374v-.734c5.31-7.679,37.755-5.416,25.835,25.108" transform="translate(364.292 406.667)" fill="#f9d11f"/>
                  </g>
                </g>
              </g>
              <g id="g8265" transform="translate(0 -682.665)">
                <g id="g8267" clip-path="url(#clip-path)">
                  <g id="g8273" transform="translate(-33.259 51.036)">
                    <path id="path8275" d="M-338.457-377.654h-25.835v-25.1c5.31-7.676,37.755-5.413,25.835,25.1" transform="translate(364.292 406.481)" fill="#003343"/>
                  </g>
                  <g id="g8277" transform="translate(-33.259 51.036)">
                    <path id="path8279" d="M-338.457-377.654h-.619c6.164-24.717-15.887-30.585-25.216-24.362v-.734c5.31-7.676,37.755-5.413,25.835,25.1" transform="translate(364.292 406.481)" fill="#002439"/>
                  </g>
                </g>
              </g>
              <g id="g8281" transform="translate(0 -682.665)">
                <g id="g8283" clip-path="url(#clip-path)">
                  <g id="g8289" transform="translate(17.066 51.014)">
                    <path id="path8291" d="M-338.457-377.826h-25.835v-25.108c5.31-7.679,37.755-5.416,25.835,25.108" transform="translate(364.292 406.667)" fill="#ff7e50"/>
                  </g>
                  <g id="g8293" transform="translate(17.066 51.014)">
                    <path id="path8295" d="M-338.457-377.826h-.619c6.164-24.728-15.887-30.6-25.216-24.374v-.734c5.31-7.679,37.755-5.416,25.835,25.108" transform="translate(364.292 406.667)" fill="#ff6247"/>
                  </g>
                  <g id="g8297" transform="translate(2.941 54.225)">
                    <path id="path8299" d="M-233.028-131.751v15.573h-14.6c-12.2-25.649,14.6-34.273,14.6-15.573" transform="translate(250.816 141.808)" fill="#ffa68a"/>
                  </g>
                  <g id="g8301" transform="translate(2.941 54.225)">
                    <path id="path8303" d="M-233.028-131.751c-.9-16.1-20.23-9.82-14.176,15.573h-.427c-12.2-25.649,14.6-34.273,14.6-15.573" transform="translate(250.816 141.808)" fill="#ff7e50"/>
                  </g>
                </g>
              </g>
            </g>
          </g>
        </g>
      </g>
      <g id="innovative_4443961_1_" data-name="innovative_4443961 (1)" transform="translate(843.594 1940.661)">
        <g id="Group_1208421" data-name="Group 1208421" transform="translate(9.594 0.841)">
          <g id="Group_1208407" data-name="Group 1208407" transform="translate(7.027 32.311)">
            <path id="Path_1052924" data-name="Path 1052924" d="M30.4,41.592l3.362,2.522.588-4.674a9.622,9.622,0,0,1,1.69,1.143,10.07,10.07,0,0,1,3.413,5.8l-4.489.6a7.1,7.1,0,0,0-5.4,3.858,7.012,7.012,0,0,0-5.413-3.825L20.3,46.526a.846.846,0,0,0-.53-.672,10.108,10.108,0,0,1,4.993-6.414l.588,4.674,3.362-2.522Z" transform="translate(-19.774 -39.44)" fill="#5cd6b3"/>
          </g>
          <g id="Group_1208408" data-name="Group 1208408" transform="translate(17.652 31.446)">
            <path id="Path_1052925" data-name="Path 1052925" d="M36.365,39.276l-.588,4.674-3.362-2.522,1.8-3V38.41A10.022,10.022,0,0,1,36.365,39.276Z" transform="translate(-32.414 -38.41)" fill="#48cfad"/>
          </g>
          <g id="Group_1208409" data-name="Group 1208409" transform="translate(12.02 31.454)">
            <path id="Path_1052926" data-name="Path 1052926" d="M27.866,38.428l1.8,3L26.3,43.951l-.588-4.674a9.585,9.585,0,0,1,2.152-.857Z" transform="translate(-25.714 -38.42)" fill="#48cfad"/>
          </g>
          <g id="Group_1208410" data-name="Group 1208410" transform="translate(2.522 43.71)">
            <path id="Path_1052927" data-name="Path 1052927" d="M42.993,53v3.362H31.225V57.2a2.522,2.522,0,1,1-5.043,0v-.841H14.414V53H42.993Z" transform="translate(-14.414 -53)" fill="#cf9e76"/>
          </g>
          <g id="Group_1208411" data-name="Group 1208411" transform="translate(16.811 38.666)">
            <path id="Path_1052928" data-name="Path 1052928" d="M41.307,47.588,45.7,47v5.043H31.414a7.1,7.1,0,0,1,5.4-3.858Z" transform="translate(-31.414 -47)" fill="#e6e9ed"/>
          </g>
          <g id="Group_1208412" data-name="Group 1208412" transform="translate(6.725 39.397)">
            <path id="Path_1052929" data-name="Path 1052929" d="M29.5,52.182H19.414a.843.843,0,0,0,.841-.841V47.979a.479.479,0,0,0-.008-.109l3.841.488A7.012,7.012,0,0,1,29.5,52.182Z" transform="translate(-19.414 -47.87)" fill="#e6e9ed"/>
          </g>
          <g id="Group_1208413" data-name="Group 1208413" transform="translate(4.203 38.666)">
            <path id="Path_1052930" data-name="Path 1052930" d="M16.414,48.681A1.686,1.686,0,0,1,18.1,47h.841a.721.721,0,0,1,.3.059.846.846,0,0,1,.53.672.479.479,0,0,1,.008.109V51.2a.843.843,0,0,1-.841.841H18.1a1.686,1.686,0,0,1-1.681-1.681Z" transform="translate(-16.414 -47)" fill="#f0d0b4"/>
          </g>
          <g id="Group_1208414" data-name="Group 1208414" transform="translate(14.172 31.101)">
            <path id="Path_1052931" data-name="Path 1052931" d="M33.553,38.345v.017l-1.8,3H30.073l-1.8-3v-.008A9.759,9.759,0,0,1,30.913,38,10.1,10.1,0,0,1,33.553,38.345Z" transform="translate(-28.274 -38)" fill="#f0d0b4"/>
          </g>
          <g id="Group_1208415" data-name="Group 1208415" transform="translate(28.579 14.29)">
            <path id="Path_1052932" data-name="Path 1052932" d="M47.1,18a3.362,3.362,0,1,1,0,6.725H45.414V18Z" transform="translate(-45.414 -18)" fill="#f0d0b4"/>
          </g>
          <g id="Group_1208416" data-name="Group 1208416" transform="translate(5.043 10.927)">
            <path id="Path_1052933" data-name="Path 1052933" d="M40.95,17.362v6.725A10.084,10.084,0,0,1,30.863,34.174H27.5A10.084,10.084,0,0,1,17.414,24.087V14H40.95Z" transform="translate(-17.414 -14)" fill="#f0d0b4"/>
          </g>
          <g id="Group_1208417" data-name="Group 1208417" transform="translate(0 14.29)">
            <path id="Path_1052934" data-name="Path 1052934" d="M16.457,18v6.725H14.776a3.362,3.362,0,1,1,0-6.725Z" transform="translate(-11.414 -18)" fill="#f0d0b4"/>
          </g>
          <g id="Group_1208418" data-name="Group 1208418" transform="translate(12.609 22.695)">
            <path id="Path_1052935" data-name="Path 1052935" d="M34.82,28v.841a4.2,4.2,0,0,1-8.406,0V28Z" transform="translate(-26.414 -28)" fill="#ef7385"/>
          </g>
          <g id="Group_1208419" data-name="Group 1208419" transform="translate(6.725)">
            <path id="Path_1052936" data-name="Path 1052936" d="M39.588,8.565v3.362H35.326a5.576,5.576,0,0,0,.059-.841,5.884,5.884,0,0,0-11.768,0,5.575,5.575,0,0,0,.059.841H19.414V8.565l1.345-.479A9.731,9.731,0,0,1,21.2,7.027l-.622-1.286,3.572-3.572,1.286.622A9.732,9.732,0,0,1,26.5,2.345L26.979,1h5.043L32.5,2.345a9.732,9.732,0,0,1,1.059.446l1.286-.622,3.572,3.572L37.8,7.027a9.73,9.73,0,0,1,.446,1.059Z" transform="translate(-19.414 -1)" fill="#ffc729"/>
          </g>
          <g id="Group_1208420" data-name="Group 1208420" transform="translate(10.927 4.203)">
            <path id="Path_1052937" data-name="Path 1052937" d="M36.182,11.884a5.575,5.575,0,0,1-.059.841H32.677a2.522,2.522,0,1,0-4.758,0H24.473a5.575,5.575,0,0,1-.059-.841,5.884,5.884,0,0,1,11.768,0Z" transform="translate(-24.414 -6)" fill="#fcd770"/>
          </g>
        </g>
        <g id="Group_1208422" data-name="Group 1208422" transform="translate(0 0)">
          <path id="Path_1052938" data-name="Path 1052938" d="M33.582,41.556,43.3,40.341l-.208-1.668-4.467.558A10.907,10.907,0,0,0,33,32.288,10.947,10.947,0,0,0,40.633,22.7h.883a4.2,4.2,0,1,0,0-8.406h-.841V10.928H39V7.811L37.46,7.268q-.078-.2-.165-.4L38,5.4,33.592,1l-1.47.7c-.13-.058-.263-.113-.4-.165L31.183,0H24.949l-.541,1.535q-.2.078-.4.165L22.542,1,18.136,5.4l.7,1.469c-.058.132-.113.264-.165.4l-1.535.542v3.115H15.458V14.29h-.841a4.2,4.2,0,1,0,0,8.406H15.5a10.946,10.946,0,0,0,7.626,9.59,10.884,10.884,0,0,0-5.453,6.381H17.14a2.525,2.525,0,0,0-2.522,2.522v1.681a2.493,2.493,0,0,0,.155.841H12.938v5.043H24.705a3.362,3.362,0,1,0,6.725,0H43.2V43.71H29.623a6.155,6.155,0,0,1,3.959-2.154ZM25.037,33.29l1.078,1.8-1.6,1.2-.331-2.649a8.818,8.818,0,0,1,.85-.346ZM27.7,34.463l-.949-1.581a8.6,8.6,0,0,1,2.626,0l-.947,1.579ZM31.092,33.3c.291.1.577.212.853.34l-.331,2.649-1.6-1.2ZM41.515,15.971a2.522,2.522,0,1,1,0,5.043h-.841V15.971ZM18.82,9l1.171-.413.131-.385a8.271,8.271,0,0,1,.4-.963l.18-.366-.537-1.121,2.725-2.725,1.122.536.366-.18a8.189,8.189,0,0,1,.963-.4l.385-.132.412-1.17h3.853l.413,1.17.385.132a8.189,8.189,0,0,1,.963.4l.366.18,1.122-.536,2.725,2.725L35.43,6.874l.18.366a8.272,8.272,0,0,1,.4.963l.131.385L37.313,9v1.927H34.791a6.725,6.725,0,0,0-13.449,0H18.821V9Zm7.565,1.927a1.681,1.681,0,1,1,3.362,0Zm1.681-3.362A3.366,3.366,0,0,0,24.7,10.927H23.023a5.043,5.043,0,0,1,10.087,0H31.428A3.366,3.366,0,0,0,28.066,7.565ZM12.1,18.493a2.525,2.525,0,0,1,2.522-2.522h.841v5.043h-.841A2.525,2.525,0,0,1,12.1,18.493ZM26.385,31.1a9.257,9.257,0,0,1-9.246-9.246V12.609H38.993v9.246A9.257,9.257,0,0,1,29.747,31.1Zm-3.776,3.465.6,4.8,4.3-3.223h1.122l4.3,3.223.6-4.8a9.212,9.212,0,0,1,3.42,4.87l-3.57.446a7.83,7.83,0,0,0-5.307,3.1,7.837,7.837,0,0,0-5.307-3.1l-3.354-.419a1.661,1.661,0,0,0-.156-.21,9.2,9.2,0,0,1,3.359-4.692ZM19.66,41.194l2.89.361a6.164,6.164,0,0,1,3.96,2.154H19.66V41.194ZM16.3,42.869V41.188a.841.841,0,0,1,.841-.841h.841V43.71h-.841A.841.841,0,0,1,16.3,42.869Zm25.217,4.2H29.747v1.681a1.681,1.681,0,1,1-3.362,0V47.072H14.617V45.391h26.9Z" transform="translate(-1.66 0)"/>
          <path id="Path_1052939" data-name="Path 1052939" d="M57.052,50.293l-1.189,1.189,1.927,1.927H51.414V55.09h6.377l-1.927,1.927,1.189,1.189,3.957-3.957Z" transform="translate(-8.197 -8.018)"/>
          <path id="Path_1052940" data-name="Path 1052940" d="M5.145,51.482,3.957,50.293,0,54.25l3.957,3.957,1.189-1.189L3.218,55.09H9.594V53.409H3.218Z" transform="translate(0 -8.018)"/>
          <path id="Path_1052941" data-name="Path 1052941" d="M35.5,28.681V27H25.414v1.681a5.043,5.043,0,0,0,10.087,0Zm-5.043,3.362A3.366,3.366,0,0,1,27.1,28.681H33.82A3.366,3.366,0,0,1,30.457,32.043Z" transform="translate(-4.052 -4.305)"/>
          <path id="Path_1052942" data-name="Path 1052942" d="M26.457,21.362h1.681a3.362,3.362,0,0,0-6.725,0H23.1a1.681,1.681,0,0,1,3.362,0Z" transform="translate(-3.414 -2.87)"/>
          <path id="Path_1052943" data-name="Path 1052943" d="M36.776,19.681a1.683,1.683,0,0,1,1.681,1.681h1.681a3.362,3.362,0,0,0-6.725,0H35.1A1.683,1.683,0,0,1,36.776,19.681Z" transform="translate(-5.327 -2.87)"/>
          <path id="Path_1052944" data-name="Path 1052944" d="M60.182,31.855V30.174H51.776a.841.841,0,1,1,0-1.681H56.82a2.522,2.522,0,0,0,0-5.043h-.841a.841.841,0,1,1,0-1.681H57.66a2.522,2.522,0,1,0,0-5.043H56.82a.841.841,0,1,1,0-1.681h.841a2.522,2.522,0,0,0,0-5.043H48.414v1.681H57.66a.841.841,0,0,1,0,1.681H56.82a2.522,2.522,0,0,0,0,5.043h.841a.841.841,0,1,1,0,1.681H55.979a2.522,2.522,0,1,0,0,5.043h.841a.841.841,0,0,1,0,1.681H51.776a2.522,2.522,0,1,0,0,5.043Z" transform="translate(-7.719 -1.594)"/>
          <path id="Path_1052945" data-name="Path 1052945" d="M8.82,26.811H3.776a.841.841,0,0,1,0-1.681h.841a2.522,2.522,0,1,0,0-5.043H2.936a.841.841,0,0,1,0-1.681h.841a2.522,2.522,0,0,0,0-5.043H2.936a.841.841,0,0,1,0-1.681h9.246V10H2.936a2.522,2.522,0,0,0,0,5.043h.841a.841.841,0,0,1,0,1.681H2.936a2.522,2.522,0,1,0,0,5.043H4.617a.841.841,0,0,1,0,1.681H3.776a2.522,2.522,0,0,0,0,5.043H8.82a.841.841,0,0,1,0,1.681H.414v1.681H8.82a2.522,2.522,0,0,0,0-5.043Z" transform="translate(-0.066 -1.594)"/>
        </g>
      </g>
    </g>
  </g>
</svg>
