<svg xmlns="http://www.w3.org/2000/svg" xmlns:xlink="http://www.w3.org/1999/xlink" width="108" height="108" viewBox="0 0 108 108">
  <defs>
    <filter id="Path_904820" x="0" y="0" width="108" height="108" filterUnits="userSpaceOnUse">
      <feOffset dy="3" input="SourceAlpha"/>
      <feGaussianBlur stdDeviation="3" result="blur"/>
      <feFlood flood-opacity="0.161"/>
      <feComposite operator="in" in2="blur"/>
      <feComposite in="SourceGraphic"/>
    </filter>
  </defs>
  <g id="Group_1208507" data-name="Group 1208507" transform="translate(-200.522 -490.892)">
    <g id="Group_1208347" data-name="Group 1208347">
      <g id="Group_1207936" data-name="Group 1207936" transform="translate(209.522 496.892)">
        <g id="Group_1201662" data-name="Group 1201662" transform="translate(0 0)">
          <g id="Group_1173585" data-name="Group 1173585">
            <g id="Group_1173428" data-name="Group 1173428">
              <g id="Group_1171958" data-name="Group 1171958">
                <g id="Group_1167341" data-name="Group 1167341">
                  <g id="Group_1166792" data-name="Group 1166792">
                    <g transform="matrix(1, 0, 0, 1, -9, -6)" filter="url(#Path_904820)">
                      <g id="Path_904820-2" data-name="Path 904820" transform="translate(9 6)" fill="#effbfe">
                        <path d="M 44.99999618530273 88.49999237060547 C 39.12687301635742 88.49999237060547 33.43022155761719 87.35006713867188 28.06829643249512 85.08216857910156 C 22.88852119445801 82.89130401611328 18.23629570007324 79.75457763671875 14.24084663391113 75.75914001464844 C 10.24540901184082 71.76369476318359 7.108683586120605 67.11146545410156 4.917821407318115 61.93169403076172 C 2.649921178817749 56.56976699829102 1.499996185302734 50.87311553955078 1.499996185302734 44.99999237060547 C 1.499996185302734 39.12686920166016 2.649921178817749 33.43021774291992 4.917821407318115 28.06829261779785 C 7.108683586120605 22.88851737976074 10.24540901184082 18.23630523681641 14.24084663391113 14.24085521697998 C 18.23629570007324 10.24540519714355 22.88852119445801 7.108692169189453 28.06829643249512 4.917829990386963 C 33.43022155761719 2.649929761886597 39.12687301635742 1.500004887580872 44.99999618530273 1.500004887580872 C 50.87311935424805 1.500004887580872 56.56977081298828 2.649929761886597 61.93169784545898 4.917829990386963 C 67.11147308349609 7.108692169189453 71.76369476318359 10.24540519714355 75.75914764404297 14.24085521697998 C 79.75458526611328 18.23630523681641 82.89131164550781 22.88851737976074 85.08216857910156 28.06829261779785 C 87.35007476806641 33.43021774291992 88.5 39.12686920166016 88.5 44.99999237060547 C 88.5 50.87311553955078 87.35007476806641 56.56976699829102 85.08216857910156 61.93169403076172 C 82.89131164550781 67.11146545410156 79.75458526611328 71.76369476318359 75.75914764404297 75.75914001464844 C 71.76369476318359 79.75457763671875 67.11147308349609 82.89130401611328 61.93169784545898 85.08216857910156 C 56.56977081298828 87.35006713867188 50.87311935424805 88.49999237060547 44.99999618530273 88.49999237060547 Z" stroke="none"/>
                        <path d="M 44.99999618530273 2.999992370605469 C 39.32870864868164 2.999992370605469 33.82865142822266 4.11004638671875 28.65262603759766 6.299331665039062 C 23.65165710449219 8.414566040039062 19.15968322753906 11.44333648681641 15.301513671875 15.30150604248047 C 11.44333648681641 19.15967559814453 8.414566040039062 23.65164947509766 6.299339294433594 28.65262222290039 C 4.110054016113281 33.82864761352539 2.999992370605469 39.32870483398438 2.999992370605469 44.99999237060547 C 2.999992370605469 50.67127990722656 4.110054016113281 56.17132186889648 6.299339294433594 61.34736633300781 C 8.414566040039062 66.34833526611328 11.44333648681641 70.84029388427734 15.301513671875 74.69846343994141 C 19.15968322753906 78.55663299560547 23.65165710449219 81.58540344238281 28.65262603759766 83.70063781738281 C 33.82865142822266 85.88992309570312 39.32870864868164 86.99997711181641 44.99999618530273 86.99997711181641 C 50.67128372192383 86.99997711181641 56.17134094238281 85.88992309570312 61.34736633300781 83.70063781738281 C 66.34834289550781 81.58540344238281 70.84030914306641 78.55663299560547 74.69847869873047 74.69846343994141 C 78.55665588378906 70.84029388427734 81.58542633056641 66.34833526611328 83.70065307617188 61.34736633300781 C 85.88993835449219 56.17132186889648 87 50.67127990722656 87 44.99999237060547 C 87 39.32870483398438 85.88993835449219 33.82864761352539 83.70065307617188 28.65262222290039 C 81.58542633056641 23.65164947509766 78.55665588378906 19.15967559814453 74.69847869873047 15.30150604248047 C 70.84030914306641 11.44333648681641 66.34834289550781 8.414566040039062 61.34736633300781 6.299331665039062 C 56.17134094238281 4.11004638671875 50.67128372192383 2.999992370605469 44.99999618530273 2.999992370605469 M 44.99999618530273 -7.62939453125e-06 C 69.85281372070312 -7.62939453125e-06 90 20.14717864990234 90 44.99999237060547 C 90 69.85279083251953 69.85281372070312 89.99997711181641 44.99999618530273 89.99997711181641 C 20.14717864990234 89.99997711181641 -7.62939453125e-06 69.85279083251953 -7.62939453125e-06 44.99999237060547 C -7.62939453125e-06 20.14717864990234 20.14717864990234 -7.62939453125e-06 44.99999618530273 -7.62939453125e-06 Z" stroke="none" fill="#497f88"/>
                      </g>
                    </g>
                  </g>
                </g>
              </g>
            </g>
          </g>
        </g>
      </g>
      <g id="hula-hoop_5146970" transform="translate(223 510)">
        <path id="Path_1052768" data-name="Path 1052768" d="M38,37l3,21a3,3,0,0,1,3,3v1H36L31,43,26,62H18V61a3,3,0,0,1,3-3l3-21" fill="#19529d"/>
        <path id="Path_1052769" data-name="Path 1052769" d="M41,58,38,37H27L24,58a3,3,0,0,0-3,3v1h5l5-19,5,19h8V61A3,3,0,0,0,41,58Z" fill="#2769b3"/>
        <path id="Path_1052770" data-name="Path 1052770" d="M28,16l-8,2L9.777,16.3A21.778,21.778,0,0,0,6.2,16a2.2,2.2,0,0,0-.431,4.353L24,24V37H38V24l18.233-3.647A2.2,2.2,0,0,0,55.8,16a21.788,21.788,0,0,0-3.579.3L42,18l-8-2Z" fill="#4fa04b"/>
        <path id="Path_1052771" data-name="Path 1052771" d="M55.8,16a21.788,21.788,0,0,0-3.579.3L42,18l-8-2H28l-2,.5V32a3,3,0,0,0,3,3h9V24l18.233-3.647A2.2,2.2,0,0,0,55.8,16Z" fill="#6bb566"/>
        <path id="Path_1052772" data-name="Path 1052772" d="M34,15.2V16a3,3,0,0,1-6,0v-.8" fill="#d69475"/>
        <path id="Path_1052773" data-name="Path 1052773" d="M33.979,16.2a5.95,5.95,0,0,1-4.894.479A2.992,2.992,0,0,0,31.5,18.949,2.983,2.983,0,0,0,33.979,16.2Z" fill="#e8a885"/>
        <path id="Path_1052774" data-name="Path 1052774" d="M31,2a6,6,0,0,0-6,6v2a6,6,0,0,0,12,0V8A6,6,0,0,0,31,2Z" fill="#e8a885"/>
        <path id="Path_1052775" data-name="Path 1052775" d="M31.5,2.025A6,6,0,0,0,26,8v2a6,6,0,0,0,5.5,5.975A6,6,0,0,0,37,10V8A6,6,0,0,0,31.5,2.025Z" fill="#f6ba91"/>
        <path id="Path_1052776" data-name="Path 1052776" d="M33,6a3.618,3.618,0,0,0,3.236,2H37A6,6,0,0,0,25,8h4.762A3.621,3.621,0,0,0,33,6Z" fill="#3f4042"/>
        <path id="Path_1052777" data-name="Path 1052777" d="M31.5,2.025A6,6,0,0,0,26,8h3.762A3.621,3.621,0,0,0,33,6a3.618,3.618,0,0,0,3.236,2H37A6,6,0,0,0,31.5,2.025Z" fill="#5a5b5d"/>
        <path id="Path_1052778" data-name="Path 1052778" d="M10.757,33.97,9.668,33.7a4.843,4.843,0,0,1,0-9.4l1.089-.272.485,1.94-1.089.272a2.842,2.842,0,0,0,0,5.515l1.089.272Z" fill="#8edff8"/>
        <path id="Path_1052779" data-name="Path 1052779" d="M50.951,34.5h5.1v2h-5.1Z" transform="matrix(0.981, -0.196, 0.196, 0.981, -5.916, 11.165)" fill="#8edff8"/>
        <path id="Path_1052780" data-name="Path 1052780" d="M9.777,16.3A21.787,21.787,0,0,0,6.2,16a2.2,2.2,0,0,0-.431,4.353L20,23.2V18Z" fill="#f6ba91"/>
        <path id="Path_1052781" data-name="Path 1052781" d="M55.8,16a21.788,21.788,0,0,0-3.579.3L42,18v5.2l14.233-2.847A2.2,2.2,0,0,0,55.8,16Z" fill="#f6ba91"/>
        <path id="Path_1052782" data-name="Path 1052782" d="M18,61v1h8l1.053-4H21a3,3,0,0,0-3,3Z" fill="#959595"/>
        <path id="Path_1052783" data-name="Path 1052783" d="M44,62V61a3,3,0,0,0-3-3H34.948L36,62Z" fill="#959595"/>
        <path id="Path_1052784" data-name="Path 1052784" d="M53.135,25.185A104.96,104.96,0,0,0,38,24.016v2c13.03.17,19.948,1.957,20.937,2.984C57.948,30.027,51.03,31.814,38,31.983c-.656.009-1.313.017-2,.017-4.744,0-8.73-.213-12-.534C17.39,30.818,13.758,29.722,13.063,29c.695-.722,4.327-1.818,10.937-2.466v-2c-1.851.177-3.584.393-5.135.651C11.894,26.347,11,27.834,11,29s.894,2.653,7.865,3.815c1.551.258,3.284.474,5.135.651,3.621.346,7.722.534,12,.534.672,0,1.337-.007,2-.016a104.96,104.96,0,0,0,15.135-1.169C60.106,31.653,61,30.166,61,29s-.894-2.653-7.865-3.815Z" fill="#e7b532"/>
        <path id="Path_1052785" data-name="Path 1052785" d="M10.153,26.243l1.089-.272-.485-1.94L9.668,24.3a4.841,4.841,0,0,0,0,9.394l1.089.272.485-1.94-1.089-.272a2.842,2.842,0,0,1,0-5.514Z"/>
        <path id="Path_1052786" data-name="Path 1052786" d="M50.951,34.5h5.1v2h-5.1Z" transform="matrix(0.981, -0.196, 0.196, 0.981, -5.916, 11.165)"/>
        <path id="Path_1052787" data-name="Path 1052787" d="M42.362,24.147l14.067-2.813A3.2,3.2,0,0,0,55.8,15a22.8,22.8,0,0,0-3.744.31L42.04,16.979l-6.532-1.633A6.982,6.982,0,0,0,38,10V8A7,7,0,0,0,24,8v2a6.984,6.984,0,0,0,2.491,5.346l-6.532,1.633L9.942,15.31A22.8,22.8,0,0,0,6.2,15a3.2,3.2,0,0,0-.627,6.334L22.393,24.7C11.008,25.979,11,28.237,11,29c0,1.166.894,2.653,7.865,3.815,1.268.211,2.661.394,4.135.551V36.93L20.119,57.1A4.007,4.007,0,0,0,17,61v1a1,1,0,0,0,1,1h8a1,1,0,0,0,.967-.745L31,46.93l4.033,15.325A1,1,0,0,0,36,63h8a1,1,0,0,0,1-1V61a4.007,4.007,0,0,0-3.119-3.9L39,36.93V33.966a102.4,102.4,0,0,0,14.135-1.151C60.106,31.653,61,30.166,61,29c0-3.474-11.695-4.531-18.638-4.853ZM24.2,23.02,21,22.38v-3.6l6.213-1.553a3.973,3.973,0,0,0,7.574,0L41,18.781v3.6l-3.2.639A1,1,0,0,0,37,24v7.992c-.336,0-.657.008-1,.008-4.27,0-7.925-.173-11-.441V24A1,1,0,0,0,24.2,23.02Zm4.951-6.277a6.809,6.809,0,0,0,3.706,0,1.994,1.994,0,0,1-3.706,0Zm23.24.54A20.78,20.78,0,0,1,55.8,17a1.2,1.2,0,0,1,.235,2.373L43,21.98V18.847ZM31,3a5.006,5.006,0,0,1,4.885,3.951,2.585,2.585,0,0,1-1.991-1.4,1.041,1.041,0,0,0-1.789,0A2.6,2.6,0,0,1,29.764,7H26.1A5.009,5.009,0,0,1,31,3Zm-5,7V9h3.764A4.6,4.6,0,0,0,33,7.681a4.58,4.58,0,0,0,3,1.3V10a5,5,0,0,1-10,0ZM5,18.2A1.2,1.2,0,0,1,6.2,17a20.78,20.78,0,0,1,3.415.283L19,18.847V21.98L5.963,19.373A1.2,1.2,0,0,1,5,18.2ZM13.067,29c.521-.5,3-1.607,9.933-2.359v4.72C17.031,30.709,13.734,29.688,13.067,29ZM19,61a2,2,0,0,1,2-2h4.755l-.526,2ZM31,42a1,1,0,0,0-.967.745L26.282,57H22.153l2.714-19H37.133l2.714,19H35.718L31.967,42.745A1,1,0,0,0,31,42ZM43,61H36.771l-.526-2H41A2,2,0,0,1,43,61ZM37,36H25V33.557c3.37.288,7.113.443,11,.443.336,0,.666-.006,1-.008Zm2-4.032V26.036c12.552.258,18.988,1.977,19.937,2.964C57.974,30,51.386,31.723,39,31.968Z"/>
      </g>
    </g>
  </g>
</svg>
