<svg xmlns="http://www.w3.org/2000/svg" xmlns:xlink="http://www.w3.org/1999/xlink" width="113" height="113" viewBox="0 0 113 113">
  <defs>
    <filter id="Path_982547" x="0" y="0" width="113" height="113" filterUnits="userSpaceOnUse">
      <feOffset dy="3" input="SourceAlpha"/>
      <feGaussianBlur stdDeviation="3" result="blur"/>
      <feFlood flood-opacity="0.161"/>
      <feComposite operator="in" in2="blur"/>
      <feComposite in="SourceGraphic"/>
    </filter>
  </defs>
  <g id="Group_1208550" data-name="Group 1208550" transform="translate(-271 -4512.942)">
    <g id="Group_1208490" data-name="Group 1208490">
      <g id="Group_1208257" data-name="Group 1208257" transform="translate(0 1682.8)">
        <g id="Group_1207721" data-name="Group 1207721" transform="translate(-1 752.362)">
          <g id="Group_1207254" data-name="Group 1207254" transform="translate(0 -8747.046)">
            <g id="Group_1204125" data-name="Group 1204125" transform="translate(0 6984.49)">
              <g id="Group_1203962" data-name="Group 1203962" transform="translate(0 1899.461)">
                <g id="Group_1203498" data-name="Group 1203498" transform="translate(0 -197.72)">
                  <g id="Group_1202589" data-name="Group 1202589" transform="translate(281 2144.596)">
                    <g id="Group_1172010" data-name="Group 1172010" transform="translate(0)">
                      <g id="Group_1171046" data-name="Group 1171046">
                        <g id="Group_1148525" data-name="Group 1148525">
                          <g transform="matrix(1, 0, 0, 1, -9, -6)" filter="url(#Path_982547)">
                            <g id="Path_982547-2" data-name="Path 982547" transform="translate(9 6)" fill="#edf3fc">
                              <path d="M 47.5 93.5 C 41.28937149047852 93.5 35.26533508300781 92.28397369384766 29.59518623352051 89.88570404052734 C 24.11771965026855 87.56893157958984 19.19813346862793 84.25196075439453 14.97309303283691 80.02691650390625 C 10.74804019927979 75.80186462402344 7.431066513061523 70.88229370117188 5.114293098449707 65.40481567382812 C 2.716026782989502 59.73468017578125 1.5 53.71062850952148 1.5 47.5 C 1.5 41.28937149047852 2.716026782989502 35.26533508300781 5.114293098449707 29.59518623352051 C 7.431066513061523 24.11771965026855 10.74804019927979 19.19813346862793 14.97309303283691 14.97309303283691 C 19.19813346862793 10.74804019927979 24.11771965026855 7.431066513061523 29.59518623352051 5.114293098449707 C 35.26533508300781 2.716026782989502 41.28937149047852 1.5 47.5 1.5 C 53.71062850952148 1.5 59.73468017578125 2.716026782989502 65.40481567382812 5.114293098449707 C 70.88229370117188 7.431066513061523 75.80186462402344 10.74804019927979 80.02691650390625 14.97309303283691 C 84.25196075439453 19.19813346862793 87.56893157958984 24.11771965026855 89.88570404052734 29.59518623352051 C 92.28397369384766 35.26533508300781 93.5 41.28937149047852 93.5 47.5 C 93.5 53.71062850952148 92.28397369384766 59.73468017578125 89.88570404052734 65.40481567382812 C 87.56893157958984 70.88229370117188 84.25196075439453 75.80186462402344 80.02691650390625 80.02691650390625 C 75.80186462402344 84.25196075439453 70.88229370117188 87.56893157958984 65.40481567382812 89.88570404052734 C 59.73468017578125 92.28397369384766 53.71062850952148 93.5 47.5 93.5 Z" stroke="none"/>
                              <path d="M 47.5 3 C 41.49121475219727 3 35.66376876831055 4.176155090332031 30.17950439453125 6.495796203613281 C 24.88084411621094 8.736953735351562 20.12152099609375 11.94598388671875 16.03375244140625 16.03375244140625 C 11.94598388671875 20.12152099609375 8.736953735351562 24.88084411621094 6.495796203613281 30.17950439453125 C 4.176155090332031 35.66376876831055 3 41.49121475219727 3 47.5 C 3 53.50878524780273 4.176155090332031 59.33623123168945 6.495796203613281 64.82049560546875 C 8.736953735351562 70.11915588378906 11.94598388671875 74.87847900390625 16.03375244140625 78.96624755859375 C 20.12152099609375 83.05401611328125 24.88084411621094 86.26304626464844 30.17950439453125 88.50419616699219 C 35.66376876831055 90.82384490966797 41.49121475219727 92 47.5 92 C 53.50878524780273 92 59.33623123168945 90.82384490966797 64.82049560546875 88.50419616699219 C 70.11915588378906 86.26304626464844 74.87847900390625 83.05401611328125 78.96624755859375 78.96624755859375 C 83.05401611328125 74.87847900390625 86.26304626464844 70.11915588378906 88.50419616699219 64.82049560546875 C 90.82384490966797 59.33623123168945 92 53.50878524780273 92 47.5 C 92 41.49121475219727 90.82384490966797 35.66376876831055 88.50419616699219 30.17950439453125 C 86.26304626464844 24.88084411621094 83.05401611328125 20.12152099609375 78.96624755859375 16.03375244140625 C 74.87847900390625 11.94598388671875 70.11915588378906 8.736953735351562 64.82049560546875 6.495796203613281 C 59.33623123168945 4.176155090332031 53.50878524780273 3 47.5 3 M 47.5 0 C 73.7335205078125 0 95 21.2664794921875 95 47.5 C 95 73.7335205078125 73.7335205078125 95 47.5 95 C 21.2664794921875 95 0 73.7335205078125 0 47.5 C 0 21.2664794921875 21.2664794921875 0 47.5 0 Z" stroke="none" fill="#5692e8"/>
                            </g>
                          </g>
                        </g>
                      </g>
                    </g>
                  </g>
                </g>
              </g>
            </g>
          </g>
        </g>
      </g>
      <g id="human_9582256" transform="translate(268.332 4527.983)">
        <g id="Group_1208487" data-name="Group 1208487" transform="translate(30.088 7.468)">
          <path id="Path_1053126" data-name="Path 1053126" d="M226.82,370.055a3.863,3.863,0,0,1-3.863,3.9h-2.933l-.966-1.287-.966,1.287H205.685s-13.2-6.445,1.565-19.286h9.259C222.862,357.733,226.76,363.717,226.82,370.055Z" transform="translate(-178.347 -309.966)" fill="#ffa1ac"/>
          <path id="Path_1053127" data-name="Path 1053127" d="M122.973,373.949h-8.924l-.966-.613-.966.613h-2.934a3.863,3.863,0,0,1-3.863-3.9c.059-6.537,4.153-12.419,10.313-15.391h8.9C120.335,358.3,119.5,368.336,122.973,373.949Z" transform="translate(-95.635 -309.966)" fill="#ff6e80"/>
          <path id="Path_1053128" data-name="Path 1053128" d="M235.364,357.588c.03,3.772-3.952,6.334-7.885,5.774a7.648,7.648,0,0,1-2.262-.691s-2.608-3.533,2.356-5.607h7.6C235.231,357.216,235.29,357.385,235.364,357.588Z" transform="translate(-199.499 -312.058)" fill="#ffccbf"/>
          <path id="Path_1053129" data-name="Path 1053129" d="M209.545,357.064a11.792,11.792,0,0,0-2.853,5.607,5.661,5.661,0,0,1-3.422-5.083c.053-.179.112-.353.176-.524Z" transform="translate(-180.975 -312.057)" fill="#ffbbae"/>
          <path id="Path_1053130" data-name="Path 1053130" d="M212.805,22.985a24.75,24.75,0,0,1-12.1,4.6c-21.011-7.419-5.255-19.827-5.255-19.827A14.548,14.548,0,0,1,212.805,22.985Z" transform="translate(-169.218 -7.468)" fill="#fcf5af"/>
          <path id="Path_1053131" data-name="Path 1053131" d="M159.391,29.582a24.85,24.85,0,0,1-16.328-4.649A14.547,14.547,0,0,1,154.72,9.7C152.076,13.888,147.538,23.824,159.391,29.582Z" transform="translate(-128.491 -9.416)" fill="#fbd788"/>
          <path id="Path_1053132" data-name="Path 1053132" d="M36.2,158.267a4.848,4.848,0,1,0,.368,9.245c2.761.011,4.993-1.627,5.388-3.492C42.456,161.646,40.09,158.389,36.2,158.267Z" transform="translate(-30.088 -138.706)" fill="#ffbbae"/>
          <path id="Path_1053133" data-name="Path 1053133" d="M397.852,158.267a4.66,4.66,0,1,1-5.4,4.656A4.85,4.85,0,0,1,397.852,158.267Z" transform="translate(-345.803 -138.706)" fill="#ffccbf"/>
          <path id="Path_1053134" data-name="Path 1053134" d="M137.751,158.547C113.621,144.521,133.242,128,133.242,128H161.5a3.863,3.863,0,0,1,3.786,3.1A23.3,23.3,0,0,1,137.751,158.547Z" transform="translate(-113.407 -112.485)" fill="#ffded0"/>
          <path id="Path_1053135" data-name="Path 1053135" d="M93.74,158.547A23.351,23.351,0,0,1,75.685,131.07,3.851,3.851,0,0,1,79.465,128h9.766C87.308,132.172,81.987,146.592,93.74,158.547Z" transform="translate(-69.396 -112.485)" fill="#ffccbf"/>
          <ellipse id="Ellipse_13515" data-name="Ellipse 13515" cx="3.783" cy="3.013" rx="3.783" ry="3.013" transform="translate(15.043 24.432)" fill="#ffa1ac"/>
          <ellipse id="Ellipse_13516" data-name="Ellipse 13516" cx="3.783" cy="3.013" rx="3.783" ry="3.013" transform="translate(35.55 24.432)" fill="#ffa1ac"/>
          <path id="Path_1053136" data-name="Path 1053136" d="M238.378,188.711c0-1.885-1.366-2.062-3.05-2.062s-3.05.177-3.05,2.062a3.07,3.07,0,1,0,6.1,0Z" transform="translate(-206.248 -163.582)" fill="#495560"/>
        </g>
        <g id="Group_1208489" data-name="Group 1208489" transform="translate(30.088 7.472)">
          <path id="Path_1053137" data-name="Path 1053137" d="M36.2,158.255a4.847,4.847,0,1,0,.368,9.245" transform="translate(-30.088 -138.702)" fill="none" stroke="#000" stroke-linecap="round" stroke-linejoin="round" stroke-miterlimit="10" stroke-width="1"/>
          <path id="Path_1053138" data-name="Path 1053138" d="M431.9,158.234a4.847,4.847,0,1,1-.368,9.245" transform="translate(-379.851 -138.681)" fill="none" stroke="#000" stroke-linecap="round" stroke-linejoin="round" stroke-miterlimit="10" stroke-width="1"/>
          <path id="Path_1053139" data-name="Path 1053139" d="M133.8,354.62c6.168,2.976,10.248,8.871,10.31,15.393a3.862,3.862,0,0,1-3.863,3.895H109.186a3.863,3.863,0,0,1-3.863-3.9c.059-6.536,4.153-12.419,10.313-15.391" transform="translate(-95.637 -309.932)" fill="none" stroke="#000" stroke-linecap="round" stroke-linejoin="round" stroke-miterlimit="10" stroke-width="1"/>
          <line id="Line_880" data-name="Line 880" y2="7.755" transform="translate(17.448 56.221)" fill="none" stroke="#000" stroke-linecap="round" stroke-linejoin="round" stroke-miterlimit="10" stroke-width="1"/>
          <line id="Line_881" data-name="Line 881" y2="7.755" transform="translate(40.712 56.221)" fill="none" stroke="#000" stroke-linecap="round" stroke-linejoin="round" stroke-miterlimit="10" stroke-width="1"/>
          <path id="Path_1053140" data-name="Path 1053140" d="M117.54,127.971H79.518a3.852,3.852,0,0,0-3.78,3.066,23.268,23.268,0,1,0,45.589.031A3.865,3.865,0,0,0,117.54,127.971Z" transform="translate(-69.449 -112.462)" fill="none" stroke="#000" stroke-linecap="round" stroke-linejoin="round" stroke-miterlimit="10" stroke-width="1"/>
          <path id="Path_1053141" data-name="Path 1053141" d="M204.173,364.05a5.17,5.17,0,0,1-.908-2.908c0-.012,0-.024,0-.036" transform="translate(-180.97 -315.583)" fill="none" stroke="#000" stroke-linecap="round" stroke-linejoin="round" stroke-miterlimit="10" stroke-width="1"/>
          <path id="Path_1053142" data-name="Path 1053142" d="M243.076,361.1c0,.012,0,.024,0,.036,0,3.212-3.038,5.816-6.785,5.816a7.709,7.709,0,0,1-2.908-.56" transform="translate(-207.211 -315.582)" fill="none" stroke="#000" stroke-linecap="round" stroke-linejoin="round" stroke-miterlimit="10" stroke-width="1"/>
          <g id="Group_1208488" data-name="Group 1208488" transform="translate(19.459 22.294)">
            <line id="Line_882" data-name="Line 882" y2="1.545" fill="none" stroke="#000" stroke-linecap="round" stroke-linejoin="round" stroke-miterlimit="10" stroke-width="1"/>
            <path id="Path_1053143" data-name="Path 1053143" d="M238.378,188.678c0-1.885-1.366-2.062-3.05-2.062s-3.05.177-3.05,2.062a3.07,3.07,0,1,0,6.1,0Z" transform="translate(-225.707 -185.851)" fill="none" stroke="#000" stroke-linecap="round" stroke-linejoin="round" stroke-miterlimit="10" stroke-width="1"/>
            <line id="Line_883" data-name="Line 883" y2="1.545" transform="translate(19.242)" fill="none" stroke="#000" stroke-linecap="round" stroke-linejoin="round" stroke-miterlimit="10" stroke-width="1"/>
          </g>
          <path id="Path_1053144" data-name="Path 1053144" d="M188.2,10.408a14.541,14.541,0,0,1,23.233,12.6" transform="translate(-167.841 -7.5)" fill="none" stroke="#000" stroke-linecap="round" stroke-linejoin="round" stroke-miterlimit="10" stroke-width="1"/>
          <path id="Path_1053145" data-name="Path 1053145" d="M143.059,62.37a14.5,14.5,0,0,1,2.875-9.693" transform="translate(-128.488 -46.861)" fill="none" stroke="#000" stroke-linecap="round" stroke-linejoin="round" stroke-miterlimit="10" stroke-width="1"/>
          <path id="Path_1053146" data-name="Path 1053146" d="M209.51,79.841a22.018,22.018,0,0,0,.255-2.9,3.181,3.181,0,0,0-3.809-3.177,3.184,3.184,0,0,1-2.391-.473l-.045-.03a3.184,3.184,0,0,0-3.532,0l-.045.03a3.183,3.183,0,0,1-2.391.473,3.181,3.181,0,0,0-3.809,3.177,22.016,22.016,0,0,0,.255,2.9" transform="translate(-172.676 -64.332)" fill="none" stroke="#000" stroke-linecap="round" stroke-linejoin="round" stroke-miterlimit="10" stroke-width="1"/>
          <line id="Line_884" data-name="Line 884" y1="2.908" x2="4.847" transform="translate(47.558 0.091)" fill="none" stroke="#000" stroke-linecap="round" stroke-linejoin="round" stroke-miterlimit="10" stroke-width="1"/>
          <line id="Line_885" data-name="Line 885" x2="4.847" y2="0.969" transform="translate(51.435 9.784)" fill="none" stroke="#000" stroke-linecap="round" stroke-linejoin="round" stroke-miterlimit="10" stroke-width="1"/>
          <line id="Line_886" data-name="Line 886" x1="4.847" y1="2.908" transform="translate(5.877 0.091)" fill="none" stroke="#000" stroke-linecap="round" stroke-linejoin="round" stroke-miterlimit="10" stroke-width="1"/>
          <line id="Line_887" data-name="Line 887" x1="4.847" y2="0.969" transform="translate(1.999 9.784)" fill="none" stroke="#000" stroke-linecap="round" stroke-linejoin="round" stroke-miterlimit="10" stroke-width="1"/>
        </g>
      </g>
    </g>
  </g>
</svg>
