<svg xmlns="http://www.w3.org/2000/svg" xmlns:xlink="http://www.w3.org/1999/xlink" width="113" height="113" viewBox="0 0 113 113">
  <defs>
    <filter id="Path_982547" x="0" y="0.001" width="113" height="113" filterUnits="userSpaceOnUse">
      <feOffset dy="3" input="SourceAlpha"/>
      <feGaussianBlur stdDeviation="3" result="blur"/>
      <feFlood flood-opacity="0.161"/>
      <feComposite operator="in" in2="blur"/>
      <feComposite in="SourceGraphic"/>
    </filter>
  </defs>
  <g id="Group_1208511" data-name="Group 1208511" transform="translate(-901 -960.806)">
    <g id="Group_1208395" data-name="Group 1208395">
      <g id="Group_1208165" data-name="Group 1208165" transform="translate(0 -1869)">
        <g id="Group_1207723" data-name="Group 1207723" transform="translate(-1 752.362)">
          <g id="Group_1207256" data-name="Group 1207256" transform="translate(0 -8747.046)">
            <g id="Group_1204127" data-name="Group 1204127" transform="translate(0 6984.49)">
              <g id="Group_1203960" data-name="Group 1203960" transform="translate(0.44 1899.125)">
                <g id="Group_1203499" data-name="Group 1203499" transform="translate(0 -197.72)">
                  <g id="Group_1202591" data-name="Group 1202591" transform="translate(910.561 2144.596)">
                    <g id="Group_1172010" data-name="Group 1172010" transform="translate(0)">
                      <g id="Group_1171046" data-name="Group 1171046">
                        <g id="Group_1148525" data-name="Group 1148525">
                          <g transform="matrix(1, 0, 0, 1, -9, -6)" filter="url(#Path_982547)">
                            <g id="Path_982547-2" data-name="Path 982547" transform="translate(9 6)" fill="#edf3fc">
                              <path d="M 47.5 93.5 C 41.28937149047852 93.5 35.26533508300781 92.28397369384766 29.59518623352051 89.88570404052734 C 24.11771965026855 87.56893157958984 19.19813346862793 84.25196075439453 14.97309303283691 80.02691650390625 C 10.74804019927979 75.80186462402344 7.431066513061523 70.88229370117188 5.114293098449707 65.40481567382812 C 2.716026782989502 59.73468017578125 1.5 53.71062850952148 1.5 47.5 C 1.5 41.28937149047852 2.716026782989502 35.26533508300781 5.114293098449707 29.59518623352051 C 7.431066513061523 24.11771965026855 10.74804019927979 19.19813346862793 14.97309303283691 14.97309303283691 C 19.19813346862793 10.74804019927979 24.11771965026855 7.431066513061523 29.59518623352051 5.114293098449707 C 35.26533508300781 2.716026782989502 41.28937149047852 1.5 47.5 1.5 C 53.71062850952148 1.5 59.73468017578125 2.716026782989502 65.40481567382812 5.114293098449707 C 70.88229370117188 7.431066513061523 75.80186462402344 10.74804019927979 80.02691650390625 14.97309303283691 C 84.25196075439453 19.19813346862793 87.56893157958984 24.11771965026855 89.88570404052734 29.59518623352051 C 92.28397369384766 35.26533508300781 93.5 41.28937149047852 93.5 47.5 C 93.5 53.71062850952148 92.28397369384766 59.73468017578125 89.88570404052734 65.40481567382812 C 87.56893157958984 70.88229370117188 84.25196075439453 75.80186462402344 80.02691650390625 80.02691650390625 C 75.80186462402344 84.25196075439453 70.88229370117188 87.56893157958984 65.40481567382812 89.88570404052734 C 59.73468017578125 92.28397369384766 53.71062850952148 93.5 47.5 93.5 Z" stroke="none"/>
                              <path d="M 47.5 3 C 41.49121475219727 3 35.66376876831055 4.176155090332031 30.17950439453125 6.495796203613281 C 24.88084411621094 8.736953735351562 20.12152099609375 11.94598388671875 16.03375244140625 16.03375244140625 C 11.94598388671875 20.12152099609375 8.736953735351562 24.88084411621094 6.495796203613281 30.17950439453125 C 4.176155090332031 35.66376876831055 3 41.49121475219727 3 47.5 C 3 53.50878524780273 4.176155090332031 59.33623123168945 6.495796203613281 64.82049560546875 C 8.736953735351562 70.11915588378906 11.94598388671875 74.87847900390625 16.03375244140625 78.96624755859375 C 20.12152099609375 83.05401611328125 24.88084411621094 86.26304626464844 30.17950439453125 88.50419616699219 C 35.66376876831055 90.82384490966797 41.49121475219727 92 47.5 92 C 53.50878524780273 92 59.33623123168945 90.82384490966797 64.82049560546875 88.50419616699219 C 70.11915588378906 86.26304626464844 74.87847900390625 83.05401611328125 78.96624755859375 78.96624755859375 C 83.05401611328125 74.87847900390625 86.26304626464844 70.11915588378906 88.50419616699219 64.82049560546875 C 90.82384490966797 59.33623123168945 92 53.50878524780273 92 47.5 C 92 41.49121475219727 90.82384490966797 35.66376876831055 88.50419616699219 30.17950439453125 C 86.26304626464844 24.88084411621094 83.05401611328125 20.12152099609375 78.96624755859375 16.03375244140625 C 74.87847900390625 11.94598388671875 70.11915588378906 8.736953735351562 64.82049560546875 6.495796203613281 C 59.33623123168945 4.176155090332031 53.50878524780273 3 47.5 3 M 47.5 0 C 73.7335205078125 0 95 21.2664794921875 95 47.5 C 95 73.7335205078125 73.7335205078125 95 47.5 95 C 21.2664794921875 95 0 73.7335205078125 0 47.5 C 0 21.2664794921875 21.2664794921875 0 47.5 0 Z" stroke="none" fill="#5692e8"/>
                            </g>
                          </g>
                        </g>
                      </g>
                    </g>
                  </g>
                </g>
              </g>
            </g>
          </g>
        </g>
      </g>
      <g id="basketball-player_5284169" transform="translate(929 984)">
        <g id="Group_1208393" data-name="Group 1208393">
          <g id="Group_1208380" data-name="Group 1208380">
            <path id="Path_1052892" data-name="Path 1052892" d="M18.73,13.77A7.242,7.242,0,0,0,17,18.47V19H15a3.989,3.989,0,0,0-2,.54V16.66A13.653,13.653,0,0,0,9,7l.19-.13a11.126,11.126,0,0,1,11.16-.69L22,7,20,1h6.29A10.855,10.855,0,0,1,36,7l.5-.34A5.607,5.607,0,0,0,39,2,15.95,15.95,0,0,1,49,16.77v2.77A3.989,3.989,0,0,0,47,19H45v2a6,6,0,0,0-6-6H22.61a6.726,6.726,0,0,1-3.88-1.23Z" fill="#fcd770"/>
          </g>
          <g id="Group_1208381" data-name="Group 1208381">
            <path id="Path_1052893" data-name="Path 1052893" d="M42.59,58.59l-.42-.42A4,4,0,0,1,41,55.34V39H35a9.653,9.653,0,0,1-2.83,6.83L31,47l-1.17-1.17A9.653,9.653,0,0,1,27,39H21V55.34a4,4,0,0,1-1.17,2.83l-.42.42a1.414,1.414,0,0,0,1,2.41H41.59a1.414,1.414,0,0,0,1-2.41Z" fill="#75b1f2"/>
          </g>
          <g id="Group_1208382" data-name="Group 1208382">
            <path id="Path_1052894" data-name="Path 1052894" d="M28,43h6l.11.05a9.616,9.616,0,0,1-1.94,2.78L31,47l-1.17-1.17a9.616,9.616,0,0,1-1.94-2.78Z" fill="#5d9cec"/>
          </g>
          <g id="Group_1208383" data-name="Group 1208383">
            <path id="Path_1052895" data-name="Path 1052895" d="M21,39v8l-7.74-.77A7.923,7.923,0,0,0,9,45a8.491,8.491,0,0,0-.88.05,7.512,7.512,0,0,0-1.95.47l-2.33-.24A3.147,3.147,0,0,1,4.15,39H5v-.59a1.414,1.414,0,0,1,2.41-1L9,39Z" fill="#f0d0b4"/>
          </g>
          <g id="Group_1208384" data-name="Group 1208384">
            <path id="Path_1052896" data-name="Path 1052896" d="M28,43l-.11.05A9.686,9.686,0,0,1,27,39h8a9.686,9.686,0,0,1-.89,4.05L34,43Z" fill="#f0d0b4"/>
          </g>
          <g id="Group_1208385" data-name="Group 1208385">
            <path id="Path_1052897" data-name="Path 1052897" d="M61,42.15a3.16,3.16,0,0,1-2.84,3.13L41,47V39H53l1.59-1.59a1.414,1.414,0,0,1,2.41,1V39h.85A3.15,3.15,0,0,1,61,42.15Z" fill="#f0d0b4"/>
          </g>
          <g id="Group_1208386" data-name="Group 1208386">
            <path id="Path_1052898" data-name="Path 1052898" d="M49,19.54A3.98,3.98,0,0,1,51,23a3.995,3.995,0,0,1-4,4H45V19h2A3.989,3.989,0,0,1,49,19.54Z" fill="#f0d0b4"/>
          </g>
          <g id="Group_1208387" data-name="Group 1208387">
            <path id="Path_1052899" data-name="Path 1052899" d="M45,24v3A12,12,0,0,1,33,39H29A12,12,0,0,1,17,27V18.47a7.242,7.242,0,0,1,1.73-4.7A6.726,6.726,0,0,0,22.61,15H39a6,6,0,0,1,6,6Z" fill="#f0d0b4"/>
          </g>
          <g id="Group_1208388" data-name="Group 1208388">
            <path id="Path_1052900" data-name="Path 1052900" d="M17,24v3H15a3.995,3.995,0,0,1-4-4,4.01,4.01,0,0,1,4-4h2Z" fill="#f0d0b4"/>
          </g>
          <g id="Group_1208389" data-name="Group 1208389">
            <circle id="Ellipse_13492" data-name="Ellipse 13492" cx="8" cy="8" r="8" transform="translate(1 45)" fill="#ff826e"/>
          </g>
          <g id="Group_1208390" data-name="Group 1208390">
            <path id="Path_1052901" data-name="Path 1052901" d="M13.26,46.23A7.978,7.978,0,0,1,17,53a8.491,8.491,0,0,1-.05.88,7.989,7.989,0,0,1-8.83-8.83A8.491,8.491,0,0,1,9,45a7.923,7.923,0,0,1,4.26,1.23Z" fill="#fc6e51"/>
          </g>
          <g id="Group_1208391" data-name="Group 1208391">
            <path id="Path_1052902" data-name="Path 1052902" d="M7.59,54.41a8,8,0,0,1,2.29,6.54A8.491,8.491,0,0,1,9,61a8,8,0,0,1-8-8,8.491,8.491,0,0,1,.05-.88A8,8,0,0,1,7.59,54.41Z" fill="#fc6e51"/>
          </g>
          <g id="Group_1208392" data-name="Group 1208392">
            <path id="Path_1052903" data-name="Path 1052903" d="M25,27H37a6.009,6.009,0,0,1-6,6,6,6,0,0,1-6-6Z" fill="#ff826e"/>
          </g>
        </g>
        <g id="Group_1208394" data-name="Group 1208394">
          <path id="Path_1052904" data-name="Path 1052904" d="M57.965,38a2.415,2.415,0,0,0-4.086-1.294L52.586,38H39.9a12.991,12.991,0,0,0,6.053-10H47a4.983,4.983,0,0,0,3-8.974V16.771a16.828,16.828,0,0,0-10.629-15.7L38,.523V2a4.594,4.594,0,0,1-1.669,3.548A11.78,11.78,0,0,0,26.292,0h-7.68l1.682,5.043a12.133,12.133,0,0,0-11.652,1L7.43,6.844l.863.863A12.57,12.57,0,0,1,12,16.657v2.369A4.983,4.983,0,0,0,15,28h1.051A12.991,12.991,0,0,0,22.1,38H9.414L8.122,36.708A2.415,2.415,0,0,0,4.035,38a4.142,4.142,0,0,0-.876,8.165,9,9,0,1,0,12.962,1.351L20,47.9v7.438a3.017,3.017,0,0,1-.88,2.122l-.414.415A2.414,2.414,0,0,0,20.414,62H41.586a2.415,2.415,0,0,0,1.708-4.121l-.415-.415A3.017,3.017,0,0,1,42,55.343V47.905l16.264-1.626a4.15,4.15,0,0,0-.3-8.278ZM40,50H22V40h4.049a10.576,10.576,0,0,0,3.072,6.536L31,48.414l1.879-1.878A10.573,10.573,0,0,0,35.951,40H40ZM28,52v8H26V52Zm2,0h2v8H30Zm4,0h2v8H34Zm-.063-12a8.646,8.646,0,0,1-.479,2H28.542a8.546,8.546,0,0,1-.479-2ZM32.4,44a8.8,8.8,0,0,1-.938,1.122L31,45.586l-.465-.464A8.744,8.744,0,0,1,29.6,44ZM47,26H46V24.535l2.555-1.7-1.109-1.664L46,22.132V20h1a3,3,0,0,1,0,6ZM10.557,7.216A10.29,10.29,0,0,1,19.9,7.07l3.808,1.9L21.388,2h4.9A9.8,9.8,0,0,1,35.1,7.447l.507,1.013L37.058,7.5a6.587,6.587,0,0,0,2.776-4.023A14.827,14.827,0,0,1,48,16.771V18.1a4.923,4.923,0,0,0-1-.1H46V16.472A8.191,8.191,0,0,0,41.447,9.1l-.9,1.789a6.187,6.187,0,0,1,3.42,5.186A6.975,6.975,0,0,0,39,14H22.6a5.723,5.723,0,0,1-4.773-2.555l-1.664,1.109a7.741,7.741,0,0,0,1.195,1.394A8.24,8.24,0,0,0,16.021,18H15a5,5,0,0,0-1,.1V16.656a14.554,14.554,0,0,0-3.443-9.44ZM12,23a3,3,0,0,1,3-3h1v2.132l-1.445-.964-1.109,1.664L16,24.535V26H15a3,3,0,0,1-3-3Zm6,4V18.472a6.233,6.233,0,0,1,1-3.362,7.726,7.726,0,0,0,3.6.89H39a5.006,5.006,0,0,1,5,5v6A11.013,11.013,0,0,1,33,38H29A11.013,11.013,0,0,1,18,27ZM7.089,46.272A8.935,8.935,0,0,0,9.04,51.546L7.547,53.039a8.937,8.937,0,0,0-5.274-1.951,7.018,7.018,0,0,1,4.816-4.816ZM16,52.927a6.927,6.927,0,0,1-4.112-1.4L14.6,48.816A6.946,6.946,0,0,1,16,52.927ZM13.185,47.4l-2.714,2.714A6.956,6.956,0,0,1,9.074,46,6.955,6.955,0,0,1,13.185,47.4ZM3.4,57.184A6.956,6.956,0,0,1,2,53.075a6.962,6.962,0,0,1,4.112,1.4Zm4.129-1.3A6.956,6.956,0,0,1,8.927,60a6.955,6.955,0,0,1-4.111-1.4Zm3.381,3.844A8.935,8.935,0,0,0,8.96,54.454l1.5-1.5a8.92,8.92,0,0,0,5.271,1.955,7.016,7.016,0,0,1-4.816,4.815ZM13.553,45.25A8.89,8.89,0,0,0,6.065,44.5l-2.129-.213A2.149,2.149,0,0,1,4.149,40H6V38.414a.43.43,0,0,1,.707-.293L8.586,40H20v5.9ZM20,59.586a.414.414,0,0,1,.122-.293l.413-.414A4.968,4.968,0,0,0,22,55.344V52h2v8H20.414A.415.415,0,0,1,20,59.586ZM41.586,60H38V52h2v3.343a4.972,4.972,0,0,0,1.464,3.535l.414.415a.414.414,0,0,1-.292.707ZM58.064,44.289,42,45.9V40H53.414l1.88-1.879a.43.43,0,0,1,.706.293V40h1.851a2.15,2.15,0,0,1,.213,4.289Z"/>
          <path id="Path_1052905" data-name="Path 1052905" d="M38,20a2,2,0,0,1,2,2h2a4,4,0,0,0-8,0h2A2,2,0,0,1,38,20Z"/>
          <path id="Path_1052906" data-name="Path 1052906" d="M26,22h2a4,4,0,0,0-8,0h2a2,2,0,0,1,4,0Z"/>
          <path id="Path_1052907" data-name="Path 1052907" d="M38,27V26H24v1a7,7,0,0,0,14,0Zm-7,5a5.008,5.008,0,0,1-4.9-4h9.8A5.01,5.01,0,0,1,31,32Z"/>
        </g>
      </g>
    </g>
  </g>
</svg>
