<svg xmlns="http://www.w3.org/2000/svg" xmlns:xlink="http://www.w3.org/1999/xlink" width="98" height="98" viewBox="0 0 98 98">
  <defs>
    <filter id="Path_982547" x="0" y="0" width="98" height="98" filterUnits="userSpaceOnUse">
      <feOffset dy="3" input="SourceAlpha"/>
      <feGaussianBlur stdDeviation="3" result="blur"/>
      <feFlood flood-opacity="0.161"/>
      <feComposite operator="in" in2="blur"/>
      <feComposite in="SourceGraphic"/>
    </filter>
    <clipPath id="clip-path">
      <path id="path8121" d="M0-682.665H48.414v48.414H0Z" transform="translate(0 682.665)"/>
    </clipPath>
  </defs>
  <g id="Group_1208514" data-name="Group 1208514" transform="translate(-191 -1920.834)">
    <g id="Group_1208406" data-name="Group 1208406">
      <g id="Group_1208171" data-name="Group 1208171" transform="translate(0 -2047.18)">
        <g id="Group_1207739" data-name="Group 1207739" transform="translate(0 1882.462)">
          <g id="Group_1207712" data-name="Group 1207712">
            <g id="Group_1207285" data-name="Group 1207285" transform="translate(0 344.552)">
              <g id="Group_1206883" data-name="Group 1206883" transform="translate(0 -209)">
                <g id="Group_1204569" data-name="Group 1204569" transform="translate(-81 -1890.336)">
                  <g id="Group_1203962" data-name="Group 1203962" transform="translate(281 3846.336)">
                    <g id="Group_1203498" data-name="Group 1203498" transform="translate(0)">
                      <g id="Group_1202589" data-name="Group 1202589">
                        <g id="Group_1172010" data-name="Group 1172010">
                          <g id="Group_1171046" data-name="Group 1171046">
                            <g id="Group_1148525" data-name="Group 1148525">
                              <g transform="matrix(1, 0, 0, 1, -9, -6)" filter="url(#Path_982547)">
                                <g id="Path_982547-2" data-name="Path 982547" transform="translate(9 6)" fill="#fdfbec">
                                  <path d="M 39.99999237060547 78.49998474121094 C 34.8018684387207 78.49998474121094 29.76002502441406 77.48226165771484 25.0145263671875 75.47508239746094 C 20.43014717102051 73.53604888916016 16.31264877319336 70.75984954833984 12.77639198303223 67.22359466552734 C 9.240137100219727 63.68733596801758 6.463936805725098 59.5698356628418 4.524903297424316 54.98546981811523 C 2.517725706100464 50.23995971679688 1.500003457069397 45.19811630249023 1.500003457069397 39.99999237060547 C 1.500003457069397 34.8018684387207 2.517725706100464 29.76002502441406 4.524903297424316 25.0145263671875 C 6.463936805725098 20.43014717102051 9.240137100219727 16.31264877319336 12.77639198303223 12.77639198303223 C 16.31264877319336 9.240137100219727 20.43014717102051 6.463936805725098 25.0145263671875 4.524903297424316 C 29.76002502441406 2.517725706100464 34.8018684387207 1.500003457069397 39.99999237060547 1.500003457069397 C 45.19811630249023 1.500003457069397 50.23995971679688 2.517725706100464 54.98546981811523 4.524903297424316 C 59.5698356628418 6.463936805725098 63.68733596801758 9.240137100219727 67.22359466552734 12.77639198303223 C 70.75984954833984 16.31264877319336 73.53604888916016 20.43014717102051 75.47508239746094 25.0145263671875 C 77.48226165771484 29.76002502441406 78.49998474121094 34.8018684387207 78.49998474121094 39.99999237060547 C 78.49998474121094 45.19812393188477 77.48226165771484 50.23995971679688 75.47508239746094 54.98546981811523 C 73.53604888916016 59.5698356628418 70.75984954833984 63.68733596801758 67.22359466552734 67.22359466552734 C 63.68733596801758 70.75984954833984 59.5698356628418 73.53604888916016 54.98546981811523 75.47508239746094 C 50.23995971679688 77.48226165771484 45.19812393188477 78.49998474121094 39.99999237060547 78.49998474121094 Z" stroke="none"/>
                                  <path d="M 39.99999237060547 2.999992370605469 C 35.00370025634766 2.999992370605469 30.1584587097168 3.97784423828125 25.59884643554688 5.906402587890625 C 21.19327163696289 7.769805908203125 17.23603057861328 10.43805694580078 13.83704376220703 13.83704376220703 C 10.43805694580078 17.23603057861328 7.769805908203125 21.19327163696289 5.906402587890625 25.59884643554688 C 3.97784423828125 30.1584587097168 2.999992370605469 35.00370025634766 2.999992370605469 39.99999237060547 C 2.999992370605469 44.99628448486328 3.97784423828125 49.84152603149414 5.906402587890625 54.40113830566406 C 7.769805908203125 58.80671310424805 10.43805694580078 62.76395416259766 13.83704376220703 66.16294097900391 C 17.23603057861328 69.56191253662109 21.19327163696289 72.23016357421875 25.59884643554688 74.09356689453125 C 30.1584587097168 76.02212524414062 35.00370025634766 76.99997711181641 39.99999237060547 76.99997711181641 C 44.99628448486328 76.99997711181641 49.84152603149414 76.02212524414062 54.40113830566406 74.09356689453125 C 58.80671310424805 72.23016357421875 62.76395416259766 69.56191253662109 66.16294097900391 66.16294097900391 C 69.56191253662109 62.76395416259766 72.23016357421875 58.80671310424805 74.09356689453125 54.40113830566406 C 76.02212524414062 49.84152603149414 76.99997711181641 44.99628448486328 76.99997711181641 39.99999237060547 C 76.99997711181641 35.00370025634766 76.02212524414062 30.1584587097168 74.09356689453125 25.59884643554688 C 72.23016357421875 21.19327163696289 69.56191253662109 17.23603057861328 66.16294097900391 13.83704376220703 C 62.76395416259766 10.43805694580078 58.80671310424805 7.769805908203125 54.40113830566406 5.906402587890625 C 49.84152603149414 3.97784423828125 44.99628448486328 2.999992370605469 39.99999237060547 2.999992370605469 M 39.99999237060547 -7.62939453125e-06 C 62.09137725830078 -7.62939453125e-06 79.99997711181641 17.90860748291016 79.99997711181641 39.99999237060547 C 79.99997711181641 62.09137725830078 62.09137725830078 79.99997711181641 39.99999237060547 79.99997711181641 C 17.90860748291016 79.99997711181641 -7.62939453125e-06 62.09137725830078 -7.62939453125e-06 39.99999237060547 C -7.62939453125e-06 17.90860748291016 17.90860748291016 -7.62939453125e-06 39.99999237060547 -7.62939453125e-06 Z" stroke="none" fill="#83793c"/>
                                </g>
                              </g>
                            </g>
                          </g>
                        </g>
                      </g>
                    </g>
                  </g>
                </g>
              </g>
            </g>
            <g id="g8115" transform="translate(215.793 2790.01)">
              <g id="g8117" transform="translate(0 -682.665)">
                <g id="g8119" clip-path="url(#clip-path)">
                  <g id="g8125" transform="translate(-33.259 0.709)">
                    <path id="path8127" d="M-338.457-377.826h-25.835v-25.108c5.31-7.679,37.755-5.416,25.835,25.108" transform="translate(364.292 406.667)" fill="#fbdf63"/>
                  </g>
                  <g id="g8129" transform="translate(-33.259 0.709)">
                    <path id="path8131" d="M-338.457-377.826h-.619c6.164-24.728-15.887-30.6-25.216-24.374v-.734c5.31-7.679,37.755-5.416,25.835,25.108" transform="translate(364.292 406.667)" fill="#f9d11f"/>
                  </g>
                </g>
              </g>
              <g id="g8265" transform="translate(0 -682.665)">
                <g id="g8267" clip-path="url(#clip-path)">
                  <g id="g8273" transform="translate(-33.259 51.036)">
                    <path id="path8275" d="M-338.457-377.654h-25.835v-25.1c5.31-7.676,37.755-5.413,25.835,25.1" transform="translate(364.292 406.481)" fill="#003343"/>
                  </g>
                  <g id="g8277" transform="translate(-33.259 51.036)">
                    <path id="path8279" d="M-338.457-377.654h-.619c6.164-24.717-15.887-30.585-25.216-24.362v-.734c5.31-7.676,37.755-5.413,25.835,25.1" transform="translate(364.292 406.481)" fill="#002439"/>
                  </g>
                </g>
              </g>
              <g id="g8281" transform="translate(0 -682.665)">
                <g id="g8283" clip-path="url(#clip-path)">
                  <g id="g8289" transform="translate(17.066 51.014)">
                    <path id="path8291" d="M-338.457-377.826h-25.835v-25.108c5.31-7.679,37.755-5.416,25.835,25.108" transform="translate(364.292 406.667)" fill="#ff7e50"/>
                  </g>
                  <g id="g8293" transform="translate(17.066 51.014)">
                    <path id="path8295" d="M-338.457-377.826h-.619c6.164-24.728-15.887-30.6-25.216-24.374v-.734c5.31-7.679,37.755-5.416,25.835,25.108" transform="translate(364.292 406.667)" fill="#ff6247"/>
                  </g>
                  <g id="g8297" transform="translate(2.941 54.225)">
                    <path id="path8299" d="M-233.028-131.751v15.573h-14.6c-12.2-25.649,14.6-34.273,14.6-15.573" transform="translate(250.816 141.808)" fill="#ffa68a"/>
                  </g>
                  <g id="g8301" transform="translate(2.941 54.225)">
                    <path id="path8303" d="M-233.028-131.751c-.9-16.1-20.23-9.82-14.176,15.573h-.427c-12.2-25.649,14.6-34.273,14.6-15.573" transform="translate(250.816 141.808)" fill="#ff7e50"/>
                  </g>
                </g>
              </g>
            </g>
          </g>
        </g>
      </g>
      <g id="layer1" transform="translate(211.47 1936.189)">
        <path id="path4948" d="M20.626,19.568v-.892h3.566l-5.349-6.241-5.349,6.241H17.06v1.783Z" transform="translate(31.975 29.468)" fill="#ecb200"/>
        <path id="path4950" d="M7.4,19.568v-.892h3.566L5.614,12.435.265,18.676H3.831v1.783Z" transform="translate(0.627 29.468)" fill="#ffca28"/>
        <path id="path4939" d="M27.059,20.389a12.754,12.754,0,0,0-5.3-5.258L10.6,15.094a12.751,12.751,0,0,0-5.376,5.294v.9H27.12Z" transform="translate(12.387 35.767)" fill="#549ad4"/>
        <path id="path4943" d="M23.356,15.4c-3.287,4.375-13.408,4.652-18.129,4.54v.623H27.119l-.061-.9a12.826,12.826,0,0,0-3.7-4.261Z" transform="translate(12.387 36.495)" fill="#3588cb"/>
        <path id="path4913" d="M25.189.266C18.809.32,23.276,3,17.4,5.479S12.7,2.9,8.228,7.431s.587,3.279-1.8,9.17-5.155,1.489-5.1,7.735c-.055,6.246,2.709,1.844,5.1,7.735s-2.669,4.639,1.8,9.17c4.167,4.222,3.435.118,8.066,1.545h.223a8.748,8.748,0,0,1,8.877-7.751,8.745,8.745,0,0,1,8.886,7.8h.263c4.25-1.036,3.6,2.729,7.728-1.309,4.55-4.454-.531-3.289,1.961-9.138s5.18-1.4,5.234-8.055c-.054-6.655-2.743-2.206-5.234-8.055s2.589-4.684-1.961-9.138-3.293.584-9.208-1.8S31.568.211,25.189.266Z" transform="translate(3.136 0.628)" fill="#549ad4"/>
        <path id="path4927" d="M14.1,1.743a6.132,6.132,0,0,0-2.131.609,11.958,11.958,0,0,1,1.525,1.3c4.55,4.454-.531,3.289,1.961,9.138s5.18,1.4,5.234,8.055c-.054,6.656-2.743,2.206-5.234,8.055s2.589,4.684-1.961,9.138a11.718,11.718,0,0,1-1.538,1.3c1.622.48,2.141,1.6,5.1-1.3,4.55-4.454-.531-3.289,1.961-9.138s5.18-1.4,5.234-8.055c-.054-6.655-2.743-2.206-5.234-8.055s2.589-4.684-1.961-9.138C15.643,2.261,14.788,1.8,14.1,1.743Z" transform="translate(28.342 4.117)" fill="#3588cb"/>
        <path id="path4925" d="M13.646,10.583a8.752,8.752,0,0,0-8.87,7.7,4.9,4.9,0,0,1,3.336.054h.223a8.637,8.637,0,0,1,7.108-7.575,9.368,9.368,0,0,0-1.8-.176Z" transform="translate(11.317 25.079)" fill="#3588cb"/>
        <path id="path4904" d="M34.282,18.067A15.156,15.156,0,1,1,19.125,2.91,15.156,15.156,0,0,1,34.282,18.067Z" transform="translate(9.405 6.897)" fill="#e4eff8"/>
        <path id="path4890" d="M12.14,31.8v-.564C12.14,27.21,4.5,24.093,4.5,15.65A12.932,12.932,0,0,1,17.871,2.381,12.932,12.932,0,0,1,31.245,15.65c0,8.444-7.642,11.56-7.642,15.589V31.8Z" transform="translate(10.658 5.643)" fill="#ffca28"/>
        <path id="path4899" d="M4.514,6.615C5.09,14.3,12.1,17.343,12.1,21.207v.564h5.731V15.736a2.674,2.674,0,1,1,0-3.979V6.615Z" transform="translate(10.698 15.674)" fill="#ecb200"/>
        <path id="ellipse4906" d="M23.652,19.053a8.7,8.7,0,0,1-8.916,8.47,8.7,8.7,0,0,1-8.916-8.47,8.7,8.7,0,0,1,8.916-8.47A8.7,8.7,0,0,1,23.652,19.053Z" transform="translate(13.794 25.079)" fill="#ffd1b5"/>
        <path id="ellipse4910" d="M19.08,11.121A8.183,8.183,0,0,1,20.716,16a8.7,8.7,0,0,1-8.916,8.47,9.219,9.219,0,0,1-5.494-1.813,9.063,9.063,0,0,0,7.277,3.6,8.7,8.7,0,0,0,8.916-8.47,8.324,8.324,0,0,0-3.42-6.657Z" transform="translate(14.946 26.354)" fill="#ffb98d"/>
        <path id="path4894" d="M11.6,2.381V7.525a2.674,2.674,0,1,0,0,3.979v5.142h4.251a2.676,2.676,0,1,0,3.979,0h5.088c.025-.328.056-.651.056-1A12.932,12.932,0,0,0,11.6,2.381Z" transform="translate(16.928 5.643)" fill="#ecb200"/>
        <path id="path4929" d="M9.558.266a13.351,13.351,0,0,0-1.639.1c3.509.523.771,2.891,5.947,4.975,2.433.98,3.637.7,4.547.348-.3-.093-.627-.206-.98-.348C11.517,2.964,15.938.211,9.558.266Z" transform="translate(18.766 0.628)" fill="#3588cb"/>
        <path id="ellipse11600" d="M28.529,0a7.354,7.354,0,0,0-3.284.529A2.977,2.977,0,0,0,23.81,2.156a4.846,4.846,0,0,1-.791,1.421,6.282,6.282,0,0,1-2.494,1.567,6.288,6.288,0,0,1-2.884.6,4.873,4.873,0,0,1-1.558-.475,2.989,2.989,0,0,0-2.173-.178,7.635,7.635,0,0,0-2.882,2.041,7.89,7.89,0,0,0-2.1,2.837,3.034,3.034,0,0,0,.139,2.171,4.835,4.835,0,0,1,.453,1.56,6.214,6.214,0,0,1-.651,2.856,6.307,6.307,0,0,1-1.612,2.462,5.542,5.542,0,0,1-1.468.8,3.086,3.086,0,0,0-1.644,1.506,8.593,8.593,0,0,0-.58,3.634,8.584,8.584,0,0,0,.58,3.639,3.093,3.093,0,0,0,1.644,1.5,5.558,5.558,0,0,1,1.468.808A6.266,6.266,0,0,1,8.87,33.363a6.219,6.219,0,0,1,.651,2.857,4.828,4.828,0,0,1-.453,1.558,3.026,3.026,0,0,0-.139,2.173,7.823,7.823,0,0,0,2.1,2.837,8.418,8.418,0,0,0,2.645,1.954,2.825,2.825,0,0,0,2.086.034,4.631,4.631,0,0,1,2.969-.528,9.062,9.062,0,0,0,2.789,6.428,13.655,13.655,0,0,0-4.69,5.065.894.894,0,0,0,1.574.848,11.847,11.847,0,0,1,4.6-4.722,10.2,10.2,0,0,0,11.046,0,11.854,11.854,0,0,1,4.606,4.721.894.894,0,0,0,1.572-.85,13.649,13.649,0,0,0-4.691-5.062,9.115,9.115,0,0,0,2.8-6.445,4.754,4.754,0,0,1,2.962.542,2.768,2.768,0,0,0,2.086-.034,8.421,8.421,0,0,0,2.645-1.954,7.824,7.824,0,0,0,2.1-2.837,3.028,3.028,0,0,0-.139-2.173,4.825,4.825,0,0,1-.453-1.558,6.22,6.22,0,0,1,.651-2.857A6.266,6.266,0,0,1,49.8,30.908a5.553,5.553,0,0,1,1.468-.808,3.093,3.093,0,0,0,1.644-1.5,8.593,8.593,0,0,0,.58-3.639,8.58,8.58,0,0,0-.58-3.634,3.086,3.086,0,0,0-1.644-1.506,5.54,5.54,0,0,1-1.468-.8,6.307,6.307,0,0,1-1.612-2.462,6.213,6.213,0,0,1-.651-2.856,4.839,4.839,0,0,1,.453-1.56,3.033,3.033,0,0,0,.139-2.171,7.891,7.891,0,0,0-2.1-2.837A7.633,7.633,0,0,0,43.147,5.09a2.988,2.988,0,0,0-2.173.178,4.874,4.874,0,0,1-1.558.475,6.291,6.291,0,0,1-2.884-.6,6.282,6.282,0,0,1-2.494-1.567,4.847,4.847,0,0,1-.791-1.421A2.977,2.977,0,0,0,31.813.529,7.352,7.352,0,0,0,28.529,0Zm0,1.783a6.122,6.122,0,0,1,2.488.34,1.262,1.262,0,0,1,.606.751A6.416,6.416,0,0,0,32.7,4.749a8.073,8.073,0,0,0,3.171,2.046,8.079,8.079,0,0,0,3.7.724,6.52,6.52,0,0,0,2.086-.606,1.248,1.248,0,0,1,.959-.118A6.274,6.274,0,0,1,44.778,8.4a6.565,6.565,0,0,1,1.658,2.133,1.249,1.249,0,0,1-.112.954,6.458,6.458,0,0,0-.566,2.086,7.984,7.984,0,0,0,.784,3.679,8.113,8.113,0,0,0,2.112,3.126,6.934,6.934,0,0,0,1.875,1.06,1.287,1.287,0,0,1,.777.67,7.074,7.074,0,0,1,.4,2.851,6.918,6.918,0,0,1-.4,2.849,1.349,1.349,0,0,1-.777.672,6.981,6.981,0,0,0-1.875,1.066,8.086,8.086,0,0,0-2.112,3.12,7.977,7.977,0,0,0-.784,3.678,6.456,6.456,0,0,0,.566,2.086,1.275,1.275,0,0,1,.112.954,6.2,6.2,0,0,1-1.658,2.133,6.831,6.831,0,0,1-2.053,1.567,1.04,1.04,0,0,1-.843.007,6.24,6.24,0,0,0-3.705-.629,9.066,9.066,0,0,0-1.565-3.632,16.047,16.047,0,0,0,5.238-22.818A13.756,13.756,0,0,0,28.529,7.136,13.741,13.741,0,0,0,15.21,16a16.049,16.049,0,0,0,5.234,22.835,9.035,9.035,0,0,0-1.557,3.627,6.3,6.3,0,0,0-3.712.63,1.025,1.025,0,0,1-.843-.007,6.828,6.828,0,0,1-2.053-1.567,6.2,6.2,0,0,1-1.658-2.133,1.267,1.267,0,0,1,.112-.954,6.458,6.458,0,0,0,.566-2.086,7.977,7.977,0,0,0-.784-3.678A8.086,8.086,0,0,0,8.4,29.547a6.981,6.981,0,0,0-1.875-1.066,1.35,1.35,0,0,1-.777-.672,6.935,6.935,0,0,1-.4-2.849,7.067,7.067,0,0,1,.4-2.851,1.287,1.287,0,0,1,.777-.67A6.935,6.935,0,0,0,8.4,20.379a8.113,8.113,0,0,0,2.112-3.126,7.983,7.983,0,0,0,.784-3.679,6.456,6.456,0,0,0-.566-2.086,1.252,1.252,0,0,1-.112-.954A6.563,6.563,0,0,1,12.279,8.4a6.274,6.274,0,0,1,2.166-1.605,1.248,1.248,0,0,1,.959.118,6.523,6.523,0,0,0,2.086.606,8.077,8.077,0,0,0,3.7-.724,8.073,8.073,0,0,0,3.171-2.046,6.417,6.417,0,0,0,1.073-1.875,1.262,1.262,0,0,1,.606-.751,6.123,6.123,0,0,1,2.488-.34Zm-.892,9.922a3.445,3.445,0,0,0-.888-.115,3.567,3.567,0,0,0,0,7.134,3.34,3.34,0,0,0,.888-.12V21.4H16.051c0-.037-.007-.07-.007-.108A12.009,12.009,0,0,1,27.637,8.942Zm1.785-2.763A12.009,12.009,0,0,1,41.014,21.291c0,.037,0,.071,0,.108H36.756a.891.891,0,0,0-.658,1.487,1.787,1.787,0,1,1-2.652,0,.892.892,0,0,0-.665-1.487H29.422V17.145a.892.892,0,0,0-1.487-.665,1.78,1.78,0,1,1,0-2.652.891.891,0,0,0,1.487-.658ZM42.316,28.622a14.257,14.257,0,0,1-6.906,8.841c-.078-.072-.181-.171-.261-.24v-.341a4.341,4.341,0,0,1,1.027-2.427c.668-.924,1.616-1.951,2.593-3.147a16,16,0,0,0,3.9-8.16,14.378,14.378,0,0,1-.357,5.475ZM18.288,31.308c.977,1.2,1.925,2.223,2.593,3.147a4.341,4.341,0,0,1,1.027,2.427l0,.348c-.08.07-.18.161-.258.233a14.261,14.261,0,0,1-6.906-8.841,14.008,14.008,0,0,1-.362-5.5,15.932,15.932,0,0,0,3.909,8.184Zm9.349-8.123v2.786a3.445,3.445,0,0,0-.888-.115,3.567,3.567,0,0,0,0,7.134,3.34,3.34,0,0,0,.888-.12v1.943A10.035,10.035,0,0,0,23.6,36.039a7,7,0,0,0-1.276-2.624c-.765-1.058-1.724-2.1-2.657-3.239a14.5,14.5,0,0,1-3.483-6.991Zm1.785,0h1.9a3.341,3.341,0,0,0-.12.888,3.567,3.567,0,0,0,7.134,0,3.467,3.467,0,0,0-.115-.888h2.647a14.356,14.356,0,0,1-3.481,6.991c-.933,1.142-1.892,2.181-2.657,3.239a7.01,7.01,0,0,0-1.275,2.626,10.036,10.036,0,0,0-4.033-1.228v-3.4a.892.892,0,0,0-1.487-.665,1.78,1.78,0,1,1,0-2.652.891.891,0,0,0,1.487-.658ZM28.384,38.673a2.969,2.969,0,0,1-1.29.585.891.891,0,1,0,.447,1.724,4.434,4.434,0,0,0,2.107-1.047,2.241,2.241,0,0,0,.658-1.764,4.551,4.551,0,0,0-.42-1.5,7.725,7.725,0,0,1,6.664,7.467,7.809,7.809,0,0,1-8.022,7.575,7.809,7.809,0,0,1-8.022-7.575,7.773,7.773,0,0,1,7.369-7.552,6.134,6.134,0,0,1,.653,1.7.425.425,0,0,1-.145.388ZM5.561,41.325.217,47.565a.892.892,0,0,0,.67,1.473h2.68v.89a.892.892,0,1,0,1.783,0V48.143a.892.892,0,0,0-.9-.888H2.822l3.416-3.982,3.416,3.982H8.022a.892.892,0,0,0-.888.888v.9a.892.892,0,1,0,1.783,0H11.59a.892.892,0,0,0,.677-1.473L6.916,41.325a.894.894,0,0,0-1.355,0Zm44.58,0-5.351,6.239a.892.892,0,0,0,.679,1.473h2.671v.89a.892.892,0,1,0,1.783,0V48.143a.892.892,0,0,0-.888-.888H47.4l3.416-3.982,3.415,3.982H52.6a.892.892,0,0,0-.895.888v.9a.892.892,0,0,0,1.783,0h2.671a.892.892,0,0,0,.679-1.473l-5.351-6.239a.888.888,0,0,0-1.349,0ZM25.9,45.9a.891.891,0,0,0-.813.454,3.571,3.571,0,0,0-.414,2.436.892.892,0,0,0,1.769,0,10.23,10.23,0,0,0,4.188,0,.892.892,0,0,0,1.769,0,3.572,3.572,0,0,0-.414-2.436.894.894,0,0,0-1.639.684,8.456,8.456,0,0,1-3.62,0,.892.892,0,0,0-.824-1.137l0,0Zm28.472,4.9a.893.893,0,0,0-.876.9v.9a.892.892,0,1,0,1.783,0v-.9A.891.891,0,0,0,54.368,50.808Zm-44.571,0a.892.892,0,0,0-.881.9v.89a.892.892,0,1,0,1.783,0v-.89A.893.893,0,0,0,9.8,50.812Zm37.442.885a.892.892,0,0,0-.881.909v.888a.892.892,0,0,0,1.783,0v-.888A.891.891,0,0,0,47.239,51.7Zm-45.456.909v.888a.892.892,0,1,0,1.783,0v-.888a.892.892,0,1,0-1.783,0ZM5.349,55.28v.888a.892.892,0,0,0,1.783,0V55.28a.892.892,0,1,0-1.783,0Zm44.575,0v.888a.893.893,0,0,0,1.785,0V55.28a.892.892,0,1,0-1.785,0Z" transform="translate(0 0)" fill="#333"/>
      </g>
    </g>
  </g>
</svg>
