<svg xmlns="http://www.w3.org/2000/svg" xmlns:xlink="http://www.w3.org/1999/xlink" width="113" height="113" viewBox="0 0 113 113">
  <defs>
    <filter id="Path_982547" x="0" y="0" width="113" height="113" filterUnits="userSpaceOnUse">
      <feOffset dy="3" input="SourceAlpha"/>
      <feGaussianBlur stdDeviation="3" result="blur"/>
      <feFlood flood-opacity="0.161"/>
      <feComposite operator="in" in2="blur"/>
      <feComposite in="SourceGraphic"/>
    </filter>
  </defs>
  <g id="Group_1208532" data-name="Group 1208532" transform="translate(-271 -9101)">
    <g id="Group_1208445" data-name="Group 1208445">
      <g id="Group_1208176" data-name="Group 1208176" transform="translate(0 6270.857)">
        <g id="Group_1207721" data-name="Group 1207721" transform="translate(-1 752.362)">
          <g id="Group_1207254" data-name="Group 1207254" transform="translate(0 -8747.046)">
            <g id="Group_1204125" data-name="Group 1204125" transform="translate(0 6984.49)">
              <g id="Group_1203962" data-name="Group 1203962" transform="translate(0 1899.461)">
                <g id="Group_1203498" data-name="Group 1203498" transform="translate(0 -197.72)">
                  <g id="Group_1202589" data-name="Group 1202589" transform="translate(281 2144.596)">
                    <g id="Group_1172010" data-name="Group 1172010" transform="translate(0)">
                      <g id="Group_1171046" data-name="Group 1171046">
                        <g id="Group_1148525" data-name="Group 1148525">
                          <g transform="matrix(1, 0, 0, 1, -9, -6)" filter="url(#Path_982547)">
                            <g id="Path_982547-2" data-name="Path 982547" transform="translate(9 6)" fill="#edf3fc">
                              <path d="M 47.5 93.5 C 41.28937149047852 93.5 35.26533508300781 92.28397369384766 29.59518623352051 89.88570404052734 C 24.11771965026855 87.56893157958984 19.19813346862793 84.25196075439453 14.97309303283691 80.02691650390625 C 10.74804019927979 75.80186462402344 7.431066513061523 70.88229370117188 5.114293098449707 65.40481567382812 C 2.716026782989502 59.73468017578125 1.5 53.71062850952148 1.5 47.5 C 1.5 41.28937149047852 2.716026782989502 35.26533508300781 5.114293098449707 29.59518623352051 C 7.431066513061523 24.11771965026855 10.74804019927979 19.19813346862793 14.97309303283691 14.97309303283691 C 19.19813346862793 10.74804019927979 24.11771965026855 7.431066513061523 29.59518623352051 5.114293098449707 C 35.26533508300781 2.716026782989502 41.28937149047852 1.5 47.5 1.5 C 53.71062850952148 1.5 59.73468017578125 2.716026782989502 65.40481567382812 5.114293098449707 C 70.88229370117188 7.431066513061523 75.80186462402344 10.74804019927979 80.02691650390625 14.97309303283691 C 84.25196075439453 19.19813346862793 87.56893157958984 24.11771965026855 89.88570404052734 29.59518623352051 C 92.28397369384766 35.26533508300781 93.5 41.28937149047852 93.5 47.5 C 93.5 53.71062850952148 92.28397369384766 59.73468017578125 89.88570404052734 65.40481567382812 C 87.56893157958984 70.88229370117188 84.25196075439453 75.80186462402344 80.02691650390625 80.02691650390625 C 75.80186462402344 84.25196075439453 70.88229370117188 87.56893157958984 65.40481567382812 89.88570404052734 C 59.73468017578125 92.28397369384766 53.71062850952148 93.5 47.5 93.5 Z" stroke="none"/>
                              <path d="M 47.5 3 C 41.49121475219727 3 35.66376876831055 4.176155090332031 30.17950439453125 6.495796203613281 C 24.88084411621094 8.736953735351562 20.12152099609375 11.94598388671875 16.03375244140625 16.03375244140625 C 11.94598388671875 20.12152099609375 8.736953735351562 24.88084411621094 6.495796203613281 30.17950439453125 C 4.176155090332031 35.66376876831055 3 41.49121475219727 3 47.5 C 3 53.50878524780273 4.176155090332031 59.33623123168945 6.495796203613281 64.82049560546875 C 8.736953735351562 70.11915588378906 11.94598388671875 74.87847900390625 16.03375244140625 78.96624755859375 C 20.12152099609375 83.05401611328125 24.88084411621094 86.26304626464844 30.17950439453125 88.50419616699219 C 35.66376876831055 90.82384490966797 41.49121475219727 92 47.5 92 C 53.50878524780273 92 59.33623123168945 90.82384490966797 64.82049560546875 88.50419616699219 C 70.11915588378906 86.26304626464844 74.87847900390625 83.05401611328125 78.96624755859375 78.96624755859375 C 83.05401611328125 74.87847900390625 86.26304626464844 70.11915588378906 88.50419616699219 64.82049560546875 C 90.82384490966797 59.33623123168945 92 53.50878524780273 92 47.5 C 92 41.49121475219727 90.82384490966797 35.66376876831055 88.50419616699219 30.17950439453125 C 86.26304626464844 24.88084411621094 83.05401611328125 20.12152099609375 78.96624755859375 16.03375244140625 C 74.87847900390625 11.94598388671875 70.11915588378906 8.736953735351562 64.82049560546875 6.495796203613281 C 59.33623123168945 4.176155090332031 53.50878524780273 3 47.5 3 M 47.5 0 C 73.7335205078125 0 95 21.2664794921875 95 47.5 C 95 73.7335205078125 73.7335205078125 95 47.5 95 C 21.2664794921875 95 0 73.7335205078125 0 47.5 C 0 21.2664794921875 21.2664794921875 0 47.5 0 Z" stroke="none" fill="#5692e8"/>
                            </g>
                          </g>
                        </g>
                      </g>
                    </g>
                  </g>
                </g>
              </g>
            </g>
          </g>
        </g>
      </g>
      <g id="geography_12693586" transform="translate(289.54 9114.541)">
        <path id="Path_1052999" data-name="Path 1052999" d="M62.554,333.106a21.207,21.207,0,0,0-17.513,14.778,4.832,4.832,0,0,0,4.635,6.23H62.554V333.106Z" transform="translate(-32.752 -285.695)" fill="#ffdf61"/>
        <path id="Path_1053000" data-name="Path 1053000" d="M129.446,7.5c-.361,0-.719.012-1.076.028-6.124,2.662-10.431,8.4-10.431,13.949,0,4.811,2.629,9.8,8.982,12.51H152.7A23.419,23.419,0,0,0,129.446,7.5Z" transform="translate(-96.903 0)" fill="#515181"/>
        <path id="Path_1053001" data-name="Path 1053001" d="M36.594,21.659A18.637,18.637,0,0,1,42.853,7.707,23.416,23.416,0,0,0,20.674,34.169H41.4A18.615,18.615,0,0,1,36.594,21.659Z" transform="translate(-11.382 -0.182)" fill="#41416d"/>
        <circle id="Ellipse_13498" data-name="Ellipse 13498" cx="5.067" cy="5.067" r="5.067" transform="translate(7.5 31.281)" fill="#b57159"/>
        <circle id="Ellipse_13499" data-name="Ellipse 13499" cx="5.067" cy="5.067" r="5.067" transform="translate(47.452 31.281)" fill="#c8866a"/>
        <path id="Path_1053002" data-name="Path 1053002" d="M151.286,110.89a18.5,18.5,0,0,0-8.774-15.748,2.2,2.2,0,0,0-3.247,1.238l-.008.027c-1.74,5.437-6.776,8.684-11.249,7.252a7.022,7.022,0,0,1-.952-.383l-.023-.01h0a2.347,2.347,0,0,0-.87-.224c-10,9.07-1.8,24.888,11.69,25.657.24-.068.375-.113.384-.115h0A18.522,18.522,0,0,0,151.286,110.89Z" transform="translate(-100.222 -76.613)" fill="#db9e82"/>
        <path id="Path_1053003" data-name="Path 1053003" d="M83.938,187.424h0a18.521,18.521,0,0,1-11.308-25.542,2.252,2.252,0,0,0-1.733.644,8.283,8.283,0,0,1-8.318,2.4l-.012,0a1.091,1.091,0,0,0-1.413.786,18.521,18.521,0,0,0,17.288,22.527,19.606,19.606,0,0,0,5.878-.7C84.082,187.472,83.946,187.427,83.938,187.424Z" transform="translate(-46.691 -135.454)" fill="#c8866a"/>
        <g id="Group_1208443" data-name="Group 1208443" transform="translate(19.159 34.413)">
          <g id="Group_1208442" data-name="Group 1208442" transform="translate(0 1.327)">
            <g id="Group_1208441" data-name="Group 1208441" transform="translate(0 0)">
              <ellipse id="Ellipse_13500" data-name="Ellipse 13500" cx="3.603" cy="2.869" rx="3.603" ry="2.869" transform="translate(0 0.179) rotate(-0.384)" fill="#fff"/>
              <ellipse id="Ellipse_13501" data-name="Ellipse 13501" cx="3.603" cy="2.869" rx="3.603" ry="2.869" transform="translate(19.528 0.048) rotate(-0.384)" fill="#fff"/>
            </g>
          </g>
          <line id="Line_869" data-name="Line 869" x2="0.01" y2="1.473" transform="translate(5.692 0.102)" fill="none" stroke="#000" stroke-linecap="round" stroke-linejoin="round" stroke-miterlimit="10" stroke-width="1"/>
          <line id="Line_870" data-name="Line 870" x2="0.01" y2="1.473" transform="translate(21.02)" fill="none" stroke="#000" stroke-linecap="round" stroke-linejoin="round" stroke-miterlimit="10" stroke-width="1"/>
          <path id="Path_1053004" data-name="Path 1053004" d="M195.174,239.056a2.678,2.678,0,0,0,4.041-.027" transform="translate(-183.829 -237.562)" fill="none" stroke="#000" stroke-linecap="round" stroke-linejoin="round" stroke-miterlimit="10" stroke-width="1"/>
        </g>
        <path id="Path_1053005" data-name="Path 1053005" d="M153.29,302.552a22,22,0,0,0-5.506,10.816l4.942,7.027,10.3,3.554h0l12.708-25.1C160.01,297.921,153.29,302.552,153.29,302.552Z" transform="translate(-123.089 -255.531)" fill="#90d6f2"/>
        <path id="Path_1053006" data-name="Path 1053006" d="M293.913,317.148a22.057,22.057,0,0,0-9.474-17.615,77.673,77.673,0,0,0-9.357-.741,22.085,22.085,0,0,0-9.645,25.215h22.971a5.477,5.477,0,0,0,5.478-5.161Q293.931,318,293.913,317.148Z" transform="translate(-225.498 -255.587)" fill="#a8e1f6"/>
        <path id="Path_1053007" data-name="Path 1053007" d="M216.2,273.767a22.036,22.036,0,0,0-23.5,5.777c.1.009.2.015.3.015h.608a3.007,3.007,0,0,1,2.752,1.8l.52,1.18a6.218,6.218,0,0,0,2.831,3.015l3.076,1.593Z" transform="translate(-162.5 -232.522)" fill="#81c661"/>
        <path id="Path_1053008" data-name="Path 1053008" d="M293.506,292.076l-1.231-1.674a3.007,3.007,0,0,1,.376-3.984l.969-.9a22.062,22.062,0,0,0-5.252-2.7,22.123,22.123,0,0,0-13.407,13.373l3.865,2a3.007,3.007,0,0,1,1.624,2.67,3.007,3.007,0,0,0,1.677,2.7l1.324.653a6.826,6.826,0,0,0,6.344-.162l3.281-1.831a3.007,3.007,0,0,0,1.542-2.626v-4.125A5.729,5.729,0,0,0,293.506,292.076Z" transform="translate(-234.678 -241.571)" fill="#8dd470"/>
        <path id="Path_1053009" data-name="Path 1053009" d="M155.164,421.767h-2.78a3.146,3.146,0,0,1-2.935-2.014l-.488-1.266a3.145,3.145,0,0,0-4.059-1.806h0a22.171,22.171,0,0,0-.4,4.208q0,.625.034,1.241a5.467,5.467,0,0,0,5.475,5.132h10.131l-2.248-3.917A3.146,3.146,0,0,0,155.164,421.767Z" transform="translate(-120.207 -358.844)" fill="#81c661"/>
        <g id="Group_1208444" data-name="Group 1208444" transform="translate(7.5 7.5)">
          <path id="Path_1053010" data-name="Path 1053010" d="M67.326,32.483q.052-.758.053-1.53A23.453,23.453,0,0,0,43.925,7.5c-.361,0-.719.012-1.076.028h0l0,0A23.453,23.453,0,0,0,20.472,30.953q0,.726.047,1.441" transform="translate(-18.882 -7.5)" fill="none" stroke="#000" stroke-linecap="round" stroke-linejoin="round" stroke-miterlimit="10" stroke-width="1"/>
          <path id="Path_1053011" data-name="Path 1053011" d="M15.052,211a5.067,5.067,0,1,1-1.029-9.272" transform="translate(-7.5 -177.732)" fill="none" stroke="#000" stroke-linecap="round" stroke-linejoin="round" stroke-miterlimit="10" stroke-width="1"/>
          <path id="Path_1053012" data-name="Path 1053012" d="M362.491,201.741a5.068,5.068,0,1,1,2.813,9.737" transform="translate(-318.978 -177.732)" fill="none" stroke="#000" stroke-linecap="round" stroke-linejoin="round" stroke-miterlimit="10" stroke-width="1"/>
          <path id="Path_1053013" data-name="Path 1053013" d="M92.941,98.437a18.618,18.618,0,0,0-3.959-3.294,2.2,2.2,0,0,0-3.247,1.238l-.009.027c-1.74,5.437-6.776,8.684-11.249,7.252a7.028,7.028,0,0,1-.952-.383l-.023-.01h0a2.347,2.347,0,0,0-.87-.224v0a2.252,2.252,0,0,0-1.733.644,8.283,8.283,0,0,1-8.319,2.4l-.012,0a1.091,1.091,0,0,0-1.413.786,18.52,18.52,0,0,0,12.233,21.6" transform="translate(-54.192 -84.114)" fill="none" stroke="#000" stroke-linecap="round" stroke-linejoin="round" stroke-miterlimit="10" stroke-width="1"/>
          <path id="Path_1053014" data-name="Path 1053014" d="M345.373,167.705a18.564,18.564,0,0,0-1.337-14.916" transform="translate(-302.785 -134.98)" fill="none" stroke="#000" stroke-linecap="round" stroke-linejoin="round" stroke-miterlimit="10" stroke-width="1"/>
          <path id="Path_1053015" data-name="Path 1053015" d="M55.147,282.34A21.242,21.242,0,0,0,45.04,294.712a4.832,4.832,0,0,0,4.635,6.23H95.66a5.477,5.477,0,0,0,5.478-5.161q.046-.841.028-1.7a22.126,22.126,0,0,0-14.718-20.316h0a22.051,22.051,0,0,0-29.4,20.8q0,.625.034,1.241a5.461,5.461,0,0,0,4.817,5.093" transform="translate(-40.251 -240.022)" fill="none" stroke="#000" stroke-linecap="round" stroke-linejoin="round" stroke-miterlimit="10" stroke-width="1"/>
          <path id="Path_1053016" data-name="Path 1053016" d="M306.492,317.884a3.006,3.006,0,0,1,1.624,2.67,3.007,3.007,0,0,0,1.677,2.7l1.324.653a6.826,6.826,0,0,0,6.344-.162l3.281-1.831a3.007,3.007,0,0,0,1.542-2.626v-4.125a5.729,5.729,0,0,0-1.113-3.393l-1.231-1.674a3.007,3.007,0,0,1,.376-3.984l.914-.849" transform="translate(-269.843 -268.762)" fill="none" stroke="#000" stroke-linecap="round" stroke-linejoin="round" stroke-miterlimit="10" stroke-width="1"/>
          <path id="Path_1053017" data-name="Path 1053017" d="M195.121,330.053h.608a3.007,3.007,0,0,1,2.752,1.8l.52,1.18a6.218,6.218,0,0,0,2.831,3.015l3.076,1.593" transform="translate(-172.124 -290.516)" fill="none" stroke="#000" stroke-linecap="round" stroke-linejoin="round" stroke-miterlimit="10" stroke-width="1"/>
          <path id="Path_1053018" data-name="Path 1053018" d="M164.626,427.035l-2.116-3.688a3.146,3.146,0,0,0-2.729-1.58H157a3.146,3.146,0,0,1-2.935-2.014l-.488-1.266a3.145,3.145,0,0,0-3.816-1.887" transform="translate(-132.324 -366.344)" fill="none" stroke="#000" stroke-linecap="round" stroke-linejoin="round" stroke-miterlimit="10" stroke-width="1"/>
        </g>
      </g>
    </g>
  </g>
</svg>
