<svg xmlns="http://www.w3.org/2000/svg" xmlns:xlink="http://www.w3.org/1999/xlink" width="113" height="113" viewBox="0 0 113 113">
  <defs>
    <filter id="Path_982547" x="0" y="0" width="113" height="113" filterUnits="userSpaceOnUse">
      <feOffset dy="3" input="SourceAlpha"/>
      <feGaussianBlur stdDeviation="3" result="blur"/>
      <feFlood flood-opacity="0.161"/>
      <feComposite operator="in" in2="blur"/>
      <feComposite in="SourceGraphic"/>
    </filter>
    <clipPath id="clip-path">
      <path id="path2007" d="M0-682.665H72.709v72.709H0Z" transform="translate(0 682.665)"/>
    </clipPath>
  </defs>
  <g id="Group_1208551" data-name="Group 1208551" transform="translate(-585.06 -4512.942)">
    <g id="Group_1208491" data-name="Group 1208491">
      <g id="Group_1208256" data-name="Group 1208256" transform="translate(0 1682.8)">
        <g id="Group_1207722" data-name="Group 1207722" transform="translate(-1 752.362)">
          <g id="Group_1207255" data-name="Group 1207255" transform="translate(0 -8747.046)">
            <g id="Group_1204126" data-name="Group 1204126" transform="translate(0 6984.49)">
              <g id="Group_1203959" data-name="Group 1203959" transform="translate(0 1899.461)">
                <g id="Group_1203497" data-name="Group 1203497" transform="translate(595.061 1946.875)">
                  <g id="Group_1172010" data-name="Group 1172010" transform="translate(0)">
                    <g id="Group_1171046" data-name="Group 1171046">
                      <g id="Group_1148525" data-name="Group 1148525">
                        <g transform="matrix(1, 0, 0, 1, -9, -6)" filter="url(#Path_982547)">
                          <g id="Path_982547-2" data-name="Path 982547" transform="translate(9 6)" fill="#edf3fc">
                            <path d="M 47.5 93.5 C 41.28937149047852 93.5 35.26533508300781 92.28397369384766 29.59518623352051 89.88570404052734 C 24.11771965026855 87.56893157958984 19.19813346862793 84.25196075439453 14.97309303283691 80.02691650390625 C 10.74804019927979 75.80186462402344 7.431066513061523 70.88229370117188 5.114293098449707 65.40481567382812 C 2.716026782989502 59.73468017578125 1.5 53.71062850952148 1.5 47.5 C 1.5 41.28937149047852 2.716026782989502 35.26533508300781 5.114293098449707 29.59518623352051 C 7.431066513061523 24.11771965026855 10.74804019927979 19.19813346862793 14.97309303283691 14.97309303283691 C 19.19813346862793 10.74804019927979 24.11771965026855 7.431066513061523 29.59518623352051 5.114293098449707 C 35.26533508300781 2.716026782989502 41.28937149047852 1.5 47.5 1.5 C 53.71062850952148 1.5 59.73468017578125 2.716026782989502 65.40481567382812 5.114293098449707 C 70.88229370117188 7.431066513061523 75.80186462402344 10.74804019927979 80.02691650390625 14.97309303283691 C 84.25196075439453 19.19813346862793 87.56893157958984 24.11771965026855 89.88570404052734 29.59518623352051 C 92.28397369384766 35.26533508300781 93.5 41.28937149047852 93.5 47.5 C 93.5 53.71062850952148 92.28397369384766 59.73468017578125 89.88570404052734 65.40481567382812 C 87.56893157958984 70.88229370117188 84.25196075439453 75.80186462402344 80.02691650390625 80.02691650390625 C 75.80186462402344 84.25196075439453 70.88229370117188 87.56893157958984 65.40481567382812 89.88570404052734 C 59.73468017578125 92.28397369384766 53.71062850952148 93.5 47.5 93.5 Z" stroke="none"/>
                            <path d="M 47.5 3 C 41.49121475219727 3 35.66376876831055 4.176155090332031 30.17950439453125 6.495796203613281 C 24.88084411621094 8.736953735351562 20.12152099609375 11.94598388671875 16.03375244140625 16.03375244140625 C 11.94598388671875 20.12152099609375 8.736953735351562 24.88084411621094 6.495796203613281 30.17950439453125 C 4.176155090332031 35.66376876831055 3 41.49121475219727 3 47.5 C 3 53.50878524780273 4.176155090332031 59.33623123168945 6.495796203613281 64.82049560546875 C 8.736953735351562 70.11915588378906 11.94598388671875 74.87847900390625 16.03375244140625 78.96624755859375 C 20.12152099609375 83.05401611328125 24.88084411621094 86.26304626464844 30.17950439453125 88.50419616699219 C 35.66376876831055 90.82384490966797 41.49121475219727 92 47.5 92 C 53.50878524780273 92 59.33623123168945 90.82384490966797 64.82049560546875 88.50419616699219 C 70.11915588378906 86.26304626464844 74.87847900390625 83.05401611328125 78.96624755859375 78.96624755859375 C 83.05401611328125 74.87847900390625 86.26304626464844 70.11915588378906 88.50419616699219 64.82049560546875 C 90.82384490966797 59.33623123168945 92 53.50878524780273 92 47.5 C 92 41.49121475219727 90.82384490966797 35.66376876831055 88.50419616699219 30.17950439453125 C 86.26304626464844 24.88084411621094 83.05401611328125 20.12152099609375 78.96624755859375 16.03375244140625 C 74.87847900390625 11.94598388671875 70.11915588378906 8.736953735351562 64.82049560546875 6.495796203613281 C 59.33623123168945 4.176155090332031 53.50878524780273 3 47.5 3 M 47.5 0 C 73.7335205078125 0 95 21.2664794921875 95 47.5 C 95 73.7335205078125 73.7335205078125 95 47.5 95 C 21.2664794921875 95 0 73.7335205078125 0 47.5 C 0 21.2664794921875 21.2664794921875 0 47.5 0 Z" stroke="none" fill="#5692e8"/>
                          </g>
                        </g>
                      </g>
                    </g>
                  </g>
                </g>
              </g>
            </g>
          </g>
        </g>
      </g>
      <g id="g2001" transform="translate(605.281 5212.753)">
        <g id="g2003" transform="translate(0 -682.665)">
          <g id="g2005" clip-path="url(#clip-path)">
            <g id="g2011" transform="translate(10.097 10.242)">
              <path id="path2013" d="M-220.279,0a26.288,26.288,0,0,0-26.258,26.258,26.288,26.288,0,0,0,26.258,26.258A26.288,26.288,0,0,0-194.02,26.258,26.288,26.288,0,0,0-220.279,0" transform="translate(246.537)" fill="#c8a9f1"/>
            </g>
            <g id="g2015" transform="translate(10.096 10.577)">
              <path id="path2017" d="M-86.334-207.791a33.666,33.666,0,0,1,11.782-24.77,26.3,26.3,0,0,0-22.073,25.923,26.288,26.288,0,0,0,26.258,26.258,26.148,26.148,0,0,0,8.455-1.4,26.068,26.068,0,0,1-24.422-26.015" transform="translate(96.625 232.561)" fill="#b18ae3"/>
            </g>
            <g id="g2019" transform="translate(12.942 47.336)">
              <path id="path2021" d="M-196.41-77.373v9.107a29.12,29.12,0,0,1-23.413-11.8l6.534-6.532Z" transform="translate(219.823 86.596)" fill="#30cc9b"/>
            </g>
            <g id="g2023" transform="translate(36.355 47.336)">
              <path id="path2025" d="M0-77.373v9.107a29.12,29.12,0,0,0,23.413-11.8L16.879-86.6Z" transform="translate(0 86.596)" fill="#30cc9b"/>
            </g>
            <g id="g2027" transform="translate(19.206 53.399)">
              <path id="path2029" d="M-287.711-153.06c0-12.75-6.336-18.245-6.336-18.245h-21.625s-6.336,5.5-6.336,18.245Z" transform="translate(322.007 171.305)" fill="#71dbba"/>
            </g>
            <g id="g2031" transform="translate(7.241 33.549)">
              <path id="path2033" d="M-102.639-115.657l-6.534,6.532a29,29,0,0,1-5.693-15.446,4.56,4.56,0,0,1,4.543-4.874,4.551,4.551,0,0,1,4.541,4.262Z" transform="translate(114.874 129.444)" fill="#ffd3bc"/>
            </g>
            <g id="g2035" transform="translate(53.234 33.549)">
              <path id="path2037" d="M0-115.657l6.534,6.532a29,29,0,0,0,5.693-15.446,4.56,4.56,0,0,0-4.543-4.874,4.551,4.551,0,0,0-4.541,4.262Z" transform="translate(0 129.444)" fill="#ffbe9c"/>
            </g>
            <g id="g2039" transform="translate(19.206 53.399)">
              <path id="path2041" d="M-67.429-92.275a17.009,17.009,0,0,1,4.015-11h-5.717s-6.336,5.5-6.336,18.245h9.648a17.011,17.011,0,0,1-1.61-7.246" transform="translate(75.466 103.274)" fill="#30cc9b"/>
            </g>
            <g id="g2043" transform="translate(16.296 23.13)">
              <path id="path2045" d="M-250.192-25.139a19.1,19.1,0,0,1-6.176-1.019,1.213,1.213,0,0,0-1.465,1.714,17.6,17.6,0,0,0,1.369,2.188,1.2,1.2,0,0,1-.97,1.9h-.025a17.57,17.57,0,0,1-13.792-6.664,2.919,2.919,0,0,0-4.6.019,19.974,19.974,0,0,0-4.165,12.466A20.115,20.115,0,0,0-260.1,5.293a20.059,20.059,0,0,0,20.2-20.059,19.963,19.963,0,0,0-3.122-10.75,1.215,1.215,0,0,0-1.389-.514,19.128,19.128,0,0,1-5.784.89" transform="translate(280.016 28.136)" fill="#ffd3bc"/>
            </g>
            <g id="g2047" transform="translate(16.295 23.131)">
              <path id="path2049" d="M-34.331-102.479a31.513,31.513,0,0,1,2.607-12.207,2.892,2.892,0,0,0-2.533,1.12A19.974,19.974,0,0,0-38.422-101.1,20.134,20.134,0,0,0-24.808-82.334a26.015,26.015,0,0,1-9.523-20.145" transform="translate(38.424 114.695)" fill="#ffbe9c"/>
            </g>
            <g id="g2051" transform="translate(19.413 38.628)">
              <path id="path2053" d="M-76.613-30.5c0,2.008-2.044,3.636-4.566,3.636S-85.745-28.5-85.745-30.5s2.044-3.636,4.566-3.636,4.566,1.628,4.566,3.636" transform="translate(85.745 34.141)" fill="#ff8d9d"/>
            </g>
            <g id="g2055" transform="translate(44.164 38.628)">
              <path id="path2057" d="M0-30.5c0,2.008,2.044,3.636,4.566,3.636S9.133-28.5,9.133-30.5s-2.044-3.636-4.566-3.636S0-32.513,0-30.5" transform="translate(0 34.141)" fill="#ff8d9d"/>
            </g>
            <g id="g2059" transform="translate(33.931 36.758)">
              <path id="path2061" d="M-40.668-22.754a2.58,2.58,0,0,0-2.424-2.712,2.58,2.58,0,0,0-2.424,2.712,2.58,2.58,0,0,0,2.424,2.712,2.58,2.58,0,0,0,2.424-2.712" transform="translate(45.516 25.467)" fill="#423e4f"/>
            </g>
            <g id="g2063" transform="translate(33.931 36.758)">
              <path id="path2065" d="M-40.668-22.754a2.58,2.58,0,0,0-2.424-2.712,2.58,2.58,0,0,0-2.424,2.712,2.58,2.58,0,0,0,2.424,2.712A2.58,2.58,0,0,0-40.668-22.754Z" transform="translate(45.516 25.467)" fill="none" stroke="#000" stroke-linecap="round" stroke-linejoin="round" stroke-miterlimit="10" stroke-width="1"/>
            </g>
            <g id="g2067" transform="translate(25.155 35.816)">
              <path id="path2069" d="M-34.087-17.044a2.032,2.032,0,0,0-2.032-2.032,2.032,2.032,0,0,0-2.032,2.032" transform="translate(38.151 19.076)" fill="none" stroke="#000" stroke-linecap="round" stroke-linejoin="round" stroke-miterlimit="10" stroke-width="1"/>
            </g>
            <g id="g2071" transform="translate(43.316 35.816)">
              <path id="path2073" d="M0-17.044a2.032,2.032,0,0,1,2.032-2.032,2.032,2.032,0,0,1,2.032,2.032" transform="translate(0 19.076)" fill="none" stroke="#000" stroke-linecap="round" stroke-linejoin="round" stroke-miterlimit="10" stroke-width="1"/>
            </g>
            <g id="g2075" transform="translate(7.799 12.744)">
              <path id="path2077" d="M-34.871-24.908l-4.157-2.969" transform="translate(39.028 27.877)" fill="none" stroke="#000" stroke-linecap="round" stroke-linejoin="round" stroke-miterlimit="10" stroke-width="1"/>
            </g>
            <g id="g2079" transform="translate(25.486 1.065)">
              <path id="path2081" d="M-15.679-39.883l-1.869-4.754" transform="translate(17.548 44.637)" fill="none" stroke="#000" stroke-linecap="round" stroke-linejoin="round" stroke-miterlimit="10" stroke-width="1"/>
            </g>
            <g id="g2083" transform="translate(60.754 12.744)">
              <path id="path2085" d="M0-24.908l4.157-2.969" transform="translate(0 27.877)" fill="none" stroke="#000" stroke-linecap="round" stroke-linejoin="round" stroke-miterlimit="10" stroke-width="1"/>
            </g>
            <g id="g2087" transform="translate(45.355 1.065)">
              <path id="path2089" d="M0-39.883l1.869-4.754" transform="translate(0 44.637)" fill="none" stroke="#000" stroke-linecap="round" stroke-linejoin="round" stroke-miterlimit="10" stroke-width="1"/>
            </g>
            <g id="g2091" transform="translate(10.232 10.242)">
              <path id="path2093" d="M-77.314-51.876a26.235,26.235,0,0,0-9.216,17.4,4.539,4.539,0,0,1,1.56-.276,4.551,4.551,0,0,1,4.541,4.263l.007.021c-.024-.366-.039-.735-.044-1.107A19.974,19.974,0,0,1-76.3-44.042a2.919,2.919,0,0,1,4.6-.02A17.57,17.57,0,0,0-57.91-37.4h.025a1.2,1.2,0,0,0,.97-1.9,17.607,17.607,0,0,1-1.369-2.188A1.213,1.213,0,0,1-56.819-43.2a19.1,19.1,0,0,0,6.176,1.019,19.127,19.127,0,0,0,5.784-.89,1.215,1.215,0,0,1,1.389.514A19.963,19.963,0,0,1-40.349-31.8c0,.448-.016.893-.045,1.333l.007-.022a4.551,4.551,0,0,1,4.541-4.263,4.539,4.539,0,0,1,1.56.276A26.3,26.3,0,0,0-60.408-58.06,26.1,26.1,0,0,0-73.8-54.383" transform="translate(86.53 58.06)" fill="none" stroke="#000" stroke-linecap="round" stroke-linejoin="round" stroke-miterlimit="10" stroke-width="1"/>
            </g>
            <g id="g2095" transform="translate(7.241 33.549)">
              <path id="path2097" d="M-76.336-35.934l-.007-.021a4.551,4.551,0,0,0-4.541-4.263,4.56,4.56,0,0,0-4.543,4.874A29,29,0,0,0-79.735-19.9L-73.2-26.43l-.02-.059A19.9,19.9,0,0,1-76.336-35.934Z" transform="translate(85.436 40.217)" fill="none" stroke="#000" stroke-linecap="round" stroke-linejoin="round" stroke-miterlimit="10" stroke-width="1"/>
            </g>
            <g id="g2099" transform="translate(53.236 33.549)">
              <path id="path2101" d="M-89.643-104.676a28.88,28.88,0,0,0,1.538-7.6,4.56,4.56,0,0,0-4.543-4.874,4.551,4.551,0,0,0-4.541,4.263l-.007.022a19.945,19.945,0,0,1-3.132,9.505l6.531,6.53a29.3,29.3,0,0,0,2.318-3.653" transform="translate(100.329 117.154)" fill="none" stroke="#000" stroke-linecap="round" stroke-linejoin="round" stroke-miterlimit="10" stroke-width="1"/>
            </g>
            <g id="g2103" transform="translate(12.942 47.336)">
              <path id="path2105" d="M-105.7-50.862h.037a20.3,20.3,0,0,1-6.076-6.048l-.027-.015-6.534,6.532a29.421,29.421,0,0,0,7.923,7.335A19.219,19.219,0,0,1-105.7-50.862Z" transform="translate(118.305 56.925)" fill="none" stroke="#000" stroke-linecap="round" stroke-linejoin="round" stroke-miterlimit="10" stroke-width="1"/>
            </g>
            <g id="g2107" transform="translate(47.166 47.339)">
              <path id="path2109" d="M-50.928,0A20.16,20.16,0,0,1-57,6.06h0a19.216,19.216,0,0,1,4.677,7.8A29.42,29.42,0,0,0-44.4,6.53Z" transform="translate(56.999)" fill="none" stroke="#000" stroke-linecap="round" stroke-linejoin="round" stroke-miterlimit="10" stroke-width="1"/>
            </g>
            <g id="g2111" transform="translate(19.206 53.399)">
              <path id="path2113" d="M-234.562,0h0a19.966,19.966,0,0,1-10.955,3.16A19.9,19.9,0,0,1-256.152,0h-.036s-6.336,5.5-6.336,18.245h34.3C-228.227,5.5-234.562,0-234.562,0Z" transform="translate(262.523 0)" fill="none" stroke="#000" stroke-linecap="round" stroke-linejoin="round" stroke-miterlimit="10" stroke-width="1"/>
            </g>
            <g id="g2115" transform="translate(16.296 23.13)">
              <path id="path2117" d="M-250.192-25.139a19.1,19.1,0,0,1-6.176-1.019,1.214,1.214,0,0,0-1.465,1.714,17.621,17.621,0,0,0,1.369,2.188,1.2,1.2,0,0,1-.97,1.9h-.025a17.57,17.57,0,0,1-13.792-6.664,2.919,2.919,0,0,0-4.6.019,19.973,19.973,0,0,0-4.165,12.466A20.115,20.115,0,0,0-260.1,5.293a20.059,20.059,0,0,0,20.2-20.059,19.962,19.962,0,0,0-3.122-10.75,1.215,1.215,0,0,0-1.389-.514A19.124,19.124,0,0,1-250.192-25.139Z" transform="translate(280.016 28.136)" fill="none" stroke="#000" stroke-linecap="round" stroke-linejoin="round" stroke-miterlimit="10" stroke-width="1"/>
            </g>
          </g>
        </g>
      </g>
    </g>
  </g>
</svg>
