<svg xmlns="http://www.w3.org/2000/svg" xmlns:xlink="http://www.w3.org/1999/xlink" width="113" height="113" viewBox="0 0 113 113">
  <defs>
    <filter id="Path_982547" x="0" y="0" width="113" height="113" filterUnits="userSpaceOnUse">
      <feOffset dy="3" input="SourceAlpha"/>
      <feGaussianBlur stdDeviation="3" result="blur"/>
      <feFlood flood-opacity="0.161"/>
      <feComposite operator="in" in2="blur"/>
      <feComposite in="SourceGraphic"/>
    </filter>
  </defs>
  <g id="Group_1208510" data-name="Group 1208510" transform="translate(-585.06 -961.142)">
    <g id="Group_1208379" data-name="Group 1208379">
      <g id="Group_1208167" data-name="Group 1208167" transform="translate(0 -1869)">
        <g id="Group_1207722" data-name="Group 1207722" transform="translate(-1 752.362)">
          <g id="Group_1207255" data-name="Group 1207255" transform="translate(0 -8747.046)">
            <g id="Group_1204126" data-name="Group 1204126" transform="translate(0 6984.49)">
              <g id="Group_1203959" data-name="Group 1203959" transform="translate(0 1899.461)">
                <g id="Group_1203497" data-name="Group 1203497" transform="translate(595.061 1946.875)">
                  <g id="Group_1172010" data-name="Group 1172010" transform="translate(0)">
                    <g id="Group_1171046" data-name="Group 1171046">
                      <g id="Group_1148525" data-name="Group 1148525">
                        <g transform="matrix(1, 0, 0, 1, -9, -6)" filter="url(#Path_982547)">
                          <g id="Path_982547-2" data-name="Path 982547" transform="translate(9 6)" fill="#edf3fc">
                            <path d="M 47.5 93.5 C 41.28937149047852 93.5 35.26533508300781 92.28397369384766 29.59518623352051 89.88570404052734 C 24.11771965026855 87.56893157958984 19.19813346862793 84.25196075439453 14.97309303283691 80.02691650390625 C 10.74804019927979 75.80186462402344 7.431066513061523 70.88229370117188 5.114293098449707 65.40481567382812 C 2.716026782989502 59.73468017578125 1.5 53.71062850952148 1.5 47.5 C 1.5 41.28937149047852 2.716026782989502 35.26533508300781 5.114293098449707 29.59518623352051 C 7.431066513061523 24.11771965026855 10.74804019927979 19.19813346862793 14.97309303283691 14.97309303283691 C 19.19813346862793 10.74804019927979 24.11771965026855 7.431066513061523 29.59518623352051 5.114293098449707 C 35.26533508300781 2.716026782989502 41.28937149047852 1.5 47.5 1.5 C 53.71062850952148 1.5 59.73468017578125 2.716026782989502 65.40481567382812 5.114293098449707 C 70.88229370117188 7.431066513061523 75.80186462402344 10.74804019927979 80.02691650390625 14.97309303283691 C 84.25196075439453 19.19813346862793 87.56893157958984 24.11771965026855 89.88570404052734 29.59518623352051 C 92.28397369384766 35.26533508300781 93.5 41.28937149047852 93.5 47.5 C 93.5 53.71062850952148 92.28397369384766 59.73468017578125 89.88570404052734 65.40481567382812 C 87.56893157958984 70.88229370117188 84.25196075439453 75.80186462402344 80.02691650390625 80.02691650390625 C 75.80186462402344 84.25196075439453 70.88229370117188 87.56893157958984 65.40481567382812 89.88570404052734 C 59.73468017578125 92.28397369384766 53.71062850952148 93.5 47.5 93.5 Z" stroke="none"/>
                            <path d="M 47.5 3 C 41.49121475219727 3 35.66376876831055 4.176155090332031 30.17950439453125 6.495796203613281 C 24.88084411621094 8.736953735351562 20.12152099609375 11.94598388671875 16.03375244140625 16.03375244140625 C 11.94598388671875 20.12152099609375 8.736953735351562 24.88084411621094 6.495796203613281 30.17950439453125 C 4.176155090332031 35.66376876831055 3 41.49121475219727 3 47.5 C 3 53.50878524780273 4.176155090332031 59.33623123168945 6.495796203613281 64.82049560546875 C 8.736953735351562 70.11915588378906 11.94598388671875 74.87847900390625 16.03375244140625 78.96624755859375 C 20.12152099609375 83.05401611328125 24.88084411621094 86.26304626464844 30.17950439453125 88.50419616699219 C 35.66376876831055 90.82384490966797 41.49121475219727 92 47.5 92 C 53.50878524780273 92 59.33623123168945 90.82384490966797 64.82049560546875 88.50419616699219 C 70.11915588378906 86.26304626464844 74.87847900390625 83.05401611328125 78.96624755859375 78.96624755859375 C 83.05401611328125 74.87847900390625 86.26304626464844 70.11915588378906 88.50419616699219 64.82049560546875 C 90.82384490966797 59.33623123168945 92 53.50878524780273 92 47.5 C 92 41.49121475219727 90.82384490966797 35.66376876831055 88.50419616699219 30.17950439453125 C 86.26304626464844 24.88084411621094 83.05401611328125 20.12152099609375 78.96624755859375 16.03375244140625 C 74.87847900390625 11.94598388671875 70.11915588378906 8.736953735351562 64.82049560546875 6.495796203613281 C 59.33623123168945 4.176155090332031 53.50878524780273 3 47.5 3 M 47.5 0 C 73.7335205078125 0 95 21.2664794921875 95 47.5 C 95 73.7335205078125 73.7335205078125 95 47.5 95 C 21.2664794921875 95 0 73.7335205078125 0 47.5 C 0 21.2664794921875 21.2664794921875 0 47.5 0 Z" stroke="none" fill="#5692e8"/>
                          </g>
                        </g>
                      </g>
                    </g>
                  </g>
                </g>
              </g>
            </g>
          </g>
        </g>
      </g>
      <g id="Layer_40" transform="translate(608.018 1011.308)">
        <g id="Group_1208378" data-name="Group 1208378" transform="translate(0.073 -26.721)">
          <g id="Group_1208355" data-name="Group 1208355" transform="translate(21.767 0)">
            <g id="Group_1208351" data-name="Group 1208351" transform="translate(4.028 3.212)">
              <path id="Path_1052835" data-name="Path 1052835" d="M245.068,37.735A19.695,19.695,0,1,1,249,21.75,19.684,19.684,0,0,1,245.068,37.735Z" transform="translate(-209.14 -4.864)" fill="#c35b26"/>
              <path id="Path_1052836" data-name="Path 1052836" d="M223.939,39.628a20.513,20.513,0,1,1,.7-.013ZM223.965.3l-.913.025A18.726,18.726,0,1,0,223.965.3Z" transform="translate(-203.4 1.4)"/>
            </g>
            <g id="Group_1208352" data-name="Group 1208352" transform="translate(19.881 15.783)">
              <ellipse id="Ellipse_13491" data-name="Ellipse 13491" cx="14.957" cy="6.889" rx="14.957" ry="6.889" transform="translate(0 23.393) rotate(-51.412)" fill="#f37c48"/>
              <path id="Path_1052837" data-name="Path 1052837" d="M362.888,150.579a.739.739,0,0,1-.749-.609,20.438,20.438,0,0,1,16.188-23.927,20.73,20.73,0,0,1,3.184-.355.743.743,0,0,1,.774.609A20.438,20.438,0,0,1,366.1,150.224a20.731,20.731,0,0,1-3.184.355ZM380.9,127.236a18.914,18.914,0,0,0-17.558,20.171c.038.546.1,1.078.178,1.624a18.914,18.914,0,0,0,17.558-20.171C381.043,128.315,380.992,127.769,380.9,127.236Z" transform="translate(-357.529 -122.135)"/>
            </g>
            <g id="Group_1208353" data-name="Group 1208353" transform="translate(0)">
              <path id="Path_1052891" data-name="Path 1052891" d="M14.767,0c8.156,0,14.767,2.993,14.767,6.686s-6.611,6.686-14.767,6.686S0,10.378,0,6.686,6.611,0,14.767,0Z" transform="translate(0 23.096) rotate(-51.412)" fill="#f37c48"/>
              <path id="Path_1052838" data-name="Path 1052838" d="M205.472,24.8a.761.761,0,0,1-.748-.634A20.433,20.433,0,0,1,221.28.48a21.913,21.913,0,0,1,2.575-.292.747.747,0,0,1,.787.622,20.412,20.412,0,0,1-16.492,23.7,20.472,20.472,0,0,1-2.639.292ZM223.259,1.749a18.892,18.892,0,0,0-17.266,20.387c.025.368.076.723.127,1.091A18.9,18.9,0,0,0,223.259,1.749Z" transform="translate(-200.251 3.227)"/>
            </g>
            <path id="Path_1052839" data-name="Path 1052839" d="M263.492,66.121a.768.768,0,0,1-.6-1.243l24.536-30.739a.752.752,0,0,1,1.066-.114.765.765,0,0,1,.127,1.066L264.088,65.83A.777.777,0,0,1,263.492,66.121Z" transform="translate(-251.179 -26.169)"/>
            <g id="Group_1208354" data-name="Group 1208354" transform="translate(8.448 10.791)">
              <path id="Path_1052840" data-name="Path 1052840" d="M244.2,64.3l30.752,24.536" transform="translate(-243.443 -63.543)" fill="none"/>
              <path id="Path_1052841" data-name="Path 1052841" d="M269.744,84.389a.819.819,0,0,1-.482-.165L238.522,59.688a.747.747,0,0,1-.127-1.053l.013-.013a.763.763,0,0,1,1.066-.127l30.739,24.536a.763.763,0,0,1,.127,1.066A.777.777,0,0,1,269.744,84.389Z" transform="translate(-238.235 -58.335)"/>
            </g>
          </g>
          <g id="Group_1208362" data-name="Group 1208362" transform="translate(0 7.631)">
            <g id="Group_1208356" data-name="Group 1208356">
              <path id="Path_1052842" data-name="Path 1052842" d="M42.19,58.515c-.013.127-.013.254-.025.393a18,18,0,0,1-.546,3.273,18.274,18.274,0,0,1-6.952,10.086l-.19.127a17.449,17.449,0,0,1-2.88,1.649c-.419.19-.85.368-1.281.52s-1.066.355-1.611.507a18.532,18.532,0,0,1-3.54.558l-.469.025h-.8A18.015,18.015,0,0,1,13.76,72.42l-.533-.393-.444-.317a18.109,18.109,0,0,1-5.912-8.525,17.919,17.919,0,0,1-.622-2.461A18.143,18.143,0,0,1,17.528,40.64a18.65,18.65,0,0,1,5.7-1.205,18.169,18.169,0,0,1,17.7,11.38,1.7,1.7,0,0,1,.089.228,18.779,18.779,0,0,1,.875,3.07,18.292,18.292,0,0,1,.3,4.4Z" transform="translate(-5.218 -38.652)" fill="#c6cdc9"/>
              <path id="Path_1052843" data-name="Path 1052843" d="M18.967,71.208h-.228A18.8,18.8,0,0,1,8.183,67.833l-.558-.406c-.14-.1-.3-.216-.457-.343A18.817,18.817,0,0,1,1,58.2v-.025A18.888,18.888,0,0,1,36.5,45.315l.089.241A17.246,17.246,0,0,1,37.5,48.74a19.224,19.224,0,0,1,.317,4.592c-.013.14-.013.279-.025.406a19.227,19.227,0,0,1-.571,3.4v.025a19.055,19.055,0,0,1-7.244,10.492,1.15,1.15,0,0,1-.2.14,18.847,18.847,0,0,1-2.994,1.713c-.444.2-.888.393-1.332.546s-1.1.381-1.675.533a20.158,20.158,0,0,1-3.692.584l-.495.025ZM2.462,57.76A17.3,17.3,0,0,0,8.12,65.892l.419.317c.165.127.33.254.507.368a17.309,17.309,0,0,0,9.718,3.108h.761l.457-.025a16.993,16.993,0,0,0,3.387-.546,13.628,13.628,0,0,0,1.548-.482,10.2,10.2,0,0,0,1.218-.495A17.055,17.055,0,0,0,28.9,66.565l.165-.127a17.372,17.372,0,0,0,6.66-9.629c0-.013,0-.025.013-.025a17.514,17.514,0,0,0,.52-3.146,3.584,3.584,0,0,0,.025-.368,17.467,17.467,0,0,0-.292-4.225,16.8,16.8,0,0,0-.837-2.931v-.025l-.076-.19A17.366,17.366,0,0,0,1.853,55.375a16.911,16.911,0,0,0,.6,2.36Z" transform="translate(-0.073 -33.431)"/>
            </g>
            <g id="Group_1208357" data-name="Group 1208357" transform="translate(11.547 0)">
              <path id="Path_1052844" data-name="Path 1052844" d="M110.763,40.884l-1.4,2-7.168.444-5.1-2.664a18.65,18.65,0,0,1,5.7-1.205A18.242,18.242,0,0,1,110.763,40.884Z" transform="translate(-96.338 -38.681)" fill="#231f20"/>
              <path id="Path_1052845" data-name="Path 1052845" d="M96.956,38.845a.864.864,0,0,1-.355-.089L91.5,36.1a.768.768,0,0,1-.406-.723.758.758,0,0,1,.482-.672,18.928,18.928,0,0,1,14.234.228.752.752,0,0,1,.444.495.742.742,0,0,1-.114.647l-1.4,1.992a.747.747,0,0,1-.571.33l-7.181.444Zm-3.146-3.26,3.311,1.725,6.584-.406.634-.913A17.266,17.266,0,0,0,93.81,35.584Z" transform="translate(-91.094 -33.432)"/>
            </g>
            <g id="Group_1208358" data-name="Group 1208358" transform="translate(6.671 10.253)">
              <path id="Path_1052846" data-name="Path 1052846" d="M66.161,120.3l5.493,5.848L67.772,133,59.5,131.616l-.9-7.739Z" transform="translate(-57.846 -119.533)" fill="#231f20"/>
              <path id="Path_1052847" data-name="Path 1052847" d="M62.586,128.479h-.127l-8.259-1.4a.741.741,0,0,1-.634-.66l-.9-7.739a.759.759,0,0,1,.431-.774l7.561-3.59a.758.758,0,0,1,.875.178l5.493,5.848a.765.765,0,0,1,.1.9L63.245,128.1A.732.732,0,0,1,62.586,128.479Zm-7.574-2.8,7.181,1.205,3.337-5.9-4.719-5.037-6.572,3.108Z" transform="translate(-52.66 -114.252)"/>
            </g>
            <path id="Path_1052848" data-name="Path 1052848" d="M194,67.852a.757.757,0,0,1-.558-.241L188.022,61.9a.759.759,0,0,1,.038-1.066.743.743,0,0,1,1.053.013l.013.013,5.417,5.709a.762.762,0,0,1-.025,1.078A.786.786,0,0,1,194,67.852Z" transform="translate(-164.003 -57.174)"/>
            <g id="Group_1208359" data-name="Group 1208359" transform="translate(26.96 9.152)">
              <path id="Path_1052849" data-name="Path 1052849" d="M227.848,121.546c-.013.127-.013.254-.025.393l-5.138,2.081-4.085-6.343,2.271-6.077,5.8,2.474a18.778,18.778,0,0,1,.875,3.07A18.293,18.293,0,0,1,227.848,121.546Z" transform="translate(-217.837 -110.836)" fill="#231f20"/>
              <path id="Path_1052850" data-name="Path 1052850" d="M217.434,119.521a.768.768,0,0,1-.634-.355l-4.1-6.343a.745.745,0,0,1-.063-.672l2.271-6.077a.717.717,0,0,1,.406-.431.7.7,0,0,1,.6,0l5.81,2.474a.732.732,0,0,1,.406.419,17.663,17.663,0,0,1,.913,3.2,19.223,19.223,0,0,1,.317,4.593c-.013.14-.013.279-.025.406a.731.731,0,0,1-.469.647l-5.138,2.081a.752.752,0,0,1-.292.063Zm-3.235-7.193,3.54,5.481,4.1-1.662a16.647,16.647,0,0,0-.292-4.123,15.937,15.937,0,0,0-.723-2.639l-4.77-2.03Z" transform="translate(-212.586 -105.575)"/>
            </g>
            <g id="Group_1208360" data-name="Group 1208360" transform="translate(0.888 23.777)">
              <path id="Path_1052851" data-name="Path 1052851" d="M19.012,235.325A18.109,18.109,0,0,1,13.1,226.8l4.453,2.068,2.131,6.292.3.888Z" transform="translate(-12.335 -226.046)" fill="#231f20"/>
              <path id="Path_1052852" data-name="Path 1052852" d="M14.725,231.619a.733.733,0,0,1-.457-.152l-.99-.736a18.817,18.817,0,0,1-6.166-8.881.733.733,0,0,1,.216-.8.758.758,0,0,1,.825-.127l4.453,2.068a.719.719,0,0,1,.393.444l2.448,7.168a.784.784,0,0,1-.279.863.7.7,0,0,1-.444.152ZM9.22,223.093a17.352,17.352,0,0,0,3.933,5.519l-1.484-4.377Z" transform="translate(-7.072 -220.855)"/>
            </g>
            <path id="Path_1052853" data-name="Path 1052853" d="M112.962,72.055A.988.988,0,0,1,112.7,72a.769.769,0,0,1-.444-.99l2.423-6.369a.761.761,0,0,1,1.421.546l-2.423,6.369a.74.74,0,0,1-.71.495Z" transform="translate(-97.975 -60.273)"/>
            <path id="Path_1052854" data-name="Path 1052854" d="M155.989,155.86a.763.763,0,0,1-.089-1.522l7.244-.875a.761.761,0,0,1,.19,1.51h-.013l-7.244.888Z" transform="translate(-135.51 -138.23)"/>
            <path id="Path_1052855" data-name="Path 1052855" d="M42.9,211.935a.8.8,0,0,1-.343-.076.757.757,0,0,1-.355-1,.012.012,0,0,1,.013-.013l1.9-3.882a.757.757,0,0,1,1-.355.012.012,0,0,1,.013.013.76.76,0,0,1,.355,1.015l-1.9,3.882A.767.767,0,0,1,42.9,211.935Z" transform="translate(-36.799 -184.574)"/>
            <path id="Path_1052856" data-name="Path 1052856" d="M17.084,125.438a.8.8,0,0,1-.343-.076l-5.278-2.715a.743.743,0,0,1-.33-1v-.013a.727.727,0,0,1,.977-.343c.013,0,.025.013.038.013l5.29,2.7a.773.773,0,0,1,.33,1.028A.785.785,0,0,1,17.084,125.438Z" transform="translate(-9.659 -110.079)"/>
            <g id="Group_1208361" data-name="Group 1208361" transform="translate(16.317 29.03)">
              <path id="Path_1052857" data-name="Path 1052857" d="M147.069,272.119l-.19.127a17.451,17.451,0,0,1-2.88,1.649c-.419.19-.85.368-1.281.52s-1.066.355-1.611.507a18.536,18.536,0,0,1-3.54.558l-2.867-1.738,3.4-4.757,7.244-.685Z" transform="translate(-133.937 -267.534)" fill="#231f20"/>
              <path id="Path_1052858" data-name="Path 1052858" d="M132.319,270.968a.712.712,0,0,1-.393-.114l-2.867-1.738a.754.754,0,0,1-.228-1.091l3.4-4.757a.786.786,0,0,1,.546-.317l7.244-.685a.725.725,0,0,1,.761.444l1.738,3.819a.773.773,0,0,1-.254.926,1.15,1.15,0,0,1-.2.14,18.844,18.844,0,0,1-2.994,1.713c-.444.2-.888.393-1.332.546s-1.1.381-1.675.533a20.155,20.155,0,0,1-3.692.584Zm-1.776-2.728,1.966,1.193a16.609,16.609,0,0,0,3.159-.533,13.626,13.626,0,0,0,1.548-.482,10.194,10.194,0,0,0,1.218-.495,17.481,17.481,0,0,0,2.436-1.345l-1.243-2.753-6.356.609Z" transform="translate(-128.689 -262.26)"/>
            </g>
            <path id="Path_1052859" data-name="Path 1052859" d="M213.329,212.45a.765.765,0,0,1-.368-.1.756.756,0,0,1-.3-1.028l4.085-7.46a.766.766,0,1,1,1.345.736l-4.1,7.447A.755.755,0,0,1,213.329,212.45Z" transform="translate(-185.606 -181.892)"/>
            <path id="Path_1052860" data-name="Path 1052860" d="M129.517,222.658a.761.761,0,0,1-.66-.381l-3.882-6.762a.762.762,0,0,1,1.319-.761l3.882,6.762a.754.754,0,0,1-.279,1.04A.813.813,0,0,1,129.517,222.658Z" transform="translate(-109.038 -191.416)"/>
            <path id="Path_1052861" data-name="Path 1052861" d="M73.9,293.94h-.178l-8.069-1.878a.762.762,0,1,1,.343-1.484l8.069,1.865a.742.742,0,0,1,.571.888v.025A.748.748,0,0,1,73.9,293.94Z" transform="translate(-56.816 -257.94)"/>
          </g>
          <g id="Group_1208367" data-name="Group 1208367" transform="translate(6.664 29.207)">
            <g id="Group_1208363" data-name="Group 1208363">
              <path id="Path_1052862" data-name="Path 1052862" d="M101.112,223.062c0,2.905-2.753,6.61-7.13,9.413a26.2,26.2,0,0,1-5.836,2.778,25.9,25.9,0,0,1-8.284,1.37,25.413,25.413,0,0,1-10.01-2.093,26.679,26.679,0,0,1-5.836-3.425c-3.362-2.651-5.417-5.734-5.417-8.043a5.127,5.127,0,0,1,.228-1.51,7.249,7.249,0,0,1,.355-1q.114-.228.228-.495a16.433,16.433,0,0,1,4.605-5.214,25.416,25.416,0,0,1,5.836-3.349,26.529,26.529,0,0,1,10.01-1.992,25.7,25.7,0,0,1,7.713,1.193l.571.19a27.508,27.508,0,0,1,5.836,2.816c4.377,2.829,7.13,6.546,7.13,9.363Z" transform="translate(-57.839 -208.739)" fill="#a17c6c"/>
              <path id="Path_1052863" data-name="Path 1052863" d="M74.624,232.146A26.153,26.153,0,0,1,64.322,230a27.042,27.042,0,0,1-6.013-3.54c-3.514-2.766-5.709-6.077-5.709-8.639a6.02,6.02,0,0,1,.254-1.713,6.716,6.716,0,0,1,.393-1.1l.254-.533a16.908,16.908,0,0,1,4.821-5.481,26.177,26.177,0,0,1,6.013-3.438A26.785,26.785,0,0,1,74.624,203.5a26.352,26.352,0,0,1,7.942,1.231H82.6l.546.178a27.117,27.117,0,0,1,6.013,2.905c4.542,2.931,7.472,6.863,7.472,10s-2.931,7.142-7.485,10.06a27.115,27.115,0,0,1-6,2.854A26.3,26.3,0,0,1,74.624,232.146Zm0-27.124a25.305,25.305,0,0,0-9.718,1.941,24.561,24.561,0,0,0-5.658,3.235,15.717,15.717,0,0,0-4.39,4.973c-.076.14-.152.3-.216.444a8.788,8.788,0,0,0-.33.913,4.438,4.438,0,0,0-.19,1.294c0,2.081,2.017,5,5.125,7.447a25.667,25.667,0,0,0,5.671,3.324,24.552,24.552,0,0,0,9.705,2.03A25.633,25.633,0,0,0,88.338,226.6c4.06-2.6,6.775-6.128,6.775-8.779s-2.728-6.1-6.787-8.728a25.292,25.292,0,0,0-5.658-2.728l-.558-.178-.051-.025A25.047,25.047,0,0,0,74.624,205.022Z" transform="translate(-52.6 -203.5)"/>
            </g>
            <g id="Group_1208364" data-name="Group 1208364" transform="translate(5.417 1.993)">
              <path id="Path_1052864" data-name="Path 1052864" d="M107.136,225.2v23.039a26.681,26.681,0,0,1-5.836-3.425V228.549A25.417,25.417,0,0,1,107.136,225.2Z" transform="translate(-100.539 -224.441)" fill="#bba795"/>
              <path id="Path_1052865" data-name="Path 1052865" d="M101.9,243.773a.745.745,0,0,1-.292-.051,27.042,27.042,0,0,1-6.013-3.54.777.777,0,0,1-.292-.6V223.322a.757.757,0,0,1,.3-.609,25.464,25.464,0,0,1,6.013-3.438.748.748,0,0,1,.71.063.793.793,0,0,1,.33.634v23.039a.778.778,0,0,1-.343.647A.8.8,0,0,1,101.9,243.773Zm-5.075-4.567a24.949,24.949,0,0,0,4.313,2.626V221.14a24.566,24.566,0,0,0-4.313,2.55Z" transform="translate(-95.3 -219.213)"/>
            </g>
            <g id="Group_1208365" data-name="Group 1208365" transform="translate(29.547 1.383)">
              <path id="Path_1052866" data-name="Path 1052866" d="M291.5,220.4a27.506,27.506,0,0,1,5.836,2.816v18.776a26.2,26.2,0,0,1-5.836,2.778Z" transform="translate(-290.739 -219.639)" fill="#bba795"/>
              <path id="Path_1052867" data-name="Path 1052867" d="M286.261,240.293a.623.623,0,0,1-.444-.14.758.758,0,0,1-.317-.622V215.161a.763.763,0,0,1,.761-.761.8.8,0,0,1,.241.038,26.478,26.478,0,0,1,6,2.905.768.768,0,0,1,.355.634v18.776a.773.773,0,0,1-.355.647,27.115,27.115,0,0,1-6,2.854A.8.8,0,0,1,286.261,240.293Zm.761-24.041v22.2a26.146,26.146,0,0,0,4.313-2.119V218.4A26.268,26.268,0,0,0,287.022,216.252Z" transform="translate(-285.5 -214.4)"/>
            </g>
            <g id="Group_1208366" data-name="Group 1208366" transform="translate(14.932 12.116)">
              <path id="Path_1052868" data-name="Path 1052868" d="M170.3,310.5h12.242v1.522H170.3Z" transform="translate(-170.3 -309.041)"/>
              <path id="Path_1052869" data-name="Path 1052869" d="M179.2,299h1.522v4.364H179.2Z" transform="translate(-178.071 -299)"/>
              <path id="Path_1052870" data-name="Path 1052870" d="M202,299h1.522v4.364H202Z" transform="translate(-197.978 -299)"/>
              <path id="Path_1052871" data-name="Path 1052871" d="M224.7,299h1.522v4.364H224.7Z" transform="translate(-217.799 -299)"/>
              <path id="Path_1052872" data-name="Path 1052872" d="M244.8,299h1.522v4.364H244.8Z" transform="translate(-235.349 -299)"/>
            </g>
          </g>
          <g id="Group_1208374" data-name="Group 1208374" transform="translate(0.437 39.485)">
            <g id="Group_1208371" data-name="Group 1208371">
              <g id="Group_1208368" data-name="Group 1208368">
                <path id="Path_1052873" data-name="Path 1052873" d="M27.588,299.644a8.941,8.941,0,1,1-2.728-6.432A8.95,8.95,0,0,1,27.588,299.644Z" transform="translate(-8.915 -289.915)" fill="#c6cdc9"/>
                <path id="Path_1052874" data-name="Path 1052874" d="M13.244,303.962a9.728,9.728,0,1,1,9.705-9.718,9.738,9.738,0,0,1-9.705,9.718Zm0-17.9a8.183,8.183,0,1,0,5.684,2.3A8.186,8.186,0,0,0,13.244,286.062Z" transform="translate(-3.516 -284.516)"/>
              </g>
              <g id="Group_1208369" data-name="Group 1208369" transform="translate(0.012 2.101)">
                <path id="Path_1052875" data-name="Path 1052875" d="M16.019,313.963a8.982,8.982,0,0,1-3.21,6.876,8.932,8.932,0,0,1-1.167-12.572,9.223,9.223,0,0,1,1.167-1.167A8.956,8.956,0,0,1,16.019,313.963Z" transform="translate(-8.827 -306.336)" fill="#d5c7c1"/>
                <path id="Path_1052876" data-name="Path 1052876" d="M7.59,316.34a.788.788,0,0,1-.495-.178A9.712,9.712,0,0,1,5.852,302.5,10.463,10.463,0,0,1,7.1,301.256a.75.75,0,0,1,.977,0,9.706,9.706,0,0,1,0,14.907.754.754,0,0,1-.482.178Zm0-13.473a8.174,8.174,0,0,0-.127,11.557l.127.127a8.175,8.175,0,0,0,2.448-5.848A8.146,8.146,0,0,0,7.59,302.867Z" transform="translate(-3.607 -301.075)"/>
              </g>
              <g id="Group_1208370" data-name="Group 1208370" transform="translate(11.494 2.101)">
                <path id="Path_1052877" data-name="Path 1052877" d="M100.1,313.963a8.941,8.941,0,0,0,3.21,6.876,8.954,8.954,0,0,0,1.116-12.623,8.439,8.439,0,0,0-1.116-1.116A8.915,8.915,0,0,0,100.1,313.963Z" transform="translate(-99.341 -306.336)" fill="#d5c7c1"/>
                <path id="Path_1052878" data-name="Path 1052878" d="M98.087,316.34a.788.788,0,0,1-.495-.178A9.733,9.733,0,0,1,96.4,302.448a9.625,9.625,0,0,1,1.193-1.193.75.75,0,0,1,.977,0,9.712,9.712,0,0,1,1.243,13.663,10.462,10.462,0,0,1-1.243,1.243A.754.754,0,0,1,98.087,316.34Zm0-13.473a8.2,8.2,0,0,0-.089,11.6.585.585,0,0,0,.089.089,8.2,8.2,0,0,0,.089-11.6A.586.586,0,0,0,98.087,302.867Z" transform="translate(-94.118 -301.075)"/>
              </g>
            </g>
            <g id="Group_1208372" data-name="Group 1208372" transform="translate(10.654 3.397)">
              <path id="Path_1052879" data-name="Path 1052879" d="M0,0H1.522V3.375H0Z" transform="matrix(0.562, -0.827, 0.827, 0.562, 1.171, 1.259)"/>
              <path id="Path_1052880" data-name="Path 1052880" d="M0,0H1.522V3.375H0Z" transform="translate(0.056 4.749) rotate(-76.825)"/>
              <path id="Path_1052881" data-name="Path 1052881" d="M0,0H3.375V1.522H0Z" transform="translate(0 7.204) rotate(-13.175)"/>
              <path id="Path_1052882" data-name="Path 1052882" d="M0,0H3.375V1.522H0Z" transform="matrix(0.827, -0.562, 0.562, 0.827, 1.154, 11.063)"/>
            </g>
            <g id="Group_1208373" data-name="Group 1208373" transform="translate(4.341 3.442)">
              <path id="Path_1052883" data-name="Path 1052883" d="M0,0H3.375V1.522H0Z" transform="matrix(0.827, -0.562, 0.562, 0.827, 0, 1.897)"/>
              <path id="Path_1052884" data-name="Path 1052884" d="M0,0H3.375V1.522H0Z" transform="translate(1.098 4.099) rotate(-13.175)"/>
              <path id="Path_1052885" data-name="Path 1052885" d="M0,0H1.522V3.375H0Z" transform="translate(1.155 7.772) rotate(-76.825)"/>
              <path id="Path_1052886" data-name="Path 1052886" d="M0,0H1.522V3.375H0Z" transform="matrix(0.562, -0.827, 0.827, 0.562, 0.037, 10.334)"/>
            </g>
          </g>
          <g id="Group_1208377" data-name="Group 1208377" transform="translate(45.129 40.685)">
            <g id="Group_1208375" data-name="Group 1208375" transform="translate(0 1.072)">
              <path id="Path_1052887" data-name="Path 1052887" d="M379.713,316.191a8.957,8.957,0,1,1-14.691-6.876,9.1,9.1,0,0,1,1.421-.977c.736,1.814-.228,5.531-.406,7.244-.241,2.182,1.941,3.958,4.326,3.958h.774c2.4,0,4.605-1.776,4.339-3.958-.216-1.725-1.345-5.481-.457-7.282a9.45,9.45,0,0,1,1.954,1.434A8.993,8.993,0,0,1,379.713,316.191Z" transform="translate(-361.039 -307.555)" fill="#607216"/>
              <path id="Path_1052888" data-name="Path 1052888" d="M365.518,320.781a9.7,9.7,0,0,1-6.216-17.165,8.443,8.443,0,0,1,1.535-1.053.716.716,0,0,1,.622-.051.694.694,0,0,1,.444.419c.647,1.586.216,4.11-.127,6.14-.1.584-.178,1.091-.228,1.484a2.366,2.366,0,0,0,.66,1.865,3.991,3.991,0,0,0,2.918,1.243h.774a4.045,4.045,0,0,0,2.956-1.256,2.35,2.35,0,0,0,.622-1.84c-.051-.393-.152-.9-.266-1.484-.393-2.068-.9-4.631-.114-6.229a.741.741,0,0,1,.457-.393.726.726,0,0,1,.584.063,9.844,9.844,0,0,1,2.131,1.548,9.718,9.718,0,0,1-6.749,16.708ZM360.7,304.454l-.419.33a8.189,8.189,0,1,0,11.139.6l-.2-.2a8.5,8.5,0,0,0-.977-.812,17.142,17.142,0,0,0,.469,4.428c.127.609.228,1.142.279,1.586a3.814,3.814,0,0,1-.99,3.032,5.506,5.506,0,0,1-4.1,1.776h-.774a5.5,5.5,0,0,1-4.047-1.738,3.957,3.957,0,0,1-1.04-3.057c.051-.444.14-.964.241-1.573A20.352,20.352,0,0,0,360.7,304.454Z" transform="translate(-355.8 -302.427)"/>
            </g>
            <g id="Group_1208376" data-name="Group 1208376" transform="translate(4.217)">
              <path id="Path_1052889" data-name="Path 1052889" d="M400.174,312.305H399.4c-2.385,0-4.567-1.776-4.326-3.958.178-1.713,1.142-5.43.406-7.244a9.018,9.018,0,0,1,8.576-.038c-.888,1.8.241,5.557.457,7.282C404.779,310.529,402.572,312.305,400.174,312.305Z" transform="translate(-394.293 -299.235)" fill="#4c6612"/>
              <path id="Path_1052890" data-name="Path 1052890" d="M394.921,307.806h-.774a5.5,5.5,0,0,1-4.047-1.738,3.957,3.957,0,0,1-1.04-3.057c.051-.444.14-.964.241-1.573.279-1.649.7-4.136.216-5.3a.765.765,0,0,1,.343-.952,9.683,9.683,0,0,1,9.3-.038.743.743,0,0,1,.33,1c-.558,1.129-.076,3.616.241,5.265.127.609.228,1.142.279,1.586a3.814,3.814,0,0,1-.99,3.032A5.506,5.506,0,0,1,394.921,307.806Zm-3.793-11.57a16.132,16.132,0,0,1-.33,5.455c-.1.584-.178,1.091-.228,1.484a2.366,2.366,0,0,0,.66,1.865,3.991,3.991,0,0,0,2.918,1.243h.774a4.045,4.045,0,0,0,2.956-1.256,2.35,2.35,0,0,0,.622-1.84c-.051-.393-.152-.9-.266-1.484-.342-1.776-.761-3.933-.368-5.506A8.306,8.306,0,0,0,391.128,296.236Z" transform="translate(-389.039 -293.974)"/>
            </g>
          </g>
        </g>
      </g>
    </g>
  </g>
</svg>
